ISO-10303-21;
HEADER;
FILE_DESCRIPTION (( 'STEP AP214' ),
    '1' );
FILE_NAME ('Arm1.STEP',
    '2026-01-29T14:41:14',
    ( '' ),
    ( '' ),
    'SwSTEP 2.0',
    'SolidWorks 2025',
    '' );
FILE_SCHEMA (( 'AUTOMOTIVE_DESIGN' ));
ENDSEC;

DATA;
#1 = DIRECTION ( 'NONE',  ( 0.000000000000000000, 1.000000000000000000, -0.000000000000000000 ) ) ;
#2 = CARTESIAN_POINT ( 'NONE',  ( 63.42842712474604383, 75.42842712474629252, 12.00000000000000000 ) ) ;
#3 = LINE ( 'NONE', #251, #769 ) ;
#4 = ADVANCED_FACE ( 'NONE', ( #541 ), #530, .F. ) ;
#5 = AXIS2_PLACEMENT_3D ( 'NONE', #377, #571, #567 ) ;
#6 = PRODUCT_DEFINITION_CONTEXT ( 'detailed design', #577, 'design' ) ;
#7 = DIRECTION ( 'NONE',  ( 0.000000000000000000, 0.000000000000000000, -1.000000000000000000 ) ) ;
#8 = CARTESIAN_POINT ( 'NONE',  ( 15.83646478466423169, 8.696831524237424560, -30.08719703238245557 ) ) ;
#9 = ORIENTED_EDGE ( 'NONE', *, *, #772, .F. ) ;
#10 = DIRECTION ( 'NONE',  ( 0.000000000000000000, 0.000000000000000000, -1.000000000000000000 ) ) ;
#11 = ORIENTED_EDGE ( 'NONE', *, *, #543, .T. ) ;
#12 = CARTESIAN_POINT ( 'NONE',  ( -18.91831824380229676, 7.984566245279919983, 28.25095523844449374 ) ) ;
#13 = CARTESIAN_POINT ( 'NONE',  ( 18.13828718947220864, 8.696599515239151756, -28.75821892639719479 ) ) ;
#14 = DIRECTION ( 'NONE',  ( -0.4999999999999951150, -0.000000000000000000, 0.8660254037844413721 ) ) ;
#15 = DIRECTION ( 'NONE',  ( 0.7071067811865462405, 0.7071067811865489050, 0.000000000000000000 ) ) ;
#16 = VERTEX_POINT ( 'NONE', #808 ) ;
#17 = DIRECTION ( 'NONE',  ( -0.000000000000000000, -1.000000000000000000, -0.000000000000000000 ) ) ;
#18 = DIRECTION ( 'NONE',  ( 0.8660254037844414832, 0.000000000000000000, 0.4999999999999950595 ) ) ;
#19 = AXIS2_PLACEMENT_3D ( 'NONE', #422, #779, #411 ) ;
#20 = EDGE_CURVE ( 'NONE', #452, #376, #313, .T. ) ;
#21 = ORIENTED_EDGE ( 'NONE', *, *, #336, .F. ) ;
#22 = LINE ( 'NONE', #456, #431 ) ;
#23 = CLOSED_SHELL ( 'NONE', ( #1075, #544, #4, #41, #445, #122, #561, #784, #100, #933, #303, #360, #806, #424, #614, #560, #1111, #573, #1052, #159, #69, #52, #731, #937, #477, #253, #670, #690, #84, #152, #872, #1090 ) ) ;
#24 = EDGE_LOOP ( 'NONE', ( #1014, #262, #197, #176 ) ) ;
#25 = CYLINDRICAL_SURFACE ( 'NONE', #183, 3.000000000000001332 ) ;
#26 = CARTESIAN_POINT ( 'NONE',  ( 12.99999999999991473, 0.000000000000000000, -22.51666049839554873 ) ) ;
#27 = CARTESIAN_POINT ( 'NONE',  ( 23.90000000000019398, -23.90000000000010516, 0.000000000000000000 ) ) ;
#28 = CARTESIAN_POINT ( 'NONE',  ( -16.97224318643344176, 6.000000000000000000, 25.99678751731777382 ) ) ;
#29 = ORIENTED_EDGE ( 'NONE', *, *, #269, .T. ) ;
#30 = CYLINDRICAL_SURFACE ( 'NONE', #405, 12.00000000000000178 ) ;
#31 = DIRECTION ( 'NONE',  ( 0.4999999999999951705, -0.000000000000000000, -0.8660254037844414832 ) ) ;
#32 = CYLINDRICAL_SURFACE ( 'NONE', #526, 3.000000000000001332 ) ;
#33 = EDGE_CURVE ( 'NONE', #636, #480, #814, .T. ) ;
#34 = EDGE_LOOP ( 'NONE', ( #1018, #870, #545, #810 ) ) ;
#35 = AXIS2_PLACEMENT_3D ( 'NONE', #67, #1056, #617 ) ;
#36 = PRODUCT_DEFINITION ( 'UNKNOWN', '', #120, #6 ) ;
#37 = DIRECTION ( 'NONE',  ( 0.7071067811865489050, -0.7071067811865461294, 0.000000000000000000 ) ) ;
#38 = FACE_OUTER_BOUND ( 'NONE', #551, .T. ) ;
#39 = DIRECTION ( 'NONE',  ( 0.7071067811865460184, 0.7071067811865490160, 0.000000000000000000 ) ) ;
#40 = CIRCLE ( 'NONE', #593, 34.00000000000000000 ) ;
#41 = ADVANCED_FACE ( 'NONE', ( #996 ), #204, .F. ) ;
#42 = ORIENTED_EDGE ( 'NONE', *, *, #267, .F. ) ;
#43 = DIRECTION ( 'NONE',  ( 0.000000000000000000, 0.000000000000000000, 1.000000000000000000 ) ) ;
#44 = CARTESIAN_POINT ( 'NONE',  ( 2.099015405931936584E-13, 0.000000000000000000, 30.02221399786052913 ) ) ;
#45 = ORIENTED_EDGE ( 'NONE', *, *, #401, .F. ) ;
#46 = CARTESIAN_POINT ( 'NONE',  ( 86.85840007688932474, 46.34159992311072784, 0.000000000000000000 ) ) ;
#47 = DIRECTION ( 'NONE',  ( 1.000000000000000000, 0.000000000000000000, -3.771137991253884693E-16 ) ) ;
#48 = DIRECTION ( 'NONE',  ( -0.000000000000000000, -1.000000000000000000, -0.000000000000000000 ) ) ;
#49 = CARTESIAN_POINT ( 'NONE',  ( 0.000000000000000000, 0.000000000000000000, 0.000000000000000000 ) ) ;
#50 = ORIENTED_EDGE ( 'NONE', *, *, #68, .T. ) ;
#51 = FACE_OUTER_BOUND ( 'NONE', #600, .T. ) ;
#52 = ADVANCED_FACE ( 'NONE', ( #641, #351 ), #989, .T. ) ;
#53 = CARTESIAN_POINT ( 'NONE',  ( 13.00000000000016342, 12.00000000000000000, 22.51666049839527517 ) ) ;
#54 = FACE_OUTER_BOUND ( 'NONE', #311, .T. ) ;
#55 = CIRCLE ( 'NONE', #146, 2.999999999999999556 ) ;
#56 = VERTEX_POINT ( 'NONE', #732 ) ;
#57 = AXIS2_PLACEMENT_3D ( 'NONE', #851, #169, #423 ) ;
#58 = LINE ( 'NONE', #993, #296 ) ;
#59 = CARTESIAN_POINT ( 'NONE',  ( 31.81194744117373574, 0.000000000000000000, 12.00000000000000000 ) ) ;
#60 = CARTESIAN_POINT ( 'NONE',  ( 93.32842712474624136, 45.52842712474620157, 0.000000000000000000 ) ) ;
#61 = CIRCLE ( 'NONE', #657, 2.999999999999999556 ) ;
#62 = ORIENTED_EDGE ( 'NONE', *, *, #528, .T. ) ;
#63 = DIRECTION ( 'NONE',  ( 0.7071067811865489050, -0.7071067811865462405, 0.000000000000000000 ) ) ;
#64 = DIRECTION ( 'NONE',  ( 0.7071067811865490160, -0.7071067811865462405, 0.000000000000000000 ) ) ;
#65 = LINE ( 'NONE', #1126, #293 ) ;
#66 = ORIENTED_EDGE ( 'NONE', *, *, #772, .T. ) ;
#67 = CARTESIAN_POINT ( 'NONE',  ( 82.01471862576146066, 51.18528137423856350, 0.000000000000000000 ) ) ;
#68 = EDGE_CURVE ( 'NONE', #236, #1089, #819, .T. ) ;
#69 = ADVANCED_FACE ( 'NONE', ( #1103, #139 ), #474, .F. ) ;
#70 = LINE ( 'NONE', #1130, #420 ) ;
#71 = CARTESIAN_POINT ( 'NONE',  ( 63.42842712474604383, 75.42842712474629252, -6.572500365792750917E-15 ) ) ;
#72 = EDGE_LOOP ( 'NONE', ( #50, #403 ) ) ;
#73 = CARTESIAN_POINT ( 'NONE',  ( -15.83646478466425123, 3.303168475762573220, 30.08719703238245913 ) ) ;
#74 = STYLED_ITEM ( 'NONE', ( #691 ), #656 ) ;
#75 = PLANE ( 'NONE',  #310 ) ;
#76 = FACE_BOUND ( 'NONE', #906, .T. ) ;
#77 = VERTEX_POINT ( 'NONE', #748 ) ;
#78 = CARTESIAN_POINT ( 'NONE',  ( -17.17048203619424029, 3.000070849676093498, 29.34642866063918731 ) ) ;
#79 = EDGE_CURVE ( 'NONE', #376, #452, #704, .T. ) ;
#80 = CYLINDRICAL_SURFACE ( 'NONE', #757, 11.99999999999999645 ) ;
#81 = ORIENTED_EDGE ( 'NONE', *, *, #461, .F. ) ;
#82 = CARTESIAN_POINT ( 'NONE',  ( -14.61140816220751404, 4.670158410826505957, 30.70036572465110680 ) ) ;
#83 = CARTESIAN_POINT ( 'NONE',  ( -19.46633769125990199, 6.790516980739044861, 27.87623230554016374 ) ) ;
#84 = ADVANCED_FACE ( 'NONE', ( #54, #916 ), #402, .F. ) ;
#85 = FACE_OUTER_BOUND ( 'NONE', #425, .T. ) ;
#86 = VERTEX_POINT ( 'NONE', #745 ) ;
#87 = LINE ( 'NONE', #796, #975 ) ;
#88 = VECTOR ( 'NONE', #373, 1000.000000000000114 ) ;
#89 = CARTESIAN_POINT ( 'NONE',  ( -18.68720167388390863, 8.261035668855988945, 28.40436112039783012 ) ) ;
#90 = VECTOR ( 'NONE', #488, 1000.000000000000000 ) ;
#91 = CARTESIAN_POINT ( 'NONE',  ( 19.51577770642059662, 6.393307757383075440, -27.84126229216040826 ) ) ;
#92 = ORIENTED_EDGE ( 'NONE', *, *, #803, .F. ) ;
#93 = DIRECTION ( 'NONE',  ( 0.8660254037844379305, 0.000000000000000000, -0.5000000000000011102 ) ) ;
#94 = EDGE_LOOP ( 'NONE', ( #721, #976 ) ) ;
#95 = AXIS2_PLACEMENT_3D ( 'NONE', #667, #498, #589 ) ;
#96 = DIRECTION ( 'NONE',  ( 0.4999999999999952260, -0.000000000000000000, -0.8660254037844413721 ) ) ;
#97 = CARTESIAN_POINT ( 'NONE',  ( 18.68817050569679949, 8.260019482045693806, -28.40372332310107950 ) ) ;
#98 = EDGE_LOOP ( 'NONE', ( #797, #646 ) ) ;
#99 = DIRECTION ( 'NONE',  ( 0.7071067811865490160, -0.7071067811865462405, 0.000000000000000000 ) ) ;
#100 = ADVANCED_FACE ( 'NONE', ( #38, #738 ), #930, .T. ) ;
#101 = VERTEX_POINT ( 'NONE', #297 ) ;
#102 = CARTESIAN_POINT ( 'NONE',  ( -15.39033149223363317, 8.384933311811392898, 30.31772283326736428 ) ) ;
#103 = EDGE_CURVE ( 'NONE', #852, #876, #486, .T. ) ;
#104 = CARTESIAN_POINT ( 'NONE',  ( 14.47487274255692569, 6.966414417880431920, -30.76497624242117013 ) ) ;
#105 = ORIENTED_EDGE ( 'NONE', *, *, #320, .T. ) ;
#106 = CARTESIAN_POINT ( 'NONE',  ( -23.22243186433520279, 6.000000000000000000, 40.22243186433553319 ) ) ;
#107 = ORIENTED_EDGE ( 'NONE', *, *, #505, .T. ) ;
#108 = LINE ( 'NONE', #1076, #652 ) ;
#109 = VECTOR ( 'NONE', #280, 1000.000000000000000 ) ;
#110 = CARTESIAN_POINT ( 'NONE',  ( 17.67038849867727990, 8.903834903692612102, -29.04814776873190851 ) ) ;
#111 = EDGE_LOOP ( 'NONE', ( #381, #287, #363, #984 ) ) ;
#112 = DIRECTION ( 'NONE',  ( 0.4999999999999950040, 0.000000000000000000, -0.8660254037844415942 ) ) ;
#113 = ORIENTED_EDGE ( 'NONE', *, *, #991, .T. ) ;
#114 = DIRECTION ( 'NONE',  ( -0.8660254037844379305, 0.000000000000000000, 0.5000000000000011102 ) ) ;
#115 = AXIS2_PLACEMENT_3D ( 'NONE', #674, #849, #248 ) ;
#116 = CARTESIAN_POINT ( 'NONE',  ( 25.99999999999981881, 12.00000000000000000, -15.01110699893056655 ) ) ;
#117 = CARTESIAN_POINT ( 'NONE',  ( 15.41471862576160667, -15.41471862576154983, 0.000000000000000000 ) ) ;
#118 = LINE ( 'NONE', #380, #1114 ) ;
#119 = EDGE_LOOP ( 'NONE', ( #92, #723, #804, #705 ) ) ;
#120 = PRODUCT_DEFINITION_FORMATION_WITH_SPECIFIED_SOURCE ( 'ANY', '', #945, .NOT_KNOWN. ) ;
#121 = FACE_OUTER_BOUND ( 'NONE', #24, .T. ) ;
#122 = ADVANCED_FACE ( 'NONE', ( #133 ), #1108, .F. ) ;
#123 = DIRECTION ( 'NONE',  ( 0.7071067811865457964, 0.7071067811865492381, 0.000000000000000000 ) ) ;
#124 =( LENGTH_UNIT ( ) NAMED_UNIT ( * ) SI_UNIT ( .MILLI., .METRE. ) );
#125 = ORIENTED_EDGE ( 'NONE', *, *, #659, .T. ) ;
#126 = AXIS2_PLACEMENT_3D ( 'NONE', #990, #99, #198 ) ;
#127 = CARTESIAN_POINT ( 'NONE',  ( -15.49999999999989519, 6.000000000000000000, 26.84678751731776103 ) ) ;
#128 = DIRECTION ( 'NONE',  ( 0.7071067811865462405, 0.7071067811865489050, 0.000000000000000000 ) ) ;
#129 = SHAPE_DEFINITION_REPRESENTATION ( #321, #1082 ) ;
#130 = MECHANICAL_DESIGN_GEOMETRIC_PRESENTATION_REPRESENTATION (  '', ( #74 ), #922 ) ;
#131 = ORIENTED_EDGE ( 'NONE', *, *, #850, .F. ) ;
#132 = DIRECTION ( 'NONE',  ( 0.7071067811865460184, 0.7071067811865490160, 0.000000000000000000 ) ) ;
#133 = FACE_OUTER_BOUND ( 'NONE', #34, .T. ) ;
#134 = APPLICATION_PROTOCOL_DEFINITION ( 'draft international standard', 'automotive_design', 1998, #577 ) ;
#135 = ORIENTED_EDGE ( 'NONE', *, *, #489, .F. ) ;
#136 = EDGE_CURVE ( 'NONE', #603, #56, #743, .T. ) ;
#137 = DIRECTION ( 'NONE',  ( 0.000000000000000000, 0.000000000000000000, 1.000000000000000000 ) ) ;
#138 = DIRECTION ( 'NONE',  ( -0.4999999999999951705, -0.000000000000000000, 0.8660254037844414832 ) ) ;
#139 = FACE_BOUND ( 'NONE', #72, .T. ) ;
#140 = EDGE_LOOP ( 'NONE', ( #442, #566, #81, #693 ) ) ;
#141 = LINE ( 'NONE', #404, #90 ) ;
#142 = VECTOR ( 'NONE', #631, 1000.000000000000000 ) ;
#143 = DIRECTION ( 'NONE',  ( 0.8660254037844347108, 0.000000000000000000, -0.5000000000000068834 ) ) ;
#144 = CARTESIAN_POINT ( 'NONE',  ( 16.65678354872607159, 3.019737125511880560, -29.64099080890349569 ) ) ;
#145 = DIRECTION ( 'NONE',  ( 1.000000000000000000, 0.000000000000000000, 0.000000000000000000 ) ) ;
#146 = AXIS2_PLACEMENT_3D ( 'NONE', #127, #138, #915 ) ;
#147 = ORIENTED_EDGE ( 'NONE', *, *, #825, .F. ) ;
#148 = AXIS2_PLACEMENT_3D ( 'NONE', #467, #833, #379 ) ;
#149 = DIRECTION ( 'NONE',  ( -1.000000000000000000, 0.000000000000000000, 1.051620219116009685E-14 ) ) ;
#150 = VECTOR ( 'NONE', #458, 1000.000000000000000 ) ;
#151 = DIRECTION ( 'NONE',  ( 0.000000000000000000, 1.000000000000000000, -0.000000000000000000 ) ) ;
#152 = ADVANCED_FACE ( 'NONE', ( #482 ), #840, .F. ) ;
#153 = CARTESIAN_POINT ( 'NONE',  ( 19.46633769125989133, 5.209483019260958692, -27.87623230554017439 ) ) ;
#154 = VERTEX_POINT ( 'NONE', #384 ) ;
#155 = CARTESIAN_POINT ( 'NONE',  ( -16.15726203614909551, 3.152805716198320951, 29.91614824198681433 ) ) ;
#156 = ORIENTED_EDGE ( 'NONE', *, *, #827, .T. ) ;
#157 = LINE ( 'NONE', #873, #497 ) ;
#158 = CARTESIAN_POINT ( 'NONE',  ( 19.20355665602394524, 4.493709688632726795, -28.05771753274286695 ) ) ;
#159 = ADVANCED_FACE ( 'NONE', ( #1098, #1003 ), #305, .F. ) ;
#160 = EDGE_LOOP ( 'NONE', ( #549, #963, #259, #446 ) ) ;
#161 = DIRECTION ( 'NONE',  ( -0.7071067811865489050, 0.7071067811865462405, -0.000000000000000000 ) ) ;
#162 = CARTESIAN_POINT ( 'NONE',  ( -11.52775681356636994, 6.000000000000000000, 23.36666049839555370 ) ) ;
#163 = CARTESIAN_POINT ( 'NONE',  ( 93.32842712474622715, 45.52842712474620868, -12.00000000000001776 ) ) ;
#164 = EDGE_LOOP ( 'NONE', ( #517, #606 ) ) ;
#165 = CARTESIAN_POINT ( 'NONE',  ( -18.56170198091097490, 3.615831956424147897, 28.48666660849898591 ) ) ;
#166 = AXIS2_PLACEMENT_3D ( 'NONE', #707, #613, #254 ) ;
#167 = SURFACE_STYLE_USAGE ( .BOTH. , #416 ) ;
#168 = AXIS2_PLACEMENT_3D ( 'NONE', #369, #281, #536 ) ;
#169 = DIRECTION ( 'NONE',  ( 0.4999999999999951705, 0.000000000000000000, -0.8660254037844414832 ) ) ;
#170 = ORIENTED_EDGE ( 'NONE', *, *, #218, .T. ) ;
#171 = CARTESIAN_POINT ( 'NONE',  ( -19.40551229318870696, 5.032514292697410241, 27.91830589678408714 ) ) ;
#172 = FACE_OUTER_BOUND ( 'NONE', #1128, .T. ) ;
#173 = CARTESIAN_POINT ( 'NONE',  ( 0.000000000000000000, 0.000000000000000000, 0.000000000000000000 ) ) ;
#174 = ORIENTED_EDGE ( 'NONE', *, *, #1122, .T. ) ;
#175 = CARTESIAN_POINT ( 'NONE',  ( -17.33827956440006091, 3.019120152246637101, 29.24759101592773547 ) ) ;
#176 = ORIENTED_EDGE ( 'NONE', *, *, #858, .F. ) ;
#177 = CARTESIAN_POINT ( 'NONE',  ( -16.32137305665516180, 8.903745755086227121, 29.82699374506429280 ) ) ;
#178 = CARTESIAN_POINT ( 'NONE',  ( 15.00440111743941962, 7.981656234289443930, -30.51045143618944167 ) ) ;
#179 = VERTEX_POINT ( 'NONE', #44 ) ;
#180 = LINE ( 'NONE', #282, #680 ) ;
#181 = VERTEX_POINT ( 'NONE', #912 ) ;
#182 = CARTESIAN_POINT ( 'NONE',  ( -19.53177043322926210, 6.000000000000000000, 27.83001875212503862 ) ) ;
#183 = AXIS2_PLACEMENT_3D ( 'NONE', #392, #846, #372 ) ;
#184 = EDGE_CURVE ( 'NONE', #511, #1080, #1009, .T. ) ;
#185 = CARTESIAN_POINT ( 'NONE',  ( 26.00000000000013500, 12.00000000000000000, 15.01110699893001765 ) ) ;
#186 = DIRECTION ( 'NONE',  ( 0.8660254037844412611, 0.000000000000000000, 0.4999999999999956701 ) ) ;
#187 = CARTESIAN_POINT ( 'NONE',  ( 47.80000000000018900, -6.938893903907228378E-15, 12.00000000000000000 ) ) ;
#188 = EDGE_LOOP ( 'NONE', ( #272, #250, #450, #902 ) ) ;
#189 = EDGE_CURVE ( 'NONE', #1033, #671, #225, .T. ) ;
#190 = CARTESIAN_POINT ( 'NONE',  ( -14.61064893155950806, 7.327948512420229044, 30.70072571166134878 ) ) ;
#191 = CARTESIAN_POINT ( 'NONE',  ( 17.83175084837292346, 8.846216684935892971, -28.94928806841221558 ) ) ;
#192 = ORIENTED_EDGE ( 'NONE', *, *, #620, .F. ) ;
#193 = LINE ( 'NONE', #364, #935 ) ;
#194 = ORIENTED_EDGE ( 'NONE', *, *, #318, .T. ) ;
#195 = CARTESIAN_POINT ( 'NONE',  ( 40.17585898908107112, 6.000000000000000000, -69.58662900681211738 ) ) ;
#196 = CARTESIAN_POINT ( 'NONE',  ( 18.28572954434251940, 8.603473732243070771, -28.66459575718945985 ) ) ;
#197 = ORIENTED_EDGE ( 'NONE', *, *, #754, .T. ) ;
#198 = DIRECTION ( 'NONE',  ( 0.7071067811865457964, 0.7071067811865492381, 0.000000000000000000 ) ) ;
#199 = ORIENTED_EDGE ( 'NONE', *, *, #1005, .F. ) ;
#200 = LINE ( 'NONE', #484, #150 ) ;
#201 = VECTOR ( 'NONE', #499, 1000.000000000000000 ) ;
#202 = VECTOR ( 'NONE', #327, 1000.000000000000000 ) ;
#203 = CARTESIAN_POINT ( 'NONE',  ( 84.84314575050764518, 54.01370849898476934, 12.00000000000000000 ) ) ;
#204 = CYLINDRICAL_SURFACE ( 'NONE', #168, 1.699999999999996181 ) ;
#205 = LINE ( 'NONE', #557, #565 ) ;
#206 = ORIENTED_EDGE ( 'NONE', *, *, #1107, .T. ) ;
#207 = VECTOR ( 'NONE', #862, 1000.000000000000114 ) ;
#208 = EDGE_CURVE ( 'NONE', #480, #852, #941, .T. ) ;
#209 = CARTESIAN_POINT ( 'NONE',  ( 16.97224318643343821, 6.000000000000000000, -25.99678751731776671 ) ) ;
#210 = DIRECTION ( 'NONE',  ( -0.000000000000000000, -1.000000000000000000, -0.000000000000000000 ) ) ;
#211 = ORIENTED_EDGE ( 'NONE', *, *, #766, .F. ) ;
#212 = AXIS2_PLACEMENT_3D ( 'NONE', #1099, #569, #39 ) ;
#213 = DIRECTION ( 'NONE',  ( 0.8660254037844417052, 0.000000000000000000, 0.4999999999999947264 ) ) ;
#214 = CARTESIAN_POINT ( 'NONE',  ( 25.99999999999981881, 12.00000000000000000, -15.01110699893056655 ) ) ;
#215 = PRODUCT_CONTEXT ( 'NONE', #471, 'mechanical' ) ;
#216 = VERTEX_POINT ( 'NONE', #219 ) ;
#217 = LINE ( 'NONE', #839, #949 ) ;
#218 = EDGE_CURVE ( 'NONE', #581, #662, #229, .T. ) ;
#219 = CARTESIAN_POINT ( 'NONE',  ( 0.000000000000000000, 0.000000000000000000, -30.02221399786053269 ) ) ;
#220 = VECTOR ( 'NONE', #17, 1000.000000000000000 ) ;
#221 = ORIENTED_EDGE ( 'NONE', *, *, #289, .F. ) ;
#222 = CARTESIAN_POINT ( 'NONE',  ( -13.00000000000001599, 0.000000000000000000, -22.51666049839536754 ) ) ;
#223 = EDGE_CURVE ( 'NONE', #1027, #603, #510, .T. ) ;
#224 = CARTESIAN_POINT ( 'NONE',  ( 82.01471862576146066, 51.18528137423856350, 0.000000000000000000 ) ) ;
#225 = LINE ( 'NONE', #675, #492 ) ;
#226 = ORIENTED_EDGE ( 'NONE', *, *, #269, .F. ) ;
#227 = CARTESIAN_POINT ( 'NONE',  ( 0.000000000000000000, 12.00000000000000000, 0.000000000000000000 ) ) ;
#228 = FACE_BOUND ( 'NONE', #801, .T. ) ;
#229 = LINE ( 'NONE', #574, #400 ) ;
#230 = EDGE_CURVE ( 'NONE', #343, #676, #588, .T. ) ;
#231 = ORIENTED_EDGE ( 'NONE', *, *, #598, .F. ) ;
#232 = DIRECTION ( 'NONE',  ( -0.000000000000000000, -1.000000000000000000, -0.000000000000000000 ) ) ;
#233 = AXIS2_PLACEMENT_3D ( 'NONE', #1079, #901, #93 ) ;
#234 = DIRECTION ( 'NONE',  ( 3.351317181798273819E-15, 0.000000000000000000, 1.000000000000000000 ) ) ;
#235 = EDGE_CURVE ( 'NONE', #749, #101, #609, .T. ) ;
#236 = VERTEX_POINT ( 'NONE', #504 ) ;
#237 = AXIS2_PLACEMENT_3D ( 'NONE', #394, #668, #315 ) ;
#238 = CARTESIAN_POINT ( 'NONE',  ( 0.000000000000000000, 12.00000000000000000, -30.02221399786053269 ) ) ;
#239 = VECTOR ( 'NONE', #114, 1000.000000000000114 ) ;
#240 = EDGE_CURVE ( 'NONE', #1027, #1109, #553, .T. ) ;
#241 = LINE ( 'NONE', #1031, #207 ) ;
#242 = CARTESIAN_POINT ( 'NONE',  ( 18.91831824380227900, 4.015433754720079129, -28.25095523844451151 ) ) ;
#243 = ORIENTED_EDGE ( 'NONE', *, *, #1006, .F. ) ;
#244 = CARTESIAN_POINT ( 'NONE',  ( 86.85840007688932474, 46.34159992311072784, 0.000000000000000000 ) ) ;
#245 = DIRECTION ( 'NONE',  ( 0.7071067811865460184, 0.7071067811865490160, 0.000000000000000000 ) ) ;
#246 = EDGE_LOOP ( 'NONE', ( #917, #125, #770, #741 ) ) ;
#247 = CARTESIAN_POINT ( 'NONE',  ( -18.13828718947221574, 3.303400484760848244, 28.75821892639719835 ) ) ;
#248 = DIRECTION ( 'NONE',  ( -3.351317181798273424E-15, 0.000000000000000000, -1.000000000000000000 ) ) ;
#249 = CARTESIAN_POINT ( 'NONE',  ( 17.33787198336408508, 3.019189298641269836, -29.24782003065637426 ) ) ;
#250 = ORIENTED_EDGE ( 'NONE', *, *, #103, .T. ) ;
#251 = CARTESIAN_POINT ( 'NONE',  ( 2.099015405931936584E-13, 12.00000000000000000, 30.02221399786052913 ) ) ;
#252 = AXIS2_PLACEMENT_3D ( 'NONE', #53, #752, #929 ) ;
#253 = ADVANCED_FACE ( 'NONE', ( #874 ), #80, .T. ) ;
#254 = DIRECTION ( 'NONE',  ( 0.8660254037844414832, 0.000000000000000000, 0.4999999999999950595 ) ) ;
#255 = LINE ( 'NONE', #615, #435 ) ;
#256 = ORIENTED_EDGE ( 'NONE', *, *, #649, .T. ) ;
#257 = CIRCLE ( 'NONE', #911, 34.00000000000000000 ) ;
#258 = CARTESIAN_POINT ( 'NONE',  ( -14.35349405589639282, 5.605234485566803926, 30.82172435383714770 ) ) ;
#259 = ORIENTED_EDGE ( 'NONE', *, *, #875, .F. ) ;
#260 = CARTESIAN_POINT ( 'NONE',  ( -14.42275429877536119, 6.777461198644270546, 30.78937550745137841 ) ) ;
#261 = CARTESIAN_POINT ( 'NONE',  ( 17.33827956440005380, 8.980879847753364231, -29.24759101592774968 ) ) ;
#262 = ORIENTED_EDGE ( 'NONE', *, *, #620, .T. ) ;
#263 = DIRECTION ( 'NONE',  ( -0.4999999999999951150, -0.000000000000000000, 0.8660254037844414832 ) ) ;
#264 = ORIENTED_EDGE ( 'NONE', *, *, #885, .T. ) ;
#265 = EDGE_CURVE ( 'NONE', #876, #636, #905, .T. ) ;
#266 = CARTESIAN_POINT ( 'NONE',  ( -17.16952406206523563, 9.000154368137296856, 29.34700469364903697 ) ) ;
#267 = EDGE_CURVE ( 'NONE', #181, #154, #792, .T. ) ;
#268 = CARTESIAN_POINT ( 'NONE',  ( 31.81194744117373574, 12.00000000000000000, -11.99999999999999467 ) ) ;
#269 = EDGE_CURVE ( 'NONE', #538, #101, #1135, .T. ) ;
#270 = ORIENTED_EDGE ( 'NONE', *, *, #318, .F. ) ;
#271 = LINE ( 'NONE', #642, #831 ) ;
#272 = ORIENTED_EDGE ( 'NONE', *, *, #960, .F. ) ;
#273 = DIRECTION ( 'NONE',  ( -0.4999999999999951150, -0.000000000000000000, 0.8660254037844413721 ) ) ;
#274 = PRESENTATION_LAYER_ASSIGNMENT (  '', '', ( #74 ) ) ;
#275 = FACE_OUTER_BOUND ( 'NONE', #1115, .T. ) ;
#276 = ORIENTED_EDGE ( 'NONE', *, *, #290, .T. ) ;
#277 = CARTESIAN_POINT ( 'NONE',  ( -14.02775681356634507, 6.000000000000000000, 27.69678751731775890 ) ) ;
#278 = ORIENTED_EDGE ( 'NONE', *, *, #803, .T. ) ;
#279 = CARTESIAN_POINT ( 'NONE',  ( -15.68059504457757569, 8.602856548564023598, 30.16861879973342297 ) ) ;
#280 = DIRECTION ( 'NONE',  ( -0.000000000000000000, -1.000000000000000000, -0.000000000000000000 ) ) ;
#281 = DIRECTION ( 'NONE',  ( -0.4999999999999951705, -0.000000000000000000, 0.8660254037844415942 ) ) ;
#282 = CARTESIAN_POINT ( 'NONE',  ( -12.99999999999985789, 12.00000000000000000, 22.51666049839545636 ) ) ;
#283 = VERTEX_POINT ( 'NONE', #857 ) ;
#284 = CARTESIAN_POINT ( 'NONE',  ( -12.99999999999992184, 6.000000000000000000, 22.51666049839556294 ) ) ;
#285 = FACE_OUTER_BOUND ( 'NONE', #789, .T. ) ;
#286 = VECTOR ( 'NONE', #307, 1000.000000000000000 ) ;
#287 = ORIENTED_EDGE ( 'NONE', *, *, #891, .F. ) ;
#288 = FACE_OUTER_BOUND ( 'NONE', #969, .T. ) ;
#289 = EDGE_CURVE ( 'NONE', #986, #1033, #65, .T. ) ;
#290 = EDGE_CURVE ( 'NONE', #671, #1132, #956, .T. ) ;
#291 = ORIENTED_EDGE ( 'NONE', *, *, #267, .T. ) ;
#292 = B_SPLINE_CURVE_WITH_KNOTS ( 'NONE', 3,
 ( #595, #865, #1040, #601, #171, #426, #334, #787, #877, #954, #165, #948, #247, #778, #512, #175, #78, #694, #782, #711, #155, #73, #524, #771, #1034, #501, #970, #611, #82, #964, #1051, #258, #430, #1133 ),
 .UNSPECIFIED., .F., .F.,
 ( 4, 2, 2, 2, 2, 2, 2, 2, 2, 2, 2, 2, 2, 2, 2, 2, 4 ),
 ( 8.673617379884035472E-19, 0.0005864954124923792578, 0.001172990824984757648, 0.001759486237477135822, 0.002345981649969514429, 0.002932477062461894338, 0.003518972474954275113, 0.004105467887446655022, 0.004691963299939035797, 0.005278458712431416573, 0.005864954124923796482, 0.006451449537416177257, 0.007037944949908553696, 0.007624440362400930135, 0.008210935774893304839, 0.008797431187385681278, 0.009383926599878057717 ),
 .UNSPECIFIED. ) ;
#293 = VECTOR ( 'NONE', #605, 1000.000000000000000 ) ;
#294 = AXIS2_PLACEMENT_3D ( 'NONE', #479, #654, #568 ) ;
#295 = CARTESIAN_POINT ( 'NONE',  ( 86.85840007688932474, 46.34159992311072784, 0.000000000000000000 ) ) ;
#296 = VECTOR ( 'NONE', #63, 1000.000000000000000 ) ;
#297 = CARTESIAN_POINT ( 'NONE',  ( -25.99999999999992539, 0.000000000000000000, 15.01110699893038003 ) ) ;
#298 = EDGE_LOOP ( 'NONE', ( #1074, #226, #306, #570 ) ) ;
#299 = CIRCLE ( 'NONE', #5, 1.700000000000000844 ) ;
#300 = DIRECTION ( 'NONE',  ( -0.000000000000000000, -1.000000000000000000, -0.000000000000000000 ) ) ;
#301 = DIRECTION ( 'NONE',  ( 0.000000000000000000, 1.000000000000000000, -0.000000000000000000 ) ) ;
#302 = EDGE_LOOP ( 'NONE', ( #506, #658, #174, #29 ) ) ;
#303 = ADVANCED_FACE ( 'NONE', ( #76, #85 ), #725, .T. ) ;
#304 = CARTESIAN_POINT ( 'NONE',  ( -26.00000000000002842, 12.00000000000000000, -15.01110699893020417 ) ) ;
#305 = PLANE ( 'NONE',  #1029 ) ;
#306 = ORIENTED_EDGE ( 'NONE', *, *, #1092, .T. ) ;
#307 = DIRECTION ( 'NONE',  ( -0.000000000000000000, -1.000000000000000000, -0.000000000000000000 ) ) ;
#308 = DIRECTION ( 'NONE',  ( -0.4999999999999951705, -0.000000000000000000, 0.8660254037844414832 ) ) ;
#309 = DIRECTION ( 'NONE',  ( 0.7071067811865489050, -0.7071067811865462405, 0.000000000000000000 ) ) ;
#310 = AXIS2_PLACEMENT_3D ( 'NONE', #509, #583, #678 ) ;
#311 = EDGE_LOOP ( 'NONE', ( #42, #9 ) ) ;
#312 = DIRECTION ( 'NONE',  ( 0.7071067811865463515, 0.7071067811865489050, 0.000000000000000000 ) ) ;
#313 = CIRCLE ( 'NONE', #965, 1.700000000000000844 ) ;
#314 = PLANE ( 'NONE',  #762 ) ;
#315 = DIRECTION ( 'NONE',  ( 0.7071067811865457964, 0.7071067811865492381, 0.000000000000000000 ) ) ;
#316 = ORIENTED_EDGE ( 'NONE', *, *, #79, .T. ) ;
#317 = DIRECTION ( 'NONE',  ( -0.4999999999999951150, 8.326672684688674053E-17, 0.8660254037844415942 ) ) ;
#318 = EDGE_CURVE ( 'NONE', #986, #455, #548, .T. ) ;
#320 = EDGE_CURVE ( 'NONE', #676, #343, #813, .T. ) ;
#319 = AXIS2_PLACEMENT_3D ( 'NONE', #802, #10, #997 ) ;
#321 = PRODUCT_DEFINITION_SHAPE ( 'NONE', 'NONE',  #36 ) ;
#322 = CARTESIAN_POINT ( 'NONE',  ( 18.68720167388390152, 3.738964331144011499, -28.40436112039784078 ) ) ;
#323 = ORIENTED_EDGE ( 'NONE', *, *, #33, .T. ) ;
#324 = CARTESIAN_POINT ( 'NONE',  ( -26.00000000000002842, 0.000000000000000000, -15.01110699893020417 ) ) ;
#325 = CIRCLE ( 'NONE', #126, 3.999999999999995559 ) ;
#326 =( NAMED_UNIT ( * ) SI_UNIT ( $, .STERADIAN. ) SOLID_ANGLE_UNIT ( ) );
#327 = DIRECTION ( 'NONE',  ( 0.4999999999999951705, -0.000000000000000000, -0.8660254037844414832 ) ) ;
#328 = ORIENTED_EDGE ( 'NONE', *, *, #943, .F. ) ;
#329 = CARTESIAN_POINT ( 'NONE',  ( 92.51525432638170798, 51.99845417260312530, 0.000000000000000000 ) ) ;
#330 = CIRCLE ( 'NONE', #775, 8.000000000000005329 ) ;
#331 = CARTESIAN_POINT ( 'NONE',  ( 84.02997295214314022, 43.51317279836452201, 4.898587196589411843E-16 ) ) ;
#332 = CARTESIAN_POINT ( 'NONE',  ( 14.35290729520627551, 5.609541236099978789, -30.82199762956489764 ) ) ;
#333 = VERTEX_POINT ( 'NONE', #719 ) ;
#334 = CARTESIAN_POINT ( 'NONE',  ( -19.20503348886271056, 4.496935222086557715, 28.05670341523551770 ) ) ;
#335 = DIRECTION ( 'NONE',  ( 0.7071067811865489050, -0.7071067811865462405, -0.000000000000000000 ) ) ;
#336 = EDGE_CURVE ( 'NONE', #1080, #216, #820, .T. ) ;
#337 = CARTESIAN_POINT ( 'NONE',  ( 16.15378590973119799, 3.154155869206889395, -29.91802410353737685 ) ) ;
#338 = ORIENTED_EDGE ( 'NONE', *, *, #103, .F. ) ;
#339 = FACE_OUTER_BOUND ( 'NONE', #371, .T. ) ;
#340 = EDGE_LOOP ( 'NONE', ( #523, #1078 ) ) ;
#341 = LINE ( 'NONE', #987, #367 ) ;
#342 = CARTESIAN_POINT ( 'NONE',  ( 19.02159615070240761, 4.166263143734362906, -28.18139423924747433 ) ) ;
#343 = VERTEX_POINT ( 'NONE', #629 ) ;
#344 = CARTESIAN_POINT ( 'NONE',  ( 37.57778277772774800, 6.000000000000000000, -71.08662900681210317 ) ) ;
#345 = AXIS2_PLACEMENT_3D ( 'NONE', #983, #540, #18 ) ;
#346 = AXIS2_PLACEMENT_3D ( 'NONE', #844, #925, #563 ) ;
#347 = ORIENTED_EDGE ( 'NONE', *, *, #475, .F. ) ;
#348 = CIRCLE ( 'NONE', #942, 8.000000000000005329 ) ;
#349 = CARTESIAN_POINT ( 'NONE',  ( -19.20355665602394879, 7.506290311367272317, 28.05771753274284563 ) ) ;
#350 = DIRECTION ( 'NONE',  ( 0.000000000000000000, 0.000000000000000000, 1.000000000000000000 ) ) ;
#351 = FACE_OUTER_BOUND ( 'NONE', #712, .T. ) ;
#352 = CARTESIAN_POINT ( 'NONE',  ( 96.15685424949242588, 48.35685424949241451, 0.000000000000000000 ) ) ;
#353 = EDGE_CURVE ( 'NONE', #1067, #1080, #886, .T. ) ;
#354 = ORIENTED_EDGE ( 'NONE', *, *, #943, .T. ) ;
#355 = CARTESIAN_POINT ( 'NONE',  ( -26.00000000000002842, 12.00000000000000000, -15.01110699893020417 ) ) ;
#356 = CARTESIAN_POINT ( 'NONE',  ( 15.39129472117411623, 8.385712696918924181, -30.31723131149430017 ) ) ;
#357 = VERTEX_POINT ( 'NONE', #185 ) ;
#358 = DIRECTION ( 'NONE',  ( 1.000000000000000000, -0.000000000000000000, 0.000000000000000000 ) ) ;
#359 = ORIENTED_EDGE ( 'NONE', *, *, #1010, .F. ) ;
#360 = ADVANCED_FACE ( 'NONE', ( #812, #275 ), #635, .T. ) ;
#361 = CYLINDRICAL_SURFACE ( 'NONE', #1124, 8.000000000000005329 ) ;
#362 = CARTESIAN_POINT ( 'NONE',  ( 16.15726203614907419, 8.847194283801684378, -29.91614824198681433 ) ) ;
#363 = ORIENTED_EDGE ( 'NONE', *, *, #1058, .T. ) ;
#364 = CARTESIAN_POINT ( 'NONE',  ( 0.000000000000000000, 12.00000000000000000, 12.00000000000000000 ) ) ;
#365 = ORIENTED_EDGE ( 'NONE', *, *, #1037, .F. ) ;
#366 = CYLINDRICAL_SURFACE ( 'NONE', #817, 2.999999999999998668 ) ;
#367 = VECTOR ( 'NONE', #96, 999.9999999999998863 ) ;
#368 = DIRECTION ( 'NONE',  ( 0.000000000000000000, 1.000000000000000000, -0.000000000000000000 ) ) ;
#369 = CARTESIAN_POINT ( 'NONE',  ( 40.17585898908107112, 6.000000000000000000, -69.58662900681210317 ) ) ;
#370 = LINE ( 'NONE', #637, #627 ) ;
#371 = EDGE_LOOP ( 'NONE', ( #698, #476, #773, #206 ) ) ;
#372 = DIRECTION ( 'NONE',  ( -0.8660254037844412611, 0.000000000000000000, -0.4999999999999956146 ) ) ;
#373 = DIRECTION ( 'NONE',  ( -0.8660254037844414832, 0.000000000000000000, -0.4999999999999951150 ) ) ;
#374 = DIRECTION ( 'NONE',  ( 0.7071067811865462405, 0.7071067811865489050, 0.000000000000000000 ) ) ;
#375 = PLANE ( 'NONE',  #319 ) ;
#376 = VERTEX_POINT ( 'NONE', #730 ) ;
#377 = CARTESIAN_POINT ( 'NONE',  ( -15.49999999999989164, 6.000000000000000000, 26.84678751731776458 ) ) ;
#378 = VECTOR ( 'NONE', #829, 1000.000000000000114 ) ;
#379 = DIRECTION ( 'NONE',  ( 0.8660254037844414832, 0.000000000000000000, 0.4999999999999951150 ) ) ;
#380 = CARTESIAN_POINT ( 'NONE',  ( 26.00000000000013500, 12.00000000000000000, 15.01110699893001765 ) ) ;
#381 = ORIENTED_EDGE ( 'NONE', *, *, #751, .F. ) ;
#382 = CARTESIAN_POINT ( 'NONE',  ( 0.000000000000000000, 0.000000000000000000, 0.000000000000000000 ) ) ;
#383 = VECTOR ( 'NONE', #1105, 1000.000000000000000 ) ;
#384 = CARTESIAN_POINT ( 'NONE',  ( 12.90192378864656142, 6.000000000000000000, -28.34678751731775037 ) ) ;
#385 =( NAMED_UNIT ( * ) PLANE_ANGLE_UNIT ( ) SI_UNIT ( $, .RADIAN. ) );
#386 = EDGE_LOOP ( 'NONE', ( #881, #626, #1061, #908 ) ) ;
#387 = EDGE_CURVE ( 'NONE', #409, #470, #255, .T. ) ;
#388 = LINE ( 'NONE', #398, #1002 ) ;
#389 = EDGE_CURVE ( 'NONE', #455, #662, #995, .T. ) ;
#390 = DIRECTION ( 'NONE',  ( -0.000000000000000000, -1.000000000000000000, -0.000000000000000000 ) ) ;
#391 = ORIENTED_EDGE ( 'NONE', *, *, #33, .F. ) ;
#392 = CARTESIAN_POINT ( 'NONE',  ( -23.22243186433520279, 6.000000000000000000, 40.22243186433553319 ) ) ;
#393 = FACE_OUTER_BOUND ( 'NONE', #160, .T. ) ;
#394 = CARTESIAN_POINT ( 'NONE',  ( 82.01471862576146066, 51.18528137423856350, 0.000000000000000000 ) ) ;
#395 = ORIENTED_EDGE ( 'NONE', *, *, #923, .F. ) ;
#396 = CARTESIAN_POINT ( 'NONE',  ( 0.000000000000000000, 12.00000000000000000, 0.000000000000000000 ) ) ;
#397 = B_SPLINE_CURVE_WITH_KNOTS ( 'NONE', 3,
 ( #406, #971, #634, #260, #527, #190, #539, #1134, #427, #546, #102, #279, #898, #884, #177, #534, #790, #266, #1070, #903, #1047, #1140, #628, #453, #89, #12, #977, #349, #440, #83, #805, #182 ),
 .UNSPECIFIED., .F., .F.,
 ( 4, 2, 2, 2, 2, 2, 2, 2, 2, 2, 2, 2, 2, 2, 2, 4 ),
 ( 0.009383926599878059452, 0.009970285582138159464, 0.01055664456439826121, 0.01114300354665836122, 0.01172936252891846123, 0.01231572151117856298, 0.01290208049343866299, 0.01348843947569876300, 0.01407479845795886475, 0.01466115744021896476, 0.01524751642247906477, 0.01583387540473916652, 0.01642023438699926480, 0.01700659336925936654, 0.01759295235151946829, 0.01876567031603966831 ),
 .UNSPECIFIED. ) ;
#398 = CARTESIAN_POINT ( 'NONE',  ( -24.69467505076874758, 6.000000000000000000, 39.37243186433553888 ) ) ;
#399 = AXIS2_PLACEMENT_3D ( 'NONE', #382, #472, #43 ) ;
#400 = VECTOR ( 'NONE', #48, 1000.000000000000000 ) ;
#401 = EDGE_CURVE ( 'NONE', #470, #638, #590, .T. ) ;
#402 = PLANE ( 'NONE',  #148 ) ;
#403 = ORIENTED_EDGE ( 'NONE', *, *, #438, .T. ) ;
#404 = CARTESIAN_POINT ( 'NONE',  ( 92.51525432638170798, 51.99845417260312530, 0.000000000000000000 ) ) ;
#405 = AXIS2_PLACEMENT_3D ( 'NONE', #645, #37, #132 ) ;
#406 = CARTESIAN_POINT ( 'NONE',  ( -14.33561801052261586, 6.000000000000000000, 30.83001875212501375 ) ) ;
#407 = CARTESIAN_POINT ( 'NONE',  ( -21.75018867790164379, 6.000000000000000000, 41.07243186433552040 ) ) ;
#408 = EDGE_CURVE ( 'NONE', #612, #283, #742, .T. ) ;
#409 = VERTEX_POINT ( 'NONE', #663 ) ;
#410 = CARTESIAN_POINT ( 'NONE',  ( 0.000000000000000000, 12.00000000000000000, 0.000000000000000000 ) ) ;
#411 = DIRECTION ( 'NONE',  ( 0.000000000000000000, 0.000000000000000000, 1.000000000000000000 ) ) ;
#412 = CARTESIAN_POINT ( 'NONE',  ( 14.61064893155949918, 4.672051487579771845, -30.70072571166134878 ) ) ;
#413 = ORIENTED_EDGE ( 'NONE', *, *, #1138, .T. ) ;
#414 = DIRECTION ( 'NONE',  ( 0.7071067811865489050, -0.7071067811865461294, 0.000000000000000000 ) ) ;
#415 = ORIENTED_EDGE ( 'NONE', *, *, #825, .T. ) ;
#416 = SURFACE_SIDE_STYLE ('',( #684 ) ) ;
#417 = CARTESIAN_POINT ( 'NONE',  ( 19.53177043322925144, 5.603450688090142684, -27.83001875212504217 ) ) ;
#418 = ORIENTED_EDGE ( 'NONE', *, *, #766, .T. ) ;
#419 = CARTESIAN_POINT ( 'NONE',  ( -25.82050807568852591, 6.000000000000000000, 38.72243186433554030 ) ) ;
#420 = VECTOR ( 'NONE', #335, 1000.000000000000000 ) ;
#421 = EDGE_CURVE ( 'NONE', #333, #834, #55, .T. ) ;
#422 = CARTESIAN_POINT ( 'NONE',  ( 0.000000000000000000, 0.000000000000000000, 0.000000000000000000 ) ) ;
#423 = DIRECTION ( 'NONE',  ( -0.8660254037844412611, 0.000000000000000000, -0.4999999999999956701 ) ) ;
#424 = ADVANCED_FACE ( 'NONE', ( #466 ), #1077, .T. ) ;
#425 = EDGE_LOOP ( 'NONE', ( #1035, #841, #221, #786, #457, #278 ) ) ;
#426 = CARTESIAN_POINT ( 'NONE',  ( -19.28120865394323147, 4.669223182021231544, 28.00429796210953270 ) ) ;
#427 = CARTESIAN_POINT ( 'NONE',  ( -15.00445837663827753, 7.981483127929581478, 30.51041455775794375 ) ) ;
#428 = DIRECTION ( 'NONE',  ( 0.7071067811865489050, -0.7071067811865462405, 0.000000000000000000 ) ) ;
#429 = VERTEX_POINT ( 'NONE', #653 ) ;
#430 = CARTESIAN_POINT ( 'NONE',  ( -14.33561801052262119, 5.804157469057445340, 30.83001875212502441 ) ) ;
#431 = VECTOR ( 'NONE', #15, 1000.000000000000000 ) ;
#432 = CARTESIAN_POINT ( 'NONE',  ( 16.65829904509573112, 8.980537797896175789, -29.64014358068090615 ) ) ;
#433 = ORIENTED_EDGE ( 'NONE', *, *, #136, .F. ) ;
#434 = FACE_BOUND ( 'NONE', #94, .T. ) ;
#435 = VECTOR ( 'NONE', #968, 1000.000000000000000 ) ;
#436 = AXIS2_PLACEMENT_3D ( 'NONE', #117, #919, #128 ) ;
#437 = ORIENTED_EDGE ( 'NONE', *, *, #960, .T. ) ;
#438 = EDGE_CURVE ( 'NONE', #1089, #236, #491, .T. ) ;
#439 = CIRCLE ( 'NONE', #533, 2.999999999999998224 ) ;
#440 = CARTESIAN_POINT ( 'NONE',  ( -19.28075975873278480, 7.331685045346063134, 28.00460606385460949 ) ) ;
#441 = CARTESIAN_POINT ( 'NONE',  ( 19.45303314730593058, 6.776892679624244131, -27.88513881760521329 ) ) ;
#442 = ORIENTED_EDGE ( 'NONE', *, *, #896, .T. ) ;
#443 = VECTOR ( 'NONE', #1012, 1000.000000000000000 ) ;
#444 = DIRECTION ( 'NONE',  ( -0.8660254037844414832, 0.000000000000000000, -0.4999999999999951150 ) ) ;
#445 = ADVANCED_FACE ( 'NONE', ( #121 ), #478, .F. ) ;
#446 = ORIENTED_EDGE ( 'NONE', *, *, #505, .F. ) ;
#447 = DIRECTION ( 'NONE',  ( 0.8660254037844408170, 0.000000000000000000, 0.4999999999999960587 ) ) ;
#448 = UNCERTAINTY_MEASURE_WITH_UNIT (LENGTH_MEASURE( 1.000000000000000082E-05 ), #124, 'distance_accuracy_value', 'NONE');
#449 = CARTESIAN_POINT ( 'NONE',  ( 14.69648713232894366, 7.505251400367633607, -30.65982923010851025 ) ) ;
#450 = ORIENTED_EDGE ( 'NONE', *, *, #1138, .F. ) ;
#451 = CARTESIAN_POINT ( 'NONE',  ( 13.00000000000016342, 0.000000000000000000, 22.51666049839527517 ) ) ;
#452 = VERTEX_POINT ( 'NONE', #209 ) ;
#453 = CARTESIAN_POINT ( 'NONE',  ( -18.55785621464873714, 8.387569220836054384, 28.48916658575731020 ) ) ;
#454 = CARTESIAN_POINT ( 'NONE',  ( 25.99999999999997513, 0.000000000000000000, -2.734212569701622310E-13 ) ) ;
#455 = VERTEX_POINT ( 'NONE', #660 ) ;
#456 = CARTESIAN_POINT ( 'NONE',  ( 39.31471862576159992, 8.485281374238548224, 12.00000000000000000 ) ) ;
#457 = ORIENTED_EDGE ( 'NONE', *, *, #850, .T. ) ;
#458 = DIRECTION ( 'NONE',  ( 0.7071067811865462405, 0.7071067811865489050, 0.000000000000000000 ) ) ;
#459 = CARTESIAN_POINT ( 'NONE',  ( 14.35349405589638394, 6.394765514433194298, -30.82172435383714770 ) ) ;
#460 = VECTOR ( 'NONE', #715, 1000.000000000000000 ) ;
#461 = EDGE_CURVE ( 'NONE', #834, #333, #61, .T. ) ;
#462 = ORIENTED_EDGE ( 'NONE', *, *, #521, .T. ) ;
#463 = LINE ( 'NONE', #187, #142 ) ;
#464 = ORIENTED_EDGE ( 'NONE', *, *, #1010, .T. ) ;
#465 = LINE ( 'NONE', #222, #239 ) ;
#466 = FACE_OUTER_BOUND ( 'NONE', #386, .T. ) ;
#467 = CARTESIAN_POINT ( 'NONE',  ( 15.49999999999989342, 6.000000000000000000, -26.84678751731776103 ) ) ;
#468 = FACE_OUTER_BOUND ( 'NONE', #111, .T. ) ;
#469 =( GEOMETRIC_REPRESENTATION_CONTEXT ( 3 ) GLOBAL_UNCERTAINTY_ASSIGNED_CONTEXT ( ( #448 ) ) GLOBAL_UNIT_ASSIGNED_CONTEXT ( ( #124, #385, #920 ) ) REPRESENTATION_CONTEXT ( 'NONE', 'WORKASPACE' ) );
#470 = VERTEX_POINT ( 'NONE', #1016 ) ;
#471 = APPLICATION_CONTEXT ( 'automotive_design' ) ;
#472 = DIRECTION ( 'NONE',  ( 0.000000000000000000, 1.000000000000000000, -0.000000000000000000 ) ) ;
#473 = VECTOR ( 'NONE', #706, 1000.000000000000114 ) ;
#474 = PLANE ( 'NONE',  #436 ) ;
#475 = EDGE_CURVE ( 'NONE', #1109, #1027, #299, .T. ) ;
#476 = ORIENTED_EDGE ( 'NONE', *, *, #68, .F. ) ;
#477 = ADVANCED_FACE ( 'NONE', ( #285 ), #30, .T. ) ;
#478 = CYLINDRICAL_SURFACE ( 'NONE', #855, 8.000000000000005329 ) ;
#479 = CARTESIAN_POINT ( 'NONE',  ( -12.99999999999992184, 6.000000000000000000, 22.51666049839556294 ) ) ;
#480 = VERTEX_POINT ( 'NONE', #203 ) ;
#481 = CARTESIAN_POINT ( 'NONE',  ( 79.18629150101527614, 48.35685424949237188, 4.898587196589411843E-16 ) ) ;
#482 = FACE_OUTER_BOUND ( 'NONE', #821, .T. ) ;
#483 = ORIENTED_EDGE ( 'NONE', *, *, #387, .F. ) ;
#484 = CARTESIAN_POINT ( 'NONE',  ( 47.80000000000018900, -6.938893903907228378E-15, -12.00000000000000000 ) ) ;
#485 = DIRECTION ( 'NONE',  ( 0.7071067811865457964, 0.7071067811865492381, 0.000000000000000000 ) ) ;
#486 = LINE ( 'NONE', #759, #591 ) ;
#487 = EDGE_LOOP ( 'NONE', ( #525, #276, #1043, #864, #270, #966 ) ) ;
#488 = DIRECTION ( 'NONE',  ( 0.7071067811865489050, -0.7071067811865462405, -0.000000000000000000 ) ) ;
#489 = EDGE_CURVE ( 'NONE', #357, #511, #1083, .T. ) ;
#490 = FILL_AREA_STYLE_COLOUR ( '', #868 ) ;
#491 = CIRCLE ( 'NONE', #650, 3.999999999999995559 ) ;
#492 = VECTOR ( 'NONE', #828, 1000.000000000000000 ) ;
#493 = CARTESIAN_POINT ( 'NONE',  ( 17.66671650312581221, 3.095151559825112919, -29.05036849087060702 ) ) ;
#494 = AXIS2_PLACEMENT_3D ( 'NONE', #227, #853, #582 ) ;
#495 = EDGE_LOOP ( 'NONE', ( #777, #643, #838, #1004 ) ) ;
#496 = LINE ( 'NONE', #761, #383 ) ;
#497 = VECTOR ( 'NONE', #143, 999.9999999999998863 ) ;
#498 = DIRECTION ( 'NONE',  ( 0.4999999999999951705, -0.000000000000000000, -0.8660254037844414832 ) ) ;
#499 = DIRECTION ( 'NONE',  ( -0.000000000000000000, -1.000000000000000000, -0.000000000000000000 ) ) ;
#500 = ORIENTED_EDGE ( 'NONE', *, *, #1005, .T. ) ;
#501 = CARTESIAN_POINT ( 'NONE',  ( -15.00440111743943561, 4.018343765710557847, 30.51045143618944167 ) ) ;
#502 = ORIENTED_EDGE ( 'NONE', *, *, #735, .F. ) ;
#503 = CARTESIAN_POINT ( 'NONE',  ( 0.000000000000000000, 12.00000000000000000, 0.000000000000000000 ) ) ;
#504 = CARTESIAN_POINT ( 'NONE',  ( 84.84314575050763096, 54.01370849898475512, 0.000000000000000000 ) ) ;
#505 = EDGE_CURVE ( 'NONE', #1109, #56, #388, .T. ) ;
#506 = ORIENTED_EDGE ( 'NONE', *, *, #235, .F. ) ;
#507 = FACE_OUTER_BOUND ( 'NONE', #957, .T. ) ;
#508 = VERTEX_POINT ( 'NONE', #747 ) ;
#509 = CARTESIAN_POINT ( 'NONE',  ( -12.99999999999985789, 12.00000000000000000, 22.51666049839545636 ) ) ;
#510 = LINE ( 'NONE', #407, #202 ) ;
#511 = VERTEX_POINT ( 'NONE', #116 ) ;
#512 = CARTESIAN_POINT ( 'NONE',  ( -17.67038849867727990, 3.096165096307392339, 29.04814776873189430 ) ) ;
#513 = CIRCLE ( 'NONE', #19, 34.00000000000000000 ) ;
#514 = AXIS2_PLACEMENT_3D ( 'NONE', #726, #14, #894 ) ;
#515 = CARTESIAN_POINT ( 'NONE',  ( 81.20154582739695570, 40.68474567361833749, 9.797174393178833546E-16 ) ) ;
#516 = CARTESIAN_POINT ( 'NONE',  ( 14.69481186571078091, 4.497708435096106960, -30.66063569470528449 ) ) ;
#517 = ORIENTED_EDGE ( 'NONE', *, *, #649, .F. ) ;
#518 = DIRECTION ( 'NONE',  ( 0.7071067811865460184, 0.7071067811865490160, 0.000000000000000000 ) ) ;
#519 = EDGE_CURVE ( 'NONE', #1089, #612, #924, .T. ) ;
#520 = DIRECTION ( 'NONE',  ( 0.7071067811865490160, -0.7071067811865462405, 0.000000000000000000 ) ) ;
#521 = EDGE_CURVE ( 'NONE', #16, #1136, #1093, .T. ) ;
#522 = CARTESIAN_POINT ( 'NONE',  ( 16.83139319870508999, 9.000070458946019869, -29.54221608951905864 ) ) ;
#523 = ORIENTED_EDGE ( 'NONE', *, *, #475, .T. ) ;
#524 = CARTESIAN_POINT ( 'NONE',  ( -15.68071675289123590, 3.397108501606818987, 30.16855299321279915 ) ) ;
#525 = ORIENTED_EDGE ( 'NONE', *, *, #189, .T. ) ;
#526 = AXIS2_PLACEMENT_3D ( 'NONE', #106, #895, #716 ) ;
#527 = CARTESIAN_POINT ( 'NONE',  ( -14.47510617528728183, 6.966907439870976049, 30.76486506777017382 ) ) ;
#528 = EDGE_CURVE ( 'NONE', #429, #638, #555, .T. ) ;
#529 = CARTESIAN_POINT ( 'NONE',  ( 14.33561801052260876, 6.195842530942553772, -30.83001875212501730 ) ) ;
#530 = CYLINDRICAL_SURFACE ( 'NONE', #514, 2.999999999999998668 ) ;
#531 = CARTESIAN_POINT ( 'NONE',  ( 26.00000000000013500, 0.000000000000000000, 15.01110699893001765 ) ) ;
#532 = VERTEX_POINT ( 'NONE', #304 ) ;
#533 = AXIS2_PLACEMENT_3D ( 'NONE', #1015, #818, #909 ) ;
#534 = CARTESIAN_POINT ( 'NONE',  ( -16.65678354872608224, 8.980262874488124325, 29.64099080890349569 ) ) ;
#535 = CARTESIAN_POINT ( 'NONE',  ( 19.20503348886270700, 7.503064777913440508, -28.05670341523553191 ) ) ;
#536 = DIRECTION ( 'NONE',  ( 0.8660254037844414832, 0.000000000000000000, 0.4999999999999950595 ) ) ;
#537 = FACE_OUTER_BOUND ( 'NONE', #795, .T. ) ;
#538 = VERTEX_POINT ( 'NONE', #910 ) ;
#539 = CARTESIAN_POINT ( 'NONE',  ( -14.69481186571078801, 7.502291564903891263, 30.66063569470528094 ) ) ;
#540 = DIRECTION ( 'NONE',  ( -0.4999999999999950595, 0.000000000000000000, 0.8660254037844414832 ) ) ;
#541 = FACE_OUTER_BOUND ( 'NONE', #764, .T. ) ;
#542 = FACE_OUTER_BOUND ( 'NONE', #140, .T. ) ;
#543 = EDGE_CURVE ( 'NONE', #455, #1055, #217, .T. ) ;
#544 = ADVANCED_FACE ( 'NONE', ( #393 ), #1102, .F. ) ;
#545 = ORIENTED_EDGE ( 'NONE', *, *, #408, .T. ) ;
#546 = CARTESIAN_POINT ( 'NONE',  ( -15.25243229581317372, 8.258220348596886140, 30.38720909731845410 ) ) ;
#547 = EDGE_CURVE ( 'NONE', #676, #181, #241, .T. ) ;
#548 = LINE ( 'NONE', #268, #109 ) ;
#549 = ORIENTED_EDGE ( 'NONE', *, *, #240, .F. ) ;
#550 = LINE ( 'NONE', #974, #883 ) ;
#551 = EDGE_LOOP ( 'NONE', ( #681, #700, #194, #921 ) ) ;
#552 = AXIS2_PLACEMENT_3D ( 'NONE', #994, #832, #485 ) ;
#553 = CIRCLE ( 'NONE', #57, 1.700000000000000844 ) ;
#554 = DIRECTION ( 'NONE',  ( -0.4999999999999951150, -0.000000000000000000, 0.8660254037844414832 ) ) ;
#555 = LINE ( 'NONE', #826, #596 ) ;
#556 = CARTESIAN_POINT ( 'NONE',  ( 82.01471862576146066, 51.18528137423856350, 0.000000000000000000 ) ) ;
#557 = CARTESIAN_POINT ( 'NONE',  ( -25.99999999999997868, 12.00000000000000000, 8.713424672675504356E-14 ) ) ;
#558 = VECTOR ( 'NONE', #578, 1000.000000000000000 ) ;
#559 = ORIENTED_EDGE ( 'NONE', *, *, #461, .T. ) ;
#560 = ADVANCED_FACE ( 'NONE', ( #856 ), #774, .T. ) ;
#561 = ADVANCED_FACE ( 'NONE', ( #597 ), #1125, .T. ) ;
#562 = DIRECTION ( 'NONE',  ( 0.8660254037844412611, 0.000000000000000000, 0.4999999999999956701 ) ) ;
#563 = DIRECTION ( 'NONE',  ( 0.8660254037844412611, 0.000000000000000000, 0.4999999999999956701 ) ) ;
#564 = APPLICATION_PROTOCOL_DEFINITION ( 'draft international standard', 'automotive_design', 1998, #471 ) ;
#565 = VECTOR ( 'NONE', #913, 1000.000000000000000 ) ;
#566 = ORIENTED_EDGE ( 'NONE', *, *, #686, .T. ) ;
#567 = DIRECTION ( 'NONE',  ( -0.8660254037844412611, 0.000000000000000000, -0.4999999999999956701 ) ) ;
#568 = DIRECTION ( 'NONE',  ( 0.8660254037844412611, 0.000000000000000000, 0.4999999999999956701 ) ) ;
#569 = DIRECTION ( 'NONE',  ( 0.7071067811865489050, -0.7071067811865462405, 0.000000000000000000 ) ) ;
#570 = ORIENTED_EDGE ( 'NONE', *, *, #978, .T. ) ;
#571 = DIRECTION ( 'NONE',  ( 0.4999999999999951705, 0.000000000000000000, -0.8660254037844414832 ) ) ;
#572 = AXIS2_PLACEMENT_3D ( 'NONE', #758, #64, #944 ) ;
#573 = ADVANCED_FACE ( 'NONE', ( #867 ), #314, .T. ) ;
#574 = CARTESIAN_POINT ( 'NONE',  ( 0.000000000000000000, 12.00000000000000000, -34.00000000000000000 ) ) ;
#575 = VERTEX_POINT ( 'NONE', #608 ) ;
#576 = FACE_BOUND ( 'NONE', #728, .T. ) ;
#577 = APPLICATION_CONTEXT ( 'automotive_design' ) ;
#578 = DIRECTION ( 'NONE',  ( -1.051620219116009685E-14, 0.000000000000000000, -1.000000000000000000 ) ) ;
#579 = DIRECTION ( 'NONE',  ( 0.7071067811865487940, -0.7071067811865462405, 5.551115123125781470E-17 ) ) ;
#580 = DIRECTION ( 'NONE',  ( 0.000000000000000000, 0.000000000000000000, 1.000000000000000000 ) ) ;
#581 = VERTEX_POINT ( 'NONE', #961 ) ;
#582 = DIRECTION ( 'NONE',  ( 0.000000000000000000, 0.000000000000000000, 1.000000000000000000 ) ) ;
#583 = DIRECTION ( 'NONE',  ( 0.4999999999999949485, 0.000000000000000000, -0.8660254037844415942 ) ) ;
#584 = CARTESIAN_POINT ( 'NONE',  ( 15.00445837663826865, 4.018516872070422075, -30.51041455775795441 ) ) ;
#585 = CIRCLE ( 'NONE', #1081, 12.00000000000000178 ) ;
#586 = ORIENTED_EDGE ( 'NONE', *, *, #885, .F. ) ;
#587 = PLANE ( 'NONE',  #687 ) ;
#588 = B_SPLINE_CURVE_WITH_KNOTS ( 'NONE', 3,
 ( #763, #863, #332, #1113, #685, #412, #516, #679, #584, #1119, #780, #768, #1032, #337, #697, #144, #936, #702, #249, #493, #946, #599, #1131, #952, #322, #242, #342, #158, #1038, #153, #417, #1042 ),
 .UNSPECIFIED., .F., .F.,
 ( 4, 2, 2, 2, 2, 2, 2, 2, 2, 2, 2, 2, 2, 2, 2, 4 ),
 ( 0.009383926599878047309, 0.009970285582138149055, 0.01055664456439824907, 0.01114300354665835081, 0.01172936252891845083, 0.01231572151117855084, 0.01290208049343865085, 0.01348843947569875086, 0.01407479845795885087, 0.01466115744021895088, 0.01524751642247905090, 0.01583387540473914917, 0.01642023438699925092, 0.01700659336925934920, 0.01759295235151944747, 0.01876567031603964056 ),
 .UNSPECIFIED. ) ;
#589 = DIRECTION ( 'NONE',  ( -0.8660254037844420383, 0.000000000000000000, -0.4999999999999941158 ) ) ;
#590 = CIRCLE ( 'NONE', #399, 34.00000000000000000 ) ;
#591 = VECTOR ( 'NONE', #309, 1000.000000000000000 ) ;
#592 = CARTESIAN_POINT ( 'NONE',  ( -25.99999999999992539, 12.00000000000000000, 15.01110699893038003 ) ) ;
#593 = AXIS2_PLACEMENT_3D ( 'NONE', #396, #672, #137 ) ;
#594 = ORIENTED_EDGE ( 'NONE', *, *, #751, .T. ) ;
#595 = CARTESIAN_POINT ( 'NONE',  ( -19.53177043322926210, 6.000000000000000000, 27.83001875212503862 ) ) ;
#596 = VECTOR ( 'NONE', #300, 1000.000000000000000 ) ;
#597 = FACE_OUTER_BOUND ( 'NONE', #119, .T. ) ;
#598 = EDGE_CURVE ( 'NONE', #77, #357, #157, .T. ) ;
#599 = CARTESIAN_POINT ( 'NONE',  ( 18.13787072469655470, 3.303059559342525819, -28.75848962754273686 ) ) ;
#600 = EDGE_LOOP ( 'NONE', ( #483, #131, #170, #1000 ) ) ;
#601 = CARTESIAN_POINT ( 'NONE',  ( -19.45303314730593058, 5.223107320375754092, 27.88513881760519908 ) ) ;
#602 = EDGE_CURVE ( 'NONE', #986, #581, #257, .T. ) ;
#603 = VERTEX_POINT ( 'NONE', #162 ) ;
#604 = DIRECTION ( 'NONE',  ( 0.000000000000000000, 0.000000000000000000, -1.000000000000000000 ) ) ;
#605 = DIRECTION ( 'NONE',  ( 1.000000000000000000, 0.000000000000000000, -3.771137991253884693E-16 ) ) ;
#606 = ORIENTED_EDGE ( 'NONE', *, *, #754, .F. ) ;
#607 = DIRECTION ( 'NONE',  ( 0.4999999999999952260, -0.000000000000000000, -0.8660254037844413721 ) ) ;
#608 = CARTESIAN_POINT ( 'NONE',  ( 42.82943725152305348, 12.00000000000000000, 12.00000000000000000 ) ) ;
#609 = LINE ( 'NONE', #962, #1048 ) ;
#610 = ORIENTED_EDGE ( 'NONE', *, *, #208, .F. ) ;
#611 = CARTESIAN_POINT ( 'NONE',  ( -14.69648713232895076, 4.494748599632362840, 30.65982923010849959 ) ) ;
#612 = VERTEX_POINT ( 'NONE', #331 ) ;
#613 = DIRECTION ( 'NONE',  ( -0.4999999999999951705, -0.000000000000000000, 0.8660254037844415942 ) ) ;
#614 = ADVANCED_FACE ( 'NONE', ( #228, #1112 ), #75, .T. ) ;
#615 = CARTESIAN_POINT ( 'NONE',  ( 4.163799117101000559E-15, 12.00000000000000000, 34.00000000000000000 ) ) ;
#616 = ORIENTED_EDGE ( 'NONE', *, *, #353, .T. ) ;
#617 = DIRECTION ( 'NONE',  ( 0.7071067811865457964, 0.7071067811865492381, 0.000000000000000000 ) ) ;
#618 = EDGE_CURVE ( 'NONE', #662, #470, #513, .T. ) ;
#619 = VERTEX_POINT ( 'NONE', #515 ) ;
#620 = EDGE_CURVE ( 'NONE', #619, #86, #70, .T. ) ;
#621 = DIRECTION ( 'NONE',  ( 0.7071067811865489050, -0.7071067811865461294, -0.000000000000000000 ) ) ;
#622 = AXIS2_PLACEMENT_3D ( 'NONE', #49, #580, #145 ) ;
#623 = CARTESIAN_POINT ( 'NONE',  ( 17.17048203619424029, 8.999929150323907834, -29.34642866063920152 ) ) ;
#624 = ORIENTED_EDGE ( 'NONE', *, *, #136, .T. ) ;
#625 = PLANE ( 'NONE',  #1025 ) ;
#626 = ORIENTED_EDGE ( 'NONE', *, *, #978, .F. ) ;
#627 = VECTOR ( 'NONE', #444, 1000.000000000000114 ) ;
#628 = CARTESIAN_POINT ( 'NONE',  ( -18.28348145673910707, 8.604907374253466301, 28.66602424222244494 ) ) ;
#629 = CARTESIAN_POINT ( 'NONE',  ( 14.33561801052260698, 6.000000000000000000, -30.83001875212501730 ) ) ;
#630 = ORIENTED_EDGE ( 'NONE', *, *, #189, .F. ) ;
#631 = DIRECTION ( 'NONE',  ( 0.7071067811865462405, 0.7071067811865489050, 0.000000000000000000 ) ) ;
#632 = ORIENTED_EDGE ( 'NONE', *, *, #265, .F. ) ;
#633 = VECTOR ( 'NONE', #7, 1000.000000000000000 ) ;
#634 = CARTESIAN_POINT ( 'NONE',  ( -14.35290729520629149, 6.390458763900018546, 30.82199762956490119 ) ) ;
#635 = PLANE ( 'NONE',  #345 ) ;
#636 = VERTEX_POINT ( 'NONE', #696 ) ;
#637 = CARTESIAN_POINT ( 'NONE',  ( 12.99999999999991473, 12.00000000000000000, -22.51666049839554873 ) ) ;
#638 = VERTEX_POINT ( 'NONE', #59 ) ;
#639 = LINE ( 'NONE', #1053, #633 ) ;
#640 = CARTESIAN_POINT ( 'NONE',  ( 19.28120865394321726, 7.330776817978764903, -28.00429796210953981 ) ) ;
#641 = FACE_BOUND ( 'NONE', #164, .T. ) ;
#642 = CARTESIAN_POINT ( 'NONE',  ( -12.99999999999985789, 0.000000000000000000, 22.51666049839545636 ) ) ;
#643 = ORIENTED_EDGE ( 'NONE', *, *, #1127, .F. ) ;
#644 = DIRECTION ( 'NONE',  ( -0.4999999999999951705, -8.326672684688671588E-17, 0.8660254037844413721 ) ) ;
#645 = CARTESIAN_POINT ( 'NONE',  ( 84.84314575050764518, 54.01370849898476934, 0.000000000000000000 ) ) ;
#646 = ORIENTED_EDGE ( 'NONE', *, *, #79, .F. ) ;
#647 = CARTESIAN_POINT ( 'NONE',  ( -15.49999999999989519, 6.000000000000000000, 26.84678751731776103 ) ) ;
#648 = EDGE_LOOP ( 'NONE', ( #211, #316, #354, #462 ) ) ;
#649 = EDGE_CURVE ( 'NONE', #938, #86, #1066, .T. ) ;
#650 = AXIS2_PLACEMENT_3D ( 'NONE', #224, #1001, #918 ) ;
#651 = AXIS2_PLACEMENT_3D ( 'NONE', #1021, #664, #1013 ) ;
#652 = VECTOR ( 'NONE', #554, 1000.000000000000114 ) ;
#653 = CARTESIAN_POINT ( 'NONE',  ( 31.81194744117373574, 12.00000000000000000, 12.00000000000000000 ) ) ;
#654 = DIRECTION ( 'NONE',  ( -0.4999999999999951705, -8.326672684688671588E-17, 0.8660254037844413721 ) ) ;
#655 = CARTESIAN_POINT ( 'NONE',  ( 11.52775681356636817, 6.000000000000000000, -23.36666049839554660 ) ) ;
#656 = MANIFOLD_SOLID_BREP ( 'Mirror1', #23 ) ;
#657 = AXIS2_PLACEMENT_3D ( 'NONE', #1007, #308, #213 ) ;
#658 = ORIENTED_EDGE ( 'NONE', *, *, #683, .F. ) ;
#659 = EDGE_CURVE ( 'NONE', #508, #927, #397, .T. ) ;
#660 = CARTESIAN_POINT ( 'NONE',  ( 31.81194744117373574, 0.000000000000000000, -11.99999999999999467 ) ) ;
#661 = DIRECTION ( 'NONE',  ( 0.000000000000000000, 0.000000000000000000, 1.000000000000000000 ) ) ;
#662 = VERTEX_POINT ( 'NONE', #798 ) ;
#663 = CARTESIAN_POINT ( 'NONE',  ( 4.163799117101000559E-15, 12.00000000000000000, 34.00000000000000000 ) ) ;
#664 = DIRECTION ( 'NONE',  ( -0.7071067811865489050, 0.7071067811865462405, -0.000000000000000000 ) ) ;
#665 = ORIENTED_EDGE ( 'NONE', *, *, #618, .F. ) ;
#666 = FACE_OUTER_BOUND ( 'NONE', #246, .T. ) ;
#667 = CARTESIAN_POINT ( 'NONE',  ( -23.22243186433519568, 6.000000000000000000, 40.22243186433553319 ) ) ;
#668 = DIRECTION ( 'NONE',  ( 0.7071067811865489050, -0.7071067811865461294, 0.000000000000000000 ) ) ;
#669 = AXIS2_PLACEMENT_3D ( 'NONE', #27, #973, #374 ) ;
#670 = ADVANCED_FACE ( 'NONE', ( #811 ), #892, .F. ) ;
#671 = VERTEX_POINT ( 'NONE', #724 ) ;
#672 = DIRECTION ( 'NONE',  ( 0.000000000000000000, 1.000000000000000000, -0.000000000000000000 ) ) ;
#673 = EDGE_CURVE ( 'NONE', #575, #1033, #639, .T. ) ;
#674 = CARTESIAN_POINT ( 'NONE',  ( -25.99999999999997868, 12.00000000000000000, 8.713424672675504356E-14 ) ) ;
#675 = CARTESIAN_POINT ( 'NONE',  ( 39.31471862576159992, 8.485281374238548224, -12.00000000000000000 ) ) ;
#676 = VERTEX_POINT ( 'NONE', #1064 ) ;
#677 = DIRECTION ( 'NONE',  ( 0.000000000000000000, 0.000000000000000000, -1.000000000000000000 ) ) ;
#678 = DIRECTION ( 'NONE',  ( -0.8660254037844415942, 0.000000000000000000, -0.4999999999999949485 ) ) ;
#679 = CARTESIAN_POINT ( 'NONE',  ( 14.89270623378762437, 4.169557384775516518, -30.56500250296364385 ) ) ;
#680 = VECTOR ( 'NONE', #739, 1000.000000000000000 ) ;
#681 = ORIENTED_EDGE ( 'NONE', *, *, #218, .F. ) ;
#682 = LINE ( 'NONE', #238, #286 ) ;
#683 = EDGE_CURVE ( 'NONE', #532, #749, #783, .T. ) ;
#684 = SURFACE_STYLE_FILL_AREA ( #1041 ) ;
#685 = CARTESIAN_POINT ( 'NONE',  ( 14.47510617528727117, 5.033092560129020399, -30.76486506777017382 ) ) ;
#686 = EDGE_CURVE ( 'NONE', #508, #333, #341, .T. ) ;
#687 = AXIS2_PLACEMENT_3D ( 'NONE', #939, #149, #756 ) ;
#688 = EDGE_LOOP ( 'NONE', ( #1039, #586 ) ) ;
#689 = DIRECTION ( 'NONE',  ( -0.000000000000000000, -1.000000000000000000, -0.000000000000000000 ) ) ;
#690 = ADVANCED_FACE ( 'NONE', ( #172 ), #366, .F. ) ;
#691 = PRESENTATION_STYLE_ASSIGNMENT (( #167 ) ) ;
#692 = DIRECTION ( 'NONE',  ( -0.7071067811865463515, -0.7071067811865486830, 0.000000000000000000 ) ) ;
#693 = ORIENTED_EDGE ( 'NONE', *, *, #959, .F. ) ;
#694 = CARTESIAN_POINT ( 'NONE',  ( -16.83139319870510064, 2.999929541053982351, 29.54221608951904798 ) ) ;
#695 = ORIENTED_EDGE ( 'NONE', *, *, #547, .T. ) ;
#696 = CARTESIAN_POINT ( 'NONE',  ( 93.32842712474622715, 45.52842712474621578, 12.00000000000000000 ) ) ;
#697 = CARTESIAN_POINT ( 'NONE',  ( 16.32137305665515470, 3.096254244913771991, -29.82699374506429280 ) ) ;
#698 = ORIENTED_EDGE ( 'NONE', *, *, #519, .F. ) ;
#699 = LINE ( 'NONE', #419, #736 ) ;
#700 = ORIENTED_EDGE ( 'NONE', *, *, #602, .F. ) ;
#701 = FACE_OUTER_BOUND ( 'NONE', #1050, .T. ) ;
#702 = CARTESIAN_POINT ( 'NONE',  ( 17.16952406206522497, 2.999845631862703144, -29.34700469364903697 ) ) ;
#703 = AXIS2_PLACEMENT_3D ( 'NONE', #60, #428, #245 ) ;
#704 = CIRCLE ( 'NONE', #346, 1.700000000000000844 ) ;
#705 = ORIENTED_EDGE ( 'NONE', *, *, #528, .F. ) ;
#706 = DIRECTION ( 'NONE',  ( -0.4999999999999951705, -0.000000000000000000, 0.8660254037844414832 ) ) ;
#707 = CARTESIAN_POINT ( 'NONE',  ( 40.17585898908107112, 6.000000000000000000, -69.58662900681210317 ) ) ;
#708 = AXIS2_PLACEMENT_3D ( 'NONE', #1097, #737, #562 ) ;
#709 = CARTESIAN_POINT ( 'NONE',  ( 19.53177043322925144, 6.198320789225136629, -27.83001875212504928 ) ) ;
#710 = EDGE_LOOP ( 'NONE', ( #105, #866 ) ) ;
#711 = CARTESIAN_POINT ( 'NONE',  ( -16.32169144477229139, 3.096111189395805319, 29.82682394994248654 ) ) ;
#712 = EDGE_LOOP ( 'NONE', ( #992, #413, #953, #1100, #415 ) ) ;
#713 = CARTESIAN_POINT ( 'NONE',  ( 86.85840007688932474, 46.34159992311072784, 0.000000000000000000 ) ) ;
#714 = CARTESIAN_POINT ( 'NONE',  ( 15.25578643989681638, 8.261723413346974354, -30.38553405542432273 ) ) ;
#715 = DIRECTION ( 'NONE',  ( -0.7071067811865489050, 0.7071067811865462405, -0.000000000000000000 ) ) ;
#716 = DIRECTION ( 'NONE',  ( -0.8660254037844412611, 0.000000000000000000, -0.4999999999999956146 ) ) ;
#717 = ORIENTED_EDGE ( 'NONE', *, *, #389, .F. ) ;
#718 = CARTESIAN_POINT ( 'NONE',  ( 86.85840007688932474, 46.34159992311072784, 0.000000000000000000 ) ) ;
#719 = CARTESIAN_POINT ( 'NONE',  ( -12.90192378864657030, 6.000000000000000000, 28.34678751731775037 ) ) ;
#720 = PRODUCT_RELATED_PRODUCT_CATEGORY ( 'part', '', ( #945 ) ) ;
#721 = ORIENTED_EDGE ( 'NONE', *, *, #1107, .F. ) ;
#722 = FACE_BOUND ( 'NONE', #340, .T. ) ;
#723 = ORIENTED_EDGE ( 'NONE', *, *, #387, .T. ) ;
#724 = CARTESIAN_POINT ( 'NONE',  ( 84.84314575050764518, 54.01370849898476934, -12.00000000000000000 ) ) ;
#725 = PLANE ( 'NONE',  #940 ) ;
#726 = CARTESIAN_POINT ( 'NONE',  ( 40.17585898908107112, 6.000000000000000000, -69.58662900681211738 ) ) ;
#727 = CARTESIAN_POINT ( 'NONE',  ( 0.000000000000000000, 12.00000000000000000, -30.02221399786053269 ) ) ;
#728 = EDGE_LOOP ( 'NONE', ( #1011, #950 ) ) ;
#729 = CYLINDRICAL_SURFACE ( 'NONE', #1142, 34.00000000000000000 ) ;
#730 = CARTESIAN_POINT ( 'NONE',  ( 14.02775681356634507, 6.000000000000000000, -27.69678751731774469 ) ) ;
#731 = ADVANCED_FACE ( 'NONE', ( #701 ), #361, .F. ) ;
#732 = CARTESIAN_POINT ( 'NONE',  ( -14.47224318643346841, 6.000000000000000000, 21.66666049839556862 ) ) ;
#733 = CARTESIAN_POINT ( 'NONE',  ( 42.82943725152305348, 12.00000000000000000, -11.99999999999999822 ) ) ;
#734 = ORIENTED_EDGE ( 'NONE', *, *, #421, .T. ) ;
#735 = EDGE_CURVE ( 'NONE', #947, #619, #330, .T. ) ;
#736 = VECTOR ( 'NONE', #607, 999.9999999999998863 ) ;
#737 = DIRECTION ( 'NONE',  ( -0.4999999999999951150, 8.326672684688674053E-17, 0.8660254037844415942 ) ) ;
#738 = FACE_BOUND ( 'NONE', #710, .T. ) ;
#739 = DIRECTION ( 'NONE',  ( 0.8660254037844415942, 0.000000000000000000, 0.4999999999999950040 ) ) ;
#740 = EDGE_CURVE ( 'NONE', #1055, #1132, #200, .T. ) ;
#741 = ORIENTED_EDGE ( 'NONE', *, *, #421, .F. ) ;
#742 = CIRCLE ( 'NONE', #552, 3.999999999999995559 ) ;
#743 = CIRCLE ( 'NONE', #294, 1.700000000000000844 ) ;
#744 = CARTESIAN_POINT ( 'NONE',  ( 25.99999999999997513, 12.00000000000000000, -2.734212569701622310E-13 ) ) ;
#745 = CARTESIAN_POINT ( 'NONE',  ( 84.84314575050767360, 37.04314575050762670, 9.797174393178833546E-16 ) ) ;
#746 = ORIENTED_EDGE ( 'NONE', *, *, #1058, .F. ) ;
#747 = CARTESIAN_POINT ( 'NONE',  ( -14.33561801052261586, 6.000000000000000000, 30.83001875212501375 ) ) ;
#748 = CARTESIAN_POINT ( 'NONE',  ( 2.099015405931936584E-13, 12.00000000000000000, 30.02221399786052913 ) ) ;
#749 = VERTEX_POINT ( 'NONE', #324 ) ;
#750 = CARTESIAN_POINT ( 'NONE',  ( 12.99999999999992006, 6.000000000000000000, -22.51666049839555939 ) ) ;
#751 = EDGE_CURVE ( 'NONE', #216, #749, #465, .T. ) ;
#752 = DIRECTION ( 'NONE',  ( -0.5000000000000068834, 0.000000000000000000, -0.8660254037844347108 ) ) ;
#753 = CARTESIAN_POINT ( 'NONE',  ( 0.000000000000000000, 12.00000000000000000, 0.000000000000000000 ) ) ;
#754 = EDGE_CURVE ( 'NONE', #86, #938, #999, .T. ) ;
#755 = EDGE_LOOP ( 'NONE', ( #914, #418, #264, #328 ) ) ;
#756 = DIRECTION ( 'NONE',  ( 1.051620219116009685E-14, 0.000000000000000000, 1.000000000000000000 ) ) ;
#757 = AXIS2_PLACEMENT_3D ( 'NONE', #71, #776, #692 ) ;
#758 = CARTESIAN_POINT ( 'NONE',  ( 90.50000000000005684, 42.70000000000001705, 0.000000000000000000 ) ) ;
#759 = CARTESIAN_POINT ( 'NONE',  ( 93.32842712474619873, 62.49898987322335842, 0.000000000000000000 ) ) ;
#760 = EDGE_LOOP ( 'NONE', ( #823, #594, #1104, #897, #113, #616 ) ) ;
#761 = CARTESIAN_POINT ( 'NONE',  ( 47.80000000000016058, 0.000000000000000000, -1.381996369194860947E-14 ) ) ;
#762 = AXIS2_PLACEMENT_3D ( 'NONE', #934, #1036, #951 ) ;
#763 = CARTESIAN_POINT ( 'NONE',  ( 14.33561801052260698, 6.000000000000000000, -30.83001875212501730 ) ) ;
#764 = EDGE_LOOP ( 'NONE', ( #1123, #781, #66, #1120 ) ) ;
#765 = DIRECTION ( 'NONE',  ( 0.7071067811865490160, -0.7071067811865462405, 0.000000000000000000 ) ) ;
#766 = EDGE_CURVE ( 'NONE', #376, #1136, #108, .T. ) ;
#767 =( NAMED_UNIT ( * ) PLANE_ANGLE_UNIT ( ) SI_UNIT ( $, .RADIAN. ) );
#768 = CARTESIAN_POINT ( 'NONE',  ( 15.68059504457756503, 3.397143451435979067, -30.16861879973343719 ) ) ;
#769 = VECTOR ( 'NONE', #689, 1000.000000000000000 ) ;
#770 = ORIENTED_EDGE ( 'NONE', *, *, #959, .T. ) ;
#771 = CARTESIAN_POINT ( 'NONE',  ( -15.39129472117412689, 3.614287303081073599, 30.31723131149430728 ) ) ;
#772 = EDGE_CURVE ( 'NONE', #154, #181, #439, .T. ) ;
#773 = ORIENTED_EDGE ( 'NONE', *, *, #854, .T. ) ;
#774 = PLANE ( 'NONE',  #115 ) ;
#775 = AXIS2_PLACEMENT_3D ( 'NONE', #713, #520, #879 ) ;
#776 = DIRECTION ( 'NONE',  ( -0.7071067811865489050, 0.7071067811865461294, 2.666597246405842514E-16 ) ) ;
#777 = ORIENTED_EDGE ( 'NONE', *, *, #353, .F. ) ;
#778 = CARTESIAN_POINT ( 'NONE',  ( -17.83175084837292346, 3.153783315064108805, 28.94928806841219426 ) ) ;
#779 = DIRECTION ( 'NONE',  ( 0.000000000000000000, 1.000000000000000000, -0.000000000000000000 ) ) ;
#780 = CARTESIAN_POINT ( 'NONE',  ( 15.39033149223361718, 3.615066688188609323, -30.31772283326736428 ) ) ;
#781 = ORIENTED_EDGE ( 'NONE', *, *, #923, .T. ) ;
#782 = CARTESIAN_POINT ( 'NONE',  ( -16.65829904509572756, 3.019462202103824211, 29.64014358068088484 ) ) ;
#783 = LINE ( 'NONE', #355, #220 ) ;
#784 = ADVANCED_FACE ( 'NONE', ( #51, #576 ), #729, .T. ) ;
#785 = CARTESIAN_POINT ( 'NONE',  ( 15.49999999999989342, 6.000000000000000000, -26.84678751731776103 ) ) ;
#786 = ORIENTED_EDGE ( 'NONE', *, *, #602, .T. ) ;
#787 = CARTESIAN_POINT ( 'NONE',  ( -19.02446770245457586, 4.170876231972016512, 28.17945255815111949 ) ) ;
#788 = AXIS2_PLACEMENT_3D ( 'NONE', #244, #414, #882 ) ;
#789 = EDGE_LOOP ( 'NONE', ( #338, #610, #391, #632 ) ) ;
#790 = CARTESIAN_POINT ( 'NONE',  ( -16.82640247592964755, 8.999843788259081379, 29.54507439024183668 ) ) ;
#791 = CARTESIAN_POINT ( 'NONE',  ( 14.61140816220750338, 7.329841589173494043, -30.70036572465111391 ) ) ;
#792 = CIRCLE ( 'NONE', #1046, 2.999999999999998224 ) ;
#793 = AXIS2_PLACEMENT_3D ( 'NONE', #837, #31, #1017 ) ;
#794 = CIRCLE ( 'NONE', #494, 34.00000000000000000 ) ;
#795 = EDGE_LOOP ( 'NONE', ( #1095, #323, #243, #365, #62, #500 ) ) ;
#796 = CARTESIAN_POINT ( 'NONE',  ( 41.64810217551461591, 6.000000000000000000, -68.73662900681210886 ) ) ;
#797 = ORIENTED_EDGE ( 'NONE', *, *, #20, .F. ) ;
#798 = CARTESIAN_POINT ( 'NONE',  ( 0.000000000000000000, 0.000000000000000000, -34.00000000000000000 ) ) ;
#799 = AXIS2_PLACEMENT_3D ( 'NONE', #1020, #1106, #604 ) ;
#800 = CARTESIAN_POINT ( 'NONE',  ( 19.53177043322925499, 6.000000000000000000, -27.83001875212504572 ) ) ;
#801 = EDGE_LOOP ( 'NONE', ( #1063, #624 ) ) ;
#802 = CARTESIAN_POINT ( 'NONE',  ( 0.000000000000000000, 12.00000000000000000, 12.00000000000000000 ) ) ;
#803 = EDGE_CURVE ( 'NONE', #409, #429, #40, .T. ) ;
#804 = ORIENTED_EDGE ( 'NONE', *, *, #401, .T. ) ;
#805 = CARTESIAN_POINT ( 'NONE',  ( -19.53177043322926565, 6.396549311909859981, 27.83001875212503506 ) ) ;
#806 = ADVANCED_FACE ( 'NONE', ( #824 ), #587, .T. ) ;
#807 = CARTESIAN_POINT ( 'NONE',  ( 14.42329472528659906, 6.779382640073800204, -30.78912231655996123 ) ) ;
#808 = CARTESIAN_POINT ( 'NONE',  ( 14.47224318643346308, 6.000000000000000000, -21.66666049839556862 ) ) ;
#809 = DIRECTION ( 'NONE',  ( 0.8660254037844347108, 0.000000000000000000, -0.5000000000000068834 ) ) ;
#810 = ORIENTED_EDGE ( 'NONE', *, *, #854, .F. ) ;
#811 = FACE_OUTER_BOUND ( 'NONE', #648, .T. ) ;
#812 = FACE_BOUND ( 'NONE', #688, .T. ) ;
#813 = B_SPLINE_CURVE_WITH_KNOTS ( 'NONE', 3,
 ( #800, #709, #91, #441, #1054, #640, #535, #880, #899, #97, #988, #196, #13, #191, #110, #261, #623, #522, #432, #893, #362, #8, #972, #356, #714, #178, #904, #449, #791, #104, #807, #459, #529, #1065 ),
 .UNSPECIFIED., .F., .F.,
 ( 4, 2, 2, 2, 2, 2, 2, 2, 2, 2, 2, 2, 2, 2, 2, 2, 4 ),
 ( 0.000000000000000000, 0.0005864954124923788242, 0.001172990824984757648, 0.001759486237477136472, 0.002345981649969515297, 0.002932477062461894338, 0.003518972474954272945, 0.004105467887446651552, 0.004691963299939030593, 0.005278458712431409634, 0.005864954124923788675, 0.006451449537416167716, 0.007037944949908541553, 0.007624440362400916257, 0.008210935774893292696, 0.008797431187385670870, 0.009383926599878047309 ),
 .UNSPECIFIED. ) ;
#814 = LINE ( 'NONE', #2, #460 ) ;
#815 = CARTESIAN_POINT ( 'NONE',  ( 79.18629150101527614, 48.35685424949237188, 4.898587196589411843E-16 ) ) ;
#816 = ORIENTED_EDGE ( 'NONE', *, *, #858, .T. ) ;
#817 = AXIS2_PLACEMENT_3D ( 'NONE', #195, #273, #447 ) ;
#818 = DIRECTION ( 'NONE',  ( -0.4999999999999951705, 0.000000000000000000, 0.8660254037844415942 ) ) ;
#819 = CIRCLE ( 'NONE', #1087, 3.999999999999995559 ) ;
#820 = LINE ( 'NONE', #26, #88 ) ;
#821 = EDGE_LOOP ( 'NONE', ( #859, #347, #107, #433 ) ) ;
#822 = DIRECTION ( 'NONE',  ( 0.8660254037844415942, 0.000000000000000000, 0.4999999999999950040 ) ) ;
#823 = ORIENTED_EDGE ( 'NONE', *, *, #336, .T. ) ;
#824 = FACE_OUTER_BOUND ( 'NONE', #495, .T. ) ;
#825 = EDGE_CURVE ( 'NONE', #845, #1055, #496, .T. ) ;
#826 = CARTESIAN_POINT ( 'NONE',  ( 31.81194744117373574, 12.00000000000000000, 12.00000000000000000 ) ) ;
#827 = EDGE_CURVE ( 'NONE', #619, #947, #348, .T. ) ;
#828 = DIRECTION ( 'NONE',  ( 0.7071067811865462405, 0.7071067811865489050, 0.000000000000000000 ) ) ;
#829 = DIRECTION ( 'NONE',  ( -0.8660254037844379305, 0.000000000000000000, 0.5000000000000011102 ) ) ;
#830 = ORIENTED_EDGE ( 'NONE', *, *, #320, .F. ) ;
#831 = VECTOR ( 'NONE', #889, 1000.000000000000000 ) ;
#832 = DIRECTION ( 'NONE',  ( 0.7071067811865490160, -0.7071067811865462405, 0.000000000000000000 ) ) ;
#833 = DIRECTION ( 'NONE',  ( -0.4999999999999951150, 0.000000000000000000, 0.8660254037844414832 ) ) ;
#834 = VERTEX_POINT ( 'NONE', #1019 ) ;
#835 = CIRCLE ( 'NONE', #848, 1.700000000000000844 ) ;
#836 = DIRECTION ( 'NONE',  ( 0.7071067811865489050, -0.7071067811865461294, -0.000000000000000000 ) ) ;
#837 = CARTESIAN_POINT ( 'NONE',  ( -23.22243186433519568, 6.000000000000000000, 40.22243186433553319 ) ) ;
#838 = ORIENTED_EDGE ( 'NONE', *, *, #489, .T. ) ;
#839 = CARTESIAN_POINT ( 'NONE',  ( -4.525365589504655715E-15, 0.000000000000000000, -11.99999999999998224 ) ) ;
#840 = CYLINDRICAL_SURFACE ( 'NONE', #793, 1.699999999999999289 ) ;
#841 = ORIENTED_EDGE ( 'NONE', *, *, #673, .T. ) ;
#842 = DIRECTION ( 'NONE',  ( 0.7071067811865463515, 0.7071067811865489050, 0.000000000000000000 ) ) ;
#843 = DIRECTION ( 'NONE',  ( 0.7071067811865463515, 0.7071067811865489050, 0.000000000000000000 ) ) ;
#844 = CARTESIAN_POINT ( 'NONE',  ( 15.49999999999989164, 6.000000000000000000, -26.84678751731775392 ) ) ;
#845 = VERTEX_POINT ( 'NONE', #1024 ) ;
#846 = DIRECTION ( 'NONE',  ( 0.4999999999999951705, -0.000000000000000000, -0.8660254037844413721 ) ) ;
#847 = VECTOR ( 'NONE', #869, 1000.000000000000000 ) ;
#848 = AXIS2_PLACEMENT_3D ( 'NONE', #750, #317, #1101 ) ;
#849 = DIRECTION ( 'NONE',  ( 1.000000000000000000, 0.000000000000000000, -3.351317181798273424E-15 ) ) ;
#850 = EDGE_CURVE ( 'NONE', #581, #409, #794, .T. ) ;
#851 = CARTESIAN_POINT ( 'NONE',  ( -15.49999999999989164, 6.000000000000000000, 26.84678751731776458 ) ) ;
#852 = VERTEX_POINT ( 'NONE', #932 ) ;
#853 = DIRECTION ( 'NONE',  ( 0.000000000000000000, 1.000000000000000000, -0.000000000000000000 ) ) ;
#854 = EDGE_CURVE ( 'NONE', #236, #283, #58, .T. ) ;
#855 = AXIS2_PLACEMENT_3D ( 'NONE', #295, #836, #843 ) ;
#856 = FACE_OUTER_BOUND ( 'NONE', #302, .T. ) ;
#857 = CARTESIAN_POINT ( 'NONE',  ( 89.68682720163549504, 49.17002704785691236, 0.000000000000000000 ) ) ;
#858 = EDGE_CURVE ( 'NONE', #947, #938, #141, .T. ) ;
#859 = ORIENTED_EDGE ( 'NONE', *, *, #223, .F. ) ;
#860 = CYLINDRICAL_SURFACE ( 'NONE', #35, 3.999999999999995559 ) ;
#861 = ORIENTED_EDGE ( 'NONE', *, *, #735, .T. ) ;
#862 = DIRECTION ( 'NONE',  ( -0.4999999999999951705, -0.000000000000000000, 0.8660254037844414832 ) ) ;
#863 = CARTESIAN_POINT ( 'NONE',  ( 14.33561801052260698, 5.804203025836606855, -30.83001875212501375 ) ) ;
#864 = ORIENTED_EDGE ( 'NONE', *, *, #543, .F. ) ;
#865 = CARTESIAN_POINT ( 'NONE',  ( -19.53177043322926565, 5.801679210774861595, 27.83001875212503151 ) ) ;
#866 = ORIENTED_EDGE ( 'NONE', *, *, #230, .T. ) ;
#867 = FACE_OUTER_BOUND ( 'NONE', #487, .T. ) ;
#868 = COLOUR_RGB ( '',0.7921568627450980005, 0.8196078431372548767, 0.9333333333333333481 ) ;
#869 = DIRECTION ( 'NONE',  ( 0.7071067811865489050, -0.7071067811865462405, -2.666597246405842514E-16 ) ) ;
#870 = ORIENTED_EDGE ( 'NONE', *, *, #519, .T. ) ;
#871 = LINE ( 'NONE', #451, #1118 ) ;
#872 = ADVANCED_FACE ( 'NONE', ( #666 ), #25, .F. ) ;
#873 = CARTESIAN_POINT ( 'NONE',  ( 13.00000000000016342, 12.00000000000000000, 22.51666049839527517 ) ) ;
#874 = FACE_OUTER_BOUND ( 'NONE', #188, .T. ) ;
#875 = EDGE_CURVE ( 'NONE', #56, #603, #887, .T. ) ;
#876 = VERTEX_POINT ( 'NONE', #1116 ) ;
#877 = CARTESIAN_POINT ( 'NONE',  ( -18.91915244845744226, 4.016575539322198019, 28.25039621133299761 ) ) ;
#878 = ORIENTED_EDGE ( 'NONE', *, *, #184, .F. ) ;
#879 = DIRECTION ( 'NONE',  ( 0.7071067811865463515, 0.7071067811865489050, 0.000000000000000000 ) ) ;
#880 = CARTESIAN_POINT ( 'NONE',  ( 19.02446770245457941, 7.829123768027983488, -28.17945255815113725 ) ) ;
#881 = ORIENTED_EDGE ( 'NONE', *, *, #991, .F. ) ;
#882 = DIRECTION ( 'NONE',  ( 0.7071067811865461294, 0.7071067811865489050, 0.000000000000000000 ) ) ;
#883 = VECTOR ( 'NONE', #985, 1000.000000000000000 ) ;
#884 = CARTESIAN_POINT ( 'NONE',  ( -16.15378590973120154, 8.845844130793109272, 29.91802410353736974 ) ) ;
#885 = EDGE_CURVE ( 'NONE', #1136, #16, #835, .T. ) ;
#886 = LINE ( 'NONE', #454, #1139 ) ;
#887 = CIRCLE ( 'NONE', #1030, 1.700000000000000844 ) ;
#888 = CARTESIAN_POINT ( 'NONE',  ( 15.49999999999989164, 6.000000000000000000, -26.84678751731775392 ) ) ;
#889 = DIRECTION ( 'NONE',  ( 0.8660254037844415942, 0.000000000000000000, 0.4999999999999950040 ) ) ;
#890 = ORIENTED_EDGE ( 'NONE', *, *, #891, .T. ) ;
#891 = EDGE_CURVE ( 'NONE', #1022, #216, #682, .T. ) ;
#892 = CYLINDRICAL_SURFACE ( 'NONE', #166, 1.699999999999996181 ) ;
#893 = CARTESIAN_POINT ( 'NONE',  ( 16.32169144477228429, 8.903888810604197346, -29.82682394994249364 ) ) ;
#894 = DIRECTION ( 'NONE',  ( 0.8660254037844408170, 0.000000000000000000, 0.4999999999999960587 ) ) ;
#895 = DIRECTION ( 'NONE',  ( 0.4999999999999951705, -0.000000000000000000, -0.8660254037844413721 ) ) ;
#896 = EDGE_CURVE ( 'NONE', #927, #508, #292, .T. ) ;
#897 = ORIENTED_EDGE ( 'NONE', *, *, #1096, .T. ) ;
#898 = CARTESIAN_POINT ( 'NONE',  ( -15.83334224343106733, 8.695082970149160317, 30.08883910820846097 ) ) ;
#899 = CARTESIAN_POINT ( 'NONE',  ( 18.91915244845743516, 7.983424460677799317, -28.25039621133300471 ) ) ;
#900 = ORIENTED_EDGE ( 'NONE', *, *, #1092, .F. ) ;
#901 = DIRECTION ( 'NONE',  ( 0.5000000000000012212, -0.000000000000000000, 0.8660254037844380415 ) ) ;
#902 = ORIENTED_EDGE ( 'NONE', *, *, #290, .F. ) ;
#903 = CARTESIAN_POINT ( 'NONE',  ( -17.66671650312581576, 8.904848440174884416, 29.05036849087060347 ) ) ;
#904 = CARTESIAN_POINT ( 'NONE',  ( 14.89261358721223694, 7.830105626946981090, -30.56504413528807973 ) ) ;
#905 = CIRCLE ( 'NONE', #703, 12.00000000000000178 ) ;
#906 = EDGE_LOOP ( 'NONE', ( #359, #135, #231, #900, #1045, #746 ) ) ;
#907 = CARTESIAN_POINT ( 'NONE',  ( -13.00000000000001599, 12.00000000000000000, -22.51666049839536754 ) ) ;
#908 = ORIENTED_EDGE ( 'NONE', *, *, #1127, .T. ) ;
#909 = DIRECTION ( 'NONE',  ( 0.8660254037844415942, 0.000000000000000000, 0.4999999999999949485 ) ) ;
#910 = CARTESIAN_POINT ( 'NONE',  ( -25.99999999999992539, 12.00000000000000000, 15.01110699893038003 ) ) ;
#911 = AXIS2_PLACEMENT_3D ( 'NONE', #503, #151, #955 ) ;
#912 = CARTESIAN_POINT ( 'NONE',  ( 18.09807621135320232, 6.000000000000000000, -25.34678751731777524 ) ) ;
#913 = DIRECTION ( 'NONE',  ( 3.351317181798273819E-15, 0.000000000000000000, 1.000000000000000000 ) ) ;
#914 = ORIENTED_EDGE ( 'NONE', *, *, #20, .T. ) ;
#915 = DIRECTION ( 'NONE',  ( 0.8660254037844417052, 0.000000000000000000, 0.4999999999999947264 ) ) ;
#916 = FACE_BOUND ( 'NONE', #98, .T. ) ;
#917 = ORIENTED_EDGE ( 'NONE', *, *, #686, .F. ) ;
#918 = DIRECTION ( 'NONE',  ( 0.7071067811865457964, 0.7071067811865492381, 0.000000000000000000 ) ) ;
#919 = DIRECTION ( 'NONE',  ( 0.7071067811865489050, -0.7071067811865462405, 0.000000000000000000 ) ) ;
#920 =( NAMED_UNIT ( * ) SI_UNIT ( $, .STERADIAN. ) SOLID_ANGLE_UNIT ( ) );
#921 = ORIENTED_EDGE ( 'NONE', *, *, #389, .T. ) ;
#922 =( GEOMETRIC_REPRESENTATION_CONTEXT ( 3 ) GLOBAL_UNCERTAINTY_ASSIGNED_CONTEXT ( ( #1059 ) ) GLOBAL_UNIT_ASSIGNED_CONTEXT ( ( #1117, #767, #326 ) ) REPRESENTATION_CONTEXT ( 'NONE', 'WORKASPACE' ) );
#923 = EDGE_CURVE ( 'NONE', #343, #154, #1137, .T. ) ;
#924 = LINE ( 'NONE', #481, #443 ) ;
#925 = DIRECTION ( 'NONE',  ( 0.4999999999999951705, -0.000000000000000000, -0.8660254037844415942 ) ) ;
#926 = CARTESIAN_POINT ( 'NONE',  ( 93.32842712474622715, 45.52842712474621578, -12.00000000000000000 ) ) ;
#927 = VERTEX_POINT ( 'NONE', #1044 ) ;
#928 = CARTESIAN_POINT ( 'NONE',  ( 90.50000000000005684, 42.70000000000001705, 0.000000000000000000 ) ) ;
#929 = DIRECTION ( 'NONE',  ( -0.8660254037844345998, 0.000000000000000000, 0.5000000000000067724 ) ) ;
#930 = CYLINDRICAL_SURFACE ( 'NONE', #998, 34.00000000000000000 ) ;
#931 = EDGE_LOOP ( 'NONE', ( #717, #11, #147, #199, #45, #665 ) ) ;
#932 = CARTESIAN_POINT ( 'NONE',  ( 93.32842712474619873, 62.49898987322335842, 0.000000000000000000 ) ) ;
#933 = ADVANCED_FACE ( 'NONE', ( #339 ), #860, .F. ) ;
#934 = CARTESIAN_POINT ( 'NONE',  ( -4.525365589504655715E-15, 12.00000000000000000, -11.99999999999998224 ) ) ;
#935 = VECTOR ( 'NONE', #358, 1000.000000000000000 ) ;
#936 = CARTESIAN_POINT ( 'NONE',  ( 16.82640247592963334, 3.000156211740922618, -29.54507439024184379 ) ) ;
#937 = ADVANCED_FACE ( 'NONE', ( #434, #507 ), #1121, .T. ) ;
#938 = VERTEX_POINT ( 'NONE', #352 ) ;
#939 = CARTESIAN_POINT ( 'NONE',  ( 25.99999999999997513, 12.00000000000000000, -2.734212569701622310E-13 ) ) ;
#940 = AXIS2_PLACEMENT_3D ( 'NONE', #1071, #368, #1060 ) ;
#941 = CIRCLE ( 'NONE', #651, 12.00000000000000178 ) ;
#942 = AXIS2_PLACEMENT_3D ( 'NONE', #46, #765, #312 ) ;
#943 = EDGE_CURVE ( 'NONE', #452, #16, #87, .T. ) ;
#944 = DIRECTION ( 'NONE',  ( 0.7071067811865463515, 0.7071067811865489050, 0.000000000000000000 ) ) ;
#945 = PRODUCT ( 'Arm1', 'Arm1', '', ( #215 ) ) ;
#946 = CARTESIAN_POINT ( 'NONE',  ( 17.82916065483166790, 3.152658069547176201, -28.95089135808241210 ) ) ;
#947 = VERTEX_POINT ( 'NONE', #329 ) ;
#948 = CARTESIAN_POINT ( 'NONE',  ( -18.28572954434252651, 3.396526267756925677, 28.66459575718945274 ) ) ;
#949 = VECTOR ( 'NONE', #47, 1000.000000000000000 ) ;
#950 = ORIENTED_EDGE ( 'NONE', *, *, #659, .F. ) ;
#951 = DIRECTION ( 'NONE',  ( -1.000000000000000000, 0.000000000000000000, 3.771137991253884693E-16 ) ) ;
#952 = CARTESIAN_POINT ( 'NONE',  ( 18.55785621464872293, 3.612430779163943839, -28.48916658575731375 ) ) ;
#953 = ORIENTED_EDGE ( 'NONE', *, *, #265, .T. ) ;
#954 = CARTESIAN_POINT ( 'NONE',  ( -18.68817050569679594, 3.739980517954303973, 28.40372332310106884 ) ) ;
#955 = DIRECTION ( 'NONE',  ( 0.000000000000000000, 0.000000000000000000, 1.000000000000000000 ) ) ;
#956 = LINE ( 'NONE', #163, #847 ) ;
#957 = EDGE_LOOP ( 'NONE', ( #861, #156 ) ) ;
#958 = CARTESIAN_POINT ( 'NONE',  ( 84.84314575050764518, 54.01370849898476223, -1.464828626395493079E-14 ) ) ;
#959 = EDGE_CURVE ( 'NONE', #927, #834, #699, .T. ) ;
#960 = EDGE_CURVE ( 'NONE', #852, #671, #585, .T. ) ;
#961 = CARTESIAN_POINT ( 'NONE',  ( 0.000000000000000000, 12.00000000000000000, -34.00000000000000000 ) ) ;
#962 = CARTESIAN_POINT ( 'NONE',  ( -25.99999999999997868, 0.000000000000000000, 8.713424672675504356E-14 ) ) ;
#963 = ORIENTED_EDGE ( 'NONE', *, *, #223, .T. ) ;
#964 = CARTESIAN_POINT ( 'NONE',  ( -14.47487274255693812, 5.033585582119568969, 30.76497624242117013 ) ) ;
#965 = AXIS2_PLACEMENT_3D ( 'NONE', #888, #980, #186 ) ;
#966 = ORIENTED_EDGE ( 'NONE', *, *, #289, .T. ) ;
#967 = DIRECTION ( 'NONE',  ( 0.7071067811865463515, 0.7071067811865489050, 0.000000000000000000 ) ) ;
#968 = DIRECTION ( 'NONE',  ( -0.000000000000000000, -1.000000000000000000, -0.000000000000000000 ) ) ;
#969 = EDGE_LOOP ( 'NONE', ( #559, #734 ) ) ;
#970 = CARTESIAN_POINT ( 'NONE',  ( -14.89261358721224582, 4.169894373053016245, 30.56504413528806552 ) ) ;
#971 = CARTESIAN_POINT ( 'NONE',  ( -14.33561801052261231, 6.195796974163391369, 30.83001875212500664 ) ) ;
#972 = CARTESIAN_POINT ( 'NONE',  ( 15.68071675289122524, 8.602891498393182346, -30.16855299321281336 ) ) ;
#973 = DIRECTION ( 'NONE',  ( 0.7071067811865489050, -0.7071067811865462405, 0.000000000000000000 ) ) ;
#974 = CARTESIAN_POINT ( 'NONE',  ( 0.000000000000000000, 0.000000000000000000, 12.00000000000000000 ) ) ;
#975 = VECTOR ( 'NONE', #263, 1000.000000000000114 ) ;
#976 = ORIENTED_EDGE ( 'NONE', *, *, #408, .F. ) ;
#977 = CARTESIAN_POINT ( 'NONE',  ( -19.02159615070241827, 7.833736856265633541, 28.18139423924746723 ) ) ;
#978 = EDGE_CURVE ( 'NONE', #77, #179, #3, .T. ) ;
#979 = DIRECTION ( 'NONE',  ( -1.051620219116009685E-14, 0.000000000000000000, -1.000000000000000000 ) ) ;
#980 = DIRECTION ( 'NONE',  ( 0.4999999999999951705, -0.000000000000000000, -0.8660254037844415942 ) ) ;
#981 = LINE ( 'NONE', #907, #378 ) ;
#982 = ORIENTED_EDGE ( 'NONE', *, *, #208, .T. ) ;
#983 = CARTESIAN_POINT ( 'NONE',  ( 12.99999999999991473, 12.00000000000000000, -22.51666049839554873 ) ) ;
#984 = ORIENTED_EDGE ( 'NONE', *, *, #683, .T. ) ;
#985 = DIRECTION ( 'NONE',  ( 1.000000000000000000, -0.000000000000000000, 0.000000000000000000 ) ) ;
#986 = VERTEX_POINT ( 'NONE', #1129 ) ;
#987 = CARTESIAN_POINT ( 'NONE',  ( -20.62435565298187612, 6.000000000000000000, 41.72243186433551898 ) ) ;
#988 = CARTESIAN_POINT ( 'NONE',  ( 18.56170198091097134, 8.384168043575852991, -28.48666660849900012 ) ) ;
#989 = PLANE ( 'NONE',  #669 ) ;
#990 = CARTESIAN_POINT ( 'NONE',  ( 86.85840007688932474, 46.34159992311072784, 0.000000000000000000 ) ) ;
#991 = EDGE_CURVE ( 'NONE', #179, #1067, #871, .T. ) ;
#992 = ORIENTED_EDGE ( 'NONE', *, *, #740, .T. ) ;
#993 = CARTESIAN_POINT ( 'NONE',  ( 84.84314575050763096, 54.01370849898475512, 0.000000000000000000 ) ) ;
#994 = CARTESIAN_POINT ( 'NONE',  ( 86.85840007688932474, 46.34159992311072784, 0.000000000000000000 ) ) ;
#995 = CIRCLE ( 'NONE', #1084, 34.00000000000000000 ) ;
#996 = FACE_OUTER_BOUND ( 'NONE', #755, .T. ) ;
#997 = DIRECTION ( 'NONE',  ( -1.000000000000000000, 0.000000000000000000, -0.000000000000000000 ) ) ;
#998 = AXIS2_PLACEMENT_3D ( 'NONE', #753, #390, #1085 ) ;
#999 = CIRCLE ( 'NONE', #1088, 8.000000000000005329 ) ;
#1000 = ORIENTED_EDGE ( 'NONE', *, *, #618, .T. ) ;
#1001 = DIRECTION ( 'NONE',  ( 0.7071067811865487940, -0.7071067811865462405, 5.551115123125781470E-17 ) ) ;
#1002 = VECTOR ( 'NONE', #1091, 1000.000000000000000 ) ;
#1003 = FACE_BOUND ( 'NONE', #760, .T. ) ;
#1004 = ORIENTED_EDGE ( 'NONE', *, *, #184, .T. ) ;
#1005 = EDGE_CURVE ( 'NONE', #638, #845, #550, .T. ) ;
#1006 = EDGE_CURVE ( 'NONE', #575, #480, #22, .T. ) ;
#1007 = CARTESIAN_POINT ( 'NONE',  ( -15.49999999999989519, 6.000000000000000000, 26.84678751731776103 ) ) ;
#1008 = CIRCLE ( 'NONE', #212, 12.00000000000000178 ) ;
#1009 = LINE ( 'NONE', #214, #1141 ) ;
#1010 = EDGE_CURVE ( 'NONE', #511, #1022, #370, .T. ) ;
#1011 = ORIENTED_EDGE ( 'NONE', *, *, #896, .F. ) ;
#1012 = DIRECTION ( 'NONE',  ( 0.7071067811865489050, -0.7071067811865462405, 0.000000000000000000 ) ) ;
#1013 = DIRECTION ( 'NONE',  ( 0.7071067811865460184, 0.7071067811865490160, 1.776356839400250859E-15 ) ) ;
#1014 = ORIENTED_EDGE ( 'NONE', *, *, #827, .F. ) ;
#1015 = CARTESIAN_POINT ( 'NONE',  ( 15.49999999999989342, 6.000000000000000000, -26.84678751731776103 ) ) ;
#1016 = CARTESIAN_POINT ( 'NONE',  ( 4.163799117101000559E-15, 0.000000000000000000, 34.00000000000000000 ) ) ;
#1017 = DIRECTION ( 'NONE',  ( -0.8660254037844420383, 0.000000000000000000, -0.4999999999999941158 ) ) ;
#1018 = ORIENTED_EDGE ( 'NONE', *, *, #438, .F. ) ;
#1019 = CARTESIAN_POINT ( 'NONE',  ( -18.09807621135322364, 6.000000000000000000, 25.34678751731777524 ) ) ;
#1020 = CARTESIAN_POINT ( 'NONE',  ( 0.000000000000000000, 12.00000000000000000, 0.000000000000000000 ) ) ;
#1021 = CARTESIAN_POINT ( 'NONE',  ( 84.84314575050765939, 54.01370849898476223, 0.000000000000000000 ) ) ;
#1022 = VERTEX_POINT ( 'NONE', #727 ) ;
#1023 = EDGE_CURVE ( 'NONE', #845, #636, #463, .T. ) ;
#1024 = CARTESIAN_POINT ( 'NONE',  ( 47.80000000000016058, 0.000000000000000000, 12.00000000000000000 ) ) ;
#1025 = AXIS2_PLACEMENT_3D ( 'NONE', #647, #112, #822 ) ;
#1026 = DIRECTION ( 'NONE',  ( -0.4999999999999951705, 0.000000000000000000, 0.8660254037844415942 ) ) ;
#1027 = VERTEX_POINT ( 'NONE', #277 ) ;
#1028 = DIRECTION ( 'NONE',  ( 0.7071067811865490160, -0.7071067811865462405, 0.000000000000000000 ) ) ;
#1029 = AXIS2_PLACEMENT_3D ( 'NONE', #1094, #301, #661 ) ;
#1030 = AXIS2_PLACEMENT_3D ( 'NONE', #284, #644, #1110 ) ;
#1031 = CARTESIAN_POINT ( 'NONE',  ( 42.77393520043438713, 6.000000000000000000, -68.08662900681213159 ) ) ;
#1032 = CARTESIAN_POINT ( 'NONE',  ( 15.83334224343105667, 3.304917029850842791, -30.08883910820846808 ) ) ;
#1033 = VERTEX_POINT ( 'NONE', #733 ) ;
#1034 = CARTESIAN_POINT ( 'NONE',  ( -15.25578643989683236, 3.738276586653022537, 30.38553405542432984 ) ) ;
#1035 = ORIENTED_EDGE ( 'NONE', *, *, #1037, .T. ) ;
#1036 = DIRECTION ( 'NONE',  ( -3.771137991253884693E-16, 0.000000000000000000, -1.000000000000000000 ) ) ;
#1037 = EDGE_CURVE ( 'NONE', #429, #575, #193, .T. ) ;
#1038 = CARTESIAN_POINT ( 'NONE',  ( 19.28075975873277415, 4.668314954653936866, -28.00460606385461304 ) ) ;
#1039 = ORIENTED_EDGE ( 'NONE', *, *, #521, .F. ) ;
#1040 = CARTESIAN_POINT ( 'NONE',  ( -19.51577770642060372, 5.606692242616925448, 27.84126229216040116 ) ) ;
#1041 = FILL_AREA_STYLE ('',( #490 ) ) ;
#1042 = CARTESIAN_POINT ( 'NONE',  ( 19.53177043322925499, 6.000000000000000000, -27.83001875212504572 ) ) ;
#1043 = ORIENTED_EDGE ( 'NONE', *, *, #740, .F. ) ;
#1044 = CARTESIAN_POINT ( 'NONE',  ( -19.53177043322926210, 6.000000000000000000, 27.83001875212503862 ) ) ;
#1045 = ORIENTED_EDGE ( 'NONE', *, *, #1122, .F. ) ;
#1046 = AXIS2_PLACEMENT_3D ( 'NONE', #785, #1026, #1049 ) ;
#1047 = CARTESIAN_POINT ( 'NONE',  ( -17.82916065483167856, 8.847341930452824244, 28.95089135808240854 ) ) ;
#1048 = VECTOR ( 'NONE', #234, 1000.000000000000000 ) ;
#1049 = DIRECTION ( 'NONE',  ( 0.8660254037844415942, 0.000000000000000000, 0.4999999999999949485 ) ) ;
#1050 = EDGE_LOOP ( 'NONE', ( #192, #502, #816, #256 ) ) ;
#1051 = CARTESIAN_POINT ( 'NONE',  ( -14.42329472528661150, 5.220617359926198020, 30.78912231655996479 ) ) ;
#1052 = ADVANCED_FACE ( 'NONE', ( #468 ), #1062, .T. ) ;
#1053 = CARTESIAN_POINT ( 'NONE',  ( 42.82943725152305348, 12.00000000000000000, 0.000000000000000000 ) ) ;
#1054 = CARTESIAN_POINT ( 'NONE',  ( 19.40551229318868920, 6.967485707302584430, -27.91830589678409069 ) ) ;
#1055 = VERTEX_POINT ( 'NONE', #1068 ) ;
#1056 = DIRECTION ( 'NONE',  ( 0.7071067811865489050, -0.7071067811865461294, 0.000000000000000000 ) ) ;
#1057 = ORIENTED_EDGE ( 'NONE', *, *, #673, .F. ) ;
#1058 = EDGE_CURVE ( 'NONE', #1022, #532, #981, .T. ) ;
#1059 = UNCERTAINTY_MEASURE_WITH_UNIT (LENGTH_MEASURE( 1.000000000000000082E-05 ), #1117, 'distance_accuracy_value', 'NONE');
#1060 = DIRECTION ( 'NONE',  ( 0.000000000000000000, 0.000000000000000000, 1.000000000000000000 ) ) ;
#1061 = ORIENTED_EDGE ( 'NONE', *, *, #598, .T. ) ;
#1062 = PLANE ( 'NONE',  #233 ) ;
#1063 = ORIENTED_EDGE ( 'NONE', *, *, #875, .T. ) ;
#1064 = CARTESIAN_POINT ( 'NONE',  ( 19.53177043322925499, 6.000000000000000000, -27.83001875212504572 ) ) ;
#1065 = CARTESIAN_POINT ( 'NONE',  ( 14.33561801052260698, 6.000000000000000000, -30.83001875212501730 ) ) ;
#1066 = CIRCLE ( 'NONE', #572, 8.000000000000005329 ) ;
#1067 = VERTEX_POINT ( 'NONE', #531 ) ;
#1068 = CARTESIAN_POINT ( 'NONE',  ( 47.80000000000018900, -6.938893903907228378E-15, -12.00000000000000000 ) ) ;
#1069 = ORIENTED_EDGE ( 'NONE', *, *, #1006, .T. ) ;
#1070 = CARTESIAN_POINT ( 'NONE',  ( -17.33787198336409929, 8.980810701358732828, 29.24782003065637426 ) ) ;
#1071 = CARTESIAN_POINT ( 'NONE',  ( 0.000000000000000000, 12.00000000000000000, 0.000000000000000000 ) ) ;
#1072 = EDGE_LOOP ( 'NONE', ( #982, #437, #630, #1057, #1069 ) ) ;
#1073 = CARTESIAN_POINT ( 'NONE',  ( 25.99999999999981881, 0.000000000000000000, -15.01110699893056655 ) ) ;
#1074 = ORIENTED_EDGE ( 'NONE', *, *, #1096, .F. ) ;
#1075 = ADVANCED_FACE ( 'NONE', ( #542 ), #32, .F. ) ;
#1076 = CARTESIAN_POINT ( 'NONE',  ( 38.70361580264751922, 6.000000000000000000, -70.43662900681209749 ) ) ;
#1077 = PLANE ( 'NONE',  #252 ) ;
#1078 = ORIENTED_EDGE ( 'NONE', *, *, #240, .T. ) ;
#1079 = CARTESIAN_POINT ( 'NONE',  ( -13.00000000000001599, 12.00000000000000000, -22.51666049839536754 ) ) ;
#1080 = VERTEX_POINT ( 'NONE', #1073 ) ;
#1081 = AXIS2_PLACEMENT_3D ( 'NONE', #958, #161, #518 ) ;
#1082 = ADVANCED_BREP_SHAPE_REPRESENTATION ( 'Arm1', ( #656, #622 ), #469 ) ;
#1083 = LINE ( 'NONE', #744, #558 ) ;
#1084 = AXIS2_PLACEMENT_3D ( 'NONE', #173, #1, #350 ) ;
#1085 = DIRECTION ( 'NONE',  ( 0.000000000000000000, 0.000000000000000000, -1.000000000000000000 ) ) ;
#1086 = DIRECTION ( 'NONE',  ( -0.000000000000000000, -1.000000000000000000, -0.000000000000000000 ) ) ;
#1087 = AXIS2_PLACEMENT_3D ( 'NONE', #556, #579, #123 ) ;
#1088 = AXIS2_PLACEMENT_3D ( 'NONE', #928, #1028, #842 ) ;
#1089 = VERTEX_POINT ( 'NONE', #815 ) ;
#1090 = ADVANCED_FACE ( 'NONE', ( #722, #288 ), #625, .F. ) ;
#1091 = DIRECTION ( 'NONE',  ( 0.4999999999999951705, -0.000000000000000000, -0.8660254037844414832 ) ) ;
#1092 = EDGE_CURVE ( 'NONE', #538, #77, #180, .T. ) ;
#1093 = CIRCLE ( 'NONE', #708, 1.700000000000000844 ) ;
#1094 = CARTESIAN_POINT ( 'NONE',  ( 0.000000000000000000, 0.000000000000000000, 0.000000000000000000 ) ) ;
#1095 = ORIENTED_EDGE ( 'NONE', *, *, #1023, .T. ) ;
#1096 = EDGE_CURVE ( 'NONE', #101, #179, #271, .T. ) ;
#1097 = CARTESIAN_POINT ( 'NONE',  ( 12.99999999999992006, 6.000000000000000000, -22.51666049839555939 ) ) ;
#1098 = FACE_OUTER_BOUND ( 'NONE', #931, .T. ) ;
#1099 = CARTESIAN_POINT ( 'NONE',  ( 93.32842712474624136, 45.52842712474620868, -1.784820295964194181E-14 ) ) ;
#1100 = ORIENTED_EDGE ( 'NONE', *, *, #1023, .F. ) ;
#1101 = DIRECTION ( 'NONE',  ( 0.8660254037844412611, 0.000000000000000000, 0.4999999999999956701 ) ) ;
#1102 = CYLINDRICAL_SURFACE ( 'NONE', #95, 1.699999999999999289 ) ;
#1103 = FACE_OUTER_BOUND ( 'NONE', #1072, .T. ) ;
#1104 = ORIENTED_EDGE ( 'NONE', *, *, #235, .T. ) ;
#1105 = DIRECTION ( 'NONE',  ( -2.891205793294678326E-16, 0.000000000000000000, -1.000000000000000000 ) ) ;
#1106 = DIRECTION ( 'NONE',  ( -0.000000000000000000, -1.000000000000000000, -0.000000000000000000 ) ) ;
#1107 = EDGE_CURVE ( 'NONE', #283, #612, #325, .T. ) ;
#1108 = CYLINDRICAL_SURFACE ( 'NONE', #237, 3.999999999999995559 ) ;
#1109 = VERTEX_POINT ( 'NONE', #28 ) ;
#1110 = DIRECTION ( 'NONE',  ( 0.8660254037844412611, 0.000000000000000000, 0.4999999999999956701 ) ) ;
#1111 = ADVANCED_FACE ( 'NONE', ( #537 ), #375, .F. ) ;
#1112 = FACE_OUTER_BOUND ( 'NONE', #298, .T. ) ;
#1113 = CARTESIAN_POINT ( 'NONE',  ( 14.42275429877535053, 5.222538801355725013, -30.78937550745138552 ) ) ;
#1114 = VECTOR ( 'NONE', #1086, 1000.000000000000000 ) ;
#1115 = EDGE_LOOP ( 'NONE', ( #21, #878, #464, #890 ) ) ;
#1116 = CARTESIAN_POINT ( 'NONE',  ( 101.8137084989847949, 54.01370849898480486, 0.000000000000000000 ) ) ;
#1117 =( LENGTH_UNIT ( ) NAMED_UNIT ( * ) SI_UNIT ( .MILLI., .METRE. ) );
#1118 = VECTOR ( 'NONE', #809, 999.9999999999998863 ) ;
#1119 = CARTESIAN_POINT ( 'NONE',  ( 15.25243229581316307, 3.741779651403110307, -30.38720909731845765 ) ) ;
#1120 = ORIENTED_EDGE ( 'NONE', *, *, #547, .F. ) ;
#1121 = PLANE ( 'NONE',  #788 ) ;
#1122 = EDGE_CURVE ( 'NONE', #532, #538, #205, .T. ) ;
#1123 = ORIENTED_EDGE ( 'NONE', *, *, #230, .F. ) ;
#1124 = AXIS2_PLACEMENT_3D ( 'NONE', #718, #621, #967 ) ;
#1125 = CYLINDRICAL_SURFACE ( 'NONE', #799, 34.00000000000000000 ) ;
#1126 = CARTESIAN_POINT ( 'NONE',  ( -4.525365589504655715E-15, 12.00000000000000000, -11.99999999999998224 ) ) ;
#1127 = EDGE_CURVE ( 'NONE', #357, #1067, #118, .T. ) ;
#1128 = EDGE_LOOP ( 'NONE', ( #395, #830, #695, #291 ) ) ;
#1129 = CARTESIAN_POINT ( 'NONE',  ( 31.81194744117373574, 12.00000000000000000, -11.99999999999999467 ) ) ;
#1130 = CARTESIAN_POINT ( 'NONE',  ( 81.20154582739695570, 40.68474567361833749, 9.797174393178833546E-16 ) ) ;
#1131 = CARTESIAN_POINT ( 'NONE',  ( 18.28348145673909286, 3.395092625746532367, -28.66602424222245560 ) ) ;
#1132 = VERTEX_POINT ( 'NONE', #926 ) ;
#1133 = CARTESIAN_POINT ( 'NONE',  ( -14.33561801052261586, 6.000000000000000000, 30.83001875212501375 ) ) ;
#1134 = CARTESIAN_POINT ( 'NONE',  ( -14.89270623378762792, 7.830442615224480818, 30.56500250296363319 ) ) ;
#1135 = LINE ( 'NONE', #592, #201 ) ;
#1136 = VERTEX_POINT ( 'NONE', #655 ) ;
#1137 = LINE ( 'NONE', #344, #473 ) ;
#1138 = EDGE_CURVE ( 'NONE', #1132, #876, #1008, .T. ) ;
#1139 = VECTOR ( 'NONE', #979, 1000.000000000000000 ) ;
#1140 = CARTESIAN_POINT ( 'NONE',  ( -18.13787072469656891, 8.696940440657472848, 28.75848962754274751 ) ) ;
#1141 = VECTOR ( 'NONE', #210, 1000.000000000000000 ) ;
#1142 = AXIS2_PLACEMENT_3D ( 'NONE', #410, #232, #677 ) ;
ENDSEC;
END-ISO-10303-21;
