ISO-10303-21;
HEADER;
FILE_DESCRIPTION (( 'STEP AP214' ),
    '1' );
FILE_NAME ('Arm2.STEP',
    '2026-01-29T14:41:01',
    ( '' ),
    ( '' ),
    'SwSTEP 2.0',
    'SolidWorks 2025',
    '' );
FILE_SCHEMA (( 'AUTOMOTIVE_DESIGN' ));
ENDSEC;

DATA;
#1 = ORIENTED_EDGE ( 'NONE', *, *, #850, .F. ) ;
#2 = DIRECTION ( 'NONE',  ( -1.000000000000000000, 0.000000000000000000, 4.095874873834121014E-16 ) ) ;
#3 = CARTESIAN_POINT ( 'NONE',  ( -9.900875102727820121, 5.220324232081303251, 22.95591793114681067 ) ) ;
#4 = EDGE_CURVE ( 'NONE', #618, #1009, #653, .T. ) ;
#5 = CARTESIAN_POINT ( 'NONE',  ( 18.44999999999998153, 0.000000000000000000, -10.65211246654861377 ) ) ;
#6 = EDGE_CURVE ( 'NONE', #1068, #781, #1045, .T. ) ;
#7 = ORIENTED_EDGE ( 'NONE', *, *, #21, .F. ) ;
#8 = AXIS2_PLACEMENT_3D ( 'NONE', #378, #14, #568 ) ;
#9 = ORIENTED_EDGE ( 'NONE', *, *, #92, .T. ) ;
#10 = AXIS2_PLACEMENT_3D ( 'NONE', #630, #797, #973 ) ;
#11 = CARTESIAN_POINT ( 'NONE',  ( 12.15627636999895422, 3.019765198043024679, -21.84632080287949307 ) ) ;
#12 = DIRECTION ( 'NONE',  ( 0.7071067811865489050, -0.7071067811865462405, -1.703659351870416017E-17 ) ) ;
#13 = EDGE_CURVE ( 'NONE', #292, #231, #906, .T. ) ;
#14 = DIRECTION ( 'NONE',  ( -0.7071067811865489050, 0.7071067811865462405, 2.896220898179707691E-16 ) ) ;
#15 = ORIENTED_EDGE ( 'NONE', *, *, #777, .T. ) ;
#16 = PLANE ( 'NONE',  #951 ) ;
#17 = CARTESIAN_POINT ( 'NONE',  ( -12.33133009322193629, 2.999928421062805661, 21.74802662896129135 ) ) ;
#18 = CARTESIAN_POINT ( 'NONE',  ( 61.00000000000011369, -6.938893903907228378E-15, -12.00000000000000178 ) ) ;
#19 = DIRECTION ( 'NONE',  ( -0.4999999999999998890, -0.000000000000000000, 0.8660254037844388186 ) ) ;
#20 = VECTOR ( 'NONE', #12, 1000.000000000000000 ) ;
#21 = EDGE_CURVE ( 'NONE', #1146, #238, #890, .T. ) ;
#22 = ORIENTED_EDGE ( 'NONE', *, *, #52, .F. ) ;
#23 = CARTESIAN_POINT ( 'NONE',  ( -10.37759244530201919, 4.169779059267541221, 22.74461451702191539 ) ) ;
#24 = DIRECTION ( 'NONE',  ( 0.7071067811865457964, 0.7071067811865492381, 0.000000000000000000 ) ) ;
#25 = DIRECTION ( 'NONE',  ( 1.445602896647344340E-16, 0.000000000000000000, -1.000000000000000000 ) ) ;
#26 = VERTEX_POINT ( 'NONE', #632 ) ;
#27 = CARTESIAN_POINT ( 'NONE',  ( 14.40473510873870744, 4.015348929967647251, -20.43337651302833180 ) ) ;
#28 = STYLED_ITEM ( 'NONE', ( #588 ), #996 ) ;
#29 = DIRECTION ( 'NONE',  ( 0.7071067811865463515, 0.7071067811865487940, 0.000000000000000000 ) ) ;
#30 = CARTESIAN_POINT ( 'NONE',  ( -4.915049848600936342E-15, 12.00000000000000000, -11.99999999999997691 ) ) ;
#31 = ORIENTED_EDGE ( 'NONE', *, *, #92, .F. ) ;
#32 = CARTESIAN_POINT ( 'NONE',  ( -11.72500000000000497, 6.000000000000000000, 20.30829571874509654 ) ) ;
#33 = DIRECTION ( 'NONE',  ( -0.4999999999999998890, -8.326672684688671588E-17, 0.8660254037844388186 ) ) ;
#34 = CIRCLE ( 'NONE', #679, 1.700000000000001288 ) ;
#35 = CARTESIAN_POINT ( 'NONE',  ( 11.72499999999999609, 6.000000000000000000, -20.30829571874509654 ) ) ;
#36 = ORIENTED_EDGE ( 'NONE', *, *, #668, .T. ) ;
#37 = CARTESIAN_POINT ( 'NONE',  ( 14.76130376310615056, 4.668035572730623528, -20.17695723308834488 ) ) ;
#38 = CYLINDRICAL_SURFACE ( 'NONE', #963, 2.999999999999999556 ) ;
#39 = EDGE_CURVE ( 'NONE', #26, #512, #397, .T. ) ;
#40 = CARTESIAN_POINT ( 'NONE',  ( 81.20154582739689886, 27.48474567361830267, 3.326077568101406990E-16 ) ) ;
#41 = ORIENTED_EDGE ( 'NONE', *, *, #208, .F. ) ;
#42 = CARTESIAN_POINT ( 'NONE',  ( 18.44999999999998153, 12.00000000000000000, -10.65211246654861377 ) ) ;
#43 = CIRCLE ( 'NONE', #838, 25.00000000000000000 ) ;
#44 = DIRECTION ( 'NONE',  ( 0.7071067811865489050, -0.7071067811865462405, -1.703659351870416325E-17 ) ) ;
#45 = CARTESIAN_POINT ( 'NONE',  ( -10.09140553327721967, 7.328228975158229908, 22.87289206336541270 ) ) ;
#46 = ORIENTED_EDGE ( 'NONE', *, *, #39, .F. ) ;
#47 = DIRECTION ( 'NONE',  ( -1.000000000000000000, 0.000000000000000000, 3.257050620568364056E-16 ) ) ;
#48 = CARTESIAN_POINT ( 'NONE',  ( 93.32842712474617031, 32.32842712474615610, -12.00000000000000178 ) ) ;
#49 = CARTESIAN_POINT ( 'NONE',  ( -8.673617379884035472E-15, 0.000000000000000000, -21.30422493309719201 ) ) ;
#50 = CIRCLE ( 'NONE', #91, 1.699999999999999734 ) ;
#51 = ORIENTED_EDGE ( 'NONE', *, *, #789, .T. ) ;
#52 = EDGE_CURVE ( 'NONE', #204, #781, #213, .T. ) ;
#53 = VECTOR ( 'NONE', #136, 1000.000000000000000 ) ;
#54 = AXIS2_PLACEMENT_3D ( 'NONE', #76, #932, #687 ) ;
#55 = CARTESIAN_POINT ( 'NONE',  ( -10.69724318643354977, 6.000000000000000000, 15.12816869982290413 ) ) ;
#56 = CARTESIAN_POINT ( 'NONE',  ( 101.8137084989847239, 40.81370849898474518, -1.214306433183764966E-14 ) ) ;
#57 = DIRECTION ( 'NONE',  ( 0.5000000000000001110, -0.000000000000000000, -0.8660254037844385966 ) ) ;
#58 = DIRECTION ( 'NONE',  ( 0.000000000000000000, 0.000000000000000000, 1.000000000000000000 ) ) ;
#59 = DIRECTION ( 'NONE',  ( -0.4999999999999997780, -0.000000000000000000, 0.8660254037844388186 ) ) ;
#60 = EDGE_LOOP ( 'NONE', ( #178, #7, #796, #923 ) ) ;
#61 = DIRECTION ( 'NONE',  ( -0.8660254037844383745, 0.000000000000000000, -0.5000000000000005551 ) ) ;
#62 = EDGE_CURVE ( 'NONE', #814, #187, #43, .T. ) ;
#63 = DIRECTION ( 'NONE',  ( 0.000000000000000000, 0.000000000000000000, -1.000000000000000000 ) ) ;
#64 = CARTESIAN_POINT ( 'NONE',  ( 15.00774985734416944, 6.198409575079303124, -19.99418526020468079 ) ) ;
#65 = CARTESIAN_POINT ( 'NONE',  ( -9.224999999999997868, 0.000000000000000000, 15.97816869982289134 ) ) ;
#66 = AXIS2_PLACEMENT_3D ( 'NONE', #868, #765, #432 ) ;
#67 = ORIENTED_EDGE ( 'NONE', *, *, #336, .F. ) ;
#68 = DIRECTION ( 'NONE',  ( 0.7071067811865465735, 0.7071067811865483499, 0.000000000000000000 ) ) ;
#69 = CARTESIAN_POINT ( 'NONE',  ( 2.891205793294673889E-16, 0.000000000000000000, 12.00000000000000000 ) ) ;
#70 = CARTESIAN_POINT ( 'NONE',  ( 14.76174634991901868, 7.331053378642156559, -20.17663477850651788 ) ) ;
#71 = EDGE_CURVE ( 'NONE', #1057, #292, #111, .T. ) ;
#72 = FACE_OUTER_BOUND ( 'NONE', #702, .T. ) ;
#73 = B_SPLINE_CURVE_WITH_KNOTS ( 'NONE', 3,
 ( #942, #495, #763, #757, #1117, #45, #420, #749, #329, #489, #1102, #1037, #575, #677, #1111, #922, #768, #151, #1106, #926, #504, #316, #579, #139, #1124, #242, #842, #598, #948, #1130, #268, #248, #516, #1066 ),
 .UNSPECIFIED., .F., .F.,
 ( 4, 2, 2, 2, 2, 2, 2, 2, 2, 2, 2, 2, 2, 2, 2, 2, 4 ),
 ( 0.009387819050994301168, 0.009974417799784291924, 0.01056101654857428268, 0.01114761529736427344, 0.01173421404615426419, 0.01232081279494425669, 0.01290741154373424744, 0.01349401029252423820, 0.01408060904131422895, 0.01466720779010421971, 0.01525380653889421047, 0.01584040528768420122, 0.01642700403647419372, 0.01701360278526418274, 0.01760020153405417523, 0.01818680028284416772, 0.01877339903163415674 ),
 .UNSPECIFIED. ) ;
#74 = ORIENTED_EDGE ( 'NONE', *, *, #498, .F. ) ;
#75 = CARTESIAN_POINT ( 'NONE',  ( 96.15685424949235482, 35.15685424949236193, -7.348481391290673266E-16 ) ) ;
#76 = CARTESIAN_POINT ( 'NONE',  ( 22.01471862576158500, -22.01471862576150684, 4.613527956998875144E-15 ) ) ;
#77 = CIRCLE ( 'NONE', #372, 4.000000000000010658 ) ;
#78 = LINE ( 'NONE', #523, #334 ) ;
#79 = CARTESIAN_POINT ( 'NONE',  ( -14.68689345840859239, 4.496691889561305722, 20.23134037011497099 ) ) ;
#80 = ADVANCED_FACE ( 'NONE', ( #983 ), #893, .T. ) ;
#81 = ORIENTED_EDGE ( 'NONE', *, *, #262, .T. ) ;
#82 = CYLINDRICAL_SURFACE ( 'NONE', #795, 1.700000000000001288 ) ;
#83 = CARTESIAN_POINT ( 'NONE',  ( 9.811597434637537418, 6.000000000000000000, -22.99418526020468079 ) ) ;
#84 = ORIENTED_EDGE ( 'NONE', *, *, #347, .F. ) ;
#85 = AXIS2_PLACEMENT_3D ( 'NONE', #741, #302, #403 ) ;
#86 = ORIENTED_EDGE ( 'NONE', *, *, #684, .T. ) ;
#87 = DIRECTION ( 'NONE',  ( -0.4999999999999998890, -8.326672684688671588E-17, 0.8660254037844388186 ) ) ;
#88 = ORIENTED_EDGE ( 'NONE', *, *, #914, .T. ) ;
#89 = VERTEX_POINT ( 'NONE', #202 ) ;
#90 = ADVANCED_FACE ( 'NONE', ( #304, #462 ), #733, .T. ) ;
#91 = AXIS2_PLACEMENT_3D ( 'NONE', #164, #695, #711 ) ;
#92 = EDGE_CURVE ( 'NONE', #362, #1019, #602, .T. ) ;
#93 = DIRECTION ( 'NONE',  ( 0.5000000000000001110, -0.000000000000000000, -0.8660254037844385966 ) ) ;
#94 = AXIS2_PLACEMENT_3D ( 'NONE', #399, #748, #663 ) ;
#95 = EDGE_LOOP ( 'NONE', ( #1085, #430, #167, #166, #625 ) ) ;
#96 = ORIENTED_EDGE ( 'NONE', *, *, #716, .F. ) ;
#97 = CARTESIAN_POINT ( 'NONE',  ( 11.65128905574678875, 3.154184833827436307, -22.11968571569683562 ) ) ;
#98 = DIRECTION ( 'NONE',  ( 0.000000000000000000, 0.000000000000000000, 1.000000000000000000 ) ) ;
#99 = ORIENTED_EDGE ( 'NONE', *, *, #585, .T. ) ;
#100 = VECTOR ( 'NONE', #550, 1000.000000000000000 ) ;
#101 = ORIENTED_EDGE ( 'NONE', *, *, #484, .F. ) ;
#102 = DIRECTION ( 'NONE',  ( -4.095874873834121014E-16, 0.000000000000000000, -1.000000000000000000 ) ) ;
#103 = CARTESIAN_POINT ( 'NONE',  ( 10.25275681356644597, 6.000000000000000000, -21.15829571874508375 ) ) ;
#104 = CARTESIAN_POINT ( 'NONE',  ( 92.51525432638162272, 38.79845417260306562, -6.471096825077409299E-16 ) ) ;
#105 = EDGE_CURVE ( 'NONE', #843, #965, #192, .T. ) ;
#106 = DIRECTION ( 'NONE',  ( 0.7071067811865489050, -0.7071067811865462405, 1.022195611122254849E-16 ) ) ;
#107 = ORIENTED_EDGE ( 'NONE', *, *, #944, .F. ) ;
#108 = CIRCLE ( 'NONE', #146, 1.699999999999999734 ) ;
#109 = CARTESIAN_POINT ( 'NONE',  ( -12.83811254486026066, 3.019140046689114509, 21.45274811465019482 ) ) ;
#110 = CARTESIAN_POINT ( 'NONE',  ( 0.000000000000000000, 12.00000000000000000, -25.00000000000000000 ) ) ;
#111 = LINE ( 'NONE', #812, #486 ) ;
#112 = VECTOR ( 'NONE', #373, 999.9999999999998863 ) ;
#113 = VECTOR ( 'NONE', #1041, 1000.000000000000000 ) ;
#114 = ORIENTED_EDGE ( 'NONE', *, *, #623, .T. ) ;
#115 = CARTESIAN_POINT ( 'NONE',  ( -10.09211246395548933, 4.670034839172655161, 22.87258183722149241 ) ) ;
#116 = PLANE ( 'NONE',  #318 ) ;
#117 = DIRECTION ( 'NONE',  ( 0.7071067811865489050, -0.7071067811865462405, -1.703659351870416017E-17 ) ) ;
#118 = EDGE_LOOP ( 'NONE', ( #821, #889, #557, #123 ) ) ;
#119 = EDGE_CURVE ( 'NONE', #894, #518, #649, .T. ) ;
#120 = DIRECTION ( 'NONE',  ( 0.8660254037844384856, 0.000000000000000000, 0.5000000000000002220 ) ) ;
#121 = AXIS2_PLACEMENT_3D ( 'NONE', #558, #481, #320 ) ;
#122 = CARTESIAN_POINT ( 'NONE',  ( 9.224999999999997868, 0.000000000000000000, 15.97816869982288779 ) ) ;
#123 = ORIENTED_EDGE ( 'NONE', *, *, #490, .F. ) ;
#124 = ORIENTED_EDGE ( 'NONE', *, *, #300, .T. ) ;
#125 = CARTESIAN_POINT ( 'NONE',  ( 12.66990436729395597, 2.999856749869229677, -21.55256061173251680 ) ) ;
#126 = CARTESIAN_POINT ( 'NONE',  ( 0.000000000000000000, 12.00000000000000000, 0.000000000000000000 ) ) ;
#127 = VECTOR ( 'NONE', #1054, 1000.000000000000000 ) ;
#128 = ORIENTED_EDGE ( 'NONE', *, *, #477, .T. ) ;
#129 = DIRECTION ( 'NONE',  ( 0.7071067811865465735, 0.7071067811865483499, 0.000000000000000000 ) ) ;
#130 = EDGE_LOOP ( 'NONE', ( #1008, #531 ) ) ;
#131 = PLANE ( 'NONE',  #85 ) ;
#132 = CARTESIAN_POINT ( 'NONE',  ( 38.87682088340496023, 6.000000000000000000, -61.33662900681219554 ) ) ;
#133 = CARTESIAN_POINT ( 'NONE',  ( -18.44999999999999574, 12.00000000000000000, -10.65211246654859956 ) ) ;
#134 = ORIENTED_EDGE ( 'NONE', *, *, #1002, .F. ) ;
#135 = DIRECTION ( 'NONE',  ( -0.000000000000000000, -1.000000000000000000, -0.000000000000000000 ) ) ;
#136 = DIRECTION ( 'NONE',  ( 1.000000000000000000, 0.000000000000000000, -4.095874873834121014E-16 ) ) ;
#137 = VECTOR ( 'NONE', #840, 1000.000000000000000 ) ;
#138 = EDGE_CURVE ( 'NONE', #257, #187, #989, .T. ) ;
#139 = CARTESIAN_POINT ( 'NONE',  ( -14.04930562038244979, 8.387353011790652957, 20.67954837581649130 ) ) ;
#140 = ORIENTED_EDGE ( 'NONE', *, *, #524, .F. ) ;
#141 = CARTESIAN_POINT ( 'NONE',  ( -18.44999999999998863, 12.00000000000000000, 10.65211246654859956 ) ) ;
#142 = CARTESIAN_POINT ( 'NONE',  ( 9.811597434637537418, 6.195883739270054313, -22.99418526020468079 ) ) ;
#143 = FACE_OUTER_BOUND ( 'NONE', #60, .T. ) ;
#144 = AXIS2_PLACEMENT_3D ( 'NONE', #383, #992, #1087 ) ;
#145 = CYLINDRICAL_SURFACE ( 'NONE', #700, 4.000000000000010658 ) ;
#146 = AXIS2_PLACEMENT_3D ( 'NONE', #976, #1049, #706 ) ;
#147 = ORIENTED_EDGE ( 'NONE', *, *, #691, .T. ) ;
#148 = VECTOR ( 'NONE', #59, 1000.000000000000114 ) ;
#149 = DIRECTION ( 'NONE',  ( 0.000000000000000000, 1.000000000000000000, -0.000000000000000000 ) ) ;
#150 = CARTESIAN_POINT ( 'NONE',  ( -14.47724133595216855, 6.000000000000000000, 31.07531754730548457 ) ) ;
#151 = CARTESIAN_POINT ( 'NONE',  ( -12.66990436729396663, 9.000143250130767214, 21.55256061173250615 ) ) ;
#152 = ORIENTED_EDGE ( 'NONE', *, *, #389, .F. ) ;
#153 = EDGE_CURVE ( 'NONE', #787, #306, #900, .T. ) ;
#154 = FACE_OUTER_BOUND ( 'NONE', #1078, .T. ) ;
#155 = FACE_OUTER_BOUND ( 'NONE', #535, .T. ) ;
#156 = CARTESIAN_POINT ( 'NONE',  ( 13.77991571388942127, 8.603396226338974273, -20.86003184013591749 ) ) ;
#157 = CLOSED_SHELL ( 'NONE', ( #549, #813, #419, #1114, #355, #215, #745, #993, #920, #823, #1132, #463, #979, #1080, #767, #1010, #987, #1138, #175, #1061, #738, #90, #448, #1023, #570, #80, #402, #515, #871, #368, #1046, #1095 ) ) ;
#158 = DIRECTION ( 'NONE',  ( 0.5000000000000001110, -0.000000000000000000, 0.8660254037844385966 ) ) ;
#159 = AXIS2_PLACEMENT_3D ( 'NONE', #595, #513, #325 ) ;
#160 = ORIENTED_EDGE ( 'NONE', *, *, #524, .T. ) ;
#161 = DIRECTION ( 'NONE',  ( 0.7071067811865462405, 0.7071067811865489050, 0.000000000000000000 ) ) ;
#162 = PRODUCT_DEFINITION ( 'UNKNOWN', '', #911, #1039 ) ;
#163 = EDGE_CURVE ( 'NONE', #244, #306, #467, .T. ) ;
#164 = CARTESIAN_POINT ( 'NONE',  ( -11.72500000000000497, 6.000000000000000000, 20.30829571874510009 ) ) ;
#165 = CARTESIAN_POINT ( 'NONE',  ( -12.67057413735195581, 3.000071981846778701, 21.55214409639741646 ) ) ;
#166 = ORIENTED_EDGE ( 'NONE', *, *, #153, .F. ) ;
#167 = ORIENTED_EDGE ( 'NONE', *, *, #927, .F. ) ;
#168 = FACE_BOUND ( 'NONE', #1136, .T. ) ;
#169 = CARTESIAN_POINT ( 'NONE',  ( -18.44999999999998863, 0.000000000000000000, 10.65211246654859956 ) ) ;
#170 = APPLICATION_CONTEXT ( 'automotive_design' ) ;
#171 = DIRECTION ( 'NONE',  ( 0.7071067811865489050, -0.7071067811865461294, -1.703659351870416017E-17 ) ) ;
#172 = ORIENTED_EDGE ( 'NONE', *, *, #899, .T. ) ;
#173 = VERTEX_POINT ( 'NONE', #1090 ) ;
#174 = LINE ( 'NONE', #443, #199 ) ;
#175 = ADVANCED_FACE ( 'NONE', ( #298 ), #1018, .T. ) ;
#176 = EDGE_LOOP ( 'NONE', ( #319, #46 ) ) ;
#177 = PRESENTATION_LAYER_ASSIGNMENT (  '', '', ( #28 ) ) ;
#178 = ORIENTED_EDGE ( 'NONE', *, *, #269, .F. ) ;
#179 = CARTESIAN_POINT ( 'NONE',  ( -17.07531754730548457, 6.000000000000000000, 29.57531754730548812 ) ) ;
#180 = ORIENTED_EDGE ( 'NONE', *, *, #961, .T. ) ;
#181 = ORIENTED_EDGE ( 'NONE', *, *, #705, .T. ) ;
#182 = AXIS2_PLACEMENT_3D ( 'NONE', #179, #93, #799 ) ;
#183 = CARTESIAN_POINT ( 'NONE',  ( -9.829799759254161273, 5.605133153421316017, 22.98644236401818475 ) ) ;
#184 = CARTESIAN_POINT ( 'NONE',  ( 9.224999999999997868, 6.000000000000000000, -15.97816869982290200 ) ) ;
#185 = CARTESIAN_POINT ( 'NONE',  ( 12.67057413735195048, 8.999928018153223519, -21.55214409639742357 ) ) ;
#186 = EDGE_LOOP ( 'NONE', ( #74, #1137, #276, #497 ) ) ;
#187 = VERTEX_POINT ( 'NONE', #323 ) ;
#188 = EDGE_CURVE ( 'NONE', #678, #431, #406, .T. ) ;
#189 = CARTESIAN_POINT ( 'NONE',  ( 10.88151696087047071, 3.615070386572877936, -22.50820340622378524 ) ) ;
#190 = CYLINDRICAL_SURFACE ( 'NONE', #439, 7.999999999999991118 ) ;
#191 = DIRECTION ( 'NONE',  ( -0.8660254037844388186, 0.000000000000000000, -0.4999999999999996669 ) ) ;
#192 = CIRCLE ( 'NONE', #506, 3.000000000000001332 ) ;
#193 = ORIENTED_EDGE ( 'NONE', *, *, #961, .F. ) ;
#194 = CARTESIAN_POINT ( 'NONE',  ( -14.88383176304252409, 5.032195277378357368, 20.08674434382119856 ) ) ;
#195 = LINE ( 'NONE', #18, #112 ) ;
#196 = EDGE_CURVE ( 'NONE', #244, #839, #1143, .T. ) ;
#197 = CARTESIAN_POINT ( 'NONE',  ( 21.93171219946131245, 12.00000000000000000, 12.00000000000000000 ) ) ;
#198 = ORIENTED_EDGE ( 'NONE', *, *, #381, .F. ) ;
#199 = VECTOR ( 'NONE', #626, 1000.000000000000000 ) ;
#200 = CARTESIAN_POINT ( 'NONE',  ( -10.17858821870446739, 4.494552390626013860, 22.83436568776904352 ) ) ;
#201 = CYLINDRICAL_SURFACE ( 'NONE', #827, 1.699999999999999734 ) ;
#202 = CARTESIAN_POINT ( 'NONE',  ( 84.84314575050758833, 40.81370849898470965, -12.00000000000000178 ) ) ;
#203 = VECTOR ( 'NONE', #1006, 1000.000000000000000 ) ;
#204 = VERTEX_POINT ( 'NONE', #40 ) ;
#205 = CARTESIAN_POINT ( 'NONE',  ( 13.32720614566981787, 3.152837683042448713, -21.15227268167500796 ) ) ;
#206 = FACE_OUTER_BOUND ( 'NONE', #764, .T. ) ;
#207 = VERTEX_POINT ( 'NONE', #1031 ) ;
#208 = EDGE_CURVE ( 'NONE', #888, #580, #293, .T. ) ;
#209 = ORIENTED_EDGE ( 'NONE', *, *, #336, .T. ) ;
#210 = AXIS2_PLACEMENT_3D ( 'NONE', #783, #426, #68 ) ;
#211 = CARTESIAN_POINT ( 'NONE',  ( 15.00774985734416944, 6.000000000000000000, -19.99418526020468079 ) ) ;
#212 = DIRECTION ( 'NONE',  ( -0.4999999999999997780, -0.000000000000000000, 0.8660254037844388186 ) ) ;
#213 = LINE ( 'NONE', #390, #802 ) ;
#214 = VERTEX_POINT ( 'NONE', #311 ) ;
#215 = ADVANCED_FACE ( 'NONE', ( #682 ), #145, .F. ) ;
#216 = LINE ( 'NONE', #919, #875 ) ;
#217 = LINE ( 'NONE', #150, #593 ) ;
#218 = DIRECTION ( 'NONE',  ( 0.8660254037844387076, 0.000000000000000000, 0.4999999999999999445 ) ) ;
#219 = VECTOR ( 'NONE', #721, 1000.000000000000000 ) ;
#220 = ORIENTED_EDGE ( 'NONE', *, *, #1002, .T. ) ;
#221 = FACE_OUTER_BOUND ( 'NONE', #778, .T. ) ;
#222 = EDGE_CURVE ( 'NONE', #207, #678, #395, .T. ) ;
#223 = LINE ( 'NONE', #1022, #260 ) ;
#224 = DIRECTION ( 'NONE',  ( 0.7071067811865463515, 0.7071067811865486830, 0.000000000000000000 ) ) ;
#225 = VERTEX_POINT ( 'NONE', #133 ) ;
#226 = CYLINDRICAL_SURFACE ( 'NONE', #528, 25.00000000000000000 ) ;
#227 = CARTESIAN_POINT ( 'NONE',  ( -17.07531754730548457, 6.000000000000000000, 29.57531754730548812 ) ) ;
#228 = CARTESIAN_POINT ( 'NONE',  ( -19.67339375865880058, 6.000000000000000000, 28.07531754730548101 ) ) ;
#229 = CARTESIAN_POINT ( 'NONE',  ( -9.225000000000003197, 12.00000000000000000, -15.97816869982289489 ) ) ;
#230 = EDGE_CURVE ( 'NONE', #808, #431, #335, .T. ) ;
#231 = VERTEX_POINT ( 'NONE', #49 ) ;
#232 = CARTESIAN_POINT ( 'NONE',  ( 93.32842712474615610, 32.32842712474614899, 11.99999999999999822 ) ) ;
#233 = CARTESIAN_POINT ( 'NONE',  ( 61.00000000000010658, 0.000000000000000000, 11.99999999999999822 ) ) ;
#234 = CIRCLE ( 'NONE', #386, 7.999999999999991118 ) ;
#235 = DIRECTION ( 'NONE',  ( 0.7071067811865465735, 0.7071067811865483499, 0.000000000000000000 ) ) ;
#236 = DIRECTION ( 'NONE',  ( 0.4999999999999998335, -0.000000000000000000, -0.8660254037844389297 ) ) ;
#237 = EDGE_CURVE ( 'NONE', #238, #89, #256, .T. ) ;
#238 = VERTEX_POINT ( 'NONE', #592 ) ;
#239 = FACE_OUTER_BOUND ( 'NONE', #794, .T. ) ;
#240 = FACE_BOUND ( 'NONE', #828, .T. ) ;
#241 = CARTESIAN_POINT ( 'NONE',  ( 14.05295302173815131, 8.384087503495193161, -20.67707708604389438 ) ) ;
#242 = CARTESIAN_POINT ( 'NONE',  ( -14.40473510873871987, 7.984651070032350084, 20.43337651302832114 ) ) ;
#243 = CARTESIAN_POINT ( 'NONE',  ( -9.126923788646690738, 6.000000000000000000, 21.80829571874509654 ) ) ;
#244 = VERTEX_POINT ( 'NONE', #665 ) ;
#245 = EDGE_CURVE ( 'NONE', #375, #452, #73, .T. ) ;
#246 = CARTESIAN_POINT ( 'NONE',  ( 18.44999999999998863, 0.000000000000000000, 10.65211246654859600 ) ) ;
#247 = LINE ( 'NONE', #343, #703 ) ;
#248 = CARTESIAN_POINT ( 'NONE',  ( -14.99206672418548258, 6.394479924518712721, 20.00598561667771236 ) ) ;
#249 = CARTESIAN_POINT ( 'NONE',  ( -14.40556131750303948, 4.016489869566735926, 20.43279384386053366 ) ) ;
#250 = CARTESIAN_POINT ( 'NONE',  ( 37.75098785848518901, 6.000000000000000000, -61.98662900681220123 ) ) ;
#251 = ORIENTED_EDGE ( 'NONE', *, *, #530, .F. ) ;
#252 = UNCERTAINTY_MEASURE_WITH_UNIT (LENGTH_MEASURE( 1.000000000000000082E-05 ), #674, 'distance_accuracy_value', 'NONE');
#253 = CYLINDRICAL_SURFACE ( 'NONE', #562, 2.999999999999999556 ) ;
#254 = DIRECTION ( 'NONE',  ( -0.000000000000000000, -1.000000000000000000, -0.000000000000000000 ) ) ;
#255 = LINE ( 'NONE', #612, #994 ) ;
#256 = CIRCLE ( 'NONE', #1088, 11.99999999999999645 ) ;
#257 = VERTEX_POINT ( 'NONE', #793 ) ;
#258 = EDGE_LOOP ( 'NONE', ( #474, #807 ) ) ;
#259 = CARTESIAN_POINT ( 'NONE',  ( -18.44999999999999218, 12.00000000000000000, 6.009258394948629025E-15 ) ) ;
#260 = VECTOR ( 'NONE', #841, 1000.000000000000000 ) ;
#261 = VECTOR ( 'NONE', #254, 1000.000000000000000 ) ;
#262 = EDGE_CURVE ( 'NONE', #781, #1068, #589, .T. ) ;
#263 = CARTESIAN_POINT ( 'NONE',  ( 9.224999999999997868, 6.000000000000000000, -15.97816869982290200 ) ) ;
#264 = ORIENTED_EDGE ( 'NONE', *, *, #275, .F. ) ;
#265 = ORIENTED_EDGE ( 'NONE', *, *, #725, .F. ) ;
#266 = FACE_OUTER_BOUND ( 'NONE', #633, .T. ) ;
#267 = APPLICATION_CONTEXT ( 'automotive_design' ) ;
#268 = CARTESIAN_POINT ( 'NONE',  ( -14.92948979085563366, 6.782278358474882474, 20.05272699015977622 ) ) ;
#269 = EDGE_CURVE ( 'NONE', #238, #788, #174, .T. ) ;
#270 = ORIENTED_EDGE ( 'NONE', *, *, #616, .F. ) ;
#271 = AXIS2_PLACEMENT_3D ( 'NONE', #546, #1073, #1059 ) ;
#272 = ORIENTED_EDGE ( 'NONE', *, *, #416, .T. ) ;
#273 = DIRECTION ( 'NONE',  ( 0.7071067811865457964, 0.7071067811865492381, 0.000000000000000000 ) ) ;
#274 = ORIENTED_EDGE ( 'NONE', *, *, #760, .F. ) ;
#275 = EDGE_CURVE ( 'NONE', #464, #214, #108, .T. ) ;
#276 = ORIENTED_EDGE ( 'NONE', *, *, #289, .T. ) ;
#277 = CARTESIAN_POINT ( 'NONE',  ( 84.84314575050757412, 40.81370849898470254, 11.99999999999999822 ) ) ;
#278 = CARTESIAN_POINT ( 'NONE',  ( 9.829203137734447537, 5.609401496238726637, -22.98669756657415775 ) ) ;
#279 = CARTESIAN_POINT ( 'NONE',  ( 36.27874467205164422, 6.000000000000000000, -62.83662900681219554 ) ) ;
#280 = CARTESIAN_POINT ( 'NONE',  ( 61.00000000000010658, -1.040834085586084257E-14, 11.99999999999999822 ) ) ;
#281 = APPLICATION_PROTOCOL_DEFINITION ( 'draft international standard', 'automotive_design', 1998, #267 ) ;
#282 = CARTESIAN_POINT ( 'NONE',  ( -14.50923789644119921, 4.170696325785533176, 20.35912543049340329 ) ) ;
#283 = CARTESIAN_POINT ( 'NONE',  ( 92.51525432638162272, 38.79845417260307272, -6.471096825077408313E-16 ) ) ;
#284 = DIRECTION ( 'NONE',  ( 0.7071067811865462405, 0.7071067811865489050, 0.000000000000000000 ) ) ;
#285 = CARTESIAN_POINT ( 'NONE',  ( 82.01471862576141802, 37.98528137423851803, -5.304090169046175401E-16 ) ) ;
#286 = ORIENTED_EDGE ( 'NONE', *, *, #62, .F. ) ;
#287 = AXIS2_PLACEMENT_3D ( 'NONE', #32, #915, #120 ) ;
#288 = CARTESIAN_POINT ( 'NONE',  ( -13.16905195101845649, 3.096217485826642690, 21.25120246236675570 ) ) ;
#289 = EDGE_CURVE ( 'NONE', #244, #696, #255, .T. ) ;
#290 = FACE_OUTER_BOUND ( 'NONE', #545, .T. ) ;
#291 = ORIENTED_EDGE ( 'NONE', *, *, #484, .T. ) ;
#292 = VERTEX_POINT ( 'NONE', #5 ) ;
#293 = CIRCLE ( 'NONE', #610, 4.000000000000010658 ) ;
#294 = DIRECTION ( 'NONE',  ( 0.7071067811865465735, 0.7071067811865483499, 0.000000000000000000 ) ) ;
#295 = DIRECTION ( 'NONE',  ( 0.7071067811865489050, -0.7071067811865461294, -1.703659351870416017E-17 ) ) ;
#296 = B_SPLINE_CURVE_WITH_KNOTS ( 'NONE', 3,
 ( #885, #1081, #635, #981, #194, #517, #79, #282, #249, #547, #810, #798, #709, #896, #288, #109, #165, #17, #376, #1069, #640, #459, #606, #991, #359, #442, #23, #200, #115, #776, #3, #183, #891, #1074 ),
 .UNSPECIFIED., .F., .F.,
 ( 4, 2, 2, 2, 2, 2, 2, 2, 2, 2, 2, 2, 2, 2, 2, 2, 4 ),
 ( 0.000000000000000000, 0.0005867386906871438230, 0.001173477381374287646, 0.001760216072061431469, 0.002346954762748575292, 0.002933693453435718898, 0.003520432144122862938, 0.004107170834810006978, 0.004693909525497150584, 0.005280648216184294190, 0.005867386906871437796, 0.006454125597558582270, 0.007040864288245725876, 0.007627602978932869482, 0.008214341669620013955, 0.008801080360307156694, 0.009387819050994301168 ),
 .UNSPECIFIED. ) ;
#297 = EDGE_CURVE ( 'NONE', #214, #464, #50, .T. ) ;
#298 = FACE_OUTER_BOUND ( 'NONE', #624, .T. ) ;
#299 = AXIS2_PLACEMENT_3D ( 'NONE', #285, #305, #129 ) ;
#300 = EDGE_CURVE ( 'NONE', #594, #788, #1052, .T. ) ;
#301 = EDGE_LOOP ( 'NONE', ( #697, #147, #107, #1032 ) ) ;
#302 = DIRECTION ( 'NONE',  ( -2.409338161078894805E-17, 0.000000000000000000, -1.000000000000000000 ) ) ;
#303 = LINE ( 'NONE', #110, #815 ) ;
#304 = FACE_BOUND ( 'NONE', #437, .T. ) ;
#305 = DIRECTION ( 'NONE',  ( 0.7071067811865489050, -0.7071067811865462405, -1.703659351870416325E-17 ) ) ;
#306 = VERTEX_POINT ( 'NONE', #876 ) ;
#307 = AXIS2_PLACEMENT_3D ( 'NONE', #917, #106, #284 ) ;
#308 = AXIS2_PLACEMENT_3D ( 'NONE', #453, #526, #1079 ) ;
#309 = CARTESIAN_POINT ( 'NONE',  ( 15.00774985734416944, 5.801637747200257600, -19.99418526020468434 ) ) ;
#310 = CARTESIAN_POINT ( 'NONE',  ( 15.00774985734416944, 6.000000000000000000, -19.99418526020468079 ) ) ;
#311 = CARTESIAN_POINT ( 'NONE',  ( -13.19724318643355154, 6.000000000000000000, 19.45829571874509867 ) ) ;
#312 = ORIENTED_EDGE ( 'NONE', *, *, #366, .F. ) ;
#313 = EDGE_CURVE ( 'NONE', #204, #396, #350, .T. ) ;
#314 = CARTESIAN_POINT ( 'NONE',  ( 14.99206672418547903, 5.605520075481283726, -20.00598561667771591 ) ) ;
#315 = LINE ( 'NONE', #228, #460 ) ;
#316 = CARTESIAN_POINT ( 'NONE',  ( -13.63347443215977428, 8.696815486974344367, 20.95617899705860410 ) ) ;
#317 = CARTESIAN_POINT ( 'NONE',  ( 3.061616997868383043E-15, 12.00000000000000000, 25.00000000000000000 ) ) ;
#318 = AXIS2_PLACEMENT_3D ( 'NONE', #559, #1000, #988 ) ;
#319 = ORIENTED_EDGE ( 'NONE', *, *, #684, .F. ) ;
#320 = DIRECTION ( 'NONE',  ( 0.000000000000000000, 0.000000000000000000, -1.000000000000000000 ) ) ;
#321 = LINE ( 'NONE', #493, #1092 ) ;
#322 = CARTESIAN_POINT ( 'NONE',  ( 33.68066846069832820, 6.000000000000000000, -64.33662900681220265 ) ) ;
#323 = CARTESIAN_POINT ( 'NONE',  ( 21.93171219946131245, 0.000000000000000000, 12.00000000000000000 ) ) ;
#324 = ORIENTED_EDGE ( 'NONE', *, *, #366, .T. ) ;
#325 = DIRECTION ( 'NONE',  ( 0.000000000000000000, 0.000000000000000000, 1.000000000000000000 ) ) ;
#326 = CARTESIAN_POINT ( 'NONE',  ( 84.84314575050761675, 23.84314575050758833, 2.448693001888144503E-16 ) ) ;
#327 = DIRECTION ( 'NONE',  ( -0.4999999999999997780, -0.000000000000000000, 0.8660254037844388186 ) ) ;
#328 = EDGE_CURVE ( 'NONE', #396, #204, #234, .T. ) ;
#329 = CARTESIAN_POINT ( 'NONE',  ( -10.49095014574747076, 7.981525439609733930, 22.69271236319301011 ) ) ;
#330 = ORIENTED_EDGE ( 'NONE', *, *, #806, .F. ) ;
#331 = DIRECTION ( 'NONE',  ( 1.000000000000000000, 0.000000000000000000, -3.257050620568364549E-16 ) ) ;
#332 = DIRECTION ( 'NONE',  ( 0.4999999999999999445, 0.000000000000000000, -0.8660254037844387076 ) ) ;
#333 = CARTESIAN_POINT ( 'NONE',  ( -9.225000000000003197, 0.000000000000000000, -15.97816869982289489 ) ) ;
#334 = VECTOR ( 'NONE', #962, 1000.000000000000000 ) ;
#335 = LINE ( 'NONE', #65, #644 ) ;
#336 = EDGE_CURVE ( 'NONE', #717, #518, #771, .T. ) ;
#337 = ORIENTED_EDGE ( 'NONE', *, *, #831, .T. ) ;
#338 = FILL_AREA_STYLE ('',( #1127 ) ) ;
#339 = CARTESIAN_POINT ( 'NONE',  ( 10.49082313287356705, 7.981600139092830837, -22.69278230834676791 ) ) ;
#340 = DIRECTION ( 'NONE',  ( 0.7071067811865489050, -0.7071067811865462405, -1.703659351870416325E-17 ) ) ;
#341 = CARTESIAN_POINT ( 'NONE',  ( 9.900361814485860279, 5.222081077018017936, -22.95613938105152485 ) ) ;
#342 = VERTEX_POINT ( 'NONE', #83 ) ;
#343 = CARTESIAN_POINT ( 'NONE',  ( 56.82842712474598557, 68.82842712474619873, 11.99999999999999822 ) ) ;
#344 = LINE ( 'NONE', #1140, #127 ) ;
#345 = ORIENTED_EDGE ( 'NONE', *, *, #245, .T. ) ;
#346 = ORIENTED_EDGE ( 'NONE', *, *, #572, .F. ) ;
#347 = EDGE_CURVE ( 'NONE', #225, #207, #78, .T. ) ;
#348 = FACE_OUTER_BOUND ( 'NONE', #258, .T. ) ;
#349 = DIRECTION ( 'NONE',  ( 0.7071067811865487940, -0.7071067811865462405, 1.022195611122254849E-16 ) ) ;
#350 = CIRCLE ( 'NONE', #492, 7.999999999999991118 ) ;
#351 = EDGE_LOOP ( 'NONE', ( #1050, #977 ) ) ;
#352 = EDGE_LOOP ( 'NONE', ( #265, #274, #882, #369, #84, #193 ) ) ;
#353 =( NAMED_UNIT ( * ) PLANE_ANGLE_UNIT ( ) SI_UNIT ( $, .RADIAN. ) );
#354 = CIRCLE ( 'NONE', #94, 1.699999999999999734 ) ;
#355 = ADVANCED_FACE ( 'NONE', ( #72 ), #880, .F. ) ;
#356 = DIRECTION ( 'NONE',  ( 0.7071067811865457964, 0.7071067811865492381, 0.000000000000000000 ) ) ;
#357 = EDGE_LOOP ( 'NONE', ( #391, #984 ) ) ;
#358 = ORIENTED_EDGE ( 'NONE', *, *, #850, .T. ) ;
#359 = CARTESIAN_POINT ( 'NONE',  ( -10.74521059776341936, 3.738485226715550613, 22.57343988205970930 ) ) ;
#360 = CARTESIAN_POINT ( 'NONE',  ( 90.49999999999998579, 29.49999999999997158, -7.348481391290673266E-16 ) ) ;
#361 = EDGE_CURVE ( 'NONE', #704, #894, #34, .T. ) ;
#362 = VERTEX_POINT ( 'NONE', #532 ) ;
#363 = VERTEX_POINT ( 'NONE', #701 ) ;
#364 = CARTESIAN_POINT ( 'NONE',  ( 12.32632224796223674, 3.000144832099434833, -21.75088792298303986 ) ) ;
#365 = CYLINDRICAL_SURFACE ( 'NONE', #664, 2.999999999999999556 ) ;
#366 = EDGE_CURVE ( 'NONE', #971, #231, #970, .T. ) ;
#367 = CARTESIAN_POINT ( 'NONE',  ( -11.72500000000000497, 6.000000000000000000, 20.30829571874509654 ) ) ;
#368 = ADVANCED_FACE ( 'NONE', ( #434 ), #786, .F. ) ;
#369 = ORIENTED_EDGE ( 'NONE', *, *, #222, .F. ) ;
#370 =( NAMED_UNIT ( * ) SI_UNIT ( $, .STERADIAN. ) SOLID_ANGLE_UNIT ( ) );
#371 = CARTESIAN_POINT ( 'NONE',  ( 11.17443157850629909, 3.397303598079588038, -22.36422837575526046 ) ) ;
#372 = AXIS2_PLACEMENT_3D ( 'NONE', #1105, #933, #916 ) ;
#373 = DIRECTION ( 'NONE',  ( 0.7071067811865462405, 0.7071067811865489050, 0.000000000000000000 ) ) ;
#374 = ORIENTED_EDGE ( 'NONE', *, *, #381, .T. ) ;
#375 = VERTEX_POINT ( 'NONE', #424 ) ;
#376 = CARTESIAN_POINT ( 'NONE',  ( -12.15782894250804524, 3.019483906745982438, 21.84546303054465355 ) ) ;
#377 = DIRECTION ( 'NONE',  ( -0.4999999999999998335, -0.000000000000000000, 0.8660254037844389297 ) ) ;
#378 = CARTESIAN_POINT ( 'NONE',  ( 56.82842712474598557, 68.82842712474619873, -7.248074902775570574E-16 ) ) ;
#379 = EDGE_LOOP ( 'NONE', ( #22, #617, #291, #444 ) ) ;
#380 = AXIS2_PLACEMENT_3D ( 'NONE', #726, #904, #541 ) ;
#381 = EDGE_CURVE ( 'NONE', #464, #362, #774, .T. ) ;
#382 = CARTESIAN_POINT ( 'NONE',  ( 14.50646119894263641, 4.166145054438012529, -20.36110896963298700 ) ) ;
#383 = CARTESIAN_POINT ( 'NONE',  ( 36.27874467205164422, 6.000000000000000000, -62.83662900681219554 ) ) ;
#384 = DIRECTION ( 'NONE',  ( 1.000000000000000000, 0.000000000000000000, -4.095874873834121014E-16 ) ) ;
#385 = ORIENTED_EDGE ( 'NONE', *, *, #601, .T. ) ;
#386 = AXIS2_PLACEMENT_3D ( 'NONE', #966, #340, #870 ) ;
#387 = CARTESIAN_POINT ( 'NONE',  ( 9.224999999999997868, 12.00000000000000000, 15.97816869982288779 ) ) ;
#388 = LINE ( 'NONE', #283, #20 ) ;
#389 = EDGE_CURVE ( 'NONE', #214, #1019, #344, .T. ) ;
#390 = CARTESIAN_POINT ( 'NONE',  ( 81.20154582739689886, 27.48474567361830267, 3.326077568101406990E-16 ) ) ;
#391 = ORIENTED_EDGE ( 'NONE', *, *, #297, .T. ) ;
#392 = FACE_OUTER_BOUND ( 'NONE', #186, .T. ) ;
#393 = DIRECTION ( 'NONE',  ( -0.8660254037844385966, 0.000000000000000000, 0.5000000000000001110 ) ) ;
#394 = EDGE_CURVE ( 'NONE', #1142, #808, #820, .T. ) ;
#395 = LINE ( 'NONE', #660, #898 ) ;
#396 = VERTEX_POINT ( 'NONE', #104 ) ;
#397 = CIRCLE ( 'NONE', #1100, 3.000000000000002665 ) ;
#398 = CARTESIAN_POINT ( 'NONE',  ( 82.01471862576141802, 37.98528137423851803, -5.304090169046175401E-16 ) ) ;
#399 = CARTESIAN_POINT ( 'NONE',  ( -9.225000000000003197, 6.000000000000000000, 15.97816869982290200 ) ) ;
#400 = DIRECTION ( 'NONE',  ( 0.7071067811865465735, 0.7071067811865483499, 0.000000000000000000 ) ) ;
#401 = ORIENTED_EDGE ( 'NONE', *, *, #62, .T. ) ;
#402 = ADVANCED_FACE ( 'NONE', ( #290 ), #201, .F. ) ;
#403 = DIRECTION ( 'NONE',  ( -1.000000000000000000, 0.000000000000000000, 2.409338161078894805E-17 ) ) ;
#404 = AXIS2_PLACEMENT_3D ( 'NONE', #360, #1042, #273 ) ;
#405 = DIRECTION ( 'NONE',  ( 0.000000000000000000, 0.000000000000000000, 1.000000000000000000 ) ) ;
#406 = LINE ( 'NONE', #743, #752 ) ;
#407 = AXIS2_PLACEMENT_3D ( 'NONE', #126, #478, #405 ) ;
#408 = AXIS2_PLACEMENT_3D ( 'NONE', #590, #149, #609 ) ;
#409 = ORIENTED_EDGE ( 'NONE', *, *, #789, .F. ) ;
#410 = FACE_BOUND ( 'NONE', #130, .T. ) ;
#411 = LINE ( 'NONE', #1048, #261 ) ;
#412 = DIRECTION ( 'NONE',  ( 0.000000000000000000, 0.000000000000000000, 1.000000000000000000 ) ) ;
#413 = CARTESIAN_POINT ( 'NONE',  ( 0.000000000000000000, 12.00000000000000000, 0.000000000000000000 ) ) ;
#414 = ORIENTED_EDGE ( 'NONE', *, *, #564, .T. ) ;
#415 = PLANE ( 'NONE',  #66 ) ;
#416 = EDGE_CURVE ( 'NONE', #257, #787, #461, .T. ) ;
#417 = CARTESIAN_POINT ( 'NONE',  ( 11.65463149554558342, 8.847103355863376706, -22.11792615900338177 ) ) ;
#418 = CARTESIAN_POINT ( 'NONE',  ( 14.99206073557065366, 6.393467133459278529, -20.00598889955800530 ) ) ;
#419 = ADVANCED_FACE ( 'NONE', ( #206 ), #732, .F. ) ;
#420 = CARTESIAN_POINT ( 'NONE',  ( -10.17705333181315019, 7.502780062293032515, 22.83505414780210430 ) ) ;
#421 = ORIENTED_EDGE ( 'NONE', *, *, #230, .T. ) ;
#422 = CARTESIAN_POINT ( 'NONE',  ( 11.17455705533446775, 8.602740367907424357, -22.36416279407615804 ) ) ;
#423 = CARTESIAN_POINT ( 'NONE',  ( 13.16905195101845472, 8.903782514173361307, -21.25120246236676280 ) ) ;
#424 = CARTESIAN_POINT ( 'NONE',  ( -9.811597434637540971, 6.000000000000000000, 22.99418526020467723 ) ) ;
#425 = EDGE_LOOP ( 'NONE', ( #968, #734, #520, #51 ) ) ;
#426 = DIRECTION ( 'NONE',  ( 0.7071067811865489050, -0.7071067811865462405, -1.703659351870416325E-17 ) ) ;
#427 = CARTESIAN_POINT ( 'NONE',  ( 9.953371174866097348, 6.966704062136896525, -22.93329754180296121 ) ) ;
#428 = DIRECTION ( 'NONE',  ( 0.8660254037844389297, 0.000000000000000000, 0.4999999999999996669 ) ) ;
#429 = EDGE_CURVE ( 'NONE', #518, #717, #791, .T. ) ;
#430 = ORIENTED_EDGE ( 'NONE', *, *, #237, .T. ) ;
#431 = VERTEX_POINT ( 'NONE', #641 ) ;
#432 = DIRECTION ( 'NONE',  ( -0.8660254037844385966, 0.000000000000000000, 0.5000000000000000000 ) ) ;
#433 = CARTESIAN_POINT ( 'NONE',  ( 9.811597434637537418, 6.000000000000000000, -22.99418526020468079 ) ) ;
#434 = FACE_OUTER_BOUND ( 'NONE', #505, .T. ) ;
#435 = VECTOR ( 'NONE', #658, 999.9999999999998863 ) ;
#436 = VERTEX_POINT ( 'NONE', #554 ) ;
#437 = EDGE_LOOP ( 'NONE', ( #563, #901 ) ) ;
#438 = CARTESIAN_POINT ( 'NONE',  ( 86.85840007688926789, 33.14159992311068237, -6.471096825077408313E-16 ) ) ;
#439 = AXIS2_PLACEMENT_3D ( 'NONE', #548, #295, #24 ) ;
#440 = EDGE_LOOP ( 'NONE', ( #723, #707, #873, #878 ) ) ;
#441 = ORIENTED_EDGE ( 'NONE', *, *, #71, .T. ) ;
#442 = CARTESIAN_POINT ( 'NONE',  ( -10.49082313287357415, 4.018399860907168275, 22.69278230834677146 ) ) ;
#443 = CARTESIAN_POINT ( 'NONE',  ( 93.32842712474614189, 49.29898987322329873, -1.214306433183764966E-14 ) ) ;
#444 = ORIENTED_EDGE ( 'NONE', *, *, #6, .T. ) ;
#445 = ORIENTED_EDGE ( 'NONE', *, *, #668, .F. ) ;
#446 = CYLINDRICAL_SURFACE ( 'NONE', #308, 1.699999999999999734 ) ;
#447 = CARTESIAN_POINT ( 'NONE',  ( 11.81965260940567042, 3.096317720457933742, -22.03026554536032933 ) ) ;
#448 = ADVANCED_FACE ( 'NONE', ( #652 ), #190, .F. ) ;
#449 = CARTESIAN_POINT ( 'NONE',  ( 14.32307621135331388, 6.000000000000000000, -18.80829571874509298 ) ) ;
#450 = EDGE_CURVE ( 'NONE', #787, #1146, #727, .T. ) ;
#451 = ORIENTED_EDGE ( 'NONE', *, *, #4, .T. ) ;
#452 = VERTEX_POINT ( 'NONE', #714 ) ;
#453 = CARTESIAN_POINT ( 'NONE',  ( 36.27874467205164422, 6.000000000000000000, -62.83662900681219554 ) ) ;
#454 = PRODUCT_DEFINITION_SHAPE ( 'NONE', 'NONE',  #162 ) ;
#455 = CARTESIAN_POINT ( 'NONE',  ( 9.811597434637537418, 6.000000000000000000, -22.99418526020468079 ) ) ;
#456 = DIRECTION ( 'NONE',  ( 0.8660254037844383745, 0.000000000000000000, 0.5000000000000005551 ) ) ;
#457 = DIRECTION ( 'NONE',  ( 0.8660254037844385966, 0.000000000000000000, 0.5000000000000001110 ) ) ;
#458 = ORIENTED_EDGE ( 'NONE', *, *, #927, .T. ) ;
#459 = CARTESIAN_POINT ( 'NONE',  ( -11.33152875668725557, 3.303352915332662398, 22.28518675955978523 ) ) ;
#460 = VECTOR ( 'NONE', #591, 1000.000000000000000 ) ;
#461 = LINE ( 'NONE', #1083, #974 ) ;
#462 = FACE_OUTER_BOUND ( 'NONE', #969, .T. ) ;
#463 = ADVANCED_FACE ( 'NONE', ( #636, #648 ), #116, .T. ) ;
#464 = VERTEX_POINT ( 'NONE', #982 ) ;
#465 = CARTESIAN_POINT ( 'NONE',  ( 13.63347443215976540, 3.303184513025655189, -20.95617899705861120 ) ) ;
#466 = DIRECTION ( 'NONE',  ( 0.8660254037844385966, 0.000000000000000000, 0.5000000000000001110 ) ) ;
#467 = LINE ( 'NONE', #30, #792 ) ;
#468 = FACE_OUTER_BOUND ( 'NONE', #740, .T. ) ;
#469 = ORIENTED_EDGE ( 'NONE', *, *, #450, .F. ) ;
#470 = VECTOR ( 'NONE', #928, 1000.000000000000000 ) ;
#471 = DIRECTION ( 'NONE',  ( 0.7071067811865487940, -0.7071067811865462405, 1.022195611122254849E-16 ) ) ;
#472 = DIRECTION ( 'NONE',  ( 0.8660254037844387076, 0.000000000000000000, -0.5000000000000001110 ) ) ;
#473 = DIRECTION ( 'NONE',  ( -0.7071067811865487940, 0.7071067811865462405, -1.022195611122254849E-16 ) ) ;
#474 = ORIENTED_EDGE ( 'NONE', *, *, #944, .T. ) ;
#475 = VECTOR ( 'NONE', #1075, 1000.000000000000000 ) ;
#476 = DIRECTION ( 'NONE',  ( -0.8660254037844385966, 0.000000000000000000, 0.5000000000000001110 ) ) ;
#477 = EDGE_CURVE ( 'NONE', #431, #1057, #910, .T. ) ;
#478 = DIRECTION ( 'NONE',  ( 0.000000000000000000, 1.000000000000000000, -0.000000000000000000 ) ) ;
#479 = CARTESIAN_POINT ( 'NONE',  ( 9.224999999999994316, 0.000000000000000000, -15.97816869982289845 ) ) ;
#480 = ORIENTED_EDGE ( 'NONE', *, *, #13, .F. ) ;
#481 = DIRECTION ( 'NONE',  ( -0.000000000000000000, -1.000000000000000000, -0.000000000000000000 ) ) ;
#482 = CARTESIAN_POINT ( 'NONE',  ( 84.84314575050758833, 40.81370849898470965, -1.734723475976807094E-15 ) ) ;
#483 = CARTESIAN_POINT ( 'NONE',  ( 82.01471862576141802, 37.98528137423851803, -5.304090169046175401E-16 ) ) ;
#484 = EDGE_CURVE ( 'NONE', #396, #1068, #388, .T. ) ;
#485 = ORIENTED_EDGE ( 'NONE', *, *, #699, .F. ) ;
#486 = VECTOR ( 'NONE', #715, 1000.000000000000000 ) ;
#487 = PLANE ( 'NONE',  #581 ) ;
#488 = CARTESIAN_POINT ( 'NONE',  ( 21.93171219946132311, 0.000000000000000000, -11.99999999999998579 ) ) ;
#489 = CARTESIAN_POINT ( 'NONE',  ( -10.74204068104846677, 8.258238638539445731, 22.57493723946694431 ) ) ;
#490 = EDGE_CURVE ( 'NONE', #89, #594, #1070, .T. ) ;
#491 = ORIENTED_EDGE ( 'NONE', *, *, #611, .F. ) ;
#492 = AXIS2_PLACEMENT_3D ( 'NONE', #780, #955, #356 ) ;
#493 = CARTESIAN_POINT ( 'NONE',  ( 9.224999999999994316, 12.00000000000000000, -15.97816869982289845 ) ) ;
#494 = CARTESIAN_POINT ( 'NONE',  ( 84.84314575050760254, 40.81370849898471675, -5.304090169046175401E-16 ) ) ;
#495 = CARTESIAN_POINT ( 'NONE',  ( -9.811597434637540971, 6.195837019422648417, 22.99418526020468434 ) ) ;
#496 = LINE ( 'NONE', #250, #148 ) ;
#497 = ORIENTED_EDGE ( 'NONE', *, *, #806, .T. ) ;
#498 = EDGE_CURVE ( 'NONE', #839, #173, #303, .T. ) ;
#499 = EDGE_CURVE ( 'NONE', #173, #814, #574, .T. ) ;
#500 = DIRECTION ( 'NONE',  ( 0.7071067811865489050, -0.7071067811865462405, -1.703659351870416325E-17 ) ) ;
#501 = B_SPLINE_CURVE_WITH_KNOTS ( 'NONE', 3,
 ( #455, #1065, #278, #341, #689, #956, #1043, #866, #803, #537, #189, #371, #720, #97, #447, #11, #364, #125, #931, #1109, #205, #465, #819, #651, #1011, #27, #382, #1086, #37, #565, #753, #314, #309, #1016 ),
 .UNSPECIFIED., .F., .F.,
 ( 4, 2, 2, 2, 2, 2, 2, 2, 2, 2, 2, 2, 2, 2, 2, 2, 4 ),
 ( 0.009387819050994295964, 0.009974417799784284985, 0.01056101654857427574, 0.01114761529736426476, 0.01173421404615425379, 0.01232081279494424454, 0.01290741154373423530, 0.01349401029252422432, 0.01408060904131421681, 0.01466720779010420583, 0.01525380653889419486, 0.01584040528768418735, 0.01642700403647417637, 0.01701360278526416886, 0.01760020153405415788, 0.01818680028284414690, 0.01877339903163413939 ),
 .UNSPECIFIED. ) ;
#502 = CARTESIAN_POINT ( 'NONE',  ( 0.000000000000000000, 12.00000000000000000, 0.000000000000000000 ) ) ;
#503 = CARTESIAN_POINT ( 'NONE',  ( 0.000000000000000000, 12.00000000000000000, 0.000000000000000000 ) ) ;
#504 = CARTESIAN_POINT ( 'NONE',  ( -13.32720614566983208, 8.847162316957552619, 21.15227268167501151 ) ) ;
#505 = EDGE_LOOP ( 'NONE', ( #198, #1063, #1044, #31 ) ) ;
#506 = AXIS2_PLACEMENT_3D ( 'NONE', #367, #19, #555 ) ;
#507 = FACE_BOUND ( 'NONE', #357, .T. ) ;
#508 = CARTESIAN_POINT ( 'NONE',  ( 10.17858821870446739, 7.505447609373990581, -22.83436568776905773 ) ) ;
#509 = VECTOR ( 'NONE', #1047, 1000.000000000000000 ) ;
#510 = CARTESIAN_POINT ( 'NONE',  ( 14.17782003023913084, 8.259969155690901843, -20.59147105789664067 ) ) ;
#511 = CARTESIAN_POINT ( 'NONE',  ( 11.72499999999999609, 6.000000000000000000, -20.30829571874508943 ) ) ;
#512 = VERTEX_POINT ( 'NONE', #449 ) ;
#513 = DIRECTION ( 'NONE',  ( 0.000000000000000000, 1.000000000000000000, -0.000000000000000000 ) ) ;
#514 = DIRECTION ( 'NONE',  ( -0.8660254037844388186, 0.000000000000000000, -0.4999999999999996669 ) ) ;
#515 = ADVANCED_FACE ( 'NONE', ( #805 ), #365, .F. ) ;
#516 = CARTESIAN_POINT ( 'NONE',  ( -15.00774985734417477, 6.198362252799743288, 19.99418526020467723 ) ) ;
#517 = CARTESIAN_POINT ( 'NONE',  ( -14.76174634991902579, 4.668946621357842552, 20.17663477850651788 ) ) ;
#518 = VERTEX_POINT ( 'NONE', #811 ) ;
#519 = VECTOR ( 'NONE', #393, 1000.000000000000000 ) ;
#520 = ORIENTED_EDGE ( 'NONE', *, *, #760, .T. ) ;
#521 = LINE ( 'NONE', #686, #509 ) ;
#522 = DIRECTION ( 'NONE',  ( -0.000000000000000000, -1.000000000000000000, -0.000000000000000000 ) ) ;
#523 = CARTESIAN_POINT ( 'NONE',  ( -18.44999999999999218, 12.00000000000000000, 6.009258394948629025E-15 ) ) ;
#524 = EDGE_CURVE ( 'NONE', #436, #594, #195, .T. ) ;
#525 = ORIENTED_EDGE ( 'NONE', *, *, #556, .T. ) ;
#526 = DIRECTION ( 'NONE',  ( -0.4999999999999998335, -0.000000000000000000, 0.8660254037844389297 ) ) ;
#527 = DIRECTION ( 'NONE',  ( 0.7071067811865463515, 0.7071067811865486830, 0.000000000000000000 ) ) ;
#528 = AXIS2_PLACEMENT_3D ( 'NONE', #1004, #135, #582 ) ;
#529 = ORIENTED_EDGE ( 'NONE', *, *, #196, .T. ) ;
#530 = EDGE_CURVE ( 'NONE', #342, #26, #897, .T. ) ;
#531 = ORIENTED_EDGE ( 'NONE', *, *, #556, .F. ) ;
#532 = CARTESIAN_POINT ( 'NONE',  ( -7.752756813566456628, 6.000000000000000000, 16.82816869982290697 ) ) ;
#533 = AXIS2_PLACEMENT_3D ( 'NONE', #438, #171, #688 ) ;
#534 = ORIENTED_EDGE ( 'NONE', *, *, #751, .F. ) ;
#535 = EDGE_LOOP ( 'NONE', ( #1072, #134, #614, #1103 ) ) ;
#536 = SHAPE_DEFINITION_REPRESENTATION ( #454, #567 ) ;
#537 = CARTESIAN_POINT ( 'NONE',  ( 10.74204068104846144, 3.741761361460552049, -22.57493723946694431 ) ) ;
#538 = DIRECTION ( 'NONE',  ( -0.000000000000000000, -1.000000000000000000, -0.000000000000000000 ) ) ;
#539 = ORIENTED_EDGE ( 'NONE', *, *, #953, .T. ) ;
#540 = EDGE_LOOP ( 'NONE', ( #41, #36, #525, #972 ) ) ;
#541 = DIRECTION ( 'NONE',  ( 0.8660254037844388186, 0.000000000000000000, 0.4999999999999997780 ) ) ;
#542 = DIRECTION ( 'NONE',  ( -0.4999999999999998335, -0.000000000000000000, 0.8660254037844389297 ) ) ;
#543 = AXIS2_PLACEMENT_3D ( 'NONE', #642, #473, #728 ) ;
#544 = DIRECTION ( 'NONE',  ( 0.7071067811865489050, -0.7071067811865462405, -1.703659351870416325E-17 ) ) ;
#545 = EDGE_LOOP ( 'NONE', ( #650, #978, #337, #209 ) ) ;
#546 = CARTESIAN_POINT ( 'NONE',  ( 0.000000000000000000, 0.000000000000000000, 0.000000000000000000 ) ) ;
#547 = CARTESIAN_POINT ( 'NONE',  ( -14.17782003023913262, 3.740030844309102154, 20.59147105789663712 ) ) ;
#548 = CARTESIAN_POINT ( 'NONE',  ( 86.85840007688926789, 33.14159992311068237, -6.471096825077408313E-16 ) ) ;
#549 = ADVANCED_FACE ( 'NONE', ( #1017 ), #38, .F. ) ;
#550 = DIRECTION ( 'NONE',  ( -0.000000000000000000, -1.000000000000000000, -0.000000000000000000 ) ) ;
#551 = AXIS2_PLACEMENT_3D ( 'NONE', #413, #586, #58 ) ;
#552 = ORIENTED_EDGE ( 'NONE', *, *, #899, .F. ) ;
#553 = PLANE ( 'NONE',  #380 ) ;
#554 = CARTESIAN_POINT ( 'NONE',  ( 61.00000000000011369, -6.938893903907228378E-15, -12.00000000000000178 ) ) ;
#555 = DIRECTION ( 'NONE',  ( 0.8660254037844384856, 0.000000000000000000, 0.5000000000000002220 ) ) ;
#556 = EDGE_CURVE ( 'NONE', #713, #712, #77, .T. ) ;
#557 = ORIENTED_EDGE ( 'NONE', *, *, #300, .F. ) ;
#558 = CARTESIAN_POINT ( 'NONE',  ( 0.000000000000000000, 12.00000000000000000, 0.000000000000000000 ) ) ;
#559 = CARTESIAN_POINT ( 'NONE',  ( 9.224999999999994316, 12.00000000000000000, -15.97816869982289845 ) ) ;
#560 = DIRECTION ( 'NONE',  ( 0.7071067811865463515, 0.7071067811865487940, 0.000000000000000000 ) ) ;
#561 = B_SPLINE_CURVE_WITH_KNOTS ( 'NONE', 3,
 ( #310, #64, #418, #1123, #773, #70, #1036, #859, #1129, #510, #241, #156, #681, #597, #423, #947, #185, #887, #784, #669, #417, #852, #422, #604, #583, #339, #960, #508, #946, #427, #1035, #954, #142, #433 ),
 .UNSPECIFIED., .F., .F.,
 ( 4, 2, 2, 2, 2, 2, 2, 2, 2, 2, 2, 2, 2, 2, 2, 2, 4 ),
 ( 0.000000000000000000, 0.0005867386906871447988, 0.001173477381374289598, 0.001760216072061434505, 0.002346954762748581363, 0.002933693453435724970, 0.003520432144122867708, 0.004107170834810010447, 0.004693909525497154053, 0.005280648216184297659, 0.005867386906871441266, 0.006454125597558585739, 0.007040864288245729345, 0.007627602978932872951, 0.008214341669620013955, 0.008801080360307154959, 0.009387819050994295964 ),
 .UNSPECIFIED. ) ;
#562 = AXIS2_PLACEMENT_3D ( 'NONE', #1040, #959, #61 ) ;
#563 = ORIENTED_EDGE ( 'NONE', *, *, #6, .F. ) ;
#564 = EDGE_CURVE ( 'NONE', #839, #607, #755, .T. ) ;
#565 = CARTESIAN_POINT ( 'NONE',  ( 14.88281409512189235, 5.028766387534562732, -20.08749702134661774 ) ) ;
#566 = DIRECTION ( 'NONE',  ( -0.8660254037844383745, 0.000000000000000000, -0.5000000000000005551 ) ) ;
#567 = ADVANCED_BREP_SHAPE_REPRESENTATION ( 'Arm2', ( #996, #271 ), #620 ) ;
#568 = DIRECTION ( 'NONE',  ( -0.7071067811865460184, -0.7071067811865490160, 0.000000000000000000 ) ) ;
#569 = ORIENTED_EDGE ( 'NONE', *, *, #705, .F. ) ;
#570 = ADVANCED_FACE ( 'NONE', ( #143 ), #835, .T. ) ;
#571 = DIRECTION ( 'NONE',  ( 3.257050620568364056E-16, 0.000000000000000000, 1.000000000000000000 ) ) ;
#572 = EDGE_CURVE ( 'NONE', #618, #436, #223, .T. ) ;
#573 = DIRECTION ( 'NONE',  ( -0.4999999999999998335, 0.000000000000000000, 0.8660254037844389297 ) ) ;
#574 = CIRCLE ( 'NONE', #865, 25.00000000000000000 ) ;
#575 = CARTESIAN_POINT ( 'NONE',  ( -11.32845546008104520, 8.694942334305418186, 22.28674784957930299 ) ) ;
#576 = EDGE_LOOP ( 'NONE', ( #480, #409, #657, #324 ) ) ;
#577 = CARTESIAN_POINT ( 'NONE',  ( -8.673617379884035472E-15, 12.00000000000000000, -21.30422493309719201 ) ) ;
#578 = CARTESIAN_POINT ( 'NONE',  ( 84.84314575050760254, 40.81370849898471675, -5.304090169046174415E-16 ) ) ;
#579 = CARTESIAN_POINT ( 'NONE',  ( -13.77774334765612352, 8.604797986253759134, 20.86145962507805507 ) ) ;
#580 = VERTEX_POINT ( 'NONE', #578 ) ;
#581 = AXIS2_PLACEMENT_3D ( 'NONE', #1093, #47, #571 ) ;
#582 = DIRECTION ( 'NONE',  ( 0.000000000000000000, 0.000000000000000000, -1.000000000000000000 ) ) ;
#583 = CARTESIAN_POINT ( 'NONE',  ( 10.74521059776341581, 8.261514773284448054, -22.57343988205971286 ) ) ;
#584 = DIRECTION ( 'NONE',  ( 0.7071067811865489050, -0.7071067811865462405, -1.703659351870416325E-17 ) ) ;
#585 = EDGE_CURVE ( 'NONE', #231, #1142, #754, .T. ) ;
#586 = DIRECTION ( 'NONE',  ( 0.000000000000000000, 1.000000000000000000, -0.000000000000000000 ) ) ;
#587 = ORIENTED_EDGE ( 'NONE', *, *, #163, .T. ) ;
#588 = PRESENTATION_STYLE_ASSIGNMENT (( #1027 ) ) ;
#589 = CIRCLE ( 'NONE', #404, 7.999999999999991118 ) ;
#590 = CARTESIAN_POINT ( 'NONE',  ( 0.000000000000000000, 0.000000000000000000, 0.000000000000000000 ) ) ;
#591 = DIRECTION ( 'NONE',  ( 0.5000000000000001110, -0.000000000000000000, -0.8660254037844385966 ) ) ;
#592 = CARTESIAN_POINT ( 'NONE',  ( 93.32842712474614189, 49.29898987322329873, -1.214306433183764966E-14 ) ) ;
#593 = VECTOR ( 'NONE', #921, 1000.000000000000000 ) ;
#594 = VERTEX_POINT ( 'NONE', #48 ) ;
#595 = CARTESIAN_POINT ( 'NONE',  ( 0.000000000000000000, 0.000000000000000000, 0.000000000000000000 ) ) ;
#596 = DIRECTION ( 'NONE',  ( -0.8660254037844385966, 0.000000000000000000, -0.4999999999999998890 ) ) ;
#597 = CARTESIAN_POINT ( 'NONE',  ( 13.32960575778387557, 8.846114946941042945, -21.15075065829456591 ) ) ;
#598 = CARTESIAN_POINT ( 'NONE',  ( -14.68562466561326119, 7.506168101053438235, 20.23226638739290451 ) ) ;
#599 = LINE ( 'NONE', #317, #470 ) ;
#600 = EDGE_LOOP ( 'NONE', ( #613, #867 ) ) ;
#601 = EDGE_CURVE ( 'NONE', #452, #965, #315, .T. ) ;
#602 = CIRCLE ( 'NONE', #692, 1.699999999999999734 ) ;
#603 = SURFACE_SIDE_STYLE ('',( #693 ) ) ;
#604 = CARTESIAN_POINT ( 'NONE',  ( 10.88235625423347486, 8.385602741332593979, -22.50779476578750149 ) ) ;
#605 = DIRECTION ( 'NONE',  ( 0.5000000000000001110, -0.000000000000000000, -0.8660254037844385966 ) ) ;
#606 = CARTESIAN_POINT ( 'NONE',  ( -11.17455705533447485, 3.397259632092577863, 22.36416279407615093 ) ) ;
#607 = VERTEX_POINT ( 'NONE', #766 ) ;
#608 = LINE ( 'NONE', #141, #804 ) ;
#609 = DIRECTION ( 'NONE',  ( 0.000000000000000000, 0.000000000000000000, 1.000000000000000000 ) ) ;
#610 = AXIS2_PLACEMENT_3D ( 'NONE', #483, #1024, #400 ) ;
#611 = EDGE_CURVE ( 'NONE', #607, #257, #902, .T. ) ;
#612 = CARTESIAN_POINT ( 'NONE',  ( 21.93171219946132311, 12.00000000000000000, -11.99999999999998579 ) ) ;
#613 = ORIENTED_EDGE ( 'NONE', *, *, #361, .F. ) ;
#614 = ORIENTED_EDGE ( 'NONE', *, *, #222, .T. ) ;
#615 = DIRECTION ( 'NONE',  ( -0.000000000000000000, -1.000000000000000000, -0.000000000000000000 ) ) ;
#616 = EDGE_CURVE ( 'NONE', #696, #436, #1116, .T. ) ;
#617 = ORIENTED_EDGE ( 'NONE', *, *, #328, .F. ) ;
#618 = VERTEX_POINT ( 'NONE', #233 ) ;
#619 =( LENGTH_UNIT ( ) NAMED_UNIT ( * ) SI_UNIT ( .MILLI., .METRE. ) );
#620 =( GEOMETRIC_REPRESENTATION_CONTEXT ( 3 ) GLOBAL_UNCERTAINTY_ASSIGNED_CONTEXT ( ( #958 ) ) GLOBAL_UNIT_ASSIGNED_CONTEXT ( ( #619, #353, #370 ) ) REPRESENTATION_CONTEXT ( 'NONE', 'WORKASPACE' ) );
#621 = DIRECTION ( 'NONE',  ( 0.4999999999999998335, -0.000000000000000000, -0.8660254037844389297 ) ) ;
#622 = CIRCLE ( 'NONE', #930, 4.000000000000010658 ) ;
#623 = EDGE_CURVE ( 'NONE', #580, #712, #659, .T. ) ;
#624 = EDGE_LOOP ( 'NONE', ( #881, #312, #180, #872 ) ) ;
#625 = ORIENTED_EDGE ( 'NONE', *, *, #450, .T. ) ;
#626 = DIRECTION ( 'NONE',  ( 0.7071067811865489050, -0.7071067811865462405, -1.703659351870411087E-17 ) ) ;
#627 = VECTOR ( 'NONE', #615, 1000.000000000000000 ) ;
#628 = ORIENTED_EDGE ( 'NONE', *, *, #138, .F. ) ;
#629 = ORIENTED_EDGE ( 'NONE', *, *, #616, .T. ) ;
#630 = CARTESIAN_POINT ( 'NONE',  ( 0.000000000000000000, 12.00000000000000000, 0.000000000000000000 ) ) ;
#631 = DIRECTION ( 'NONE',  ( 0.000000000000000000, 1.000000000000000000, -0.000000000000000000 ) ) ;
#632 = CARTESIAN_POINT ( 'NONE',  ( 9.126923788646681857, 6.000000000000000000, -21.80829571874508943 ) ) ;
#633 = EDGE_LOOP ( 'NONE', ( #272, #908, #849, #529, #414, #639 ) ) ;
#634 = FACE_OUTER_BOUND ( 'NONE', #440, .T. ) ;
#635 = CARTESIAN_POINT ( 'NONE',  ( -14.99206073557065544, 5.606532866540722360, 20.00598889955800175 ) ) ;
#636 = FACE_BOUND ( 'NONE', #661, .T. ) ;
#637 = DIRECTION ( 'NONE',  ( -0.4999999999999997780, -0.000000000000000000, 0.8660254037844388186 ) ) ;
#638 = CIRCLE ( 'NONE', #1120, 12.00000000000000178 ) ;
#639 = ORIENTED_EDGE ( 'NONE', *, *, #611, .T. ) ;
#640 = CARTESIAN_POINT ( 'NONE',  ( -11.65463149554558697, 3.152896644136626403, 22.11792615900338177 ) ) ;
#641 = CARTESIAN_POINT ( 'NONE',  ( 3.469446951953614189E-15, 0.000000000000000000, 21.30422493309718490 ) ) ;
#642 = CARTESIAN_POINT ( 'NONE',  ( 84.84314575050758833, 40.81370849898470965, -1.734723475976807094E-15 ) ) ;
#643 = CARTESIAN_POINT ( 'NONE',  ( 3.061616997868383043E-15, 0.000000000000000000, 25.00000000000000000 ) ) ;
#644 = VECTOR ( 'NONE', #934, 999.9999999999998863 ) ;
#645 = ORIENTED_EDGE ( 'NONE', *, *, #699, .T. ) ;
#646 = CARTESIAN_POINT ( 'NONE',  ( 93.32842712474617031, 32.32842712474615610, -1.939162598201256782E-15 ) ) ;
#647 = VECTOR ( 'NONE', #675, 1000.000000000000000 ) ;
#648 = FACE_OUTER_BOUND ( 'NONE', #576, .T. ) ;
#649 = LINE ( 'NONE', #1001, #950 ) ;
#650 = ORIENTED_EDGE ( 'NONE', *, *, #119, .F. ) ;
#651 = CARTESIAN_POINT ( 'NONE',  ( 14.04930562038243558, 3.612646988209342602, -20.67954837581649485 ) ) ;
#652 = FACE_OUTER_BOUND ( 'NONE', #379, .T. ) ;
#653 = LINE ( 'NONE', #280, #985 ) ;
#654 = AXIS2_PLACEMENT_3D ( 'NONE', #826, #544, #1076 ) ;
#655 = DIRECTION ( 'NONE',  ( 0.5000000000000001110, -0.000000000000000000, -0.8660254037844385966 ) ) ;
#656 = AXIS2_PLACEMENT_3D ( 'NONE', #1121, #1034, #858 ) ;
#657 = ORIENTED_EDGE ( 'NONE', *, *, #725, .T. ) ;
#658 = DIRECTION ( 'NONE',  ( 0.7071067811865462405, 0.7071067811865489050, 0.000000000000000000 ) ) ;
#659 = LINE ( 'NONE', #494, #203 ) ;
#660 = CARTESIAN_POINT ( 'NONE',  ( -9.224999999999997868, 12.00000000000000000, 15.97816869982289134 ) ) ;
#661 = EDGE_LOOP ( 'NONE', ( #67, #708 ) ) ;
#662 = DIRECTION ( 'NONE',  ( 0.7071067811865460184, 0.7071067811865490160, 0.000000000000000000 ) ) ;
#663 = DIRECTION ( 'NONE',  ( 0.8660254037844385966, 0.000000000000000000, 0.5000000000000001110 ) ) ;
#664 = AXIS2_PLACEMENT_3D ( 'NONE', #279, #542, #456 ) ;
#665 = CARTESIAN_POINT ( 'NONE',  ( 21.93171219946132311, 12.00000000000000000, -11.99999999999998579 ) ) ;
#666 = ORIENTED_EDGE ( 'NONE', *, *, #907, .T. ) ;
#667 = CARTESIAN_POINT ( 'NONE',  ( 52.51471862576152461, 8.485281374238548224, -12.00000000000000178 ) ) ;
#668 = EDGE_CURVE ( 'NONE', #888, #713, #830, .T. ) ;
#669 = CARTESIAN_POINT ( 'NONE',  ( 11.81997176823939633, 8.903826247154480455, -22.03010047667061500 ) ) ;
#670 = DIRECTION ( 'NONE',  ( 0.7071067811865460184, 0.7071067811865490160, 0.000000000000000000 ) ) ;
#671 = DIRECTION ( 'NONE',  ( 0.7071067811865489050, -0.7071067811865462405, -1.703659351870416325E-17 ) ) ;
#672 = ORIENTED_EDGE ( 'NONE', *, *, #1030, .F. ) ;
#673 = MECHANICAL_DESIGN_GEOMETRIC_PRESENTATION_REPRESENTATION (  '', ( #28 ), #857 ) ;
#674 =( LENGTH_UNIT ( ) NAMED_UNIT ( * ) SI_UNIT ( .MILLI., .METRE. ) );
#675 = DIRECTION ( 'NONE',  ( 1.000000000000000000, 0.000000000000000000, -2.409338161078895113E-17 ) ) ;
#676 = CARTESIAN_POINT ( 'NONE',  ( 13.19724318643353911, 6.000000000000000000, -19.45829571874508446 ) ) ;
#677 = CARTESIAN_POINT ( 'NONE',  ( -11.65128905574679052, 8.845815166172569022, 22.11968571569683206 ) ) ;
#678 = VERTEX_POINT ( 'NONE', #846 ) ;
#679 = AXIS2_PLACEMENT_3D ( 'NONE', #511, #621, #428 ) ;
#680 = CARTESIAN_POINT ( 'NONE',  ( 18.44999999999998508, 12.00000000000000000, -6.009258394948625081E-15 ) ) ;
#681 = CARTESIAN_POINT ( 'NONE',  ( 13.63390861448336366, 8.696470528125209043, -20.95588649900570033 ) ) ;
#682 = FACE_OUTER_BOUND ( 'NONE', #540, .T. ) ;
#683 = CARTESIAN_POINT ( 'NONE',  ( 0.000000000000000000, 12.00000000000000000, -25.00000000000000000 ) ) ;
#684 = EDGE_CURVE ( 'NONE', #512, #26, #1145, .T. ) ;
#685 = EDGE_LOOP ( 'NONE', ( #491, #358, #401, #628 ) ) ;
#686 = CARTESIAN_POINT ( 'NONE',  ( -18.44999999999999574, 12.00000000000000000, -10.65211246654859956 ) ) ;
#687 = DIRECTION ( 'NONE',  ( 0.7071067811865462405, 0.7071067811865489050, 0.000000000000000000 ) ) ;
#688 = DIRECTION ( 'NONE',  ( 0.7071067811865457964, 0.7071067811865492381, 0.000000000000000000 ) ) ;
#689 = CARTESIAN_POINT ( 'NONE',  ( 9.953597190129231720, 5.032819315954434991, -22.93319776995946668 ) ) ;
#690 = ORIENTED_EDGE ( 'NONE', *, *, #313, .F. ) ;
#691 = EDGE_CURVE ( 'NONE', #375, #843, #217, .T. ) ;
#692 = AXIS2_PLACEMENT_3D ( 'NONE', #722, #1071, #457 ) ;
#693 = SURFACE_STYLE_FILL_AREA ( #338 ) ;
#694 = CARTESIAN_POINT ( 'NONE',  ( 56.02943725152297816, 12.00000000000000000, 11.99999999999999822 ) ) ;
#695 = DIRECTION ( 'NONE',  ( 0.4999999999999998890, 0.000000000000000000, -0.8660254037844388186 ) ) ;
#696 = VERTEX_POINT ( 'NONE', #488 ) ;
#697 = ORIENTED_EDGE ( 'NONE', *, *, #884, .T. ) ;
#698 = PLANE ( 'NONE',  #656 ) ;
#699 = EDGE_CURVE ( 'NONE', #1003, #512, #762, .T. ) ;
#700 = AXIS2_PLACEMENT_3D ( 'NONE', #854, #671, #235 ) ;
#701 = CARTESIAN_POINT ( 'NONE',  ( 18.44999999999998863, 12.00000000000000000, 10.65211246654859600 ) ) ;
#702 = EDGE_LOOP ( 'NONE', ( #690, #943, #81, #101 ) ) ;
#703 = VECTOR ( 'NONE', #761, 1000.000000000000000 ) ;
#704 = VERTEX_POINT ( 'NONE', #676 ) ;
#705 = EDGE_CURVE ( 'NONE', #1019, #362, #354, .T. ) ;
#706 = DIRECTION ( 'NONE',  ( -0.8660254037844385966, 0.000000000000000000, -0.5000000000000001110 ) ) ;
#707 = ORIENTED_EDGE ( 'NONE', *, *, #119, .T. ) ;
#708 = ORIENTED_EDGE ( 'NONE', *, *, #429, .F. ) ;
#709 = CARTESIAN_POINT ( 'NONE',  ( -13.63390861448336722, 3.303529471874792289, 20.95588649900568967 ) ) ;
#710 = CIRCLE ( 'NONE', #210, 4.000000000000010658 ) ;
#711 = DIRECTION ( 'NONE',  ( -0.8660254037844385966, 0.000000000000000000, -0.5000000000000001110 ) ) ;
#712 = VERTEX_POINT ( 'NONE', #940 ) ;
#713 = VERTEX_POINT ( 'NONE', #1101 ) ;
#714 = CARTESIAN_POINT ( 'NONE',  ( -15.00774985734417299, 6.000000000000000000, 19.99418526020467368 ) ) ;
#715 = DIRECTION ( 'NONE',  ( -3.257050620568364056E-16, 0.000000000000000000, -1.000000000000000000 ) ) ;
#716 = EDGE_CURVE ( 'NONE', #1003, #342, #561, .T. ) ;
#717 = VERTEX_POINT ( 'NONE', #772 ) ;
#718 = VECTOR ( 'NONE', #472, 999.9999999999998863 ) ;
#719 = PLANE ( 'NONE',  #10 ) ;
#720 = CARTESIAN_POINT ( 'NONE',  ( 11.32845546008103810, 3.305057665694581814, -22.28674784957929944 ) ) ;
#721 = DIRECTION ( 'NONE',  ( 0.7071067811865489050, -0.7071067811865462405, -2.896220898179707198E-16 ) ) ;
#722 = CARTESIAN_POINT ( 'NONE',  ( -9.225000000000003197, 6.000000000000000000, 15.97816869982290200 ) ) ;
#723 = ORIENTED_EDGE ( 'NONE', *, *, #361, .T. ) ;
#724 = CARTESIAN_POINT ( 'NONE',  ( -18.44999999999999574, 0.000000000000000000, -10.65211246654859956 ) ) ;
#725 = EDGE_CURVE ( 'NONE', #990, #971, #321, .T. ) ;
#726 = CARTESIAN_POINT ( 'NONE',  ( 11.72499999999999609, 6.000000000000000000, -20.30829571874509654 ) ) ;
#727 = LINE ( 'NONE', #905, #936 ) ;
#728 = DIRECTION ( 'NONE',  ( 0.7071067811865460184, 0.7071067811865490160, 1.776356839400250267E-15 ) ) ;
#729 = CIRCLE ( 'NONE', #287, 3.000000000000001332 ) ;
#730 = EDGE_LOOP ( 'NONE', ( #1, #769, #1141, #800 ) ) ;
#731 = DIRECTION ( 'NONE',  ( 0.7071067811865490160, -0.7071067811865462405, -2.775557561562891351E-17 ) ) ;
#732 = CYLINDRICAL_SURFACE ( 'NONE', #144, 2.999999999999999556 ) ;
#733 = PLANE ( 'NONE',  #307 ) ;
#734 = ORIENTED_EDGE ( 'NONE', *, *, #953, .F. ) ;
#735 = FACE_OUTER_BOUND ( 'NONE', #425, .T. ) ;
#736 = AXIS2_PLACEMENT_3D ( 'NONE', #502, #522, #63 ) ;
#737 = CARTESIAN_POINT ( 'NONE',  ( 93.32842712474617031, 32.32842712474614189, -12.00000000000001599 ) ) ;
#738 = ADVANCED_FACE ( 'NONE', ( #863, #240 ), #1128, .F. ) ;
#739 = CARTESIAN_POINT ( 'NONE',  ( 0.000000000000000000, 0.000000000000000000, 0.000000000000000000 ) ) ;
#740 = EDGE_LOOP ( 'NONE', ( #445, #758, #114, #818 ) ) ;
#741 = CARTESIAN_POINT ( 'NONE',  ( 2.891205793294673889E-16, 12.00000000000000000, 12.00000000000000000 ) ) ;
#742 = DIRECTION ( 'NONE',  ( 0.8660254037844385966, 0.000000000000000000, 0.5000000000000000000 ) ) ;
#743 = CARTESIAN_POINT ( 'NONE',  ( 3.469446951953614189E-15, 12.00000000000000000, 21.30422493309718490 ) ) ;
#744 = VECTOR ( 'NONE', #25, 1000.000000000000000 ) ;
#745 = ADVANCED_FACE ( 'NONE', ( #1021 ), #1115, .T. ) ;
#746 = ORIENTED_EDGE ( 'NONE', *, *, #13, .T. ) ;
#747 = CYLINDRICAL_SURFACE ( 'NONE', #121, 25.00000000000000000 ) ;
#748 = DIRECTION ( 'NONE',  ( -0.4999999999999997780, 8.326672684688670355E-17, 0.8660254037844388186 ) ) ;
#749 = CARTESIAN_POINT ( 'NONE',  ( -10.37770682606202932, 7.830569086165539261, 22.74456668050478569 ) ) ;
#750 = EDGE_LOOP ( 'NONE', ( #251, #96, #645, #86 ) ) ;
#751 = EDGE_CURVE ( 'NONE', #187, #618, #939, .T. ) ;
#752 = VECTOR ( 'NONE', #848, 1000.000000000000000 ) ;
#753 = CARTESIAN_POINT ( 'NONE',  ( 14.92948979085563010, 5.217721641525109533, -20.05272699015978333 ) ) ;
#754 = LINE ( 'NONE', #333, #519 ) ;
#755 = CIRCLE ( 'NONE', #1015, 25.00000000000000000 ) ;
#756 = AXIS2_PLACEMENT_3D ( 'NONE', #1028, #332, #596 ) ;
#757 = CARTESIAN_POINT ( 'NONE',  ( -9.900361814485869161, 6.777918922981979399, 22.95613938105152840 ) ) ;
#758 = ORIENTED_EDGE ( 'NONE', *, *, #907, .F. ) ;
#759 = DIRECTION ( 'NONE',  ( -0.000000000000000000, -1.000000000000000000, -0.000000000000000000 ) ) ;
#760 = EDGE_CURVE ( 'NONE', #363, #990, #845, .T. ) ;
#761 = DIRECTION ( 'NONE',  ( -0.7071067811865489050, 0.7071067811865462405, 1.703659351870416325E-17 ) ) ;
#762 = LINE ( 'NONE', #132, #847 ) ;
#763 = CARTESIAN_POINT ( 'NONE',  ( -9.829203137734454643, 6.390598503761272475, 22.98669756657415775 ) ) ;
#764 = EDGE_LOOP ( 'NONE', ( #552, #1067, #833, #485 ) ) ;
#765 = DIRECTION ( 'NONE',  ( -0.5000000000000001110, 0.000000000000000000, -0.8660254037844387076 ) ) ;
#766 = CARTESIAN_POINT ( 'NONE',  ( 3.061616997868383043E-15, 12.00000000000000000, 25.00000000000000000 ) ) ;
#767 = ADVANCED_FACE ( 'NONE', ( #1122, #155 ), #1134, .T. ) ;
#768 = CARTESIAN_POINT ( 'NONE',  ( -12.32632224796224740, 8.999855167900566499, 21.75088792298303630 ) ) ;
#769 = ORIENTED_EDGE ( 'NONE', *, *, #564, .F. ) ;
#770 =( NAMED_UNIT ( * ) SI_UNIT ( $, .STERADIAN. ) SOLID_ANGLE_UNIT ( ) );
#771 = CIRCLE ( 'NONE', #1033, 1.699999999999999734 ) ;
#772 = CARTESIAN_POINT ( 'NONE',  ( 10.69724318643354444, 6.000000000000000000, -15.12816869982290591 ) ) ;
#773 = CARTESIAN_POINT ( 'NONE',  ( 14.88383176304251698, 6.967804722621642632, -20.08674434382120211 ) ) ;
#774 = LINE ( 'NONE', #1135, #879 ) ;
#775 = PRODUCT_RELATED_PRODUCT_CATEGORY ( 'part', '', ( #980 ) ) ;
#776 = CARTESIAN_POINT ( 'NONE',  ( -9.953371174866099125, 5.033295937863106140, 22.93329754180294344 ) ) ;
#777 = EDGE_CURVE ( 'NONE', #1009, #1146, #247, .T. ) ;
#778 = EDGE_LOOP ( 'NONE', ( #451, #15, #469, #877, #1062, #935 ) ) ;
#779 = PLANE ( 'NONE',  #1064 ) ;
#780 = CARTESIAN_POINT ( 'NONE',  ( 86.85840007688926789, 33.14159992311068237, -6.471096825077408313E-16 ) ) ;
#781 = VERTEX_POINT ( 'NONE', #326 ) ;
#782 = EDGE_LOOP ( 'NONE', ( #264, #374, #569, #152 ) ) ;
#783 = CARTESIAN_POINT ( 'NONE',  ( 86.85840007688926789, 33.14159992311068237, -6.471096825077408313E-16 ) ) ;
#784 = CARTESIAN_POINT ( 'NONE',  ( 12.15782894250803992, 8.980516093254017562, -21.84546303054466065 ) ) ;
#785 = AXIS2_PLACEMENT_3D ( 'NONE', #1118, #236, #855 ) ;
#786 = CYLINDRICAL_SURFACE ( 'NONE', #182, 1.700000000000001288 ) ;
#787 = VERTEX_POINT ( 'NONE', #694 ) ;
#788 = VERTEX_POINT ( 'NONE', #56 ) ;
#789 = EDGE_CURVE ( 'NONE', #990, #292, #411, .T. ) ;
#790 = FACE_OUTER_BOUND ( 'NONE', #1098, .T. ) ;
#791 = CIRCLE ( 'NONE', #1126, 1.699999999999999734 ) ;
#792 = VECTOR ( 'NONE', #384, 1000.000000000000000 ) ;
#793 = CARTESIAN_POINT ( 'NONE',  ( 21.93171219946131245, 12.00000000000000000, 12.00000000000000000 ) ) ;
#794 = EDGE_LOOP ( 'NONE', ( #330, #629, #346, #534, #286, #964 ) ) ;
#795 = AXIS2_PLACEMENT_3D ( 'NONE', #227, #655, #1097 ) ;
#796 = ORIENTED_EDGE ( 'NONE', *, *, #777, .F. ) ;
#797 = DIRECTION ( 'NONE',  ( 0.000000000000000000, 1.000000000000000000, -0.000000000000000000 ) ) ;
#798 = CARTESIAN_POINT ( 'NONE',  ( -13.77991571388942305, 3.396603773661027059, 20.86003184013591749 ) ) ;
#799 = DIRECTION ( 'NONE',  ( -0.8660254037844389297, 0.000000000000000000, -0.4999999999999996669 ) ) ;
#800 = ORIENTED_EDGE ( 'NONE', *, *, #499, .T. ) ;
#801 = EDGE_LOOP ( 'NONE', ( #1051, #172 ) ) ;
#802 = VECTOR ( 'NONE', #117, 1000.000000000000000 ) ;
#803 = CARTESIAN_POINT ( 'NONE',  ( 10.49095014574746543, 4.018474560390265182, -22.69271236319301011 ) ) ;
#804 = VECTOR ( 'NONE', #759, 1000.000000000000000 ) ;
#805 = FACE_OUTER_BOUND ( 'NONE', #750, .T. ) ;
#806 = EDGE_CURVE ( 'NONE', #696, #173, #998, .T. ) ;
#807 = ORIENTED_EDGE ( 'NONE', *, *, #105, .T. ) ;
#808 = VERTEX_POINT ( 'NONE', #169 ) ;
#809 = FACE_BOUND ( 'NONE', #352, .T. ) ;
#810 = CARTESIAN_POINT ( 'NONE',  ( -14.05295302173815308, 3.615912496504809504, 20.67707708604389083 ) ) ;
#811 = CARTESIAN_POINT ( 'NONE',  ( 7.752756813566449523, 6.000000000000000000, -16.82816869982290697 ) ) ;
#812 = CARTESIAN_POINT ( 'NONE',  ( 18.44999999999998508, 0.000000000000000000, -6.009258394948625081E-15 ) ) ;
#813 = ADVANCED_FACE ( 'NONE', ( #869 ), #82, .F. ) ;
#814 = VERTEX_POINT ( 'NONE', #643 ) ;
#815 = VECTOR ( 'NONE', #538, 1000.000000000000000 ) ;
#816 = DIRECTION ( 'NONE',  ( 0.8660254037844397068, 0.000000000000000000, 0.4999999999999980571 ) ) ;
#817 = CARTESIAN_POINT ( 'NONE',  ( 56.02943725152297816, 12.00000000000000000, 8.099631678832223887E-15 ) ) ;
#818 = ORIENTED_EDGE ( 'NONE', *, *, #1089, .T. ) ;
#819 = CARTESIAN_POINT ( 'NONE',  ( 13.77774334765611464, 3.395202013746239977, -20.86145962507806928 ) ) ;
#820 = LINE ( 'NONE', #892, #475 ) ;
#821 = ORIENTED_EDGE ( 'NONE', *, *, #237, .F. ) ;
#822 = EDGE_LOOP ( 'NONE', ( #1133, #345, #385, #1107 ) ) ;
#823 = ADVANCED_FACE ( 'NONE', ( #468 ), #1077, .F. ) ;
#824 = LINE ( 'NONE', #834, #137 ) ;
#825 = CARTESIAN_POINT ( 'NONE',  ( 36.27874467205164422, 6.000000000000000000, -62.83662900681219554 ) ) ;
#826 = CARTESIAN_POINT ( 'NONE',  ( 90.49999999999998579, 29.49999999999997158, -7.348481391290673266E-16 ) ) ;
#827 = AXIS2_PLACEMENT_3D ( 'NONE', #825, #377, #816 ) ;
#828 = EDGE_LOOP ( 'NONE', ( #666, #861 ) ) ;
#829 = CARTESIAN_POINT ( 'NONE',  ( -14.32307621135332276, 6.000000000000000000, 18.80829571874509298 ) ) ;
#830 = LINE ( 'NONE', #853, #903 ) ;
#831 = EDGE_CURVE ( 'NONE', #704, #717, #496, .T. ) ;
#832 = DIRECTION ( 'NONE',  ( 0.8660254037844385966, 0.000000000000000000, -0.5000000000000001110 ) ) ;
#833 = ORIENTED_EDGE ( 'NONE', *, *, #39, .T. ) ;
#834 = CARTESIAN_POINT ( 'NONE',  ( 18.44999999999998863, 12.00000000000000000, 10.65211246654859600 ) ) ;
#835 = CYLINDRICAL_SURFACE ( 'NONE', #1055, 12.00000000000000178 ) ;
#836 = EDGE_CURVE ( 'NONE', #894, #704, #941, .T. ) ;
#837 = DIRECTION ( 'NONE',  ( -0.7071067811865487940, 0.7071067811865462405, -1.022195611122254849E-16 ) ) ;
#838 = AXIS2_PLACEMENT_3D ( 'NONE', #739, #1096, #1084 ) ;
#839 = VERTEX_POINT ( 'NONE', #683 ) ;
#840 = DIRECTION ( 'NONE',  ( -0.000000000000000000, -1.000000000000000000, -0.000000000000000000 ) ) ;
#841 = DIRECTION ( 'NONE',  ( -2.891205793294678326E-16, 0.000000000000000000, -1.000000000000000000 ) ) ;
#842 = CARTESIAN_POINT ( 'NONE',  ( -14.50646119894264530, 7.833854945561983918, 20.36110896963297989 ) ) ;
#843 = VERTEX_POINT ( 'NONE', #243 ) ;
#844 = AXIS2_PLACEMENT_3D ( 'NONE', #1060, #349, #527 ) ;
#845 = LINE ( 'NONE', #680, #113 ) ;
#846 = CARTESIAN_POINT ( 'NONE',  ( 3.469446951953614189E-15, 12.00000000000000000, 21.30422493309718490 ) ) ;
#847 = VECTOR ( 'NONE', #327, 1000.000000000000114 ) ;
#848 = DIRECTION ( 'NONE',  ( -0.000000000000000000, -1.000000000000000000, -0.000000000000000000 ) ) ;
#849 = ORIENTED_EDGE ( 'NONE', *, *, #163, .F. ) ;
#850 = EDGE_CURVE ( 'NONE', #607, #814, #599, .T. ) ;
#851 = CARTESIAN_POINT ( 'NONE',  ( 86.85840007688926789, 33.14159992311068237, -6.471096825077408313E-16 ) ) ;
#852 = CARTESIAN_POINT ( 'NONE',  ( 11.33152875668725379, 8.696647084667336713, -22.28518675955979944 ) ) ;
#853 = CARTESIAN_POINT ( 'NONE',  ( 79.18629150101521930, 35.15685424949231930, -4.055029724567581353E-17 ) ) ;
#854 = CARTESIAN_POINT ( 'NONE',  ( 82.01471862576141802, 37.98528137423851803, -5.304090169046175401E-16 ) ) ;
#855 = DIRECTION ( 'NONE',  ( 0.8660254037844389297, 0.000000000000000000, 0.4999999999999996669 ) ) ;
#856 = ORIENTED_EDGE ( 'NONE', *, *, #394, .F. ) ;
#857 =( GEOMETRIC_REPRESENTATION_CONTEXT ( 3 ) GLOBAL_UNCERTAINTY_ASSIGNED_CONTEXT ( ( #252 ) ) GLOBAL_UNIT_ASSIGNED_CONTEXT ( ( #674, #1139, #770 ) ) REPRESENTATION_CONTEXT ( 'NONE', 'WORKASPACE' ) );
#858 = DIRECTION ( 'NONE',  ( 0.8660254037844384856, 0.000000000000000000, 0.5000000000000002220 ) ) ;
#859 = CARTESIAN_POINT ( 'NONE',  ( 14.50923789644119744, 7.829303674214466824, -20.35912543049340684 ) ) ;
#860 = CARTESIAN_POINT ( 'NONE',  ( -8.673617379884035472E-15, 12.00000000000000000, -21.30422493309719201 ) ) ;
#861 = ORIENTED_EDGE ( 'NONE', *, *, #208, .T. ) ;
#862 = FACE_OUTER_BOUND ( 'NONE', #822, .T. ) ;
#863 = FACE_OUTER_BOUND ( 'NONE', #95, .T. ) ;
#864 = DIRECTION ( 'NONE',  ( 0.8660254037844385966, 0.000000000000000000, 0.5000000000000001110 ) ) ;
#865 = AXIS2_PLACEMENT_3D ( 'NONE', #886, #631, #98 ) ;
#866 = CARTESIAN_POINT ( 'NONE',  ( 10.37770682606202399, 4.169430913834460739, -22.74456668050479990 ) ) ;
#867 = ORIENTED_EDGE ( 'NONE', *, *, #836, .F. ) ;
#868 = CARTESIAN_POINT ( 'NONE',  ( 9.224999999999997868, 12.00000000000000000, 15.97816869982288779 ) ) ;
#869 = FACE_OUTER_BOUND ( 'NONE', #782, .T. ) ;
#870 = DIRECTION ( 'NONE',  ( 0.7071067811865457964, 0.7071067811865492381, 0.000000000000000000 ) ) ;
#871 = ADVANCED_FACE ( 'NONE', ( #986, #975 ), #553, .F. ) ;
#872 = ORIENTED_EDGE ( 'NONE', *, *, #1030, .T. ) ;
#873 = ORIENTED_EDGE ( 'NONE', *, *, #429, .T. ) ;
#874 = PRODUCT_CONTEXT ( 'NONE', #267, 'mechanical' ) ;
#875 = VECTOR ( 'NONE', #476, 1000.000000000000000 ) ;
#876 = CARTESIAN_POINT ( 'NONE',  ( 56.02943725152297816, 12.00000000000000000, -12.00000000000000000 ) ) ;
#877 = ORIENTED_EDGE ( 'NONE', *, *, #416, .F. ) ;
#878 = ORIENTED_EDGE ( 'NONE', *, *, #831, .F. ) ;
#879 = VECTOR ( 'NONE', #605, 1000.000000000000000 ) ;
#880 = CYLINDRICAL_SURFACE ( 'NONE', #533, 7.999999999999991118 ) ;
#881 = ORIENTED_EDGE ( 'NONE', *, *, #585, .F. ) ;
#882 = ORIENTED_EDGE ( 'NONE', *, *, #967, .F. ) ;
#883 = APPLICATION_PROTOCOL_DEFINITION ( 'draft international standard', 'automotive_design', 1998, #170 ) ;
#884 = EDGE_CURVE ( 'NONE', #452, #375, #296, .T. ) ;
#885 = CARTESIAN_POINT ( 'NONE',  ( -15.00774985734417299, 6.000000000000000000, 19.99418526020467368 ) ) ;
#886 = CARTESIAN_POINT ( 'NONE',  ( 0.000000000000000000, 0.000000000000000000, 0.000000000000000000 ) ) ;
#887 = CARTESIAN_POINT ( 'NONE',  ( 12.33133009322192919, 9.000071578937197003, -21.74802662896128780 ) ) ;
#888 = VERTEX_POINT ( 'NONE', #1131 ) ;
#889 = ORIENTED_EDGE ( 'NONE', *, *, #269, .T. ) ;
#890 = CIRCLE ( 'NONE', #543, 12.00000000000000178 ) ;
#891 = CARTESIAN_POINT ( 'NONE',  ( -9.811597434637540971, 5.804116260729947463, 22.99418526020467723 ) ) ;
#892 = CARTESIAN_POINT ( 'NONE',  ( -18.44999999999999218, 0.000000000000000000, 6.009258394948629025E-15 ) ) ;
#893 = CYLINDRICAL_SURFACE ( 'NONE', #8, 12.00000000000000178 ) ;
#894 = VERTEX_POINT ( 'NONE', #103 ) ;
#895 = CARTESIAN_POINT ( 'NONE',  ( -4.915049848600936342E-15, 12.00000000000000000, -11.99999999999997691 ) ) ;
#896 = CARTESIAN_POINT ( 'NONE',  ( -13.32960575778387913, 3.153885053058959720, 21.15075065829455525 ) ) ;
#897 = LINE ( 'NONE', #322, #1108 ) ;
#898 = VECTOR ( 'NONE', #218, 999.9999999999998863 ) ;
#899 = EDGE_CURVE ( 'NONE', #342, #1003, #501, .T. ) ;
#900 = LINE ( 'NONE', #817, #744 ) ;
#901 = ORIENTED_EDGE ( 'NONE', *, *, #262, .F. ) ;
#902 = CIRCLE ( 'NONE', #407, 25.00000000000000000 ) ;
#903 = VECTOR ( 'NONE', #584, 1000.000000000000000 ) ;
#904 = DIRECTION ( 'NONE',  ( -0.4999999999999997780, 0.000000000000000000, 0.8660254037844388186 ) ) ;
#905 = CARTESIAN_POINT ( 'NONE',  ( 52.51471862576151750, 8.485281374238544672, 11.99999999999999822 ) ) ;
#906 = LINE ( 'NONE', #479, #1005 ) ;
#907 = EDGE_CURVE ( 'NONE', #580, #888, #622, .T. ) ;
#908 = ORIENTED_EDGE ( 'NONE', *, *, #153, .T. ) ;
#909 = LINE ( 'NONE', #667, #435 ) ;
#910 = LINE ( 'NONE', #122, #718 ) ;
#911 = PRODUCT_DEFINITION_FORMATION_WITH_SPECIFIED_SOURCE ( 'ANY', '', #980, .NOT_KNOWN. ) ;
#912 = DIRECTION ( 'NONE',  ( 0.8660254037844385966, 0.000000000000000000, 0.5000000000000000000 ) ) ;
#913 = ORIENTED_EDGE ( 'NONE', *, *, #490, .T. ) ;
#914 = EDGE_CURVE ( 'NONE', #788, #1009, #638, .T. ) ;
#915 = DIRECTION ( 'NONE',  ( -0.4999999999999998890, -0.000000000000000000, 0.8660254037844388186 ) ) ;
#916 = DIRECTION ( 'NONE',  ( 0.7071067811865465735, 0.7071067811865483499, 0.000000000000000000 ) ) ;
#917 = CARTESIAN_POINT ( 'NONE',  ( 30.50000000000017408, -30.50000000000006040, 4.409088834774425456E-15 ) ) ;
#918 = EDGE_LOOP ( 'NONE', ( #1091, #957, #1025, #539 ) ) ;
#919 = CARTESIAN_POINT ( 'NONE',  ( -9.225000000000003197, 12.00000000000000000, -15.97816869982289489 ) ) ;
#920 = ADVANCED_FACE ( 'NONE', ( #392, #999 ), #747, .T. ) ;
#921 = DIRECTION ( 'NONE',  ( 0.5000000000000001110, -0.000000000000000000, -0.8660254037844385966 ) ) ;
#922 = CARTESIAN_POINT ( 'NONE',  ( -12.15627636999896310, 8.980234801956973101, 21.84632080287949663 ) ) ;
#923 = ORIENTED_EDGE ( 'NONE', *, *, #914, .F. ) ;
#924 = FACE_OUTER_BOUND ( 'NONE', #730, .T. ) ;
#925 = CARTESIAN_POINT ( 'NONE',  ( -4.915049848600936342E-15, 0.000000000000000000, -11.99999999999997691 ) ) ;
#926 = CARTESIAN_POINT ( 'NONE',  ( -13.16545451782866749, 8.904782571364433963, 21.25341457416861601 ) ) ;
#927 = EDGE_CURVE ( 'NONE', #306, #89, #909, .T. ) ;
#928 = DIRECTION ( 'NONE',  ( -0.000000000000000000, -1.000000000000000000, -0.000000000000000000 ) ) ;
#929 = ORIENTED_EDGE ( 'NONE', *, *, #289, .F. ) ;
#930 = AXIS2_PLACEMENT_3D ( 'NONE', #398, #731, #294 ) ;
#931 = CARTESIAN_POINT ( 'NONE',  ( 12.83764840954448161, 3.019196166699206429, -21.45300927691540593 ) ) ;
#932 = DIRECTION ( 'NONE',  ( 0.7071067811865489050, -0.7071067811865462405, 1.022195611122254849E-16 ) ) ;
#933 = DIRECTION ( 'NONE',  ( 0.7071067811865489050, -0.7071067811865462405, -1.703659351870416325E-17 ) ) ;
#934 = DIRECTION ( 'NONE',  ( 0.8660254037844387076, 0.000000000000000000, 0.4999999999999999445 ) ) ;
#935 = ORIENTED_EDGE ( 'NONE', *, *, #751, .T. ) ;
#936 = VECTOR ( 'NONE', #29, 1000.000000000000000 ) ;
#937 = AXIS2_PLACEMENT_3D ( 'NONE', #229, #158, #832 ) ;
#938 = PLANE ( 'NONE',  #1007 ) ;
#939 = LINE ( 'NONE', #69, #647 ) ;
#940 = CARTESIAN_POINT ( 'NONE',  ( 89.68682720163545241, 35.97002704785689531, -6.471096825077407327E-16 ) ) ;
#941 = CIRCLE ( 'NONE', #785, 1.700000000000001288 ) ;
#942 = CARTESIAN_POINT ( 'NONE',  ( -9.811597434637540971, 6.000000000000000000, 22.99418526020467723 ) ) ;
#943 = ORIENTED_EDGE ( 'NONE', *, *, #52, .T. ) ;
#944 = EDGE_CURVE ( 'NONE', #965, #843, #729, .T. ) ;
#945 = FACE_OUTER_BOUND ( 'NONE', #918, .T. ) ;
#946 = CARTESIAN_POINT ( 'NONE',  ( 10.09211246395548933, 7.329965160827347503, -22.87258183722150306 ) ) ;
#947 = CARTESIAN_POINT ( 'NONE',  ( 12.83811254486025355, 8.980859953310886823, -21.45274811465020903 ) ) ;
#948 = CARTESIAN_POINT ( 'NONE',  ( -14.76130376310615766, 7.331964427269373807, 20.17695723308834133 ) ) ;
#949 = ORIENTED_EDGE ( 'NONE', *, *, #313, .T. ) ;
#950 = VECTOR ( 'NONE', #637, 1000.000000000000114 ) ;
#951 = AXIS2_PLACEMENT_3D ( 'NONE', #895, #102, #2 ) ;
#952 = PLANE ( 'NONE',  #159 ) ;
#953 = EDGE_CURVE ( 'NONE', #363, #1057, #824, .T. ) ;
#954 = CARTESIAN_POINT ( 'NONE',  ( 9.829799759254154168, 6.394866846578684871, -22.98644236401819541 ) ) ;
#955 = DIRECTION ( 'NONE',  ( 0.7071067811865489050, -0.7071067811865462405, -1.703659351870416325E-17 ) ) ;
#956 = CARTESIAN_POINT ( 'NONE',  ( 10.09140553327721612, 4.671771024841771869, -22.87289206336540914 ) ) ;
#957 = ORIENTED_EDGE ( 'NONE', *, *, #188, .F. ) ;
#958 = UNCERTAINTY_MEASURE_WITH_UNIT (LENGTH_MEASURE( 1.000000000000000082E-05 ), #619, 'distance_accuracy_value', 'NONE');
#959 = DIRECTION ( 'NONE',  ( 0.5000000000000001110, -0.000000000000000000, -0.8660254037844385966 ) ) ;
#960 = CARTESIAN_POINT ( 'NONE',  ( 10.37759244530201563, 7.830220940732461443, -22.74461451702192250 ) ) ;
#961 = EDGE_CURVE ( 'NONE', #971, #225, #216, .T. ) ;
#962 = DIRECTION ( 'NONE',  ( 3.257050620568364549E-16, 0.000000000000000000, 1.000000000000000000 ) ) ;
#963 = AXIS2_PLACEMENT_3D ( 'NONE', #1029, #57, #566 ) ;
#964 = ORIENTED_EDGE ( 'NONE', *, *, #499, .F. ) ;
#965 = VERTEX_POINT ( 'NONE', #829 ) ;
#966 = CARTESIAN_POINT ( 'NONE',  ( 86.85840007688926789, 33.14159992311068237, -6.471096825077408313E-16 ) ) ;
#967 = EDGE_CURVE ( 'NONE', #678, #363, #1020, .T. ) ;
#968 = ORIENTED_EDGE ( 'NONE', *, *, #71, .F. ) ;
#969 = EDGE_LOOP ( 'NONE', ( #160, #124, #88, #1038, #1125 ) ) ;
#970 = LINE ( 'NONE', #860, #627 ) ;
#971 = VERTEX_POINT ( 'NONE', #577 ) ;
#972 = ORIENTED_EDGE ( 'NONE', *, *, #623, .F. ) ;
#973 = DIRECTION ( 'NONE',  ( 0.000000000000000000, 0.000000000000000000, 1.000000000000000000 ) ) ;
#974 = VECTOR ( 'NONE', #1094, 1000.000000000000000 ) ;
#975 = FACE_BOUND ( 'NONE', #600, .T. ) ;
#976 = CARTESIAN_POINT ( 'NONE',  ( -11.72500000000000497, 6.000000000000000000, 20.30829571874510009 ) ) ;
#977 = ORIENTED_EDGE ( 'NONE', *, *, #245, .F. ) ;
#978 = ORIENTED_EDGE ( 'NONE', *, *, #836, .T. ) ;
#979 = ADVANCED_FACE ( 'NONE', ( #735 ), #487, .T. ) ;
#980 = PRODUCT ( 'Arm2', 'Arm2', '', ( #874 ) ) ;
#981 = CARTESIAN_POINT ( 'NONE',  ( -14.93048187665854520, 5.222836475322634620, 20.05198713043292358 ) ) ;
#982 = CARTESIAN_POINT ( 'NONE',  ( -10.25275681356645840, 6.000000000000000000, 21.15829571874509796 ) ) ;
#983 = FACE_OUTER_BOUND ( 'NONE', #118, .T. ) ;
#984 = ORIENTED_EDGE ( 'NONE', *, *, #275, .T. ) ;
#985 = VECTOR ( 'NONE', #560, 1000.000000000000000 ) ;
#986 = FACE_OUTER_BOUND ( 'NONE', #176, .T. ) ;
#987 = ADVANCED_FACE ( 'NONE', ( #221 ), #131, .F. ) ;
#988 = DIRECTION ( 'NONE',  ( 0.8660254037844388186, 0.000000000000000000, 0.4999999999999997224 ) ) ;
#989 = LINE ( 'NONE', #197, #100 ) ;
#990 = VERTEX_POINT ( 'NONE', #42 ) ;
#991 = CARTESIAN_POINT ( 'NONE',  ( -10.88235625423348374, 3.614397258667406465, 22.50779476578749083 ) ) ;
#992 = DIRECTION ( 'NONE',  ( -0.4999999999999998335, -0.000000000000000000, 0.8660254037844389297 ) ) ;
#993 = ADVANCED_FACE ( 'NONE', ( #924, #1099 ), #226, .T. ) ;
#994 = VECTOR ( 'NONE', #1144, 1000.000000000000000 ) ;
#995 = DIRECTION ( 'NONE',  ( -0.4999999999999998335, 0.000000000000000000, 0.8660254037844389297 ) ) ;
#996 = MANIFOLD_SOLID_BREP ( 'Mirror1', #157 ) ;
#997 = EDGE_LOOP ( 'NONE', ( #856, #672, #1119, #220 ) ) ;
#998 = CIRCLE ( 'NONE', #408, 25.00000000000000000 ) ;
#999 = FACE_BOUND ( 'NONE', #801, .T. ) ;
#1000 = DIRECTION ( 'NONE',  ( -0.4999999999999997224, 0.000000000000000000, 0.8660254037844388186 ) ) ;
#1001 = CARTESIAN_POINT ( 'NONE',  ( 34.80650148561809942, 6.000000000000000000, -63.68662900681219696 ) ) ;
#1002 = EDGE_CURVE ( 'NONE', #207, #808, #608, .T. ) ;
#1003 = VERTEX_POINT ( 'NONE', #211 ) ;
#1004 = CARTESIAN_POINT ( 'NONE',  ( 0.000000000000000000, 12.00000000000000000, 0.000000000000000000 ) ) ;
#1005 = VECTOR ( 'NONE', #191, 1000.000000000000000 ) ;
#1006 = DIRECTION ( 'NONE',  ( 0.7071067811865489050, -0.7071067811865462405, -1.703659351870416325E-17 ) ) ;
#1007 = AXIS2_PLACEMENT_3D ( 'NONE', #851, #500, #161 ) ;
#1008 = ORIENTED_EDGE ( 'NONE', *, *, #1089, .F. ) ;
#1009 = VERTEX_POINT ( 'NONE', #232 ) ;
#1010 = ADVANCED_FACE ( 'NONE', ( #1053 ), #779, .T. ) ;
#1011 = CARTESIAN_POINT ( 'NONE',  ( 14.17693911075857471, 3.739100510140858535, -20.59207776612042551 ) ) ;
#1012 = CARTESIAN_POINT ( 'NONE',  ( 11.72499999999999609, 6.000000000000000000, -20.30829571874509654 ) ) ;
#1013 = CARTESIAN_POINT ( 'NONE',  ( 84.84314575050758833, 40.81370849898471675, -1.219928570195652203E-14 ) ) ;
#1014 = ORIENTED_EDGE ( 'NONE', *, *, #328, .T. ) ;
#1015 = AXIS2_PLACEMENT_3D ( 'NONE', #503, #1110, #412 ) ;
#1016 = CARTESIAN_POINT ( 'NONE',  ( 15.00774985734416944, 6.000000000000000000, -19.99418526020468079 ) ) ;
#1017 = FACE_OUTER_BOUND ( 'NONE', #301, .T. ) ;
#1018 = PLANE ( 'NONE',  #937 ) ;
#1019 = VERTEX_POINT ( 'NONE', #55 ) ;
#1020 = LINE ( 'NONE', #387, #1082 ) ;
#1021 = FACE_OUTER_BOUND ( 'NONE', #685, .T. ) ;
#1022 = CARTESIAN_POINT ( 'NONE',  ( 61.00000000000010658, 0.000000000000000000, -1.763635533909756930E-14 ) ) ;
#1023 = ADVANCED_FACE ( 'NONE', ( #410, #154 ), #938, .T. ) ;
#1024 = DIRECTION ( 'NONE',  ( 0.7071067811865490160, -0.7071067811865462405, -2.775557561562891351E-17 ) ) ;
#1025 = ORIENTED_EDGE ( 'NONE', *, *, #967, .T. ) ;
#1026 = COLOUR_RGB ( '',0.7921568627450980005, 0.8196078431372548767, 0.9333333333333333481 ) ;
#1027 = SURFACE_STYLE_USAGE ( .BOTH. , #603 ) ;
#1028 = CARTESIAN_POINT ( 'NONE',  ( -9.224999999999997868, 12.00000000000000000, 15.97816869982289134 ) ) ;
#1029 = CARTESIAN_POINT ( 'NONE',  ( -17.07531754730548457, 6.000000000000000000, 29.57531754730548101 ) ) ;
#1030 = EDGE_CURVE ( 'NONE', #225, #1142, #521, .T. ) ;
#1031 = CARTESIAN_POINT ( 'NONE',  ( -18.44999999999998863, 12.00000000000000000, 10.65211246654859956 ) ) ;
#1032 = ORIENTED_EDGE ( 'NONE', *, *, #601, .F. ) ;
#1033 = AXIS2_PLACEMENT_3D ( 'NONE', #263, #87, #864 ) ;
#1034 = DIRECTION ( 'NONE',  ( 0.5000000000000003331, 0.000000000000000000, -0.8660254037844385966 ) ) ;
#1035 = CARTESIAN_POINT ( 'NONE',  ( 9.900875102727811239, 6.779675767918700302, -22.95591793114681423 ) ) ;
#1036 = CARTESIAN_POINT ( 'NONE',  ( 14.68689345840858529, 7.503308110438693390, -20.23134037011497099 ) ) ;
#1037 = CARTESIAN_POINT ( 'NONE',  ( -11.17443157850630975, 8.602696401920411517, 22.36422837575526401 ) ) ;
#1038 = ORIENTED_EDGE ( 'NONE', *, *, #4, .F. ) ;
#1039 = PRODUCT_DEFINITION_CONTEXT ( 'detailed design', #170, 'design' ) ;
#1040 = CARTESIAN_POINT ( 'NONE',  ( -17.07531754730548457, 6.000000000000000000, 29.57531754730548101 ) ) ;
#1041 = DIRECTION ( 'NONE',  ( -3.257050620568364056E-16, 0.000000000000000000, -1.000000000000000000 ) ) ;
#1042 = DIRECTION ( 'NONE',  ( 0.7071067811865489050, -0.7071067811865462405, -1.703659351870416325E-17 ) ) ;
#1043 = CARTESIAN_POINT ( 'NONE',  ( 10.17705333181314487, 4.497219937706965709, -22.83505414780210785 ) ) ;
#1044 = ORIENTED_EDGE ( 'NONE', *, *, #389, .T. ) ;
#1045 = CIRCLE ( 'NONE', #654, 7.999999999999991118 ) ;
#1046 = ADVANCED_FACE ( 'NONE', ( #862 ), #253, .F. ) ;
#1047 = DIRECTION ( 'NONE',  ( -0.000000000000000000, -1.000000000000000000, -0.000000000000000000 ) ) ;
#1048 = CARTESIAN_POINT ( 'NONE',  ( 18.44999999999998153, 12.00000000000000000, -10.65211246654861377 ) ) ;
#1049 = DIRECTION ( 'NONE',  ( 0.4999999999999998890, 0.000000000000000000, -0.8660254037844388186 ) ) ;
#1050 = ORIENTED_EDGE ( 'NONE', *, *, #884, .F. ) ;
#1051 = ORIENTED_EDGE ( 'NONE', *, *, #716, .T. ) ;
#1052 = CIRCLE ( 'NONE', #844, 11.99999999999999645 ) ;
#1053 = FACE_OUTER_BOUND ( 'NONE', #997, .T. ) ;
#1054 = DIRECTION ( 'NONE',  ( 0.5000000000000001110, -0.000000000000000000, -0.8660254037844385966 ) ) ;
#1055 = AXIS2_PLACEMENT_3D ( 'NONE', #482, #44, #670 ) ;
#1056 = AXIS2_PLACEMENT_3D ( 'NONE', #1012, #573, #742 ) ;
#1057 = VERTEX_POINT ( 'NONE', #246 ) ;
#1058 = ORIENTED_EDGE ( 'NONE', *, *, #394, .T. ) ;
#1059 = DIRECTION ( 'NONE',  ( 1.000000000000000000, 0.000000000000000000, 0.000000000000000000 ) ) ;
#1060 = CARTESIAN_POINT ( 'NONE',  ( 93.32842712474617031, 32.32842712474614899, -1.567475077977217461E-14 ) ) ;
#1061 = ADVANCED_FACE ( 'NONE', ( #239, #168 ), #952, .F. ) ;
#1062 = ORIENTED_EDGE ( 'NONE', *, *, #138, .T. ) ;
#1063 = ORIENTED_EDGE ( 'NONE', *, *, #297, .F. ) ;
#1064 = AXIS2_PLACEMENT_3D ( 'NONE', #259, #331, #1113 ) ;
#1065 = CARTESIAN_POINT ( 'NONE',  ( 9.811597434637535642, 5.804162980577350694, -22.99418526020468079 ) ) ;
#1066 = CARTESIAN_POINT ( 'NONE',  ( -15.00774985734417299, 6.000000000000000000, 19.99418526020467368 ) ) ;
#1067 = ORIENTED_EDGE ( 'NONE', *, *, #530, .T. ) ;
#1068 = VERTEX_POINT ( 'NONE', #75 ) ;
#1069 = CARTESIAN_POINT ( 'NONE',  ( -11.81997176823940165, 3.096173752845517768, 22.03010047667061500 ) ) ;
#1070 = LINE ( 'NONE', #737, #219 ) ;
#1071 = DIRECTION ( 'NONE',  ( -0.4999999999999997780, 8.326672684688670355E-17, 0.8660254037844388186 ) ) ;
#1072 = ORIENTED_EDGE ( 'NONE', *, *, #230, .F. ) ;
#1073 = DIRECTION ( 'NONE',  ( 0.000000000000000000, 0.000000000000000000, 1.000000000000000000 ) ) ;
#1074 = CARTESIAN_POINT ( 'NONE',  ( -9.811597434637540971, 6.000000000000000000, 22.99418526020467723 ) ) ;
#1075 = DIRECTION ( 'NONE',  ( 3.257050620568364549E-16, 0.000000000000000000, 1.000000000000000000 ) ) ;
#1076 = DIRECTION ( 'NONE',  ( 0.7071067811865457964, 0.7071067811865492381, 0.000000000000000000 ) ) ;
#1077 = CYLINDRICAL_SURFACE ( 'NONE', #299, 4.000000000000010658 ) ;
#1078 = EDGE_LOOP ( 'NONE', ( #1014, #949 ) ) ;
#1079 = DIRECTION ( 'NONE',  ( 0.8660254037844397068, 0.000000000000000000, 0.4999999999999980571 ) ) ;
#1080 = ADVANCED_FACE ( 'NONE', ( #945 ), #415, .T. ) ;
#1081 = CARTESIAN_POINT ( 'NONE',  ( -15.00774985734417299, 5.801590424920698652, 19.99418526020467723 ) ) ;
#1082 = VECTOR ( 'NONE', #1104, 999.9999999999998863 ) ;
#1083 = CARTESIAN_POINT ( 'NONE',  ( 2.891205793294673889E-16, 12.00000000000000000, 12.00000000000000000 ) ) ;
#1084 = DIRECTION ( 'NONE',  ( 0.000000000000000000, 0.000000000000000000, 1.000000000000000000 ) ) ;
#1085 = ORIENTED_EDGE ( 'NONE', *, *, #21, .T. ) ;
#1086 = CARTESIAN_POINT ( 'NONE',  ( 14.68562466561325230, 4.493831898946555548, -20.23226638739290806 ) ) ;
#1087 = DIRECTION ( 'NONE',  ( 0.8660254037844383745, 0.000000000000000000, 0.5000000000000005551 ) ) ;
#1088 = AXIS2_PLACEMENT_3D ( 'NONE', #1013, #837, #224 ) ;
#1089 = EDGE_CURVE ( 'NONE', #712, #713, #710, .T. ) ;
#1090 = CARTESIAN_POINT ( 'NONE',  ( 0.000000000000000000, 0.000000000000000000, -25.00000000000000000 ) ) ;
#1091 = ORIENTED_EDGE ( 'NONE', *, *, #477, .F. ) ;
#1092 = VECTOR ( 'NONE', #514, 1000.000000000000000 ) ;
#1093 = CARTESIAN_POINT ( 'NONE',  ( 18.44999999999998508, 12.00000000000000000, -6.009258394948625081E-15 ) ) ;
#1094 = DIRECTION ( 'NONE',  ( 1.000000000000000000, 0.000000000000000000, -2.409338161078895113E-17 ) ) ;
#1095 = ADVANCED_FACE ( 'NONE', ( #507, #348 ), #698, .F. ) ;
#1096 = DIRECTION ( 'NONE',  ( 0.000000000000000000, 1.000000000000000000, -0.000000000000000000 ) ) ;
#1097 = DIRECTION ( 'NONE',  ( -0.8660254037844389297, 0.000000000000000000, -0.4999999999999996669 ) ) ;
#1098 = EDGE_LOOP ( 'NONE', ( #458, #913, #140, #270, #929, #587 ) ) ;
#1099 = FACE_BOUND ( 'NONE', #351, .T. ) ;
#1100 = AXIS2_PLACEMENT_3D ( 'NONE', #35, #995, #912 ) ;
#1101 = CARTESIAN_POINT ( 'NONE',  ( 84.02997295214306916, 30.31317279836448364, -1.572509628487991047E-16 ) ) ;
#1102 = CARTESIAN_POINT ( 'NONE',  ( -10.88151696087047782, 8.384929613427122064, 22.50820340622379234 ) ) ;
#1103 = ORIENTED_EDGE ( 'NONE', *, *, #188, .T. ) ;
#1104 = DIRECTION ( 'NONE',  ( 0.8660254037844387076, 0.000000000000000000, -0.5000000000000001110 ) ) ;
#1105 = CARTESIAN_POINT ( 'NONE',  ( 86.85840007688926789, 33.14159992311068237, -6.471096825077408313E-16 ) ) ;
#1106 = CARTESIAN_POINT ( 'NONE',  ( -12.83764840954449227, 8.980803833300795347, 21.45300927691540238 ) ) ;
#1107 = ORIENTED_EDGE ( 'NONE', *, *, #105, .F. ) ;
#1108 = VECTOR ( 'NONE', #212, 1000.000000000000114 ) ;
#1109 = CARTESIAN_POINT ( 'NONE',  ( 13.16545451782865328, 3.095217428635563373, -21.25341457416862667 ) ) ;
#1110 = DIRECTION ( 'NONE',  ( 0.000000000000000000, 1.000000000000000000, -0.000000000000000000 ) ) ;
#1111 = CARTESIAN_POINT ( 'NONE',  ( -11.81965260940567752, 8.903682279542065814, 22.03026554536032577 ) ) ;
#1112 = EDGE_LOOP ( 'NONE', ( #181, #9 ) ) ;
#1113 = DIRECTION ( 'NONE',  ( -3.257050620568364549E-16, 0.000000000000000000, -1.000000000000000000 ) ) ;
#1114 = ADVANCED_FACE ( 'NONE', ( #634 ), #446, .F. ) ;
#1115 = CYLINDRICAL_SURFACE ( 'NONE', #736, 25.00000000000000000 ) ;
#1116 = LINE ( 'NONE', #925, #53 ) ;
#1117 = CARTESIAN_POINT ( 'NONE',  ( -9.953597190129235273, 6.967180684045569450, 22.93319776995945958 ) ) ;
#1118 = CARTESIAN_POINT ( 'NONE',  ( 11.72499999999999609, 6.000000000000000000, -20.30829571874508943 ) ) ;
#1119 = ORIENTED_EDGE ( 'NONE', *, *, #347, .T. ) ;
#1120 = AXIS2_PLACEMENT_3D ( 'NONE', #646, #471, #662 ) ;
#1121 = CARTESIAN_POINT ( 'NONE',  ( -11.72500000000000497, 6.000000000000000000, 20.30829571874509654 ) ) ;
#1122 = FACE_BOUND ( 'NONE', #1112, .T. ) ;
#1123 = CARTESIAN_POINT ( 'NONE',  ( 14.93048187665854698, 6.777163524677366269, -20.05198713043293068 ) ) ;
#1124 = CARTESIAN_POINT ( 'NONE',  ( -14.17693911075858360, 8.260899489859138356, 20.59207776612042196 ) ) ;
#1125 = ORIENTED_EDGE ( 'NONE', *, *, #572, .T. ) ;
#1126 = AXIS2_PLACEMENT_3D ( 'NONE', #184, #33, #466 ) ;
#1127 = FILL_AREA_STYLE_COLOUR ( '', #1026 ) ;
#1128 = PLANE ( 'NONE',  #54 ) ;
#1129 = CARTESIAN_POINT ( 'NONE',  ( 14.40556131750303770, 7.983510130433264074, -20.43279384386053366 ) ) ;
#1130 = CARTESIAN_POINT ( 'NONE',  ( -14.88281409512189590, 6.971233612465435492, 20.08749702134661419 ) ) ;
#1131 = CARTESIAN_POINT ( 'NONE',  ( 79.18629150101521930, 35.15685424949231930, -4.055029724567591214E-17 ) ) ;
#1132 = ADVANCED_FACE ( 'NONE', ( #809, #266 ), #719, .T. ) ;
#1133 = ORIENTED_EDGE ( 'NONE', *, *, #691, .F. ) ;
#1134 = PLANE ( 'NONE',  #756 ) ;
#1135 = CARTESIAN_POINT ( 'NONE',  ( -15.60307436087193977, 6.000000000000000000, 30.42531754730548954 ) ) ;
#1136 = EDGE_LOOP ( 'NONE', ( #746, #99, #1058, #421, #128, #441 ) ) ;
#1137 = ORIENTED_EDGE ( 'NONE', *, *, #196, .F. ) ;
#1138 = ADVANCED_FACE ( 'NONE', ( #790 ), #16, .T. ) ;
#1139 =( NAMED_UNIT ( * ) PLANE_ANGLE_UNIT ( ) SI_UNIT ( $, .RADIAN. ) );
#1140 = CARTESIAN_POINT ( 'NONE',  ( -18.54756073373903291, 6.000000000000000000, 28.72531754730549025 ) ) ;
#1141 = ORIENTED_EDGE ( 'NONE', *, *, #498, .T. ) ;
#1142 = VERTEX_POINT ( 'NONE', #724 ) ;
#1143 = CIRCLE ( 'NONE', #551, 25.00000000000000000 ) ;
#1144 = DIRECTION ( 'NONE',  ( -0.000000000000000000, -1.000000000000000000, -0.000000000000000000 ) ) ;
#1145 = CIRCLE ( 'NONE', #1056, 3.000000000000002665 ) ;
#1146 = VERTEX_POINT ( 'NONE', #277 ) ;
ENDSEC;
END-ISO-10303-21;
