ISO-10303-21;
HEADER;
FILE_DESCRIPTION (( 'STEP AP214' ),
    '1' );
FILE_NAME ('Arm3.STEP',
    '2026-01-29T14:40:49',
    ( '' ),
    ( '' ),
    'SwSTEP 2.0',
    'SolidWorks 2025',
    '' );
FILE_SCHEMA (( 'AUTOMOTIVE_DESIGN' ));
ENDSEC;

DATA;
#1 = CARTESIAN_POINT ( 'NONE',  ( 7.794228634059951588, 6.000000000000000000, -19.50000000000000000 ) ) ;
#2 = CARTESIAN_POINT ( 'NONE',  ( 8.481212095518035454, 4.018434126411265517, -19.21167166518035074 ) ) ;
#3 = CARTESIAN_POINT ( 'NONE',  ( -12.49999999999999822, 12.00000000000000000, 7.216878364870324525 ) ) ;
#4 = ORIENTED_EDGE ( 'NONE', *, *, #62, .T. ) ;
#5 = LINE ( 'NONE', #585, #813 ) ;
#6 = CARTESIAN_POINT ( 'NONE',  ( 82.01471862576141802, 24.78528137423852939, 0.000000000000000000 ) ) ;
#7 = EDGE_CURVE ( 'NONE', #709, #796, #895, .T. ) ;
#8 = CARTESIAN_POINT ( 'NONE',  ( 11.77365090279968562, 3.395309192503122020, -17.38987978543482527 ) ) ;
#9 = ORIENTED_EDGE ( 'NONE', *, *, #761, .F. ) ;
#10 = CARTESIAN_POINT ( 'NONE',  ( 84.84314575050760254, 27.61370849898472812, 0.000000000000000000 ) ) ;
#11 = AXIS2_PLACEMENT_3D ( 'NONE', #728, #556, #18 ) ;
#12 = AXIS2_PLACEMENT_3D ( 'NONE', #859, #1115, #323 ) ;
#13 = CARTESIAN_POINT ( 'NONE',  ( 8.750000000000001776, 6.000000000000000000, -15.15544456622768266 ) ) ;
#14 = CARTESIAN_POINT ( 'NONE',  ( 12.67270341339567352, 4.493980309756555158, -16.74559140094900656 ) ) ;
#15 = VERTEX_POINT ( 'NONE', #1053 ) ;
#16 = ADVANCED_BREP_SHAPE_REPRESENTATION ( 'Arm3', ( #721, #1002 ), #848 ) ;
#17 = DIRECTION ( 'NONE',  ( 0.8660254037844385966, 0.000000000000000000, 0.5000000000000001110 ) ) ;
#18 = DIRECTION ( 'NONE',  ( 0.7071067811865461294, 0.7071067811865489050, 0.000000000000000000 ) ) ;
#19 = DIRECTION ( 'NONE',  ( 0.7071067811865460184, 0.7071067811865490160, 0.000000000000000000 ) ) ;
#20 = EDGE_LOOP ( 'NONE', ( #428, #373 ) ) ;
#21 = DIRECTION ( 'NONE',  ( 0.7071067811865489050, -0.7071067811865462405, 0.000000000000000000 ) ) ;
#22 = PLANE ( 'NONE',  #892 ) ;
#23 = CARTESIAN_POINT ( 'NONE',  ( 86.85840007688926789, 19.94159992311068663, 0.000000000000000000 ) ) ;
#24 = ORIENTED_EDGE ( 'NONE', *, *, #371, .F. ) ;
#25 = CARTESIAN_POINT ( 'NONE',  ( -7.884199316399711499, 6.778345143811233875, 19.46383603284911601 ) ) ;
#26 = VECTOR ( 'NONE', #938, 1000.000000000000000 ) ;
#27 = CARTESIAN_POINT ( 'NONE',  ( 12.49999999999999645, 12.00000000000000000, 7.216878364870328078 ) ) ;
#28 = CIRCLE ( 'NONE', #755, 7.999999999999988454 ) ;
#29 = EDGE_LOOP ( 'NONE', ( #1102, #277 ) ) ;
#30 = LINE ( 'NONE', #1015, #626 ) ;
#31 = CARTESIAN_POINT ( 'NONE',  ( -12.91417162681082509, 5.222589489481267222, 16.55976022380808743 ) ) ;
#32 = ORIENTED_EDGE ( 'NONE', *, *, #294, .T. ) ;
#33 = ORIENTED_EDGE ( 'NONE', *, *, #374, .F. ) ;
#34 = CARTESIAN_POINT ( 'NONE',  ( -9.169945420738065067, 8.602551488199660312, 18.89282255850253023 ) ) ;
#35 = LINE ( 'NONE', #940, #1004 ) ;
#36 = ORIENTED_EDGE ( 'NONE', *, *, #374, .T. ) ;
#37 = FACE_BOUND ( 'NONE', #348, .T. ) ;
#38 = CARTESIAN_POINT ( 'NONE',  ( -9.649488693308363452, 8.845795222583451078, 18.65262620486148748 ) ) ;
#39 = AXIS2_PLACEMENT_3D ( 'NONE', #353, #801, #525 ) ;
#40 = AXIS2_PLACEMENT_3D ( 'NONE', #794, #519, #881 ) ;
#41 = CARTESIAN_POINT ( 'NONE',  ( 93.32842712474619873, 19.12842712474618523, 12.00000000000000000 ) ) ;
#42 = AXIS2_PLACEMENT_3D ( 'NONE', #563, #411, #927 ) ;
#43 = EDGE_LOOP ( 'NONE', ( #974, #1124 ) ) ;
#44 = CARTESIAN_POINT ( 'NONE',  ( 10.22224318643354124, 6.000000000000000000, -14.30544456622766880 ) ) ;
#45 = AXIS2_PLACEMENT_3D ( 'NONE', #1125, #520, #65 ) ;
#46 = ORIENTED_EDGE ( 'NONE', *, *, #256, .T. ) ;
#47 = ADVANCED_FACE ( 'NONE', ( #332 ), #158, .F. ) ;
#48 = DIRECTION ( 'NONE',  ( 0.7071067811865489050, -0.7071067811865462405, 0.000000000000000000 ) ) ;
#49 = CARTESIAN_POINT ( 'NONE',  ( -12.74766905364831260, 4.668695495894430003, 16.68840051946753533 ) ) ;
#50 = ORIENTED_EDGE ( 'NONE', *, *, #150, .T. ) ;
#51 = CARTESIAN_POINT ( 'NONE',  ( 84.84314575050763096, 10.64314575050759260, 9.797174393178815797E-16 ) ) ;
#52 = ORIENTED_EDGE ( 'NONE', *, *, #77, .F. ) ;
#53 = EDGE_CURVE ( 'NONE', #1059, #764, #910, .T. ) ;
#54 = DIRECTION ( 'NONE',  ( 0.000000000000000000, 1.000000000000000000, -0.000000000000000000 ) ) ;
#55 = CARTESIAN_POINT ( 'NONE',  ( 11.16812293577468829, 8.903734345281414164, -17.78512246106621575 ) ) ;
#56 = ORIENTED_EDGE ( 'NONE', *, *, #150, .F. ) ;
#57 = DIRECTION ( 'NONE',  ( 0.5000000000000001110, 0.000000000000000000, -0.8660254037844385966 ) ) ;
#58 = ORIENTED_EDGE ( 'NONE', *, *, #566, .F. ) ;
#59 = CARTESIAN_POINT ( 'NONE',  ( 6.249999999999999112, 0.000000000000000000, 10.82531754730548634 ) ) ;
#60 = EDGE_CURVE ( 'NONE', #754, #434, #524, .T. ) ;
#61 = DIRECTION ( 'NONE',  ( -0.5000000000000000000, 0.000000000000000000, 0.8660254037844385966 ) ) ;
#62 = EDGE_CURVE ( 'NONE', #709, #234, #694, .T. ) ;
#63 = ORIENTED_EDGE ( 'NONE', *, *, #53, .F. ) ;
#64 = CIRCLE ( 'NONE', #491, 1.699999999999999734 ) ;
#65 = DIRECTION ( 'NONE',  ( 0.8660254037844385966, 0.000000000000000000, 0.5000000000000001110 ) ) ;
#66 = ORIENTED_EDGE ( 'NONE', *, *, #984, .F. ) ;
#67 = AXIS2_PLACEMENT_3D ( 'NONE', #765, #882, #1136 ) ;
#68 = DIRECTION ( 'NONE',  ( 0.5000000000000001110, -0.000000000000000000, -0.8660254037844384856 ) ) ;
#69 = CARTESIAN_POINT ( 'NONE',  ( 8.165681795455281389, 7.505621728497171574, -19.34770278842688285 ) ) ;
#70 = CARTESIAN_POINT ( 'NONE',  ( 96.15685424949235482, 21.95685424949235909, 0.000000000000000000 ) ) ;
#71 = FACE_OUTER_BOUND ( 'NONE', #955, .T. ) ;
#72 = VERTEX_POINT ( 'NONE', #70 ) ;
#73 = DIRECTION ( 'NONE',  ( -1.000000000000000000, 0.000000000000000000, 0.000000000000000000 ) ) ;
#74 = DIRECTION ( 'NONE',  ( -1.000000000000000000, 0.000000000000000000, -0.000000000000000000 ) ) ;
#75 = ORIENTED_EDGE ( 'NONE', *, *, #357, .T. ) ;
#76 = LINE ( 'NONE', #967, #307 ) ;
#77 = EDGE_CURVE ( 'NONE', #996, #838, #366, .T. ) ;
#78 = ORIENTED_EDGE ( 'NONE', *, *, #317, .F. ) ;
#79 = DIRECTION ( 'NONE',  ( 0.7071067811865460184, 0.7071067811865490160, 0.000000000000000000 ) ) ;
#80 = CARTESIAN_POINT ( 'NONE',  ( 0.000000000000000000, 0.000000000000000000, 0.000000000000000000 ) ) ;
#81 = CARTESIAN_POINT ( 'NONE',  ( 93.32842712474619873, 19.12842712474617457, -7.454507796478872133E-15 ) ) ;
#82 =( NAMED_UNIT ( * ) PLANE_ANGLE_UNIT ( ) SI_UNIT ( $, .RADIAN. ) );
#83 = VERTEX_POINT ( 'NONE', #982 ) ;
#84 = AXIS2_PLACEMENT_3D ( 'NONE', #436, #614, #1142 ) ;
#85 = AXIS2_PLACEMENT_3D ( 'NONE', #330, #73, #336 ) ;
#86 = LINE ( 'NONE', #898, #1140 ) ;
#87 = ADVANCED_FACE ( 'NONE', ( #431 ), #175, .F. ) ;
#88 = VECTOR ( 'NONE', #683, 1000.000000000000000 ) ;
#89 = CARTESIAN_POINT ( 'NONE',  ( -6.250000000000003553, 0.000000000000000000, 10.82531754730548634 ) ) ;
#90 = CARTESIAN_POINT ( 'NONE',  ( 7.812066070394596551, 5.609270016900033795, -19.49289962232768758 ) ) ;
#91 = LINE ( 'NONE', #888, #349 ) ;
#92 = EDGE_LOOP ( 'NONE', ( #637, #63, #1021, #741 ) ) ;
#93 = B_SPLINE_CURVE_WITH_KNOTS ( 'NONE', 3,
 ( #740, #229, #398, #31, #583, #49, #405, #846, #124, #1089, #474, #1094, #945, #140, #212, #297, #1016, #573, #662, #205, #313, #134, #568, #301, #763, #934, #479, #129, #748, #218, #668, #483, #1099, #486 ),
 .UNSPECIFIED., .F., .F.,
 ( 4, 2, 2, 2, 2, 2, 2, 2, 2, 2, 2, 2, 2, 2, 2, 2, 4 ),
 ( 1.734723475976807094E-18, 0.0005869608086460196975, 0.001173921617292037660, 0.001760882425938055731, 0.002347843234584073586, 0.002934804043230091440, 0.003521764851876109728, 0.004108725660522127149, 0.004695686469168145437, 0.005282647277814163725, 0.005869608086460181146, 0.006456568895106199434, 0.007043529703752217722, 0.007630490512398235142, 0.008217451321044252563, 0.008804412129690271718, 0.009391372938336289139 ),
 .UNSPECIFIED. ) ;
#94 = LINE ( 'NONE', #541, #792 ) ;
#95 = ADVANCED_FACE ( 'NONE', ( #531 ), #776, .F. ) ;
#96 = PLANE ( 'NONE',  #11 ) ;
#97 = CARTESIAN_POINT ( 'NONE',  ( 7.884199316399709723, 5.221654856188765237, -19.46383603284911601 ) ) ;
#98 = ORIENTED_EDGE ( 'NONE', *, *, #833, .T. ) ;
#99 = CYLINDRICAL_SURFACE ( 'NONE', #493, 12.00000000000000178 ) ;
#100 = EDGE_CURVE ( 'NONE', #341, #135, #247, .T. ) ;
#101 = CARTESIAN_POINT ( 'NONE',  ( -12.49999999999999822, 12.00000000000000000, 7.216878364870324525 ) ) ;
#102 = CARTESIAN_POINT ( 'NONE',  ( 12.16955641012890865, 3.739220839584123990, -17.11494076825433552 ) ) ;
#103 = ADVANCED_FACE ( 'NONE', ( #327 ), #682, .F. ) ;
#104 = VERTEX_POINT ( 'NONE', #1080 ) ;
#105 = DIRECTION ( 'NONE',  ( 0.000000000000000000, 0.000000000000000000, -1.000000000000000000 ) ) ;
#106 = CIRCLE ( 'NONE', #928, 7.999999999999988454 ) ;
#107 = CIRCLE ( 'NONE', #951, 21.00000000000000000 ) ;
#108 = DIRECTION ( 'NONE',  ( 0.7071067811865470176, 0.7071067811865479058, 0.000000000000000000 ) ) ;
#109 = CARTESIAN_POINT ( 'NONE',  ( 9.324887327713176077, 3.305182452900525369, -18.81700222421270041 ) ) ;
#110 = APPLICATION_PROTOCOL_DEFINITION ( 'draft international standard', 'automotive_design', 1998, #163 ) ;
#111 = EDGE_LOOP ( 'NONE', ( #604, #215, #546, #746 ) ) ;
#112 = FACE_OUTER_BOUND ( 'NONE', #239, .T. ) ;
#113 = CARTESIAN_POINT ( 'NONE',  ( 0.000000000000000000, 12.00000000000000000, 0.000000000000000000 ) ) ;
#114 = CARTESIAN_POINT ( 'NONE',  ( -6.250000000000005329, 6.000000000000000000, 10.82531754730549345 ) ) ;
#115 = EDGE_LOOP ( 'NONE', ( #802, #32 ) ) ;
#116 = CARTESIAN_POINT ( 'NONE',  ( 84.84314575050760254, 27.61370849898473168, 0.000000000000000000 ) ) ;
#117 = CARTESIAN_POINT ( 'NONE',  ( -12.67270341339567352, 7.506019690243442177, 16.74559140094900656 ) ) ;
#118 = DIRECTION ( 'NONE',  ( -0.5000000000000000000, -0.000000000000000000, 0.8660254037844385966 ) ) ;
#119 = VERTEX_POINT ( 'NONE', #538 ) ;
#120 = AXIS2_PLACEMENT_3D ( 'NONE', #165, #242, #505 ) ;
#121 = CIRCLE ( 'NONE', #249, 3.000000000000000444 ) ;
#122 = DIRECTION ( 'NONE',  ( 0.7071067811865489050, -0.7071067811865462405, 0.000000000000000000 ) ) ;
#123 = AXIS2_PLACEMENT_3D ( 'NONE', #369, #1078, #1146 ) ;
#124 = CARTESIAN_POINT ( 'NONE',  ( -12.39574537525193243, 4.016414522046643398, 16.95183764382512948 ) ) ;
#125 = VECTOR ( 'NONE', #605, 1000.000000000000114 ) ;
#126 = ORIENTED_EDGE ( 'NONE', *, *, #576, .T. ) ;
#127 = ORIENTED_EDGE ( 'NONE', *, *, #1047, .T. ) ;
#128 = DIRECTION ( 'NONE',  ( -0.4999999999999998890, -0.000000000000000000, 0.8660254037844385966 ) ) ;
#129 = CARTESIAN_POINT ( 'NONE',  ( -8.165681795455284941, 4.494378271502826649, 19.34770278842688640 ) ) ;
#130 = ORIENTED_EDGE ( 'NONE', *, *, #171, .F. ) ;
#131 = ORIENTED_EDGE ( 'NONE', *, *, #798, .F. ) ;
#132 = EDGE_CURVE ( 'NONE', #764, #663, #490, .T. ) ;
#133 = CARTESIAN_POINT ( 'NONE',  ( 34.54669386448280477, 6.000000000000000000, -59.83662900681223107 ) ) ;
#134 = CARTESIAN_POINT ( 'NONE',  ( -9.327901645772168848, 3.303522657853800837, 18.81550930232277707 ) ) ;
#135 = VERTEX_POINT ( 'NONE', #713 ) ;
#136 = EDGE_CURVE ( 'NONE', #335, #730, #645, .T. ) ;
#137 = DIRECTION ( 'NONE',  ( -0.8660254037844387076, 0.000000000000000000, -0.4999999999999998890 ) ) ;
#138 = CARTESIAN_POINT ( 'NONE',  ( -11.16460289854898846, 8.904718474069714063, 17.78731307582934207 ) ) ;
#139 = AXIS2_PLACEMENT_3D ( 'NONE', #824, #636, #187 ) ;
#140 = CARTESIAN_POINT ( 'NONE',  ( -11.32810864115112182, 3.153978183713943118, 17.68351268042795255 ) ) ;
#141 = CIRCLE ( 'NONE', #587, 4.000000000000007994 ) ;
#142 = VECTOR ( 'NONE', #872, 1000.000000000000000 ) ;
#143 = ORIENTED_EDGE ( 'NONE', *, *, #756, .F. ) ;
#144 = DIRECTION ( 'NONE',  ( 1.201851678989727077E-16, 0.000000000000000000, 1.000000000000000000 ) ) ;
#145 = VERTEX_POINT ( 'NONE', #381 ) ;
#146 = CARTESIAN_POINT ( 'NONE',  ( 12.17036513313667534, 8.259921649793991349, -17.11436576203798410 ) ) ;
#147 = ORIENTED_EDGE ( 'NONE', *, *, #527, .F. ) ;
#148 = CARTESIAN_POINT ( 'NONE',  ( -11.74519052838329713, 6.000000000000000000, 26.34326673973660959 ) ) ;
#149 = VERTEX_POINT ( 'NONE', #999 ) ;
#150 = EDGE_CURVE ( 'NONE', #487, #540, #254, .T. ) ;
#151 = FACE_OUTER_BOUND ( 'NONE', #409, .T. ) ;
#152 = ADVANCED_FACE ( 'NONE', ( #1072, #913 ), #729, .T. ) ;
#153 = FACE_OUTER_BOUND ( 'NONE', #259, .T. ) ;
#154 = DIRECTION ( 'NONE',  ( 0.7071067811865490160, -0.7071067811865461294, 0.000000000000000000 ) ) ;
#155 = FACE_OUTER_BOUND ( 'NONE', #20, .T. ) ;
#156 = ORIENTED_EDGE ( 'NONE', *, *, #925, .T. ) ;
#157 = CARTESIAN_POINT ( 'NONE',  ( 8.737495540616588841, 8.261273025840859319, -19.09649001829233228 ) ) ;
#158 = CYLINDRICAL_SURFACE ( 'NONE', #120, 3.000000000000002665 ) ;
#159 = VECTOR ( 'NONE', #823, 1000.000000000000000 ) ;
#160 = PLANE ( 'NONE',  #873 ) ;
#161 = ORIENTED_EDGE ( 'NONE', *, *, #132, .F. ) ;
#162 = AXIS2_PLACEMENT_3D ( 'NONE', #413, #826, #225 ) ;
#163 = APPLICATION_CONTEXT ( 'automotive_design' ) ;
#164 = CARTESIAN_POINT ( 'NONE',  ( 7.794228634059947147, 6.195923253703641720, -19.50000000000000000 ) ) ;
#165 = CARTESIAN_POINT ( 'NONE',  ( -14.34326673973661315, 6.000000000000000000, 24.84326673973660959 ) ) ;
#166 = EDGE_LOOP ( 'NONE', ( #33, #66 ) ) ;
#167 = EDGE_CURVE ( 'NONE', #407, #935, #384, .T. ) ;
#168 = DIRECTION ( 'NONE',  ( 0.000000000000000000, 1.000000000000000000, -0.000000000000000000 ) ) ;
#169 = CARTESIAN_POINT ( 'NONE',  ( 84.84314575050760254, 27.61370849898473168, 0.000000000000000000 ) ) ;
#170 = CARTESIAN_POINT ( 'NONE',  ( 0.000000000000000000, 12.00000000000000000, 0.000000000000000000 ) ) ;
#171 = EDGE_CURVE ( 'NONE', #15, #412, #570, .T. ) ;
#172 = ORIENTED_EDGE ( 'NONE', *, *, #60, .F. ) ;
#173 = DIRECTION ( 'NONE',  ( 0.8660254037844383745, 0.000000000000000000, 0.5000000000000003331 ) ) ;
#174 = FACE_OUTER_BOUND ( 'NONE', #316, .T. ) ;
#175 = CYLINDRICAL_SURFACE ( 'NONE', #751, 7.999999999999988454 ) ;
#176 = FACE_BOUND ( 'NONE', #419, .T. ) ;
#177 = ORIENTED_EDGE ( 'NONE', *, *, #207, .T. ) ;
#178 = CIRCLE ( 'NONE', #326, 3.000000000000000444 ) ;
#179 = LINE ( 'NONE', #1074, #915 ) ;
#180 = CARTESIAN_POINT ( 'NONE',  ( -1.734723475976807094E-15, 12.00000000000000000, 14.43375672974064905 ) ) ;
#181 = CARTESIAN_POINT ( 'NONE',  ( 11.63034921123825782, 3.303301280262210149, -17.48622395587347000 ) ) ;
#182 = ORIENTED_EDGE ( 'NONE', *, *, #761, .T. ) ;
#183 = CARTESIAN_POINT ( 'NONE',  ( 69.22943725152293837, 12.00000000000000000, 0.000000000000000000 ) ) ;
#184 = PRODUCT_DEFINITION_CONTEXT ( 'detailed design', #163, 'design' ) ;
#185 = ADVANCED_FACE ( 'NONE', ( #281, #469 ), #372, .T. ) ;
#186 = CARTESIAN_POINT ( 'NONE',  ( 36.01893705091635667, 6.000000000000000000, -58.98662900681222965 ) ) ;
#187 = DIRECTION ( 'NONE',  ( 0.8660254037844387076, 0.000000000000000000, 0.4999999999999998890 ) ) ;
#188 = ORIENTED_EDGE ( 'NONE', *, *, #518, .T. ) ;
#189 = CARTESIAN_POINT ( 'NONE',  ( 11.34807621135332489, 6.000000000000000000, -13.65544456622768976 ) ) ;
#190 = LINE ( 'NONE', #261, #607 ) ;
#191 = CARTESIAN_POINT ( 'NONE',  ( 10.66999043225023946, 2.999867708313125991, -18.08841128011793487 ) ) ;
#192 = ORIENTED_EDGE ( 'NONE', *, *, #433, .F. ) ;
#193 = CARTESIAN_POINT ( 'NONE',  ( 12.49999999999999645, 0.000000000000000000, 7.216878364870328078 ) ) ;
#194 = CIRCLE ( 'NONE', #701, 1.699999999999999734 ) ;
#195 = AXIS2_PLACEMENT_3D ( 'NONE', #766, #958, #435 ) ;
#196 = CARTESIAN_POINT ( 'NONE',  ( 69.22943725152293837, 12.00000000000000000, -11.99999999999999822 ) ) ;
#197 = DIRECTION ( 'NONE',  ( 0.8660254037844385966, 0.000000000000000000, 0.5000000000000001110 ) ) ;
#198 = EDGE_LOOP ( 'NONE', ( #352, #50 ) ) ;
#199 = CARTESIAN_POINT ( 'NONE',  ( -12.99038105676658361, 5.999999999999998224, 16.49999999999999645 ) ) ;
#200 = CARTESIAN_POINT ( 'NONE',  ( -8.734559793884232093, 8.258263303993302884, 19.09782060830282902 ) ) ;
#201 = DIRECTION ( 'NONE',  ( 0.7071067811865462405, 0.7071067811865489050, 0.000000000000000000 ) ) ;
#202 = DIRECTION ( 'NONE',  ( 0.000000000000000000, 0.000000000000000000, 1.000000000000000000 ) ) ;
#203 = EDGE_LOOP ( 'NONE', ( #361, #515, #232, #783 ) ) ;
#204 = DIRECTION ( 'NONE',  ( 0.8660254037844383745, 0.000000000000000000, 0.5000000000000003331 ) ) ;
#205 = CARTESIAN_POINT ( 'NONE',  ( -9.818691042300720540, 3.096230975024054644, 18.56422326268472744 ) ) ;
#206 = ORIENTED_EDGE ( 'NONE', *, *, #660, .T. ) ;
#207 = EDGE_CURVE ( 'NONE', #1091, #658, #1084, .T. ) ;
#208 = VECTOR ( 'NONE', #769, 1000.000000000000000 ) ;
#209 = AXIS2_PLACEMENT_3D ( 'NONE', #836, #118, #1107 ) ;
#210 = DIRECTION ( 'NONE',  ( -0.4999999999999997780, -0.000000000000000000, 0.8660254037844387076 ) ) ;
#211 =( GEOMETRIC_REPRESENTATION_CONTEXT ( 3 ) GLOBAL_UNCERTAINTY_ASSIGNED_CONTEXT ( ( #818 ) ) GLOBAL_UNIT_ASSIGNED_CONTEXT ( ( #1133, #697, #762 ) ) REPRESENTATION_CONTEXT ( 'NONE', 'WORKASPACE' ) );
#212 = CARTESIAN_POINT ( 'NONE',  ( -11.16812293577468829, 3.096265654718587612, 17.78512246106621220 ) ) ;
#213 = CIRCLE ( 'NONE', #909, 1.699999999999999734 ) ;
#214 = EDGE_LOOP ( 'NONE', ( #450, #58, #1055, #1077 ) ) ;
#215 = ORIENTED_EDGE ( 'NONE', *, *, #167, .T. ) ;
#216 = CARTESIAN_POINT ( 'NONE',  ( -9.818370931625521436, 8.903624279971930733, 18.56438509930656267 ) ) ;
#217 = ADVANCED_FACE ( 'NONE', ( #923 ), #829, .F. ) ;
#218 = CARTESIAN_POINT ( 'NONE',  ( -7.937852169684034287, 5.033031177322308203, 19.44212602180989435 ) ) ;
#219 = ORIENTED_EDGE ( 'NONE', *, *, #360, .F. ) ;
#220 = LINE ( 'NONE', #579, #88 ) ;
#221 = EDGE_LOOP ( 'NONE', ( #56, #920, #75, #143 ) ) ;
#222 = CARTESIAN_POINT ( 'NONE',  ( -7.794228634059951588, 6.195875495598002658, 19.50000000000000711 ) ) ;
#223 = CARTESIAN_POINT ( 'NONE',  ( 89.68682720163546662, 22.77002704785688536, 0.000000000000000000 ) ) ;
#224 = EDGE_LOOP ( 'NONE', ( #869, #329 ) ) ;
#225 = DIRECTION ( 'NONE',  ( 0.000000000000000000, 0.000000000000000000, 1.000000000000000000 ) ) ;
#226 = ORIENTED_EDGE ( 'NONE', *, *, #925, .F. ) ;
#227 = CARTESIAN_POINT ( 'NONE',  ( 82.01471862576141802, 24.78528137423852939, 0.000000000000000000 ) ) ;
#228 = AXIS2_PLACEMENT_3D ( 'NONE', #293, #901, #276 ) ;
#229 = CARTESIAN_POINT ( 'NONE',  ( -12.99038105676658361, 5.801509304424910418, 16.49999999999999645 ) ) ;
#230 = AXIS2_PLACEMENT_3D ( 'NONE', #23, #1076, #201 ) ;
#231 = EDGE_CURVE ( 'NONE', #135, #341, #106, .T. ) ;
#232 = ORIENTED_EDGE ( 'NONE', *, *, #298, .T. ) ;
#233 = CYLINDRICAL_SURFACE ( 'NONE', #591, 7.999999999999988454 ) ;
#234 = VERTEX_POINT ( 'NONE', #41 ) ;
#235 = DIRECTION ( 'NONE',  ( 0.7071067811865489050, -0.7071067811865462405, 1.665334536937734318E-16 ) ) ;
#236 = DIRECTION ( 'NONE',  ( -1.201851678989727077E-16, 0.000000000000000000, -1.000000000000000000 ) ) ;
#237 = CARTESIAN_POINT ( 'NONE',  ( -14.34326673973661137, 6.000000000000000000, 24.84326673973660959 ) ) ;
#238 = FACE_OUTER_BOUND ( 'NONE', #92, .T. ) ;
#239 = EDGE_LOOP ( 'NONE', ( #147, #992, #574, #564 ) ) ;
#240 = LINE ( 'NONE', #503, #772 ) ;
#241 = CARTESIAN_POINT ( 'NONE',  ( 9.327901645772167072, 8.696477342146197387, -18.81550930232278773 ) ) ;
#242 = DIRECTION ( 'NONE',  ( 0.5000000000000001110, -0.000000000000000000, -0.8660254037844385966 ) ) ;
#243 = CARTESIAN_POINT ( 'NONE',  ( -1.734723475976807094E-15, 0.000000000000000000, 14.43375672974064905 ) ) ;
#244 = VERTEX_POINT ( 'NONE', #223 ) ;
#245 = LINE ( 'NONE', #522, #142 ) ;
#246 = PLANE ( 'NONE',  #659 ) ;
#247 = CIRCLE ( 'NONE', #698, 7.999999999999988454 ) ;
#248 = ORIENTED_EDGE ( 'NONE', *, *, #756, .T. ) ;
#249 = AXIS2_PLACEMENT_3D ( 'NONE', #410, #210, #204 ) ;
#250 =( LENGTH_UNIT ( ) NAMED_UNIT ( * ) SI_UNIT ( .MILLI., .METRE. ) );
#251 = VECTOR ( 'NONE', #462, 1000.000000000000000 ) ;
#252 = ORIENTED_EDGE ( 'NONE', *, *, #582, .F. ) ;
#253 = CARTESIAN_POINT ( 'NONE',  ( 93.32842712474619873, 19.12842712474617457, 0.000000000000000000 ) ) ;
#254 = B_SPLINE_CURVE_WITH_KNOTS ( 'NONE', 3,
 ( #268, #991, #90, #97, #800, #735, #1085, #640, #2, #1005, #812, #558, #109, #545, #1064, #358, #906, #191, #453, #377, #806, #181, #8, #650, #102, #627, #995, #14, #550, #644, #364, #725, #465, #718 ),
 .UNSPECIFIED., .F., .F.,
 ( 4, 2, 2, 2, 2, 2, 2, 2, 2, 2, 2, 2, 2, 2, 2, 2, 4 ),
 ( 0.009391372938336292608, 0.009978190669855044326, 0.01056500840137379431, 0.01115182613289254429, 0.01173864386441129601, 0.01232546159593004599, 0.01291227932744879597, 0.01349909705896754769, 0.01408591479048629767, 0.01467273252200504766, 0.01525955025352379937, 0.01584636798504255109, 0.01643318571656130281, 0.01702000344808005106, 0.01760682117959880277, 0.01819363891111755449, 0.01878045664263630621 ),
 .UNSPECIFIED. ) ;
#255 = DIRECTION ( 'NONE',  ( 0.8660254037844384856, 0.000000000000000000, 0.5000000000000002220 ) ) ;
#256 = EDGE_CURVE ( 'NONE', #378, #825, #1020, .T. ) ;
#257 = VERTEX_POINT ( 'NONE', #654 ) ;
#258 = CARTESIAN_POINT ( 'NONE',  ( 69.22943725152293837, 12.00000000000000000, 12.00000000000000000 ) ) ;
#259 = EDGE_LOOP ( 'NONE', ( #480, #460, #676, #46 ) ) ;
#260 = CARTESIAN_POINT ( 'NONE',  ( 0.000000000000000000, 0.000000000000000000, 12.00000000000000000 ) ) ;
#261 = CARTESIAN_POINT ( 'NONE',  ( -1.734723475976807094E-15, 12.00000000000000000, 14.43375672974064905 ) ) ;
#262 = DIRECTION ( 'NONE',  ( 0.7071067811865489050, -0.7071067811865462405, 0.000000000000000000 ) ) ;
#263 = CARTESIAN_POINT ( 'NONE',  ( 8.749999999999998224, 6.000000000000000000, -15.15544456622767377 ) ) ;
#264 = ORIENTED_EDGE ( 'NONE', *, *, #759, .F. ) ;
#265 = APPLICATION_CONTEXT ( 'automotive_design' ) ;
#266 = LINE ( 'NONE', #890, #990 ) ;
#267 = DIRECTION ( 'NONE',  ( 0.5000000000000001110, -0.000000000000000000, -0.8660254037844385966 ) ) ;
#268 = CARTESIAN_POINT ( 'NONE',  ( 7.794228634059951588, 6.000000000000000000, -19.50000000000000000 ) ) ;
#269 = CARTESIAN_POINT ( 'NONE',  ( 17.23368793961410361, 12.00000000000000000, -11.99999999999998046 ) ) ;
#270 = AXIS2_PLACEMENT_3D ( 'NONE', #1028, #742, #1010 ) ;
#271 = ORIENTED_EDGE ( 'NONE', *, *, #734, .T. ) ;
#272 = EDGE_CURVE ( 'NONE', #754, #257, #35, .T. ) ;
#273 = DIRECTION ( 'NONE',  ( -0.4999999999999997780, -0.000000000000000000, 0.8660254037844387076 ) ) ;
#274 = LINE ( 'NONE', #575, #26 ) ;
#275 = PRODUCT ( 'Arm3', 'Arm3', '', ( #382 ) ) ;
#276 = DIRECTION ( 'NONE',  ( 0.000000000000000000, 0.000000000000000000, 1.000000000000000000 ) ) ;
#277 = ORIENTED_EDGE ( 'NONE', *, *, #660, .F. ) ;
#278 = EDGE_CURVE ( 'NONE', #957, #1120, #93, .T. ) ;
#279 = CARTESIAN_POINT ( 'NONE',  ( -8.750000000000007105, 6.000000000000000000, 15.15544456622768621 ) ) ;
#280 = DIRECTION ( 'NONE',  ( -0.4999999999999997780, -0.000000000000000000, 0.8660254037844387076 ) ) ;
#281 = FACE_BOUND ( 'NONE', #166, .T. ) ;
#282 = VERTEX_POINT ( 'NONE', #306 ) ;
#283 = DIRECTION ( 'NONE',  ( 0.7071067811865461294, 0.7071067811865489050, 0.000000000000000000 ) ) ;
#284 = CARTESIAN_POINT ( 'NONE',  ( 6.250000000000000888, 12.00000000000000000, -10.82531754730548812 ) ) ;
#285 = DIRECTION ( 'NONE',  ( 0.5000000000000000000, -0.000000000000000000, -0.8660254037844385966 ) ) ;
#286 = ORIENTED_EDGE ( 'NONE', *, *, #798, .T. ) ;
#287 = VECTOR ( 'NONE', #426, 1000.000000000000000 ) ;
#288 = DIRECTION ( 'NONE',  ( 0.7071067811865489050, -0.7071067811865462405, 0.000000000000000000 ) ) ;
#289 = AXIS2_PLACEMENT_3D ( 'NONE', #919, #285, #197 ) ;
#290 = EDGE_CURVE ( 'NONE', #663, #996, #1029, .T. ) ;
#291 = CARTESIAN_POINT ( 'NONE',  ( -11.63034921123825605, 8.696698719737790739, 17.48622395587347000 ) ) ;
#292 = VECTOR ( 'NONE', #340, 1000.000000000000000 ) ;
#293 = CARTESIAN_POINT ( 'NONE',  ( 0.000000000000000000, 0.000000000000000000, 0.000000000000000000 ) ) ;
#294 = EDGE_CURVE ( 'NONE', #1043, #847, #64, .T. ) ;
#295 = ORIENTED_EDGE ( 'NONE', *, *, #939, .F. ) ;
#296 = CARTESIAN_POINT ( 'NONE',  ( -12.97491640868334173, 6.394560339600975141, 16.51220994343430704 ) ) ;
#297 = CARTESIAN_POINT ( 'NONE',  ( -10.83801969130769649, 3.019158317153055382, 17.98818723592027879 ) ) ;
#298 = EDGE_CURVE ( 'NONE', #341, #72, #577, .T. ) ;
#299 = ORIENTED_EDGE ( 'NONE', *, *, #672, .T. ) ;
#300 = DIRECTION ( 'NONE',  ( 0.7071067811865489050, -0.7071067811865462405, 0.000000000000000000 ) ) ;
#301 = CARTESIAN_POINT ( 'NONE',  ( -8.875884504199198943, 3.614500001078737146, 19.03274047070074459 ) ) ;
#302 = ORIENTED_EDGE ( 'NONE', *, *, #712, .F. ) ;
#303 = EDGE_CURVE ( 'NONE', #489, #1091, #325, .T. ) ;
#304 = VECTOR ( 'NONE', #619, 1000.000000000000000 ) ;
#305 = CARTESIAN_POINT ( 'NONE',  ( -7.938070265715944096, 6.967430104472140506, 19.44203513791534021 ) ) ;
#306 = CARTESIAN_POINT ( 'NONE',  ( 4.777756813566451655, 6.000000000000000000, -11.67531754730548599 ) ) ;
#307 = VECTOR ( 'NONE', #427, 1000.000000000000114 ) ;
#308 = VERTEX_POINT ( 'NONE', #700 ) ;
#309 = FACE_BOUND ( 'NONE', #745, .T. ) ;
#310 = ORIENTED_EDGE ( 'NONE', *, *, #272, .F. ) ;
#311 = ADVANCED_FACE ( 'NONE', ( #1042 ), #246, .T. ) ;
#312 = CARTESIAN_POINT ( 'NONE',  ( -10.66999043225023414, 9.000132291686872676, 18.08841128011792776 ) ) ;
#313 = CARTESIAN_POINT ( 'NONE',  ( -9.652686721715005191, 3.152980082821677410, 18.65097258781485934 ) ) ;
#314 = EDGE_LOOP ( 'NONE', ( #526, #219, #248, #399 ) ) ;
#315 = CARTESIAN_POINT ( 'NONE',  ( 82.01471862576141802, 24.78528137423852939, 0.000000000000000000 ) ) ;
#316 = EDGE_LOOP ( 'NONE', ( #631, #962, #907, #946, #864 ) ) ;
#317 = EDGE_CURVE ( 'NONE', #1061, #335, #476, .T. ) ;
#318 = DIRECTION ( 'NONE',  ( -0.8660254037844385966, 0.000000000000000000, -0.5000000000000001110 ) ) ;
#319 = ADVANCED_FACE ( 'NONE', ( #331 ), #523, .F. ) ;
#320 = ORIENTED_EDGE ( 'NONE', *, *, #749, .T. ) ;
#321 = DIRECTION ( 'NONE',  ( -0.8660254037844385966, 0.000000000000000000, -0.5000000000000001110 ) ) ;
#322 = ORIENTED_EDGE ( 'NONE', *, *, #371, .T. ) ;
#323 = DIRECTION ( 'NONE',  ( 0.8660254037844383745, 0.000000000000000000, 0.5000000000000005551 ) ) ;
#324 = CARTESIAN_POINT ( 'NONE',  ( 0.000000000000000000, 12.00000000000000000, 12.00000000000000000 ) ) ;
#325 = CIRCLE ( 'NONE', #646, 21.00000000000000000 ) ;
#326 = AXIS2_PLACEMENT_3D ( 'NONE', #279, #273, #173 ) ;
#327 = FACE_OUTER_BOUND ( 'NONE', #496, .T. ) ;
#328 = DIRECTION ( 'NONE',  ( 0.7071067811865460184, 0.7071067811865490160, 0.000000000000000000 ) ) ;
#329 = ORIENTED_EDGE ( 'NONE', *, *, #622, .F. ) ;
#330 = CARTESIAN_POINT ( 'NONE',  ( 12.49999999999999645, 12.00000000000000000, 0.000000000000000000 ) ) ;
#331 = FACE_OUTER_BOUND ( 'NONE', #502, .T. ) ;
#332 = FACE_OUTER_BOUND ( 'NONE', #466, .T. ) ;
#333 = CARTESIAN_POINT ( 'NONE',  ( -7.277756813566462313, 6.000000000000000000, 16.00544456622768763 ) ) ;
#334 = ADVANCED_FACE ( 'NONE', ( #153 ), #880, .T. ) ;
#335 = VERTEX_POINT ( 'NONE', #706 ) ;
#336 = DIRECTION ( 'NONE',  ( 0.000000000000000000, 0.000000000000000000, 1.000000000000000000 ) ) ;
#337 = CARTESIAN_POINT ( 'NONE',  ( -4.304201105807110222E-15, 0.000000000000000000, -11.99999999999997335 ) ) ;
#338 = PRODUCT_DEFINITION_SHAPE ( 'NONE', 'NONE',  #690 ) ;
#339 = EDGE_LOOP ( 'NONE', ( #161, #569, #52, #966 ) ) ;
#340 = DIRECTION ( 'NONE',  ( -0.000000000000000000, -1.000000000000000000, -0.000000000000000000 ) ) ;
#341 = VERTEX_POINT ( 'NONE', #504 ) ;
#342 = EDGE_CURVE ( 'NONE', #1061, #796, #1134, .T. ) ;
#343 = DIRECTION ( 'NONE',  ( 0.000000000000000000, 0.000000000000000000, 1.000000000000000000 ) ) ;
#344 = VECTOR ( 'NONE', #144, 1000.000000000000000 ) ;
#345 = VECTOR ( 'NONE', #876, 1000.000000000000114 ) ;
#346 = ORIENTED_EDGE ( 'NONE', *, *, #387, .F. ) ;
#347 = CARTESIAN_POINT ( 'NONE',  ( 17.23368793961410361, 0.000000000000000000, -11.99999999999998046 ) ) ;
#348 = EDGE_LOOP ( 'NONE', ( #862, #98, #671, #299, #1081, #612 ) ) ;
#349 = VECTOR ( 'NONE', #978, 1000.000000000000000 ) ;
#350 = FACE_OUTER_BOUND ( 'NONE', #111, .T. ) ;
#351 = CARTESIAN_POINT ( 'NONE',  ( 12.67377433955038768, 7.503528720247026662, -16.74477431215147050 ) ) ;
#352 = ORIENTED_EDGE ( 'NONE', *, *, #360, .T. ) ;
#353 = CARTESIAN_POINT ( 'NONE',  ( 6.250000000000001776, 6.000000000000000000, -10.82531754730548990 ) ) ;
#354 = ORIENTED_EDGE ( 'NONE', *, *, #100, .T. ) ;
#355 = DIRECTION ( 'NONE',  ( -0.7071067811865489050, 0.7071067811865462405, 2.536274824589046867E-16 ) ) ;
#356 = DIRECTION ( 'NONE',  ( 0.8660254037844384856, 0.000000000000000000, 0.5000000000000002220 ) ) ;
#357 = EDGE_CURVE ( 'NONE', #889, #758, #678, .T. ) ;
#358 = CARTESIAN_POINT ( 'NONE',  ( 10.15588090298079571, 3.019789477366488395, -18.38191733608913836 ) ) ;
#359 = CARTESIAN_POINT ( 'NONE',  ( 93.32842712474619873, 19.12842712474618168, -12.00000000000000000 ) ) ;
#360 = EDGE_CURVE ( 'NONE', #540, #487, #470, .T. ) ;
#361 = ORIENTED_EDGE ( 'NONE', *, *, #518, .F. ) ;
#362 = CARTESIAN_POINT ( 'NONE',  ( 50.22842712474601257, 62.22842712474620441, 8.004747841878430216E-15 ) ) ;
#363 = DIRECTION ( 'NONE',  ( 0.7071067811865489050, -0.7071067811865462405, 0.000000000000000000 ) ) ;
#364 = CARTESIAN_POINT ( 'NONE',  ( 12.91325331773780505, 5.217787345173416469, -16.56047770386785700 ) ) ;
#365 = DIRECTION ( 'NONE',  ( 1.000000000000000000, 0.000000000000000000, 0.000000000000000000 ) ) ;
#366 = CIRCLE ( 'NONE', #987, 12.00000000000000178 ) ;
#367 = VERTEX_POINT ( 'NONE', #101 ) ;
#368 = PRESENTATION_LAYER_ASSIGNMENT (  '', '', ( #1069 ) ) ;
#369 = CARTESIAN_POINT ( 'NONE',  ( 34.54669386448280477, 6.000000000000000000, -59.83662900681223107 ) ) ;
#370 = DIRECTION ( 'NONE',  ( -0.5000000000000000000, 0.000000000000000000, 0.8660254037844385966 ) ) ;
#371 = EDGE_CURVE ( 'NONE', #145, #1108, #464, .T. ) ;
#372 = PLANE ( 'NONE',  #230 ) ;
#373 = ORIENTED_EDGE ( 'NONE', *, *, #357, .F. ) ;
#374 = EDGE_CURVE ( 'NONE', #244, #308, #141, .T. ) ;
#375 = FACE_OUTER_BOUND ( 'NONE', #1008, .T. ) ;
#376 = DIRECTION ( 'NONE',  ( -0.8660254037844387076, 0.000000000000000000, -0.4999999999999998890 ) ) ;
#377 = CARTESIAN_POINT ( 'NONE',  ( 11.16460289854898491, 3.095281525930284605, -17.78731307582933852 ) ) ;
#378 = VERTEX_POINT ( 'NONE', #537 ) ;
#379 = CYLINDRICAL_SURFACE ( 'NONE', #815, 4.000000000000007994 ) ;
#380 = LINE ( 'NONE', #893, #304 ) ;
#381 = CARTESIAN_POINT ( 'NONE',  ( 17.23368793961408940, 12.00000000000000000, 12.00000000000000000 ) ) ;
#382 = PRODUCT_CONTEXT ( 'NONE', #265, 'mechanical' ) ;
#383 = ORIENTED_EDGE ( 'NONE', *, *, #1018, .F. ) ;
#384 = CIRCLE ( 'NONE', #289, 1.699999999999999734 ) ;
#385 = AXIS2_PLACEMENT_3D ( 'NONE', #6, #363, #1070 ) ;
#386 = CIRCLE ( 'NONE', #589, 4.000000000000007994 ) ;
#387 = EDGE_CURVE ( 'NONE', #935, #598, #716, .T. ) ;
#388 = CARTESIAN_POINT ( 'NONE',  ( -12.91325331773780327, 6.782212654826582643, 16.56047770386786055 ) ) ;
#389 = CARTESIAN_POINT ( 'NONE',  ( 86.85840007688926789, 19.94159992311068663, 0.000000000000000000 ) ) ;
#390 = EDGE_LOOP ( 'NONE', ( #310, #655, #924, #396, #264, #979 ) ) ;
#391 = CARTESIAN_POINT ( 'NONE',  ( -12.49553985762191921, 7.833942596368660638, 16.87820271350033252 ) ) ;
#392 = ADVANCED_FACE ( 'NONE', ( #174, #900 ), #96, .F. ) ;
#393 = DIRECTION ( 'NONE',  ( -0.8660254037844387076, 0.000000000000000000, 0.4999999999999998890 ) ) ;
#394 = ORIENTED_EDGE ( 'NONE', *, *, #606, .F. ) ;
#395 = EDGE_CURVE ( 'NONE', #1050, #754, #643, .T. ) ;
#396 = ORIENTED_EDGE ( 'NONE', *, *, #551, .F. ) ;
#397 = LINE ( 'NONE', #1093, #609 ) ;
#398 = CARTESIAN_POINT ( 'NONE',  ( -12.97491038504660565, 5.606387363444135907, 16.51221329733698440 ) ) ;
#399 = ORIENTED_EDGE ( 'NONE', *, *, #542, .T. ) ;
#400 = LINE ( 'NONE', #593, #344 ) ;
#401 = VECTOR ( 'NONE', #822, 1000.000000000000000 ) ;
#402 = AXIS2_PLACEMENT_3D ( 'NONE', #595, #61, #255 ) ;
#403 = CARTESIAN_POINT ( 'NONE',  ( -7.794228634059951588, 6.000000000000000000, 19.50000000000000000 ) ) ;
#404 = CIRCLE ( 'NONE', #406, 7.999999999999988454 ) ;
#405 = CARTESIAN_POINT ( 'NONE',  ( -12.67377433955038768, 4.496471279752974226, 16.74477431215147050 ) ) ;
#406 = AXIS2_PLACEMENT_3D ( 'NONE', #1082, #418, #942 ) ;
#407 = VERTEX_POINT ( 'NONE', #1063 ) ;
#408 = CYLINDRICAL_SURFACE ( 'NONE', #793, 1.699999999999999734 ) ;
#409 = EDGE_LOOP ( 'NONE', ( #1017, #837, #1145, #685 ) ) ;
#410 = CARTESIAN_POINT ( 'NONE',  ( -8.750000000000007105, 6.000000000000000000, 15.15544456622768621 ) ) ;
#411 = DIRECTION ( 'NONE',  ( 0.000000000000000000, 1.000000000000000000, -0.000000000000000000 ) ) ;
#412 = VERTEX_POINT ( 'NONE', #1075 ) ;
#413 = CARTESIAN_POINT ( 'NONE',  ( 0.000000000000000000, 0.000000000000000000, 0.000000000000000000 ) ) ;
#414 = EDGE_CURVE ( 'NONE', #412, #15, #532, .T. ) ;
#415 = DIRECTION ( 'NONE',  ( 0.7071067811865470176, 0.7071067811865479058, 0.000000000000000000 ) ) ;
#416 = CARTESIAN_POINT ( 'NONE',  ( 10.83801969130769471, 8.980841682846943286, -17.98818723592028590 ) ) ;
#417 = DIRECTION ( 'NONE',  ( 0.7071067811865460184, 0.7071067811865490160, 0.000000000000000000 ) ) ;
#418 = DIRECTION ( 'NONE',  ( 0.7071067811865489050, -0.7071067811865462405, 0.000000000000000000 ) ) ;
#419 = EDGE_LOOP ( 'NONE', ( #554, #1041 ) ) ;
#420 = SURFACE_SIDE_STYLE ('',( #879 ) ) ;
#421 = EDGE_CURVE ( 'NONE', #957, #1113, #711, .T. ) ;
#422 = VECTOR ( 'NONE', #267, 1000.000000000000000 ) ;
#423 = CARTESIAN_POINT ( 'NONE',  ( 12.97491038504660210, 6.393612636555864981, -16.51221329733698084 ) ) ;
#424 = AXIS2_PLACEMENT_3D ( 'NONE', #921, #57, #760 ) ;
#425 = AXIS2_PLACEMENT_3D ( 'NONE', #116, #21, #1109 ) ;
#426 = DIRECTION ( 'NONE',  ( -0.000000000000000000, -1.000000000000000000, -0.000000000000000000 ) ) ;
#427 = DIRECTION ( 'NONE',  ( 0.7071067811865461294, 0.7071067811865489050, 0.000000000000000000 ) ) ;
#428 = ORIENTED_EDGE ( 'NONE', *, *, #542, .F. ) ;
#429 = CARTESIAN_POINT ( 'NONE',  ( 2.571758278209441661E-15, 12.00000000000000000, 21.00000000000000000 ) ) ;
#430 = CARTESIAN_POINT ( 'NONE',  ( 8.078187897726129663, 7.330081009303103912, -19.38423693635439093 ) ) ;
#431 = FACE_OUTER_BOUND ( 'NONE', #897, .T. ) ;
#432 = FACE_BOUND ( 'NONE', #198, .T. ) ;
#433 = EDGE_CURVE ( 'NONE', #1108, #1059, #1003, .T. ) ;
#434 = VERTEX_POINT ( 'NONE', #998 ) ;
#435 = DIRECTION ( 'NONE',  ( 0.8660254037844387076, 0.000000000000000000, -0.4999999999999998890 ) ) ;
#436 = CARTESIAN_POINT ( 'NONE',  ( 6.249999999999999112, 12.00000000000000000, 10.82531754730548634 ) ) ;
#437 = ORIENTED_EDGE ( 'NONE', *, *, #207, .F. ) ;
#438 = PLANE ( 'NONE',  #45 ) ;
#439 = ORIENTED_EDGE ( 'NONE', *, *, #278, .T. ) ;
#440 = DIRECTION ( 'NONE',  ( 0.000000000000000000, 0.000000000000000000, -1.000000000000000000 ) ) ;
#441 = DIRECTION ( 'NONE',  ( 0.000000000000000000, 1.000000000000000000, -0.000000000000000000 ) ) ;
#442 = DIRECTION ( 'NONE',  ( 0.7071067811865489050, -0.7071067811865461294, -0.000000000000000000 ) ) ;
#443 = AXIS2_PLACEMENT_3D ( 'NONE', #324, #608, #74 ) ;
#444 = DIRECTION ( 'NONE',  ( 0.000000000000000000, 0.000000000000000000, -1.000000000000000000 ) ) ;
#445 = ORIENTED_EDGE ( 'NONE', *, *, #136, .F. ) ;
#446 = CARTESIAN_POINT ( 'NONE',  ( -6.250000000000003553, 12.00000000000000000, 10.82531754730548634 ) ) ;
#447 = DIRECTION ( 'NONE',  ( 0.8660254037844385966, 0.000000000000000000, 0.5000000000000001110 ) ) ;
#448 = CARTESIAN_POINT ( 'NONE',  ( 84.84314575050761675, 27.61370849898472102, -4.410978006972019837E-15 ) ) ;
#449 = CARTESIAN_POINT ( 'NONE',  ( 0.000000000000000000, 12.00000000000000000, -21.00000000000000000 ) ) ;
#450 = ORIENTED_EDGE ( 'NONE', *, *, #732, .F. ) ;
#451 = LINE ( 'NONE', #638, #1051 ) ;
#452 = DIRECTION ( 'NONE',  ( 0.000000000000000000, 1.000000000000000000, -0.000000000000000000 ) ) ;
#453 = CARTESIAN_POINT ( 'NONE',  ( 10.83750846058659967, 3.019202808046121511, -17.98847616410494155 ) ) ;
#454 = APPLICATION_PROTOCOL_DEFINITION ( 'draft international standard', 'automotive_design', 1998, #265 ) ;
#455 = ORIENTED_EDGE ( 'NONE', *, *, #1126, .T. ) ;
#456 = FACE_OUTER_BOUND ( 'NONE', #666, .T. ) ;
#457 = CARTESIAN_POINT ( 'NONE',  ( -6.250000000000005329, 6.000000000000000000, 10.82531754730549345 ) ) ;
#458 = DIRECTION ( 'NONE',  ( -0.4999999999999997780, -0.000000000000000000, 0.8660254037844387076 ) ) ;
#459 = AXIS2_PLACEMENT_3D ( 'NONE', #653, #661, #1019 ) ;
#460 = ORIENTED_EDGE ( 'NONE', *, *, #495, .F. ) ;
#461 = AXIS2_PLACEMENT_3D ( 'NONE', #170, #782, #444 ) ;
#462 = DIRECTION ( 'NONE',  ( -0.7071067811865489050, 0.7071067811865462405, -0.000000000000000000 ) ) ;
#463 = EDGE_CURVE ( 'NONE', #487, #889, #810, .T. ) ;
#464 = LINE ( 'NONE', #529, #159 ) ;
#465 = CARTESIAN_POINT ( 'NONE',  ( 12.99038105676657473, 5.801557688368259136, -16.49999999999998934 ) ) ;
#466 = EDGE_LOOP ( 'NONE', ( #475, #977, #617, #1014 ) ) ;
#467 = LINE ( 'NONE', #1103, #401 ) ;
#468 = DIRECTION ( 'NONE',  ( 0.000000000000000000, 0.000000000000000000, 1.000000000000000000 ) ) ;
#469 = FACE_OUTER_BOUND ( 'NONE', #844, .T. ) ;
#470 = B_SPLINE_CURVE_WITH_KNOTS ( 'NONE', 3,
 ( #590, #954, #423, #976, #886, #1052, #351, #775, #1057, #146, #861, #1123, #959, #499, #55, #416, #768, #1117, #687, #681, #693, #241, #601, #965, #157, #510, #874, #69, #430, #780, #1048, #972, #164, #517 ),
 .UNSPECIFIED., .F., .F.,
 ( 4, 2, 2, 2, 2, 2, 2, 2, 2, 2, 2, 2, 2, 2, 2, 2, 4 ),
 ( 8.673617379884035472E-19, 0.0005869608086460187217, 0.001173921617292036576, 0.001760882425938054647, 0.002347843234584072285, 0.002934804043230090139, 0.003521764851876108427, 0.004108725660522126281, 0.004695686469168143702, 0.005282647277814161990, 0.005869608086460179411, 0.006456568895106197699, 0.007043529703752215987, 0.007630490512398233408, 0.008217451321044254298, 0.008804412129690273453, 0.009391372938336292608 ),
 .UNSPECIFIED. ) ;
#471 = ORIENTED_EDGE ( 'NONE', *, *, #272, .T. ) ;
#472 = FACE_OUTER_BOUND ( 'NONE', #916, .T. ) ;
#473 = CARTESIAN_POINT ( 'NONE',  ( -12.74723216519380209, 7.332216082763483911, 16.68873260665803571 ) ) ;
#474 = CARTESIAN_POINT ( 'NONE',  ( -12.04666281880296630, 3.615987078543975830, 17.20188846120118598 ) ) ;
#475 = ORIENTED_EDGE ( 'NONE', *, *, #933, .F. ) ;
#476 = CIRCLE ( 'NONE', #912, 21.00000000000000000 ) ;
#477 = AXIS2_PLACEMENT_3D ( 'NONE', #13, #370, #356 ) ;
#478 = CARTESIAN_POINT ( 'NONE',  ( -8.481212095518039007, 7.981565873588735371, 19.21167166518035430 ) ) ;
#479 = CARTESIAN_POINT ( 'NONE',  ( -8.366767561736160985, 4.169674936299462509, 19.26159814090749123 ) ) ;
#480 = ORIENTED_EDGE ( 'NONE', *, *, #672, .F. ) ;
#481 = LINE ( 'NONE', #932, #553 ) ;
#482 = PRODUCT_RELATED_PRODUCT_CATEGORY ( 'part', '', ( #275 ) ) ;
#483 = CARTESIAN_POINT ( 'NONE',  ( -7.812668684790283535, 5.605045566997052475, 19.49265797790094723 ) ) ;
#484 = ORIENTED_EDGE ( 'NONE', *, *, #875, .F. ) ;
#485 = CARTESIAN_POINT ( 'NONE',  ( -7.812066070394596551, 6.390729983099964429, 19.49289962232768758 ) ) ;
#486 = CARTESIAN_POINT ( 'NONE',  ( -7.794228634059951588, 6.000000000000000000, 19.50000000000000000 ) ) ;
#487 = VERTEX_POINT ( 'NONE', #1 ) ;
#488 = DIRECTION ( 'NONE',  ( 0.5000000000000001110, -0.000000000000000000, -0.8660254037844385966 ) ) ;
#489 = VERTEX_POINT ( 'NONE', #724 ) ;
#490 = CIRCLE ( 'NONE', #530, 12.00000000000000178 ) ;
#491 = AXIS2_PLACEMENT_3D ( 'NONE', #973, #1025, #318 ) ;
#492 = CARTESIAN_POINT ( 'NONE',  ( -8.077533501419425832, 7.328490499041788730, 19.38450779310182526 ) ) ;
#493 = AXIS2_PLACEMENT_3D ( 'NONE', #362, #355, #1056 ) ;
#494 = DIRECTION ( 'NONE',  ( 0.7071067811865489050, -0.7071067811865462405, -2.536274824589046867E-16 ) ) ;
#495 = EDGE_CURVE ( 'NONE', #521, #1066, #190, .T. ) ;
#496 = EDGE_LOOP ( 'NONE', ( #500, #669, #130, #623 ) ) ;
#497 = DIRECTION ( 'NONE',  ( 0.000000000000000000, 1.000000000000000000, -0.000000000000000000 ) ) ;
#498 = CARTESIAN_POINT ( 'NONE',  ( -12.99038105676658361, 5.999999999999998224, 16.49999999999999645 ) ) ;
#499 = CARTESIAN_POINT ( 'NONE',  ( 11.32810864115112537, 8.846021816286059547, -17.68351268042795610 ) ) ;
#500 = ORIENTED_EDGE ( 'NONE', *, *, #294, .F. ) ;
#501 = CYLINDRICAL_SURFACE ( 'NONE', #425, 11.99999999999999822 ) ;
#502 = EDGE_LOOP ( 'NONE', ( #4, #1095, #192, #24, #771, #271 ) ) ;
#503 = CARTESIAN_POINT ( 'NONE',  ( -15.81550992617015616, 6.000000000000000000, 23.99326673973660817 ) ) ;
#504 = CARTESIAN_POINT ( 'NONE',  ( 92.51525432638163693, 25.59845417260306988, 0.000000000000000000 ) ) ;
#505 = DIRECTION ( 'NONE',  ( -0.8660254037844385966, 0.000000000000000000, -0.5000000000000000000 ) ) ;
#506 = CARTESIAN_POINT ( 'NONE',  ( 84.84314575050760254, 27.61370849898473523, 12.00000000000000000 ) ) ;
#507 = VERTEX_POINT ( 'NONE', #196 ) ;
#508 = CARTESIAN_POINT ( 'NONE',  ( 0.000000000000000000, 12.00000000000000000, 0.000000000000000000 ) ) ;
#509 = VECTOR ( 'NONE', #673, 1000.000000000000000 ) ;
#510 = CARTESIAN_POINT ( 'NONE',  ( 8.481071293197667060, 7.981606559582813176, -19.21174612211841293 ) ) ;
#511 = AXIS2_PLACEMENT_3D ( 'NONE', #624, #642, #105 ) ;
#512 = ADVANCED_FACE ( 'NONE', ( #625, #918 ), #22, .T. ) ;
#513 = CARTESIAN_POINT ( 'NONE',  ( 74.20000000000007390, -2.081668171172168513E-14, 12.00000000000000000 ) ) ;
#514 = FACE_BOUND ( 'NONE', #115, .T. ) ;
#515 = ORIENTED_EDGE ( 'NONE', *, *, #100, .F. ) ;
#516 = PLANE ( 'NONE',  #85 ) ;
#517 = CARTESIAN_POINT ( 'NONE',  ( 7.794228634059951588, 6.000000000000000000, -19.50000000000000000 ) ) ;
#518 = EDGE_CURVE ( 'NONE', #135, #968, #380, .T. ) ;
#519 = DIRECTION ( 'NONE',  ( 0.5000000000000001110, -0.000000000000000000, -0.8660254037844385966 ) ) ;
#520 = DIRECTION ( 'NONE',  ( 0.5000000000000001110, 0.000000000000000000, -0.8660254037844385966 ) ) ;
#521 = VERTEX_POINT ( 'NONE', #180 ) ;
#522 = CARTESIAN_POINT ( 'NONE',  ( 17.23368793961408940, 12.00000000000000000, 12.00000000000000000 ) ) ;
#523 = PLANE ( 'NONE',  #443 ) ;
#524 = LINE ( 'NONE', #887, #287 ) ;
#525 = DIRECTION ( 'NONE',  ( 0.8660254037844385966, 0.000000000000000000, 0.5000000000000001110 ) ) ;
#526 = ORIENTED_EDGE ( 'NONE', *, *, #463, .F. ) ;
#527 = EDGE_CURVE ( 'NONE', #781, #1066, #981, .T. ) ;
#528 = CARTESIAN_POINT ( 'NONE',  ( -12.49999999999999822, 0.000000000000000000, 7.216878364870324525 ) ) ;
#529 = CARTESIAN_POINT ( 'NONE',  ( 0.000000000000000000, 12.00000000000000000, 12.00000000000000000 ) ) ;
#530 = AXIS2_PLACEMENT_3D ( 'NONE', #448, #820, #19 ) ;
#531 = FACE_OUTER_BOUND ( 'NONE', #560, .T. ) ;
#532 = CIRCLE ( 'NONE', #1100, 1.699999999999999734 ) ;
#533 = DIRECTION ( 'NONE',  ( 0.5000000000000000000, -0.000000000000000000, -0.8660254037844385966 ) ) ;
#534 = VECTOR ( 'NONE', #17, 1000.000000000000000 ) ;
#535 = ORIENTED_EDGE ( 'NONE', *, *, #7, .T. ) ;
#536 = DIRECTION ( 'NONE',  ( 1.201851678989727077E-16, 0.000000000000000000, 1.000000000000000000 ) ) ;
#537 = CARTESIAN_POINT ( 'NONE',  ( 12.49999999999999645, 12.00000000000000000, 7.216878364870328078 ) ) ;
#538 = CARTESIAN_POINT ( 'NONE',  ( -12.50000000000000000, 0.000000000000000000, -7.216878364870326301 ) ) ;
#539 = SHAPE_DEFINITION_REPRESENTATION ( #338, #16 ) ;
#540 = VERTEX_POINT ( 'NONE', #799 ) ;
#541 = CARTESIAN_POINT ( 'NONE',  ( 33.07445067804925998, 6.000000000000000000, -60.68662900681223960 ) ) ;
#542 = EDGE_CURVE ( 'NONE', #758, #889, #790, .T. ) ;
#543 = ADVANCED_FACE ( 'NONE', ( #989 ), #805, .F. ) ;
#544 = DIRECTION ( 'NONE',  ( -0.4999999999999998890, -0.000000000000000000, 0.8660254037844385966 ) ) ;
#545 = CARTESIAN_POINT ( 'NONE',  ( 9.649488693308359899, 3.154204777416546701, -18.65262620486149459 ) ) ;
#546 = ORIENTED_EDGE ( 'NONE', *, *, #387, .T. ) ;
#547 = CARTESIAN_POINT ( 'NONE',  ( 74.20000000000007390, -2.081668171172168513E-14, -12.00000000000000000 ) ) ;
#548 = EDGE_CURVE ( 'NONE', #825, #831, #274, .T. ) ;
#549 = DIRECTION ( 'NONE',  ( -0.000000000000000000, -1.000000000000000000, -0.000000000000000000 ) ) ;
#550 = CARTESIAN_POINT ( 'NONE',  ( 12.74723216519379854, 4.667783917236510760, -16.68873260665803215 ) ) ;
#551 = EDGE_CURVE ( 'NONE', #521, #378, #834, .T. ) ;
#552 = CIRCLE ( 'NONE', #39, 1.699999999999999734 ) ;
#553 = VECTOR ( 'NONE', #300, 1000.000000000000000 ) ;
#554 = ORIENTED_EDGE ( 'NONE', *, *, #1013, .F. ) ;
#555 = PLANE ( 'NONE',  #1121 ) ;
#556 = DIRECTION ( 'NONE',  ( 0.7071067811865489050, -0.7071067811865461294, 0.000000000000000000 ) ) ;
#557 = EDGE_CURVE ( 'NONE', #104, #808, #988, .T. ) ;
#558 = CARTESIAN_POINT ( 'NONE',  ( 9.169945420738065067, 3.397448511800341020, -18.89282255850252668 ) ) ;
#559 = ADVANCED_FACE ( 'NONE', ( #845 ), #567, .F. ) ;
#560 = EDGE_LOOP ( 'NONE', ( #439, #821, #9, #584 ) ) ;
#561 = FACE_OUTER_BOUND ( 'NONE', #203, .T. ) ;
#562 = CARTESIAN_POINT ( 'NONE',  ( -12.04320424392327915, 8.387137856892891818, 17.20430196410243795 ) ) ;
#563 = CARTESIAN_POINT ( 'NONE',  ( 0.000000000000000000, 12.00000000000000000, 0.000000000000000000 ) ) ;
#564 = ORIENTED_EDGE ( 'NONE', *, *, #495, .T. ) ;
#565 = EDGE_CURVE ( 'NONE', #764, #838, #30, .T. ) ;
#566 = EDGE_CURVE ( 'NONE', #847, #1043, #969, .T. ) ;
#567 = CYLINDRICAL_SURFACE ( 'NONE', #870, 1.700000000000003064 ) ;
#568 = CARTESIAN_POINT ( 'NONE',  ( -9.170073282276042903, 3.397397296944218326, 18.89275764822649251 ) ) ;
#569 = ORIENTED_EDGE ( 'NONE', *, *, #565, .T. ) ;
#570 = CIRCLE ( 'NONE', #851, 1.699999999999999734 ) ;
#571 = CIRCLE ( 'NONE', #67, 4.000000000000007994 ) ;
#572 = CARTESIAN_POINT ( 'NONE',  ( 7.722243186433545681, 6.000000000000000000, -9.975317547305479593 ) ) ;
#573 = CARTESIAN_POINT ( 'NONE',  ( -10.33127185582503316, 2.999927395980973355, 18.28396069548880831 ) ) ;
#574 = ORIENTED_EDGE ( 'NONE', *, *, #759, .T. ) ;
#575 = CARTESIAN_POINT ( 'NONE',  ( 12.49999999999999645, 0.000000000000000000, 0.000000000000000000 ) ) ;
#576 = EDGE_CURVE ( 'NONE', #83, #1113, #121, .T. ) ;
#577 = LINE ( 'NONE', #854, #509 ) ;
#578 = ORIENTED_EDGE ( 'NONE', *, *, #414, .T. ) ;
#579 = CARTESIAN_POINT ( 'NONE',  ( 2.571758278209441661E-15, 12.00000000000000000, 21.00000000000000000 ) ) ;
#580 = ORIENTED_EDGE ( 'NONE', *, *, #744, .F. ) ;
#581 = DIRECTION ( 'NONE',  ( 0.8660254037844380415, 0.000000000000000000, 0.5000000000000012212 ) ) ;
#582 = EDGE_CURVE ( 'NONE', #808, #244, #481, .T. ) ;
#583 = CARTESIAN_POINT ( 'NONE',  ( -12.86814865161901622, 5.031905041495313924, 16.59567800601539034 ) ) ;
#584 = ORIENTED_EDGE ( 'NONE', *, *, #421, .F. ) ;
#585 = CARTESIAN_POINT ( 'NONE',  ( -6.249999999999999112, 0.000000000000000000, -10.82531754730548634 ) ) ;
#586 = ORIENTED_EDGE ( 'NONE', *, *, #875, .T. ) ;
#587 = AXIS2_PLACEMENT_3D ( 'NONE', #819, #911, #108 ) ;
#588 = FACE_OUTER_BOUND ( 'NONE', #903, .T. ) ;
#589 = AXIS2_PLACEMENT_3D ( 'NONE', #227, #235, #415 ) ;
#590 = CARTESIAN_POINT ( 'NONE',  ( 12.99038105676658361, 5.999999999999999112, -16.49999999999999645 ) ) ;
#591 = AXIS2_PLACEMENT_3D ( 'NONE', #675, #752, #328 ) ;
#592 = ORIENTED_EDGE ( 'NONE', *, *, #342, .T. ) ;
#593 = CARTESIAN_POINT ( 'NONE',  ( -12.49999999999999822, 12.00000000000000000, 1.502314598737158637E-15 ) ) ;
#594 = DIRECTION ( 'NONE',  ( 0.7071067811865490160, -0.7071067811865461294, 0.000000000000000000 ) ) ;
#595 = CARTESIAN_POINT ( 'NONE',  ( 8.750000000000001776, 6.000000000000000000, -15.15544456622768266 ) ) ;
#596 = DIRECTION ( 'NONE',  ( 0.5000000000000001110, -0.000000000000000000, -0.8660254037844384856 ) ) ;
#597 = CARTESIAN_POINT ( 'NONE',  ( 12.49999999999999645, 12.00000000000000000, 0.000000000000000000 ) ) ;
#598 = VERTEX_POINT ( 'NONE', #572 ) ;
#599 = CARTESIAN_POINT ( 'NONE',  ( -12.87102355330306480, 6.000000000000000000, 25.69326673973660746 ) ) ;
#600 = EDGE_CURVE ( 'NONE', #598, #282, #194, .T. ) ;
#601 = CARTESIAN_POINT ( 'NONE',  ( 9.170073282276042903, 8.602602703055783451, -18.89275764822649251 ) ) ;
#602 = DIRECTION ( 'NONE',  ( -0.7071067811865490160, 0.7071067811865461294, -0.000000000000000000 ) ) ;
#603 = LINE ( 'NONE', #269, #774 ) ;
#604 = ORIENTED_EDGE ( 'NONE', *, *, #767, .F. ) ;
#605 = DIRECTION ( 'NONE',  ( 0.8660254037844387076, 0.000000000000000000, -0.4999999999999998890 ) ) ;
#606 = EDGE_CURVE ( 'NONE', #104, #308, #397, .T. ) ;
#607 = VECTOR ( 'NONE', #549, 1000.000000000000000 ) ;
#608 = DIRECTION ( 'NONE',  ( 0.000000000000000000, 0.000000000000000000, -1.000000000000000000 ) ) ;
#609 = VECTOR ( 'NONE', #122, 1000.000000000000000 ) ;
#610 = EDGE_LOOP ( 'NONE', ( #592, #620, #714, #295, #445, #78 ) ) ;
#611 = DIRECTION ( 'NONE',  ( -0.000000000000000000, -1.000000000000000000, -0.000000000000000000 ) ) ;
#612 = ORIENTED_EDGE ( 'NONE', *, *, #883, .T. ) ;
#613 = PLANE ( 'NONE',  #195 ) ;
#614 = DIRECTION ( 'NONE',  ( -0.4999999999999998890, 0.000000000000000000, -0.8660254037844387076 ) ) ;
#615 = CARTESIAN_POINT ( 'NONE',  ( 74.20000000000005969, 0.000000000000000000, 0.000000000000000000 ) ) ;
#616 = CARTESIAN_POINT ( 'NONE',  ( 8.750000000000001776, 6.000000000000000000, -15.15544456622768266 ) ) ;
#617 = ORIENTED_EDGE ( 'NONE', *, *, #421, .T. ) ;
#618 = CARTESIAN_POINT ( 'NONE',  ( 93.32842712474617031, 36.09898987322331720, 0.000000000000000000 ) ) ;
#619 = DIRECTION ( 'NONE',  ( 0.7071067811865489050, -0.7071067811865462405, -0.000000000000000000 ) ) ;
#620 = ORIENTED_EDGE ( 'NONE', *, *, #7, .F. ) ;
#621 = FACE_OUTER_BOUND ( 'NONE', #785, .T. ) ;
#622 = EDGE_CURVE ( 'NONE', #1120, #957, #1106, .T. ) ;
#623 = ORIENTED_EDGE ( 'NONE', *, *, #684, .F. ) ;
#624 = CARTESIAN_POINT ( 'NONE',  ( 0.000000000000000000, 12.00000000000000000, 0.000000000000000000 ) ) ;
#625 = FACE_BOUND ( 'NONE', #390, .T. ) ;
#626 = VECTOR ( 'NONE', #48, 1000.000000000000000 ) ;
#627 = CARTESIAN_POINT ( 'NONE',  ( 12.39493160365157109, 4.015283672183736385, -16.95243260599974278 ) ) ;
#628 = VECTOR ( 'NONE', #917, 1000.000000000000000 ) ;
#629 = VECTOR ( 'NONE', #770, 1000.000000000000000 ) ;
#630 = EDGE_CURVE ( 'NONE', #838, #234, #832, .T. ) ;
#631 = ORIENTED_EDGE ( 'NONE', *, *, #53, .T. ) ;
#632 = EDGE_CURVE ( 'NONE', #658, #145, #107, .T. ) ;
#633 = DIRECTION ( 'NONE',  ( -0.000000000000000000, -1.000000000000000000, -0.000000000000000000 ) ) ;
#634 = UNCERTAINTY_MEASURE_WITH_UNIT (LENGTH_MEASURE( 1.000000000000000082E-05 ), #250, 'distance_accuracy_value', 'NONE');
#635 = CARTESIAN_POINT ( 'NONE',  ( 31.94861765312949231, 6.000000000000000000, -61.33662900681222396 ) ) ;
#636 = DIRECTION ( 'NONE',  ( -0.4999999999999998890, 0.000000000000000000, 0.8660254037844387076 ) ) ;
#637 = ORIENTED_EDGE ( 'NONE', *, *, #565, .F. ) ;
#638 = CARTESIAN_POINT ( 'NONE',  ( 65.71471862576149192, 8.485281374238535790, -12.00000000000000000 ) ) ;
#639 = CARTESIAN_POINT ( 'NONE',  ( 65.71471862576149192, 8.485281374238535790, 12.00000000000000000 ) ) ;
#640 = CARTESIAN_POINT ( 'NONE',  ( 8.366900490381956601, 4.169317872588541363, -19.26154515536509493 ) ) ;
#641 = ORIENTED_EDGE ( 'NONE', *, *, #600, .F. ) ;
#642 = DIRECTION ( 'NONE',  ( -0.000000000000000000, -1.000000000000000000, -0.000000000000000000 ) ) ;
#643 = LINE ( 'NONE', #284, #736 ) ;
#644 = CARTESIAN_POINT ( 'NONE',  ( 12.86714821421165311, 5.028488353466837424, -16.59645205227286979 ) ) ;
#645 = CIRCLE ( 'NONE', #228, 21.00000000000000000 ) ;
#646 = AXIS2_PLACEMENT_3D ( 'NONE', #1033, #168, #343 ) ;
#647 = ORIENTED_EDGE ( 'NONE', *, *, #1018, .T. ) ;
#648 = DIRECTION ( 'NONE',  ( 0.7071067811865470176, 0.7071067811865479058, 0.000000000000000000 ) ) ;
#649 = CARTESIAN_POINT ( 'NONE',  ( -11.77365090279968918, 8.604690807496877980, 17.38987978543482527 ) ) ;
#650 = CARTESIAN_POINT ( 'NONE',  ( 12.04320424392327737, 3.612862143107108626, -17.20430196410243440 ) ) ;
#651 = ORIENTED_EDGE ( 'NONE', *, *, #77, .T. ) ;
#652 = EDGE_CURVE ( 'NONE', #808, #104, #386, .T. ) ;
#653 = CARTESIAN_POINT ( 'NONE',  ( 82.01471862576141802, 24.78528137423852939, 0.000000000000000000 ) ) ;
#654 = CARTESIAN_POINT ( 'NONE',  ( -12.50000000000000000, 12.00000000000000000, -7.216878364870326301 ) ) ;
#655 = ORIENTED_EDGE ( 'NONE', *, *, #395, .F. ) ;
#656 = CARTESIAN_POINT ( 'NONE',  ( 6.250000000000001776, 6.000000000000000000, -10.82531754730548990 ) ) ;
#657 = DIRECTION ( 'NONE',  ( 0.7071067811865489050, -0.7071067811865462405, 0.000000000000000000 ) ) ;
#658 = VERTEX_POINT ( 'NONE', #429 ) ;
#659 = AXIS2_PLACEMENT_3D ( 'NONE', #1038, #791, #236 ) ;
#660 = EDGE_CURVE ( 'NONE', #968, #72, #28, .T. ) ;
#661 = DIRECTION ( 'NONE',  ( 0.7071067811865489050, -0.7071067811865462405, 1.665334536937734318E-16 ) ) ;
#662 = CARTESIAN_POINT ( 'NONE',  ( -10.15746060654611505, 3.019503530599924712, 18.38105201443663361 ) ) ;
#663 = VERTEX_POINT ( 'NONE', #1037 ) ;
#664 = CARTESIAN_POINT ( 'NONE',  ( -14.34326673973661137, 6.000000000000000000, 24.84326673973660959 ) ) ;
#665 = ADVANCED_FACE ( 'NONE', ( #588 ), #613, .T. ) ;
#666 = EDGE_LOOP ( 'NONE', ( #127, #651, #943, #855, #535 ) ) ;
#667 = DIRECTION ( 'NONE',  ( 0.8660254037844387076, 0.000000000000000000, -0.4999999999999998890 ) ) ;
#668 = CARTESIAN_POINT ( 'NONE',  ( -7.884682884967622485, 5.220057619995425391, 19.46364001992501613 ) ) ;
#669 = ORIENTED_EDGE ( 'NONE', *, *, #732, .T. ) ;
#670 = FACE_OUTER_BOUND ( 'NONE', #214, .T. ) ;
#671 = ORIENTED_EDGE ( 'NONE', *, *, #527, .T. ) ;
#672 = EDGE_CURVE ( 'NONE', #1066, #825, #1110, .T. ) ;
#673 = DIRECTION ( 'NONE',  ( 0.7071067811865489050, -0.7071067811865462405, -0.000000000000000000 ) ) ;
#674 = EDGE_LOOP ( 'NONE', ( #1096, #580, #1132, #1087 ) ) ;
#675 = CARTESIAN_POINT ( 'NONE',  ( 86.85840007688926789, 19.94159992311068663, 0.000000000000000000 ) ) ;
#676 = ORIENTED_EDGE ( 'NONE', *, *, #551, .T. ) ;
#677 = ADVANCED_FACE ( 'NONE', ( #151 ), #516, .T. ) ;
#678 = CIRCLE ( 'NONE', #402, 3.000000000000001332 ) ;
#679 = CARTESIAN_POINT ( 'NONE',  ( 2.571758278209441661E-15, 0.000000000000000000, 21.00000000000000000 ) ) ;
#680 = VECTOR ( 'NONE', #440, 1000.000000000000000 ) ;
#681 = CARTESIAN_POINT ( 'NONE',  ( 9.818691042300720540, 8.903769024975947133, -18.56422326268472034 ) ) ;
#682 = CYLINDRICAL_SURFACE ( 'NONE', #891, 1.699999999999999734 ) ;
#683 = DIRECTION ( 'NONE',  ( -0.000000000000000000, -1.000000000000000000, -0.000000000000000000 ) ) ;
#684 = EDGE_CURVE ( 'NONE', #847, #15, #240, .T. ) ;
#685 = ORIENTED_EDGE ( 'NONE', *, *, #744, .T. ) ;
#686 = LINE ( 'NONE', #599, #1086 ) ;
#687 = CARTESIAN_POINT ( 'NONE',  ( 10.15746060654610972, 8.980496469400076620, -18.38105201443663361 ) ) ;
#688 = EDGE_LOOP ( 'NONE', ( #852, #985, #929, #346 ) ) ;
#689 = DIRECTION ( 'NONE',  ( 0.8660254037844385966, 0.000000000000000000, 0.5000000000000001110 ) ) ;
#690 = PRODUCT_DEFINITION ( 'UNKNOWN', '', #952, #184 ) ;
#691 = ORIENTED_EDGE ( 'NONE', *, *, #582, .T. ) ;
#692 = SURFACE_STYLE_USAGE ( .BOTH. , #420 ) ;
#693 = CARTESIAN_POINT ( 'NONE',  ( 9.652686721715001639, 8.847019917178323922, -18.65097258781484513 ) ) ;
#694 = LINE ( 'NONE', #513, #345 ) ;
#695 = DIRECTION ( 'NONE',  ( 0.8660254037844387076, 0.000000000000000000, 0.5000000000000001110 ) ) ;
#696 = ORIENTED_EDGE ( 'NONE', *, *, #557, .F. ) ;
#697 =( NAMED_UNIT ( * ) PLANE_ANGLE_UNIT ( ) SI_UNIT ( $, .RADIAN. ) );
#698 = AXIS2_PLACEMENT_3D ( 'NONE', #1143, #262, #1118 ) ;
#699 = VECTOR ( 'NONE', #544, 1000.000000000000227 ) ;
#700 = CARTESIAN_POINT ( 'NONE',  ( 84.02997295214308338, 17.11317279836448435, 4.898587196589417759E-16 ) ) ;
#701 = AXIS2_PLACEMENT_3D ( 'NONE', #656, #926, #839 ) ;
#702 = ORIENTED_EDGE ( 'NONE', *, *, #298, .F. ) ;
#703 = FACE_OUTER_BOUND ( 'NONE', #857, .T. ) ;
#704 = ORIENTED_EDGE ( 'NONE', *, *, #632, .T. ) ;
#705 = DIRECTION ( 'NONE',  ( -0.000000000000000000, -1.000000000000000000, -0.000000000000000000 ) ) ;
#706 = CARTESIAN_POINT ( 'NONE',  ( 0.000000000000000000, 0.000000000000000000, -21.00000000000000000 ) ) ;
#707 = DIRECTION ( 'NONE',  ( 0.7071067811865460184, 0.7071067811865490160, 0.000000000000000000 ) ) ;
#708 = FACE_OUTER_BOUND ( 'NONE', #941, .T. ) ;
#709 = VERTEX_POINT ( 'NONE', #784 ) ;
#710 = CARTESIAN_POINT ( 'NONE',  ( 12.49999999999999645, 0.000000000000000000, -7.216878364870331630 ) ) ;
#711 = LINE ( 'NONE', #1079, #422 ) ;
#712 = EDGE_CURVE ( 'NONE', #145, #149, #245, .T. ) ;
#713 = CARTESIAN_POINT ( 'NONE',  ( 81.20154582739691307, 14.28474567361830161, 9.797174393178815797E-16 ) ) ;
#714 = ORIENTED_EDGE ( 'NONE', *, *, #734, .F. ) ;
#715 = FACE_BOUND ( 'NONE', #224, .T. ) ;
#716 = LINE ( 'NONE', #186, #699 ) ;
#717 = VECTOR ( 'NONE', #866, 1000.000000000000000 ) ;
#718 = CARTESIAN_POINT ( 'NONE',  ( 12.99038105676658361, 5.999999999999999112, -16.49999999999999645 ) ) ;
#719 = AXIS2_PLACEMENT_3D ( 'NONE', #896, #611, #868 ) ;
#720 = ORIENTED_EDGE ( 'NONE', *, *, #899, .T. ) ;
#721 = MANIFOLD_SOLID_BREP ( 'Mirror1', #1137 ) ;
#722 = ADVANCED_FACE ( 'NONE', ( #773 ), #1122, .F. ) ;
#723 = FACE_OUTER_BOUND ( 'NONE', #339, .T. ) ;
#724 = CARTESIAN_POINT ( 'NONE',  ( 17.23368793961410361, 12.00000000000000000, -11.99999999999998046 ) ) ;
#725 = CARTESIAN_POINT ( 'NONE',  ( 12.97491640868333285, 5.605439660399023083, -16.51220994343429638 ) ) ;
#726 = ORIENTED_EDGE ( 'NONE', *, *, #1090, .F. ) ;
#727 = CARTESIAN_POINT ( 'NONE',  ( 50.22842712474600546, 62.22842712474619020, 12.00000000000000000 ) ) ;
#728 = CARTESIAN_POINT ( 'NONE',  ( 28.61471862576161485, -28.61471862576149405, 0.000000000000000000 ) ) ;
#729 = PLANE ( 'NONE',  #139 ) ;
#730 = VERTEX_POINT ( 'NONE', #679 ) ;
#731 = DIRECTION ( 'NONE',  ( -0.8660254037844387076, 0.000000000000000000, 0.4999999999999998890 ) ) ;
#732 = EDGE_CURVE ( 'NONE', #1043, #412, #686, .T. ) ;
#733 = DIRECTION ( 'NONE',  ( 0.8660254037844385966, 0.000000000000000000, 0.5000000000000001110 ) ) ;
#734 = EDGE_CURVE ( 'NONE', #149, #709, #970, .T. ) ;
#735 = CARTESIAN_POINT ( 'NONE',  ( 8.077533501419420503, 4.671509500958210381, -19.38450779310182526 ) ) ;
#736 = VECTOR ( 'NONE', #376, 1000.000000000000114 ) ;
#737 = ORIENTED_EDGE ( 'NONE', *, *, #1047, .F. ) ;
#738 = VECTOR ( 'NONE', #488, 1000.000000000000000 ) ;
#739 = CARTESIAN_POINT ( 'NONE',  ( -8.875157129887279339, 8.384919949421213659, 19.03308249249679207 ) ) ;
#740 = CARTESIAN_POINT ( 'NONE',  ( -12.99038105676658361, 5.999999999999998224, 16.49999999999999645 ) ) ;
#741 = ORIENTED_EDGE ( 'NONE', *, *, #630, .F. ) ;
#742 = DIRECTION ( 'NONE',  ( 0.4999999999999997780, 0.000000000000000000, -0.8660254037844387076 ) ) ;
#743 = DIRECTION ( 'NONE',  ( -0.000000000000000000, -1.000000000000000000, -0.000000000000000000 ) ) ;
#744 = EDGE_CURVE ( 'NONE', #1050, #831, #86, .T. ) ;
#745 = EDGE_LOOP ( 'NONE', ( #867, #578 ) ) ;
#746 = ORIENTED_EDGE ( 'NONE', *, *, #600, .T. ) ;
#747 = CARTESIAN_POINT ( 'NONE',  ( -9.324887327713176077, 8.694817547099471966, 18.81700222421269331 ) ) ;
#748 = CARTESIAN_POINT ( 'NONE',  ( -8.078187897726133215, 4.669918990696894312, 19.38423693635439449 ) ) ;
#749 = EDGE_CURVE ( 'NONE', #1108, #507, #1062, .T. ) ;
#750 = ORIENTED_EDGE ( 'NONE', *, *, #342, .F. ) ;
#751 = AXIS2_PLACEMENT_3D ( 'NONE', #1130, #442, #417 ) ;
#752 = DIRECTION ( 'NONE',  ( 0.7071067811865489050, -0.7071067811865461294, -0.000000000000000000 ) ) ;
#753 = VECTOR ( 'NONE', #667, 1000.000000000000114 ) ;
#754 = VERTEX_POINT ( 'NONE', #997 ) ;
#755 = AXIS2_PLACEMENT_3D ( 'NONE', #964, #1128, #79 ) ;
#756 = EDGE_CURVE ( 'NONE', #540, #758, #266, .T. ) ;
#757 = CARTESIAN_POINT ( 'NONE',  ( 6.249999999999999112, 12.00000000000000000, 10.82531754730548634 ) ) ;
#758 = VERTEX_POINT ( 'NONE', #189 ) ;
#759 = EDGE_CURVE ( 'NONE', #367, #521, #809, .T. ) ;
#760 = DIRECTION ( 'NONE',  ( -0.8660254037844385966, 0.000000000000000000, -0.5000000000000001110 ) ) ;
#761 = EDGE_CURVE ( 'NONE', #1113, #83, #178, .T. ) ;
#762 =( NAMED_UNIT ( * ) SI_UNIT ( $, .STERADIAN. ) SOLID_ANGLE_UNIT ( ) );
#763 = CARTESIAN_POINT ( 'NONE',  ( -8.737495540616587064, 3.738726974159140237, 19.09649001829233228 ) ) ;
#764 = VERTEX_POINT ( 'NONE', #618 ) ;
#765 = CARTESIAN_POINT ( 'NONE',  ( 86.85840007688926789, 19.94159992311068663, 0.000000000000000000 ) ) ;
#766 = CARTESIAN_POINT ( 'NONE',  ( -6.249999999999999112, 12.00000000000000000, -10.82531754730548634 ) ) ;
#767 = EDGE_CURVE ( 'NONE', #407, #282, #94, .T. ) ;
#768 = CARTESIAN_POINT ( 'NONE',  ( 10.67065888955573172, 8.999926981770745016, -18.08799147876533908 ) ) ;
#769 = DIRECTION ( 'NONE',  ( 0.000000000000000000, 0.000000000000000000, -1.000000000000000000 ) ) ;
#770 = DIRECTION ( 'NONE',  ( 0.000000000000000000, 0.000000000000000000, -1.000000000000000000 ) ) ;
#771 = ORIENTED_EDGE ( 'NONE', *, *, #712, .T. ) ;
#772 = VECTOR ( 'NONE', #865, 1000.000000000000227 ) ;
#773 = FACE_OUTER_BOUND ( 'NONE', #221, .T. ) ;
#774 = VECTOR ( 'NONE', #1044, 1000.000000000000000 ) ;
#775 = CARTESIAN_POINT ( 'NONE',  ( 12.49822733008706699, 7.829466150483967546, -16.87620622000686765 ) ) ;
#776 = CYLINDRICAL_SURFACE ( 'NONE', #40, 3.000000000000002665 ) ;
#777 = CYLINDRICAL_SURFACE ( 'NONE', #719, 21.00000000000000000 ) ;
#778 = ORIENTED_EDGE ( 'NONE', *, *, #136, .T. ) ;
#779 = CARTESIAN_POINT ( 'NONE',  ( -12.99038105676658894, 6.198442311631746193, 16.50000000000000000 ) ) ;
#780 = CARTESIAN_POINT ( 'NONE',  ( 7.937852169684037840, 6.966968822677693574, -19.44212602180989791 ) ) ;
#781 = VERTEX_POINT ( 'NONE', #528 ) ;
#782 = DIRECTION ( 'NONE',  ( -0.000000000000000000, -1.000000000000000000, -0.000000000000000000 ) ) ;
#783 = ORIENTED_EDGE ( 'NONE', *, *, #858, .T. ) ;
#784 = CARTESIAN_POINT ( 'NONE',  ( 74.20000000000005969, 0.000000000000000000, 12.00000000000000000 ) ) ;
#785 = EDGE_LOOP ( 'NONE', ( #484, #931, #647, #1045 ) ) ;
#786 = DIRECTION ( 'NONE',  ( -0.5000000000000001110, 0.000000000000000000, 0.8660254037844387076 ) ) ;
#787 = ORIENTED_EDGE ( 'NONE', *, *, #290, .T. ) ;
#788 = DIRECTION ( 'NONE',  ( -0.4999999999999998890, -0.000000000000000000, 0.8660254037844385966 ) ) ;
#789 = EDGE_CURVE ( 'NONE', #234, #1059, #1141, .T. ) ;
#790 = CIRCLE ( 'NONE', #477, 3.000000000000001332 ) ;
#791 = DIRECTION ( 'NONE',  ( 1.000000000000000000, 0.000000000000000000, -1.201851678989727077E-16 ) ) ;
#792 = VECTOR ( 'NONE', #788, 1000.000000000000227 ) ;
#793 = AXIS2_PLACEMENT_3D ( 'NONE', #664, #1027, #321 ) ;
#794 = CARTESIAN_POINT ( 'NONE',  ( -14.34326673973661315, 6.000000000000000000, 24.84326673973660959 ) ) ;
#795 = PLANE ( 'NONE',  #971 ) ;
#796 = VERTEX_POINT ( 'NONE', #547 ) ;
#797 = DIRECTION ( 'NONE',  ( 0.7071067811865461294, 0.7071067811865489050, 0.000000000000000000 ) ) ;
#798 = EDGE_CURVE ( 'NONE', #257, #119, #1001, .T. ) ;
#799 = CARTESIAN_POINT ( 'NONE',  ( 12.99038105676658361, 5.999999999999999112, -16.49999999999999645 ) ) ;
#800 = CARTESIAN_POINT ( 'NONE',  ( 7.938070265715942320, 5.032569895527853276, -19.44203513791534377 ) ) ;
#801 = DIRECTION ( 'NONE',  ( -0.5000000000000000000, 0.000000000000000000, 0.8660254037844385966 ) ) ;
#802 = ORIENTED_EDGE ( 'NONE', *, *, #566, .T. ) ;
#803 = CARTESIAN_POINT ( 'NONE',  ( 101.8137084989847381, 27.61370849898476365, 0.000000000000000000 ) ) ;
#804 = ADVANCED_FACE ( 'NONE', ( #723 ), #99, .T. ) ;
#805 = CYLINDRICAL_SURFACE ( 'NONE', #385, 4.000000000000007994 ) ;
#806 = CARTESIAN_POINT ( 'NONE',  ( 11.32586831807886085, 3.152997366144218105, -17.68495851993584367 ) ) ;
#807 = ADVANCED_FACE ( 'NONE', ( #904, #456 ), #555, .T. ) ;
#808 = VERTEX_POINT ( 'NONE', #10 ) ;
#809 = LINE ( 'NONE', #446, #534 ) ;
#810 = LINE ( 'NONE', #635, #811 ) ;
#811 = VECTOR ( 'NONE', #994, 1000.000000000000227 ) ;
#812 = CARTESIAN_POINT ( 'NONE',  ( 8.875157129887275786, 3.615080050578789450, -19.03308249249679207 ) ) ;
#813 = VECTOR ( 'NONE', #731, 1000.000000000000114 ) ;
#814 = ADVANCED_FACE ( 'NONE', ( #375, #715 ), #908, .T. ) ;
#815 = AXIS2_PLACEMENT_3D ( 'NONE', #315, #288, #648 ) ;
#816 = ORIENTED_EDGE ( 'NONE', *, *, #939, .T. ) ;
#817 = CYLINDRICAL_SURFACE ( 'NONE', #123, 1.700000000000003064 ) ;
#818 = UNCERTAINTY_MEASURE_WITH_UNIT (LENGTH_MEASURE( 1.000000000000000082E-05 ), #1133, 'distance_accuracy_value', 'NONE');
#819 = CARTESIAN_POINT ( 'NONE',  ( 86.85840007688926789, 19.94159992311068663, 0.000000000000000000 ) ) ;
#820 = DIRECTION ( 'NONE',  ( -0.7071067811865490160, 0.7071067811865461294, -0.000000000000000000 ) ) ;
#821 = ORIENTED_EDGE ( 'NONE', *, *, #933, .T. ) ;
#822 = DIRECTION ( 'NONE',  ( -0.000000000000000000, -1.000000000000000000, -0.000000000000000000 ) ) ;
#823 = DIRECTION ( 'NONE',  ( 1.000000000000000000, -0.000000000000000000, 0.000000000000000000 ) ) ;
#824 = CARTESIAN_POINT ( 'NONE',  ( 6.250000000000000888, 12.00000000000000000, -10.82531754730548812 ) ) ;
#825 = VERTEX_POINT ( 'NONE', #193 ) ;
#826 = DIRECTION ( 'NONE',  ( 0.000000000000000000, 1.000000000000000000, -0.000000000000000000 ) ) ;
#827 = ADVANCED_FACE ( 'NONE', ( #350 ), #817, .F. ) ;
#828 = CARTESIAN_POINT ( 'NONE',  ( -12.86714821421165311, 6.971511646533156359, 16.59645205227286624 ) ) ;
#829 = CYLINDRICAL_SURFACE ( 'NONE', #209, 2.999999999999999556 ) ;
#830 = VECTOR ( 'NONE', #743, 1000.000000000000000 ) ;
#831 = VERTEX_POINT ( 'NONE', #710 ) ;
#832 = CIRCLE ( 'NONE', #894, 12.00000000000000178 ) ;
#833 = EDGE_CURVE ( 'NONE', #119, #781, #179, .T. ) ;
#834 = LINE ( 'NONE', #757, #753 ) ;
#835 = EDGE_CURVE ( 'NONE', #507, #663, #451, .T. ) ;
#836 = CARTESIAN_POINT ( 'NONE',  ( 34.54669386448280477, 6.000000000000000000, -59.83662900681221686 ) ) ;
#837 = ORIENTED_EDGE ( 'NONE', *, *, #256, .F. ) ;
#838 = VERTEX_POINT ( 'NONE', #803 ) ;
#839 = DIRECTION ( 'NONE',  ( 0.8660254037844385966, 0.000000000000000000, 0.5000000000000001110 ) ) ;
#840 = EDGE_CURVE ( 'NONE', #434, #119, #5, .T. ) ;
#841 = DIRECTION ( 'NONE',  ( 0.7071067811865460184, 0.7071067811865490160, 0.000000000000000000 ) ) ;
#842 = ORIENTED_EDGE ( 'NONE', *, *, #231, .F. ) ;
#843 = EDGE_CURVE ( 'NONE', #378, #1050, #956, .T. ) ;
#844 = EDGE_LOOP ( 'NONE', ( #354, #1104 ) ) ;
#845 = FACE_OUTER_BOUND ( 'NONE', #688, .T. ) ;
#846 = CARTESIAN_POINT ( 'NONE',  ( -12.49822733008706699, 4.170533849516036895, 16.87620622000686410 ) ) ;
#847 = VERTEX_POINT ( 'NONE', #863 ) ;
#848 =( GEOMETRIC_REPRESENTATION_CONTEXT ( 3 ) GLOBAL_UNCERTAINTY_ASSIGNED_CONTEXT ( ( #634 ) ) GLOBAL_UNIT_ASSIGNED_CONTEXT ( ( #250, #82, #902 ) ) REPRESENTATION_CONTEXT ( 'NONE', 'WORKASPACE' ) );
#849 = ADVANCED_FACE ( 'NONE', ( #309, #112 ), #1036, .T. ) ;
#850 = CARTESIAN_POINT ( 'NONE',  ( 6.250000000000000888, 0.000000000000000000, -10.82531754730548812 ) ) ;
#851 = AXIS2_PLACEMENT_3D ( 'NONE', #114, #458, #1011 ) ;
#852 = ORIENTED_EDGE ( 'NONE', *, *, #1013, .T. ) ;
#853 = CARTESIAN_POINT ( 'NONE',  ( -11.32586831807885730, 8.847002633855778342, 17.68495851993582590 ) ) ;
#854 = CARTESIAN_POINT ( 'NONE',  ( 92.51525432638163693, 25.59845417260306988, 0.000000000000000000 ) ) ;
#855 = ORIENTED_EDGE ( 'NONE', *, *, #62, .F. ) ;
#856 = DIRECTION ( 'NONE',  ( 0.000000000000000000, 0.000000000000000000, 1.000000000000000000 ) ) ;
#857 = EDGE_LOOP ( 'NONE', ( #1000, #787, #737, #750, #383, #1034 ) ) ;
#858 = EDGE_CURVE ( 'NONE', #72, #968, #404, .T. ) ;
#859 = CARTESIAN_POINT ( 'NONE',  ( 34.54669386448280477, 6.000000000000000000, -59.83662900681221686 ) ) ;
#860 = ADVANCED_FACE ( 'NONE', ( #561 ), #233, .F. ) ;
#861 = CARTESIAN_POINT ( 'NONE',  ( 12.04666281880296808, 8.384012921456024614, -17.20188846120119308 ) ) ;
#862 = ORIENTED_EDGE ( 'NONE', *, *, #840, .T. ) ;
#863 = CARTESIAN_POINT ( 'NONE',  ( -10.22224318643355367, 6.000000000000000000, 14.30544456622768656 ) ) ;
#864 = ORIENTED_EDGE ( 'NONE', *, *, #433, .T. ) ;
#865 = DIRECTION ( 'NONE',  ( 0.5000000000000001110, -0.000000000000000000, -0.8660254037844384856 ) ) ;
#866 = DIRECTION ( 'NONE',  ( 1.000000000000000000, 0.000000000000000000, -3.586834254839265914E-16 ) ) ;
#867 = ORIENTED_EDGE ( 'NONE', *, *, #171, .T. ) ;
#868 = DIRECTION ( 'NONE',  ( 0.000000000000000000, 0.000000000000000000, -1.000000000000000000 ) ) ;
#869 = ORIENTED_EDGE ( 'NONE', *, *, #278, .F. ) ;
#870 = AXIS2_PLACEMENT_3D ( 'NONE', #133, #128, #581 ) ;
#871 = COLOUR_RGB ( '',0.7921568627450980005, 0.8196078431372548767, 0.9333333333333333481 ) ;
#872 = DIRECTION ( 'NONE',  ( -0.000000000000000000, -1.000000000000000000, -0.000000000000000000 ) ) ;
#873 = AXIS2_PLACEMENT_3D ( 'NONE', #1054, #1060, #877 ) ;
#874 = CARTESIAN_POINT ( 'NONE',  ( 8.366767561736155656, 7.830325063700533939, -19.26159814090748768 ) ) ;
#875 = EDGE_CURVE ( 'NONE', #1091, #335, #467, .T. ) ;
#876 = DIRECTION ( 'NONE',  ( 0.7071067811865461294, 0.7071067811865489050, 0.000000000000000000 ) ) ;
#877 = DIRECTION ( 'NONE',  ( -1.000000000000000000, 0.000000000000000000, 3.586834254839265914E-16 ) ) ;
#878 = ORIENTED_EDGE ( 'NONE', *, *, #1116, .F. ) ;
#879 = SURFACE_STYLE_FILL_AREA ( #885 ) ;
#880 = PLANE ( 'NONE',  #84 ) ;
#881 = DIRECTION ( 'NONE',  ( -0.8660254037844385966, 0.000000000000000000, -0.5000000000000000000 ) ) ;
#882 = DIRECTION ( 'NONE',  ( 0.7071067811865489050, -0.7071067811865462405, 0.000000000000000000 ) ) ;
#883 = EDGE_CURVE ( 'NONE', #831, #434, #1119, .T. ) ;
#884 = ORIENTED_EDGE ( 'NONE', *, *, #833, .F. ) ;
#885 = FILL_AREA_STYLE ('',( #975 ) ) ;
#886 = CARTESIAN_POINT ( 'NONE',  ( 12.86814865161901444, 6.968094958504686076, -16.59567800601539034 ) ) ;
#887 = CARTESIAN_POINT ( 'NONE',  ( 3.469446951953614189E-15, 12.00000000000000000, -14.43375672974064905 ) ) ;
#888 = CARTESIAN_POINT ( 'NONE',  ( -4.304201105807110222E-15, 12.00000000000000000, -11.99999999999997335 ) ) ;
#889 = VERTEX_POINT ( 'NONE', #1009 ) ;
#890 = CARTESIAN_POINT ( 'NONE',  ( 37.14477007583612078, 6.000000000000000000, -58.33662900681221686 ) ) ;
#891 = AXIS2_PLACEMENT_3D ( 'NONE', #237, #596, #960 ) ;
#892 = AXIS2_PLACEMENT_3D ( 'NONE', #113, #452, #468 ) ;
#893 = CARTESIAN_POINT ( 'NONE',  ( 81.20154582739691307, 14.28474567361830161, 9.797174393178815797E-16 ) ) ;
#894 = AXIS2_PLACEMENT_3D ( 'NONE', #253, #594, #1032 ) ;
#895 = LINE ( 'NONE', #615, #208 ) ;
#896 = CARTESIAN_POINT ( 'NONE',  ( 0.000000000000000000, 12.00000000000000000, 0.000000000000000000 ) ) ;
#897 = EDGE_LOOP ( 'NONE', ( #842, #188, #206, #702 ) ) ;
#898 = CARTESIAN_POINT ( 'NONE',  ( 12.49999999999999645, 12.00000000000000000, -7.216878364870331630 ) ) ;
#899 = EDGE_CURVE ( 'NONE', #257, #367, #400, .T. ) ;
#900 = FACE_BOUND ( 'NONE', #43, .T. ) ;
#901 = DIRECTION ( 'NONE',  ( 0.000000000000000000, 1.000000000000000000, -0.000000000000000000 ) ) ;
#902 =( NAMED_UNIT ( * ) SI_UNIT ( $, .STERADIAN. ) SOLID_ANGLE_UNIT ( ) );
#903 = EDGE_LOOP ( 'NONE', ( #1049, #172, #471, #286 ) ) ;
#904 = FACE_BOUND ( 'NONE', #29, .T. ) ;
#905 = DIRECTION ( 'NONE',  ( 0.7071067811865461294, 0.7071067811865489050, 0.000000000000000000 ) ) ;
#906 = CARTESIAN_POINT ( 'NONE',  ( 10.32652509783582673, 3.000133640671369673, -18.28666721594658284 ) ) ;
#907 = ORIENTED_EDGE ( 'NONE', *, *, #835, .F. ) ;
#908 = CYLINDRICAL_SURFACE ( 'NONE', #511, 21.00000000000000000 ) ;
#909 = AXIS2_PLACEMENT_3D ( 'NONE', #263, #533, #689 ) ;
#910 = CIRCLE ( 'NONE', #1098, 12.00000000000000533 ) ;
#911 = DIRECTION ( 'NONE',  ( 0.7071067811865489050, -0.7071067811865462405, 0.000000000000000000 ) ) ;
#912 = AXIS2_PLACEMENT_3D ( 'NONE', #80, #441, #1129 ) ;
#913 = FACE_OUTER_BOUND ( 'NONE', #674, .T. ) ;
#914 = ADVANCED_FACE ( 'NONE', ( #670 ), #408, .F. ) ;
#915 = VECTOR ( 'NONE', #536, 1000.000000000000000 ) ;
#916 = EDGE_LOOP ( 'NONE', ( #394, #1127, #691, #36 ) ) ;
#917 = DIRECTION ( 'NONE',  ( 1.000000000000000000, -0.000000000000000000, 0.000000000000000000 ) ) ;
#918 = FACE_OUTER_BOUND ( 'NONE', #1138, .T. ) ;
#919 = CARTESIAN_POINT ( 'NONE',  ( 8.749999999999998224, 6.000000000000000000, -15.15544456622767377 ) ) ;
#920 = ORIENTED_EDGE ( 'NONE', *, *, #463, .T. ) ;
#921 = CARTESIAN_POINT ( 'NONE',  ( -6.250000000000003553, 12.00000000000000000, 10.82531754730548634 ) ) ;
#922 = CARTESIAN_POINT ( 'NONE',  ( -12.16955641012891220, 8.260779160415873790, 17.11494076825432487 ) ) ;
#923 = FACE_OUTER_BOUND ( 'NONE', #314, .T. ) ;
#924 = ORIENTED_EDGE ( 'NONE', *, *, #843, .F. ) ;
#925 = EDGE_CURVE ( 'NONE', #658, #730, #220, .T. ) ;
#926 = DIRECTION ( 'NONE',  ( -0.5000000000000000000, 0.000000000000000000, 0.8660254037844385966 ) ) ;
#927 = DIRECTION ( 'NONE',  ( 0.000000000000000000, 0.000000000000000000, 1.000000000000000000 ) ) ;
#928 = AXIS2_PLACEMENT_3D ( 'NONE', #389, #657, #841 ) ;
#929 = ORIENTED_EDGE ( 'NONE', *, *, #1116, .T. ) ;
#930 = AXIS2_PLACEMENT_3D ( 'NONE', #947, #497, #856 ) ;
#931 = ORIENTED_EDGE ( 'NONE', *, *, #303, .F. ) ;
#932 = CARTESIAN_POINT ( 'NONE',  ( 84.84314575050760254, 27.61370849898472457, 0.000000000000000000 ) ) ;
#933 = EDGE_CURVE ( 'NONE', #1120, #83, #1040, .T. ) ;
#934 = CARTESIAN_POINT ( 'NONE',  ( -8.481071293197665284, 4.018393440417184159, 19.21174612211841293 ) ) ;
#935 = VERTEX_POINT ( 'NONE', #44 ) ;
#936 = ORIENTED_EDGE ( 'NONE', *, *, #632, .F. ) ;
#937 = ADVANCED_FACE ( 'NONE', ( #238 ), #501, .T. ) ;
#938 = DIRECTION ( 'NONE',  ( 0.000000000000000000, 0.000000000000000000, -1.000000000000000000 ) ) ;
#939 = EDGE_CURVE ( 'NONE', #730, #149, #1022, .T. ) ;
#940 = CARTESIAN_POINT ( 'NONE',  ( -6.249999999999999112, 12.00000000000000000, -10.82531754730548634 ) ) ;
#941 = EDGE_LOOP ( 'NONE', ( #182, #126 ) ) ;
#942 = DIRECTION ( 'NONE',  ( 0.7071067811865460184, 0.7071067811865490160, 0.000000000000000000 ) ) ;
#943 = ORIENTED_EDGE ( 'NONE', *, *, #630, .T. ) ;
#944 = CARTESIAN_POINT ( 'NONE',  ( -10.83750846058660144, 8.980797191953881153, 17.98847616410494155 ) ) ;
#945 = CARTESIAN_POINT ( 'NONE',  ( -11.63079628138039645, 3.303648182625576801, 17.48591558842735694 ) ) ;
#946 = ORIENTED_EDGE ( 'NONE', *, *, #749, .F. ) ;
#947 = CARTESIAN_POINT ( 'NONE',  ( 0.000000000000000000, 0.000000000000000000, 0.000000000000000000 ) ) ;
#948 = VECTOR ( 'NONE', #494, 1000.000000000000000 ) ;
#949 = ADVANCED_FACE ( 'NONE', ( #472 ), #379, .F. ) ;
#950 = EDGE_LOOP ( 'NONE', ( #641, #878 ) ) ;
#951 = AXIS2_PLACEMENT_3D ( 'NONE', #508, #54, #1046 ) ;
#952 = PRODUCT_DEFINITION_FORMATION_WITH_SPECIFIED_SOURCE ( 'ANY', '', #275, .NOT_KNOWN. ) ;
#953 = PRESENTATION_STYLE_ASSIGNMENT (( #692 ) ) ;
#954 = CARTESIAN_POINT ( 'NONE',  ( 12.99038105676657118, 6.198490695575090470, -16.49999999999998934 ) ) ;
#955 = EDGE_LOOP ( 'NONE', ( #936, #156, #816, #302 ) ) ;
#956 = LINE ( 'NONE', #597, #629 ) ;
#957 = VERTEX_POINT ( 'NONE', #199 ) ;
#958 = DIRECTION ( 'NONE',  ( 0.4999999999999998890, -0.000000000000000000, 0.8660254037844387076 ) ) ;
#959 = CARTESIAN_POINT ( 'NONE',  ( 11.63079628138039467, 8.696351817374425863, -17.48591558842735338 ) ) ;
#960 = DIRECTION ( 'NONE',  ( -0.8660254037844385966, 0.000000000000000000, -0.5000000000000001110 ) ) ;
#961 = CARTESIAN_POINT ( 'NONE',  ( 12.49999999999999645, 12.00000000000000000, -7.216878364870331630 ) ) ;
#962 = ORIENTED_EDGE ( 'NONE', *, *, #132, .T. ) ;
#963 = ADVANCED_FACE ( 'NONE', ( #37, #1114 ), #1031, .F. ) ;
#964 = CARTESIAN_POINT ( 'NONE',  ( 90.50000000000000000, 16.29999999999997584, 0.000000000000000000 ) ) ;
#965 = CARTESIAN_POINT ( 'NONE',  ( 8.875884504199202496, 8.385499998921265075, -19.03274047070074459 ) ) ;
#966 = ORIENTED_EDGE ( 'NONE', *, *, #290, .F. ) ;
#967 = CARTESIAN_POINT ( 'NONE',  ( 74.20000000000007390, -2.081668171172168513E-14, -12.00000000000000000 ) ) ;
#968 = VERTEX_POINT ( 'NONE', #51 ) ;
#969 = CIRCLE ( 'NONE', #270, 1.699999999999999734 ) ;
#970 = LINE ( 'NONE', #260, #628 ) ;
#971 = AXIS2_PLACEMENT_3D ( 'NONE', #616, #786, #695 ) ;
#972 = CARTESIAN_POINT ( 'NONE',  ( 7.812668684790274654, 6.394954433002944860, -19.49265797790094368 ) ) ;
#973 = CARTESIAN_POINT ( 'NONE',  ( -8.750000000000007105, 6.000000000000000000, 15.15544456622768621 ) ) ;
#974 = ORIENTED_EDGE ( 'NONE', *, *, #652, .T. ) ;
#975 = FILL_AREA_STYLE_COLOUR ( '', #871 ) ;
#976 = CARTESIAN_POINT ( 'NONE',  ( 12.91417162681082509, 6.777410510518732778, -16.55976022380808388 ) ) ;
#977 = ORIENTED_EDGE ( 'NONE', *, *, #622, .T. ) ;
#978 = DIRECTION ( 'NONE',  ( 1.000000000000000000, 0.000000000000000000, -3.586834254839265914E-16 ) ) ;
#979 = ORIENTED_EDGE ( 'NONE', *, *, #899, .F. ) ;
#980 = DIRECTION ( 'NONE',  ( 0.7071067811865489050, -0.7071067811865461294, 0.000000000000000000 ) ) ;
#981 = LINE ( 'NONE', #89, #1139 ) ;
#982 = CARTESIAN_POINT ( 'NONE',  ( -6.151923788646691094, 6.000000000000000000, 16.65544456622768266 ) ) ;
#983 = CARTESIAN_POINT ( 'NONE',  ( -7.794228634059951588, 6.000000000000000000, 19.50000000000000000 ) ) ;
#984 = EDGE_CURVE ( 'NONE', #308, #244, #571, .T. ) ;
#985 = ORIENTED_EDGE ( 'NONE', *, *, #767, .T. ) ;
#986 = CARTESIAN_POINT ( 'NONE',  ( 37.10000000000020037, -37.10000000000005116, 0.000000000000000000 ) ) ;
#987 = AXIS2_PLACEMENT_3D ( 'NONE', #81, #154, #707 ) ;
#988 = CIRCLE ( 'NONE', #459, 4.000000000000007994 ) ;
#989 = FACE_OUTER_BOUND ( 'NONE', #1023, .T. ) ;
#990 = VECTOR ( 'NONE', #993, 1000.000000000000227 ) ;
#991 = CARTESIAN_POINT ( 'NONE',  ( 7.794228634059951588, 5.804124504401995566, -19.50000000000000355 ) ) ;
#992 = ORIENTED_EDGE ( 'NONE', *, *, #1126, .F. ) ;
#993 = DIRECTION ( 'NONE',  ( -0.5000000000000000000, -0.000000000000000000, 0.8660254037844385966 ) ) ;
#994 = DIRECTION ( 'NONE',  ( -0.5000000000000000000, -0.000000000000000000, 0.8660254037844385966 ) ) ;
#995 = CARTESIAN_POINT ( 'NONE',  ( 12.49553985762191566, 4.166057403631341138, -16.87820271350033252 ) ) ;
#996 = VERTEX_POINT ( 'NONE', #359 ) ;
#997 = CARTESIAN_POINT ( 'NONE',  ( 3.469446951953614189E-15, 12.00000000000000000, -14.43375672974064905 ) ) ;
#998 = CARTESIAN_POINT ( 'NONE',  ( 3.469446951953614189E-15, 0.000000000000000000, -14.43375672974064905 ) ) ;
#999 = CARTESIAN_POINT ( 'NONE',  ( 17.23368793961408940, 0.000000000000000000, 12.00000000000000000 ) ) ;
#1000 = ORIENTED_EDGE ( 'NONE', *, *, #835, .T. ) ;
#1001 = LINE ( 'NONE', #1067, #1101 ) ;
#1002 = AXIS2_PLACEMENT_3D ( 'NONE', #1012, #202, #365 ) ;
#1003 = LINE ( 'NONE', #639, #1068 ) ;
#1004 = VECTOR ( 'NONE', #393, 1000.000000000000114 ) ;
#1005 = CARTESIAN_POINT ( 'NONE',  ( 8.734559793884235646, 3.741736696006696228, -19.09782060830283612 ) ) ;
#1006 = MECHANICAL_DESIGN_GEOMETRIC_PRESENTATION_REPRESENTATION (  '', ( #1069 ), #211 ) ;
#1007 = ADVANCED_FACE ( 'NONE', ( #621, #432 ), #777, .T. ) ;
#1008 = EDGE_LOOP ( 'NONE', ( #226, #437, #586, #778 ) ) ;
#1009 = CARTESIAN_POINT ( 'NONE',  ( 6.151923788646691094, 6.000000000000000000, -16.65544456622768621 ) ) ;
#1010 = DIRECTION ( 'NONE',  ( -0.8660254037844385966, 0.000000000000000000, -0.5000000000000001110 ) ) ;
#1011 = DIRECTION ( 'NONE',  ( 0.8660254037844385966, 0.000000000000000000, 0.5000000000000001110 ) ) ;
#1012 = CARTESIAN_POINT ( 'NONE',  ( 0.000000000000000000, 0.000000000000000000, 0.000000000000000000 ) ) ;
#1013 = EDGE_CURVE ( 'NONE', #935, #407, #213, .T. ) ;
#1014 = ORIENTED_EDGE ( 'NONE', *, *, #576, .F. ) ;
#1015 = CARTESIAN_POINT ( 'NONE',  ( 93.32842712474617031, 36.09898987322331720, 0.000000000000000000 ) ) ;
#1016 = CARTESIAN_POINT ( 'NONE',  ( -10.67065888955573350, 3.000073018229258537, 18.08799147876533198 ) ) ;
#1017 = ORIENTED_EDGE ( 'NONE', *, *, #548, .F. ) ;
#1018 = EDGE_CURVE ( 'NONE', #489, #1061, #603, .T. ) ;
#1019 = DIRECTION ( 'NONE',  ( 0.7071067811865470176, 0.7071067811865479058, 0.000000000000000000 ) ) ;
#1020 = LINE ( 'NONE', #27, #830 ) ;
#1021 = ORIENTED_EDGE ( 'NONE', *, *, #789, .F. ) ;
#1022 = CIRCLE ( 'NONE', #162, 21.00000000000000000 ) ;
#1023 = EDGE_LOOP ( 'NONE', ( #696, #1073, #1135, #252 ) ) ;
#1024 = CARTESIAN_POINT ( 'NONE',  ( -8.164277817528283521, 7.503211341447427962, 19.34830001075902572 ) ) ;
#1025 = DIRECTION ( 'NONE',  ( 0.4999999999999997780, 0.000000000000000000, -0.8660254037844387076 ) ) ;
#1026 = ORIENTED_EDGE ( 'NONE', *, *, #303, .T. ) ;
#1027 = DIRECTION ( 'NONE',  ( 0.5000000000000001110, -0.000000000000000000, -0.8660254037844384856 ) ) ;
#1028 = CARTESIAN_POINT ( 'NONE',  ( -8.750000000000007105, 6.000000000000000000, 15.15544456622768621 ) ) ;
#1029 = LINE ( 'NONE', #1112, #948 ) ;
#1030 = EDGE_LOOP ( 'NONE', ( #884, #131, #720, #455 ) ) ;
#1031 = PLANE ( 'NONE',  #930 ) ;
#1032 = DIRECTION ( 'NONE',  ( 0.7071067811865460184, 0.7071067811865490160, 0.000000000000000000 ) ) ;
#1033 = CARTESIAN_POINT ( 'NONE',  ( 0.000000000000000000, 12.00000000000000000, 0.000000000000000000 ) ) ;
#1034 = ORIENTED_EDGE ( 'NONE', *, *, #1090, .T. ) ;
#1035 = ADVANCED_FACE ( 'NONE', ( #514, #708 ), #438, .F. ) ;
#1036 = PLANE ( 'NONE',  #424 ) ;
#1037 = CARTESIAN_POINT ( 'NONE',  ( 84.84314575050760254, 27.61370849898473523, -12.00000000000000000 ) ) ;
#1038 = CARTESIAN_POINT ( 'NONE',  ( -12.49999999999999822, 12.00000000000000000, 1.502314598737158637E-15 ) ) ;
#1039 = DIRECTION ( 'NONE',  ( 0.7071067811865457964, 0.7071067811865491270, -8.881784197001248379E-16 ) ) ;
#1040 = LINE ( 'NONE', #148, #738 ) ;
#1041 = ORIENTED_EDGE ( 'NONE', *, *, #167, .F. ) ;
#1042 = FACE_OUTER_BOUND ( 'NONE', #1030, .T. ) ;
#1043 = VERTEX_POINT ( 'NONE', #333 ) ;
#1044 = DIRECTION ( 'NONE',  ( -0.000000000000000000, -1.000000000000000000, -0.000000000000000000 ) ) ;
#1045 = ORIENTED_EDGE ( 'NONE', *, *, #317, .T. ) ;
#1046 = DIRECTION ( 'NONE',  ( 0.000000000000000000, 0.000000000000000000, 1.000000000000000000 ) ) ;
#1047 = EDGE_CURVE ( 'NONE', #796, #996, #76, .T. ) ;
#1048 = CARTESIAN_POINT ( 'NONE',  ( 7.884682884967622485, 6.779942380004575497, -19.46364001992501969 ) ) ;
#1049 = ORIENTED_EDGE ( 'NONE', *, *, #840, .F. ) ;
#1050 = VERTEX_POINT ( 'NONE', #961 ) ;
#1051 = VECTOR ( 'NONE', #283, 1000.000000000000114 ) ;
#1052 = CARTESIAN_POINT ( 'NONE',  ( 12.74766905364831082, 7.331304504105570885, -16.68840051946753178 ) ) ;
#1053 = CARTESIAN_POINT ( 'NONE',  ( -7.722243186433551010, 6.000000000000000000, 9.975317547305492027 ) ) ;
#1054 = CARTESIAN_POINT ( 'NONE',  ( -4.304201105807110222E-15, 12.00000000000000000, -11.99999999999997335 ) ) ;
#1055 = ORIENTED_EDGE ( 'NONE', *, *, #684, .T. ) ;
#1056 = DIRECTION ( 'NONE',  ( -0.7071067811865460184, -0.7071067811865490160, 0.000000000000000000 ) ) ;
#1057 = CARTESIAN_POINT ( 'NONE',  ( 12.39574537525193421, 7.983585477953357490, -16.95183764382513303 ) ) ;
#1058 = ADVANCED_FACE ( 'NONE', ( #155, #176 ), #795, .F. ) ;
#1059 = VERTEX_POINT ( 'NONE', #506 ) ;
#1060 = DIRECTION ( 'NONE',  ( -3.586834254839265914E-16, 0.000000000000000000, -1.000000000000000000 ) ) ;
#1061 = VERTEX_POINT ( 'NONE', #347 ) ;
#1062 = LINE ( 'NONE', #183, #680 ) ;
#1063 = CARTESIAN_POINT ( 'NONE',  ( 7.277756813566446326, 6.000000000000000000, -16.00544456622767697 ) ) ;
#1064 = CARTESIAN_POINT ( 'NONE',  ( 9.818370931625524989, 3.096375720028073708, -18.56438509930656267 ) ) ;
#1065 = LINE ( 'NONE', #3, #292 ) ;
#1066 = VERTEX_POINT ( 'NONE', #243 ) ;
#1067 = CARTESIAN_POINT ( 'NONE',  ( -12.50000000000000000, 12.00000000000000000, -7.216878364870326301 ) ) ;
#1068 = VECTOR ( 'NONE', #905, 1000.000000000000114 ) ;
#1069 = STYLED_ITEM ( 'NONE', ( #953 ), #721 ) ;
#1070 = DIRECTION ( 'NONE',  ( 0.7071067811865470176, 0.7071067811865479058, 0.000000000000000000 ) ) ;
#1071 = VECTOR ( 'NONE', #137, 1000.000000000000114 ) ;
#1072 = FACE_BOUND ( 'NONE', #950, .T. ) ;
#1073 = ORIENTED_EDGE ( 'NONE', *, *, #606, .T. ) ;
#1074 = CARTESIAN_POINT ( 'NONE',  ( -12.49999999999999822, 0.000000000000000000, 1.502314598737158637E-15 ) ) ;
#1075 = CARTESIAN_POINT ( 'NONE',  ( -4.777756813566459648, 6.000000000000000000, 11.67531754730549132 ) ) ;
#1076 = DIRECTION ( 'NONE',  ( 0.7071067811865489050, -0.7071067811865462405, 0.000000000000000000 ) ) ;
#1077 = ORIENTED_EDGE ( 'NONE', *, *, #414, .F. ) ;
#1078 = DIRECTION ( 'NONE',  ( -0.4999999999999998890, -0.000000000000000000, 0.8660254037844385966 ) ) ;
#1079 = CARTESIAN_POINT ( 'NONE',  ( -16.94134295108992916, 6.000000000000000000, 23.34326673973660604 ) ) ;
#1080 = CARTESIAN_POINT ( 'NONE',  ( 79.18629150101521930, 21.95685424949232711, 4.898587196589417759E-16 ) ) ;
#1081 = ORIENTED_EDGE ( 'NONE', *, *, #548, .T. ) ;
#1082 = CARTESIAN_POINT ( 'NONE',  ( 90.50000000000000000, 16.29999999999997584, 0.000000000000000000 ) ) ;
#1083 = CARTESIAN_POINT ( 'NONE',  ( -8.366900490381954825, 7.830682127411455085, 19.26154515536508782 ) ) ;
#1084 = CIRCLE ( 'NONE', #42, 21.00000000000000000 ) ;
#1085 = CARTESIAN_POINT ( 'NONE',  ( 8.164277817528279968, 4.496788658552572038, -19.34830001075902572 ) ) ;
#1086 = VECTOR ( 'NONE', #68, 1000.000000000000227 ) ;
#1087 = ORIENTED_EDGE ( 'NONE', *, *, #60, .T. ) ;
#1088 = CARTESIAN_POINT ( 'NONE',  ( -12.39493160365157109, 7.984716327816258286, 16.95243260599973567 ) ) ;
#1089 = CARTESIAN_POINT ( 'NONE',  ( -12.17036513313667534, 3.740078350206005986, 17.11436576203797344 ) ) ;
#1090 = EDGE_CURVE ( 'NONE', #489, #507, #91, .T. ) ;
#1091 = VERTEX_POINT ( 'NONE', #449 ) ;
#1092 = ADVANCED_FACE ( 'NONE', ( #703 ), #160, .T. ) ;
#1093 = CARTESIAN_POINT ( 'NONE',  ( 79.18629150101521930, 21.95685424949233067, 4.898587196589417759E-16 ) ) ;
#1094 = CARTESIAN_POINT ( 'NONE',  ( -11.77574782938461340, 3.396674796676368402, 17.38846786695940949 ) ) ;
#1095 = ORIENTED_EDGE ( 'NONE', *, *, #789, .T. ) ;
#1096 = ORIENTED_EDGE ( 'NONE', *, *, #883, .F. ) ;
#1097 = CARTESIAN_POINT ( 'NONE',  ( -10.32652509783582673, 8.999866359328631660, 18.28666721594658284 ) ) ;
#1098 = AXIS2_PLACEMENT_3D ( 'NONE', #169, #602, #1039 ) ;
#1099 = CARTESIAN_POINT ( 'NONE',  ( -7.794228634059953364, 5.804076746296358280, 19.50000000000000355 ) ) ;
#1100 = AXIS2_PLACEMENT_3D ( 'NONE', #457, #280, #733 ) ;
#1101 = VECTOR ( 'NONE', #705, 1000.000000000000000 ) ;
#1102 = ORIENTED_EDGE ( 'NONE', *, *, #858, .F. ) ;
#1103 = CARTESIAN_POINT ( 'NONE',  ( 0.000000000000000000, 12.00000000000000000, -21.00000000000000000 ) ) ;
#1104 = ORIENTED_EDGE ( 'NONE', *, *, #231, .T. ) ;
#1105 = CARTESIAN_POINT ( 'NONE',  ( -10.15588090298079393, 8.980210522633512937, 18.38191733608913836 ) ) ;
#1106 = B_SPLINE_CURVE_WITH_KNOTS ( 'NONE', 3,
 ( #403, #222, #485, #25, #305, #492, #1024, #1083, #478, #200, #739, #34, #747, #38, #216, #1105, #1097, #312, #944, #138, #853, #291, #649, #562, #922, #1088, #391, #117, #473, #828, #388, #296, #779, #498 ),
 .UNSPECIFIED., .F., .F.,
 ( 4, 2, 2, 2, 2, 2, 2, 2, 2, 2, 2, 2, 2, 2, 2, 2, 4 ),
 ( 0.009391372938336289139, 0.009978190669855042591, 0.01056500840137379604, 0.01115182613289254950, 0.01173864386441129948, 0.01232546159593005120, 0.01291227932744880291, 0.01349909705896755290, 0.01408591479048630461, 0.01467273252200505460, 0.01525955025352380458, 0.01584636798504255456, 0.01643318571656130628, 0.01702000344808005800, 0.01760682117959880277, 0.01819363891111755449, 0.01878045664263630274 ),
 .UNSPECIFIED. ) ;
#1107 = DIRECTION ( 'NONE',  ( 0.8660254037844383745, 0.000000000000000000, 0.5000000000000005551 ) ) ;
#1108 = VERTEX_POINT ( 'NONE', #258 ) ;
#1109 = DIRECTION ( 'NONE',  ( 0.7071067811865462405, 0.7071067811865489050, 0.000000000000000000 ) ) ;
#1110 = LINE ( 'NONE', #59, #125 ) ;
#1111 = ADVANCED_FACE ( 'NONE', ( #71 ), #1144, .T. ) ;
#1112 = CARTESIAN_POINT ( 'NONE',  ( 93.32842712474619873, 19.12842712474617457, -12.00000000000000711 ) ) ;
#1113 = VERTEX_POINT ( 'NONE', #1131 ) ;
#1114 = FACE_OUTER_BOUND ( 'NONE', #610, .T. ) ;
#1115 = DIRECTION ( 'NONE',  ( -0.5000000000000000000, -0.000000000000000000, 0.8660254037844385966 ) ) ;
#1116 = EDGE_CURVE ( 'NONE', #282, #598, #552, .T. ) ;
#1117 = CARTESIAN_POINT ( 'NONE',  ( 10.33127185582502605, 9.000072604019027978, -18.28396069548880476 ) ) ;
#1118 = DIRECTION ( 'NONE',  ( 0.7071067811865460184, 0.7071067811865490160, 0.000000000000000000 ) ) ;
#1119 = LINE ( 'NONE', #850, #1071 ) ;
#1120 = VERTEX_POINT ( 'NONE', #983 ) ;
#1121 = AXIS2_PLACEMENT_3D ( 'NONE', #986, #980, #797 ) ;
#1122 = CYLINDRICAL_SURFACE ( 'NONE', #12, 2.999999999999999556 ) ;
#1123 = CARTESIAN_POINT ( 'NONE',  ( 11.77574782938461340, 8.603325203323631598, -17.38846786695940949 ) ) ;
#1124 = ORIENTED_EDGE ( 'NONE', *, *, #557, .T. ) ;
#1125 = CARTESIAN_POINT ( 'NONE',  ( -8.750000000000007105, 6.000000000000000000, 15.15544456622768621 ) ) ;
#1126 = EDGE_CURVE ( 'NONE', #367, #781, #1065, .T. ) ;
#1127 = ORIENTED_EDGE ( 'NONE', *, *, #652, .F. ) ;
#1128 = DIRECTION ( 'NONE',  ( 0.7071067811865489050, -0.7071067811865462405, 0.000000000000000000 ) ) ;
#1129 = DIRECTION ( 'NONE',  ( 0.000000000000000000, 0.000000000000000000, 1.000000000000000000 ) ) ;
#1130 = CARTESIAN_POINT ( 'NONE',  ( 86.85840007688926789, 19.94159992311068663, 0.000000000000000000 ) ) ;
#1131 = CARTESIAN_POINT ( 'NONE',  ( -11.34807621135332667, 6.000000000000000000, 13.65544456622768443 ) ) ;
#1132 = ORIENTED_EDGE ( 'NONE', *, *, #395, .T. ) ;
#1133 =( LENGTH_UNIT ( ) NAMED_UNIT ( * ) SI_UNIT ( .MILLI., .METRE. ) );
#1134 = LINE ( 'NONE', #337, #717 ) ;
#1135 = ORIENTED_EDGE ( 'NONE', *, *, #984, .T. ) ;
#1136 = DIRECTION ( 'NONE',  ( 0.7071067811865470176, 0.7071067811865479058, 0.000000000000000000 ) ) ;
#1137 = CLOSED_SHELL ( 'NONE', ( #95, #103, #722, #559, #87, #543, #1111, #814, #1007, #949, #512, #1092, #319, #665, #152, #677, #334, #849, #311, #963, #392, #807, #860, #185, #937, #804, #827, #217, #1058, #914, #47, #1035 ) ) ;
#1138 = EDGE_LOOP ( 'NONE', ( #322, #320, #726, #1026, #177, #704 ) ) ;
#1139 = VECTOR ( 'NONE', #447, 1000.000000000000000 ) ;
#1140 = VECTOR ( 'NONE', #633, 1000.000000000000000 ) ;
#1141 = LINE ( 'NONE', #727, #251 ) ;
#1142 = DIRECTION ( 'NONE',  ( -0.8660254037844387076, 0.000000000000000000, 0.4999999999999998890 ) ) ;
#1143 = CARTESIAN_POINT ( 'NONE',  ( 86.85840007688926789, 19.94159992311068663, 0.000000000000000000 ) ) ;
#1144 = CYLINDRICAL_SURFACE ( 'NONE', #461, 21.00000000000000000 ) ;
#1145 = ORIENTED_EDGE ( 'NONE', *, *, #843, .T. ) ;
#1146 = DIRECTION ( 'NONE',  ( 0.8660254037844380415, 0.000000000000000000, 0.5000000000000012212 ) ) ;
ENDSEC;
END-ISO-10303-21;
