ISO-10303-21;
HEADER;
FILE_DESCRIPTION (( 'STEP AP214' ),
    '1' );
FILE_NAME ('B52mm.STEP',
    '2026-01-29T14:42:59',
    ( '' ),
    ( '' ),
    'SwSTEP 2.0',
    'SolidWorks 2025',
    '' );
FILE_SCHEMA (( 'AUTOMOTIVE_DESIGN' ));
ENDSEC;

DATA;
#1 = CARTESIAN_POINT ( 'NONE',  ( 0.000000000000000000, 0.000000000000000000, 0.000000000000000000 ) ) ;
#2 = UNCERTAINTY_MEASURE_WITH_UNIT (LENGTH_MEASURE( 1.000000000000000082E-05 ), #84, 'distance_accuracy_value', 'NONE');
#3 = EDGE_CURVE ( 'NONE', #59, #25, #9, .T. ) ;
#4 = PRODUCT_RELATED_PRODUCT_CATEGORY ( 'part', '', ( #124 ) ) ;
#5 = DIRECTION ( 'NONE',  ( 0.000000000000000000, 0.000000000000000000, 1.000000000000000000 ) ) ;
#6 = LINE ( 'NONE', #120, #34 ) ;
#7 = DIRECTION ( 'NONE',  ( 0.000000000000000000, 0.000000000000000000, -1.000000000000000000 ) ) ;
#8 =( NAMED_UNIT ( * ) SI_UNIT ( $, .STERADIAN. ) SOLID_ANGLE_UNIT ( ) );
#9 = LINE ( 'NONE', #91, #113 ) ;
#10 = EDGE_LOOP ( 'NONE', ( #163, #37 ) ) ;
#11 = EDGE_LOOP ( 'NONE', ( #57, #27 ) ) ;
#12 = CARTESIAN_POINT ( 'NONE',  ( 7.000000000000000000, 0.000000000000000000, 0.000000000000000000 ) ) ;
#13 = FILL_AREA_STYLE_COLOUR ( '', #148 ) ;
#14 = FACE_OUTER_BOUND ( 'NONE', #92, .T. ) ;
#15 = AXIS2_PLACEMENT_3D ( 'NONE', #41, #54, #153 ) ;
#16 = CARTESIAN_POINT ( 'NONE',  ( 7.000000000000000000, 0.000000000000000000, 0.000000000000000000 ) ) ;
#17 = DIRECTION ( 'NONE',  ( 1.000000000000000000, 0.000000000000000000, 0.000000000000000000 ) ) ;
#18 = EDGE_CURVE ( 'NONE', #76, #21, #6, .T. ) ;
#19 = UNCERTAINTY_MEASURE_WITH_UNIT (LENGTH_MEASURE( 1.000000000000000082E-05 ), #55, 'distance_accuracy_value', 'NONE');
#20 = CIRCLE ( 'NONE', #161, 26.00000000000000355 ) ;
#21 = VERTEX_POINT ( 'NONE', #138 ) ;
#22 = FACE_OUTER_BOUND ( 'NONE', #89, .T. ) ;
#23 = AXIS2_PLACEMENT_3D ( 'NONE', #80, #172, #173 ) ;
#24 = ORIENTED_EDGE ( 'NONE', *, *, #174, .F. ) ;
#25 = VERTEX_POINT ( 'NONE', #93 ) ;
#26 = EDGE_CURVE ( 'NONE', #25, #21, #87, .T. ) ;
#27 = ORIENTED_EDGE ( 'NONE', *, *, #167, .F. ) ;
#28 = CARTESIAN_POINT ( 'NONE',  ( 7.000000000000000000, 0.000000000000000000, 20.10000000000000142 ) ) ;
#29 = LINE ( 'NONE', #28, #102 ) ;
#30 = ADVANCED_FACE ( 'NONE', ( #199 ), #75, .T. ) ;
#31 = DIRECTION ( 'NONE',  ( -1.000000000000000000, -0.000000000000000000, -0.000000000000000000 ) ) ;
#32 = DIRECTION ( 'NONE',  ( 1.000000000000000000, 0.000000000000000000, 0.000000000000000000 ) ) ;
#33 =( GEOMETRIC_REPRESENTATION_CONTEXT ( 3 ) GLOBAL_UNCERTAINTY_ASSIGNED_CONTEXT ( ( #2 ) ) GLOBAL_UNIT_ASSIGNED_CONTEXT ( ( #84, #154, #126 ) ) REPRESENTATION_CONTEXT ( 'NONE', 'WORKASPACE' ) );
#34 = VECTOR ( 'NONE', #183, 1000.000000000000000 ) ;
#35 = ADVANCED_FACE ( 'NONE', ( #22, #179 ), #90, .F. ) ;
#36 = CIRCLE ( 'NONE', #109, 20.10000000000000142 ) ;
#37 = ORIENTED_EDGE ( 'NONE', *, *, #178, .T. ) ;
#38 = ORIENTED_EDGE ( 'NONE', *, *, #67, .T. ) ;
#39 = VERTEX_POINT ( 'NONE', #73 ) ;
#40 = EDGE_CURVE ( 'NONE', #159, #39, #114, .T. ) ;
#41 = CARTESIAN_POINT ( 'NONE',  ( 0.000000000000000000, 0.000000000000000000, 0.000000000000000000 ) ) ;
#42 = DIRECTION ( 'NONE',  ( 1.000000000000000000, 0.000000000000000000, 0.000000000000000000 ) ) ;
#43 = CIRCLE ( 'NONE', #63, 20.10000000000000142 ) ;
#44 = CARTESIAN_POINT ( 'NONE',  ( 7.000000000000000000, 0.000000000000000000, 0.000000000000000000 ) ) ;
#45 = AXIS2_PLACEMENT_3D ( 'NONE', #194, #5, #52 ) ;
#46 = CARTESIAN_POINT ( 'NONE',  ( 7.000000000000000000, 0.000000000000000000, 0.000000000000000000 ) ) ;
#47 = SURFACE_STYLE_USAGE ( .BOTH. , #143 ) ;
#48 = DIRECTION ( 'NONE',  ( 0.000000000000000000, 0.000000000000000000, 1.000000000000000000 ) ) ;
#49 = AXIS2_PLACEMENT_3D ( 'NONE', #189, #31, #48 ) ;
#50 = EDGE_CURVE ( 'NONE', #76, #59, #69, .T. ) ;
#51 = ADVANCED_BREP_SHAPE_REPRESENTATION ( 'B52mm', ( #157, #45 ), #137 ) ;
#52 = DIRECTION ( 'NONE',  ( 1.000000000000000000, 0.000000000000000000, 0.000000000000000000 ) ) ;
#53 = SHAPE_DEFINITION_REPRESENTATION ( #116, #51 ) ;
#54 = DIRECTION ( 'NONE',  ( 1.000000000000000000, 0.000000000000000000, 0.000000000000000000 ) ) ;
#55 =( LENGTH_UNIT ( ) NAMED_UNIT ( * ) SI_UNIT ( .MILLI., .METRE. ) );
#56 = CARTESIAN_POINT ( 'NONE',  ( 7.000000000000000000, 0.000000000000000000, 0.000000000000000000 ) ) ;
#57 = ORIENTED_EDGE ( 'NONE', *, *, #67, .F. ) ;
#58 = VECTOR ( 'NONE', #68, 1000.000000000000000 ) ;
#59 = VERTEX_POINT ( 'NONE', #66 ) ;
#60 = EDGE_LOOP ( 'NONE', ( #169, #103, #152, #104 ) ) ;
#61 = FACE_OUTER_BOUND ( 'NONE', #60, .T. ) ;
#62 = APPLICATION_CONTEXT ( 'automotive_design' ) ;
#63 = AXIS2_PLACEMENT_3D ( 'NONE', #16, #17, #85 ) ;
#64 = PLANE ( 'NONE',  #72 ) ;
#65 = DIRECTION ( 'NONE',  ( 1.000000000000000000, 0.000000000000000000, 0.000000000000000000 ) ) ;
#66 = CARTESIAN_POINT ( 'NONE',  ( 7.000000000000000000, 3.184081677783118585E-15, -26.00000000000000355 ) ) ;
#67 = EDGE_CURVE ( 'NONE', #180, #198, #127, .T. ) ;
#68 = DIRECTION ( 'NONE',  ( -1.000000000000000000, -0.000000000000000000, -0.000000000000000000 ) ) ;
#69 = CIRCLE ( 'NONE', #181, 26.00000000000000355 ) ;
#70 = DIRECTION ( 'NONE',  ( 0.000000000000000000, 0.000000000000000000, 1.000000000000000000 ) ) ;
#71 = DIRECTION ( 'NONE',  ( -1.000000000000000000, -0.000000000000000000, -0.000000000000000000 ) ) ;
#72 = AXIS2_PLACEMENT_3D ( 'NONE', #96, #65, #82 ) ;
#73 = CARTESIAN_POINT ( 'NONE',  ( 0.000000000000000000, 2.461540066286179870E-15, -20.10000000000000142 ) ) ;
#74 = APPLICATION_PROTOCOL_DEFINITION ( 'draft international standard', 'automotive_design', 1998, #62 ) ;
#75 = CYLINDRICAL_SURFACE ( 'NONE', #165, 26.00000000000000355 ) ;
#76 = VERTEX_POINT ( 'NONE', #108 ) ;
#77 = MECHANICAL_DESIGN_GEOMETRIC_PRESENTATION_REPRESENTATION (  '', ( #193 ), #33 ) ;
#78 = ORIENTED_EDGE ( 'NONE', *, *, #167, .T. ) ;
#79 = LINE ( 'NONE', #144, #58 ) ;
#80 = CARTESIAN_POINT ( 'NONE',  ( 0.000000000000000000, 0.000000000000000000, 0.000000000000000000 ) ) ;
#81 = AXIS2_PLACEMENT_3D ( 'NONE', #12, #185, #171 ) ;
#82 = DIRECTION ( 'NONE',  ( 0.000000000000000000, 0.000000000000000000, -1.000000000000000000 ) ) ;
#83 = EDGE_CURVE ( 'NONE', #180, #159, #29, .T. ) ;
#84 =( LENGTH_UNIT ( ) NAMED_UNIT ( * ) SI_UNIT ( .MILLI., .METRE. ) );
#85 = DIRECTION ( 'NONE',  ( 0.000000000000000000, 0.000000000000000000, -1.000000000000000000 ) ) ;
#86 =( NAMED_UNIT ( * ) PLANE_ANGLE_UNIT ( ) SI_UNIT ( $, .RADIAN. ) );
#87 = CIRCLE ( 'NONE', #15, 26.00000000000000355 ) ;
#88 = ADVANCED_FACE ( 'NONE', ( #14, #187 ), #64, .T. ) ;
#89 = EDGE_LOOP ( 'NONE', ( #164, #133 ) ) ;
#90 = PLANE ( 'NONE',  #119 ) ;
#91 = CARTESIAN_POINT ( 'NONE',  ( 7.000000000000000000, 3.184081677783118585E-15, -26.00000000000000355 ) ) ;
#92 = EDGE_LOOP ( 'NONE', ( #197, #118 ) ) ;
#93 = CARTESIAN_POINT ( 'NONE',  ( 0.000000000000000000, 3.184081677783118585E-15, -26.00000000000000355 ) ) ;
#94 = DIRECTION ( 'NONE',  ( 0.000000000000000000, 0.000000000000000000, -1.000000000000000000 ) ) ;
#95 = DIRECTION ( 'NONE',  ( -1.000000000000000000, -0.000000000000000000, -0.000000000000000000 ) ) ;
#96 = CARTESIAN_POINT ( 'NONE',  ( 7.000000000000000000, 0.000000000000000000, 0.000000000000000000 ) ) ;
#97 = EDGE_CURVE ( 'NONE', #59, #76, #131, .T. ) ;
#98 = PRESENTATION_LAYER_ASSIGNMENT (  '', '', ( #193 ) ) ;
#99 = DIRECTION ( 'NONE',  ( 0.000000000000000000, 0.000000000000000000, -1.000000000000000000 ) ) ;
#100 = CARTESIAN_POINT ( 'NONE',  ( 0.000000000000000000, 0.000000000000000000, 20.10000000000000142 ) ) ;
#101 = FACE_OUTER_BOUND ( 'NONE', #106, .T. ) ;
#102 = VECTOR ( 'NONE', #158, 1000.000000000000000 ) ;
#103 = ORIENTED_EDGE ( 'NONE', *, *, #50, .F. ) ;
#104 = ORIENTED_EDGE ( 'NONE', *, *, #115, .T. ) ;
#105 = ADVANCED_FACE ( 'NONE', ( #156 ), #111, .F. ) ;
#106 = EDGE_LOOP ( 'NONE', ( #38, #195, #184, #196 ) ) ;
#107 = ORIENTED_EDGE ( 'NONE', *, *, #97, .F. ) ;
#108 = CARTESIAN_POINT ( 'NONE',  ( 7.000000000000000000, 0.000000000000000000, 26.00000000000000355 ) ) ;
#109 = AXIS2_PLACEMENT_3D ( 'NONE', #128, #42, #139 ) ;
#110 = CARTESIAN_POINT ( 'NONE',  ( 7.000000000000000000, 0.000000000000000000, 20.10000000000000142 ) ) ;
#111 = CYLINDRICAL_SURFACE ( 'NONE', #49, 20.10000000000000142 ) ;
#112 = PRODUCT_DEFINITION ( 'UNKNOWN', '', #142, #145 ) ;
#113 = VECTOR ( 'NONE', #146, 1000.000000000000000 ) ;
#114 = CIRCLE ( 'NONE', #23, 20.10000000000000142 ) ;
#115 = EDGE_CURVE ( 'NONE', #21, #25, #20, .T. ) ;
#116 = PRODUCT_DEFINITION_SHAPE ( 'NONE', 'NONE',  #112 ) ;
#117 = CARTESIAN_POINT ( 'NONE',  ( 0.000000000000000000, 0.000000000000000000, 0.000000000000000000 ) ) ;
#118 = ORIENTED_EDGE ( 'NONE', *, *, #97, .T. ) ;
#119 = AXIS2_PLACEMENT_3D ( 'NONE', #117, #149, #7 ) ;
#120 = CARTESIAN_POINT ( 'NONE',  ( 7.000000000000000000, 0.000000000000000000, 26.00000000000000355 ) ) ;
#121 = DIRECTION ( 'NONE',  ( 0.000000000000000000, 0.000000000000000000, 1.000000000000000000 ) ) ;
#122 = CYLINDRICAL_SURFACE ( 'NONE', #186, 26.00000000000000355 ) ;
#123 = CARTESIAN_POINT ( 'NONE',  ( 7.000000000000000000, 0.000000000000000000, 0.000000000000000000 ) ) ;
#124 = PRODUCT ( 'B52mm', 'B52mm', '', ( #160 ) ) ;
#125 = SURFACE_STYLE_FILL_AREA ( #141 ) ;
#126 =( NAMED_UNIT ( * ) SI_UNIT ( $, .STERADIAN. ) SOLID_ANGLE_UNIT ( ) );
#127 = CIRCLE ( 'NONE', #81, 20.10000000000000142 ) ;
#128 = CARTESIAN_POINT ( 'NONE',  ( 0.000000000000000000, 0.000000000000000000, 0.000000000000000000 ) ) ;
#129 = DIRECTION ( 'NONE',  ( 0.000000000000000000, 0.000000000000000000, 1.000000000000000000 ) ) ;
#130 = CARTESIAN_POINT ( 'NONE',  ( 7.000000000000000000, 2.461540066286179870E-15, -20.10000000000000142 ) ) ;
#131 = CIRCLE ( 'NONE', #136, 26.00000000000000355 ) ;
#132 = EDGE_LOOP ( 'NONE', ( #107, #134, #168, #166 ) ) ;
#133 = ORIENTED_EDGE ( 'NONE', *, *, #26, .F. ) ;
#134 = ORIENTED_EDGE ( 'NONE', *, *, #3, .T. ) ;
#135 = EDGE_LOOP ( 'NONE', ( #24, #78, #151, #182 ) ) ;
#136 = AXIS2_PLACEMENT_3D ( 'NONE', #46, #32, #94 ) ;
#137 =( GEOMETRIC_REPRESENTATION_CONTEXT ( 3 ) GLOBAL_UNCERTAINTY_ASSIGNED_CONTEXT ( ( #19 ) ) GLOBAL_UNIT_ASSIGNED_CONTEXT ( ( #55, #86, #8 ) ) REPRESENTATION_CONTEXT ( 'NONE', 'WORKASPACE' ) );
#138 = CARTESIAN_POINT ( 'NONE',  ( 0.000000000000000000, 0.000000000000000000, 26.00000000000000355 ) ) ;
#139 = DIRECTION ( 'NONE',  ( 0.000000000000000000, 0.000000000000000000, -1.000000000000000000 ) ) ;
#140 = DIRECTION ( 'NONE',  ( 1.000000000000000000, 0.000000000000000000, 0.000000000000000000 ) ) ;
#141 = FILL_AREA_STYLE ('',( #13 ) ) ;
#142 = PRODUCT_DEFINITION_FORMATION_WITH_SPECIFIED_SOURCE ( 'ANY', '', #124, .NOT_KNOWN. ) ;
#143 = SURFACE_SIDE_STYLE ('',( #125 ) ) ;
#144 = CARTESIAN_POINT ( 'NONE',  ( 7.000000000000000000, 2.461540066286179870E-15, -20.10000000000000142 ) ) ;
#145 = PRODUCT_DEFINITION_CONTEXT ( 'detailed design', #62, 'design' ) ;
#146 = DIRECTION ( 'NONE',  ( -1.000000000000000000, -0.000000000000000000, -0.000000000000000000 ) ) ;
#147 = DIRECTION ( 'NONE',  ( -1.000000000000000000, -0.000000000000000000, -0.000000000000000000 ) ) ;
#148 = COLOUR_RGB ( '',0.7921568627450980005, 0.8196078431372548767, 0.9333333333333333481 ) ;
#149 = DIRECTION ( 'NONE',  ( 1.000000000000000000, 0.000000000000000000, 0.000000000000000000 ) ) ;
#150 = APPLICATION_PROTOCOL_DEFINITION ( 'draft international standard', 'automotive_design', 1998, #188 ) ;
#151 = ORIENTED_EDGE ( 'NONE', *, *, #83, .T. ) ;
#152 = ORIENTED_EDGE ( 'NONE', *, *, #18, .T. ) ;
#153 = DIRECTION ( 'NONE',  ( 0.000000000000000000, 0.000000000000000000, -1.000000000000000000 ) ) ;
#154 =( NAMED_UNIT ( * ) PLANE_ANGLE_UNIT ( ) SI_UNIT ( $, .RADIAN. ) );
#155 = DIRECTION ( 'NONE',  ( 0.000000000000000000, 0.000000000000000000, -1.000000000000000000 ) ) ;
#156 = FACE_OUTER_BOUND ( 'NONE', #135, .T. ) ;
#157 = MANIFOLD_SOLID_BREP ( 'Boss-Extrude1', #192 ) ;
#158 = DIRECTION ( 'NONE',  ( -1.000000000000000000, -0.000000000000000000, -0.000000000000000000 ) ) ;
#159 = VERTEX_POINT ( 'NONE', #100 ) ;
#160 = PRODUCT_CONTEXT ( 'NONE', #188, 'mechanical' ) ;
#161 = AXIS2_PLACEMENT_3D ( 'NONE', #1, #175, #99 ) ;
#162 = CARTESIAN_POINT ( 'NONE',  ( 7.000000000000000000, 0.000000000000000000, 0.000000000000000000 ) ) ;
#163 = ORIENTED_EDGE ( 'NONE', *, *, #40, .T. ) ;
#164 = ORIENTED_EDGE ( 'NONE', *, *, #115, .F. ) ;
#165 = AXIS2_PLACEMENT_3D ( 'NONE', #56, #71, #121 ) ;
#166 = ORIENTED_EDGE ( 'NONE', *, *, #18, .F. ) ;
#167 = EDGE_CURVE ( 'NONE', #198, #180, #43, .T. ) ;
#168 = ORIENTED_EDGE ( 'NONE', *, *, #26, .T. ) ;
#169 = ORIENTED_EDGE ( 'NONE', *, *, #3, .F. ) ;
#170 = PRESENTATION_STYLE_ASSIGNMENT (( #47 ) ) ;
#171 = DIRECTION ( 'NONE',  ( 0.000000000000000000, 0.000000000000000000, -1.000000000000000000 ) ) ;
#172 = DIRECTION ( 'NONE',  ( 1.000000000000000000, 0.000000000000000000, 0.000000000000000000 ) ) ;
#173 = DIRECTION ( 'NONE',  ( 0.000000000000000000, 0.000000000000000000, -1.000000000000000000 ) ) ;
#174 = EDGE_CURVE ( 'NONE', #198, #39, #79, .T. ) ;
#175 = DIRECTION ( 'NONE',  ( 1.000000000000000000, 0.000000000000000000, 0.000000000000000000 ) ) ;
#176 = AXIS2_PLACEMENT_3D ( 'NONE', #162, #147, #129 ) ;
#177 = CYLINDRICAL_SURFACE ( 'NONE', #176, 20.10000000000000142 ) ;
#178 = EDGE_CURVE ( 'NONE', #39, #159, #36, .T. ) ;
#179 = FACE_BOUND ( 'NONE', #10, .T. ) ;
#180 = VERTEX_POINT ( 'NONE', #110 ) ;
#181 = AXIS2_PLACEMENT_3D ( 'NONE', #123, #140, #155 ) ;
#182 = ORIENTED_EDGE ( 'NONE', *, *, #178, .F. ) ;
#183 = DIRECTION ( 'NONE',  ( -1.000000000000000000, -0.000000000000000000, -0.000000000000000000 ) ) ;
#184 = ORIENTED_EDGE ( 'NONE', *, *, #40, .F. ) ;
#185 = DIRECTION ( 'NONE',  ( 1.000000000000000000, 0.000000000000000000, 0.000000000000000000 ) ) ;
#186 = AXIS2_PLACEMENT_3D ( 'NONE', #44, #95, #70 ) ;
#187 = FACE_BOUND ( 'NONE', #11, .T. ) ;
#188 = APPLICATION_CONTEXT ( 'automotive_design' ) ;
#189 = CARTESIAN_POINT ( 'NONE',  ( 7.000000000000000000, 0.000000000000000000, 0.000000000000000000 ) ) ;
#190 = ADVANCED_FACE ( 'NONE', ( #61 ), #122, .T. ) ;
#191 = ADVANCED_FACE ( 'NONE', ( #101 ), #177, .F. ) ;
#192 = CLOSED_SHELL ( 'NONE', ( #191, #30, #88, #35, #190, #105 ) ) ;
#193 = STYLED_ITEM ( 'NONE', ( #170 ), #157 ) ;
#194 = CARTESIAN_POINT ( 'NONE',  ( 0.000000000000000000, 0.000000000000000000, 0.000000000000000000 ) ) ;
#195 = ORIENTED_EDGE ( 'NONE', *, *, #174, .T. ) ;
#196 = ORIENTED_EDGE ( 'NONE', *, *, #83, .F. ) ;
#197 = ORIENTED_EDGE ( 'NONE', *, *, #50, .T. ) ;
#198 = VERTEX_POINT ( 'NONE', #130 ) ;
#199 = FACE_OUTER_BOUND ( 'NONE', #132, .T. ) ;
ENDSEC;
END-ISO-10303-21;
