ISO-10303-21;
HEADER;
FILE_DESCRIPTION (( 'STEP AP214' ),
    '1' );
FILE_NAME ('Link_90degV2.STEP',
    '2025-12-07T20:48:33',
    ( '' ),
    ( '' ),
    'SwSTEP 2.0',
    'SolidWorks 2025',
    '' );
FILE_SCHEMA (( 'AUTOMOTIVE_DESIGN' ));
ENDSEC;

DATA;
#1 = SURFACE_STYLE_FILL_AREA ( #647 ) ;
#2 = EDGE_CURVE ( 'NONE', #789, #262, #43, .T. ) ;
#3 = CARTESIAN_POINT ( 'NONE',  ( -86.20000000000001705, 128.0000000000000000, 0.000000000000000000 ) ) ;
#4 = CIRCLE ( 'NONE', #524, 10.00000000000000888 ) ;
#5 = AXIS2_PLACEMENT_3D ( 'NONE', #887, #178, #469 ) ;
#6 = CIRCLE ( 'NONE', #19, 4.000000000000000000 ) ;
#7 = ADVANCED_FACE ( 'NONE', ( #901 ), #142, .T. ) ;
#8 = PLANE ( 'NONE',  #126 ) ;
#9 = ORIENTED_EDGE ( 'NONE', *, *, #358, .F. ) ;
#10 = LINE ( 'NONE', #790, #237 ) ;
#11 = LINE ( 'NONE', #217, #486 ) ;
#12 = FACE_OUTER_BOUND ( 'NONE', #165, .T. ) ;
#13 = LINE ( 'NONE', #296, #567 ) ;
#14 = VECTOR ( 'NONE', #716, 1000.000000000000000 ) ;
#15 = ORIENTED_EDGE ( 'NONE', *, *, #601, .F. ) ;
#16 = AXIS2_PLACEMENT_3D ( 'NONE', #612, #195, #607 ) ;
#17 = EDGE_CURVE ( 'NONE', #455, #703, #619, .T. ) ;
#18 = ORIENTED_EDGE ( 'NONE', *, *, #143, .F. ) ;
#19 = AXIS2_PLACEMENT_3D ( 'NONE', #96, #592, #38 ) ;
#20 =( NAMED_UNIT ( * ) SI_UNIT ( $, .STERADIAN. ) SOLID_ANGLE_UNIT ( ) );
#21 = DIRECTION ( 'NONE',  ( -0.000000000000000000, 1.000000000000000000, -0.000000000000000000 ) ) ;
#22 = VERTEX_POINT ( 'NONE', #215 ) ;
#23 = ORIENTED_EDGE ( 'NONE', *, *, #349, .F. ) ;
#24 = CARTESIAN_POINT ( 'NONE',  ( -66.20000000000000284, 128.0000000000000000, 3.980000000000001759 ) ) ;
#25 = DIRECTION ( 'NONE',  ( -1.196361017915040472E-16, 1.000000000000000000, 0.000000000000000000 ) ) ;
#26 = LINE ( 'NONE', #261, #579 ) ;
#27 = EDGE_LOOP ( 'NONE', ( #706, #589 ) ) ;
#28 = ORIENTED_EDGE ( 'NONE', *, *, #406, .F. ) ;
#29 = DIRECTION ( 'NONE',  ( 0.000000000000000000, 0.000000000000000000, 1.000000000000000000 ) ) ;
#30 = DIRECTION ( 'NONE',  ( 1.196361017915040472E-16, -1.000000000000000000, 0.000000000000000000 ) ) ;
#31 = EDGE_CURVE ( 'NONE', #315, #636, #235, .T. ) ;
#32 = DIRECTION ( 'NONE',  ( 0.000000000000000000, 0.000000000000000000, 1.000000000000000000 ) ) ;
#33 = ORIENTED_EDGE ( 'NONE', *, *, #805, .T. ) ;
#34 = ORIENTED_EDGE ( 'NONE', *, *, #601, .T. ) ;
#35 = AXIS2_PLACEMENT_3D ( 'NONE', #540, #483, #405 ) ;
#36 = AXIS2_PLACEMENT_3D ( 'NONE', #499, #635, #628 ) ;
#37 = LINE ( 'NONE', #536, #453 ) ;
#38 = DIRECTION ( 'NONE',  ( 0.000000000000000000, 0.000000000000000000, -1.000000000000000000 ) ) ;
#39 = AXIS2_PLACEMENT_3D ( 'NONE', #365, #653, #869 ) ;
#40 = FACE_OUTER_BOUND ( 'NONE', #632, .T. ) ;
#41 = EDGE_CURVE ( 'NONE', #703, #455, #645, .T. ) ;
#42 = ORIENTED_EDGE ( 'NONE', *, *, #2, .F. ) ;
#43 = LINE ( 'NONE', #385, #734 ) ;
#44 = DIRECTION ( 'NONE',  ( 0.7071067811865465735, -0.7071067811865483499, 0.000000000000000000 ) ) ;
#45 = DIRECTION ( 'NONE',  ( -1.000000000000000000, 0.000000000000000000, 0.000000000000000000 ) ) ;
#46 = DIRECTION ( 'NONE',  ( -0.000000000000000000, -1.000000000000000000, -0.000000000000000000 ) ) ;
#47 = ORIENTED_EDGE ( 'NONE', *, *, #670, .T. ) ;
#48 = CARTESIAN_POINT ( 'NONE',  ( -66.20000000000000284, 128.0000000000000000, 0.000000000000000000 ) ) ;
#49 = CARTESIAN_POINT ( 'NONE',  ( -83.20000000000000284, 128.0000000000000000, 2.000000000000002220 ) ) ;
#50 = DIRECTION ( 'NONE',  ( 1.000000000000000000, -0.000000000000000000, 0.000000000000000000 ) ) ;
#51 = ORIENTED_EDGE ( 'NONE', *, *, #140, .T. ) ;
#52 = CARTESIAN_POINT ( 'NONE',  ( -0.08822805999999651372, 10.00000000000000000, 0.000000000000000000 ) ) ;
#53 = EDGE_CURVE ( 'NONE', #243, #22, #150, .T. ) ;
#54 = VECTOR ( 'NONE', #867, 1000.000000000000000 ) ;
#55 = VECTOR ( 'NONE', #553, 1000.000000000000000 ) ;
#56 = CARTESIAN_POINT ( 'NONE',  ( -76.20000000000000284, 128.0000000000000000, -3.980000000000001759 ) ) ;
#57 = AXIS2_PLACEMENT_3D ( 'NONE', #259, #479, #747 ) ;
#58 = ORIENTED_EDGE ( 'NONE', *, *, #725, .T. ) ;
#59 = CYLINDRICAL_SURFACE ( 'NONE', #370, 10.00000000000000000 ) ;
#60 = CARTESIAN_POINT ( 'NONE',  ( -0.08822805999999651372, 10.00000000000000000, 1.600000000000000533 ) ) ;
#61 = VERTEX_POINT ( 'NONE', #329 ) ;
#62 = CARTESIAN_POINT ( 'NONE',  ( 15.80000000000000071, 1.322618543079141296E-15, 12.00000000000000000 ) ) ;
#63 = EDGE_CURVE ( 'NONE', #557, #535, #390, .T. ) ;
#64 = VERTEX_POINT ( 'NONE', #555 ) ;
#65 = AXIS2_PLACEMENT_3D ( 'NONE', #495, #623, #713 ) ;
#66 = DIRECTION ( 'NONE',  ( -1.000000000000000000, -0.000000000000000000, -0.000000000000000000 ) ) ;
#67 = VECTOR ( 'NONE', #744, 999.9999999999998863 ) ;
#68 = VECTOR ( 'NONE', #787, 1000.000000000000000 ) ;
#69 = ORIENTED_EDGE ( 'NONE', *, *, #251, .T. ) ;
#70 = ADVANCED_FACE ( 'NONE', ( #762 ), #692, .F. ) ;
#71 = ORIENTED_EDGE ( 'NONE', *, *, #864, .F. ) ;
#72 = CARTESIAN_POINT ( 'NONE',  ( -66.20000000000000284, 128.0000000000000000, -3.980000000000001759 ) ) ;
#73 = CARTESIAN_POINT ( 'NONE',  ( 15.80000000000000071, -10.00000000000000000, -2.000000000000000000 ) ) ;
#74 = EDGE_CURVE ( 'NONE', #856, #64, #500, .T. ) ;
#75 = CARTESIAN_POINT ( 'NONE',  ( 5.800000000000001599, -1.024250050195969141E-16, 12.00000000000000000 ) ) ;
#76 = EDGE_CURVE ( 'NONE', #573, #443, #117, .T. ) ;
#77 = LINE ( 'NONE', #863, #54 ) ;
#78 = CIRCLE ( 'NONE', #905, 3.980000000000001759 ) ;
#79 = MECHANICAL_DESIGN_GEOMETRIC_PRESENTATION_REPRESENTATION (  '', ( #884 ), #298 ) ;
#80 =( GEOMETRIC_REPRESENTATION_CONTEXT ( 3 ) GLOBAL_UNCERTAINTY_ASSIGNED_CONTEXT ( ( #704 ) ) GLOBAL_UNIT_ASSIGNED_CONTEXT ( ( #401, #616, #306 ) ) REPRESENTATION_CONTEXT ( 'NONE', 'WORKASPACE' ) );
#81 = CARTESIAN_POINT ( 'NONE',  ( 15.80000000000000071, 1.322618543079141296E-15, -12.00000000000000000 ) ) ;
#82 = FACE_BOUND ( 'NONE', #801, .T. ) ;
#83 = CARTESIAN_POINT ( 'NONE',  ( -0.08822805999999651372, -7.000000000000007994, 0.000000000000000000 ) ) ;
#84 = CARTESIAN_POINT ( 'NONE',  ( -76.20000000000001705, 132.0000000000000000, 12.00000000000000000 ) ) ;
#85 = EDGE_CURVE ( 'NONE', #449, #511, #263, .T. ) ;
#86 = ORIENTED_EDGE ( 'NONE', *, *, #339, .F. ) ;
#87 = ORIENTED_EDGE ( 'NONE', *, *, #363, .F. ) ;
#88 = CARTESIAN_POINT ( 'NONE',  ( -83.20000000000000284, 128.0000000000000000, 0.000000000000000000 ) ) ;
#89 = CARTESIAN_POINT ( 'NONE',  ( -0.08822805999999602800, -10.00000000000000178, 4.000000000000000000 ) ) ;
#90 = AXIS2_PLACEMENT_3D ( 'NONE', #859, #290, #440 ) ;
#91 = EDGE_CURVE ( 'NONE', #130, #625, #135, .T. ) ;
#92 = ORIENTED_EDGE ( 'NONE', *, *, #53, .T. ) ;
#93 = AXIS2_PLACEMENT_3D ( 'NONE', #342, #639, #417 ) ;
#94 = ORIENTED_EDGE ( 'NONE', *, *, #641, .F. ) ;
#95 = AXIS2_PLACEMENT_3D ( 'NONE', #803, #45, #190 ) ;
#96 = CARTESIAN_POINT ( 'NONE',  ( -0.08822805999999651372, -6.999999999999998224, 0.000000000000000000 ) ) ;
#97 = DIRECTION ( 'NONE',  ( -1.314184451497581013E-16, 1.000000000000000000, 0.000000000000000000 ) ) ;
#98 = ORIENTED_EDGE ( 'NONE', *, *, #388, .T. ) ;
#99 = ORIENTED_EDGE ( 'NONE', *, *, #2, .T. ) ;
#100 = EDGE_CURVE ( 'NONE', #61, #680, #125, .T. ) ;
#101 = DIRECTION ( 'NONE',  ( -0.000000000000000000, 1.000000000000000000, -0.000000000000000000 ) ) ;
#102 = PLANE ( 'NONE',  #546 ) ;
#103 = DIRECTION ( 'NONE',  ( -0.7071067811865486830, -0.7071067811865464625, 0.000000000000000000 ) ) ;
#104 = EDGE_LOOP ( 'NONE', ( #775, #111, #431, #368, #418, #882 ) ) ;
#105 = ORIENTED_EDGE ( 'NONE', *, *, #725, .F. ) ;
#106 = CARTESIAN_POINT ( 'NONE',  ( 15.80000000000000071, 1.322618543079141296E-15, -2.000000000000000000 ) ) ;
#107 = LINE ( 'NONE', #669, #919 ) ;
#108 = ADVANCED_FACE ( 'NONE', ( #433 ), #59, .T. ) ;
#109 = DIRECTION ( 'NONE',  ( 0.7071067811865464625, -0.7071067811865486830, 0.000000000000000000 ) ) ;
#110 = ORIENTED_EDGE ( 'NONE', *, *, #281, .T. ) ;
#111 = ORIENTED_EDGE ( 'NONE', *, *, #363, .T. ) ;
#112 = CIRCLE ( 'NONE', #360, 1.600000000000000533 ) ;
#113 = DIRECTION ( 'NONE',  ( 0.000000000000000000, -0.000000000000000000, 1.000000000000000000 ) ) ;
#114 = DIRECTION ( 'NONE',  ( 0.000000000000000000, 0.000000000000000000, -1.000000000000000000 ) ) ;
#115 = CARTESIAN_POINT ( 'NONE',  ( -0.08822805999999651372, 10.00000000000000000, 0.000000000000000000 ) ) ;
#116 = ORIENTED_EDGE ( 'NONE', *, *, #562, .F. ) ;
#117 = LINE ( 'NONE', #547, #185 ) ;
#118 = DIRECTION ( 'NONE',  ( 0.000000000000000000, 0.000000000000000000, -1.000000000000000000 ) ) ;
#119 = CARTESIAN_POINT ( 'NONE',  ( 5.800000000000001599, -1.024250050195969141E-16, -12.00000000000000000 ) ) ;
#120 = CARTESIAN_POINT ( 'NONE',  ( 15.80000000000000071, 1.322618543079141296E-15, 2.000000000000000000 ) ) ;
#121 = ORIENTED_EDGE ( 'NONE', *, *, #74, .T. ) ;
#122 = DIRECTION ( 'NONE',  ( -1.000000000000000000, -1.314184451497581013E-16, 0.000000000000000000 ) ) ;
#123 = CARTESIAN_POINT ( 'NONE',  ( -66.20000000000000284, 128.0000000000000000, 0.000000000000000000 ) ) ;
#124 = VERTEX_POINT ( 'NONE', #73 ) ;
#125 = LINE ( 'NONE', #411, #273 ) ;
#126 = AXIS2_PLACEMENT_3D ( 'NONE', #791, #97, #870 ) ;
#127 = CARTESIAN_POINT ( 'NONE',  ( -23.02893218813458276, -23.02893218813452236, -12.00000000000000000 ) ) ;
#128 = LINE ( 'NONE', #62, #372 ) ;
#129 = VECTOR ( 'NONE', #743, 1000.000000000000000 ) ;
#130 = VERTEX_POINT ( 'NONE', #825 ) ;
#131 = DIRECTION ( 'NONE',  ( -0.000000000000000000, -1.000000000000000000, -0.000000000000000000 ) ) ;
#132 = ORIENTED_EDGE ( 'NONE', *, *, #593, .F. ) ;
#133 = EDGE_CURVE ( 'NONE', #584, #157, #675, .T. ) ;
#134 = VERTEX_POINT ( 'NONE', #75 ) ;
#135 = CIRCLE ( 'NONE', #295, 10.00000000000000888 ) ;
#136 = CARTESIAN_POINT ( 'NONE',  ( 5.800000000000001599, 1.322618543079141296E-15, 12.00000000000000000 ) ) ;
#137 = CIRCLE ( 'NONE', #846, 1.599999999999995870 ) ;
#138 = AXIS2_PLACEMENT_3D ( 'NONE', #396, #246, #25 ) ;
#139 = DIRECTION ( 'NONE',  ( 1.000000000000000000, 0.000000000000000000, 0.000000000000000000 ) ) ;
#140 = EDGE_CURVE ( 'NONE', #179, #506, #283, .T. ) ;
#141 = DIRECTION ( 'NONE',  ( 0.000000000000000000, 1.000000000000000000, 0.000000000000000000 ) ) ;
#142 = CYLINDRICAL_SURFACE ( 'NONE', #694, 3.980000000000001759 ) ;
#143 = EDGE_CURVE ( 'NONE', #761, #765, #272, .T. ) ;
#144 = VERTEX_POINT ( 'NONE', #186 ) ;
#145 = PRESENTATION_STYLE_ASSIGNMENT (( #508 ) ) ;
#146 = CARTESIAN_POINT ( 'NONE',  ( -83.20000000000000284, 128.0000000000000000, -2.000000000000002220 ) ) ;
#147 = VERTEX_POINT ( 'NONE', #473 ) ;
#148 = DIRECTION ( 'NONE',  ( -1.000000000000000000, -0.000000000000000000, -0.000000000000000000 ) ) ;
#149 = CARTESIAN_POINT ( 'NONE',  ( -23.02893218813458276, -23.02893218813452236, 12.00000000000000000 ) ) ;
#150 = CIRCLE ( 'NONE', #65, 1.599999999999995870 ) ;
#151 = AXIS2_PLACEMENT_3D ( 'NONE', #458, #823, #760 ) ;
#152 = ORIENTED_EDGE ( 'NONE', *, *, #166, .T. ) ;
#153 = CIRCLE ( 'NONE', #426, 10.00000000000000888 ) ;
#154 = DIRECTION ( 'NONE',  ( 0.000000000000000000, 0.000000000000000000, 1.000000000000000000 ) ) ;
#155 = DIRECTION ( 'NONE',  ( 1.000000000000000000, 0.000000000000000000, 0.000000000000000000 ) ) ;
#156 = ORIENTED_EDGE ( 'NONE', *, *, #633, .T. ) ;
#157 = VERTEX_POINT ( 'NONE', #758 ) ;
#158 = CARTESIAN_POINT ( 'NONE',  ( -46.05786437626903052, -1.040834085586084257E-14, 12.00000000000000000 ) ) ;
#159 = EDGE_CURVE ( 'NONE', #856, #575, #505, .T. ) ;
#160 = CARTESIAN_POINT ( 'NONE',  ( -83.20000000000000284, 128.0000000000000000, 1.599999999999995870 ) ) ;
#161 = ORIENTED_EDGE ( 'NONE', *, *, #852, .T. ) ;
#162 = ORIENTED_EDGE ( 'NONE', *, *, #925, .T. ) ;
#163 = CARTESIAN_POINT ( 'NONE',  ( -66.20000000000000284, 128.0000000000000000, 0.000000000000000000 ) ) ;
#164 = LINE ( 'NONE', #514, #883 ) ;
#165 = EDGE_LOOP ( 'NONE', ( #23, #528, #305, #807 ) ) ;
#166 = EDGE_CURVE ( 'NONE', #124, #872, #366, .T. ) ;
#167 = AXIS2_PLACEMENT_3D ( 'NONE', #850, #131, #917 ) ;
#168 = EDGE_LOOP ( 'NONE', ( #231, #28, #920, #110 ) ) ;
#169 = AXIS2_PLACEMENT_3D ( 'NONE', #605, #752, #113 ) ;
#170 = DIRECTION ( 'NONE',  ( 0.000000000000000000, 0.000000000000000000, 1.000000000000000000 ) ) ;
#171 = CARTESIAN_POINT ( 'NONE',  ( -0.08822805999999602800, 10.00000000000000000, 3.979999999999999982 ) ) ;
#172 = CYLINDRICAL_SURFACE ( 'NONE', #425, 4.000000000000000000 ) ;
#173 = ORIENTED_EDGE ( 'NONE', *, *, #63, .T. ) ;
#174 = EDGE_CURVE ( 'NONE', #147, #573, #497, .T. ) ;
#175 = ORIENTED_EDGE ( 'NONE', *, *, #301, .F. ) ;
#176 = CARTESIAN_POINT ( 'NONE',  ( -0.08822805999999651372, -7.000000000000007994, 1.600000000000000533 ) ) ;
#177 = FACE_OUTER_BOUND ( 'NONE', #727, .T. ) ;
#178 = DIRECTION ( 'NONE',  ( 0.000000000000000000, 1.000000000000000000, 0.000000000000000000 ) ) ;
#179 = VERTEX_POINT ( 'NONE', #84 ) ;
#180 = ORIENTED_EDGE ( 'NONE', *, *, #482, .T. ) ;
#181 = CARTESIAN_POINT ( 'NONE',  ( -83.20000000000000284, 128.0000000000000000, 0.000000000000000000 ) ) ;
#182 = LINE ( 'NONE', #450, #129 ) ;
#183 = DIRECTION ( 'NONE',  ( 0.000000000000000000, 1.000000000000000000, 0.000000000000000000 ) ) ;
#184 = ORIENTED_EDGE ( 'NONE', *, *, #698, .F. ) ;
#185 = VECTOR ( 'NONE', #198, 1000.000000000000000 ) ;
#186 = CARTESIAN_POINT ( 'NONE',  ( -0.08822805999999651372, -6.999999999999998224, -4.000000000000000000 ) ) ;
#187 = AXIS2_PLACEMENT_3D ( 'NONE', #3, #288, #532 ) ;
#188 = AXIS2_PLACEMENT_3D ( 'NONE', #467, #759, #816 ) ;
#189 = DIRECTION ( 'NONE',  ( 0.000000000000000000, 0.000000000000000000, 1.000000000000000000 ) ) ;
#190 = DIRECTION ( 'NONE',  ( 0.000000000000000000, 0.000000000000000000, 1.000000000000000000 ) ) ;
#191 = EDGE_CURVE ( 'NONE', #575, #685, #77, .T. ) ;
#192 = CARTESIAN_POINT ( 'NONE',  ( 5.800000000000001599, 0.000000000000000000, -2.000000000000000000 ) ) ;
#193 = ORIENTED_EDGE ( 'NONE', *, *, #780, .T. ) ;
#194 = DIRECTION ( 'NONE',  ( 0.000000000000000000, 0.000000000000000000, 1.000000000000000000 ) ) ;
#195 = DIRECTION ( 'NONE',  ( -0.000000000000000000, 0.000000000000000000, 1.000000000000000000 ) ) ;
#196 = EDGE_CURVE ( 'NONE', #323, #341, #13, .T. ) ;
#197 = ORIENTED_EDGE ( 'NONE', *, *, #691, .F. ) ;
#198 = DIRECTION ( 'NONE',  ( -1.000000000000000000, -1.314184451497581013E-16, 0.000000000000000000 ) ) ;
#199 = PLANE ( 'NONE',  #93 ) ;
#200 = ORIENTED_EDGE ( 'NONE', *, *, #339, .T. ) ;
#201 = CARTESIAN_POINT ( 'NONE',  ( -76.20000000000001705, 132.0000000000000000, -2.000000000000000000 ) ) ;
#202 = ADVANCED_FACE ( 'NONE', ( #219 ), #371, .F. ) ;
#203 = AXIS2_PLACEMENT_3D ( 'NONE', #352, #640, #927 ) ;
#204 = CYLINDRICAL_SURFACE ( 'NONE', #167, 3.979999999999999982 ) ;
#205 = ORIENTED_EDGE ( 'NONE', *, *, #493, .F. ) ;
#206 = EDGE_CURVE ( 'NONE', #367, #147, #446, .T. ) ;
#207 = PLANE ( 'NONE',  #274 ) ;
#208 = EDGE_LOOP ( 'NONE', ( #105, #516, #818, #98 ) ) ;
#209 = LINE ( 'NONE', #779, #346 ) ;
#210 = VECTOR ( 'NONE', #909, 1000.000000000000000 ) ;
#211 = DIRECTION ( 'NONE',  ( -1.425043548098738260E-16, 1.000000000000000000, 0.000000000000000000 ) ) ;
#212 = AXIS2_PLACEMENT_3D ( 'NONE', #519, #155, #796 ) ;
#213 = EDGE_CURVE ( 'NONE', #506, #61, #4, .T. ) ;
#214 = AXIS2_PLACEMENT_3D ( 'NONE', #610, #815, #29 ) ;
#215 = CARTESIAN_POINT ( 'NONE',  ( -83.20000000000000284, 128.0000000000000000, -1.599999999999995870 ) ) ;
#216 = DIRECTION ( 'NONE',  ( 1.000000000000000000, -0.000000000000000000, -0.000000000000000000 ) ) ;
#217 = CARTESIAN_POINT ( 'NONE',  ( -86.20000000000000284, 26.00000000000009948, 12.00000000000000000 ) ) ;
#218 = CARTESIAN_POINT ( 'NONE',  ( -86.20000000000001705, 128.0000000000000000, 0.000000000000000000 ) ) ;
#219 = FACE_OUTER_BOUND ( 'NONE', #444, .T. ) ;
#220 = ADVANCED_FACE ( 'NONE', ( #82, #582 ), #8, .F. ) ;
#221 = LINE ( 'NONE', #146, #470 ) ;
#222 = CIRCLE ( 'NONE', #735, 10.00000000000000000 ) ;
#223 = VERTEX_POINT ( 'NONE', #364 ) ;
#224 = EDGE_CURVE ( 'NONE', #179, #856, #164, .T. ) ;
#225 = CARTESIAN_POINT ( 'NONE',  ( 5.800000000000001599, 0.000000000000000000, -12.00000000000000000 ) ) ;
#226 = CARTESIAN_POINT ( 'NONE',  ( 15.80000000000000071, -10.00000000000000000, 2.000000000000000000 ) ) ;
#227 = ORIENTED_EDGE ( 'NONE', *, *, #686, .F. ) ;
#228 = ORIENTED_EDGE ( 'NONE', *, *, #447, .T. ) ;
#229 = DIRECTION ( 'NONE',  ( 0.000000000000000000, 0.000000000000000000, -1.000000000000000000 ) ) ;
#230 = ORIENTED_EDGE ( 'NONE', *, *, #562, .T. ) ;
#231 = ORIENTED_EDGE ( 'NONE', *, *, #852, .F. ) ;
#232 = LINE ( 'NONE', #748, #679 ) ;
#233 = CARTESIAN_POINT ( 'NONE',  ( -0.08822805999999651372, -10.00000000000000178, -4.000000000000000000 ) ) ;
#234 = EDGE_CURVE ( 'NONE', #708, #236, #11, .T. ) ;
#235 = CIRCLE ( 'NONE', #35, 3.979999999999999982 ) ;
#236 = VERTEX_POINT ( 'NONE', #788 ) ;
#237 = VECTOR ( 'NONE', #580, 1000.000000000000000 ) ;
#238 = EDGE_LOOP ( 'NONE', ( #42, #249, #877, #291 ) ) ;
#239 = AXIS2_PLACEMENT_3D ( 'NONE', #402, #331, #617 ) ;
#240 = DIRECTION ( 'NONE',  ( -1.000000000000000000, 0.000000000000000000, 0.000000000000000000 ) ) ;
#241 = PLANE ( 'NONE',  #138 ) ;
#242 = DIRECTION ( 'NONE',  ( 1.000000000000000000, 0.000000000000000000, 0.000000000000000000 ) ) ;
#243 = VERTEX_POINT ( 'NONE', #160 ) ;
#244 = ORIENTED_EDGE ( 'NONE', *, *, #174, .F. ) ;
#245 = DIRECTION ( 'NONE',  ( 1.000000000000000000, -0.000000000000000000, -0.000000000000000000 ) ) ;
#246 = DIRECTION ( 'NONE',  ( 1.000000000000000000, 1.196361017915040472E-16, -0.000000000000000000 ) ) ;
#247 = FACE_OUTER_BOUND ( 'NONE', #208, .T. ) ;
#248 = APPLICATION_CONTEXT ( 'automotive_design' ) ;
#249 = ORIENTED_EDGE ( 'NONE', *, *, #780, .F. ) ;
#250 = DIRECTION ( 'NONE',  ( 0.000000000000000000, 0.000000000000000000, 1.000000000000000000 ) ) ;
#251 = EDGE_CURVE ( 'NONE', #872, #367, #572, .T. ) ;
#252 = FACE_OUTER_BOUND ( 'NONE', #304, .T. ) ;
#253 = DIRECTION ( 'NONE',  ( -0.7071067811865465735, 0.7071067811865483499, 0.000000000000000000 ) ) ;
#254 = LINE ( 'NONE', #831, #754 ) ;
#255 = ORIENTED_EDGE ( 'NONE', *, *, #447, .F. ) ;
#256 = CLOSED_SHELL ( 'NONE', ( #375, #476, #503, #571, #663, #565, #294, #895, #534, #202, #220, #328, #732, #755, #829, #468, #398, #108, #421, #652, #271, #7, #513, #842, #889, #353, #904, #70, #773, #921 ) ) ;
#257 = DIRECTION ( 'NONE',  ( 0.000000000000000000, 0.000000000000000000, 1.000000000000000000 ) ) ;
#258 = VECTOR ( 'NONE', #44, 1000.000000000000114 ) ;
#259 = CARTESIAN_POINT ( 'NONE',  ( 0.000000000000000000, 0.000000000000000000, -12.00000000000000000 ) ) ;
#260 = EDGE_CURVE ( 'NONE', #535, #557, #78, .T. ) ;
#261 = CARTESIAN_POINT ( 'NONE',  ( -0.08822805999999651372, 10.00000000000000000, -3.979999999999999982 ) ) ;
#262 = VERTEX_POINT ( 'NONE', #89 ) ;
#263 = LINE ( 'NONE', #766, #845 ) ;
#264 = CARTESIAN_POINT ( 'NONE',  ( -50.20000000000000284, -10.00000000000000888, 12.00000000000000000 ) ) ;
#265 = EDGE_CURVE ( 'NONE', #765, #613, #221, .T. ) ;
#266 = EDGE_LOOP ( 'NONE', ( #193, #492 ) ) ;
#267 = DIRECTION ( 'NONE',  ( -0.000000000000000000, 1.000000000000000000, -0.000000000000000000 ) ) ;
#268 = DIRECTION ( 'NONE',  ( 1.000000000000000000, 0.000000000000000000, 0.000000000000000000 ) ) ;
#269 = CARTESIAN_POINT ( 'NONE',  ( 5.800000000000001599, -10.00000000000000178, -12.00000000000000000 ) ) ;
#270 = ORIENTED_EDGE ( 'NONE', *, *, #308, .F. ) ;
#271 = ADVANCED_FACE ( 'NONE', ( #510 ), #875, .T. ) ;
#272 = CIRCLE ( 'NONE', #424, 2.000000000000002220 ) ;
#273 = VECTOR ( 'NONE', #697, 1000.000000000000000 ) ;
#274 = AXIS2_PLACEMENT_3D ( 'NONE', #123, #491, #420 ) ;
#275 = CARTESIAN_POINT ( 'NONE',  ( 5.800000000000001599, -1.024250050195969141E-16, 2.000000000000000000 ) ) ;
#276 = VECTOR ( 'NONE', #101, 1000.000000000000000 ) ;
#277 = ORIENTED_EDGE ( 'NONE', *, *, #670, .F. ) ;
#278 = DIRECTION ( 'NONE',  ( 0.000000000000000000, 0.000000000000000000, 1.000000000000000000 ) ) ;
#279 = DIRECTION ( 'NONE',  ( -1.000000000000000000, -1.425043548098738260E-16, 0.000000000000000000 ) ) ;
#280 = ORIENTED_EDGE ( 'NONE', *, *, #438, .F. ) ;
#281 = EDGE_CURVE ( 'NONE', #157, #584, #793, .T. ) ;
#282 = CARTESIAN_POINT ( 'NONE',  ( -50.20000000000000284, -10.00000000000000888, 12.00000000000000000 ) ) ;
#283 = LINE ( 'NONE', #566, #827 ) ;
#284 = AXIS2_PLACEMENT_3D ( 'NONE', #502, #722, #804 ) ;
#285 = CARTESIAN_POINT ( 'NONE',  ( 15.80000000000000071, -10.00000000000000000, -12.00000000000000000 ) ) ;
#286 = AXIS2_PLACEMENT_3D ( 'NONE', #525, #812, #484 ) ;
#287 = CIRCLE ( 'NONE', #811, 1.600000000000000533 ) ;
#288 = DIRECTION ( 'NONE',  ( 1.000000000000000000, -0.000000000000000000, -0.000000000000000000 ) ) ;
#289 = EDGE_LOOP ( 'NONE', ( #545, #333 ) ) ;
#290 = DIRECTION ( 'NONE',  ( 1.314184451497581013E-16, -1.000000000000000000, -0.000000000000000000 ) ) ;
#291 = ORIENTED_EDGE ( 'NONE', *, *, #740, .T. ) ;
#292 = DIRECTION ( 'NONE',  ( 1.196361017915040472E-16, -1.000000000000000000, 0.000000000000000000 ) ) ;
#293 = CARTESIAN_POINT ( 'NONE',  ( -76.20000000000000284, 128.0000000000000000, 0.000000000000000000 ) ) ;
#294 = ADVANCED_FACE ( 'NONE', ( #726 ), #643, .F. ) ;
#295 = AXIS2_PLACEMENT_3D ( 'NONE', #201, #786, #552 ) ;
#296 = CARTESIAN_POINT ( 'NONE',  ( -0.08822805999999633331, -7.000000000000007994, -1.600000000000000533 ) ) ;
#297 = CIRCLE ( 'NONE', #808, 10.00000000000000888 ) ;
#298 =( GEOMETRIC_REPRESENTATION_CONTEXT ( 3 ) GLOBAL_UNCERTAINTY_ASSIGNED_CONTEXT ( ( #344 ) ) GLOBAL_UNIT_ASSIGNED_CONTEXT ( ( #445, #357, #20 ) ) REPRESENTATION_CONTEXT ( 'NONE', 'WORKASPACE' ) );
#299 = ORIENTED_EDGE ( 'NONE', *, *, #91, .T. ) ;
#300 = EDGE_LOOP ( 'NONE', ( #277, #814, #173, #350 ) ) ;
#301 = EDGE_CURVE ( 'NONE', #872, #802, #634, .T. ) ;
#302 = CYLINDRICAL_SURFACE ( 'NONE', #39, 10.00000000000000000 ) ;
#303 = CARTESIAN_POINT ( 'NONE',  ( 15.80000000000000071, 1.322618543079141296E-15, -12.00000000000000000 ) ) ;
#304 = EDGE_LOOP ( 'NONE', ( #924, #18, #529, #33 ) ) ;
#305 = ORIENTED_EDGE ( 'NONE', *, *, #794, .T. ) ;
#306 =( NAMED_UNIT ( * ) SI_UNIT ( $, .STERADIAN. ) SOLID_ANGLE_UNIT ( ) );
#307 = PLANE ( 'NONE',  #659 ) ;
#308 = EDGE_CURVE ( 'NONE', #443, #708, #326, .T. ) ;
#309 = PLANE ( 'NONE',  #568 ) ;
#310 = ORIENTED_EDGE ( 'NONE', *, *, #143, .T. ) ;
#311 = ORIENTED_EDGE ( 'NONE', *, *, #322, .F. ) ;
#312 = CYLINDRICAL_SURFACE ( 'NONE', #569, 2.000000000000002220 ) ;
#313 = FACE_OUTER_BOUND ( 'NONE', #819, .T. ) ;
#314 = CARTESIAN_POINT ( 'NONE',  ( -66.20000000000000284, 128.0000000000000000, 0.000000000000000000 ) ) ;
#315 = VERTEX_POINT ( 'NONE', #906 ) ;
#316 = ORIENTED_EDGE ( 'NONE', *, *, #518, .F. ) ;
#317 = PRODUCT_DEFINITION_FORMATION_WITH_SPECIFIED_SOURCE ( 'ANY', '', #914, .NOT_KNOWN. ) ;
#318 = PLANE ( 'NONE',  #622 ) ;
#319 = LINE ( 'NONE', #611, #709 ) ;
#320 = FACE_OUTER_BOUND ( 'NONE', #667, .T. ) ;
#321 = ORIENTED_EDGE ( 'NONE', *, *, #234, .T. ) ;
#322 = EDGE_CURVE ( 'NONE', #455, #636, #26, .T. ) ;
#323 = VERTEX_POINT ( 'NONE', #677 ) ;
#324 = LINE ( 'NONE', #897, #771 ) ;
#325 = LINE ( 'NONE', #664, #498 ) ;
#326 = LINE ( 'NONE', #383, #67 ) ;
#327 = ORIENTED_EDGE ( 'NONE', *, *, #655, .F. ) ;
#328 = ADVANCED_FACE ( 'NONE', ( #40 ), #309, .T. ) ;
#329 = CARTESIAN_POINT ( 'NONE',  ( -86.20000000000001705, 142.0000000000000284, 2.000000000000000000 ) ) ;
#330 = DIRECTION ( 'NONE',  ( -0.000000000000000000, -1.000000000000000000, -0.000000000000000000 ) ) ;
#331 = DIRECTION ( 'NONE',  ( -1.000000000000000000, 0.000000000000000000, 0.000000000000000000 ) ) ;
#332 = DIRECTION ( 'NONE',  ( -1.000000000000000000, -1.196361017915040472E-16, 0.000000000000000000 ) ) ;
#333 = ORIENTED_EDGE ( 'NONE', *, *, #63, .F. ) ;
#334 = DIRECTION ( 'NONE',  ( 0.000000000000000000, 0.000000000000000000, -1.000000000000000000 ) ) ;
#335 = VECTOR ( 'NONE', #292, 1000.000000000000000 ) ;
#336 = CARTESIAN_POINT ( 'NONE',  ( -86.20000000000001705, 132.0000000000000000, -12.00000000000000000 ) ) ;
#337 = ORIENTED_EDGE ( 'NONE', *, *, #490, .T. ) ;
#338 = CARTESIAN_POINT ( 'NONE',  ( -0.08822805999999651372, -7.000000000000007994, 0.000000000000000000 ) ) ;
#339 = EDGE_CURVE ( 'NONE', #341, #460, #359, .T. ) ;
#340 = CARTESIAN_POINT ( 'NONE',  ( -0.08822805999999651372, -7.000000000000007994, 0.000000000000000000 ) ) ;
#341 = VERTEX_POINT ( 'NONE', #684 ) ;
#342 = CARTESIAN_POINT ( 'NONE',  ( -86.20000000000000284, -1.031263197442764921E-14, 12.00000000000000000 ) ) ;
#343 = ORIENTED_EDGE ( 'NONE', *, *, #301, .T. ) ;
#344 = UNCERTAINTY_MEASURE_WITH_UNIT (LENGTH_MEASURE( 1.000000000000000082E-05 ), #445, 'distance_accuracy_value', 'NONE');
#345 = AXIS2_PLACEMENT_3D ( 'NONE', #52, #913, #839 ) ;
#346 = VECTOR ( 'NONE', #926, 1000.000000000000000 ) ;
#347 = FACE_OUTER_BOUND ( 'NONE', #379, .T. ) ;
#348 = VERTEX_POINT ( 'NONE', #550 ) ;
#349 = EDGE_CURVE ( 'NONE', #765, #761, #393, .T. ) ;
#350 = ORIENTED_EDGE ( 'NONE', *, *, #585, .F. ) ;
#351 = FACE_BOUND ( 'NONE', #644, .T. ) ;
#352 = CARTESIAN_POINT ( 'NONE',  ( -66.20000000000000284, 128.0000000000000000, 0.000000000000000000 ) ) ;
#353 = ADVANCED_FACE ( 'NONE', ( #247 ), #880, .T. ) ;
#354 = CYLINDRICAL_SURFACE ( 'NONE', #412, 1.599999999999995870 ) ;
#355 = DIRECTION ( 'NONE',  ( -1.000000000000000000, 0.000000000000000000, 0.000000000000000000 ) ) ;
#356 = VECTOR ( 'NONE', #738, 1000.000000000000114 ) ;
#357 =( NAMED_UNIT ( * ) PLANE_ANGLE_UNIT ( ) SI_UNIT ( $, .RADIAN. ) );
#358 = EDGE_CURVE ( 'NONE', #890, #223, #620, .T. ) ;
#359 = CIRCLE ( 'NONE', #678, 1.600000000000000533 ) ;
#360 = AXIS2_PLACEMENT_3D ( 'NONE', #878, #742, #189 ) ;
#361 = DIRECTION ( 'NONE',  ( -1.000000000000000000, -1.196361017915040472E-16, 0.000000000000000000 ) ) ;
#362 = CARTESIAN_POINT ( 'NONE',  ( -86.20000000000000284, 128.0000000000000000, -2.000000000000002220 ) ) ;
#363 = EDGE_CURVE ( 'NONE', #596, #520, #297, .T. ) ;
#364 = CARTESIAN_POINT ( 'NONE',  ( -66.20000000000000284, 128.0000000000000000, -3.980000000000001759 ) ) ;
#365 = CARTESIAN_POINT ( 'NONE',  ( 5.800000000000001599, 1.322618543079141296E-15, 2.000000000000000000 ) ) ;
#366 = LINE ( 'NONE', #574, #14 ) ;
#367 = VERTEX_POINT ( 'NONE', #120 ) ;
#368 = ORIENTED_EDGE ( 'NONE', *, *, #234, .F. ) ;
#369 = DIRECTION ( 'NONE',  ( 0.000000000000000000, -1.000000000000000000, 0.000000000000000000 ) ) ;
#370 = AXIS2_PLACEMENT_3D ( 'NONE', #781, #428, #711 ) ;
#371 = PLANE ( 'NONE',  #284 ) ;
#372 = VECTOR ( 'NONE', #408, 1000.000000000000000 ) ;
#373 = CIRCLE ( 'NONE', #188, 3.980000000000001759 ) ;
#374 = EDGE_LOOP ( 'NONE', ( #739, #92 ) ) ;
#375 = ADVANCED_FACE ( 'NONE', ( #600 ), #172, .F. ) ;
#376 = ORIENTED_EDGE ( 'NONE', *, *, #615, .T. ) ;
#377 = DIRECTION ( 'NONE',  ( -1.000000000000000000, -0.000000000000000000, -0.000000000000000000 ) ) ;
#378 = DIRECTION ( 'NONE',  ( 0.000000000000000000, 0.000000000000000000, -1.000000000000000000 ) ) ;
#379 = EDGE_LOOP ( 'NONE', ( #608, #343, #34, #876, #255, #465 ) ) ;
#380 = ORIENTED_EDGE ( 'NONE', *, *, #100, .F. ) ;
#381 = LINE ( 'NONE', #530, #737 ) ;
#382 = CARTESIAN_POINT ( 'NONE',  ( -83.20000000000000284, 128.0000000000000000, -2.000000000000002220 ) ) ;
#383 = CARTESIAN_POINT ( 'NONE',  ( -30.10000000000007958, -30.09999999999998721, 12.00000000000000000 ) ) ;
#384 = ORIENTED_EDGE ( 'NONE', *, *, #260, .T. ) ;
#385 = CARTESIAN_POINT ( 'NONE',  ( -0.08822805999999602800, -6.999999999999998224, 4.000000000000000000 ) ) ;
#386 = FACE_OUTER_BOUND ( 'NONE', #423, .T. ) ;
#387 = CARTESIAN_POINT ( 'NONE',  ( -76.20000000000001705, 142.0000000000000284, 2.000000000000000000 ) ) ;
#388 = EDGE_CURVE ( 'NONE', #636, #315, #830, .T. ) ;
#389 = CARTESIAN_POINT ( 'NONE',  ( -83.20000000000000284, 128.0000000000000000, 0.000000000000000000 ) ) ;
#390 = CIRCLE ( 'NONE', #599, 3.980000000000001759 ) ;
#391 = AXIS2_PLACEMENT_3D ( 'NONE', #340, #631, #710 ) ;
#392 = EDGE_LOOP ( 'NONE', ( #728, #86 ) ) ;
#393 = CIRCLE ( 'NONE', #918, 2.000000000000002220 ) ;
#394 = EDGE_LOOP ( 'NONE', ( #741, #629 ) ) ;
#395 = CYLINDRICAL_SURFACE ( 'NONE', #472, 4.000000000000000000 ) ;
#396 = CARTESIAN_POINT ( 'NONE',  ( -76.20000000000000284, -9.116270956512607603E-15, 12.00000000000000000 ) ) ;
#397 = FACE_OUTER_BOUND ( 'NONE', #489, .T. ) ;
#398 = ADVANCED_FACE ( 'NONE', ( #320 ), #749, .T. ) ;
#399 = ORIENTED_EDGE ( 'NONE', *, *, #196, .F. ) ;
#400 = CARTESIAN_POINT ( 'NONE',  ( -0.08822805999999651372, 10.00000000000000000, 0.000000000000000000 ) ) ;
#401 =( LENGTH_UNIT ( ) NAMED_UNIT ( * ) SI_UNIT ( .MILLI., .METRE. ) );
#402 = CARTESIAN_POINT ( 'NONE',  ( -86.20000000000000284, 128.0000000000000000, 0.000000000000000000 ) ) ;
#403 = DIRECTION ( 'NONE',  ( -0.000000000000000000, -1.000000000000000000, -0.000000000000000000 ) ) ;
#404 = ORIENTED_EDGE ( 'NONE', *, *, #638, .F. ) ;
#405 = DIRECTION ( 'NONE',  ( 0.000000000000000000, 0.000000000000000000, 1.000000000000000000 ) ) ;
#406 = EDGE_CURVE ( 'NONE', #22, #243, #137, .T. ) ;
#407 = FACE_BOUND ( 'NONE', #374, .T. ) ;
#408 = DIRECTION ( 'NONE',  ( -1.000000000000000000, -1.425043548098738260E-16, 0.000000000000000000 ) ) ;
#409 = ORIENTED_EDGE ( 'NONE', *, *, #85, .T. ) ;
#410 = VECTOR ( 'NONE', #588, 1000.000000000000000 ) ;
#411 = CARTESIAN_POINT ( 'NONE',  ( -76.20000000000001705, 142.0000000000000284, 2.000000000000000000 ) ) ;
#412 = AXIS2_PLACEMENT_3D ( 'NONE', #218, #216, #858 ) ;
#413 = PRODUCT_RELATED_PRODUCT_CATEGORY ( 'part', '', ( #914 ) ) ;
#414 = AXIS2_PLACEMENT_3D ( 'NONE', #163, #377, #879 ) ;
#415 = CARTESIAN_POINT ( 'NONE',  ( -30.10000000000007958, -30.09999999999998721, -12.00000000000000000 ) ) ;
#416 = EDGE_LOOP ( 'NONE', ( #477, #162 ) ) ;
#417 = DIRECTION ( 'NONE',  ( -1.196361017915040472E-16, 1.000000000000000000, 0.000000000000000000 ) ) ;
#418 = ORIENTED_EDGE ( 'NONE', *, *, #615, .F. ) ;
#419 = SHAPE_DEFINITION_REPRESENTATION ( #772, #626 ) ;
#420 = DIRECTION ( 'NONE',  ( 0.000000000000000000, 0.000000000000000000, -1.000000000000000000 ) ) ;
#421 = ADVANCED_FACE ( 'NONE', ( #397 ), #480, .T. ) ;
#422 = VERTEX_POINT ( 'NONE', #233 ) ;
#423 = EDGE_LOOP ( 'NONE', ( #310, #783 ) ) ;
#424 = AXIS2_PLACEMENT_3D ( 'NONE', #896, #687, #250 ) ;
#425 = AXIS2_PLACEMENT_3D ( 'NONE', #618, #46, #378 ) ;
#426 = AXIS2_PLACEMENT_3D ( 'NONE', #512, #586, #785 ) ;
#427 = CYLINDRICAL_SURFACE ( 'NONE', #391, 1.600000000000000533 ) ;
#428 = DIRECTION ( 'NONE',  ( -1.000000000000000000, 0.000000000000000000, 0.000000000000000000 ) ) ;
#429 = EDGE_CURVE ( 'NONE', #520, #130, #254, .T. ) ;
#430 = APPLICATION_CONTEXT ( 'automotive_design' ) ;
#431 = ORIENTED_EDGE ( 'NONE', *, *, #698, .T. ) ;
#432 = FACE_OUTER_BOUND ( 'NONE', #656, .T. ) ;
#433 = FACE_OUTER_BOUND ( 'NONE', #745, .T. ) ;
#434 = ORIENTED_EDGE ( 'NONE', *, *, #76, .T. ) ;
#435 = EDGE_CURVE ( 'NONE', #262, #422, #782, .T. ) ;
#436 = DIRECTION ( 'NONE',  ( 0.000000000000000000, 0.000000000000000000, 1.000000000000000000 ) ) ;
#437 = CARTESIAN_POINT ( 'NONE',  ( -66.20000000000000284, 128.0000000000000000, 0.000000000000000000 ) ) ;
#438 = EDGE_CURVE ( 'NONE', #134, #367, #222, .T. ) ;
#439 = AXIS2_PLACEMENT_3D ( 'NONE', #88, #148, #436 ) ;
#440 = DIRECTION ( 'NONE',  ( -1.000000000000000000, -1.734723475976807094E-16, 0.000000000000000000 ) ) ;
#441 = FACE_OUTER_BOUND ( 'NONE', #900, .T. ) ;
#442 = DIRECTION ( 'NONE',  ( 0.000000000000000000, 0.000000000000000000, -1.000000000000000000 ) ) ;
#443 = VERTEX_POINT ( 'NONE', #282 ) ;
#444 = EDGE_LOOP ( 'NONE', ( #661, #152, #69, #813 ) ) ;
#445 =( LENGTH_UNIT ( ) NAMED_UNIT ( * ) SI_UNIT ( .MILLI., .METRE. ) );
#446 = LINE ( 'NONE', #226, #410 ) ;
#447 = EDGE_CURVE ( 'NONE', #134, #575, #128, .T. ) ;
#448 = ORIENTED_EDGE ( 'NONE', *, *, #490, .F. ) ;
#449 = VERTEX_POINT ( 'NONE', #269 ) ;
#450 = CARTESIAN_POINT ( 'NONE',  ( -83.20000000000000284, 128.0000000000000000, 2.000000000000002220 ) ) ;
#451 = DIRECTION ( 'NONE',  ( 1.000000000000000000, 0.000000000000000000, 0.000000000000000000 ) ) ;
#452 = AXIS2_PLACEMENT_3D ( 'NONE', #923, #853, #279 ) ;
#453 = VECTOR ( 'NONE', #668, 1000.000000000000000 ) ;
#454 = ORIENTED_EDGE ( 'NONE', *, *, #213, .F. ) ;
#455 = VERTEX_POINT ( 'NONE', #564 ) ;
#456 = FACE_OUTER_BOUND ( 'NONE', #238, .T. ) ;
#457 = CARTESIAN_POINT ( 'NONE',  ( -46.05786437626903052, -1.040834085586084257E-14, -12.00000000000000000 ) ) ;
#458 = CARTESIAN_POINT ( 'NONE',  ( 5.800000000000001599, -1.024250050195969141E-16, -2.000000000000000000 ) ) ;
#459 = ORIENTED_EDGE ( 'NONE', *, *, #691, .T. ) ;
#460 = VERTEX_POINT ( 'NONE', #60 ) ;
#461 = PLANE ( 'NONE',  #57 ) ;
#462 = DIRECTION ( 'NONE',  ( -1.000000000000000000, 0.000000000000000000, 0.000000000000000000 ) ) ;
#463 = DIRECTION ( 'NONE',  ( 0.000000000000000000, 0.000000000000000000, -1.000000000000000000 ) ) ;
#464 = VERTEX_POINT ( 'NONE', #494 ) ;
#465 = ORIENTED_EDGE ( 'NONE', *, *, #438, .T. ) ;
#466 = CARTESIAN_POINT ( 'NONE',  ( -83.20000000000000284, 128.0000000000000000, 0.000000000000000000 ) ) ;
#467 = CARTESIAN_POINT ( 'NONE',  ( -66.20000000000000284, 128.0000000000000000, 0.000000000000000000 ) ) ;
#468 = ADVANCED_FACE ( 'NONE', ( #351, #488 ), #199, .F. ) ;
#469 = DIRECTION ( 'NONE',  ( 0.000000000000000000, 0.000000000000000000, 1.000000000000000000 ) ) ;
#470 = VECTOR ( 'NONE', #660, 1000.000000000000000 ) ;
#471 = EDGE_LOOP ( 'NONE', ( #227, #99, #916, #700 ) ) ;
#472 = AXIS2_PLACEMENT_3D ( 'NONE', #541, #826, #118 ) ;
#473 = CARTESIAN_POINT ( 'NONE',  ( 15.80000000000000071, -10.00000000000000000, 2.000000000000000000 ) ) ;
#474 = CARTESIAN_POINT ( 'NONE',  ( -86.20000000000000284, 26.00000000000009948, 12.00000000000000000 ) ) ;
#475 = CARTESIAN_POINT ( 'NONE',  ( -30.10000000000007958, -30.09999999999998721, 12.00000000000000000 ) ) ;
#476 = ADVANCED_FACE ( 'NONE', ( #776 ), #427, .F. ) ;
#477 = ORIENTED_EDGE ( 'NONE', *, *, #638, .T. ) ;
#478 = DIRECTION ( 'NONE',  ( 0.000000000000000000, 1.000000000000000000, 0.000000000000000000 ) ) ;
#479 = DIRECTION ( 'NONE',  ( -0.000000000000000000, 0.000000000000000000, 1.000000000000000000 ) ) ;
#480 = CYLINDRICAL_SURFACE ( 'NONE', #792, 10.00000000000000000 ) ;
#481 = ORIENTED_EDGE ( 'NONE', *, *, #140, .F. ) ;
#482 = EDGE_CURVE ( 'NONE', #511, #236, #767, .T. ) ;
#483 = DIRECTION ( 'NONE',  ( 0.000000000000000000, 1.000000000000000000, 0.000000000000000000 ) ) ;
#484 = DIRECTION ( 'NONE',  ( 0.000000000000000000, 0.000000000000000000, -1.000000000000000000 ) ) ;
#485 = ORIENTED_EDGE ( 'NONE', *, *, #166, .F. ) ;
#486 = VECTOR ( 'NONE', #800, 1000.000000000000000 ) ;
#487 = PRESENTATION_LAYER_ASSIGNMENT (  '', '', ( #884 ) ) ;
#488 = FACE_OUTER_BOUND ( 'NONE', #104, .T. ) ;
#489 = EDGE_LOOP ( 'NONE', ( #175, #485, #448, #94 ) ) ;
#490 = EDGE_CURVE ( 'NONE', #449, #124, #507, .T. ) ;
#491 = DIRECTION ( 'NONE',  ( 1.000000000000000000, 0.000000000000000000, 0.000000000000000000 ) ) ;
#492 = ORIENTED_EDGE ( 'NONE', *, *, #686, .T. ) ;
#493 = EDGE_CURVE ( 'NONE', #573, #134, #556, .T. ) ;
#494 = CARTESIAN_POINT ( 'NONE',  ( -86.20000000000000284, 128.0000000000000000, 2.000000000000002220 ) ) ;
#495 = CARTESIAN_POINT ( 'NONE',  ( -83.20000000000000284, 128.0000000000000000, 0.000000000000000000 ) ) ;
#496 = ORIENTED_EDGE ( 'NONE', *, *, #358, .T. ) ;
#497 = CIRCLE ( 'NONE', #90, 10.00000000000000000 ) ;
#498 = VECTOR ( 'NONE', #462, 1000.000000000000000 ) ;
#499 = CARTESIAN_POINT ( 'NONE',  ( 5.800000000000001599, -10.00000000000000178, -2.000000000000000000 ) ) ;
#500 = LINE ( 'NONE', #843, #210 ) ;
#501 = SURFACE_SIDE_STYLE ('',( #1 ) ) ;
#502 = CARTESIAN_POINT ( 'NONE',  ( 15.80000000000000071, 1.322618543079141296E-15, -12.00000000000000000 ) ) ;
#503 = ADVANCED_FACE ( 'NONE', ( #844 ), #204, .T. ) ;
#504 = CARTESIAN_POINT ( 'NONE',  ( 5.800000000000001599, -10.00000000000000178, 12.00000000000000000 ) ) ;
#505 = LINE ( 'NONE', #149, #356 ) ;
#506 = VERTEX_POINT ( 'NONE', #702 ) ;
#507 = CIRCLE ( 'NONE', #36, 10.00000000000000000 ) ;
#508 = SURFACE_STYLE_USAGE ( .BOTH. , #501 ) ;
#509 = VECTOR ( 'NONE', #369, 1000.000000000000000 ) ;
#510 = FACE_OUTER_BOUND ( 'NONE', #841, .T. ) ;
#511 = VERTEX_POINT ( 'NONE', #840 ) ;
#512 = CARTESIAN_POINT ( 'NONE',  ( -76.20000000000001705, 132.0000000000000000, 2.000000000000000000 ) ) ;
#513 = ADVANCED_FACE ( 'NONE', ( #560, #848 ), #207, .T. ) ;
#514 = CARTESIAN_POINT ( 'NONE',  ( -76.20000000000000284, -9.116270956512607603E-15, 12.00000000000000000 ) ) ;
#515 = ORIENTED_EDGE ( 'NONE', *, *, #224, .F. ) ;
#516 = ORIENTED_EDGE ( 'NONE', *, *, #17, .F. ) ;
#517 = LINE ( 'NONE', #127, #258 ) ;
#518 = EDGE_CURVE ( 'NONE', #223, #557, #705, .T. ) ;
#519 = CARTESIAN_POINT ( 'NONE',  ( 0.000000000000000000, 132.0000000000000000, 2.000000000000000000 ) ) ;
#520 = VERTEX_POINT ( 'NONE', #336 ) ;
#521 = ORIENTED_EDGE ( 'NONE', *, *, #429, .T. ) ;
#522 = PLANE ( 'NONE',  #169 ) ;
#523 = FACE_OUTER_BOUND ( 'NONE', #300, .T. ) ;
#524 = AXIS2_PLACEMENT_3D ( 'NONE', #654, #361, #648 ) ;
#525 = CARTESIAN_POINT ( 'NONE',  ( -0.08822805999999651372, -10.00000000000000178, 0.000000000000000000 ) ) ;
#526 = VECTOR ( 'NONE', #66, 1000.000000000000000 ) ;
#527 = AXIS2_PLACEMENT_3D ( 'NONE', #828, #886, #114 ) ;
#528 = ORIENTED_EDGE ( 'NONE', *, *, #265, .T. ) ;
#529 = ORIENTED_EDGE ( 'NONE', *, *, #721, .T. ) ;
#530 = CARTESIAN_POINT ( 'NONE',  ( -86.20000000000001705, 128.0000000000000000, 1.599999999999995870 ) ) ;
#531 = FACE_BOUND ( 'NONE', #416, .T. ) ;
#532 = DIRECTION ( 'NONE',  ( 0.000000000000000000, 0.000000000000000000, -1.000000000000000000 ) ) ;
#533 = EDGE_LOOP ( 'NONE', ( #316, #9, #888, #384 ) ) ;
#534 = ADVANCED_FACE ( 'NONE', ( #693, #347 ), #911, .T. ) ;
#535 = VERTEX_POINT ( 'NONE', #563 ) ;
#536 = CARTESIAN_POINT ( 'NONE',  ( -86.20000000000001705, 128.0000000000000000, -1.599999999999995870 ) ) ;
#537 = DIRECTION ( 'NONE',  ( 0.000000000000000000, -0.000000000000000000, -1.000000000000000000 ) ) ;
#538 = DIRECTION ( 'NONE',  ( 1.000000000000000000, -0.000000000000000000, -0.000000000000000000 ) ) ;
#539 = EDGE_LOOP ( 'NONE', ( #184, #521, #833, #849, #15, #912, #409, #180 ) ) ;
#540 = CARTESIAN_POINT ( 'NONE',  ( -0.08822805999999651372, 0.000000000000000000, 0.000000000000000000 ) ) ;
#541 = CARTESIAN_POINT ( 'NONE',  ( -0.08822805999999651372, -6.999999999999998224, 0.000000000000000000 ) ) ;
#542 = FACE_BOUND ( 'NONE', #289, .T. ) ;
#543 = DIRECTION ( 'NONE',  ( -0.000000000000000000, -1.000000000000000000, -0.000000000000000000 ) ) ;
#544 = AXIS2_PLACEMENT_3D ( 'NONE', #437, #451, #442 ) ;
#545 = ORIENTED_EDGE ( 'NONE', *, *, #260, .F. ) ;
#546 = AXIS2_PLACEMENT_3D ( 'NONE', #676, #606, #253 ) ;
#547 = CARTESIAN_POINT ( 'NONE',  ( 15.80000000000000071, -10.00000000000000000, 12.00000000000000000 ) ) ;
#548 = DIRECTION ( 'NONE',  ( 0.000000000000000000, -0.000000000000000000, -1.000000000000000000 ) ) ;
#549 = EDGE_CURVE ( 'NONE', #61, #596, #209, .T. ) ;
#550 = CARTESIAN_POINT ( 'NONE',  ( -0.08822805999999651372, -7.000000000000007994, 1.600000000000000533 ) ) ;
#551 = EDGE_LOOP ( 'NONE', ( #681, #459, #881, #806 ) ) ;
#552 = DIRECTION ( 'NONE',  ( 0.000000000000000000, 1.000000000000000000, 0.000000000000000000 ) ) ;
#553 = DIRECTION ( 'NONE',  ( -0.000000000000000000, -0.000000000000000000, -1.000000000000000000 ) ) ;
#554 = ORIENTED_EDGE ( 'NONE', *, *, #53, .F. ) ;
#555 = CARTESIAN_POINT ( 'NONE',  ( -76.20000000000001705, 30.14213562373103983, -12.00000000000000000 ) ) ;
#556 = LINE ( 'NONE', #136, #558 ) ;
#557 = VERTEX_POINT ( 'NONE', #56 ) ;
#558 = VECTOR ( 'NONE', #774, 1000.000000000000000 ) ;
#559 = AXIS2_PLACEMENT_3D ( 'NONE', #822, #753, #683 ) ;
#560 = FACE_BOUND ( 'NONE', #908, .T. ) ;
#561 = EDGE_LOOP ( 'NONE', ( #399, #404, #603, #838 ) ) ;
#562 = EDGE_CURVE ( 'NONE', #443, #511, #624, .T. ) ;
#563 = CARTESIAN_POINT ( 'NONE',  ( -76.20000000000000284, 128.0000000000000000, 3.980000000000001759 ) ) ;
#564 = CARTESIAN_POINT ( 'NONE',  ( -0.08822805999999651372, 10.00000000000000000, -3.979999999999999982 ) ) ;
#565 = ADVANCED_FACE ( 'NONE', ( #432 ), #354, .F. ) ;
#566 = CARTESIAN_POINT ( 'NONE',  ( -86.20000000000001705, 132.0000000000000000, 12.00000000000000000 ) ) ;
#567 = VECTOR ( 'NONE', #21, 1000.000000000000000 ) ;
#568 = AXIS2_PLACEMENT_3D ( 'NONE', #475, #103, #109 ) ;
#569 = AXIS2_PLACEMENT_3D ( 'NONE', #181, #821, #170 ) ;
#570 = LINE ( 'NONE', #225, #509 ) ;
#571 = ADVANCED_FACE ( 'NONE', ( #12 ), #724, .F. ) ;
#572 = LINE ( 'NONE', #303, #717 ) ;
#573 = VERTEX_POINT ( 'NONE', #504 ) ;
#574 = CARTESIAN_POINT ( 'NONE',  ( 15.80000000000000071, 1.322618543079141296E-15, -2.000000000000000000 ) ) ;
#575 = VERTEX_POINT ( 'NONE', #158 ) ;
#576 = CARTESIAN_POINT ( 'NONE',  ( -76.20000000000001705, 142.0000000000000284, -2.000000000000000000 ) ) ;
#577 = DIRECTION ( 'NONE',  ( 1.000000000000000000, 0.000000000000000000, 0.000000000000000000 ) ) ;
#578 = AXIS2_PLACEMENT_3D ( 'NONE', #338, #267, #194 ) ;
#579 = VECTOR ( 'NONE', #403, 1000.000000000000000 ) ;
#580 = DIRECTION ( 'NONE',  ( -1.000000000000000000, -0.000000000000000000, -0.000000000000000000 ) ) ;
#581 = VECTOR ( 'NONE', #799, 1000.000000000000000 ) ;
#582 = FACE_OUTER_BOUND ( 'NONE', #757, .T. ) ;
#583 = ORIENTED_EDGE ( 'NONE', *, *, #805, .F. ) ;
#584 = VERTEX_POINT ( 'NONE', #715 ) ;
#585 = EDGE_CURVE ( 'NONE', #890, #535, #10, .T. ) ;
#586 = DIRECTION ( 'NONE',  ( 1.000000000000000000, 1.196361017915040472E-16, -0.000000000000000000 ) ) ;
#587 = MANIFOLD_SOLID_BREP ( 'Cut-Extrude4', #256 ) ;
#588 = DIRECTION ( 'NONE',  ( 0.000000000000000000, -1.000000000000000000, 0.000000000000000000 ) ) ;
#589 = ORIENTED_EDGE ( 'NONE', *, *, #41, .T. ) ;
#590 = ORIENTED_EDGE ( 'NONE', *, *, #91, .F. ) ;
#591 = DIRECTION ( 'NONE',  ( 0.000000000000000000, 0.000000000000000000, 1.000000000000000000 ) ) ;
#592 = DIRECTION ( 'NONE',  ( 0.000000000000000000, -1.000000000000000000, 0.000000000000000000 ) ) ;
#593 = EDGE_CURVE ( 'NONE', #680, #625, #712, .T. ) ;
#594 = CARTESIAN_POINT ( 'NONE',  ( -0.08822805999999651372, 10.00000000000000000, 0.000000000000000000 ) ) ;
#595 = ORIENTED_EDGE ( 'NONE', *, *, #224, .T. ) ;
#596 = VERTEX_POINT ( 'NONE', #720 ) ;
#597 = CARTESIAN_POINT ( 'NONE',  ( 0.000000000000000000, 142.0000000000000284, 12.00000000000000000 ) ) ;
#598 = CYLINDRICAL_SURFACE ( 'NONE', #414, 3.980000000000001759 ) ;
#599 = AXIS2_PLACEMENT_3D ( 'NONE', #627, #139, #334 ) ;
#600 = FACE_OUTER_BOUND ( 'NONE', #471, .T. ) ;
#601 = EDGE_CURVE ( 'NONE', #802, #685, #642, .T. ) ;
#602 = CIRCLE ( 'NONE', #95, 2.000000000000002220 ) ;
#603 = ORIENTED_EDGE ( 'NONE', *, *, #864, .T. ) ;
#604 = ORIENTED_EDGE ( 'NONE', *, *, #482, .F. ) ;
#605 = CARTESIAN_POINT ( 'NONE',  ( -0.08822805999999651372, 10.00000000000000000, 0.000000000000000000 ) ) ;
#606 = DIRECTION ( 'NONE',  ( 0.7071067811865484609, 0.7071067811865466846, -0.000000000000000000 ) ) ;
#607 = DIRECTION ( 'NONE',  ( 1.000000000000000000, 0.000000000000000000, 0.000000000000000000 ) ) ;
#608 = ORIENTED_EDGE ( 'NONE', *, *, #251, .F. ) ;
#609 = ORIENTED_EDGE ( 'NONE', *, *, #740, .F. ) ;
#610 = CARTESIAN_POINT ( 'NONE',  ( -0.08822805999999651372, 10.00000000000000000, 0.000000000000000000 ) ) ;
#611 = CARTESIAN_POINT ( 'NONE',  ( -76.20000000000000284, -9.116270956512607603E-15, -12.00000000000000000 ) ) ;
#612 = CARTESIAN_POINT ( 'NONE',  ( 0.000000000000000000, 0.000000000000000000, 12.00000000000000000 ) ) ;
#613 = VERTEX_POINT ( 'NONE', #362 ) ;
#614 = DIRECTION ( 'NONE',  ( 0.000000000000000000, 0.000000000000000000, 1.000000000000000000 ) ) ;
#615 = EDGE_CURVE ( 'NONE', #506, #708, #650, .T. ) ;
#616 =( NAMED_UNIT ( * ) PLANE_ANGLE_UNIT ( ) SI_UNIT ( $, .RADIAN. ) );
#617 = DIRECTION ( 'NONE',  ( 0.000000000000000000, 0.000000000000000000, 1.000000000000000000 ) ) ;
#618 = CARTESIAN_POINT ( 'NONE',  ( -0.08822805999999651372, -6.999999999999998224, 0.000000000000000000 ) ) ;
#619 = CIRCLE ( 'NONE', #345, 3.979999999999999982 ) ;
#620 = CIRCLE ( 'NONE', #707, 3.980000000000001759 ) ;
#621 = EDGE_LOOP ( 'NONE', ( #871, #58, #865, #311 ) ) ;
#622 = AXIS2_PLACEMENT_3D ( 'NONE', #597, #891, #548 ) ;
#623 = DIRECTION ( 'NONE',  ( 1.000000000000000000, -0.000000000000000000, -0.000000000000000000 ) ) ;
#624 = LINE ( 'NONE', #264, #55 ) ;
#625 = VERTEX_POINT ( 'NONE', #576 ) ;
#626 = ADVANCED_BREP_SHAPE_REPRESENTATION ( 'Link_90degV2', ( #587, #719 ), #80 ) ;
#627 = CARTESIAN_POINT ( 'NONE',  ( -76.20000000000000284, 128.0000000000000000, 0.000000000000000000 ) ) ;
#628 = DIRECTION ( 'NONE',  ( -1.000000000000000000, -1.734723475976807094E-16, 0.000000000000000000 ) ) ;
#629 = ORIENTED_EDGE ( 'NONE', *, *, #31, .F. ) ;
#630 = APPLICATION_PROTOCOL_DEFINITION ( 'draft international standard', 'automotive_design', 1998, #248 ) ;
#631 = DIRECTION ( 'NONE',  ( -0.000000000000000000, 1.000000000000000000, -0.000000000000000000 ) ) ;
#632 = EDGE_LOOP ( 'NONE', ( #321, #604, #116, #751 ) ) ;
#633 = EDGE_CURVE ( 'NONE', #124, #147, #866, .T. ) ;
#634 = CIRCLE ( 'NONE', #151, 10.00000000000000000 ) ;
#635 = DIRECTION ( 'NONE',  ( 1.314184451497581013E-16, -1.000000000000000000, -0.000000000000000000 ) ) ;
#636 = VERTEX_POINT ( 'NONE', #729 ) ;
#637 = ORIENTED_EDGE ( 'NONE', *, *, #74, .F. ) ;
#638 = EDGE_CURVE ( 'NONE', #348, #323, #287, .T. ) ;
#639 = DIRECTION ( 'NONE',  ( 1.000000000000000000, 1.196361017915040472E-16, -0.000000000000000000 ) ) ;
#640 = DIRECTION ( 'NONE',  ( 1.000000000000000000, 0.000000000000000000, 0.000000000000000000 ) ) ;
#641 = EDGE_CURVE ( 'NONE', #802, #449, #570, .T. ) ;
#642 = LINE ( 'NONE', #81, #68 ) ;
#643 = CYLINDRICAL_SURFACE ( 'NONE', #187, 1.599999999999995870 ) ;
#644 = EDGE_LOOP ( 'NONE', ( #583, #750 ) ) ;
#645 = CIRCLE ( 'NONE', #768, 3.979999999999999982 ) ;
#646 = CIRCLE ( 'NONE', #239, 2.000000000000002220 ) ;
#647 = FILL_AREA_STYLE ('',( #873 ) ) ;
#648 = DIRECTION ( 'NONE',  ( 0.000000000000000000, 1.000000000000000000, 0.000000000000000000 ) ) ;
#649 = ORIENTED_EDGE ( 'NONE', *, *, #281, .F. ) ;
#650 = LINE ( 'NONE', #862, #335 ) ;
#651 = DIRECTION ( 'NONE',  ( 1.196361017915040472E-16, -1.000000000000000000, 0.000000000000000000 ) ) ;
#652 = ADVANCED_FACE ( 'NONE', ( #441 ), #302, .T. ) ;
#653 = DIRECTION ( 'NONE',  ( 0.000000000000000000, 1.000000000000000000, 0.000000000000000000 ) ) ;
#654 = CARTESIAN_POINT ( 'NONE',  ( -86.20000000000001705, 132.0000000000000000, 2.000000000000000000 ) ) ;
#655 = EDGE_CURVE ( 'NONE', #680, #179, #153, .T. ) ;
#656 = EDGE_LOOP ( 'NONE', ( #554, #161, #798, #662 ) ) ;
#657 = ORIENTED_EDGE ( 'NONE', *, *, #435, .F. ) ;
#658 = CARTESIAN_POINT ( 'NONE',  ( -76.20000000000001705, 142.0000000000000284, 12.00000000000000000 ) ) ;
#659 = AXIS2_PLACEMENT_3D ( 'NONE', #892, #688, #537 ) ;
#660 = DIRECTION ( 'NONE',  ( -1.000000000000000000, -0.000000000000000000, -0.000000000000000000 ) ) ;
#661 = ORIENTED_EDGE ( 'NONE', *, *, #633, .F. ) ;
#662 = ORIENTED_EDGE ( 'NONE', *, *, #874, .F. ) ;
#663 = ADVANCED_FACE ( 'NONE', ( #523 ), #598, .T. ) ;
#664 = CARTESIAN_POINT ( 'NONE',  ( 0.000000000000000000, 142.0000000000000284, -2.000000000000000000 ) ) ;
#665 = DIRECTION ( 'NONE',  ( 0.000000000000000000, 0.000000000000000000, -1.000000000000000000 ) ) ;
#666 = ORIENTED_EDGE ( 'NONE', *, *, #174, .T. ) ;
#667 = EDGE_LOOP ( 'NONE', ( #770, #797, #228, #723, #515, #51, #376, #270 ) ) ;
#668 = DIRECTION ( 'NONE',  ( 1.000000000000000000, -0.000000000000000000, -0.000000000000000000 ) ) ;
#669 = CARTESIAN_POINT ( 'NONE',  ( -0.08822805999999602800, 10.00000000000000000, 3.979999999999999982 ) ) ;
#670 = EDGE_CURVE ( 'NONE', #223, #890, #373, .T. ) ;
#671 = CARTESIAN_POINT ( 'NONE',  ( -83.20000000000000284, 128.0000000000000000, 0.000000000000000000 ) ) ;
#672 = EDGE_LOOP ( 'NONE', ( #894, #861, #200, #71 ) ) ;
#673 = ORIENTED_EDGE ( 'NONE', *, *, #820, .F. ) ;
#674 = CARTESIAN_POINT ( 'NONE',  ( -76.20000000000001705, 30.14213562373103983, 12.00000000000000000 ) ) ;
#675 = CIRCLE ( 'NONE', #203, 1.599999999999995870 ) ;
#676 = CARTESIAN_POINT ( 'NONE',  ( -23.02893218813458276, -23.02893218813452236, 12.00000000000000000 ) ) ;
#677 = CARTESIAN_POINT ( 'NONE',  ( -0.08822805999999633331, -7.000000000000007994, -1.600000000000000533 ) ) ;
#678 = AXIS2_PLACEMENT_3D ( 'NONE', #594, #893, #817 ) ;
#679 = VECTOR ( 'NONE', #30, 1000.000000000000000 ) ;
#680 = VERTEX_POINT ( 'NONE', #387 ) ;
#681 = ORIENTED_EDGE ( 'NONE', *, *, #593, .T. ) ;
#682 = LINE ( 'NONE', #176, #276 ) ;
#683 = DIRECTION ( 'NONE',  ( 0.000000000000000000, 0.000000000000000000, -1.000000000000000000 ) ) ;
#684 = CARTESIAN_POINT ( 'NONE',  ( -0.08822805999999633331, 10.00000000000000000, -1.600000000000000533 ) ) ;
#685 = VERTEX_POINT ( 'NONE', #457 ) ;
#686 = EDGE_CURVE ( 'NONE', #789, #144, #6, .T. ) ;
#687 = DIRECTION ( 'NONE',  ( -1.000000000000000000, 0.000000000000000000, 0.000000000000000000 ) ) ;
#688 = DIRECTION ( 'NONE',  ( 0.000000000000000000, -1.000000000000000000, 0.000000000000000000 ) ) ;
#689 = CARTESIAN_POINT ( 'NONE',  ( -86.20000000000001705, 132.0000000000000000, -2.000000000000000000 ) ) ;
#690 = ORIENTED_EDGE ( 'NONE', *, *, #159, .T. ) ;
#691 = EDGE_CURVE ( 'NONE', #625, #596, #325, .T. ) ;
#692 = CYLINDRICAL_SURFACE ( 'NONE', #578, 1.600000000000000533 ) ;
#693 = FACE_BOUND ( 'NONE', #394, .T. ) ;
#694 = AXIS2_PLACEMENT_3D ( 'NONE', #48, #854, #614 ) ;
#695 = EDGE_LOOP ( 'NONE', ( #496, #47 ) ) ;
#696 = AXIS2_PLACEMENT_3D ( 'NONE', #466, #240, #591 ) ;
#697 = DIRECTION ( 'NONE',  ( 1.000000000000000000, -0.000000000000000000, -0.000000000000000000 ) ) ;
#698 = EDGE_CURVE ( 'NONE', #520, #236, #232, .T. ) ;
#699 = DIRECTION ( 'NONE',  ( -0.7071067811865464625, 0.7071067811865486830, 0.000000000000000000 ) ) ;
#700 = ORIENTED_EDGE ( 'NONE', *, *, #860, .F. ) ;
#701 = EDGE_CURVE ( 'NONE', #130, #64, #319, .T. ) ;
#702 = CARTESIAN_POINT ( 'NONE',  ( -86.20000000000001705, 132.0000000000000000, 12.00000000000000000 ) ) ;
#703 = VERTEX_POINT ( 'NONE', #171 ) ;
#704 = UNCERTAINTY_MEASURE_WITH_UNIT (LENGTH_MEASURE( 1.000000000000000082E-05 ), #401, 'distance_accuracy_value', 'NONE');
#705 = LINE ( 'NONE', #72, #526 ) ;
#706 = ORIENTED_EDGE ( 'NONE', *, *, #17, .T. ) ;
#707 = AXIS2_PLACEMENT_3D ( 'NONE', #314, #242, #764 ) ;
#708 = VERTEX_POINT ( 'NONE', #474 ) ;
#709 = VECTOR ( 'NONE', #810, 1000.000000000000000 ) ;
#710 = DIRECTION ( 'NONE',  ( 0.000000000000000000, 0.000000000000000000, 1.000000000000000000 ) ) ;
#711 = DIRECTION ( 'NONE',  ( 0.000000000000000000, 0.000000000000000000, 1.000000000000000000 ) ) ;
#712 = LINE ( 'NONE', #658, #581 ) ;
#713 = DIRECTION ( 'NONE',  ( 0.000000000000000000, 0.000000000000000000, 1.000000000000000000 ) ) ;
#714 = ORIENTED_EDGE ( 'NONE', *, *, #429, .F. ) ;
#715 = CARTESIAN_POINT ( 'NONE',  ( -66.20000000000000284, 128.0000000000000000, 1.599999999999995870 ) ) ;
#716 = DIRECTION ( 'NONE',  ( -0.000000000000000000, 1.000000000000000000, -0.000000000000000000 ) ) ;
#717 = VECTOR ( 'NONE', #730, 1000.000000000000000 ) ;
#718 = AXIS2_PLACEMENT_3D ( 'NONE', #115, #543, #463 ) ;
#719 = AXIS2_PLACEMENT_3D ( 'NONE', #922, #278, #268 ) ;
#720 = CARTESIAN_POINT ( 'NONE',  ( -86.20000000000001705, 142.0000000000000284, -2.000000000000000000 ) ) ;
#721 = EDGE_CURVE ( 'NONE', #761, #464, #182, .T. ) ;
#722 = DIRECTION ( 'NONE',  ( -1.000000000000000000, 0.000000000000000000, 0.000000000000000000 ) ) ;
#723 = ORIENTED_EDGE ( 'NONE', *, *, #159, .F. ) ;
#724 = CYLINDRICAL_SURFACE ( 'NONE', #439, 2.000000000000002220 ) ;
#725 = EDGE_CURVE ( 'NONE', #703, #315, #107, .T. ) ;
#726 = FACE_OUTER_BOUND ( 'NONE', #168, .T. ) ;
#727 = EDGE_LOOP ( 'NONE', ( #847, #299, #132, #733, #595, #121 ) ) ;
#728 = ORIENTED_EDGE ( 'NONE', *, *, #837, .F. ) ;
#729 = CARTESIAN_POINT ( 'NONE',  ( -0.08822805999999651372, 0.000000000000000000, -3.979999999999999982 ) ) ;
#730 = DIRECTION ( 'NONE',  ( 0.000000000000000000, 0.000000000000000000, 1.000000000000000000 ) ) ;
#731 = ORIENTED_EDGE ( 'NONE', *, *, #206, .F. ) ;
#732 = ADVANCED_FACE ( 'NONE', ( #313 ), #102, .T. ) ;
#733 = ORIENTED_EDGE ( 'NONE', *, *, #655, .T. ) ;
#734 = VECTOR ( 'NONE', #834, 1000.000000000000000 ) ;
#735 = AXIS2_PLACEMENT_3D ( 'NONE', #275, #211, #915 ) ;
#736 = FACE_OUTER_BOUND ( 'NONE', #266, .T. ) ;
#737 = VECTOR ( 'NONE', #245, 1000.000000000000000 ) ;
#738 = DIRECTION ( 'NONE',  ( 0.7071067811865465735, -0.7071067811865483499, 0.000000000000000000 ) ) ;
#739 = ORIENTED_EDGE ( 'NONE', *, *, #406, .T. ) ;
#740 = EDGE_CURVE ( 'NONE', #422, #262, #832, .T. ) ;
#741 = ORIENTED_EDGE ( 'NONE', *, *, #388, .F. ) ;
#742 = DIRECTION ( 'NONE',  ( 0.000000000000000000, 1.000000000000000000, 0.000000000000000000 ) ) ;
#743 = DIRECTION ( 'NONE',  ( -1.000000000000000000, -0.000000000000000000, -0.000000000000000000 ) ) ;
#744 = DIRECTION ( 'NONE',  ( -0.7071067811865464625, 0.7071067811865486830, 0.000000000000000000 ) ) ;
#745 = EDGE_LOOP ( 'NONE', ( #590, #714, #87, #197 ) ) ;
#746 = ORIENTED_EDGE ( 'NONE', *, *, #85, .F. ) ;
#747 = DIRECTION ( 'NONE',  ( 1.000000000000000000, 0.000000000000000000, 0.000000000000000000 ) ) ;
#748 = CARTESIAN_POINT ( 'NONE',  ( -86.20000000000000284, -1.031263197442764921E-14, -12.00000000000000000 ) ) ;
#749 = PLANE ( 'NONE',  #16 ) ;
#750 = ORIENTED_EDGE ( 'NONE', *, *, #794, .F. ) ;
#751 = ORIENTED_EDGE ( 'NONE', *, *, #308, .T. ) ;
#752 = DIRECTION ( 'NONE',  ( 0.000000000000000000, 1.000000000000000000, 0.000000000000000000 ) ) ;
#753 = DIRECTION ( 'NONE',  ( 0.000000000000000000, -1.000000000000000000, 0.000000000000000000 ) ) ;
#754 = VECTOR ( 'NONE', #50, 1000.000000000000000 ) ;
#755 = ADVANCED_FACE ( 'NONE', ( #542, #177 ), #241, .T. ) ;
#756 = DIRECTION ( 'NONE',  ( 0.000000000000000000, 0.000000000000000000, 1.000000000000000000 ) ) ;
#757 = EDGE_LOOP ( 'NONE', ( #746, #337, #156, #666, #434, #230 ) ) ;
#758 = CARTESIAN_POINT ( 'NONE',  ( -66.20000000000000284, 128.0000000000000000, -1.599999999999995870 ) ) ;
#759 = DIRECTION ( 'NONE',  ( 1.000000000000000000, 0.000000000000000000, 0.000000000000000000 ) ) ;
#760 = DIRECTION ( 'NONE',  ( -1.000000000000000000, -1.425043548098738260E-16, 0.000000000000000000 ) ) ;
#761 = VERTEX_POINT ( 'NONE', #49 ) ;
#762 = FACE_OUTER_BOUND ( 'NONE', #561, .T. ) ;
#763 = FACE_BOUND ( 'NONE', #392, .T. ) ;
#764 = DIRECTION ( 'NONE',  ( 0.000000000000000000, 0.000000000000000000, -1.000000000000000000 ) ) ;
#765 = VERTEX_POINT ( 'NONE', #382 ) ;
#766 = CARTESIAN_POINT ( 'NONE',  ( 15.80000000000000071, -10.00000000000000000, -12.00000000000000000 ) ) ;
#767 = LINE ( 'NONE', #415, #855 ) ;
#768 = AXIS2_PLACEMENT_3D ( 'NONE', #400, #478, #257 ) ;
#769 = COLOUR_RGB ( '',0.7921568627450980005, 0.8196078431372548767, 0.9333333333333333481 ) ;
#770 = ORIENTED_EDGE ( 'NONE', *, *, #76, .F. ) ;
#771 = VECTOR ( 'NONE', #330, 1000.000000000000000 ) ;
#772 = PRODUCT_DEFINITION_SHAPE ( 'NONE', 'NONE',  #910 ) ;
#773 = ADVANCED_FACE ( 'NONE', ( #736, #531 ), #307, .T. ) ;
#774 = DIRECTION ( 'NONE',  ( -0.000000000000000000, 1.000000000000000000, -0.000000000000000000 ) ) ;
#775 = ORIENTED_EDGE ( 'NONE', *, *, #549, .T. ) ;
#776 = FACE_OUTER_BOUND ( 'NONE', #672, .T. ) ;
#777 = ORIENTED_EDGE ( 'NONE', *, *, #191, .T. ) ;
#778 = PRODUCT_DEFINITION_CONTEXT ( 'detailed design', #248, 'design' ) ;
#779 = CARTESIAN_POINT ( 'NONE',  ( -86.20000000000001705, 142.0000000000000284, 12.00000000000000000 ) ) ;
#780 = EDGE_CURVE ( 'NONE', #144, #789, #857, .T. ) ;
#781 = CARTESIAN_POINT ( 'NONE',  ( 0.000000000000000000, 132.0000000000000000, -2.000000000000000000 ) ) ;
#782 = CIRCLE ( 'NONE', #286, 4.000000000000000000 ) ;
#783 = ORIENTED_EDGE ( 'NONE', *, *, #349, .T. ) ;
#784 = APPLICATION_PROTOCOL_DEFINITION ( 'draft international standard', 'automotive_design', 1998, #430 ) ;
#785 = DIRECTION ( 'NONE',  ( 0.000000000000000000, 1.000000000000000000, 0.000000000000000000 ) ) ;
#786 = DIRECTION ( 'NONE',  ( 1.000000000000000000, 1.196361017915040472E-16, -0.000000000000000000 ) ) ;
#787 = DIRECTION ( 'NONE',  ( -1.000000000000000000, -1.425043548098738260E-16, 0.000000000000000000 ) ) ;
#788 = CARTESIAN_POINT ( 'NONE',  ( -86.20000000000000284, 26.00000000000009948, -12.00000000000000000 ) ) ;
#789 = VERTEX_POINT ( 'NONE', #903 ) ;
#790 = CARTESIAN_POINT ( 'NONE',  ( -66.20000000000000284, 128.0000000000000000, 3.980000000000001759 ) ) ;
#791 = CARTESIAN_POINT ( 'NONE',  ( 15.80000000000000071, -10.00000000000000000, -12.00000000000000000 ) ) ;
#792 = AXIS2_PLACEMENT_3D ( 'NONE', #192, #899, #665 ) ;
#793 = CIRCLE ( 'NONE', #544, 1.599999999999995870 ) ;
#794 = EDGE_CURVE ( 'NONE', #613, #464, #602, .T. ) ;
#795 = DIRECTION ( 'NONE',  ( 0.000000000000000000, 0.000000000000000000, 1.000000000000000000 ) ) ;
#796 = DIRECTION ( 'NONE',  ( 0.000000000000000000, 0.000000000000000000, -1.000000000000000000 ) ) ;
#797 = ORIENTED_EDGE ( 'NONE', *, *, #493, .T. ) ;
#798 = ORIENTED_EDGE ( 'NONE', *, *, #133, .T. ) ;
#799 = DIRECTION ( 'NONE',  ( -0.000000000000000000, -0.000000000000000000, -1.000000000000000000 ) ) ;
#800 = DIRECTION ( 'NONE',  ( -0.000000000000000000, -0.000000000000000000, -1.000000000000000000 ) ) ;
#801 = EDGE_LOOP ( 'NONE', ( #609, #657 ) ) ;
#802 = VERTEX_POINT ( 'NONE', #119 ) ;
#803 = CARTESIAN_POINT ( 'NONE',  ( -86.20000000000000284, 128.0000000000000000, 0.000000000000000000 ) ) ;
#804 = DIRECTION ( 'NONE',  ( 0.000000000000000000, 0.000000000000000000, 1.000000000000000000 ) ) ;
#805 = EDGE_CURVE ( 'NONE', #464, #613, #646, .T. ) ;
#806 = ORIENTED_EDGE ( 'NONE', *, *, #100, .T. ) ;
#807 = ORIENTED_EDGE ( 'NONE', *, *, #721, .F. ) ;
#808 = AXIS2_PLACEMENT_3D ( 'NONE', #689, #332, #183 ) ;
#809 = FACE_OUTER_BOUND ( 'NONE', #551, .T. ) ;
#810 = DIRECTION ( 'NONE',  ( 1.196361017915040472E-16, -1.000000000000000000, 0.000000000000000000 ) ) ;
#811 = AXIS2_PLACEMENT_3D ( 'NONE', #83, #141, #154 ) ;
#812 = DIRECTION ( 'NONE',  ( 0.000000000000000000, -1.000000000000000000, 0.000000000000000000 ) ) ;
#813 = ORIENTED_EDGE ( 'NONE', *, *, #206, .T. ) ;
#814 = ORIENTED_EDGE ( 'NONE', *, *, #518, .T. ) ;
#815 = DIRECTION ( 'NONE',  ( 0.000000000000000000, 1.000000000000000000, 0.000000000000000000 ) ) ;
#816 = DIRECTION ( 'NONE',  ( 0.000000000000000000, 0.000000000000000000, -1.000000000000000000 ) ) ;
#817 = DIRECTION ( 'NONE',  ( 0.000000000000000000, 0.000000000000000000, 1.000000000000000000 ) ) ;
#818 = ORIENTED_EDGE ( 'NONE', *, *, #322, .T. ) ;
#819 = EDGE_LOOP ( 'NONE', ( #777, #673, #637, #690 ) ) ;
#820 = EDGE_CURVE ( 'NONE', #64, #685, #517, .T. ) ;
#821 = DIRECTION ( 'NONE',  ( -1.000000000000000000, -0.000000000000000000, -0.000000000000000000 ) ) ;
#822 = CARTESIAN_POINT ( 'NONE',  ( -0.08822805999999651372, -6.999999999999998224, 0.000000000000000000 ) ) ;
#823 = DIRECTION ( 'NONE',  ( -1.425043548098738260E-16, 1.000000000000000000, 0.000000000000000000 ) ) ;
#824 = ORIENTED_EDGE ( 'NONE', *, *, #133, .F. ) ;
#825 = CARTESIAN_POINT ( 'NONE',  ( -76.20000000000001705, 132.0000000000000000, -12.00000000000000000 ) ) ;
#826 = DIRECTION ( 'NONE',  ( -0.000000000000000000, -1.000000000000000000, -0.000000000000000000 ) ) ;
#827 = VECTOR ( 'NONE', #355, 1000.000000000000000 ) ;
#828 = CARTESIAN_POINT ( 'NONE',  ( -0.08822805999999651372, -10.00000000000000178, 0.000000000000000000 ) ) ;
#829 = ADVANCED_FACE ( 'NONE', ( #809 ), #318, .F. ) ;
#830 = CIRCLE ( 'NONE', #5, 3.979999999999999982 ) ;
#831 = CARTESIAN_POINT ( 'NONE',  ( 0.000000000000000000, 132.0000000000000000, -12.00000000000000000 ) ) ;
#832 = CIRCLE ( 'NONE', #527, 4.000000000000000000 ) ;
#833 = ORIENTED_EDGE ( 'NONE', *, *, #701, .T. ) ;
#834 = DIRECTION ( 'NONE',  ( -0.000000000000000000, -1.000000000000000000, -0.000000000000000000 ) ) ;
#835 = FACE_OUTER_BOUND ( 'NONE', #27, .T. ) ;
#836 = DIRECTION ( 'NONE',  ( -1.000000000000000000, 0.000000000000000000, 0.000000000000000000 ) ) ;
#837 = EDGE_CURVE ( 'NONE', #460, #341, #907, .T. ) ;
#838 = ORIENTED_EDGE ( 'NONE', *, *, #837, .T. ) ;
#839 = DIRECTION ( 'NONE',  ( 0.000000000000000000, 0.000000000000000000, 1.000000000000000000 ) ) ;
#840 = CARTESIAN_POINT ( 'NONE',  ( -50.20000000000000284, -10.00000000000000888, -12.00000000000000000 ) ) ;
#841 = EDGE_LOOP ( 'NONE', ( #327, #380, #454, #481 ) ) ;
#842 = ADVANCED_FACE ( 'NONE', ( #386, #407 ), #885, .T. ) ;
#843 = CARTESIAN_POINT ( 'NONE',  ( -76.20000000000001705, 30.14213562373103983, 12.00000000000000000 ) ) ;
#844 = FACE_OUTER_BOUND ( 'NONE', #621, .T. ) ;
#845 = VECTOR ( 'NONE', #122, 1000.000000000000000 ) ;
#846 = AXIS2_PLACEMENT_3D ( 'NONE', #389, #538, #756 ) ;
#847 = ORIENTED_EDGE ( 'NONE', *, *, #701, .F. ) ;
#848 = FACE_OUTER_BOUND ( 'NONE', #695, .T. ) ;
#849 = ORIENTED_EDGE ( 'NONE', *, *, #820, .T. ) ;
#850 = CARTESIAN_POINT ( 'NONE',  ( -0.08822805999999651372, 10.00000000000000000, 0.000000000000000000 ) ) ;
#851 = PRODUCT_CONTEXT ( 'NONE', #430, 'mechanical' ) ;
#852 = EDGE_CURVE ( 'NONE', #243, #584, #381, .T. ) ;
#853 = DIRECTION ( 'NONE',  ( -1.425043548098738260E-16, 1.000000000000000000, 0.000000000000000000 ) ) ;
#854 = DIRECTION ( 'NONE',  ( -1.000000000000000000, -0.000000000000000000, -0.000000000000000000 ) ) ;
#855 = VECTOR ( 'NONE', #699, 999.9999999999998863 ) ;
#856 = VERTEX_POINT ( 'NONE', #674 ) ;
#857 = CIRCLE ( 'NONE', #559, 4.000000000000000000 ) ;
#858 = DIRECTION ( 'NONE',  ( 0.000000000000000000, 0.000000000000000000, -1.000000000000000000 ) ) ;
#859 = CARTESIAN_POINT ( 'NONE',  ( 5.800000000000001599, -10.00000000000000178, 2.000000000000000000 ) ) ;
#860 = EDGE_CURVE ( 'NONE', #144, #422, #324, .T. ) ;
#861 = ORIENTED_EDGE ( 'NONE', *, *, #196, .T. ) ;
#862 = CARTESIAN_POINT ( 'NONE',  ( -86.20000000000000284, -1.031263197442764921E-14, 12.00000000000000000 ) ) ;
#863 = CARTESIAN_POINT ( 'NONE',  ( -46.05786437626903052, -1.040834085586084257E-14, 12.00000000000000000 ) ) ;
#864 = EDGE_CURVE ( 'NONE', #348, #460, #682, .T. ) ;
#865 = ORIENTED_EDGE ( 'NONE', *, *, #31, .T. ) ;
#866 = LINE ( 'NONE', #285, #868 ) ;
#867 = DIRECTION ( 'NONE',  ( -0.000000000000000000, -0.000000000000000000, -1.000000000000000000 ) ) ;
#868 = VECTOR ( 'NONE', #795, 1000.000000000000000 ) ;
#869 = DIRECTION ( 'NONE',  ( 0.000000000000000000, 0.000000000000000000, 1.000000000000000000 ) ) ;
#870 = DIRECTION ( 'NONE',  ( -1.000000000000000000, -1.314184451497581013E-16, 0.000000000000000000 ) ) ;
#871 = ORIENTED_EDGE ( 'NONE', *, *, #41, .F. ) ;
#872 = VERTEX_POINT ( 'NONE', #106 ) ;
#873 = FILL_AREA_STYLE_COLOUR ( '', #769 ) ;
#874 = EDGE_CURVE ( 'NONE', #22, #157, #37, .T. ) ;
#875 = CYLINDRICAL_SURFACE ( 'NONE', #212, 10.00000000000000000 ) ;
#876 = ORIENTED_EDGE ( 'NONE', *, *, #191, .F. ) ;
#877 = ORIENTED_EDGE ( 'NONE', *, *, #860, .T. ) ;
#878 = CARTESIAN_POINT ( 'NONE',  ( -0.08822805999999651372, -7.000000000000007994, 0.000000000000000000 ) ) ;
#879 = DIRECTION ( 'NONE',  ( 0.000000000000000000, 0.000000000000000000, 1.000000000000000000 ) ) ;
#880 = CYLINDRICAL_SURFACE ( 'NONE', #718, 3.979999999999999982 ) ;
#881 = ORIENTED_EDGE ( 'NONE', *, *, #549, .F. ) ;
#882 = ORIENTED_EDGE ( 'NONE', *, *, #213, .T. ) ;
#883 = VECTOR ( 'NONE', #651, 1000.000000000000000 ) ;
#884 = STYLED_ITEM ( 'NONE', ( #145 ), #587 ) ;
#885 = PLANE ( 'NONE',  #696 ) ;
#886 = DIRECTION ( 'NONE',  ( 0.000000000000000000, -1.000000000000000000, 0.000000000000000000 ) ) ;
#887 = CARTESIAN_POINT ( 'NONE',  ( -0.08822805999999651372, 0.000000000000000000, 0.000000000000000000 ) ) ;
#888 = ORIENTED_EDGE ( 'NONE', *, *, #585, .T. ) ;
#889 = ADVANCED_FACE ( 'NONE', ( #252 ), #312, .F. ) ;
#890 = VERTEX_POINT ( 'NONE', #24 ) ;
#891 = DIRECTION ( 'NONE',  ( 0.000000000000000000, -1.000000000000000000, 0.000000000000000000 ) ) ;
#892 = CARTESIAN_POINT ( 'NONE',  ( -0.08822805999999651372, -6.999999999999998224, 0.000000000000000000 ) ) ;
#893 = DIRECTION ( 'NONE',  ( 0.000000000000000000, 1.000000000000000000, 0.000000000000000000 ) ) ;
#894 = ORIENTED_EDGE ( 'NONE', *, *, #925, .F. ) ;
#895 = ADVANCED_FACE ( 'NONE', ( #902 ), #461, .F. ) ;
#896 = CARTESIAN_POINT ( 'NONE',  ( -83.20000000000000284, 128.0000000000000000, 0.000000000000000000 ) ) ;
#897 = CARTESIAN_POINT ( 'NONE',  ( -0.08822805999999651372, -6.999999999999998224, -4.000000000000000000 ) ) ;
#898 = DIRECTION ( 'NONE',  ( -0.000000000000000000, -1.000000000000000000, -0.000000000000000000 ) ) ;
#899 = DIRECTION ( 'NONE',  ( 0.000000000000000000, -1.000000000000000000, 0.000000000000000000 ) ) ;
#900 = EDGE_LOOP ( 'NONE', ( #280, #205, #244, #731 ) ) ;
#901 = FACE_OUTER_BOUND ( 'NONE', #533, .T. ) ;
#902 = FACE_OUTER_BOUND ( 'NONE', #539, .T. ) ;
#903 = CARTESIAN_POINT ( 'NONE',  ( -0.08822805999999602800, -6.999999999999998224, 4.000000000000000000 ) ) ;
#904 = ADVANCED_FACE ( 'NONE', ( #763, #835 ), #522, .T. ) ;
#905 = AXIS2_PLACEMENT_3D ( 'NONE', #293, #577, #229 ) ;
#906 = CARTESIAN_POINT ( 'NONE',  ( -0.08822805999999602800, 0.000000000000000000, 3.979999999999999982 ) ) ;
#907 = CIRCLE ( 'NONE', #214, 1.600000000000000533 ) ;
#908 = EDGE_LOOP ( 'NONE', ( #649, #824 ) ) ;
#909 = DIRECTION ( 'NONE',  ( -0.000000000000000000, -0.000000000000000000, -1.000000000000000000 ) ) ;
#910 = PRODUCT_DEFINITION ( 'UNKNOWN', '', #317, #778 ) ;
#911 = PLANE ( 'NONE',  #452 ) ;
#912 = ORIENTED_EDGE ( 'NONE', *, *, #641, .T. ) ;
#913 = DIRECTION ( 'NONE',  ( 0.000000000000000000, 1.000000000000000000, 0.000000000000000000 ) ) ;
#914 = PRODUCT ( 'Link_90degV2', 'Link_90degV2', '', ( #851 ) ) ;
#915 = DIRECTION ( 'NONE',  ( -1.000000000000000000, -1.425043548098738260E-16, 0.000000000000000000 ) ) ;
#916 = ORIENTED_EDGE ( 'NONE', *, *, #435, .T. ) ;
#917 = DIRECTION ( 'NONE',  ( 0.000000000000000000, 0.000000000000000000, -1.000000000000000000 ) ) ;
#918 = AXIS2_PLACEMENT_3D ( 'NONE', #671, #836, #32 ) ;
#919 = VECTOR ( 'NONE', #898, 1000.000000000000000 ) ;
#920 = ORIENTED_EDGE ( 'NONE', *, *, #874, .T. ) ;
#921 = ADVANCED_FACE ( 'NONE', ( #456 ), #395, .F. ) ;
#922 = CARTESIAN_POINT ( 'NONE',  ( 0.000000000000000000, 0.000000000000000000, 0.000000000000000000 ) ) ;
#923 = CARTESIAN_POINT ( 'NONE',  ( 15.80000000000000071, 1.322618543079141296E-15, -12.00000000000000000 ) ) ;
#924 = ORIENTED_EDGE ( 'NONE', *, *, #265, .F. ) ;
#925 = EDGE_CURVE ( 'NONE', #323, #348, #112, .T. ) ;
#926 = DIRECTION ( 'NONE',  ( -0.000000000000000000, -0.000000000000000000, -1.000000000000000000 ) ) ;
#927 = DIRECTION ( 'NONE',  ( 0.000000000000000000, 0.000000000000000000, -1.000000000000000000 ) ) ;
ENDSEC;
END-ISO-10303-21;
