ISO-10303-21;
HEADER;
FILE_DESCRIPTION (( 'STEP AP214' ),
    '1' );
FILE_NAME ('lockingpin.STEP',
    '2025-12-08T05:55:06',
    ( '' ),
    ( '' ),
    'SwSTEP 2.0',
    'SolidWorks 2025',
    '' );
FILE_SCHEMA (( 'AUTOMOTIVE_DESIGN' ));
ENDSEC;

DATA;
#1 = VECTOR ( 'NONE', #115, 1.000000000000000000 ) ;
#2 = DIRECTION ( 'NONE',  ( 0.000000000000000000, 0.000000000000000000, 1.000000000000000000 ) ) ;
#3 = CLOSED_SHELL ( 'NONE', ( #52, #50, #64, #112 ) ) ;
#4 = ORIENTED_EDGE ( 'NONE', *, *, #76, .F. ) ;
#5 = DIRECTION ( 'NONE',  ( 0.000000000000000000, 1.000000000000000000, 0.000000000000000000 ) ) ;
#6 = PRODUCT_DEFINITION ( 'UNKNOWN', '', #10, #42 ) ;
#7 = CARTESIAN_POINT ( 'NONE',  ( 1.750000080079195275, -25.02500000000000568, 1.750000104557236202 ) ) ;
#8 = CYLINDRICAL_SURFACE ( 'NONE', #80, 0.001949999999999896261 ) ;
#9 = CIRCLE ( 'NONE', #39, 0.001949999999999896261 ) ;
#10 = PRODUCT_DEFINITION_FORMATION_WITH_SPECIFIED_SOURCE ( 'ANY', '', #46, .NOT_KNOWN. ) ;
#11 = FACE_OUTER_BOUND ( 'NONE', #67, .T. ) ;
#12 = COLOUR_RGB ( '',0.7921568627450980005, 0.8196078431372548767, 0.9333333333333333481 ) ;
#13 = ORIENTED_EDGE ( 'NONE', *, *, #38, .T. ) ;
#14 = DIRECTION ( 'NONE',  ( 0.000000000000000000, 0.000000000000000000, 1.000000000000000000 ) ) ;
#15 = FILL_AREA_STYLE ('',( #100 ) ) ;
#16 = SURFACE_STYLE_USAGE ( .BOTH. , #82 ) ;
#17 =( LENGTH_UNIT ( ) NAMED_UNIT ( * ) SI_UNIT ( $, .METRE. ) );
#18 =( LENGTH_UNIT ( ) NAMED_UNIT ( * ) SI_UNIT ( $, .METRE. ) );
#19 = VERTEX_POINT ( 'NONE', #44 ) ;
#20 = ORIENTED_EDGE ( 'NONE', *, *, #28, .F. ) ;
#21 = PRODUCT_CONTEXT ( 'NONE', #62, 'mechanical' ) ;
#22 = CARTESIAN_POINT ( 'NONE',  ( 1.750000080079195275, -24.97500000000000497, 1.750000104557236202 ) ) ;
#23 = AXIS2_PLACEMENT_3D ( 'NONE', #36, #107, #99 ) ;
#24 = UNCERTAINTY_MEASURE_WITH_UNIT (LENGTH_MEASURE( 1.000000000000000082E-05 ), #18, 'distance_accuracy_value', 'NONE');
#25 = PRODUCT_RELATED_PRODUCT_CATEGORY ( 'part', '', ( #46 ) ) ;
#26 = CARTESIAN_POINT ( 'NONE',  ( 1.750000080079195275, -25.02500000000000568, 1.748050104557236306 ) ) ;
#27 = PRODUCT_DEFINITION_SHAPE ( 'NONE', 'NONE',  #6 ) ;
#28 = EDGE_CURVE ( 'NONE', #123, #84, #48, .T. ) ;
#29 = CARTESIAN_POINT ( 'NONE',  ( 1.750000080079195275, -24.97500000000000497, 1.750000104557236202 ) ) ;
#30 = CARTESIAN_POINT ( 'NONE',  ( 1.750000080079195275, -25.02500000000000568, 1.751950104557236099 ) ) ;
#31 = ORIENTED_EDGE ( 'NONE', *, *, #81, .F. ) ;
#32 = ORIENTED_EDGE ( 'NONE', *, *, #38, .F. ) ;
#33 = STYLED_ITEM ( 'NONE', ( #116 ), #53 ) ;
#34 = UNCERTAINTY_MEASURE_WITH_UNIT (LENGTH_MEASURE( 1.000000000000000082E-05 ), #17, 'distance_accuracy_value', 'NONE');
#35 = EDGE_CURVE ( 'NONE', #104, #84, #94, .T. ) ;
#36 = CARTESIAN_POINT ( 'NONE',  ( 1.750000080079195275, -25.02500000000000568, 1.750000104557236202 ) ) ;
#37 = CYLINDRICAL_SURFACE ( 'NONE', #23, 0.001949999999999896261 ) ;
#38 = EDGE_CURVE ( 'NONE', #19, #123, #114, .T. ) ;
#39 = AXIS2_PLACEMENT_3D ( 'NONE', #108, #61, #117 ) ;
#40 = CARTESIAN_POINT ( 'NONE',  ( 1.750000080079195275, -24.97500000000000497, 1.748050104557236306 ) ) ;
#41 = EDGE_LOOP ( 'NONE', ( #79, #92 ) ) ;
#42 = PRODUCT_DEFINITION_CONTEXT ( 'detailed design', #110, 'design' ) ;
#43 = AXIS2_PLACEMENT_3D ( 'NONE', #75, #72, #119 ) ;
#44 = CARTESIAN_POINT ( 'NONE',  ( 1.750000080079195275, -25.02500000000000568, 1.748050104557236306 ) ) ;
#45 = PLANE ( 'NONE',  #43 ) ;
#46 = PRODUCT ( 'lockingpin', 'lockingpin', '', ( #21 ) ) ;
#47 = SURFACE_STYLE_FILL_AREA ( #15 ) ;
#48 = CIRCLE ( 'NONE', #77, 0.001949999999999896261 ) ;
#49 = DIRECTION ( 'NONE',  ( 0.000000000000000000, 0.000000000000000000, 1.000000000000000000 ) ) ;
#50 = ADVANCED_FACE ( 'NONE', ( #59 ), #37, .T. ) ;
#51 = APPLICATION_PROTOCOL_DEFINITION ( 'draft international standard', 'automotive_design', 1998, #62 ) ;
#52 = ADVANCED_FACE ( 'NONE', ( #96 ), #8, .T. ) ;
#53 = MANIFOLD_SOLID_BREP ( 'Scale1', #3 ) ;
#54 = ORIENTED_EDGE ( 'NONE', *, *, #35, .T. ) ;
#55 = EDGE_LOOP ( 'NONE', ( #105, #13, #31, #78 ) ) ;
#56 = CIRCLE ( 'NONE', #74, 0.001949999999999896261 ) ;
#57 = DIRECTION ( 'NONE',  ( 1.000000000000000000, 0.000000000000000000, 0.000000000000000000 ) ) ;
#58 = AXIS2_PLACEMENT_3D ( 'NONE', #29, #118, #49 ) ;
#59 = FACE_OUTER_BOUND ( 'NONE', #66, .T. ) ;
#60 = DIRECTION ( 'NONE',  ( 0.000000000000000000, -0.000000000000000000, 1.000000000000000000 ) ) ;
#61 = DIRECTION ( 'NONE',  ( 0.000000000000000000, 1.000000000000000000, 0.000000000000000000 ) ) ;
#62 = APPLICATION_CONTEXT ( 'automotive_design' ) ;
#63 = ADVANCED_BREP_SHAPE_REPRESENTATION ( 'lockingpin', ( #53, #71 ), #122 ) ;
#64 = ADVANCED_FACE ( 'NONE', ( #11 ), #45, .F. ) ;
#65 = FACE_OUTER_BOUND ( 'NONE', #41, .T. ) ;
#66 = EDGE_LOOP ( 'NONE', ( #32, #95, #54, #20 ) ) ;
#67 = EDGE_LOOP ( 'NONE', ( #4, #113 ) ) ;
#68 = APPLICATION_PROTOCOL_DEFINITION ( 'draft international standard', 'automotive_design', 1998, #110 ) ;
#69 = DIRECTION ( 'NONE',  ( 0.000000000000000000, 1.000000000000000000, 0.000000000000000000 ) ) ;
#70 = SHAPE_DEFINITION_REPRESENTATION ( #27, #63 ) ;
#71 = AXIS2_PLACEMENT_3D ( 'NONE', #111, #2, #57 ) ;
#72 = DIRECTION ( 'NONE',  ( 0.000000000000000000, 1.000000000000000000, 0.000000000000000000 ) ) ;
#73 = CARTESIAN_POINT ( 'NONE',  ( 1.750000080079195275, -24.97500000000000497, 1.750000104557236202 ) ) ;
#74 = AXIS2_PLACEMENT_3D ( 'NONE', #90, #101, #121 ) ;
#75 = CARTESIAN_POINT ( 'NONE',  ( 1.750000080079195275, -25.02500000000000568, 1.750000104557236202 ) ) ;
#76 = EDGE_CURVE ( 'NONE', #104, #19, #9, .T. ) ;
#77 = AXIS2_PLACEMENT_3D ( 'NONE', #22, #69, #14 ) ;
#78 = ORIENTED_EDGE ( 'NONE', *, *, #35, .F. ) ;
#79 = ORIENTED_EDGE ( 'NONE', *, *, #81, .T. ) ;
#80 = AXIS2_PLACEMENT_3D ( 'NONE', #7, #86, #98 ) ;
#81 = EDGE_CURVE ( 'NONE', #84, #123, #93, .T. ) ;
#82 = SURFACE_SIDE_STYLE ('',( #47 ) ) ;
#83 =( NAMED_UNIT ( * ) SI_UNIT ( $, .STERADIAN. ) SOLID_ANGLE_UNIT ( ) );
#84 = VERTEX_POINT ( 'NONE', #109 ) ;
#85 = CARTESIAN_POINT ( 'NONE',  ( 1.750000080079195275, -25.02500000000000568, 1.751950104557236099 ) ) ;
#86 = DIRECTION ( 'NONE',  ( 0.000000000000000000, 1.000000000000000000, 0.000000000000000000 ) ) ;
#87 =( NAMED_UNIT ( * ) PLANE_ANGLE_UNIT ( ) SI_UNIT ( $, .RADIAN. ) );
#88 = DIRECTION ( 'NONE',  ( 0.000000000000000000, 1.000000000000000000, 0.000000000000000000 ) ) ;
#89 = VECTOR ( 'NONE', #5, 1.000000000000000000 ) ;
#90 = CARTESIAN_POINT ( 'NONE',  ( 1.750000080079195275, -25.02500000000000568, 1.750000104557236202 ) ) ;
#91 = PLANE ( 'NONE',  #106 ) ;
#92 = ORIENTED_EDGE ( 'NONE', *, *, #28, .T. ) ;
#93 = CIRCLE ( 'NONE', #58, 0.001949999999999896261 ) ;
#94 = LINE ( 'NONE', #85, #89 ) ;
#95 = ORIENTED_EDGE ( 'NONE', *, *, #103, .T. ) ;
#96 = FACE_OUTER_BOUND ( 'NONE', #55, .T. ) ;
#97 = PRESENTATION_LAYER_ASSIGNMENT (  '', '', ( #33 ) ) ;
#98 = DIRECTION ( 'NONE',  ( 0.000000000000000000, 0.000000000000000000, 1.000000000000000000 ) ) ;
#99 = DIRECTION ( 'NONE',  ( 0.000000000000000000, 0.000000000000000000, 1.000000000000000000 ) ) ;
#100 = FILL_AREA_STYLE_COLOUR ( '', #12 ) ;
#101 = DIRECTION ( 'NONE',  ( 0.000000000000000000, 1.000000000000000000, 0.000000000000000000 ) ) ;
#102 =( NAMED_UNIT ( * ) PLANE_ANGLE_UNIT ( ) SI_UNIT ( $, .RADIAN. ) );
#103 = EDGE_CURVE ( 'NONE', #19, #104, #56, .T. ) ;
#104 = VERTEX_POINT ( 'NONE', #30 ) ;
#105 = ORIENTED_EDGE ( 'NONE', *, *, #76, .T. ) ;
#106 = AXIS2_PLACEMENT_3D ( 'NONE', #73, #88, #60 ) ;
#107 = DIRECTION ( 'NONE',  ( 0.000000000000000000, 1.000000000000000000, 0.000000000000000000 ) ) ;
#108 = CARTESIAN_POINT ( 'NONE',  ( 1.750000080079195275, -25.02500000000000568, 1.750000104557236202 ) ) ;
#109 = CARTESIAN_POINT ( 'NONE',  ( 1.750000080079195275, -24.97500000000000497, 1.751950104557236099 ) ) ;
#110 = APPLICATION_CONTEXT ( 'automotive_design' ) ;
#111 = CARTESIAN_POINT ( 'NONE',  ( 0.000000000000000000, 0.000000000000000000, 0.000000000000000000 ) ) ;
#112 = ADVANCED_FACE ( 'NONE', ( #65 ), #91, .T. ) ;
#113 = ORIENTED_EDGE ( 'NONE', *, *, #103, .F. ) ;
#114 = LINE ( 'NONE', #26, #1 ) ;
#115 = DIRECTION ( 'NONE',  ( 0.000000000000000000, 1.000000000000000000, 0.000000000000000000 ) ) ;
#116 = PRESENTATION_STYLE_ASSIGNMENT (( #16 ) ) ;
#117 = DIRECTION ( 'NONE',  ( 0.000000000000000000, 0.000000000000000000, 1.000000000000000000 ) ) ;
#118 = DIRECTION ( 'NONE',  ( 0.000000000000000000, 1.000000000000000000, 0.000000000000000000 ) ) ;
#119 = DIRECTION ( 'NONE',  ( 0.000000000000000000, -0.000000000000000000, 1.000000000000000000 ) ) ;
#120 = MECHANICAL_DESIGN_GEOMETRIC_PRESENTATION_REPRESENTATION (  '', ( #33 ), #124 ) ;
#121 = DIRECTION ( 'NONE',  ( 0.000000000000000000, 0.000000000000000000, 1.000000000000000000 ) ) ;
#122 =( GEOMETRIC_REPRESENTATION_CONTEXT ( 3 ) GLOBAL_UNCERTAINTY_ASSIGNED_CONTEXT ( ( #24 ) ) GLOBAL_UNIT_ASSIGNED_CONTEXT ( ( #18, #102, #125 ) ) REPRESENTATION_CONTEXT ( 'NONE', 'WORKASPACE' ) );
#123 = VERTEX_POINT ( 'NONE', #40 ) ;
#124 =( GEOMETRIC_REPRESENTATION_CONTEXT ( 3 ) GLOBAL_UNCERTAINTY_ASSIGNED_CONTEXT ( ( #34 ) ) GLOBAL_UNIT_ASSIGNED_CONTEXT ( ( #17, #87, #83 ) ) REPRESENTATION_CONTEXT ( 'NONE', 'WORKASPACE' ) );
#125 =( NAMED_UNIT ( * ) SI_UNIT ( $, .STERADIAN. ) SOLID_ANGLE_UNIT ( ) );
ENDSEC;
END-ISO-10303-21;
