ISO-10303-21;
HEADER;
FILE_DESCRIPTION (( 'STEP AP214' ),
    '1' );
FILE_NAME ('Pin_Stack.STEP',
    '2025-12-08T05:54:43',
    ( '' ),
    ( '' ),
    'SwSTEP 2.0',
    'SolidWorks 2025',
    '' );
FILE_SCHEMA (( 'AUTOMOTIVE_DESIGN' ));
ENDSEC;

DATA;
#1 = CARTESIAN_POINT ( 'NONE',  ( 0.007785557224806944135, 0.001231442559683036805, 20.30468384077170185 ) ) ;
#2 = CARTESIAN_POINT ( 'NONE',  ( -0.02099983397715467909, -1.575656101843231152E-07, 20.19618680828792634 ) ) ;
#3 = AXIS2_PLACEMENT_3D ( 'NONE', #216, #363, #335 ) ;
#4 = LINE ( 'NONE', #262, #119 ) ;
#5 = ADVANCED_BREP_SHAPE_REPRESENTATION ( 'Pin_Stack', ( #359, #227 ), #247 ) ;
#6 = CARTESIAN_POINT ( 'NONE',  ( 0.007880165779483992716, -1.575656101872185650E-07, 20.30508680828792833 ) ) ;
#7 = CARTESIAN_POINT ( 'NONE',  ( 0.007880165779483996186, -0.0001310086006634341967, 20.30108680828792700 ) ) ;
#8 = CARTESIAN_POINT ( 'NONE',  ( -0.007879834220516006987, -1.575656101843231152E-07, 20.20418680828792546 ) ) ;
#9 = EDGE_CURVE ( 'NONE', #86, #260, #4, .T. ) ;
#10 = DIRECTION ( 'NONE',  ( -1.000000000000000000, 0.000000000000000000, 0.000000000000000000 ) ) ;
#11 = DIRECTION ( 'NONE',  ( -0.000000000000000000, -0.000000000000000000, -1.000000000000000000 ) ) ;
#12 = CYLINDRICAL_SURFACE ( 'NONE', #311, 0.02099999975663867022 ) ;
#13 = FACE_OUTER_BOUND ( 'NONE', #258, .T. ) ;
#14 = CARTESIAN_POINT ( 'NONE',  ( 0.007785784714357149409, -0.001221002709285294238, 20.30149732281155295 ) ) ;
#15 = ADVANCED_FACE ( 'NONE', ( #89 ), #120, .T. ) ;
#16 = DIRECTION ( 'NONE',  ( 0.000000000000000000, 0.000000000000000000, 1.000000000000000000 ) ) ;
#17 = CARTESIAN_POINT ( 'NONE',  ( 0.007880165779483992716, -1.575656101833581065E-07, 20.30968680828792827 ) ) ;
#18 = PRESENTATION_STYLE_ASSIGNMENT (( #281 ) ) ;
#19 = EDGE_CURVE ( 'NONE', #109, #21, #99, .T. ) ;
#20 = CYLINDRICAL_SURFACE ( 'NONE', #92, 0.001999999999998891553 ) ;
#21 = VERTEX_POINT ( 'NONE', #180 ) ;
#22 = CARTESIAN_POINT ( 'NONE',  ( -0.007816442194019748019, 0.001003362608020646465, 20.30482174046060706 ) ) ;
#23 = ORIENTED_EDGE ( 'NONE', *, *, #19, .T. ) ;
#24 = APPLICATION_PROTOCOL_DEFINITION ( 'draft international standard', 'automotive_design', 1998, #286 ) ;
#25 = DIRECTION ( 'NONE',  ( 0.000000000000000000, 0.000000000000000000, -1.000000000000000000 ) ) ;
#26 = CLOSED_SHELL ( 'NONE', ( #278, #118, #356, #189, #259, #312, #204, #15, #372 ) ) ;
#27 = DIRECTION ( 'NONE',  ( 0.000000000000000000, 0.000000000000000000, -1.000000000000000000 ) ) ;
#28 = ORIENTED_EDGE ( 'NONE', *, *, #284, .F. ) ;
#29 = ORIENTED_EDGE ( 'NONE', *, *, #341, .F. ) ;
#30 = CARTESIAN_POINT ( 'NONE',  ( 0.007880165779483994451, -0.0001328871475514602977, 20.30508680828793544 ) ) ;
#31 = CARTESIAN_POINT ( 'NONE',  ( 0.007816694704481246675, 0.001003976851293672664, 20.30135223033858693 ) ) ;
#32 = DIRECTION ( 'NONE',  ( -1.000000000000000000, -0.000000000000000000, -0.000000000000000000 ) ) ;
#33 = CARTESIAN_POINT ( 'NONE',  ( 1.657794839928382310E-07, -1.575656101843231152E-07, 20.30968680828792827 ) ) ;
#34 = CARTESIAN_POINT ( 'NONE',  ( 0.007880165779483992716, -1.575656101833581065E-07, 20.30108680828793055 ) ) ;
#35 = DIRECTION ( 'NONE',  ( -1.000000000000000000, 0.000000000000000000, 0.000000000000000000 ) ) ;
#36 = CARTESIAN_POINT ( 'NONE',  ( -0.007876485603034135557, -0.0002636098064219920527, 20.30507373056009612 ) ) ;
#37 = CARTESIAN_POINT ( 'NONE',  ( 0.007876816963804890090, -0.0002632925889751290701, 20.30507372736862948 ) ) ;
#38 = CARTESIAN_POINT ( 'NONE',  ( -0.007638334514847778221, -0.001936238262916806230, 20.30360521594225531 ) ) ;
#39 = AXIS2_PLACEMENT_3D ( 'NONE', #310, #143, #225 ) ;
#40 = FACE_OUTER_BOUND ( 'NONE', #57, .T. ) ;
#41 = FILL_AREA_STYLE ('',( #307 ) ) ;
#42 = LINE ( 'NONE', #331, #141 ) ;
#43 = DIRECTION ( 'NONE',  ( -0.000000000000000000, -0.000000000000000000, -1.000000000000000000 ) ) ;
#44 = CARTESIAN_POINT ( 'NONE',  ( 0.007648620143673982505, -0.001897045964150430048, 20.30373392660533938 ) ) ;
#45 = CARTESIAN_POINT ( 'NONE',  ( -0.007830671673116596301, -0.0008873055954490453390, 20.30128959491089802 ) ) ;
#46 = DIRECTION ( 'NONE',  ( 1.000000000000000000, 0.000000000000000000, 0.000000000000000000 ) ) ;
#47 = UNCERTAINTY_MEASURE_WITH_UNIT (LENGTH_MEASURE( 1.000000000000000082E-05 ), #98, 'distance_accuracy_value', 'NONE');
#48 = CARTESIAN_POINT ( 'NONE',  ( -0.007876485404836904361, 0.0002629774577547604338, 20.30507372736862948 ) ) ;
#49 = ORIENTED_EDGE ( 'NONE', *, *, #284, .T. ) ;
#50 = CARTESIAN_POINT ( 'NONE',  ( -0.007638464805564307292, 0.001935410882828559644, 20.30256648124592544 ) ) ;
#51 = CARTESIAN_POINT ( 'NONE',  ( -0.007684415434115738144, 0.001746888685078089570, 20.30409458815028145 ) ) ;
#52 = EDGE_LOOP ( 'NONE', ( #347, #343, #283, #29 ) ) ;
#53 = VECTOR ( 'NONE', #94, 1.000000000000000000 ) ;
#54 = ORIENTED_EDGE ( 'NONE', *, *, #253, .F. ) ;
#55 = EDGE_CURVE ( 'NONE', #86, #254, #61, .T. ) ;
#56 =( NAMED_UNIT ( * ) SI_UNIT ( $, .STERADIAN. ) SOLID_ANGLE_UNIT ( ) );
#57 = EDGE_LOOP ( 'NONE', ( #172, #112, #231, #203 ) ) ;
#58 = ORIENTED_EDGE ( 'NONE', *, *, #324, .T. ) ;
#59 = AXIS2_PLACEMENT_3D ( 'NONE', #201, #27, #197 ) ;
#60 = CARTESIAN_POINT ( 'NONE',  ( 0.007769143590753159988, 0.001321271459746479766, 20.30157988156296867 ) ) ;
#61 = B_SPLINE_CURVE_WITH_KNOTS ( 'NONE', 3,
 ( #179, #361, #211, #174, #31, #146, #60, #115, #264, #268, #150, #236, #148, #240, #263, #63, #87, #327, #177, #1, #205, #116, #237, #323, #90, #6 ),
 .UNSPECIFIED., .F., .F.,
 ( 4, 2, 2, 2, 2, 2, 2, 2, 2, 2, 2, 2, 4 ),
 ( 0.006278685343245830192, 0.007063309085914822386, 0.007455620957249318483, 0.007847932828583814580, 0.008240244699918309809, 0.008632556571252806774, 0.009417180313921798968, 0.009809492185251011964, 0.01020180405658022496, 0.01098642779923865095, 0.01177105154189707695, 0.01216336341322628994, 0.01255567528455550468 ),
 .UNSPECIFIED. ) ;
#62 = CARTESIAN_POINT ( 'NONE',  ( -0.007879834220516006987, -1.575656101843231152E-07, 20.30968680828792827 ) ) ;
#63 = CARTESIAN_POINT ( 'NONE',  ( 0.007638666073815762216, 0.001935923131696437160, 20.30360521594225531 ) ) ;
#64 = AXIS2_PLACEMENT_3D ( 'NONE', #121, #206, #326 ) ;
#65 = CARTESIAN_POINT ( 'NONE',  ( 0.007863961936532826158, -0.0005214528820296290704, 20.30115147538544562 ) ) ;
#66 = CARTESIAN_POINT ( 'NONE',  ( 0.007854511803880399531, -0.0006470173945907979184, 20.30498384331913542 ) ) ;
#67 = CARTESIAN_POINT ( 'NONE',  ( -0.007735171116032270484, -0.001506063941821062738, 20.30176421658618935 ) ) ;
#68 = CARTESIAN_POINT ( 'NONE',  ( 0.007880165779483992716, -1.575656101872185650E-07, 20.30508680828792833 ) ) ;
#69 = CARTESIAN_POINT ( 'NONE',  ( -0.007625207165075380614, -0.001987311980690133553, 20.30334828924932822 ) ) ;
#70 = VECTOR ( 'NONE', #304, 1.000000000000000000 ) ;
#71 = LINE ( 'NONE', #167, #123 ) ;
#72 = CARTESIAN_POINT ( 'NONE',  ( -0.007854026678488574414, -0.0006487624888766959546, 20.30498320307810189 ) ) ;
#73 = DIRECTION ( 'NONE',  ( -0.000000000000000000, -0.000000000000000000, -1.000000000000000000 ) ) ;
#74 = PRODUCT_DEFINITION_CONTEXT ( 'detailed design', #153, 'design' ) ;
#75 = CARTESIAN_POINT ( 'NONE',  ( -0.007865997419502767166, -0.0005259558829358177085, 20.30113961381197640 ) ) ;
#76 = CARTESIAN_POINT ( 'NONE',  ( 1.657794839928382310E-07, -1.575656101843231152E-07, 20.20418680828792546 ) ) ;
#77 = SURFACE_SIDE_STYLE ('',( #128 ) ) ;
#78 = PLANE ( 'NONE',  #59 ) ;
#79 = VERTEX_POINT ( 'NONE', #297 ) ;
#80 = CARTESIAN_POINT ( 'NONE',  ( -0.01142760690611702504, -1.575656101843231152E-07, 20.30308680828792944 ) ) ;
#81 = ORIENTED_EDGE ( 'NONE', *, *, #207, .T. ) ;
#82 = CARTESIAN_POINT ( 'NONE',  ( -0.007785507635751145843, 0.001220376097025609131, 20.30467656926400366 ) ) ;
#83 = CARTESIAN_POINT ( 'NONE',  ( -0.007879834220516012191, 0.0001306934694430666717, 20.30108680828793410 ) ) ;
#84 = EDGE_CURVE ( 'NONE', #88, #314, #299, .T. ) ;
#85 = VERTEX_POINT ( 'NONE', #358 ) ;
#86 = VERTEX_POINT ( 'NONE', #34 ) ;
#87 = CARTESIAN_POINT ( 'NONE',  ( 0.007648524089369770559, 0.001897120979964192228, 20.30373285981996290 ) ) ;
#88 = VERTEX_POINT ( 'NONE', #62 ) ;
#89 = FACE_OUTER_BOUND ( 'NONE', #316, .T. ) ;
#90 = CARTESIAN_POINT ( 'NONE',  ( 0.007880165779483992716, 0.0001325361760272848093, 20.30508680828793189 ) ) ;
#91 = DIRECTION ( 'NONE',  ( 0.000000000000000000, 0.000000000000000000, -1.000000000000000000 ) ) ;
#92 = AXIS2_PLACEMENT_3D ( 'NONE', #80, #137, #342 ) ;
#93 = LINE ( 'NONE', #365, #70 ) ;
#94 = DIRECTION ( 'NONE',  ( -1.000000000000000000, -0.000000000000000000, -0.000000000000000000 ) ) ;
#95 = FACE_OUTER_BOUND ( 'NONE', #256, .T. ) ;
#96 = CARTESIAN_POINT ( 'NONE',  ( -0.007816363145513259211, -0.001004291982514040867, 20.30135223033858693 ) ) ;
#97 = CARTESIAN_POINT ( 'NONE',  ( 0.007816625599894875751, -0.001004787318202049386, 20.30135255167351360 ) ) ;
#98 =( LENGTH_UNIT ( ) NAMED_UNIT ( * ) SI_UNIT ( $, .METRE. ) );
#99 = CIRCLE ( 'NONE', #151, 0.02099999975663867022 ) ;
#100 = CARTESIAN_POINT ( 'NONE',  ( 0.007684899978907451870, -0.001746584930513135972, 20.30207729668011041 ) ) ;
#101 = CARTESIAN_POINT ( 'NONE',  ( -0.01142760690611702504, -1.575656101843231152E-07, 20.30508680828792833 ) ) ;
#102 = CYLINDRICAL_SURFACE ( 'NONE', #362, 0.007879999999999999852 ) ;
#103 = FACE_OUTER_BOUND ( 'NONE', #138, .T. ) ;
#104 = ORIENTED_EDGE ( 'NONE', *, *, #178, .F. ) ;
#105 = CARTESIAN_POINT ( 'NONE',  ( -0.007638462890127182409, 0.001935419979179436607, 20.30360729115413321 ) ) ;
#106 = AXIS2_PLACEMENT_3D ( 'NONE', #76, #195, #46 ) ;
#107 = ORIENTED_EDGE ( 'NONE', *, *, #19, .F. ) ;
#108 = CARTESIAN_POINT ( 'NONE',  ( 0.02100016553612266135, -1.575656101817513644E-07, 20.20418680828792546 ) ) ;
#109 = VERTEX_POINT ( 'NONE', #152 ) ;
#110 = EDGE_CURVE ( 'NONE', #113, #79, #171, .T. ) ;
#111 = FACE_BOUND ( 'NONE', #226, .T. ) ;
#112 = ORIENTED_EDGE ( 'NONE', *, *, #178, .T. ) ;
#113 = VERTEX_POINT ( 'NONE', #2 ) ;
#114 = AXIS2_PLACEMENT_3D ( 'NONE', #117, #91, #330 ) ;
#115 = CARTESIAN_POINT ( 'NONE',  ( 0.007735502675000254479, 0.001505748810600694753, 20.30176421658618935 ) ) ;
#116 = CARTESIAN_POINT ( 'NONE',  ( 0.007854358237456561878, 0.0006484473576563272099, 20.30498320307810189 ) ) ;
#117 = CARTESIAN_POINT ( 'NONE',  ( 1.657794839928382310E-07, -1.575656101843231152E-07, 20.20418680828792546 ) ) ;
#118 = ADVANCED_FACE ( 'NONE', ( #241 ), #149, .T. ) ;
#119 = VECTOR ( 'NONE', #32, 1.000000000000000000 ) ;
#120 = PLANE ( 'NONE',  #176 ) ;
#121 = CARTESIAN_POINT ( 'NONE',  ( 1.657794839928382310E-07, -1.575656101843231152E-07, 20.19618680828792634 ) ) ;
#122 = CARTESIAN_POINT ( 'NONE',  ( 0.007769178285506907027, -0.001321411619635302903, 20.30157967717934397 ) ) ;
#123 = VECTOR ( 'NONE', #374, 1.000000000000000000 ) ;
#124 = DIRECTION ( 'NONE',  ( -1.000000000000000000, -0.000000000000000000, -0.000000000000000000 ) ) ;
#125 = DIRECTION ( 'NONE',  ( 0.000000000000000000, 0.000000000000000000, -1.000000000000000000 ) ) ;
#126 = CARTESIAN_POINT ( 'NONE',  ( -0.007879834220516006987, -1.575656101814276390E-07, 20.30508680828792833 ) ) ;
#127 = DIRECTION ( 'NONE',  ( -1.000000000000000000, 0.000000000000000000, 0.000000000000000000 ) ) ;
#128 = SURFACE_STYLE_FILL_AREA ( #41 ) ;
#129 = LINE ( 'NONE', #17, #156 ) ;
#130 = CARTESIAN_POINT ( 'NONE',  ( -0.007879834220516006987, -1.575656101843231152E-07, 20.30968680828792827 ) ) ;
#131 = CIRCLE ( 'NONE', #3, 0.007879999999999999852 ) ;
#132 = CARTESIAN_POINT ( 'NONE',  ( 0.007854576683709613497, -0.0006461766142686554059, 20.30118950968022773 ) ) ;
#133 =( LENGTH_UNIT ( ) NAMED_UNIT ( * ) SI_UNIT ( $, .METRE. ) );
#134 = CARTESIAN_POINT ( 'NONE',  ( -0.007863737390586747825, 0.0005193622624391772613, 20.30502257341368022 ) ) ;
#135 = ORIENTED_EDGE ( 'NONE', *, *, #318, .F. ) ;
#136 = SHAPE_DEFINITION_REPRESENTATION ( #160, #5 ) ;
#137 = DIRECTION ( 'NONE',  ( -1.000000000000000000, -0.000000000000000000, -0.000000000000000000 ) ) ;
#138 = EDGE_LOOP ( 'NONE', ( #107, #104 ) ) ;
#139 = APPLICATION_PROTOCOL_DEFINITION ( 'draft international standard', 'automotive_design', 1998, #153 ) ;
#140 = CARTESIAN_POINT ( 'NONE',  ( -0.007718157612347266439, 0.001599015469174770721, 20.30185747049066336 ) ) ;
#141 = VECTOR ( 'NONE', #333, 1.000000000000000000 ) ;
#142 = UNCERTAINTY_MEASURE_WITH_UNIT (LENGTH_MEASURE( 1.000000000000000082E-05 ), #133, 'distance_accuracy_value', 'NONE');
#143 = DIRECTION ( 'NONE',  ( 0.000000000000000000, 0.000000000000000000, 1.000000000000000000 ) ) ;
#144 = ORIENTED_EDGE ( 'NONE', *, *, #110, .T. ) ;
#145 = ORIENTED_EDGE ( 'NONE', *, *, #9, .F. ) ;
#146 = CARTESIAN_POINT ( 'NONE',  ( 0.007785746751291959707, 0.001220964579775483862, 20.30149749796718339 ) ) ;
#147 = STYLED_ITEM ( 'NONE', ( #18 ), #359 ) ;
#148 = CARTESIAN_POINT ( 'NONE',  ( 0.007622154551118218678, 0.001999764225761880339, 20.30282239852398618 ) ) ;
#149 = CYLINDRICAL_SURFACE ( 'NONE', #114, 0.02099999975663867022 ) ;
#150 = CARTESIAN_POINT ( 'NONE',  ( 0.007672930597425244373, 0.001795890634879079720, 20.30219710492155372 ) ) ;
#151 = AXIS2_PLACEMENT_3D ( 'NONE', #266, #296, #353 ) ;
#152 = CARTESIAN_POINT ( 'NONE',  ( -0.02099983397715467909, -1.575656101843231152E-07, 20.20418680828792546 ) ) ;
#153 = APPLICATION_CONTEXT ( 'automotive_design' ) ;
#154 = PLANE ( 'NONE',  #305 ) ;
#155 = CARTESIAN_POINT ( 'NONE',  ( 0.007638794449095168138, -0.001935735110399805026, 20.30360729115413321 ) ) ;
#156 = VECTOR ( 'NONE', #73, 1.000000000000000000 ) ;
#157 = CARTESIAN_POINT ( 'NONE',  ( -0.007818619544209716096, -0.001009863520542943335, 20.30483280372643051 ) ) ;
#158 = CARTESIAN_POINT ( 'NONE',  ( 1.657794839928382310E-07, -1.575656101843231152E-07, 20.20418680828792546 ) ) ;
#159 = CARTESIAN_POINT ( 'NONE',  ( -0.01142760690611702504, -1.575656101843231152E-07, 20.30308680828792944 ) ) ;
#160 = PRODUCT_DEFINITION_SHAPE ( 'NONE', 'NONE',  #360 ) ;
#161 = DIRECTION ( 'NONE',  ( 0.000000000000000000, 0.000000000000000000, -1.000000000000000000 ) ) ;
#162 = EDGE_CURVE ( 'NONE', #254, #86, #210, .T. ) ;
#163 = LINE ( 'NONE', #101, #53 ) ;
#164 = DIRECTION ( 'NONE',  ( 0.000000000000000000, 0.000000000000000000, -1.000000000000000000 ) ) ;
#165 = CYLINDRICAL_SURFACE ( 'NONE', #267, 0.007879999999999999852 ) ;
#166 = LINE ( 'NONE', #130, #261 ) ;
#167 = CARTESIAN_POINT ( 'NONE',  ( 0.007880165779483992716, -1.575656101833581065E-07, 20.30968680828792827 ) ) ;
#168 = CARTESIAN_POINT ( 'NONE',  ( -0.007718302521215957349, 0.001598119336862084293, 20.30431684513344237 ) ) ;
#169 = ORIENTED_EDGE ( 'NONE', *, *, #84, .T. ) ;
#170 = CARTESIAN_POINT ( 'NONE',  ( -0.007625213543084066910, 0.001986975688867501002, 20.30334884697753850 ) ) ;
#171 = CIRCLE ( 'NONE', #64, 0.02099999975663867022 ) ;
#172 = ORIENTED_EDGE ( 'NONE', *, *, #272, .F. ) ;
#173 = CARTESIAN_POINT ( 'NONE',  ( 0.000000000000000000, 0.000000000000000000, 0.000000000000000000 ) ) ;
#174 = CARTESIAN_POINT ( 'NONE',  ( 0.007831003232084580296, 0.0008869904642286776785, 20.30128959491089802 ) ) ;
#175 = ORIENTED_EDGE ( 'NONE', *, *, #214, .F. ) ;
#176 = AXIS2_PLACEMENT_3D ( 'NONE', #33, #209, #300 ) ;
#177 = CARTESIAN_POINT ( 'NONE',  ( 0.007718600398113936722, 0.001598255980211069896, 20.30431661549208755 ) ) ;
#178 = EDGE_CURVE ( 'NONE', #21, #109, #234, .T. ) ;
#179 = CARTESIAN_POINT ( 'NONE',  ( 0.007880165779483992716, -1.575656101833581065E-07, 20.30108680828793055 ) ) ;
#180 = CARTESIAN_POINT ( 'NONE',  ( 0.02100016553612266135, -1.575656101817513644E-07, 20.20418680828792546 ) ) ;
#181 = AXIS2_PLACEMENT_3D ( 'NONE', #159, #124, #16 ) ;
#182 = CARTESIAN_POINT ( 'NONE',  ( 1.657794839928382310E-07, -1.575656101843231152E-07, 20.19618680828792634 ) ) ;
#183 = DIRECTION ( 'NONE',  ( -1.000000000000000000, 0.000000000000000000, 0.000000000000000000 ) ) ;
#184 = CARTESIAN_POINT ( 'NONE',  ( 1.657794839928382310E-07, -1.575656101843231152E-07, 20.30968680828792827 ) ) ;
#185 = EDGE_CURVE ( 'NONE', #86, #349, #129, .T. ) ;
#186 = CARTESIAN_POINT ( 'NONE',  ( 0.007830973356904373864, -0.0008876055635590810984, 20.30128972212723681 ) ) ;
#187 = FACE_OUTER_BOUND ( 'NONE', #382, .T. ) ;
#188 = PRODUCT_DEFINITION_FORMATION_WITH_SPECIFIED_SOURCE ( 'ANY', '', #265, .NOT_KNOWN. ) ;
#189 = ADVANCED_FACE ( 'NONE', ( #95 ), #102, .T. ) ;
#190 = CARTESIAN_POINT ( 'NONE',  ( 0.007880165779483992716, -1.575656101833581065E-07, 20.30108680828793055 ) ) ;
#191 = CARTESIAN_POINT ( 'NONE',  ( -0.007785415192323973110, -0.001221279710995851631, 20.30149749796718339 ) ) ;
#192 = DIRECTION ( 'NONE',  ( -0.000000000000000000, -0.000000000000000000, -1.000000000000000000 ) ) ;
#193 = EDGE_CURVE ( 'NONE', #79, #113, #212, .T. ) ;
#194 = CARTESIAN_POINT ( 'NONE',  ( -0.007648192530401784830, -0.001897436111184560865, 20.30373285981996290 ) ) ;
#195 = DIRECTION ( 'NONE',  ( 0.000000000000000000, 0.000000000000000000, 1.000000000000000000 ) ) ;
#196 = PRESENTATION_LAYER_ASSIGNMENT (  '', '', ( #147 ) ) ;
#197 = DIRECTION ( 'NONE',  ( -1.000000000000000000, 0.000000000000000000, -0.000000000000000000 ) ) ;
#198 = ORIENTED_EDGE ( 'NONE', *, *, #328, .T. ) ;
#199 = CARTESIAN_POINT ( 'NONE',  ( -0.007621788012967290436, 0.001999897530881685013, 20.30295659957005583 ) ) ;
#200 = ORIENTED_EDGE ( 'NONE', *, *, #185, .F. ) ;
#201 = CARTESIAN_POINT ( 'NONE',  ( 1.657794839928382310E-07, -1.575656101843231152E-07, 20.20418680828792546 ) ) ;
#202 = ORIENTED_EDGE ( 'NONE', *, *, #55, .T. ) ;
#203 = ORIENTED_EDGE ( 'NONE', *, *, #193, .F. ) ;
#204 = ADVANCED_FACE ( 'NONE', ( #308 ), #154, .T. ) ;
#205 = CARTESIAN_POINT ( 'NONE',  ( 0.007818951103177701825, 0.001009548389322574482, 20.30483280372643051 ) ) ;
#206 = DIRECTION ( 'NONE',  ( 0.000000000000000000, 0.000000000000000000, -1.000000000000000000 ) ) ;
#207 = EDGE_CURVE ( 'NONE', #349, #357, #131, .T. ) ;
#208 = ORIENTED_EDGE ( 'NONE', *, *, #110, .F. ) ;
#209 = DIRECTION ( 'NONE',  ( 0.000000000000000000, 0.000000000000000000, 1.000000000000000000 ) ) ;
#210 = B_SPLINE_CURVE_WITH_KNOTS ( 'NONE', 3,
 ( #294, #30, #37, #243, #66, #221, #373, #367, #277, #302, #369, #44, #155, #246, #213, #338, #301, #273, #223, #100, #280, #122, #14, #97, #186, #132, #65, #249, #7, #190 ),
 .UNSPECIFIED., .F., .F.,
 ( 4, 2, 2, 2, 2, 2, 2, 2, 2, 2, 2, 2, 2, 2, 4 ),
 ( 2.812122915104675429E-18, 0.0003924178339518876292, 0.0007848356679037724395, 0.001177253501855657358, 0.001569671335807542060, 0.002354507003718779232, 0.002746924837674398143, 0.003139342671630016620, 0.003531760505585635097, 0.003924178339541254008, 0.004709014007442779114, 0.005101431841393542534, 0.005493849675344305086, 0.005886267509295067639, 0.006278685343245830192 ),
 .UNSPECIFIED. ) ;
#211 = CARTESIAN_POINT ( 'NONE',  ( 0.007866328978470752895, 0.0005256407517154496143, 20.30113961381197640 ) ) ;
#212 = CIRCLE ( 'NONE', #239, 0.02099999975663867022 ) ;
#213 = CARTESIAN_POINT ( 'NONE',  ( 0.007622148579864855382, -0.002000102113332432978, 20.30321870410002916 ) ) ;
#214 = EDGE_CURVE ( 'NONE', #260, #357, #93, .T. ) ;
#215 = DIRECTION ( 'NONE',  ( -1.000000000000000000, 0.000000000000000000, 0.000000000000000000 ) ) ;
#216 = CARTESIAN_POINT ( 'NONE',  ( 1.657794839928382310E-07, -1.575656101843231152E-07, 20.20418680828792546 ) ) ;
#217 = CARTESIAN_POINT ( 'NONE',  ( -0.007718131917701268746, -0.001590046112987969365, 20.30186650658815495 ) ) ;
#218 = CARTESIAN_POINT ( 'NONE',  ( 1.657794839928382310E-07, -1.575656101843231152E-07, 20.30968680828792827 ) ) ;
#219 = AXIS2_PLACEMENT_3D ( 'NONE', #329, #385, #355 ) ;
#220 = CARTESIAN_POINT ( 'NONE',  ( -0.007718268839145950994, -0.001598571111431439399, 20.30431661549208755 ) ) ;
#221 = CARTESIAN_POINT ( 'NONE',  ( 0.007830819643326129495, -0.0008889990441622691282, 20.30488322983477900 ) ) ;
#222 = CARTESIAN_POINT ( 'NONE',  ( -0.007879834220516006987, -0.0001328513072476535269, 20.30508680828793189 ) ) ;
#223 = CARTESIAN_POINT ( 'NONE',  ( 0.007648445500454150586, -0.001897762470210789896, 20.30244153611060653 ) ) ;
#224 = CARTESIAN_POINT ( 'NONE',  ( -0.007684399914009786871, -0.001747284626233151913, 20.30409464799749841 ) ) ;
#225 = DIRECTION ( 'NONE',  ( 1.000000000000000000, 0.000000000000000000, 0.000000000000000000 ) ) ;
#226 = EDGE_LOOP ( 'NONE', ( #319, #251 ) ) ;
#227 = AXIS2_PLACEMENT_3D ( 'NONE', #173, #288, #351 ) ;
#228 = LINE ( 'NONE', #108, #325 ) ;
#229 = ORIENTED_EDGE ( 'NONE', *, *, #272, .T. ) ;
#230 = CARTESIAN_POINT ( 'NONE',  ( 0.007880165779483992716, -1.575656101833581065E-07, 20.30968680828792827 ) ) ;
#231 = ORIENTED_EDGE ( 'NONE', *, *, #253, .T. ) ;
#232 = CARTESIAN_POINT ( 'NONE',  ( -0.007768567464441917744, 0.001322678129475179801, 20.30459245620440001 ) ) ;
#233 = ORIENTED_EDGE ( 'NONE', *, *, #269, .F. ) ;
#234 = CIRCLE ( 'NONE', #336, 0.02099999975663867022 ) ;
#235 = ORIENTED_EDGE ( 'NONE', *, *, #269, .T. ) ;
#236 = CARTESIAN_POINT ( 'NONE',  ( 0.007636338205203695509, 0.001947689205660360330, 20.30256208185432243 ) ) ;
#237 = CARTESIAN_POINT ( 'NONE',  ( 0.007863971493286089909, 0.0005209986302534258930, 20.30502217993656089 ) ) ;
#238 = ORIENTED_EDGE ( 'NONE', *, *, #354, .F. ) ;
#239 = AXIS2_PLACEMENT_3D ( 'NONE', #182, #161, #183 ) ;
#240 = CARTESIAN_POINT ( 'NONE',  ( 0.007622123802785410809, 0.001999881407175582975, 20.30321812481794908 ) ) ;
#241 = FACE_OUTER_BOUND ( 'NONE', #290, .T. ) ;
#242 = DIRECTION ( 'NONE',  ( -1.000000000000000000, 0.000000000000000000, -0.000000000000000000 ) ) ;
#243 = CARTESIAN_POINT ( 'NONE',  ( 0.007864068949554735288, -0.0005196773936595458976, 20.30502257341368022 ) ) ;
#244 = CARTESIAN_POINT ( 'NONE',  ( -0.007879834220516006987, -1.575656101843231152E-07, 20.30108680828793055 ) ) ;
#245 = CARTESIAN_POINT ( 'NONE',  ( -0.007686945417912327723, -0.001734569965912500632, 20.30208246996980748 ) ) ;
#246 = CARTESIAN_POINT ( 'NONE',  ( 0.007625545102052054373, -0.001987290820087869638, 20.30334884697753850 ) ) ;
#247 =( GEOMETRIC_REPRESENTATION_CONTEXT ( 3 ) GLOBAL_UNCERTAINTY_ASSIGNED_CONTEXT ( ( #47 ) ) GLOBAL_UNIT_ASSIGNED_CONTEXT ( ( #98, #383, #56 ) ) REPRESENTATION_CONTEXT ( 'NONE', 'WORKASPACE' ) );
#248 = CARTESIAN_POINT ( 'NONE',  ( -0.007879834220516006987, -1.575656101843231152E-07, 20.30108680828793055 ) ) ;
#249 = CARTESIAN_POINT ( 'NONE',  ( 0.007876810796089029482, -0.0002637900539871856193, 20.30109991116895074 ) ) ;
#250 = CARTESIAN_POINT ( 'NONE',  ( -0.007863630377564840429, 0.0005211377508092607594, 20.30115147538544917 ) ) ;
#251 = ORIENTED_EDGE ( 'NONE', *, *, #207, .F. ) ;
#252 = CARTESIAN_POINT ( 'NONE',  ( -0.007648288584705995909, 0.001896730832930061846, 20.30373392660533938 ) ) ;
#253 = EDGE_CURVE ( 'NONE', #109, #113, #42, .T. ) ;
#254 = VERTEX_POINT ( 'NONE', #68 ) ;
#255 = CARTESIAN_POINT ( 'NONE',  ( -0.007785453155389162813, 0.001220687578064925602, 20.30149732281154940 ) ) ;
#256 = EDGE_LOOP ( 'NONE', ( #233, #384, #198, #238, #375, #58, #200, #293 ) ) ;
#257 = CARTESIAN_POINT ( 'NONE',  ( -0.007830641797936388135, 0.0008872904323387123537, 20.30128972212723681 ) ) ;
#258 = EDGE_LOOP ( 'NONE', ( #28, #235, #292, #287, #81, #175, #135, #322 ) ) ;
#259 = ADVANCED_FACE ( 'NONE', ( #40 ), #12, .T. ) ;
#260 = VERTEX_POINT ( 'NONE', #244 ) ;
#261 = VECTOR ( 'NONE', #43, 1.000000000000000000 ) ;
#262 = CARTESIAN_POINT ( 'NONE',  ( -0.01142760690611702504, -1.575656101840781904E-07, 20.30108680828793055 ) ) ;
#263 = CARTESIAN_POINT ( 'NONE',  ( 0.007625538724043366343, 0.001986996849469764917, 20.30334828924932822 ) ) ;
#264 = CARTESIAN_POINT ( 'NONE',  ( 0.007718463476669252740, 0.001589730981767600946, 20.30186650658815495 ) ) ;
#265 = PRODUCT ( 'Pin_Stack', 'Pin_Stack', '', ( #376 ) ) ;
#266 = CARTESIAN_POINT ( 'NONE',  ( 1.657794839928382310E-07, -1.575656101843231152E-07, 20.20418680828792546 ) ) ;
#267 = AXIS2_PLACEMENT_3D ( 'NONE', #184, #11, #215 ) ;
#268 = CARTESIAN_POINT ( 'NONE',  ( 0.007687276976880312584, 0.001734254834692131996, 20.30208246996980748 ) ) ;
#269 = EDGE_CURVE ( 'NONE', #314, #254, #71, .T. ) ;
#270 = CARTESIAN_POINT ( 'NONE',  ( 1.657794839928382310E-07, -1.575656101843231152E-07, 20.19618680828792634 ) ) ;
#271 = CYLINDRICAL_SURFACE ( 'NONE', #181, 0.001999999999998891553 ) ;
#272 = EDGE_CURVE ( 'NONE', #21, #79, #228, .T. ) ;
#273 = CARTESIAN_POINT ( 'NONE',  ( 0.007638796364532294755, -0.001935726014048928930, 20.30256648124592544 ) ) ;
#274 = CARTESIAN_POINT ( 'NONE',  ( -0.007621792243817425948, -0.002000196538395951611, 20.30321812481794908 ) ) ;
#275 = DIRECTION ( 'NONE',  ( 0.000000000000000000, 0.000000000000000000, -1.000000000000000000 ) ) ;
#276 = B_SPLINE_CURVE_WITH_KNOTS ( 'NONE', 3,
 ( #248, #279, #75, #45, #96, #191, #337, #67, #217, #245, #303, #309, #334, #274, #69, #38, #194, #224, #220, #371, #157, #72, #332, #36, #222, #126 ),
 .UNSPECIFIED., .F., .F.,
 ( 4, 2, 2, 2, 2, 2, 2, 2, 2, 2, 2, 2, 4 ),
 ( 0.006278685343245830192, 0.007063309085914822386, 0.007455620957249319350, 0.007847932828583814580, 0.008240244699918311544, 0.008632556571252808508, 0.009417180313921800702, 0.009809492185251013699, 0.01020180405658022496, 0.01098642779923865442, 0.01177105154189708042, 0.01216336341322629341, 0.01255567528455550814 ),
 .UNSPECIFIED. ) ;
#277 = CARTESIAN_POINT ( 'NONE',  ( 0.007768899023409903473, -0.001322993260695548654, 20.30459245620440001 ) ) ;
#278 = ADVANCED_FACE ( 'NONE', ( #317 ), #20, .F. ) ;
#279 = CARTESIAN_POINT ( 'NONE',  ( -0.007879834220516006987, -0.0002617889696185128623, 20.30108680828793766 ) ) ;
#280 = CARTESIAN_POINT ( 'NONE',  ( 0.007718489171315253035, -0.001599330600395139357, 20.30185747049067047 ) ) ;
#281 = SURFACE_STYLE_USAGE ( .BOTH. , #77 ) ;
#282 = CARTESIAN_POINT ( 'NONE',  ( -0.007768846726538920430, 0.001321096488414934701, 20.30157967717934753 ) ) ;
#283 = ORIENTED_EDGE ( 'NONE', *, *, #354, .T. ) ;
#284 = EDGE_CURVE ( 'NONE', #314, #88, #370, .T. ) ;
#285 = CARTESIAN_POINT ( 'NONE',  ( -0.007854180244912413802, 0.0006467022633704292821, 20.30498384331913542 ) ) ;
#286 = APPLICATION_CONTEXT ( 'automotive_design' ) ;
#287 = ORIENTED_EDGE ( 'NONE', *, *, #185, .T. ) ;
#288 = DIRECTION ( 'NONE',  ( 0.000000000000000000, 0.000000000000000000, 1.000000000000000000 ) ) ;
#289 = CARTESIAN_POINT ( 'NONE',  ( -0.007648113941486163990, 0.001897447338990420826, 20.30244153611060653 ) ) ;
#290 = EDGE_LOOP ( 'NONE', ( #23, #229, #208, #54 ) ) ;
#291 = CARTESIAN_POINT ( 'NONE',  ( -0.007684568419939465274, 0.001746269799292767119, 20.30207729668010685 ) ) ;
#292 = ORIENTED_EDGE ( 'NONE', *, *, #55, .F. ) ;
#293 = ORIENTED_EDGE ( 'NONE', *, *, #162, .F. ) ;
#294 = CARTESIAN_POINT ( 'NONE',  ( 0.007880165779483992716, -1.575656101872185650E-07, 20.30508680828792833 ) ) ;
#295 = MECHANICAL_DESIGN_GEOMETRIC_PRESENTATION_REPRESENTATION (  '', ( #147 ), #320 ) ;
#296 = DIRECTION ( 'NONE',  ( 0.000000000000000000, 0.000000000000000000, -1.000000000000000000 ) ) ;
#297 = CARTESIAN_POINT ( 'NONE',  ( 0.02100016553612266135, -1.575656101817513644E-07, 20.19618680828792634 ) ) ;
#298 = ORIENTED_EDGE ( 'NONE', *, *, #193, .T. ) ;
#299 = CIRCLE ( 'NONE', #219, 0.007879999999999999852 ) ;
#300 = DIRECTION ( 'NONE',  ( 1.000000000000000000, 0.000000000000000000, -0.000000000000000000 ) ) ;
#301 = CARTESIAN_POINT ( 'NONE',  ( 0.007625603574771167188, -0.001987064927223401983, 20.30282343671467515 ) ) ;
#302 = CARTESIAN_POINT ( 'NONE',  ( 0.007718634080183943078, -0.001598434468082452712, 20.30431684513344237 ) ) ;
#303 = CARTESIAN_POINT ( 'NONE',  ( -0.007672599038457255174, -0.001796205766099448356, 20.30219710492155372 ) ) ;
#304 = DIRECTION ( 'NONE',  ( -0.000000000000000000, -0.000000000000000000, -1.000000000000000000 ) ) ;
#305 = AXIS2_PLACEMENT_3D ( 'NONE', #270, #125, #242 ) ;
#306 = CARTESIAN_POINT ( 'NONE',  ( 1.657794839928382310E-07, -1.575656101843231152E-07, 20.20418680828792546 ) ) ;
#307 = FILL_AREA_STYLE_COLOUR ( '', #321 ) ;
#308 = FACE_OUTER_BOUND ( 'NONE', #380, .T. ) ;
#309 = CARTESIAN_POINT ( 'NONE',  ( -0.007636006646235708045, -0.001948004336880729834, 20.30256208185432243 ) ) ;
#310 = CARTESIAN_POINT ( 'NONE',  ( 1.657794839928382310E-07, -1.575656101843231152E-07, 20.30968680828792827 ) ) ;
#311 = AXIS2_PLACEMENT_3D ( 'NONE', #158, #275, #127 ) ;
#312 = ADVANCED_FACE ( 'NONE', ( #111, #103 ), #78, .F. ) ;
#313 = CARTESIAN_POINT ( 'NONE',  ( -0.007879834220516006987, 0.0001325720163310915801, 20.30508680828793544 ) ) ;
#314 = VERTEX_POINT ( 'NONE', #230 ) ;
#315 = CARTESIAN_POINT ( 'NONE',  ( -0.007625272015803181459, 0.001986749796003033346, 20.30282343671467515 ) ) ;
#316 = EDGE_LOOP ( 'NONE', ( #169, #49 ) ) ;
#317 = FACE_OUTER_BOUND ( 'NONE', #52, .T. ) ;
#318 = EDGE_CURVE ( 'NONE', #85, #260, #352, .T. ) ;
#319 = ORIENTED_EDGE ( 'NONE', *, *, #324, .F. ) ;
#320 =( GEOMETRIC_REPRESENTATION_CONTEXT ( 3 ) GLOBAL_UNCERTAINTY_ASSIGNED_CONTEXT ( ( #142 ) ) GLOBAL_UNIT_ASSIGNED_CONTEXT ( ( #133, #364, #366 ) ) REPRESENTATION_CONTEXT ( 'NONE', 'WORKASPACE' ) );
#321 = COLOUR_RGB ( '',0.7921568627450980005, 0.8196078431372548767, 0.9333333333333333481 ) ;
#322 = ORIENTED_EDGE ( 'NONE', *, *, #328, .F. ) ;
#323 = CARTESIAN_POINT ( 'NONE',  ( 0.007876817162002123021, 0.0002632946752016234707, 20.30507373056009612 ) ) ;
#324 = EDGE_CURVE ( 'NONE', #357, #349, #350, .T. ) ;
#325 = VECTOR ( 'NONE', #25, 1.000000000000000000 ) ;
#326 = DIRECTION ( 'NONE',  ( -1.000000000000000000, 0.000000000000000000, 0.000000000000000000 ) ) ;
#327 = CARTESIAN_POINT ( 'NONE',  ( 0.007684731472977773467, 0.001746969495012783277, 20.30409464799749841 ) ) ;
#328 = EDGE_CURVE ( 'NONE', #88, #85, #166, .T. ) ;
#329 = CARTESIAN_POINT ( 'NONE',  ( 1.657794839928382310E-07, -1.575656101843231152E-07, 20.30968680828792827 ) ) ;
#330 = DIRECTION ( 'NONE',  ( -1.000000000000000000, 0.000000000000000000, 0.000000000000000000 ) ) ;
#331 = CARTESIAN_POINT ( 'NONE',  ( -0.02099983397715467909, -1.575656101843231152E-07, 20.20418680828792546 ) ) ;
#332 = CARTESIAN_POINT ( 'NONE',  ( -0.007863639934318104180, -0.0005213137614737947461, 20.30502217993656089 ) ) ;
#333 = DIRECTION ( 'NONE',  ( 0.000000000000000000, 0.000000000000000000, -1.000000000000000000 ) ) ;
#334 = CARTESIAN_POINT ( 'NONE',  ( -0.007621822992150232949, -0.002000079356982248976, 20.30282239852398618 ) ) ;
#335 = DIRECTION ( 'NONE',  ( 1.000000000000000000, 0.000000000000000000, 0.000000000000000000 ) ) ;
#336 = AXIS2_PLACEMENT_3D ( 'NONE', #306, #164, #35 ) ;
#337 = CARTESIAN_POINT ( 'NONE',  ( -0.007768812031785173391, -0.001321586590966848185, 20.30157988156296867 ) ) ;
#338 = CARTESIAN_POINT ( 'NONE',  ( 0.007622119571935277033, -0.002000212662102053649, 20.30295659957005583 ) ) ;
#339 = CARTESIAN_POINT ( 'NONE',  ( 0.007880165779483992716, -1.575656101833581065E-07, 20.20418680828792546 ) ) ;
#340 = CARTESIAN_POINT ( 'NONE',  ( -0.007879834220516006987, -1.575656101843231152E-07, 20.30108680828793055 ) ) ;
#341 = EDGE_CURVE ( 'NONE', #254, #85, #163, .T. ) ;
#342 = DIRECTION ( 'NONE',  ( 0.000000000000000000, 0.000000000000000000, 1.000000000000000000 ) ) ;
#343 = ORIENTED_EDGE ( 'NONE', *, *, #9, .T. ) ;
#344 = CARTESIAN_POINT ( 'NONE',  ( -0.007621817020896869653, 0.001999786982112064342, 20.30321870410002916 ) ) ;
#345 = ORIENTED_EDGE ( 'NONE', *, *, #341, .T. ) ;
#346 = CARTESIAN_POINT ( 'NONE',  ( -0.007879834220516006987, -1.575656101814276390E-07, 20.30508680828792833 ) ) ;
#347 = ORIENTED_EDGE ( 'NONE', *, *, #162, .T. ) ;
#348 = CARTESIAN_POINT ( 'NONE',  ( -0.007876479237121047222, 0.0002634749227668179046, 20.30109991116895429 ) ) ;
#349 = VERTEX_POINT ( 'NONE', #339 ) ;
#350 = CIRCLE ( 'NONE', #106, 0.007879999999999999852 ) ;
#351 = DIRECTION ( 'NONE',  ( 1.000000000000000000, 0.000000000000000000, 0.000000000000000000 ) ) ;
#352 = B_SPLINE_CURVE_WITH_KNOTS ( 'NONE', 3,
 ( #346, #313, #48, #134, #285, #377, #22, #82, #232, #168, #51, #252, #105, #170, #344, #199, #315, #50, #289, #291, #140, #282, #255, #379, #257, #381, #250, #348, #83, #340 ),
 .UNSPECIFIED., .F., .F.,
 ( 4, 2, 2, 2, 2, 2, 2, 2, 2, 2, 2, 2, 2, 2, 4 ),
 ( 2.812149384884277126E-18, 0.0003924178339518876292, 0.0007848356679037724395, 0.001177253501855657358, 0.001569671335807542060, 0.002354507003718779232, 0.002746924837674398143, 0.003139342671630016620, 0.003531760505585635097, 0.003924178339541254008, 0.004709014007442779981, 0.005101431841393542534, 0.005493849675344305086, 0.005886267509295067639, 0.006278685343245830192 ),
 .UNSPECIFIED. ) ;
#353 = DIRECTION ( 'NONE',  ( -1.000000000000000000, 0.000000000000000000, 0.000000000000000000 ) ) ;
#354 = EDGE_CURVE ( 'NONE', #260, #85, #276, .T. ) ;
#355 = DIRECTION ( 'NONE',  ( 1.000000000000000000, 0.000000000000000000, 0.000000000000000000 ) ) ;
#356 = ADVANCED_FACE ( 'NONE', ( #13 ), #165, .T. ) ;
#357 = VERTEX_POINT ( 'NONE', #8 ) ;
#358 = CARTESIAN_POINT ( 'NONE',  ( -0.007879834220516006987, -1.575656101814276390E-07, 20.30508680828792833 ) ) ;
#359 = MANIFOLD_SOLID_BREP ( 'Scale1', #26 ) ;
#360 = PRODUCT_DEFINITION ( 'UNKNOWN', '', #188, #74 ) ;
#361 = CARTESIAN_POINT ( 'NONE',  ( 0.007880165779483989247, 0.0002614738383981457981, 20.30108680828793766 ) ) ;
#362 = AXIS2_PLACEMENT_3D ( 'NONE', #218, #192, #10 ) ;
#363 = DIRECTION ( 'NONE',  ( 0.000000000000000000, 0.000000000000000000, 1.000000000000000000 ) ) ;
#364 =( NAMED_UNIT ( * ) PLANE_ANGLE_UNIT ( ) SI_UNIT ( $, .RADIAN. ) );
#365 = CARTESIAN_POINT ( 'NONE',  ( -0.007879834220516006987, -1.575656101843231152E-07, 20.30968680828792827 ) ) ;
#366 =( NAMED_UNIT ( * ) SI_UNIT ( $, .STERADIAN. ) SOLID_ANGLE_UNIT ( ) );
#367 = CARTESIAN_POINT ( 'NONE',  ( 0.007785839194719131572, -0.001220691228245977767, 20.30467656926400366 ) ) ;
#368 = PRODUCT_RELATED_PRODUCT_CATEGORY ( 'part', '', ( #265 ) ) ;
#369 = CARTESIAN_POINT ( 'NONE',  ( 0.007684746993083723873, -0.001747203816298458640, 20.30409458815028145 ) ) ;
#370 = CIRCLE ( 'NONE', #39, 0.007879999999999999852 ) ;
#371 = CARTESIAN_POINT ( 'NONE',  ( -0.007785225665838958406, -0.001231757690903405441, 20.30468384077170185 ) ) ;
#372 = ADVANCED_FACE ( 'NONE', ( #187 ), #271, .F. ) ;
#373 = CARTESIAN_POINT ( 'NONE',  ( 0.007816773752987733748, -0.001003677739241015101, 20.30482174046060706 ) ) ;
#374 = DIRECTION ( 'NONE',  ( -0.000000000000000000, -0.000000000000000000, -1.000000000000000000 ) ) ;
#375 = ORIENTED_EDGE ( 'NONE', *, *, #214, .T. ) ;
#376 = PRODUCT_CONTEXT ( 'NONE', #286, 'mechanical' ) ;
#377 = CARTESIAN_POINT ( 'NONE',  ( -0.007830488084358145501, 0.0008886839129419002751, 20.30488322983477900 ) ) ;
#378 = ORIENTED_EDGE ( 'NONE', *, *, #318, .T. ) ;
#379 = CARTESIAN_POINT ( 'NONE',  ( -0.007816294040926890022, 0.001004472186981680967, 20.30135255167351360 ) ) ;
#380 = EDGE_LOOP ( 'NONE', ( #144, #298 ) ) ;
#381 = CARTESIAN_POINT ( 'NONE',  ( -0.007854245124741631237, 0.0006458614830482870949, 20.30118950968023128 ) ) ;
#382 = EDGE_LOOP ( 'NONE', ( #145, #202, #345, #378 ) ) ;
#383 =( NAMED_UNIT ( * ) PLANE_ANGLE_UNIT ( ) SI_UNIT ( $, .RADIAN. ) );
#384 = ORIENTED_EDGE ( 'NONE', *, *, #84, .F. ) ;
#385 = DIRECTION ( 'NONE',  ( 0.000000000000000000, 0.000000000000000000, 1.000000000000000000 ) ) ;
ENDSEC;
END-ISO-10303-21;
