ISO-10303-21;
HEADER;
FILE_DESCRIPTION (( 'STEP AP214' ),
    '1' );
FILE_NAME ('ServoBracket.STEP',
    '2026-01-30T01:14:31',
    ( '' ),
    ( '' ),
    'SwSTEP 2.0',
    'SolidWorks 2025',
    '' );
FILE_SCHEMA (( 'AUTOMOTIVE_DESIGN' ));
ENDSEC;

DATA;
#1 =( GEOMETRIC_REPRESENTATION_CONTEXT ( 3 ) GLOBAL_UNCERTAINTY_ASSIGNED_CONTEXT ( ( #597 ) ) GLOBAL_UNIT_ASSIGNED_CONTEXT ( ( #1044, #701, #959 ) ) REPRESENTATION_CONTEXT ( 'NONE', 'WORKASPACE' ) );
#2 = CARTESIAN_POINT ( 'NONE',  ( 32.59999999999999432, 28.80000000000000071, 0.000000000000000000 ) ) ;
#3 = VERTEX_POINT ( 'NONE', #675 ) ;
#4 = ORIENTED_EDGE ( 'NONE', *, *, #992, .T. ) ;
#5 = ADVANCED_FACE ( 'NONE', ( #749, #417 ), #506, .T. ) ;
#6 = VECTOR ( 'NONE', #977, 1000.000000000000000 ) ;
#7 = CARTESIAN_POINT ( 'NONE',  ( 30.39999999999999503, 10.00000000000000000, -9.172499999999999432 ) ) ;
#8 = LINE ( 'NONE', #870, #361 ) ;
#9 = CARTESIAN_POINT ( 'NONE',  ( 0.000000000000000000, 10.00000000000000000, 0.000000000000000000 ) ) ;
#10 = VERTEX_POINT ( 'NONE', #318 ) ;
#11 = EDGE_CURVE ( 'NONE', #94, #733, #845, .T. ) ;
#12 = DIRECTION ( 'NONE',  ( 0.000000000000000000, -0.000000000000000000, -1.000000000000000000 ) ) ;
#13 = DIRECTION ( 'NONE',  ( -8.673617379884035472E-16, -1.000000000000000000, 0.000000000000000000 ) ) ;
#14 = PLANE ( 'NONE',  #338 ) ;
#15 = EDGE_LOOP ( 'NONE', ( #4, #76, #1110, #407 ) ) ;
#16 = CARTESIAN_POINT ( 'NONE',  ( 32.59999999999999432, 24.80000000000000071, -27.34499999999999886 ) ) ;
#17 = ADVANCED_FACE ( 'NONE', ( #1092 ), #658, .F. ) ;
#18 = VECTOR ( 'NONE', #62, 1000.000000000000000 ) ;
#19 = LINE ( 'NONE', #241, #1094 ) ;
#20 = ORIENTED_EDGE ( 'NONE', *, *, #692, .T. ) ;
#21 = FILL_AREA_STYLE ('',( #207 ) ) ;
#22 = APPLICATION_PROTOCOL_DEFINITION ( 'draft international standard', 'automotive_design', 1998, #898 ) ;
#23 = DIRECTION ( 'NONE',  ( -0.000000000000000000, 0.000000000000000000, 1.000000000000000000 ) ) ;
#24 = CARTESIAN_POINT ( 'NONE',  ( 9.599999999999997868, 19.79999999999999716, -27.34600000000000009 ) ) ;
#25 = AXIS2_PLACEMENT_3D ( 'NONE', #795, #993, #226 ) ;
#26 = ORIENTED_EDGE ( 'NONE', *, *, #842, .F. ) ;
#27 = LINE ( 'NONE', #705, #880 ) ;
#28 = LINE ( 'NONE', #92, #700 ) ;
#29 = DIRECTION ( 'NONE',  ( -1.000000000000000000, 0.000000000000000000, 0.000000000000000000 ) ) ;
#30 = ORIENTED_EDGE ( 'NONE', *, *, #315, .F. ) ;
#31 = DIRECTION ( 'NONE',  ( 0.7071067811865482389, 0.7071067811865469066, -0.000000000000000000 ) ) ;
#32 = ADVANCED_FACE ( 'NONE', ( #580 ), #670, .F. ) ;
#33 = LINE ( 'NONE', #196, #817 ) ;
#34 = DIRECTION ( 'NONE',  ( 0.000000000000000000, 0.000000000000000000, 1.000000000000000000 ) ) ;
#35 = LINE ( 'NONE', #796, #930 ) ;
#36 = VERTEX_POINT ( 'NONE', #1109 ) ;
#37 = DIRECTION ( 'NONE',  ( 0.7071067811865463515, -0.7071067811865487940, -0.000000000000000000 ) ) ;
#38 = EDGE_CURVE ( 'NONE', #429, #632, #367, .T. ) ;
#39 = CARTESIAN_POINT ( 'NONE',  ( 27.59999999999999787, 15.80000000000000782, -27.34499999999999886 ) ) ;
#40 = CARTESIAN_POINT ( 'NONE',  ( 37.19999999999999574, 10.00000000000000000, -18.34499999999999886 ) ) ;
#41 = ORIENTED_EDGE ( 'NONE', *, *, #526, .F. ) ;
#42 = VECTOR ( 'NONE', #73, 1000.000000000000000 ) ;
#43 = ORIENTED_EDGE ( 'NONE', *, *, #157, .F. ) ;
#44 = AXIS2_PLACEMENT_3D ( 'NONE', #99, #23, #362 ) ;
#45 = CARTESIAN_POINT ( 'NONE',  ( 13.59999999999999432, 10.79999999999997939, -18.34499999999999886 ) ) ;
#46 = EDGE_CURVE ( 'NONE', #172, #529, #271, .T. ) ;
#47 = FACE_OUTER_BOUND ( 'NONE', #349, .T. ) ;
#48 = ORIENTED_EDGE ( 'NONE', *, *, #637, .T. ) ;
#49 = ORIENTED_EDGE ( 'NONE', *, *, #911, .T. ) ;
#50 = CARTESIAN_POINT ( 'NONE',  ( 9.599999999999996092, 14.79999999999999716, -27.34600000000000009 ) ) ;
#51 = LINE ( 'NONE', #411, #1061 ) ;
#52 = EDGE_LOOP ( 'NONE', ( #309, #1073, #972, #342 ) ) ;
#53 = ADVANCED_FACE ( 'NONE', ( #777 ), #510, .F. ) ;
#54 = VECTOR ( 'NONE', #855, 1000.000000000000000 ) ;
#55 = VERTEX_POINT ( 'NONE', #859 ) ;
#56 = PLANE ( 'NONE',  #974 ) ;
#57 = DIRECTION ( 'NONE',  ( 0.000000000000000000, 1.000000000000000000, 0.000000000000000000 ) ) ;
#58 = VERTEX_POINT ( 'NONE', #188 ) ;
#59 = EDGE_LOOP ( 'NONE', ( #550, #879, #160, #805 ) ) ;
#60 = VECTOR ( 'NONE', #381, 1000.000000000000000 ) ;
#61 = DIRECTION ( 'NONE',  ( 0.000000000000000000, 0.000000000000000000, -1.000000000000000000 ) ) ;
#62 = DIRECTION ( 'NONE',  ( 0.000000000000000000, -1.000000000000000000, 0.000000000000000000 ) ) ;
#63 = ORIENTED_EDGE ( 'NONE', *, *, #520, .T. ) ;
#64 = ORIENTED_EDGE ( 'NONE', *, *, #914, .T. ) ;
#65 = LINE ( 'NONE', #356, #217 ) ;
#66 = EDGE_CURVE ( 'NONE', #932, #353, #853, .T. ) ;
#67 = CARTESIAN_POINT ( 'NONE',  ( 13.59999999999999964, 10.00000000000000000, 0.000000000000000000 ) ) ;
#68 = LINE ( 'NONE', #748, #477 ) ;
#69 = EDGE_LOOP ( 'NONE', ( #561, #470 ) ) ;
#70 = VERTEX_POINT ( 'NONE', #965 ) ;
#71 = CARTESIAN_POINT ( 'NONE',  ( 23.59999999999996945, 19.79999999999999716, -18.34499999999999886 ) ) ;
#72 = CIRCLE ( 'NONE', #837, 1.750000000000005107 ) ;
#73 = DIRECTION ( 'NONE',  ( 1.000000000000000000, -0.000000000000000000, -0.000000000000000000 ) ) ;
#74 = FACE_BOUND ( 'NONE', #69, .T. ) ;
#75 = ORIENTED_EDGE ( 'NONE', *, *, #801, .T. ) ;
#76 = ORIENTED_EDGE ( 'NONE', *, *, #692, .F. ) ;
#77 = AXIS2_PLACEMENT_3D ( 'NONE', #593, #939, #123 ) ;
#78 = CARTESIAN_POINT ( 'NONE',  ( 6.799999999999997158, 10.00000000000000000, -9.172499999999995879 ) ) ;
#79 = AXIS2_PLACEMENT_3D ( 'NONE', #607, #953, #451 ) ;
#80 = DIRECTION ( 'NONE',  ( -1.000000000000000000, -0.000000000000000000, -0.000000000000000000 ) ) ;
#81 = DIRECTION ( 'NONE',  ( 0.000000000000000000, 0.000000000000000000, 1.000000000000000000 ) ) ;
#82 = EDGE_CURVE ( 'NONE', #653, #55, #28, .T. ) ;
#83 = ORIENTED_EDGE ( 'NONE', *, *, #1025, .F. ) ;
#84 = CARTESIAN_POINT ( 'NONE',  ( 37.19999999999999574, 10.00000000000000000, 0.000000000000000000 ) ) ;
#85 = CARTESIAN_POINT ( 'NONE',  ( 6.799999999999997158, 0.000000000000000000, -10.92250000000000121 ) ) ;
#86 = EDGE_LOOP ( 'NONE', ( #496, #48, #458, #228 ) ) ;
#87 = EDGE_CURVE ( 'NONE', #906, #498, #8, .T. ) ;
#88 = ORIENTED_EDGE ( 'NONE', *, *, #1057, .T. ) ;
#89 = VECTOR ( 'NONE', #598, 1000.000000000000000 ) ;
#90 = VECTOR ( 'NONE', #420, 1000.000000000000000 ) ;
#91 = CARTESIAN_POINT ( 'NONE',  ( 0.000000000000000000, 0.000000000000000000, 0.000000000000000000 ) ) ;
#92 = CARTESIAN_POINT ( 'NONE',  ( 6.349999999999994316, -0.001000000000001000089, -24.59500000000000242 ) ) ;
#93 = LINE ( 'NONE', #156, #621 ) ;
#94 = VERTEX_POINT ( 'NONE', #198 ) ;
#95 = EDGE_CURVE ( 'NONE', #498, #1076, #719, .T. ) ;
#96 = VECTOR ( 'NONE', #130, 1000.000000000000000 ) ;
#97 = DIRECTION ( 'NONE',  ( 0.000000000000000000, 1.000000000000000000, 0.000000000000000000 ) ) ;
#98 = VECTOR ( 'NONE', #742, 1000.000000000000000 ) ;
#99 = CARTESIAN_POINT ( 'NONE',  ( 6.349999999999994316, -0.001000000000001000089, -24.59500000000000242 ) ) ;
#100 = CARTESIAN_POINT ( 'NONE',  ( 0.000000000000000000, 10.00000000000000000, -27.34499999999999886 ) ) ;
#101 = ORIENTED_EDGE ( 'NONE', *, *, #219, .T. ) ;
#102 = EDGE_CURVE ( 'NONE', #357, #985, #439, .T. ) ;
#103 = CARTESIAN_POINT ( 'NONE',  ( 23.59999999999999432, 10.00000000000000000, -27.34499999999999886 ) ) ;
#104 = DIRECTION ( 'NONE',  ( -1.000000000000000000, 0.000000000000000000, 0.000000000000000000 ) ) ;
#105 = CARTESIAN_POINT ( 'NONE',  ( 6.349999999999994316, 35.79999999999999716, -24.59500000000000242 ) ) ;
#106 = ORIENTED_EDGE ( 'NONE', *, *, #423, .F. ) ;
#107 = FACE_BOUND ( 'NONE', #245, .T. ) ;
#108 = LINE ( 'NONE', #893, #712 ) ;
#109 = CIRCLE ( 'NONE', #252, 1.750000000000005107 ) ;
#110 = CARTESIAN_POINT ( 'NONE',  ( 4.599999999999999645, 28.80000000000000071, 0.000000000000000000 ) ) ;
#111 = VECTOR ( 'NONE', #852, 1000.000000000000000 ) ;
#112 = DIRECTION ( 'NONE',  ( -0.000000000000000000, -1.000000000000000000, -0.000000000000000000 ) ) ;
#113 = ORIENTED_EDGE ( 'NONE', *, *, #807, .T. ) ;
#114 = ADVANCED_BREP_SHAPE_REPRESENTATION ( 'ServoBracket', ( #461, #767 ), #1 ) ;
#115 = CARTESIAN_POINT ( 'NONE',  ( 23.59999999999996945, 19.79999999999999716, -18.34499999999999886 ) ) ;
#116 = DIRECTION ( 'NONE',  ( 0.000000000000000000, 1.000000000000000000, 0.000000000000000000 ) ) ;
#117 = EDGE_LOOP ( 'NONE', ( #282, #652, #88, #671 ) ) ;
#118 = EDGE_CURVE ( 'NONE', #632, #3, #785, .T. ) ;
#119 = DIRECTION ( 'NONE',  ( -0.000000000000000000, -1.000000000000000000, -0.000000000000000000 ) ) ;
#120 = LINE ( 'NONE', #294, #424 ) ;
#121 = VERTEX_POINT ( 'NONE', #351 ) ;
#122 = ADVANCED_FACE ( 'NONE', ( #601 ), #624, .T. ) ;
#123 = DIRECTION ( 'NONE',  ( 0.000000000000000000, 0.000000000000000000, 1.000000000000000000 ) ) ;
#124 = DIRECTION ( 'NONE',  ( -0.7071067811865487940, -0.7071067811865463515, -0.000000000000000000 ) ) ;
#125 = DIRECTION ( 'NONE',  ( 0.000000000000000000, -0.000000000000000000, -1.000000000000000000 ) ) ;
#126 = ORIENTED_EDGE ( 'NONE', *, *, #284, .T. ) ;
#127 = AXIS2_PLACEMENT_3D ( 'NONE', #528, #29, #368 ) ;
#128 = ORIENTED_EDGE ( 'NONE', *, *, #857, .T. ) ;
#129 = EDGE_CURVE ( 'NONE', #729, #938, #790, .T. ) ;
#130 = DIRECTION ( 'NONE',  ( 0.000000000000000000, 0.000000000000000000, -1.000000000000000000 ) ) ;
#131 = DIRECTION ( 'NONE',  ( -0.000000000000000000, 1.000000000000000000, -0.000000000000000000 ) ) ;
#132 = ORIENTED_EDGE ( 'NONE', *, *, #1062, .F. ) ;
#133 = CIRCLE ( 'NONE', #503, 1.750000000000003331 ) ;
#134 = ORIENTED_EDGE ( 'NONE', *, *, #169, .F. ) ;
#135 = EDGE_CURVE ( 'NONE', #70, #937, #702, .T. ) ;
#136 = CARTESIAN_POINT ( 'NONE',  ( 9.599999999999997868, 19.79999999999999716, -27.34499999999999886 ) ) ;
#137 = CARTESIAN_POINT ( 'NONE',  ( -6.938893903907228378E-15, 35.79999999999999716, -18.34499999999999886 ) ) ;
#138 = ORIENTED_EDGE ( 'NONE', *, *, #1050, .T. ) ;
#139 = ORIENTED_EDGE ( 'NONE', *, *, #437, .F. ) ;
#140 = DIRECTION ( 'NONE',  ( 0.000000000000000000, 1.000000000000000000, -0.000000000000000000 ) ) ;
#141 = DIRECTION ( 'NONE',  ( -0.000000000000000000, -0.000000000000000000, 1.000000000000000000 ) ) ;
#142 = EDGE_LOOP ( 'NONE', ( #609, #556, #139, #787 ) ) ;
#143 = VECTOR ( 'NONE', #469, 1000.000000000000000 ) ;
#144 = ORIENTED_EDGE ( 'NONE', *, *, #958, .F. ) ;
#145 = CIRCLE ( 'NONE', #677, 1.750000000000004219 ) ;
#146 = DIRECTION ( 'NONE',  ( -0.7071067811865439090, -0.7071067811865512365, 0.000000000000000000 ) ) ;
#147 = CARTESIAN_POINT ( 'NONE',  ( 9.599999999999997868, 19.79999999999999716, -18.34499999999999886 ) ) ;
#148 = ORIENTED_EDGE ( 'NONE', *, *, #949, .T. ) ;
#149 = EDGE_CURVE ( 'NONE', #357, #653, #328, .T. ) ;
#150 = AXIS2_PLACEMENT_3D ( 'NONE', #243, #571, #564 ) ;
#151 = CARTESIAN_POINT ( 'NONE',  ( 37.19999999999999574, 35.79999999999999716, -18.34499999999999886 ) ) ;
#152 = LINE ( 'NONE', #254, #430 ) ;
#153 = PLANE ( 'NONE',  #1040 ) ;
#154 = ORIENTED_EDGE ( 'NONE', *, *, #231, .T. ) ;
#155 = ORIENTED_EDGE ( 'NONE', *, *, #942, .T. ) ;
#156 = CARTESIAN_POINT ( 'NONE',  ( 16.69999999999986073, 26.70000000000003482, -27.34499999999999886 ) ) ;
#157 = EDGE_CURVE ( 'NONE', #421, #412, #685, .T. ) ;
#158 = CARTESIAN_POINT ( 'NONE',  ( 27.59999999999999787, 19.79999999999999716, -27.34499999999999886 ) ) ;
#159 = CARTESIAN_POINT ( 'NONE',  ( 31.09999999999999432, 35.79999999999999716, -27.34499999999999886 ) ) ;
#160 = ORIENTED_EDGE ( 'NONE', *, *, #587, .F. ) ;
#161 = VERTEX_POINT ( 'NONE', #16 ) ;
#162 = VECTOR ( 'NONE', #918, 1000.000000000000000 ) ;
#163 = ADVANCED_FACE ( 'NONE', ( #970 ), #355, .T. ) ;
#164 = CARTESIAN_POINT ( 'NONE',  ( 32.59999999999999432, 28.80000000000000071, -27.34499999999999886 ) ) ;
#165 = DIRECTION ( 'NONE',  ( 0.000000000000000000, 1.000000000000000000, 0.000000000000000000 ) ) ;
#166 = EDGE_LOOP ( 'NONE', ( #257, #422, #544, #596 ) ) ;
#167 = ORIENTED_EDGE ( 'NONE', *, *, #914, .F. ) ;
#168 = LINE ( 'NONE', #582, #344 ) ;
#169 = EDGE_CURVE ( 'NONE', #436, #36, #191, .T. ) ;
#170 = CARTESIAN_POINT ( 'NONE',  ( 32.59999999999999432, 24.80000000000000071, -18.34499999999999886 ) ) ;
#171 = ORIENTED_EDGE ( 'NONE', *, *, #315, .T. ) ;
#172 = VERTEX_POINT ( 'NONE', #347 ) ;
#173 = CARTESIAN_POINT ( 'NONE',  ( 13.59999999999998899, 19.79999999999999716, -27.34499999999999886 ) ) ;
#174 = DIRECTION ( 'NONE',  ( 0.000000000000000000, -1.000000000000000000, 0.000000000000000000 ) ) ;
#175 = ORIENTED_EDGE ( 'NONE', *, *, #877, .T. ) ;
#176 = CARTESIAN_POINT ( 'NONE',  ( 0.000000000000000000, 10.00000000000000000, 0.000000000000000000 ) ) ;
#177 = EDGE_LOOP ( 'NONE', ( #1055, #200, #649, #581, #926 ) ) ;
#178 = VECTOR ( 'NONE', #505, 1000.000000000000000 ) ;
#179 = VECTOR ( 'NONE', #186, 1000.000000000000000 ) ;
#180 = CARTESIAN_POINT ( 'NONE',  ( 13.59999999999999964, 10.00000000000000000, 0.000000000000000000 ) ) ;
#181 = DIRECTION ( 'NONE',  ( -0.000000000000000000, 1.000000000000000000, -0.000000000000000000 ) ) ;
#182 = DIRECTION ( 'NONE',  ( 0.000000000000000000, -1.000000000000000000, -0.000000000000000000 ) ) ;
#183 = VERTEX_POINT ( 'NONE', #687 ) ;
#184 = ADVANCED_FACE ( 'NONE', ( #1035 ), #265, .F. ) ;
#185 = CIRCLE ( 'NONE', #292, 1.750000000000005107 ) ;
#186 = DIRECTION ( 'NONE',  ( -0.000000000000000000, -0.000000000000000000, -1.000000000000000000 ) ) ;
#187 = VECTOR ( 'NONE', #434, 1000.000000000000000 ) ;
#188 = CARTESIAN_POINT ( 'NONE',  ( 27.59999999999999787, 15.80000000000000782, -18.34499999999999886 ) ) ;
#189 = LINE ( 'NONE', #1008, #54 ) ;
#190 = ORIENTED_EDGE ( 'NONE', *, *, #149, .F. ) ;
#191 = LINE ( 'NONE', #527, #450 ) ;
#192 = PLANE ( 'NONE',  #127 ) ;
#193 = ORIENTED_EDGE ( 'NONE', *, *, #594, .T. ) ;
#194 = DIRECTION ( 'NONE',  ( 0.000000000000000000, 0.000000000000000000, 1.000000000000000000 ) ) ;
#195 = ADVANCED_FACE ( 'NONE', ( #542 ), #56, .F. ) ;
#196 = CARTESIAN_POINT ( 'NONE',  ( 0.000000000000000000, 10.00000000000000000, 0.000000000000000000 ) ) ;
#197 = VECTOR ( 'NONE', #625, 1000.000000000000000 ) ;
#198 = CARTESIAN_POINT ( 'NONE',  ( 37.19999999999999574, 35.79999999999999716, -18.34499999999999886 ) ) ;
#199 = DIRECTION ( 'NONE',  ( 0.000000000000000000, 0.000000000000000000, 1.000000000000000000 ) ) ;
#200 = ORIENTED_EDGE ( 'NONE', *, *, #203, .T. ) ;
#201 = CARTESIAN_POINT ( 'NONE',  ( 6.799999999999997158, 0.000000000000000000, -9.172499999999995879 ) ) ;
#202 = LINE ( 'NONE', #136, #536 ) ;
#203 = EDGE_CURVE ( 'NONE', #760, #941, #629, .T. ) ;
#204 = PLANE ( 'NONE',  #531 ) ;
#205 = COLOUR_RGB ( '',0.7921568627450980005, 0.8196078431372548767, 0.9333333333333333481 ) ;
#206 = VERTEX_POINT ( 'NONE', #291 ) ;
#207 = FILL_AREA_STYLE_COLOUR ( '', #205 ) ;
#208 = EDGE_CURVE ( 'NONE', #586, #897, #463, .T. ) ;
#209 = CARTESIAN_POINT ( 'NONE',  ( 23.59999999999999432, 10.80000000000000071, -27.34499999999999886 ) ) ;
#210 = CARTESIAN_POINT ( 'NONE',  ( 4.599999999999996092, 24.80000000000000071, 0.000000000000000000 ) ) ;
#211 = VERTEX_POINT ( 'NONE', #634 ) ;
#212 = EDGE_CURVE ( 'NONE', #1083, #161, #391, .T. ) ;
#213 = VERTEX_POINT ( 'NONE', #983 ) ;
#214 = CARTESIAN_POINT ( 'NONE',  ( 30.84999999999999432, 28.80000000000000071, -24.59500000000000242 ) ) ;
#215 = CARTESIAN_POINT ( 'NONE',  ( 30.39999999999999503, 0.000000000000000000, -7.422499999999995879 ) ) ;
#216 = ORIENTED_EDGE ( 'NONE', *, *, #11, .T. ) ;
#217 = VECTOR ( 'NONE', #608, 1000.000000000000000 ) ;
#218 = ORIENTED_EDGE ( 'NONE', *, *, #869, .F. ) ;
#219 = EDGE_CURVE ( 'NONE', #206, #336, #903, .T. ) ;
#220 = CARTESIAN_POINT ( 'NONE',  ( 13.59999999999999432, 10.00000000000000000, -18.34499999999999886 ) ) ;
#221 = EDGE_CURVE ( 'NONE', #70, #357, #311, .T. ) ;
#222 = CARTESIAN_POINT ( 'NONE',  ( 0.000000000000000000, 0.000000000000000000, 0.000000000000000000 ) ) ;
#223 = EDGE_LOOP ( 'NONE', ( #1024, #1000, #792, #383 ) ) ;
#224 = VECTOR ( 'NONE', #1003, 1000.000000000000000 ) ;
#225 = ORIENTED_EDGE ( 'NONE', *, *, #512, .T. ) ;
#226 = DIRECTION ( 'NONE',  ( 0.000000000000000000, 0.000000000000000000, 1.000000000000000000 ) ) ;
#227 = CARTESIAN_POINT ( 'NONE',  ( 23.59999999999999432, 0.000000000000000000, 0.000000000000000000 ) ) ;
#228 = ORIENTED_EDGE ( 'NONE', *, *, #431, .T. ) ;
#229 = VERTEX_POINT ( 'NONE', #818 ) ;
#230 = DIRECTION ( 'NONE',  ( -1.000000000000000000, 0.000000000000000000, -0.000000000000000000 ) ) ;
#231 = EDGE_CURVE ( 'NONE', #822, #436, #202, .T. ) ;
#232 = DIRECTION ( 'NONE',  ( 3.469446951953613696E-16, -1.000000000000000000, 0.000000000000000000 ) ) ;
#233 = ORIENTED_EDGE ( 'NONE', *, *, #446, .F. ) ;
#234 = VECTOR ( 'NONE', #778, 1000.000000000000000 ) ;
#235 = DIRECTION ( 'NONE',  ( 0.000000000000000000, -1.000000000000000000, -0.000000000000000000 ) ) ;
#236 = DIRECTION ( 'NONE',  ( 0.000000000000000000, 0.000000000000000000, -1.000000000000000000 ) ) ;
#237 = ORIENTED_EDGE ( 'NONE', *, *, #279, .F. ) ;
#238 = ADVANCED_FACE ( 'NONE', ( #306 ), #472, .F. ) ;
#239 = EDGE_LOOP ( 'NONE', ( #810, #576 ) ) ;
#240 = VECTOR ( 'NONE', #713, 1000.000000000000000 ) ;
#241 = CARTESIAN_POINT ( 'NONE',  ( 23.59999999999996945, 19.79999999999999716, -18.34499999999999886 ) ) ;
#242 = AXIS2_PLACEMENT_3D ( 'NONE', #516, #445, #533 ) ;
#243 = CARTESIAN_POINT ( 'NONE',  ( 30.39999999999999503, 0.000000000000000000, -9.172499999999999432 ) ) ;
#244 = FACE_OUTER_BOUND ( 'NONE', #535, .T. ) ;
#245 = EDGE_LOOP ( 'NONE', ( #990, #1018, #471, #314 ) ) ;
#246 = VERTEX_POINT ( 'NONE', #214 ) ;
#247 = EDGE_CURVE ( 'NONE', #890, #1082, #808, .T. ) ;
#248 = CARTESIAN_POINT ( 'NONE',  ( 6.349999999999994316, 28.80000000000000071, -22.84499999999999886 ) ) ;
#249 = DIRECTION ( 'NONE',  ( -1.000000000000000000, 0.000000000000000000, 0.000000000000000000 ) ) ;
#250 = EDGE_LOOP ( 'NONE', ( #256, #704, #225, #448, #590 ) ) ;
#251 = ORIENTED_EDGE ( 'NONE', *, *, #102, .F. ) ;
#252 = AXIS2_PLACEMENT_3D ( 'NONE', #515, #165, #945 ) ;
#253 = ADVANCED_FACE ( 'NONE', ( #537 ), #725, .F. ) ;
#254 = CARTESIAN_POINT ( 'NONE',  ( 30.84999999999999432, -0.001000000000001000089, -24.59500000000000242 ) ) ;
#255 = DIRECTION ( 'NONE',  ( 0.000000000000000000, 0.000000000000000000, 1.000000000000000000 ) ) ;
#256 = ORIENTED_EDGE ( 'NONE', *, *, #149, .T. ) ;
#257 = ORIENTED_EDGE ( 'NONE', *, *, #1106, .F. ) ;
#258 = AXIS2_PLACEMENT_3D ( 'NONE', #794, #875, #789 ) ;
#259 = CYLINDRICAL_SURFACE ( 'NONE', #844, 1.750000000000004219 ) ;
#260 = CARTESIAN_POINT ( 'NONE',  ( 4.599999999999996092, 24.80000000000000071, -27.34499999999999886 ) ) ;
#261 = ORIENTED_EDGE ( 'NONE', *, *, #231, .F. ) ;
#262 = FACE_OUTER_BOUND ( 'NONE', #15, .T. ) ;
#263 = ORIENTED_EDGE ( 'NONE', *, *, #366, .T. ) ;
#264 = CARTESIAN_POINT ( 'NONE',  ( 0.000000000000000000, 0.000000000000000000, 0.000000000000000000 ) ) ;
#265 = CYLINDRICAL_SURFACE ( 'NONE', #25, 1.750000000000004219 ) ;
#266 = EDGE_CURVE ( 'NONE', #384, #206, #731, .T. ) ;
#267 = LINE ( 'NONE', #688, #497 ) ;
#268 = ORIENTED_EDGE ( 'NONE', *, *, #1043, .T. ) ;
#269 = VECTOR ( 'NONE', #322, 1000.000000000000000 ) ;
#270 = CARTESIAN_POINT ( 'NONE',  ( 6.799999999999997158, 10.00000000000000000, -10.92250000000000121 ) ) ;
#271 = LINE ( 'NONE', #1053, #1067 ) ;
#272 = DIRECTION ( 'NONE',  ( 1.000000000000000000, -0.000000000000000000, -0.000000000000000000 ) ) ;
#273 = ORIENTED_EDGE ( 'NONE', *, *, #949, .F. ) ;
#274 = MECHANICAL_DESIGN_GEOMETRIC_PRESENTATION_REPRESENTATION (  '', ( #754 ), #553 ) ;
#275 = CARTESIAN_POINT ( 'NONE',  ( 13.59999999999999964, 10.00000000000000000, 0.000000000000000000 ) ) ;
#276 = CARTESIAN_POINT ( 'NONE',  ( 0.000000000000000000, 10.00000000000000000, 0.000000000000000000 ) ) ;
#277 = ORIENTED_EDGE ( 'NONE', *, *, #212, .F. ) ;
#278 = CARTESIAN_POINT ( 'NONE',  ( 6.799999999999997158, 10.00000000000000000, -7.422499999999992326 ) ) ;
#279 = EDGE_CURVE ( 'NONE', #760, #890, #1086, .T. ) ;
#280 = DIRECTION ( 'NONE',  ( 0.000000000000000000, 0.000000000000000000, 1.000000000000000000 ) ) ;
#281 = PLANE ( 'NONE',  #766 ) ;
#282 = ORIENTED_EDGE ( 'NONE', *, *, #558, .T. ) ;
#283 = PRESENTATION_STYLE_ASSIGNMENT (( #710 ) ) ;
#284 = EDGE_CURVE ( 'NONE', #1079, #850, #882, .T. ) ;
#285 = SHAPE_DEFINITION_REPRESENTATION ( #881, #114 ) ;
#286 = VECTOR ( 'NONE', #352, 1000.000000000000000 ) ;
#287 = DIRECTION ( 'NONE',  ( 0.000000000000000000, 0.000000000000000000, 1.000000000000000000 ) ) ;
#288 = LINE ( 'NONE', #215, #444 ) ;
#289 = VERTEX_POINT ( 'NONE', #39 ) ;
#290 = APPLICATION_PROTOCOL_DEFINITION ( 'draft international standard', 'automotive_design', 1998, #360 ) ;
#291 = CARTESIAN_POINT ( 'NONE',  ( 23.59999999999999432, 10.80000000000000071, -18.34499999999999886 ) ) ;
#292 = AXIS2_PLACEMENT_3D ( 'NONE', #248, #758, #415 ) ;
#293 = EDGE_CURVE ( 'NONE', #213, #295, #894, .T. ) ;
#294 = CARTESIAN_POINT ( 'NONE',  ( 23.59999999999999432, 10.00000000000000000, 0.000000000000000000 ) ) ;
#295 = VERTEX_POINT ( 'NONE', #45 ) ;
#296 = CARTESIAN_POINT ( 'NONE',  ( 4.599999999999999645, 28.80000000000000071, 0.000000000000000000 ) ) ;
#297 = CARTESIAN_POINT ( 'NONE',  ( 0.000000000000000000, 0.000000000000000000, -18.34499999999999886 ) ) ;
#298 = ORIENTED_EDGE ( 'NONE', *, *, #637, .F. ) ;
#299 = EDGE_CURVE ( 'NONE', #1098, #1060, #1074, .T. ) ;
#300 = ORIENTED_EDGE ( 'NONE', *, *, #1013, .F. ) ;
#301 = DIRECTION ( 'NONE',  ( -0.000000000000000000, -0.000000000000000000, -1.000000000000000000 ) ) ;
#302 = DIRECTION ( 'NONE',  ( -0.000000000000000000, -0.000000000000000000, -1.000000000000000000 ) ) ;
#303 = ORIENTED_EDGE ( 'NONE', *, *, #423, .T. ) ;
#304 = VECTOR ( 'NONE', #408, 1000.000000000000000 ) ;
#305 = VERTEX_POINT ( 'NONE', #640 ) ;
#306 = FACE_OUTER_BOUND ( 'NONE', #524, .T. ) ;
#307 = DIRECTION ( 'NONE',  ( 0.000000000000000000, -0.000000000000000000, 1.000000000000000000 ) ) ;
#308 = ORIENTED_EDGE ( 'NONE', *, *, #66, .F. ) ;
#309 = ORIENTED_EDGE ( 'NONE', *, *, #575, .F. ) ;
#310 = EDGE_CURVE ( 'NONE', #632, #295, #988, .T. ) ;
#311 = LINE ( 'NONE', #296, #718 ) ;
#312 = CARTESIAN_POINT ( 'NONE',  ( -6.938893903907228378E-15, 35.79999999999999716, -18.34499999999999886 ) ) ;
#313 = ORIENTED_EDGE ( 'NONE', *, *, #129, .F. ) ;
#314 = ORIENTED_EDGE ( 'NONE', *, *, #1084, .F. ) ;
#315 = EDGE_CURVE ( 'NONE', #1098, #70, #168, .T. ) ;
#316 = DIRECTION ( 'NONE',  ( 0.000000000000000000, 1.000000000000000000, 0.000000000000000000 ) ) ;
#317 = LINE ( 'NONE', #137, #639 ) ;
#318 = CARTESIAN_POINT ( 'NONE',  ( 23.59999999999999432, 10.00000000000000000, 0.000000000000000000 ) ) ;
#319 = AXIS2_PLACEMENT_3D ( 'NONE', #176, #548, #871 ) ;
#320 = DIRECTION ( 'NONE',  ( 1.000000000000000000, 0.000000000000000000, 0.000000000000000000 ) ) ;
#321 = FACE_BOUND ( 'NONE', #584, .T. ) ;
#322 = DIRECTION ( 'NONE',  ( 0.7071067811865439090, 0.7071067811865512365, -0.000000000000000000 ) ) ;
#323 = ORIENTED_EDGE ( 'NONE', *, *, #1111, .T. ) ;
#324 = EDGE_CURVE ( 'NONE', #400, #289, #1102, .T. ) ;
#325 = EDGE_LOOP ( 'NONE', ( #175, #603, #925, #815, #682, #126 ) ) ;
#326 = VECTOR ( 'NONE', #1080, 999.9999999999998863 ) ;
#327 = CARTESIAN_POINT ( 'NONE',  ( 6.799999999999997158, 0.000000000000000000, -10.92249999999999943 ) ) ;
#328 = CIRCLE ( 'NONE', #957, 1.750000000000005107 ) ;
#329 = DIRECTION ( 'NONE',  ( -1.000000000000000000, 0.000000000000000000, 0.000000000000000000 ) ) ;
#330 = LINE ( 'NONE', #264, #178 ) ;
#331 = CARTESIAN_POINT ( 'NONE',  ( 6.799999999999997158, 0.000000000000000000, -9.172499999999995879 ) ) ;
#332 = EDGE_CURVE ( 'NONE', #944, #729, #923, .T. ) ;
#333 = VERTEX_POINT ( 'NONE', #836 ) ;
#334 = CARTESIAN_POINT ( 'NONE',  ( 37.19999999999999574, 10.00000000000000000, -18.34499999999999886 ) ) ;
#335 = DIRECTION ( 'NONE',  ( 0.000000000000000000, 0.000000000000000000, 1.000000000000000000 ) ) ;
#336 = VERTEX_POINT ( 'NONE', #499 ) ;
#337 = ORIENTED_EDGE ( 'NONE', *, *, #366, .F. ) ;
#338 = AXIS2_PLACEMENT_3D ( 'NONE', #487, #182, #781 ) ;
#339 = AXIS2_PLACEMENT_3D ( 'NONE', #623, #612, #1069 ) ;
#340 = DIRECTION ( 'NONE',  ( 0.000000000000000000, 1.000000000000000000, 0.000000000000000000 ) ) ;
#341 = LINE ( 'NONE', #260, #111 ) ;
#342 = ORIENTED_EDGE ( 'NONE', *, *, #95, .T. ) ;
#343 = ORIENTED_EDGE ( 'NONE', *, *, #604, .F. ) ;
#344 = VECTOR ( 'NONE', #673, 1000.000000000000000 ) ;
#345 = EDGE_CURVE ( 'NONE', #1076, #498, #772, .T. ) ;
#346 = DIRECTION ( 'NONE',  ( 0.000000000000000000, 0.000000000000000000, -1.000000000000000000 ) ) ;
#347 = CARTESIAN_POINT ( 'NONE',  ( 23.59999999999996945, 19.79999999999999716, -27.34499999999999886 ) ) ;
#348 = DIRECTION ( 'NONE',  ( 0.000000000000000000, 0.000000000000000000, 1.000000000000000000 ) ) ;
#349 = EDGE_LOOP ( 'NONE', ( #154, #678, #49, #563 ) ) ;
#350 = DIRECTION ( 'NONE',  ( -0.7071067811865463515, 0.7071067811865487940, -0.000000000000000000 ) ) ;
#351 = CARTESIAN_POINT ( 'NONE',  ( 9.599999999999999645, 14.79999999999999716, -18.34499999999999886 ) ) ;
#352 = DIRECTION ( 'NONE',  ( -0.000000000000000000, 1.000000000000000000, -0.000000000000000000 ) ) ;
#353 = VERTEX_POINT ( 'NONE', #482 ) ;
#354 = AXIS2_PLACEMENT_3D ( 'NONE', #663, #831, #554 ) ;
#355 = PLANE ( 'NONE',  #664 ) ;
#356 = CARTESIAN_POINT ( 'NONE',  ( -0.000000000000000000, 24.80000000000000071, -18.34499999999999886 ) ) ;
#357 = VERTEX_POINT ( 'NONE', #1107 ) ;
#358 = EDGE_CURVE ( 'NONE', #737, #884, #1015, .T. ) ;
#359 = VECTOR ( 'NONE', #899, 1000.000000000000000 ) ;
#360 = APPLICATION_CONTEXT ( 'automotive_design' ) ;
#361 = VECTOR ( 'NONE', #181, 1000.000000000000000 ) ;
#362 = DIRECTION ( 'NONE',  ( 1.000000000000000000, 0.000000000000000000, 0.000000000000000000 ) ) ;
#363 = DIRECTION ( 'NONE',  ( -8.673617379884035472E-16, -1.000000000000000000, 0.000000000000000000 ) ) ;
#364 = EDGE_LOOP ( 'NONE', ( #64, #101, #144, #567, #840, #820 ) ) ;
#365 = EDGE_CURVE ( 'NONE', #985, #846, #494, .T. ) ;
#366 = EDGE_CURVE ( 'NONE', #10, #418, #763, .T. ) ;
#367 = LINE ( 'NONE', #275, #917 ) ;
#368 = DIRECTION ( 'NONE',  ( 0.000000000000000000, 0.000000000000000000, 1.000000000000000000 ) ) ;
#369 = VERTEX_POINT ( 'NONE', #1095 ) ;
#370 = AXIS2_PLACEMENT_3D ( 'NONE', #825, #57, #478 ) ;
#371 = CARTESIAN_POINT ( 'NONE',  ( 32.59999999999999432, 28.80000000000000071, 0.000000000000000000 ) ) ;
#372 = DIRECTION ( 'NONE',  ( 0.000000000000000000, 0.000000000000000000, 1.000000000000000000 ) ) ;
#373 = ORIENTED_EDGE ( 'NONE', *, *, #480, .F. ) ;
#374 = DIRECTION ( 'NONE',  ( 1.000000000000000000, 0.000000000000000000, 0.000000000000000000 ) ) ;
#375 = ADVANCED_FACE ( 'NONE', ( #998 ), #409, .T. ) ;
#376 = DIRECTION ( 'NONE',  ( -0.000000000000000000, -0.000000000000000000, -1.000000000000000000 ) ) ;
#377 = CARTESIAN_POINT ( 'NONE',  ( 37.19999999999999574, 35.79999999999999716, -27.34499999999999886 ) ) ;
#378 = VECTOR ( 'NONE', #876, 1000.000000000000000 ) ;
#379 = ORIENTED_EDGE ( 'NONE', *, *, #604, .T. ) ;
#380 = ORIENTED_EDGE ( 'NONE', *, *, #247, .T. ) ;
#381 = DIRECTION ( 'NONE',  ( -0.000000000000000000, -1.000000000000000000, -0.000000000000000000 ) ) ;
#382 = LINE ( 'NONE', #377, #816 ) ;
#383 = ORIENTED_EDGE ( 'NONE', *, *, #1111, .F. ) ;
#384 = VERTEX_POINT ( 'NONE', #1113 ) ;
#385 = DIRECTION ( 'NONE',  ( 0.000000000000000000, 0.000000000000000000, 1.000000000000000000 ) ) ;
#386 = AXIS2_PLACEMENT_3D ( 'NONE', #517, #771, #744 ) ;
#387 = CARTESIAN_POINT ( 'NONE',  ( 0.000000000000000000, 0.000000000000000000, 0.000000000000000000 ) ) ;
#388 = ORIENTED_EDGE ( 'NONE', *, *, #721, .F. ) ;
#389 = ADVANCED_FACE ( 'NONE', ( #321, #752 ), #654, .F. ) ;
#390 = ORIENTED_EDGE ( 'NONE', *, *, #299, .F. ) ;
#391 = LINE ( 'NONE', #467, #6 ) ;
#392 = CARTESIAN_POINT ( 'NONE',  ( 0.000000000000000000, 0.000000000000000000, 0.000000000000000000 ) ) ;
#393 = EDGE_LOOP ( 'NONE', ( #827, #26, #337, #113 ) ) ;
#394 = AXIS2_PLACEMENT_3D ( 'NONE', #699, #1051, #194 ) ;
#395 = EDGE_LOOP ( 'NONE', ( #962, #1023, #626, #75 ) ) ;
#396 = ADVANCED_FACE ( 'NONE', ( #488 ), #916, .F. ) ;
#397 = CARTESIAN_POINT ( 'NONE',  ( 9.599999999999999645, 15.79999999999996696, -27.34499999999999886 ) ) ;
#398 = DIRECTION ( 'NONE',  ( 0.000000000000000000, 0.000000000000000000, -1.000000000000000000 ) ) ;
#399 = EDGE_LOOP ( 'NONE', ( #491, #727, #862, #1099 ) ) ;
#400 = VERTEX_POINT ( 'NONE', #908 ) ;
#401 = LINE ( 'NONE', #577, #89 ) ;
#402 = EDGE_CURVE ( 'NONE', #246, #369, #152, .T. ) ;
#403 = LINE ( 'NONE', #823, #955 ) ;
#404 = DIRECTION ( 'NONE',  ( 0.000000000000000000, 0.000000000000000000, 1.000000000000000000 ) ) ;
#405 = ORIENTED_EDGE ( 'NONE', *, *, #358, .T. ) ;
#406 = VECTOR ( 'NONE', #566, 1000.000000000000000 ) ;
#407 = ORIENTED_EDGE ( 'NONE', *, *, #208, .T. ) ;
#408 = DIRECTION ( 'NONE',  ( 0.7071067811865512365, -0.7071067811865439090, -0.000000000000000000 ) ) ;
#409 = PLANE ( 'NONE',  #646 ) ;
#410 = EDGE_CURVE ( 'NONE', #890, #357, #185, .T. ) ;
#411 = CARTESIAN_POINT ( 'NONE',  ( 37.19999999999999574, 10.00000000000000000, 0.000000000000000000 ) ) ;
#412 = VERTEX_POINT ( 'NONE', #1020 ) ;
#413 = ORIENTED_EDGE ( 'NONE', *, *, #610, .F. ) ;
#414 = AXIS2_PLACEMENT_3D ( 'NONE', #50, #124, #645 ) ;
#415 = DIRECTION ( 'NONE',  ( 0.000000000000000000, 0.000000000000000000, 1.000000000000000000 ) ) ;
#416 = LINE ( 'NONE', #103, #783 ) ;
#417 = FACE_OUTER_BOUND ( 'NONE', #619, .T. ) ;
#418 = VERTEX_POINT ( 'NONE', #588 ) ;
#419 = CARTESIAN_POINT ( 'NONE',  ( 27.59999999999999787, 19.79999999999999716, -27.34600000000000009 ) ) ;
#420 = DIRECTION ( 'NONE',  ( -1.000000000000000000, 0.000000000000000000, 0.000000000000000000 ) ) ;
#421 = VERTEX_POINT ( 'NONE', #830 ) ;
#422 = ORIENTED_EDGE ( 'NONE', *, *, #575, .T. ) ;
#423 = EDGE_CURVE ( 'NONE', #529, #436, #934, .T. ) ;
#424 = VECTOR ( 'NONE', #631, 1000.000000000000000 ) ;
#425 = VECTOR ( 'NONE', #350, 1000.000000000000000 ) ;
#426 = CARTESIAN_POINT ( 'NONE',  ( 37.19999999999999574, 35.79999999999999716, -18.34499999999999886 ) ) ;
#427 = DIRECTION ( 'NONE',  ( -0.7071067811865439090, -0.7071067811865512365, -0.000000000000000000 ) ) ;
#428 = CARTESIAN_POINT ( 'NONE',  ( 37.19999999999999574, 10.00000000000000000, 0.000000000000000000 ) ) ;
#429 = VERTEX_POINT ( 'NONE', #67 ) ;
#430 = VECTOR ( 'NONE', #841, 1000.000000000000000 ) ;
#431 = EDGE_CURVE ( 'NONE', #353, #529, #403, .T. ) ;
#432 = VECTOR ( 'NONE', #617, 1000.000000000000000 ) ;
#433 = FACE_OUTER_BOUND ( 'NONE', #59, .T. ) ;
#434 = DIRECTION ( 'NONE',  ( -0.000000000000000000, -0.000000000000000000, 1.000000000000000000 ) ) ;
#435 = DIRECTION ( 'NONE',  ( 0.000000000000000000, 1.000000000000000000, 0.000000000000000000 ) ) ;
#436 = VERTEX_POINT ( 'NONE', #397 ) ;
#437 = EDGE_CURVE ( 'NONE', #336, #400, #745, .T. ) ;
#438 = DIRECTION ( 'NONE',  ( 1.000000000000000000, 0.000000000000000000, 0.000000000000000000 ) ) ;
#439 = LINE ( 'NONE', #110, #863 ) ;
#440 = PLANE ( 'NONE',  #1112 ) ;
#441 = ORIENTED_EDGE ( 'NONE', *, *, #835, .T. ) ;
#442 = FACE_OUTER_BOUND ( 'NONE', #901, .T. ) ;
#443 = VECTOR ( 'NONE', #80, 1000.000000000000000 ) ;
#444 = VECTOR ( 'NONE', #447, 1000.000000000000000 ) ;
#445 = DIRECTION ( 'NONE',  ( 0.000000000000000000, 1.000000000000000000, -0.000000000000000000 ) ) ;
#446 = EDGE_CURVE ( 'NONE', #421, #333, #680, .T. ) ;
#447 = DIRECTION ( 'NONE',  ( -0.000000000000000000, 1.000000000000000000, -0.000000000000000000 ) ) ;
#448 = ORIENTED_EDGE ( 'NONE', *, *, #247, .F. ) ;
#449 =( NAMED_UNIT ( * ) PLANE_ANGLE_UNIT ( ) SI_UNIT ( $, .RADIAN. ) );
#450 = VECTOR ( 'NONE', #770, 1000.000000000000000 ) ;
#451 = DIRECTION ( 'NONE',  ( 0.000000000000000000, 0.000000000000000000, -1.000000000000000000 ) ) ;
#452 = LINE ( 'NONE', #1059, #197 ) ;
#453 = ORIENTED_EDGE ( 'NONE', *, *, #293, .F. ) ;
#454 = DIRECTION ( 'NONE',  ( -0.000000000000000000, 1.000000000000000000, -0.000000000000000000 ) ) ;
#455 = PRODUCT_CONTEXT ( 'NONE', #898, 'mechanical' ) ;
#456 = CARTESIAN_POINT ( 'NONE',  ( 13.59999999999999964, 10.79999999999997939, 0.000000000000000000 ) ) ;
#457 = CARTESIAN_POINT ( 'NONE',  ( 37.19999999999999574, 0.000000000000000000, 0.000000000000000000 ) ) ;
#458 = ORIENTED_EDGE ( 'NONE', *, *, #66, .T. ) ;
#459 = LINE ( 'NONE', #799, #824 ) ;
#460 = EDGE_CURVE ( 'NONE', #906, #1032, #133, .T. ) ;
#461 = MANIFOLD_SOLID_BREP ( 'Chamfer2', #1049 ) ;
#462 = VECTOR ( 'NONE', #1036, 1000.000000000000000 ) ;
#463 = LINE ( 'NONE', #1070, #1009 ) ;
#464 = FACE_OUTER_BOUND ( 'NONE', #709, .T. ) ;
#465 = ORIENTED_EDGE ( 'NONE', *, *, #1062, .T. ) ;
#466 = ORIENTED_EDGE ( 'NONE', *, *, #828, .T. ) ;
#467 = CARTESIAN_POINT ( 'NONE',  ( 32.59999999999999432, 24.80000000000000071, 0.000000000000000000 ) ) ;
#468 = VECTOR ( 'NONE', #31, 999.9999999999998863 ) ;
#469 = DIRECTION ( 'NONE',  ( -0.000000000000000000, -1.000000000000000000, -0.000000000000000000 ) ) ;
#470 = ORIENTED_EDGE ( 'NONE', *, *, #157, .T. ) ;
#471 = ORIENTED_EDGE ( 'NONE', *, *, #365, .F. ) ;
#472 = PLANE ( 'NONE',  #414 ) ;
#473 = ADVANCED_FACE ( 'NONE', ( #541 ), #259, .F. ) ;
#474 = CARTESIAN_POINT ( 'NONE',  ( 30.84999999999999432, 28.80000000000000071, -22.84499999999999886 ) ) ;
#475 = ORIENTED_EDGE ( 'NONE', *, *, #828, .F. ) ;
#476 = DIRECTION ( 'NONE',  ( -1.000000000000000000, 0.000000000000000000, 0.000000000000000000 ) ) ;
#477 = VECTOR ( 'NONE', #398, 1000.000000000000000 ) ;
#478 = DIRECTION ( 'NONE',  ( 0.000000000000000000, 0.000000000000000000, 1.000000000000000000 ) ) ;
#479 = ORIENTED_EDGE ( 'NONE', *, *, #655, .F. ) ;
#480 = EDGE_CURVE ( 'NONE', #246, #1060, #936, .T. ) ;
#481 = EDGE_LOOP ( 'NONE', ( #233, #910, #697, #268 ) ) ;
#482 = CARTESIAN_POINT ( 'NONE',  ( 13.59999999999998899, 19.79999999999999716, -18.34499999999999886 ) ) ;
#483 = LINE ( 'NONE', #1091, #514 ) ;
#484 = EDGE_LOOP ( 'NONE', ( #273, #1105, #636, #867, #20, #513 ) ) ;
#485 = VECTOR ( 'NONE', #476, 1000.000000000000000 ) ;
#486 = ORIENTED_EDGE ( 'NONE', *, *, #279, .T. ) ;
#487 = CARTESIAN_POINT ( 'NONE',  ( 23.59999999999999432, 19.79999999999999716, -18.34499999999999886 ) ) ;
#488 = FACE_OUTER_BOUND ( 'NONE', #481, .T. ) ;
#489 = FACE_OUTER_BOUND ( 'NONE', #142, .T. ) ;
#490 = ORIENTED_EDGE ( 'NONE', *, *, #775, .F. ) ;
#491 = ORIENTED_EDGE ( 'NONE', *, *, #644, .F. ) ;
#492 = DIRECTION ( 'NONE',  ( -0.7071067811865512365, 0.7071067811865439090, -0.000000000000000000 ) ) ;
#493 = EDGE_CURVE ( 'NONE', #822, #213, #27, .T. ) ;
#494 = LINE ( 'NONE', #164, #42 ) ;
#495 = CARTESIAN_POINT ( 'NONE',  ( 6.799999999999997158, 0.000000000000000000, -7.422499999999992326 ) ) ;
#496 = ORIENTED_EDGE ( 'NONE', *, *, #46, .F. ) ;
#497 = VECTOR ( 'NONE', #435, 1000.000000000000000 ) ;
#498 = VERTEX_POINT ( 'NONE', #278 ) ;
#499 = CARTESIAN_POINT ( 'NONE',  ( 23.59999999999999432, 10.80000000000000071, -27.34499999999999886 ) ) ;
#500 = CARTESIAN_POINT ( 'NONE',  ( 32.59999999999999432, 24.80000000000000071, 0.000000000000000000 ) ) ;
#501 = ORIENTED_EDGE ( 'NONE', *, *, #38, .T. ) ;
#502 = ORIENTED_EDGE ( 'NONE', *, *, #821, .T. ) ;
#503 = AXIS2_PLACEMENT_3D ( 'NONE', #201, #975, #1026 ) ;
#504 = DIRECTION ( 'NONE',  ( 0.000000000000000000, 0.000000000000000000, -1.000000000000000000 ) ) ;
#505 = DIRECTION ( 'NONE',  ( 1.000000000000000000, 0.000000000000000000, 0.000000000000000000 ) ) ;
#506 = PLANE ( 'NONE',  #555 ) ;
#507 = ADVANCED_FACE ( 'NONE', ( #868 ), #530, .F. ) ;
#508 = ORIENTED_EDGE ( 'NONE', *, *, #299, .T. ) ;
#509 = CARTESIAN_POINT ( 'NONE',  ( 32.59999999999999432, 28.80000000000000071, 0.000000000000000000 ) ) ;
#510 = PLANE ( 'NONE',  #79 ) ;
#511 = FACE_OUTER_BOUND ( 'NONE', #1072, .T. ) ;
#512 = EDGE_CURVE ( 'NONE', #55, #1082, #1028, .T. ) ;
#513 = ORIENTED_EDGE ( 'NONE', *, *, #587, .T. ) ;
#514 = VECTOR ( 'NONE', #686, 1000.000000000000000 ) ;
#515 = CARTESIAN_POINT ( 'NONE',  ( 30.84999999999999432, 35.79999999999999716, -22.84499999999999886 ) ) ;
#516 = CARTESIAN_POINT ( 'NONE',  ( 6.799999999999997158, 10.00000000000000000, -9.172499999999995879 ) ) ;
#517 = CARTESIAN_POINT ( 'NONE',  ( 6.349999999999994316, -0.001000000000001000089, -21.09499999999999176 ) ) ;
#518 = ORIENTED_EDGE ( 'NONE', *, *, #493, .T. ) ;
#519 = VECTOR ( 'NONE', #340, 1000.000000000000000 ) ;
#520 = EDGE_CURVE ( 'NONE', #1082, #941, #459, .T. ) ;
#521 = LINE ( 'NONE', #843, #443 ) ;
#522 = DIRECTION ( 'NONE',  ( -0.000000000000000000, 1.000000000000000000, -0.000000000000000000 ) ) ;
#523 = DIRECTION ( 'NONE',  ( 1.000000000000000000, 0.000000000000000000, 0.000000000000000000 ) ) ;
#524 = EDGE_LOOP ( 'NONE', ( #615, #453, #933, #1005 ) ) ;
#525 = LINE ( 'NONE', #717, #991 ) ;
#526 = EDGE_CURVE ( 'NONE', #58, #289, #525, .T. ) ;
#527 = CARTESIAN_POINT ( 'NONE',  ( 9.599999999999999645, 15.79999999999996696, -27.34600000000000009 ) ) ;
#528 = CARTESIAN_POINT ( 'NONE',  ( 23.59999999999999432, 10.00000000000000000, -18.34499999999999886 ) ) ;
#529 = VERTEX_POINT ( 'NONE', #173 ) ;
#530 = CYLINDRICAL_SURFACE ( 'NONE', #258, 1.750000000000005107 ) ;
#531 = AXIS2_PLACEMENT_3D ( 'NONE', #297, #199, #635 ) ;
#532 = CARTESIAN_POINT ( 'NONE',  ( 32.59999999999999432, 28.80000000000000071, -18.34499999999999886 ) ) ;
#533 = DIRECTION ( 'NONE',  ( 0.000000000000000000, 0.000000000000000000, -1.000000000000000000 ) ) ;
#534 = DIRECTION ( 'NONE',  ( 0.000000000000000000, 0.000000000000000000, 1.000000000000000000 ) ) ;
#535 = EDGE_LOOP ( 'NONE', ( #475, #811, #313, #738 ) ) ;
#536 = VECTOR ( 'NONE', #887, 1000.000000000000000 ) ;
#537 = FACE_OUTER_BOUND ( 'NONE', #762, .T. ) ;
#538 = CARTESIAN_POINT ( 'NONE',  ( 37.19999999999999574, 35.79999999999999716, -27.34499999999999886 ) ) ;
#539 = ORIENTED_EDGE ( 'NONE', *, *, #345, .F. ) ;
#540 = ADVANCED_FACE ( 'NONE', ( #107, #442 ), #570, .F. ) ;
#541 = FACE_OUTER_BOUND ( 'NONE', #667, .T. ) ;
#542 = FACE_OUTER_BOUND ( 'NONE', #393, .T. ) ;
#543 = FACE_BOUND ( 'NONE', #724, .T. ) ;
#544 = ORIENTED_EDGE ( 'NONE', *, *, #345, .T. ) ;
#545 = ORIENTED_EDGE ( 'NONE', *, *, #135, .T. ) ;
#546 = VECTOR ( 'NONE', #112, 1000.000000000000000 ) ;
#547 = CARTESIAN_POINT ( 'NONE',  ( 6.399999999999978151, -6.399999999999987921, -18.34499999999999886 ) ) ;
#548 = DIRECTION ( 'NONE',  ( 0.000000000000000000, 0.000000000000000000, -1.000000000000000000 ) ) ;
#549 = ORIENTED_EDGE ( 'NONE', *, *, #1096, .T. ) ;
#550 = ORIENTED_EDGE ( 'NONE', *, *, #877, .F. ) ;
#551 = ADVANCED_FACE ( 'NONE', ( #511 ), #866, .F. ) ;
#552 = CARTESIAN_POINT ( 'NONE',  ( 30.84999999999999432, -0.001000000000001000089, -21.09499999999999176 ) ) ;
#553 =( GEOMETRIC_REPRESENTATION_CONTEXT ( 3 ) GLOBAL_UNCERTAINTY_ASSIGNED_CONTEXT ( ( #1030 ) ) GLOBAL_UNIT_ASSIGNED_CONTEXT ( ( #620, #449, #616 ) ) REPRESENTATION_CONTEXT ( 'NONE', 'WORKASPACE' ) );
#554 = DIRECTION ( 'NONE',  ( 0.000000000000000000, 0.000000000000000000, 1.000000000000000000 ) ) ;
#555 = AXIS2_PLACEMENT_3D ( 'NONE', #849, #665, #755 ) ;
#556 = ORIENTED_EDGE ( 'NONE', *, *, #672, .F. ) ;
#557 = ORIENTED_EDGE ( 'NONE', *, *, #801, .F. ) ;
#558 = EDGE_CURVE ( 'NONE', #937, #1083, #65, .T. ) ;
#559 = CARTESIAN_POINT ( 'NONE',  ( 32.59999999999999432, 28.80000000000000071, 0.000000000000000000 ) ) ;
#560 = CARTESIAN_POINT ( 'NONE',  ( 30.84999999999999432, 35.79999999999999716, -21.09499999999999176 ) ) ;
#561 = ORIENTED_EDGE ( 'NONE', *, *, #788, .T. ) ;
#562 = ADVANCED_FACE ( 'NONE', ( #948 ), #14, .T. ) ;
#563 = ORIENTED_EDGE ( 'NONE', *, *, #927, .F. ) ;
#564 = DIRECTION ( 'NONE',  ( 0.000000000000000000, 0.000000000000000000, 1.000000000000000000 ) ) ;
#565 = VECTOR ( 'NONE', #272, 1000.000000000000000 ) ;
#566 = DIRECTION ( 'NONE',  ( -0.000000000000000000, -0.000000000000000000, 1.000000000000000000 ) ) ;
#567 = ORIENTED_EDGE ( 'NONE', *, *, #129, .T. ) ;
#568 = CIRCLE ( 'NONE', #339, 1.750000000000003331 ) ;
#569 = EDGE_CURVE ( 'NONE', #3, #586, #189, .T. ) ;
#570 = PLANE ( 'NONE',  #1019 ) ;
#571 = DIRECTION ( 'NONE',  ( -0.000000000000000000, 1.000000000000000000, -0.000000000000000000 ) ) ;
#572 = DIRECTION ( 'NONE',  ( -0.000000000000000000, -1.000000000000000000, -0.000000000000000000 ) ) ;
#573 = VECTOR ( 'NONE', #146, 1000.000000000000000 ) ;
#574 = ORIENTED_EDGE ( 'NONE', *, *, #1013, .T. ) ;
#575 = EDGE_CURVE ( 'NONE', #1032, #1076, #860, .T. ) ;
#576 = ORIENTED_EDGE ( 'NONE', *, *, #1106, .T. ) ;
#577 = CARTESIAN_POINT ( 'NONE',  ( 27.59999999999999787, 19.79999999999999716, -18.34499999999999886 ) ) ;
#578 = CARTESIAN_POINT ( 'NONE',  ( 1.900000000000066525, 8.099999999999953459, -27.34499999999999886 ) ) ;
#579 = CARTESIAN_POINT ( 'NONE',  ( 9.599999999999999645, 15.79999999999996696, -18.34499999999999886 ) ) ;
#580 = FACE_OUTER_BOUND ( 'NONE', #642, .T. ) ;
#581 = ORIENTED_EDGE ( 'NONE', *, *, #402, .F. ) ;
#582 = CARTESIAN_POINT ( 'NONE',  ( 0.000000000000000000, 28.80000000000000071, -18.34499999999999886 ) ) ;
#583 = LINE ( 'NONE', #426, #585 ) ;
#584 = EDGE_LOOP ( 'NONE', ( #734, #1048, #912, #83 ) ) ;
#585 = VECTOR ( 'NONE', #1038, 1000.000000000000000 ) ;
#586 = VERTEX_POINT ( 'NONE', #9 ) ;
#587 = EDGE_CURVE ( 'NONE', #305, #229, #661, .T. ) ;
#588 = CARTESIAN_POINT ( 'NONE',  ( 37.19999999999999574, 10.00000000000000000, 0.000000000000000000 ) ) ;
#589 = FACE_OUTER_BOUND ( 'NONE', #967, .T. ) ;
#590 = ORIENTED_EDGE ( 'NONE', *, *, #410, .T. ) ;
#591 = ORIENTED_EDGE ( 'NONE', *, *, #310, .T. ) ;
#592 = VECTOR ( 'NONE', #316, 1000.000000000000000 ) ;
#593 = CARTESIAN_POINT ( 'NONE',  ( 6.349999999999994316, 35.79999999999999716, -22.84499999999999886 ) ) ;
#594 = EDGE_CURVE ( 'NONE', #289, #172, #93, .T. ) ;
#595 = LINE ( 'NONE', #674, #425 ) ;
#596 = ORIENTED_EDGE ( 'NONE', *, *, #87, .F. ) ;
#597 = UNCERTAINTY_MEASURE_WITH_UNIT (LENGTH_MEASURE( 1.000000000000000082E-05 ), #1044, 'distance_accuracy_value', 'NONE');
#598 = DIRECTION ( 'NONE',  ( 0.000000000000000000, -1.000000000000000000, 0.000000000000000000 ) ) ;
#599 = ORIENTED_EDGE ( 'NONE', *, *, #842, .T. ) ;
#600 = CARTESIAN_POINT ( 'NONE',  ( 32.59999999999999432, 24.80000000000000071, 0.000000000000000000 ) ) ;
#601 = FACE_OUTER_BOUND ( 'NONE', #223, .T. ) ;
#602 = CARTESIAN_POINT ( 'NONE',  ( 13.59999999999999964, 10.00000000000000000, -18.34499999999999886 ) ) ;
#603 = ORIENTED_EDGE ( 'NONE', *, *, #208, .F. ) ;
#604 = EDGE_CURVE ( 'NONE', #1083, #1098, #267, .T. ) ;
#605 = AXIS2_PLACEMENT_3D ( 'NONE', #961, #131, #372 ) ;
#606 = LINE ( 'NONE', #690, #90 ) ;
#607 = CARTESIAN_POINT ( 'NONE',  ( 0.000000000000000000, 10.00000000000000000, 0.000000000000000000 ) ) ;
#608 = DIRECTION ( 'NONE',  ( 1.000000000000000000, 0.000000000000000000, -0.000000000000000000 ) ) ;
#609 = ORIENTED_EDGE ( 'NONE', *, *, #266, .F. ) ;
#610 = EDGE_CURVE ( 'NONE', #418, #737, #693, .T. ) ;
#611 = VECTOR ( 'NONE', #929, 1000.000000000000000 ) ;
#612 = DIRECTION ( 'NONE',  ( 0.000000000000000000, 1.000000000000000000, -0.000000000000000000 ) ) ;
#613 = CARTESIAN_POINT ( 'NONE',  ( 23.59999999999999432, 19.79999999999999716, -18.34499999999999886 ) ) ;
#614 = CARTESIAN_POINT ( 'NONE',  ( 23.59999999999999432, 0.000000000000000000, -27.34499999999999886 ) ) ;
#615 = ORIENTED_EDGE ( 'NONE', *, *, #1050, .F. ) ;
#616 =( NAMED_UNIT ( * ) SI_UNIT ( $, .STERADIAN. ) SOLID_ANGLE_UNIT ( ) );
#617 = DIRECTION ( 'NONE',  ( -1.000000000000000000, 0.000000000000000000, 0.000000000000000000 ) ) ;
#618 = LINE ( 'NONE', #978, #143 ) ;
#619 = EDGE_LOOP ( 'NONE', ( #757, #405, #1007, #263 ) ) ;
#620 =( LENGTH_UNIT ( ) NAMED_UNIT ( * ) SI_UNIT ( .MILLI., .METRE. ) );
#621 = VECTOR ( 'NONE', #492, 1000.000000000000000 ) ;
#622 = EDGE_CURVE ( 'NONE', #938, #723, #1093, .T. ) ;
#623 = CARTESIAN_POINT ( 'NONE',  ( 6.799999999999997158, 0.000000000000000000, -9.172499999999995879 ) ) ;
#624 = PLANE ( 'NONE',  #44 ) ;
#625 = DIRECTION ( 'NONE',  ( 0.000000000000000000, 0.000000000000000000, -1.000000000000000000 ) ) ;
#626 = ORIENTED_EDGE ( 'NONE', *, *, #11, .F. ) ;
#627 = SURFACE_STYLE_FILL_AREA ( #21 ) ;
#628 = VECTOR ( 'NONE', #329, 1000.000000000000000 ) ;
#629 = LINE ( 'NONE', #552, #359 ) ;
#630 = EDGE_CURVE ( 'NONE', #55, #369, #954, .T. ) ;
#631 = DIRECTION ( 'NONE',  ( -0.000000000000000000, -1.000000000000000000, -0.000000000000000000 ) ) ;
#632 = VERTEX_POINT ( 'NONE', #602 ) ;
#633 = ADVANCED_FACE ( 'NONE', ( #913 ), #440, .T. ) ;
#634 = CARTESIAN_POINT ( 'NONE',  ( 30.39999999999999503, 10.00000000000000000, -7.422499999999995879 ) ) ;
#635 = DIRECTION ( 'NONE',  ( 1.000000000000000000, 0.000000000000000000, -0.000000000000000000 ) ) ;
#636 = ORIENTED_EDGE ( 'NONE', *, *, #310, .F. ) ;
#637 = EDGE_CURVE ( 'NONE', #172, #932, #19, .T. ) ;
#638 = EDGE_LOOP ( 'NONE', ( #872, #41, #479, #298 ) ) ;
#639 = VECTOR ( 'NONE', #236, 1000.000000000000000 ) ;
#640 = CARTESIAN_POINT ( 'NONE',  ( 13.59999999999999964, 0.000000000000000000, 0.000000000000000000 ) ) ;
#641 = LINE ( 'NONE', #392, #406 ) ;
#642 = EDGE_LOOP ( 'NONE', ( #106, #660, #826, #134 ) ) ;
#643 = ORIENTED_EDGE ( 'NONE', *, *, #332, .T. ) ;
#644 = EDGE_CURVE ( 'NONE', #58, #384, #401, .T. ) ;
#645 = DIRECTION ( 'NONE',  ( 0.000000000000000000, 0.000000000000000000, -1.000000000000000000 ) ) ;
#646 = AXIS2_PLACEMENT_3D ( 'NONE', #419, #230, #1010 ) ;
#647 = CARTESIAN_POINT ( 'NONE',  ( 9.599999999999999645, 14.79999999999999716, -27.34600000000000009 ) ) ;
#648 = EDGE_LOOP ( 'NONE', ( #379, #508, #465, #981, #277 ) ) ;
#649 = ORIENTED_EDGE ( 'NONE', *, *, #1025, .T. ) ;
#650 = CARTESIAN_POINT ( 'NONE',  ( 37.19999999999999574, 10.00000000000000000, 0.000000000000000000 ) ) ;
#651 = CARTESIAN_POINT ( 'NONE',  ( 37.19999999999999574, 0.000000000000000000, -27.34499999999999886 ) ) ;
#652 = ORIENTED_EDGE ( 'NONE', *, *, #212, .T. ) ;
#653 = VERTEX_POINT ( 'NONE', #922 ) ;
#654 = PLANE ( 'NONE',  #1047 ) ;
#655 = EDGE_CURVE ( 'NONE', #932, #58, #834, .T. ) ;
#656 = AXIS2_PLACEMENT_3D ( 'NONE', #180, #249, #1034 ) ;
#657 = CARTESIAN_POINT ( 'NONE',  ( 9.599999999999999645, 14.79999999999999716, -27.34499999999999886 ) ) ;
#658 = CYLINDRICAL_SURFACE ( 'NONE', #666, 1.750000000000004219 ) ;
#659 = AXIS2_PLACEMENT_3D ( 'NONE', #509, #669, #255 ) ;
#660 = ORIENTED_EDGE ( 'NONE', *, *, #431, .F. ) ;
#661 = LINE ( 'NONE', #1046, #462 ) ;
#662 = CARTESIAN_POINT ( 'NONE',  ( 31.09999999999999432, 35.79999999999999716, -18.34499999999999886 ) ) ;
#663 = CARTESIAN_POINT ( 'NONE',  ( 23.59999999999999432, 10.80000000000000071, -18.34499999999999886 ) ) ;
#664 = AXIS2_PLACEMENT_3D ( 'NONE', #115, #427, #695 ) ;
#665 = DIRECTION ( 'NONE',  ( 0.000000000000000000, 1.000000000000000000, 0.000000000000000000 ) ) ;
#666 = AXIS2_PLACEMENT_3D ( 'NONE', #331, #919, #1012 ) ;
#667 = EDGE_LOOP ( 'NONE', ( #43, #1089, #502, #490 ) ) ;
#668 = DIRECTION ( 'NONE',  ( 0.000000000000000000, 0.000000000000000000, -1.000000000000000000 ) ) ;
#669 = DIRECTION ( 'NONE',  ( 0.000000000000000000, 1.000000000000000000, -0.000000000000000000 ) ) ;
#670 = PLANE ( 'NONE',  #774 ) ;
#671 = ORIENTED_EDGE ( 'NONE', *, *, #857, .F. ) ;
#672 = EDGE_CURVE ( 'NONE', #400, #384, #751, .T. ) ;
#673 = DIRECTION ( 'NONE',  ( -1.000000000000000000, 0.000000000000000000, 0.000000000000000000 ) ) ;
#674 = CARTESIAN_POINT ( 'NONE',  ( 12.20000000000001528, 12.19999999999997087, -18.34499999999999886 ) ) ;
#675 = CARTESIAN_POINT ( 'NONE',  ( -6.938893903907228378E-15, 10.00000000000000000, -18.34499999999999886 ) ) ;
#676 = AXIS2_PLACEMENT_3D ( 'NONE', #276, #888, #125 ) ;
#677 = AXIS2_PLACEMENT_3D ( 'NONE', #7, #1027, #335 ) ;
#678 = ORIENTED_EDGE ( 'NONE', *, *, #169, .T. ) ;
#679 = ADVANCED_FACE ( 'NONE', ( #262 ), #943, .F. ) ;
#680 = LINE ( 'NONE', #784, #915 ) ;
#681 = FACE_OUTER_BOUND ( 'NONE', #484, .T. ) ;
#682 = ORIENTED_EDGE ( 'NONE', *, *, #904, .T. ) ;
#683 = DIRECTION ( 'NONE',  ( 1.000000000000000000, 0.000000000000000000, -0.000000000000000000 ) ) ;
#684 = ORIENTED_EDGE ( 'NONE', *, *, #221, .F. ) ;
#685 = CIRCLE ( 'NONE', #698, 1.750000000000004219 ) ;
#686 = DIRECTION ( 'NONE',  ( -0.000000000000000000, -1.000000000000000000, -0.000000000000000000 ) ) ;
#687 = CARTESIAN_POINT ( 'NONE',  ( 4.599999999999996092, 24.80000000000000071, -27.34499999999999886 ) ) ;
#688 = CARTESIAN_POINT ( 'NONE',  ( 32.59999999999999432, 0.000000000000000000, -18.34499999999999886 ) ) ;
#689 = ORIENTED_EDGE ( 'NONE', *, *, #821, .F. ) ;
#690 = CARTESIAN_POINT ( 'NONE',  ( 32.59999999999999432, 24.80000000000000071, -27.34499999999999886 ) ) ;
#691 = CARTESIAN_POINT ( 'NONE',  ( 6.349999999999994316, 28.80000000000000071, -22.84499999999999886 ) ) ;
#692 = EDGE_CURVE ( 'NONE', #429, #305, #618, .T. ) ;
#693 = LINE ( 'NONE', #428, #234 ) ;
#694 = ORIENTED_EDGE ( 'NONE', *, *, #324, .T. ) ;
#695 = DIRECTION ( 'NONE',  ( 0.000000000000000000, 0.000000000000000000, -1.000000000000000000 ) ) ;
#696 = DIRECTION ( 'NONE',  ( 0.000000000000000000, 0.000000000000000000, -1.000000000000000000 ) ) ;
#697 = ORIENTED_EDGE ( 'NONE', *, *, #775, .T. ) ;
#698 = AXIS2_PLACEMENT_3D ( 'NONE', #865, #1039, #287 ) ;
#699 = CARTESIAN_POINT ( 'NONE',  ( 30.84999999999999432, 28.80000000000000071, -22.84499999999999886 ) ) ;
#700 = VECTOR ( 'NONE', #522, 1000.000000000000000 ) ;
#701 =( NAMED_UNIT ( * ) PLANE_ANGLE_UNIT ( ) SI_UNIT ( $, .RADIAN. ) );
#702 = LINE ( 'NONE', #960, #806 ) ;
#703 = FACE_OUTER_BOUND ( 'NONE', #250, .T. ) ;
#704 = ORIENTED_EDGE ( 'NONE', *, *, #82, .T. ) ;
#705 = CARTESIAN_POINT ( 'NONE',  ( 9.599999999999996092, 14.79999999999999716, -27.34499999999999886 ) ) ;
#706 = ADVANCED_FACE ( 'NONE', ( #726 ), #281, .F. ) ;
#707 = DIRECTION ( 'NONE',  ( -0.000000000000000000, -0.000000000000000000, -1.000000000000000000 ) ) ;
#708 = CARTESIAN_POINT ( 'NONE',  ( 30.84999999999999432, 28.80000000000000071, -21.09499999999999176 ) ) ;
#709 = EDGE_LOOP ( 'NONE', ( #1014, #950, #167, #1042, #300, #216, #155, #956, #591, #138, #995, #441, #308, #1001 ) ) ;
#710 = SURFACE_STYLE_USAGE ( .BOTH. , #1056 ) ;
#711 = EDGE_CURVE ( 'NONE', #884, #10, #35, .T. ) ;
#712 = VECTOR ( 'NONE', #886, 1000.000000000000000 ) ;
#713 = DIRECTION ( 'NONE',  ( -0.000000000000000000, 1.000000000000000000, -0.000000000000000000 ) ) ;
#714 = LINE ( 'NONE', #984, #546 ) ;
#715 = PRODUCT_RELATED_PRODUCT_CATEGORY ( 'part', '', ( #798 ) ) ;
#716 = ORIENTED_EDGE ( 'NONE', *, *, #203, .F. ) ;
#717 = CARTESIAN_POINT ( 'NONE',  ( 27.59999999999999787, 15.80000000000000782, -27.34499999999999886 ) ) ;
#718 = VECTOR ( 'NONE', #376, 1000.000000000000000 ) ;
#719 = CIRCLE ( 'NONE', #242, 1.750000000000003331 ) ;
#720 = CARTESIAN_POINT ( 'NONE',  ( 0.000000000000000000, 10.00000000000000000, -27.34499999999999886 ) ) ;
#721 = EDGE_CURVE ( 'NONE', #804, #944, #382, .T. ) ;
#722 = PLANE ( 'NONE',  #676 ) ;
#723 = VERTEX_POINT ( 'NONE', #457 ) ;
#724 = EDGE_LOOP ( 'NONE', ( #1037, #539 ) ) ;
#725 = PLANE ( 'NONE',  #1101 ) ;
#726 = FACE_OUTER_BOUND ( 'NONE', #833, .T. ) ;
#727 = ORIENTED_EDGE ( 'NONE', *, *, #526, .T. ) ;
#728 = ADVANCED_FACE ( 'NONE', ( #543, #803 ), #722, .F. ) ;
#729 = VERTEX_POINT ( 'NONE', #614 ) ;
#730 = CIRCLE ( 'NONE', #968, 1.750000000000004219 ) ;
#731 = LINE ( 'NONE', #547, #326 ) ;
#732 = CARTESIAN_POINT ( 'NONE',  ( 23.59999999999999432, 10.00000000000000000, -18.34499999999999886 ) ) ;
#733 = VERTEX_POINT ( 'NONE', #966 ) ;
#734 = ORIENTED_EDGE ( 'NONE', *, *, #520, .F. ) ;
#735 = CARTESIAN_POINT ( 'NONE',  ( 6.349999999999994316, 28.80000000000000071, -21.09499999999999176 ) ) ;
#736 = LINE ( 'NONE', #147, #873 ) ;
#737 = VERTEX_POINT ( 'NONE', #40 ) ;
#738 = ORIENTED_EDGE ( 'NONE', *, *, #332, .F. ) ;
#739 = ADVANCED_FACE ( 'NONE', ( #703 ), #971, .F. ) ;
#740 = CARTESIAN_POINT ( 'NONE',  ( 23.59999999999999432, 10.80000000000000071, -27.34499999999999886 ) ) ;
#741 = DIRECTION ( 'NONE',  ( -0.000000000000000000, -1.000000000000000000, 0.000000000000000000 ) ) ;
#742 = DIRECTION ( 'NONE',  ( -1.000000000000000000, 0.000000000000000000, 0.000000000000000000 ) ) ;
#743 = ORIENTED_EDGE ( 'NONE', *, *, #851, .F. ) ;
#744 = DIRECTION ( 'NONE',  ( 1.000000000000000000, 0.000000000000000000, 0.000000000000000000 ) ) ;
#745 = LINE ( 'NONE', #740, #468 ) ;
#746 = CIRCLE ( 'NONE', #370, 1.750000000000004219 ) ;
#747 = ADVANCED_FACE ( 'NONE', ( #464, #809 ), #204, .T. ) ;
#748 = CARTESIAN_POINT ( 'NONE',  ( 37.19999999999999574, 0.000000000000000000, 0.000000000000000000 ) ) ;
#749 = FACE_BOUND ( 'NONE', #1029, .T. ) ;
#750 = ORIENTED_EDGE ( 'NONE', *, *, #221, .T. ) ;
#751 = LINE ( 'NONE', #1100, #907 ) ;
#752 = FACE_OUTER_BOUND ( 'NONE', #395, .T. ) ;
#753 = PLANE ( 'NONE',  #928 ) ;
#754 = STYLED_ITEM ( 'NONE', ( #283 ), #461 ) ;
#755 = DIRECTION ( 'NONE',  ( 0.000000000000000000, -0.000000000000000000, 1.000000000000000000 ) ) ;
#756 = ADVANCED_FACE ( 'NONE', ( #1054 ), #192, .T. ) ;
#757 = ORIENTED_EDGE ( 'NONE', *, *, #610, .T. ) ;
#758 = DIRECTION ( 'NONE',  ( -0.000000000000000000, -1.000000000000000000, 0.000000000000000000 ) ) ;
#759 = FACE_BOUND ( 'NONE', #239, .T. ) ;
#760 = VERTEX_POINT ( 'NONE', #708 ) ;
#761 = EDGE_CURVE ( 'NONE', #846, #161, #714, .T. ) ;
#762 = EDGE_LOOP ( 'NONE', ( #750, #979, #237, #743, #390, #171 ) ) ;
#763 = LINE ( 'NONE', #84, #611 ) ;
#764 = PLANE ( 'NONE',  #659 ) ;
#765 = CARTESIAN_POINT ( 'NONE',  ( 9.599999999999999645, 15.79999999999996696, -27.34600000000000009 ) ) ;
#766 = AXIS2_PLACEMENT_3D ( 'NONE', #210, #1071, #363 ) ;
#767 = AXIS2_PLACEMENT_3D ( 'NONE', #982, #1052, #438 ) ;
#768 = ORIENTED_EDGE ( 'NONE', *, *, #365, .T. ) ;
#769 = CARTESIAN_POINT ( 'NONE',  ( 32.59999999999999432, 28.80000000000000071, -22.84499999999999886 ) ) ;
#770 = DIRECTION ( 'NONE',  ( 0.000000000000000000, 0.000000000000000000, 1.000000000000000000 ) ) ;
#771 = DIRECTION ( 'NONE',  ( -0.000000000000000000, 0.000000000000000000, 1.000000000000000000 ) ) ;
#772 = CIRCLE ( 'NONE', #973, 1.750000000000003331 ) ;
#773 = ORIENTED_EDGE ( 'NONE', *, *, #721, .T. ) ;
#774 = AXIS2_PLACEMENT_3D ( 'NONE', #765, #1017, #81 ) ;
#775 = EDGE_CURVE ( 'NONE', #412, #211, #288, .T. ) ;
#776 = DIRECTION ( 'NONE',  ( 0.000000000000000000, -1.000000000000000000, 0.000000000000000000 ) ) ;
#777 = FACE_OUTER_BOUND ( 'NONE', #325, .T. ) ;
#778 = DIRECTION ( 'NONE',  ( 0.000000000000000000, 0.000000000000000000, -1.000000000000000000 ) ) ;
#779 = ORIENTED_EDGE ( 'NONE', *, *, #958, .T. ) ;
#780 = CARTESIAN_POINT ( 'NONE',  ( 13.59999999999999432, 10.00000000000000000, -18.34499999999999886 ) ) ;
#781 = DIRECTION ( 'NONE',  ( 0.000000000000000000, 0.000000000000000000, -1.000000000000000000 ) ) ;
#782 = ORIENTED_EDGE ( 'NONE', *, *, #558, .F. ) ;
#783 = VECTOR ( 'NONE', #97, 1000.000000000000000 ) ;
#784 = CARTESIAN_POINT ( 'NONE',  ( 30.39999999999999503, 0.000000000000000000, -10.92250000000000298 ) ) ;
#785 = LINE ( 'NONE', #780, #378 ) ;
#786 = PLANE ( 'NONE',  #854 ) ;
#787 = ORIENTED_EDGE ( 'NONE', *, *, #219, .F. ) ;
#788 = EDGE_CURVE ( 'NONE', #412, #421, #730, .T. ) ;
#789 = DIRECTION ( 'NONE',  ( 0.000000000000000000, 0.000000000000000000, 1.000000000000000000 ) ) ;
#790 = LINE ( 'NONE', #1045, #187 ) ;
#791 = DIRECTION ( 'NONE',  ( -0.000000000000000000, -0.000000000000000000, 1.000000000000000000 ) ) ;
#792 = ORIENTED_EDGE ( 'NONE', *, *, #82, .F. ) ;
#793 = ADVANCED_FACE ( 'NONE', ( #47 ), #786, .F. ) ;
#794 = CARTESIAN_POINT ( 'NONE',  ( 30.84999999999999432, -0.001000000000001000089, -22.84499999999999886 ) ) ;
#795 = CARTESIAN_POINT ( 'NONE',  ( 6.799999999999997158, 0.000000000000000000, -9.172499999999995879 ) ) ;
#796 = CARTESIAN_POINT ( 'NONE',  ( 23.59999999999999432, 10.00000000000000000, 0.000000000000000000 ) ) ;
#797 = ORIENTED_EDGE ( 'NONE', *, *, #1043, .F. ) ;
#798 = PRODUCT ( 'ServoBracket', 'ServoBracket', '', ( #455 ) ) ;
#799 = CARTESIAN_POINT ( 'NONE',  ( 6.349999999999994316, 35.79999999999999716, -21.09499999999999176 ) ) ;
#800 = VECTOR ( 'NONE', #523, 1000.000000000000000 ) ;
#801 = EDGE_CURVE ( 'NONE', #94, #804, #452, .T. ) ;
#802 = CARTESIAN_POINT ( 'NONE',  ( 6.349999999999994316, -0.001000000000001000089, -21.09499999999999176 ) ) ;
#803 = FACE_OUTER_BOUND ( 'NONE', #1065, .T. ) ;
#804 = VERTEX_POINT ( 'NONE', #538 ) ;
#805 = ORIENTED_EDGE ( 'NONE', *, *, #992, .F. ) ;
#806 = VECTOR ( 'NONE', #13, 1000.000000000000000 ) ;
#807 = EDGE_CURVE ( 'NONE', #10, #938, #120, .T. ) ;
#808 = LINE ( 'NONE', #802, #240 ) ;
#809 = FACE_BOUND ( 'NONE', #896, .T. ) ;
#810 = ORIENTED_EDGE ( 'NONE', *, *, #460, .T. ) ;
#811 = ORIENTED_EDGE ( 'NONE', *, *, #622, .F. ) ;
#812 = DIRECTION ( 'NONE',  ( 0.000000000000000000, 0.000000000000000000, -1.000000000000000000 ) ) ;
#813 = LINE ( 'NONE', #924, #892 ) ;
#814 = ORIENTED_EDGE ( 'NONE', *, *, #135, .F. ) ;
#815 = ORIENTED_EDGE ( 'NONE', *, *, #942, .F. ) ;
#816 = VECTOR ( 'NONE', #883, 1000.000000000000000 ) ;
#817 = VECTOR ( 'NONE', #976, 1000.000000000000000 ) ;
#818 = CARTESIAN_POINT ( 'NONE',  ( 13.59999999999999964, 0.000000000000000000, -27.34499999999999886 ) ) ;
#819 = CARTESIAN_POINT ( 'NONE',  ( 0.000000000000000000, 0.000000000000000000, -27.34499999999999886 ) ) ;
#820 = ORIENTED_EDGE ( 'NONE', *, *, #711, .F. ) ;
#821 = EDGE_CURVE ( 'NONE', #333, #211, #746, .T. ) ;
#822 = VERTEX_POINT ( 'NONE', #657 ) ;
#823 = CARTESIAN_POINT ( 'NONE',  ( 13.59999999999998899, 19.79999999999999716, -18.34499999999999886 ) ) ;
#824 = VECTOR ( 'NONE', #374, 1000.000000000000000 ) ;
#825 = CARTESIAN_POINT ( 'NONE',  ( 30.39999999999999503, 10.00000000000000000, -9.172499999999999432 ) ) ;
#826 = ORIENTED_EDGE ( 'NONE', *, *, #835, .F. ) ;
#827 = ORIENTED_EDGE ( 'NONE', *, *, #622, .T. ) ;
#828 = EDGE_CURVE ( 'NONE', #723, #944, #68, .T. ) ;
#829 = DIRECTION ( 'NONE',  ( 0.000000000000000000, 0.000000000000000000, 1.000000000000000000 ) ) ;
#830 = CARTESIAN_POINT ( 'NONE',  ( 30.39999999999999503, 0.000000000000000000, -10.92250000000000476 ) ) ;
#831 = DIRECTION ( 'NONE',  ( -0.7071067811865469066, 0.7071067811865481278, 0.000000000000000000 ) ) ;
#832 = ORIENTED_EDGE ( 'NONE', *, *, #284, .F. ) ;
#833 = EDGE_LOOP ( 'NONE', ( #545, #128, #856, #251, #684 ) ) ;
#834 = LINE ( 'NONE', #71, #304 ) ;
#835 = EDGE_CURVE ( 'NONE', #36, #353, #1075, .T. ) ;
#836 = CARTESIAN_POINT ( 'NONE',  ( 30.39999999999999503, 10.00000000000000000, -10.92250000000000476 ) ) ;
#837 = AXIS2_PLACEMENT_3D ( 'NONE', #474, #741, #404 ) ;
#838 = DIRECTION ( 'NONE',  ( -1.000000000000000000, 0.000000000000000000, 0.000000000000000000 ) ) ;
#839 = ORIENTED_EDGE ( 'NONE', *, *, #102, .T. ) ;
#840 = ORIENTED_EDGE ( 'NONE', *, *, #807, .F. ) ;
#841 = DIRECTION ( 'NONE',  ( -0.000000000000000000, 1.000000000000000000, -0.000000000000000000 ) ) ;
#842 = EDGE_CURVE ( 'NONE', #418, #723, #51, .T. ) ;
#843 = CARTESIAN_POINT ( 'NONE',  ( 0.000000000000000000, 0.000000000000000000, -27.34499999999999886 ) ) ;
#844 = AXIS2_PLACEMENT_3D ( 'NONE', #885, #454, #969 ) ;
#845 = LINE ( 'NONE', #1104, #98 ) ;
#846 = VERTEX_POINT ( 'NONE', #900 ) ;
#847 = DIRECTION ( 'NONE',  ( 0.000000000000000000, 1.000000000000000000, -0.000000000000000000 ) ) ;
#848 = FACE_OUTER_BOUND ( 'NONE', #117, .T. ) ;
#849 = CARTESIAN_POINT ( 'NONE',  ( 0.000000000000000000, 10.00000000000000000, 0.000000000000000000 ) ) ;
#850 = VERTEX_POINT ( 'NONE', #819 ) ;
#851 = EDGE_CURVE ( 'NONE', #1060, #760, #72, .T. ) ;
#852 = DIRECTION ( 'NONE',  ( 8.673617379884035472E-16, 1.000000000000000000, 0.000000000000000000 ) ) ;
#853 = LINE ( 'NONE', #613, #432 ) ;
#854 = AXIS2_PLACEMENT_3D ( 'NONE', #24, #878, #1064 ) ;
#855 = DIRECTION ( 'NONE',  ( -0.000000000000000000, -0.000000000000000000, 1.000000000000000000 ) ) ;
#856 = ORIENTED_EDGE ( 'NONE', *, *, #1084, .T. ) ;
#857 = EDGE_CURVE ( 'NONE', #937, #183, #813, .T. ) ;
#858 = PLANE ( 'NONE',  #656 ) ;
#859 = CARTESIAN_POINT ( 'NONE',  ( 6.349999999999994316, 35.79999999999999716, -24.59500000000000242 ) ) ;
#860 = LINE ( 'NONE', #327, #286 ) ;
#861 = VECTOR ( 'NONE', #301, 1000.000000000000000 ) ;
#862 = ORIENTED_EDGE ( 'NONE', *, *, #324, .F. ) ;
#863 = VECTOR ( 'NONE', #707, 1000.000000000000000 ) ;
#864 = CARTESIAN_POINT ( 'NONE',  ( -6.938893903907228378E-15, 35.79999999999999716, -27.34499999999999886 ) ) ;
#865 = CARTESIAN_POINT ( 'NONE',  ( 30.39999999999999503, 0.000000000000000000, -9.172499999999999432 ) ) ;
#866 = PLANE ( 'NONE',  #386 ) ;
#867 = ORIENTED_EDGE ( 'NONE', *, *, #38, .F. ) ;
#868 = FACE_OUTER_BOUND ( 'NONE', #177, .T. ) ;
#869 = EDGE_CURVE ( 'NONE', #804, #1079, #905, .T. ) ;
#870 = CARTESIAN_POINT ( 'NONE',  ( 6.799999999999997158, 0.000000000000000000, -7.422499999999992326 ) ) ;
#871 = DIRECTION ( 'NONE',  ( -1.000000000000000000, 0.000000000000000000, -0.000000000000000000 ) ) ;
#872 = ORIENTED_EDGE ( 'NONE', *, *, #594, .F. ) ;
#873 = VECTOR ( 'NONE', #232, 1000.000000000000000 ) ;
#874 = PRODUCT_DEFINITION_FORMATION_WITH_SPECIFIED_SOURCE ( 'ANY', '', #798, .NOT_KNOWN. ) ;
#875 = DIRECTION ( 'NONE',  ( -0.000000000000000000, 1.000000000000000000, -0.000000000000000000 ) ) ;
#876 = DIRECTION ( 'NONE',  ( -1.000000000000000000, 0.000000000000000000, 0.000000000000000000 ) ) ;
#877 = EDGE_CURVE ( 'NONE', #850, #897, #641, .T. ) ;
#878 = DIRECTION ( 'NONE',  ( -1.000000000000000000, -3.469446951953613203E-16, 0.000000000000000000 ) ) ;
#879 = ORIENTED_EDGE ( 'NONE', *, *, #997, .F. ) ;
#880 = VECTOR ( 'NONE', #37, 1000.000000000000000 ) ;
#881 = PRODUCT_DEFINITION_SHAPE ( 'NONE', 'NONE',  #951 ) ;
#882 = LINE ( 'NONE', #720, #60 ) ;
#883 = DIRECTION ( 'NONE',  ( 0.000000000000000000, -1.000000000000000000, 0.000000000000000000 ) ) ;
#884 = VERTEX_POINT ( 'NONE', #1004 ) ;
#885 = CARTESIAN_POINT ( 'NONE',  ( 30.39999999999999503, 0.000000000000000000, -9.172499999999999432 ) ) ;
#886 = DIRECTION ( 'NONE',  ( -1.000000000000000000, 0.000000000000000000, 0.000000000000000000 ) ) ;
#887 = DIRECTION ( 'NONE',  ( -3.469446951953613203E-16, 1.000000000000000000, 0.000000000000000000 ) ) ;
#888 = DIRECTION ( 'NONE',  ( 0.000000000000000000, -1.000000000000000000, 0.000000000000000000 ) ) ;
#889 = ORIENTED_EDGE ( 'NONE', *, *, #118, .T. ) ;
#890 = VERTEX_POINT ( 'NONE', #1097 ) ;
#891 = ADVANCED_FACE ( 'NONE', ( #489 ), #989, .T. ) ;
#892 = VECTOR ( 'NONE', #302, 1000.000000000000000 ) ;
#893 = CARTESIAN_POINT ( 'NONE',  ( 6.349999999999994316, 28.80000000000000071, -24.59500000000000242 ) ) ;
#894 = LINE ( 'NONE', #456, #1066 ) ;
#895 = CARTESIAN_POINT ( 'NONE',  ( 30.39999999999999503, 0.000000000000000000, -9.172499999999999432 ) ) ;
#896 = EDGE_LOOP ( 'NONE', ( #343, #782, #814, #30 ) ) ;
#897 = VERTEX_POINT ( 'NONE', #222 ) ;
#898 = APPLICATION_CONTEXT ( 'automotive_design' ) ;
#899 = DIRECTION ( 'NONE',  ( -0.000000000000000000, 1.000000000000000000, -0.000000000000000000 ) ) ;
#900 = CARTESIAN_POINT ( 'NONE',  ( 32.59999999999999432, 28.80000000000000071, -27.34499999999999886 ) ) ;
#901 = EDGE_LOOP ( 'NONE', ( #779, #996, #694, #193, #920, #303, #261, #518, #148, #986, #832, #218, #773, #643 ) ) ;
#902 = EDGE_LOOP ( 'NONE', ( #388, #557, #574, #413, #599, #466 ) ) ;
#903 = LINE ( 'NONE', #209, #96 ) ;
#904 = EDGE_CURVE ( 'NONE', #733, #1079, #317, .T. ) ;
#905 = LINE ( 'NONE', #159, #1002 ) ;
#906 = VERTEX_POINT ( 'NONE', #495 ) ;
#907 = VECTOR ( 'NONE', #1031, 1000.000000000000000 ) ;
#908 = CARTESIAN_POINT ( 'NONE',  ( 27.59999999999999787, 14.79999999999999716, -27.34499999999999886 ) ) ;
#909 = LINE ( 'NONE', #647, #987 ) ;
#910 = ORIENTED_EDGE ( 'NONE', *, *, #788, .F. ) ;
#911 = EDGE_CURVE ( 'NONE', #36, #121, #736, .T. ) ;
#912 = ORIENTED_EDGE ( 'NONE', *, *, #630, .T. ) ;
#913 = FACE_OUTER_BOUND ( 'NONE', #902, .T. ) ;
#914 = EDGE_CURVE ( 'NONE', #884, #206, #1011, .T. ) ;
#915 = VECTOR ( 'NONE', #963, 1000.000000000000000 ) ;
#916 = CYLINDRICAL_SURFACE ( 'NONE', #150, 1.750000000000004219 ) ;
#917 = VECTOR ( 'NONE', #946, 1000.000000000000000 ) ;
#918 = DIRECTION ( 'NONE',  ( 0.000000000000000000, 1.000000000000000000, 0.000000000000000000 ) ) ;
#919 = DIRECTION ( 'NONE',  ( -0.000000000000000000, 1.000000000000000000, -0.000000000000000000 ) ) ;
#920 = ORIENTED_EDGE ( 'NONE', *, *, #46, .T. ) ;
#921 = ADVANCED_FACE ( 'NONE', ( #74, #244 ), #153, .F. ) ;
#922 = CARTESIAN_POINT ( 'NONE',  ( 6.349999999999994316, 28.80000000000000071, -24.59500000000000242 ) ) ;
#923 = LINE ( 'NONE', #1090, #224 ) ;
#924 = CARTESIAN_POINT ( 'NONE',  ( 4.599999999999996092, 24.80000000000000071, 0.000000000000000000 ) ) ;
#925 = ORIENTED_EDGE ( 'NONE', *, *, #569, .F. ) ;
#926 = ORIENTED_EDGE ( 'NONE', *, *, #480, .T. ) ;
#927 = EDGE_CURVE ( 'NONE', #822, #121, #909, .T. ) ;
#928 = AXIS2_PLACEMENT_3D ( 'NONE', #500, #940, #346 ) ;
#929 = DIRECTION ( 'NONE',  ( 1.000000000000000000, -0.000000000000000000, -0.000000000000000000 ) ) ;
#930 = VECTOR ( 'NONE', #791, 1000.000000000000000 ) ;
#931 = DIRECTION ( 'NONE',  ( 0.000000000000000000, -0.000000000000000000, -1.000000000000000000 ) ) ;
#932 = VERTEX_POINT ( 'NONE', #994 ) ;
#933 = ORIENTED_EDGE ( 'NONE', *, *, #493, .F. ) ;
#934 = LINE ( 'NONE', #578, #573 ) ;
#935 = CARTESIAN_POINT ( 'NONE',  ( 6.349999999999994316, 35.79999999999999716, -21.09499999999999176 ) ) ;
#936 = CIRCLE ( 'NONE', #394, 1.750000000000005107 ) ;
#937 = VERTEX_POINT ( 'NONE', #999 ) ;
#938 = VERTEX_POINT ( 'NONE', #227 ) ;
#939 = DIRECTION ( 'NONE',  ( 0.000000000000000000, 1.000000000000000000, 0.000000000000000000 ) ) ;
#940 = DIRECTION ( 'NONE',  ( 1.000000000000000000, 0.000000000000000000, 0.000000000000000000 ) ) ;
#941 = VERTEX_POINT ( 'NONE', #560 ) ;
#942 = EDGE_CURVE ( 'NONE', #733, #3, #1087, .T. ) ;
#943 = PLANE ( 'NONE',  #319 ) ;
#944 = VERTEX_POINT ( 'NONE', #651 ) ;
#945 = DIRECTION ( 'NONE',  ( 0.000000000000000000, 0.000000000000000000, 1.000000000000000000 ) ) ;
#946 = DIRECTION ( 'NONE',  ( 0.000000000000000000, 0.000000000000000000, -1.000000000000000000 ) ) ;
#947 = PRODUCT_DEFINITION_CONTEXT ( 'detailed design', #360, 'design' ) ;
#948 = FACE_OUTER_BOUND ( 'NONE', #86, .T. ) ;
#949 = EDGE_CURVE ( 'NONE', #213, #229, #483, .T. ) ;
#950 = ORIENTED_EDGE ( 'NONE', *, *, #266, .T. ) ;
#951 = PRODUCT_DEFINITION ( 'UNKNOWN', '', #874, #947 ) ;
#952 = CARTESIAN_POINT ( 'NONE',  ( 4.599999999999999645, 28.80000000000000071, -27.34499999999999886 ) ) ;
#953 = DIRECTION ( 'NONE',  ( 1.000000000000000000, -0.000000000000000000, 0.000000000000000000 ) ) ;
#954 = LINE ( 'NONE', #105, #800 ) ;
#955 = VECTOR ( 'NONE', #61, 1000.000000000000000 ) ;
#956 = ORIENTED_EDGE ( 'NONE', *, *, #118, .F. ) ;
#957 = AXIS2_PLACEMENT_3D ( 'NONE', #691, #1058, #280 ) ;
#958 = EDGE_CURVE ( 'NONE', #729, #336, #416, .T. ) ;
#959 =( NAMED_UNIT ( * ) SI_UNIT ( $, .STERADIAN. ) SOLID_ANGLE_UNIT ( ) );
#960 = CARTESIAN_POINT ( 'NONE',  ( 4.599999999999974776, -3.989863994746634229E-15, -18.34499999999999886 ) ) ;
#961 = CARTESIAN_POINT ( 'NONE',  ( 6.349999999999994316, -0.001000000000001000089, -22.84499999999999886 ) ) ;
#962 = ORIENTED_EDGE ( 'NONE', *, *, #869, .T. ) ;
#963 = DIRECTION ( 'NONE',  ( -0.000000000000000000, 1.000000000000000000, -0.000000000000000000 ) ) ;
#964 = ADVANCED_FACE ( 'NONE', ( #1103 ), #753, .F. ) ;
#965 = CARTESIAN_POINT ( 'NONE',  ( 4.599999999999999645, 28.80000000000000071, -18.34499999999999886 ) ) ;
#966 = CARTESIAN_POINT ( 'NONE',  ( -6.938893903907228378E-15, 35.79999999999999716, -18.34499999999999886 ) ) ;
#967 = EDGE_LOOP ( 'NONE', ( #323, #190, #839, #768, #132, #373 ) ) ;
#968 = AXIS2_PLACEMENT_3D ( 'NONE', #895, #116, #534 ) ;
#969 = DIRECTION ( 'NONE',  ( 0.000000000000000000, 0.000000000000000000, 1.000000000000000000 ) ) ;
#970 = FACE_OUTER_BOUND ( 'NONE', #638, .T. ) ;
#971 = CYLINDRICAL_SURFACE ( 'NONE', #605, 1.750000000000005107 ) ;
#972 = ORIENTED_EDGE ( 'NONE', *, *, #87, .T. ) ;
#973 = AXIS2_PLACEMENT_3D ( 'NONE', #78, #847, #504 ) ;
#974 = AXIS2_PLACEMENT_3D ( 'NONE', #650, #812, #1063 ) ;
#975 = DIRECTION ( 'NONE',  ( 0.000000000000000000, 1.000000000000000000, -0.000000000000000000 ) ) ;
#976 = DIRECTION ( 'NONE',  ( 1.000000000000000000, 0.000000000000000000, 0.000000000000000000 ) ) ;
#977 = DIRECTION ( 'NONE',  ( -0.000000000000000000, -0.000000000000000000, -1.000000000000000000 ) ) ;
#978 = CARTESIAN_POINT ( 'NONE',  ( 13.59999999999999964, 10.00000000000000000, 0.000000000000000000 ) ) ;
#979 = ORIENTED_EDGE ( 'NONE', *, *, #410, .F. ) ;
#980 = ADVANCED_FACE ( 'NONE', ( #681 ), #858, .F. ) ;
#981 = ORIENTED_EDGE ( 'NONE', *, *, #761, .T. ) ;
#982 = CARTESIAN_POINT ( 'NONE',  ( 0.000000000000000000, 0.000000000000000000, 0.000000000000000000 ) ) ;
#983 = CARTESIAN_POINT ( 'NONE',  ( 13.59999999999999964, 10.79999999999997939, -27.34499999999999886 ) ) ;
#984 = CARTESIAN_POINT ( 'NONE',  ( 32.59999999999999432, 24.80000000000000071, -27.34499999999999886 ) ) ;
#985 = VERTEX_POINT ( 'NONE', #952 ) ;
#986 = ORIENTED_EDGE ( 'NONE', *, *, #997, .T. ) ;
#987 = VECTOR ( 'NONE', #141, 1000.000000000000000 ) ;
#988 = LINE ( 'NONE', #220, #592 ) ;
#989 = PLANE ( 'NONE',  #354 ) ;
#990 = ORIENTED_EDGE ( 'NONE', *, *, #1057, .F. ) ;
#991 = VECTOR ( 'NONE', #1068, 1000.000000000000000 ) ;
#992 = EDGE_CURVE ( 'NONE', #897, #305, #330, .T. ) ;
#993 = DIRECTION ( 'NONE',  ( -0.000000000000000000, 1.000000000000000000, -0.000000000000000000 ) ) ;
#994 = CARTESIAN_POINT ( 'NONE',  ( 23.59999999999996945, 19.79999999999999716, -18.34499999999999886 ) ) ;
#995 = ORIENTED_EDGE ( 'NONE', *, *, #911, .F. ) ;
#996 = ORIENTED_EDGE ( 'NONE', *, *, #437, .T. ) ;
#997 = EDGE_CURVE ( 'NONE', #229, #850, #521, .T. ) ;
#998 = FACE_OUTER_BOUND ( 'NONE', #399, .T. ) ;
#999 = CARTESIAN_POINT ( 'NONE',  ( 4.599999999999996092, 24.80000000000000071, -18.34499999999999886 ) ) ;
#1000 = ORIENTED_EDGE ( 'NONE', *, *, #630, .F. ) ;
#1001 = ORIENTED_EDGE ( 'NONE', *, *, #655, .T. ) ;
#1002 = VECTOR ( 'NONE', #838, 1000.000000000000000 ) ;
#1003 = DIRECTION ( 'NONE',  ( -1.000000000000000000, 0.000000000000000000, 0.000000000000000000 ) ) ;
#1004 = CARTESIAN_POINT ( 'NONE',  ( 23.59999999999999432, 10.00000000000000000, -18.34499999999999886 ) ) ;
#1005 = ORIENTED_EDGE ( 'NONE', *, *, #927, .T. ) ;
#1006 = ADVANCED_FACE ( 'NONE', ( #848 ), #1016, .F. ) ;
#1007 = ORIENTED_EDGE ( 'NONE', *, *, #711, .T. ) ;
#1008 = CARTESIAN_POINT ( 'NONE',  ( 0.000000000000000000, 10.00000000000000000, 0.000000000000000000 ) ) ;
#1009 = VECTOR ( 'NONE', #119, 1000.000000000000000 ) ;
#1010 = DIRECTION ( 'NONE',  ( -0.000000000000000000, 0.000000000000000000, 1.000000000000000000 ) ) ;
#1011 = LINE ( 'NONE', #732, #162 ) ;
#1012 = DIRECTION ( 'NONE',  ( 0.000000000000000000, 0.000000000000000000, 1.000000000000000000 ) ) ;
#1013 = EDGE_CURVE ( 'NONE', #94, #737, #583, .T. ) ;
#1014 = ORIENTED_EDGE ( 'NONE', *, *, #644, .T. ) ;
#1015 = LINE ( 'NONE', #334, #628 ) ;
#1016 = PLANE ( 'NONE',  #1078 ) ;
#1017 = DIRECTION ( 'NONE',  ( -0.7071067811865512365, 0.7071067811865439090, 0.000000000000000000 ) ) ;
#1018 = ORIENTED_EDGE ( 'NONE', *, *, #761, .F. ) ;
#1019 = AXIS2_PLACEMENT_3D ( 'NONE', #100, #348, #683 ) ;
#1020 = CARTESIAN_POINT ( 'NONE',  ( 30.39999999999999503, 0.000000000000000000, -7.422499999999995879 ) ) ;
#1021 = AXIS2_PLACEMENT_3D ( 'NONE', #91, #776, #12 ) ;
#1022 = LINE ( 'NONE', #2, #179 ) ;
#1023 = ORIENTED_EDGE ( 'NONE', *, *, #904, .F. ) ;
#1024 = ORIENTED_EDGE ( 'NONE', *, *, #402, .T. ) ;
#1025 = EDGE_CURVE ( 'NONE', #941, #369, #109, .T. ) ;
#1026 = DIRECTION ( 'NONE',  ( 0.000000000000000000, 0.000000000000000000, -1.000000000000000000 ) ) ;
#1027 = DIRECTION ( 'NONE',  ( 0.000000000000000000, 1.000000000000000000, 0.000000000000000000 ) ) ;
#1028 = CIRCLE ( 'NONE', #77, 1.750000000000005107 ) ;
#1029 = EDGE_LOOP ( 'NONE', ( #797, #689 ) ) ;
#1030 = UNCERTAINTY_MEASURE_WITH_UNIT (LENGTH_MEASURE( 1.000000000000000082E-05 ), #620, 'distance_accuracy_value', 'NONE');
#1031 = DIRECTION ( 'NONE',  ( -0.000000000000000000, -0.000000000000000000, 1.000000000000000000 ) ) ;
#1032 = VERTEX_POINT ( 'NONE', #85 ) ;
#1033 = ADVANCED_FACE ( 'NONE', ( #759, #433 ), #1108, .T. ) ;
#1034 = DIRECTION ( 'NONE',  ( 0.000000000000000000, 0.000000000000000000, 1.000000000000000000 ) ) ;
#1035 = FACE_OUTER_BOUND ( 'NONE', #52, .T. ) ;
#1036 = DIRECTION ( 'NONE',  ( 0.000000000000000000, 0.000000000000000000, -1.000000000000000000 ) ) ;
#1037 = ORIENTED_EDGE ( 'NONE', *, *, #95, .F. ) ;
#1038 = DIRECTION ( 'NONE',  ( 0.000000000000000000, -1.000000000000000000, 0.000000000000000000 ) ) ;
#1039 = DIRECTION ( 'NONE',  ( 0.000000000000000000, 1.000000000000000000, 0.000000000000000000 ) ) ;
#1040 = AXIS2_PLACEMENT_3D ( 'NONE', #387, #1081, #307 ) ;
#1041 = CARTESIAN_POINT ( 'NONE',  ( 37.19999999999999574, 0.000000000000000000, 0.000000000000000000 ) ) ;
#1042 = ORIENTED_EDGE ( 'NONE', *, *, #358, .F. ) ;
#1043 = EDGE_CURVE ( 'NONE', #211, #333, #145, .T. ) ;
#1044 =( LENGTH_UNIT ( ) NAMED_UNIT ( * ) SI_UNIT ( .MILLI., .METRE. ) );
#1045 = CARTESIAN_POINT ( 'NONE',  ( 23.59999999999999432, 0.000000000000000000, 0.000000000000000000 ) ) ;
#1046 = CARTESIAN_POINT ( 'NONE',  ( 13.59999999999999964, 0.000000000000000000, 0.000000000000000000 ) ) ;
#1047 = AXIS2_PLACEMENT_3D ( 'NONE', #662, #235, #668 ) ;
#1048 = ORIENTED_EDGE ( 'NONE', *, *, #512, .F. ) ;
#1049 = CLOSED_SHELL ( 'NONE', ( #17, #473, #540, #747, #1077, #53, #679, #980, #728, #1033, #389, #562, #756, #633, #195, #5, #921, #396, #184, #964, #253, #706, #1006, #739, #122, #507, #551, #375, #793, #163, #891, #238, #32 ) ) ;
#1050 = EDGE_CURVE ( 'NONE', #295, #121, #595, .T. ) ;
#1051 = DIRECTION ( 'NONE',  ( -0.000000000000000000, -1.000000000000000000, 0.000000000000000000 ) ) ;
#1052 = DIRECTION ( 'NONE',  ( 0.000000000000000000, 0.000000000000000000, 1.000000000000000000 ) ) ;
#1053 = CARTESIAN_POINT ( 'NONE',  ( 23.59999999999999432, 19.79999999999999716, -27.34499999999999886 ) ) ;
#1054 = FACE_OUTER_BOUND ( 'NONE', #364, .T. ) ;
#1055 = ORIENTED_EDGE ( 'NONE', *, *, #851, .T. ) ;
#1056 = SURFACE_SIDE_STYLE ('',( #627 ) ) ;
#1057 = EDGE_CURVE ( 'NONE', #161, #183, #606, .T. ) ;
#1058 = DIRECTION ( 'NONE',  ( -0.000000000000000000, -1.000000000000000000, 0.000000000000000000 ) ) ;
#1059 = CARTESIAN_POINT ( 'NONE',  ( 37.19999999999999574, 35.79999999999999716, -18.34499999999999886 ) ) ;
#1060 = VERTEX_POINT ( 'NONE', #769 ) ;
#1061 = VECTOR ( 'NONE', #572, 1000.000000000000000 ) ;
#1062 = EDGE_CURVE ( 'NONE', #1060, #846, #1022, .T. ) ;
#1063 = DIRECTION ( 'NONE',  ( -1.000000000000000000, 0.000000000000000000, -0.000000000000000000 ) ) ;
#1064 = DIRECTION ( 'NONE',  ( 3.469446951953613203E-16, -1.000000000000000000, 0.000000000000000000 ) ) ;
#1065 = EDGE_LOOP ( 'NONE', ( #501, #889, #1088, #549 ) ) ;
#1066 = VECTOR ( 'NONE', #34, 1000.000000000000000 ) ;
#1067 = VECTOR ( 'NONE', #104, 1000.000000000000000 ) ;
#1068 = DIRECTION ( 'NONE',  ( 0.000000000000000000, 0.000000000000000000, -1.000000000000000000 ) ) ;
#1069 = DIRECTION ( 'NONE',  ( 0.000000000000000000, 0.000000000000000000, -1.000000000000000000 ) ) ;
#1070 = CARTESIAN_POINT ( 'NONE',  ( 0.000000000000000000, 10.00000000000000000, 0.000000000000000000 ) ) ;
#1071 = DIRECTION ( 'NONE',  ( -1.000000000000000000, 8.673617379884035472E-16, 0.000000000000000000 ) ) ;
#1072 = EDGE_LOOP ( 'NONE', ( #486, #380, #63, #716 ) ) ;
#1073 = ORIENTED_EDGE ( 'NONE', *, *, #460, .F. ) ;
#1074 = LINE ( 'NONE', #371, #861 ) ;
#1075 = LINE ( 'NONE', #579, #269 ) ;
#1076 = VERTEX_POINT ( 'NONE', #270 ) ;
#1077 = ADVANCED_FACE ( 'NONE', ( #589 ), #764, .F. ) ;
#1078 = AXIS2_PLACEMENT_3D ( 'NONE', #600, #174, #931 ) ;
#1079 = VERTEX_POINT ( 'NONE', #864 ) ;
#1080 = DIRECTION ( 'NONE',  ( -0.7071067811865482389, -0.7071067811865469066, 0.000000000000000000 ) ) ;
#1081 = DIRECTION ( 'NONE',  ( 0.000000000000000000, 1.000000000000000000, 0.000000000000000000 ) ) ;
#1082 = VERTEX_POINT ( 'NONE', #935 ) ;
#1083 = VERTEX_POINT ( 'NONE', #170 ) ;
#1084 = EDGE_CURVE ( 'NONE', #183, #985, #341, .T. ) ;
#1085 = PRESENTATION_LAYER_ASSIGNMENT (  '', '', ( #754 ) ) ;
#1086 = LINE ( 'NONE', #735, #485 ) ;
#1087 = LINE ( 'NONE', #312, #18 ) ;
#1088 = ORIENTED_EDGE ( 'NONE', *, *, #569, .T. ) ;
#1089 = ORIENTED_EDGE ( 'NONE', *, *, #446, .T. ) ;
#1090 = CARTESIAN_POINT ( 'NONE',  ( 37.19999999999999574, 0.000000000000000000, -27.34499999999999886 ) ) ;
#1091 = CARTESIAN_POINT ( 'NONE',  ( 13.59999999999999964, 10.00000000000000000, -27.34499999999999886 ) ) ;
#1092 = FACE_OUTER_BOUND ( 'NONE', #166, .T. ) ;
#1093 = LINE ( 'NONE', #1041, #565 ) ;
#1094 = VECTOR ( 'NONE', #829, 1000.000000000000000 ) ;
#1095 = CARTESIAN_POINT ( 'NONE',  ( 30.84999999999999432, 35.79999999999999716, -24.59500000000000242 ) ) ;
#1096 = EDGE_CURVE ( 'NONE', #586, #429, #33, .T. ) ;
#1097 = CARTESIAN_POINT ( 'NONE',  ( 6.349999999999994316, 28.80000000000000071, -21.09499999999999176 ) ) ;
#1098 = VERTEX_POINT ( 'NONE', #532 ) ;
#1099 = ORIENTED_EDGE ( 'NONE', *, *, #672, .T. ) ;
#1100 = CARTESIAN_POINT ( 'NONE',  ( 27.59999999999999787, 14.79999999999999716, -27.34600000000000009 ) ) ;
#1101 = AXIS2_PLACEMENT_3D ( 'NONE', #559, #140, #385 ) ;
#1102 = LINE ( 'NONE', #158, #519 ) ;
#1103 = FACE_OUTER_BOUND ( 'NONE', #648, .T. ) ;
#1104 = CARTESIAN_POINT ( 'NONE',  ( 31.09999999999999432, 35.79999999999999716, -18.34499999999999886 ) ) ;
#1105 = ORIENTED_EDGE ( 'NONE', *, *, #293, .T. ) ;
#1106 = EDGE_CURVE ( 'NONE', #1032, #906, #568, .T. ) ;
#1107 = CARTESIAN_POINT ( 'NONE',  ( 4.599999999999982769, 28.80000000000000071, -22.84499999999999886 ) ) ;
#1108 = PLANE ( 'NONE',  #1021 ) ;
#1109 = CARTESIAN_POINT ( 'NONE',  ( 9.599999999999999645, 15.79999999999996696, -18.34499999999999886 ) ) ;
#1110 = ORIENTED_EDGE ( 'NONE', *, *, #1096, .F. ) ;
#1111 = EDGE_CURVE ( 'NONE', #246, #653, #108, .T. ) ;
#1112 = AXIS2_PLACEMENT_3D ( 'NONE', #151, #320, #696 ) ;
#1113 = CARTESIAN_POINT ( 'NONE',  ( 27.59999999999999787, 14.79999999999999716, -18.34499999999999886 ) ) ;
ENDSEC;
END-ISO-10303-21;
