ISO-10303-21;
HEADER;
FILE_DESCRIPTION (( 'STEP AP214' ),
    '1' );
FILE_NAME ('TaperAdapt.STEP',
    '2026-01-29T13:51:36',
    ( '' ),
    ( '' ),
    'SwSTEP 2.0',
    'SolidWorks 2025',
    '' );
FILE_SCHEMA (( 'AUTOMOTIVE_DESIGN' ));
ENDSEC;

DATA;
#1 = AXIS2_PLACEMENT_3D ( 'NONE', #157, #213, #357 ) ;
#2 = VERTEX_POINT ( 'NONE', #359 ) ;
#3 = VECTOR ( 'NONE', #124, 1000.000000000000000 ) ;
#4 = EDGE_CURVE ( 'NONE', #318, #349, #341, .T. ) ;
#5 = LINE ( 'NONE', #203, #429 ) ;
#6 = DIRECTION ( 'NONE',  ( 0.000000000000000000, 0.000000000000000000, 1.000000000000000000 ) ) ;
#7 = CYLINDRICAL_SURFACE ( 'NONE', #152, 7.929999999999999716 ) ;
#8 = VECTOR ( 'NONE', #125, 1000.000000000000000 ) ;
#9 = ORIENTED_EDGE ( 'NONE', *, *, #241, .F. ) ;
#10 = CARTESIAN_POINT ( 'NONE',  ( 0.000000000000000000, -4.000000000000000000, 22.00000000000000000 ) ) ;
#11 = CARTESIAN_POINT ( 'NONE',  ( 0.000000000000000000, 0.000000000000000000, -20.00000000000000000 ) ) ;
#12 = EDGE_LOOP ( 'NONE', ( #45, #244, #113, #352 ) ) ;
#13 =( LENGTH_UNIT ( ) NAMED_UNIT ( * ) SI_UNIT ( .MILLI., .METRE. ) );
#14 = EDGE_LOOP ( 'NONE', ( #311, #114, #112, #42 ) ) ;
#15 = CIRCLE ( 'NONE', #248, 20.00000000000000000 ) ;
#16 = CARTESIAN_POINT ( 'NONE',  ( 0.000000000000000000, -4.000000000000000000, 0.000000000000000000 ) ) ;
#17 = ORIENTED_EDGE ( 'NONE', *, *, #226, .T. ) ;
#18 = ORIENTED_EDGE ( 'NONE', *, *, #308, .F. ) ;
#19 = CARTESIAN_POINT ( 'NONE',  ( 0.000000000000000000, 0.000000000000000000, 0.000000000000000000 ) ) ;
#20 = CARTESIAN_POINT ( 'NONE',  ( 0.000000000000000000, -5.500000000000000000, 0.000000000000000000 ) ) ;
#21 = PRODUCT ( 'TaperAdapt', 'TaperAdapt', '', ( #271 ) ) ;
#22 = CIRCLE ( 'NONE', #321, 9.999999999999971578 ) ;
#23 = DIRECTION ( 'NONE',  ( 0.000000000000000000, 1.000000000000000000, 0.000000000000000000 ) ) ;
#24 = DIRECTION ( 'NONE',  ( 0.000000000000000000, 0.000000000000000000, 1.000000000000000000 ) ) ;
#25 = CARTESIAN_POINT ( 'NONE',  ( 0.000000000000000000, -4.000000000000000000, 0.000000000000000000 ) ) ;
#26 = CARTESIAN_POINT ( 'NONE',  ( 0.000000000000000000, -5.500000000000000000, 0.000000000000000000 ) ) ;
#27 = CIRCLE ( 'NONE', #147, 22.00000000000000000 ) ;
#28 = EDGE_CURVE ( 'NONE', #285, #235, #434, .T. ) ;
#29 = DIRECTION ( 'NONE',  ( 0.000000000000000000, -1.000000000000000000, 0.000000000000000000 ) ) ;
#30 = DIRECTION ( 'NONE',  ( 0.000000000000000000, 0.000000000000000000, 1.000000000000000000 ) ) ;
#31 = CYLINDRICAL_SURFACE ( 'NONE', #1, 22.00000000000000000 ) ;
#32 = AXIS2_PLACEMENT_3D ( 'NONE', #234, #406, #68 ) ;
#33 = DIRECTION ( 'NONE',  ( -0.000000000000000000, 1.000000000000000000, -0.000000000000000000 ) ) ;
#34 = AXIS2_PLACEMENT_3D ( 'NONE', #250, #395, #87 ) ;
#35 = PRODUCT_DEFINITION_CONTEXT ( 'detailed design', #58, 'design' ) ;
#36 = CARTESIAN_POINT ( 'NONE',  ( 2.694222958124176809E-15, -4.000000000000000000, -22.00000000000000000 ) ) ;
#37 = DIRECTION ( 'NONE',  ( 0.000000000000000000, 1.000000000000000000, 0.000000000000000000 ) ) ;
#38 = CYLINDRICAL_SURFACE ( 'NONE', #400, 19.00000000000000000 ) ;
#39 = EDGE_LOOP ( 'NONE', ( #303, #135 ) ) ;
#40 = CIRCLE ( 'NONE', #196, 8.499999999999955591 ) ;
#41 = DIRECTION ( 'NONE',  ( 0.000000000000000000, 0.000000000000000000, 1.000000000000000000 ) ) ;
#42 = ORIENTED_EDGE ( 'NONE', *, *, #348, .F. ) ;
#43 = ADVANCED_FACE ( 'NONE', ( #51 ), #62, .F. ) ;
#44 = SURFACE_STYLE_USAGE ( .BOTH. , #50 ) ;
#45 = ORIENTED_EDGE ( 'NONE', *, *, #193, .F. ) ;
#46 = FACE_OUTER_BOUND ( 'NONE', #209, .T. ) ;
#47 = VERTEX_POINT ( 'NONE', #224 ) ;
#48 = DIRECTION ( 'NONE',  ( 0.000000000000000000, 1.000000000000000000, 0.000000000000000000 ) ) ;
#49 = CARTESIAN_POINT ( 'NONE',  ( 0.000000000000000000, 0.000000000000000000, 0.000000000000000000 ) ) ;
#50 = SURFACE_SIDE_STYLE ('',( #358 ) ) ;
#51 = FACE_OUTER_BOUND ( 'NONE', #365, .T. ) ;
#52 = CARTESIAN_POINT ( 'NONE',  ( 0.000000000000000000, 0.000000000000000000, 0.000000000000000000 ) ) ;
#53 = EDGE_CURVE ( 'NONE', #144, #371, #409, .T. ) ;
#54 = ORIENTED_EDGE ( 'NONE', *, *, #28, .T. ) ;
#55 = AXIS2_PLACEMENT_3D ( 'NONE', #100, #306, #414 ) ;
#56 = DIRECTION ( 'NONE',  ( 0.000000000000000000, 1.000000000000000000, 0.000000000000000000 ) ) ;
#57 = CARTESIAN_POINT ( 'NONE',  ( 0.000000000000000000, 0.000000000000000000, 19.00000000000000000 ) ) ;
#58 = APPLICATION_CONTEXT ( 'automotive_design' ) ;
#59 = EDGE_CURVE ( 'NONE', #403, #232, #296, .T. ) ;
#60 = DIRECTION ( 'NONE',  ( 0.000000000000000000, -0.000000000000000000, 1.000000000000000000 ) ) ;
#61 = DIRECTION ( 'NONE',  ( 0.000000000000000000, 1.000000000000000000, 0.000000000000000000 ) ) ;
#62 = CYLINDRICAL_SURFACE ( 'NONE', #81, 20.00000000000000000 ) ;
#63 = DIRECTION ( 'NONE',  ( 0.000000000000000000, -1.000000000000000000, 0.000000000000000000 ) ) ;
#64 = ADVANCED_FACE ( 'NONE', ( #340 ), #31, .T. ) ;
#65 = CARTESIAN_POINT ( 'NONE',  ( 0.000000000000000000, -1.500000000000000000, 7.929999999999999716 ) ) ;
#66 = DIRECTION ( 'NONE',  ( 0.000000000000000000, 0.000000000000000000, 1.000000000000000000 ) ) ;
#67 = AXIS2_PLACEMENT_3D ( 'NONE', #145, #289, #428 ) ;
#68 = DIRECTION ( 'NONE',  ( 0.000000000000000000, 0.000000000000000000, 1.000000000000000000 ) ) ;
#69 = EDGE_LOOP ( 'NONE', ( #190, #111 ) ) ;
#70 = PRODUCT_DEFINITION ( 'UNKNOWN', '', #264, #35 ) ;
#71 = DIRECTION ( 'NONE',  ( 0.000000000000000000, 0.000000000000000000, 1.000000000000000000 ) ) ;
#72 = ORIENTED_EDGE ( 'NONE', *, *, #348, .T. ) ;
#73 = CARTESIAN_POINT ( 'NONE',  ( 0.000000000000000000, -5.500000000000000000, 0.000000000000000000 ) ) ;
#74 = EDGE_LOOP ( 'NONE', ( #169, #249 ) ) ;
#75 = PRESENTATION_STYLE_ASSIGNMENT (( #44 ) ) ;
#76 = EDGE_CURVE ( 'NONE', #416, #316, #404, .T. ) ;
#77 = VERTEX_POINT ( 'NONE', #227 ) ;
#78 = FACE_BOUND ( 'NONE', #284, .T. ) ;
#79 = EDGE_CURVE ( 'NONE', #371, #416, #229, .T. ) ;
#80 = DIRECTION ( 'NONE',  ( 0.000000000000000000, 1.000000000000000000, 0.000000000000000000 ) ) ;
#81 = AXIS2_PLACEMENT_3D ( 'NONE', #292, #432, #155 ) ;
#82 = AXIS2_PLACEMENT_3D ( 'NONE', #26, #148, #436 ) ;
#83 = ORIENTED_EDGE ( 'NONE', *, *, #269, .T. ) ;
#84 = COLOUR_RGB ( '',0.7921568627450980005, 0.8196078431372548767, 0.9333333333333333481 ) ;
#85 = DIRECTION ( 'NONE',  ( 0.000000000000000000, -0.000000000000000000, 1.000000000000000000 ) ) ;
#86 = DIRECTION ( 'NONE',  ( 0.000000000000000000, 0.000000000000000000, 1.000000000000000000 ) ) ;
#87 = DIRECTION ( 'NONE',  ( 0.000000000000000000, 0.000000000000000000, 1.000000000000000000 ) ) ;
#88 = ORIENTED_EDGE ( 'NONE', *, *, #79, .F. ) ;
#89 = DIRECTION ( 'NONE',  ( 0.000000000000000000, 0.000000000000000000, 1.000000000000000000 ) ) ;
#90 = DIRECTION ( 'NONE',  ( 0.000000000000000000, 0.000000000000000000, 1.000000000000000000 ) ) ;
#91 = VECTOR ( 'NONE', #307, 1000.000000000000000 ) ;
#92 = CIRCLE ( 'NONE', #272, 19.00000000000000000 ) ;
#93 = CYLINDRICAL_SURFACE ( 'NONE', #174, 19.00000000000000000 ) ;
#94 = CARTESIAN_POINT ( 'NONE',  ( 0.000000000000000000, -4.000000000000000000, 22.00000000000000000 ) ) ;
#95 =( NAMED_UNIT ( * ) PLANE_ANGLE_UNIT ( ) SI_UNIT ( $, .RADIAN. ) );
#96 = ORIENTED_EDGE ( 'NONE', *, *, #308, .T. ) ;
#97 = APPLICATION_PROTOCOL_DEFINITION ( 'draft international standard', 'automotive_design', 1998, #408 ) ;
#98 = CARTESIAN_POINT ( 'NONE',  ( 0.000000000000000000, -4.000000000000000000, 7.929999999999999716 ) ) ;
#99 = FACE_OUTER_BOUND ( 'NONE', #421, .T. ) ;
#100 = CARTESIAN_POINT ( 'NONE',  ( 0.000000000000000000, 0.000000000000000000, 0.000000000000000000 ) ) ;
#101 = CIRCLE ( 'NONE', #255, 7.929999999999999716 ) ;
#102 = DIRECTION ( 'NONE',  ( 0.000000000000000000, 1.000000000000000000, 0.000000000000000000 ) ) ;
#103 = EDGE_CURVE ( 'NONE', #77, #207, #202, .T. ) ;
#104 = DIRECTION ( 'NONE',  ( -0.000000000000000000, -1.000000000000000000, -0.000000000000000000 ) ) ;
#105 = ORIENTED_EDGE ( 'NONE', *, *, #121, .F. ) ;
#106 = EDGE_CURVE ( 'NONE', #349, #318, #362, .T. ) ;
#107 = DIRECTION ( 'NONE',  ( -0.000000000000000000, 1.000000000000000000, -0.000000000000000000 ) ) ;
#108 = VERTEX_POINT ( 'NONE', #10 ) ;
#109 = DIRECTION ( 'NONE',  ( 0.000000000000000000, 0.000000000000000000, 1.000000000000000000 ) ) ;
#110 = CIRCLE ( 'NONE', #34, 20.00000000000000000 ) ;
#111 = ORIENTED_EDGE ( 'NONE', *, *, #407, .T. ) ;
#112 = ORIENTED_EDGE ( 'NONE', *, *, #4, .T. ) ;
#113 = ORIENTED_EDGE ( 'NONE', *, *, #210, .T. ) ;
#114 = ORIENTED_EDGE ( 'NONE', *, *, #118, .T. ) ;
#115 = CARTESIAN_POINT ( 'NONE',  ( 2.694222958124176809E-15, 11.00000000000000000, -22.00000000000000000 ) ) ;
#116 = ORIENTED_EDGE ( 'NONE', *, *, #191, .F. ) ;
#117 = DIRECTION ( 'NONE',  ( 0.000000000000000000, 0.000000000000000000, 1.000000000000000000 ) ) ;
#118 = EDGE_CURVE ( 'NONE', #235, #318, #415, .T. ) ;
#119 = DIRECTION ( 'NONE',  ( 0.000000000000000000, 1.000000000000000000, 0.000000000000000000 ) ) ;
#120 = DIRECTION ( 'NONE',  ( 0.000000000000000000, 1.000000000000000000, 0.000000000000000000 ) ) ;
#121 = EDGE_CURVE ( 'NONE', #108, #137, #181, .T. ) ;
#122 = CIRCLE ( 'NONE', #188, 7.929999999999999716 ) ;
#123 = CARTESIAN_POINT ( 'NONE',  ( 0.000000000000000000, -1.500000000000000000, 0.000000000000000000 ) ) ;
#124 = DIRECTION ( 'NONE',  ( 0.000000000000000000, 1.000000000000000000, 0.000000000000000000 ) ) ;
#125 = DIRECTION ( 'NONE',  ( -0.000000000000000000, 1.000000000000000000, -0.000000000000000000 ) ) ;
#126 = ORIENTED_EDGE ( 'NONE', *, *, #210, .F. ) ;
#127 = CARTESIAN_POINT ( 'NONE',  ( 1.040949779275244815E-15, -5.500000000000000000, -8.499999999999955591 ) ) ;
#128 = CARTESIAN_POINT ( 'NONE',  ( 2.449293598294706513E-15, 11.00000000000000000, 20.00000000000000000 ) ) ;
#129 = FACE_OUTER_BOUND ( 'NONE', #274, .T. ) ;
#130 = CONICAL_SURFACE ( 'NONE', #167, 8.499999999999955591, 0.7853981633974533860 ) ;
#131 = DIRECTION ( 'NONE',  ( 0.000000000000000000, 0.000000000000000000, 1.000000000000000000 ) ) ;
#132 = AXIS2_PLACEMENT_3D ( 'NONE', #309, #267, #170 ) ;
#133 = ORIENTED_EDGE ( 'NONE', *, *, #310, .T. ) ;
#134 = CYLINDRICAL_SURFACE ( 'NONE', #132, 20.00000000000000000 ) ;
#135 = ORIENTED_EDGE ( 'NONE', *, *, #322, .T. ) ;
#136 = FACE_OUTER_BOUND ( 'NONE', #12, .T. ) ;
#137 = VERTEX_POINT ( 'NONE', #36 ) ;
#138 =( NAMED_UNIT ( * ) PLANE_ANGLE_UNIT ( ) SI_UNIT ( $, .RADIAN. ) );
#139 = MECHANICAL_DESIGN_GEOMETRIC_PRESENTATION_REPRESENTATION (  '', ( #377 ), #290 ) ;
#140 = ORIENTED_EDGE ( 'NONE', *, *, #366, .F. ) ;
#141 =( NAMED_UNIT ( * ) SI_UNIT ( $, .STERADIAN. ) SOLID_ANGLE_UNIT ( ) );
#142 = ORIENTED_EDGE ( 'NONE', *, *, #392, .F. ) ;
#143 = LINE ( 'NONE', #387, #257 ) ;
#144 = VERTEX_POINT ( 'NONE', #305 ) ;
#145 = CARTESIAN_POINT ( 'NONE',  ( 0.000000000000000000, 11.00000000000000000, 0.000000000000000000 ) ) ;
#146 = VERTEX_POINT ( 'NONE', #198 ) ;
#147 = AXIS2_PLACEMENT_3D ( 'NONE', #313, #410, #6 ) ;
#148 = DIRECTION ( 'NONE',  ( 0.000000000000000000, -1.000000000000000000, 0.000000000000000000 ) ) ;
#149 = CARTESIAN_POINT ( 'NONE',  ( 0.000000000000000000, -1.500000000000000000, 0.000000000000000000 ) ) ;
#150 = DIRECTION ( 'NONE',  ( 0.000000000000000000, 0.000000000000000000, 1.000000000000000000 ) ) ;
#151 = DIRECTION ( 'NONE',  ( 0.000000000000000000, 0.000000000000000000, -1.000000000000000000 ) ) ;
#152 = AXIS2_PLACEMENT_3D ( 'NONE', #383, #197, #131 ) ;
#153 = DIRECTION ( 'NONE',  ( 0.000000000000000000, 0.000000000000000000, 1.000000000000000000 ) ) ;
#154 = LINE ( 'NONE', #94, #3 ) ;
#155 = DIRECTION ( 'NONE',  ( 0.000000000000000000, 0.000000000000000000, -1.000000000000000000 ) ) ;
#156 = ADVANCED_FACE ( 'NONE', ( #163 ), #38, .F. ) ;
#157 = CARTESIAN_POINT ( 'NONE',  ( 0.000000000000000000, -4.000000000000000000, 0.000000000000000000 ) ) ;
#158 = VECTOR ( 'NONE', #180, 1000.000000000000000 ) ;
#159 = FILL_AREA_STYLE ('',( #342 ) ) ;
#160 = SHAPE_DEFINITION_REPRESENTATION ( #329, #372 ) ;
#161 = ADVANCED_FACE ( 'NONE', ( #99 ), #134, .F. ) ;
#162 = DIRECTION ( 'NONE',  ( 0.000000000000000000, 0.000000000000000000, -1.000000000000000000 ) ) ;
#163 = FACE_OUTER_BOUND ( 'NONE', #14, .T. ) ;
#164 = ORIENTED_EDGE ( 'NONE', *, *, #168, .F. ) ;
#165 = APPLICATION_PROTOCOL_DEFINITION ( 'draft international standard', 'automotive_design', 1998, #58 ) ;
#166 = CARTESIAN_POINT ( 'NONE',  ( 2.326828918379970970E-15, -1.500000000000000000, -19.00000000000000000 ) ) ;
#167 = AXIS2_PLACEMENT_3D ( 'NONE', #73, #412, #71 ) ;
#168 = EDGE_CURVE ( 'NONE', #426, #2, #40, .T. ) ;
#169 = ORIENTED_EDGE ( 'NONE', *, *, #191, .T. ) ;
#170 = DIRECTION ( 'NONE',  ( 0.000000000000000000, 0.000000000000000000, -1.000000000000000000 ) ) ;
#171 = ORIENTED_EDGE ( 'NONE', *, *, #53, .F. ) ;
#172 = ORIENTED_EDGE ( 'NONE', *, *, #310, .F. ) ;
#173 = DIRECTION ( 'NONE',  ( 0.000000000000000000, 1.000000000000000000, 0.000000000000000000 ) ) ;
#174 = AXIS2_PLACEMENT_3D ( 'NONE', #369, #294, #117 ) ;
#175 = AXIS2_PLACEMENT_3D ( 'NONE', #16, #247, #389 ) ;
#176 = EDGE_LOOP ( 'NONE', ( #398, #279, #72, #439 ) ) ;
#177 = DIRECTION ( 'NONE',  ( 0.000000000000000000, -0.000000000000000000, 1.000000000000000000 ) ) ;
#178 = VERTEX_POINT ( 'NONE', #65 ) ;
#179 = ORIENTED_EDGE ( 'NONE', *, *, #378, .T. ) ;
#180 = DIRECTION ( 'NONE',  ( -0.000000000000000000, -1.000000000000000000, -0.000000000000000000 ) ) ;
#181 = CIRCLE ( 'NONE', #312, 22.00000000000000000 ) ;
#182 = ORIENTED_EDGE ( 'NONE', *, *, #378, .F. ) ;
#183 = ADVANCED_FACE ( 'NONE', ( #405 ), #7, .F. ) ;
#184 = FACE_OUTER_BOUND ( 'NONE', #424, .T. ) ;
#185 = CARTESIAN_POINT ( 'NONE',  ( 9.711449117238509397E-16, -5.500000000000000000, -7.929999999999999716 ) ) ;
#186 = FACE_OUTER_BOUND ( 'NONE', #418, .T. ) ;
#187 = CLOSED_SHELL ( 'NONE', ( #195, #156, #43, #333, #183, #275, #431, #283, #64, #297, #161, #374, #423, #259, #317 ) ) ;
#188 = AXIS2_PLACEMENT_3D ( 'NONE', #218, #29, #151 ) ;
#189 = CARTESIAN_POINT ( 'NONE',  ( 0.000000000000000000, -4.000000000000000000, 0.000000000000000000 ) ) ;
#190 = ORIENTED_EDGE ( 'NONE', *, *, #233, .T. ) ;
#191 = EDGE_CURVE ( 'NONE', #146, #302, #27, .T. ) ;
#192 = DIRECTION ( 'NONE',  ( 0.000000000000000000, 0.000000000000000000, -1.000000000000000000 ) ) ;
#193 = EDGE_CURVE ( 'NONE', #426, #207, #343, .T. ) ;
#194 = CARTESIAN_POINT ( 'NONE',  ( 0.000000000000000000, -1.500000000000000000, 0.000000000000000000 ) ) ;
#195 = ADVANCED_FACE ( 'NONE', ( #129 ), #130, .T. ) ;
#196 = AXIS2_PLACEMENT_3D ( 'NONE', #225, #276, #162 ) ;
#197 = DIRECTION ( 'NONE',  ( 0.000000000000000000, 1.000000000000000000, 0.000000000000000000 ) ) ;
#198 = CARTESIAN_POINT ( 'NONE',  ( 0.000000000000000000, 11.00000000000000000, 22.00000000000000000 ) ) ;
#199 = ORIENTED_EDGE ( 'NONE', *, *, #193, .T. ) ;
#200 = DIRECTION ( 'NONE',  ( 0.000000000000000000, 0.7071067811865439090, 0.7071067811865512365 ) ) ;
#201 = ORIENTED_EDGE ( 'NONE', *, *, #168, .T. ) ;
#202 = CIRCLE ( 'NONE', #304, 9.999999999999971578 ) ;
#203 = CARTESIAN_POINT ( 'NONE',  ( 0.000000000000000000, -5.500000000000000000, 8.499999999999955591 ) ) ;
#204 = PRODUCT_RELATED_PRODUCT_CATEGORY ( 'part', '', ( #21 ) ) ;
#205 = ORIENTED_EDGE ( 'NONE', *, *, #256, .F. ) ;
#206 = CARTESIAN_POINT ( 'NONE',  ( 0.000000000000000000, -1.500000000000000000, 19.00000000000000000 ) ) ;
#207 = VERTEX_POINT ( 'NONE', #268 ) ;
#208 = PLANE ( 'NONE',  #299 ) ;
#209 = EDGE_LOOP ( 'NONE', ( #205, #314 ) ) ;
#210 = EDGE_CURVE ( 'NONE', #2, #77, #5, .T. ) ;
#211 = FACE_BOUND ( 'NONE', #394, .T. ) ;
#212 = AXIS2_PLACEMENT_3D ( 'NONE', #286, #237, #420 ) ;
#213 = DIRECTION ( 'NONE',  ( 0.000000000000000000, 1.000000000000000000, 0.000000000000000000 ) ) ;
#214 = FACE_BOUND ( 'NONE', #390, .T. ) ;
#215 = EDGE_LOOP ( 'NONE', ( #384, #201 ) ) ;
#216 = PLANE ( 'NONE',  #212 ) ;
#217 = ORIENTED_EDGE ( 'NONE', *, *, #76, .T. ) ;
#218 = CARTESIAN_POINT ( 'NONE',  ( 0.000000000000000000, -5.500000000000000000, 0.000000000000000000 ) ) ;
#219 = DIRECTION ( 'NONE',  ( 0.000000000000000000, 1.000000000000000000, 0.000000000000000000 ) ) ;
#220 = DIRECTION ( 'NONE',  ( 0.000000000000000000, 1.000000000000000000, 0.000000000000000000 ) ) ;
#221 = CARTESIAN_POINT ( 'NONE',  ( 1.132798289211297359E-15, -5.500000000000000000, -8.499999999999955591 ) ) ;
#222 = EDGE_CURVE ( 'NONE', #235, #285, #92, .T. ) ;
#223 = FACE_OUTER_BOUND ( 'NONE', #176, .T. ) ;
#224 = CARTESIAN_POINT ( 'NONE',  ( 9.711449117238509397E-16, -1.500000000000000000, -7.929999999999999716 ) ) ;
#225 = CARTESIAN_POINT ( 'NONE',  ( 0.000000000000000000, -5.500000000000000000, 0.000000000000000000 ) ) ;
#226 = EDGE_CURVE ( 'NONE', #232, #178, #315, .T. ) ;
#227 = CARTESIAN_POINT ( 'NONE',  ( 0.000000000000000000, -4.000000000000000000, 9.999999999999971578 ) ) ;
#228 = VECTOR ( 'NONE', #273, 1000.000000000000000 ) ;
#229 = LINE ( 'NONE', #128, #91 ) ;
#230 = MANIFOLD_SOLID_BREP ( 'Chamfer1', #187 ) ;
#231 = DIRECTION ( 'NONE',  ( 0.000000000000000000, 0.000000000000000000, 1.000000000000000000 ) ) ;
#232 = VERTEX_POINT ( 'NONE', #422 ) ;
#233 = EDGE_CURVE ( 'NONE', #178, #47, #336, .T. ) ;
#234 = CARTESIAN_POINT ( 'NONE',  ( 0.000000000000000000, 0.000000000000000000, 0.000000000000000000 ) ) ;
#235 = VERTEX_POINT ( 'NONE', #243 ) ;
#236 = AXIS2_PLACEMENT_3D ( 'NONE', #49, #104, #231 ) ;
#237 = DIRECTION ( 'NONE',  ( 0.000000000000000000, -1.000000000000000000, 0.000000000000000000 ) ) ;
#238 = AXIS2_PLACEMENT_3D ( 'NONE', #194, #281, #109 ) ;
#239 = ORIENTED_EDGE ( 'NONE', *, *, #53, .T. ) ;
#240 = DIRECTION ( 'NONE',  ( 0.000000000000000000, 0.000000000000000000, 1.000000000000000000 ) ) ;
#241 = EDGE_CURVE ( 'NONE', #137, #108, #337, .T. ) ;
#242 = ORIENTED_EDGE ( 'NONE', *, *, #106, .F. ) ;
#243 = CARTESIAN_POINT ( 'NONE',  ( 2.326828918379970970E-15, -1.500000000000000000, -19.00000000000000000 ) ) ;
#244 = ORIENTED_EDGE ( 'NONE', *, *, #327, .F. ) ;
#245 = AXIS2_PLACEMENT_3D ( 'NONE', #262, #23, #86 ) ;
#246 = AXIS2_PLACEMENT_3D ( 'NONE', #20, #63, #192 ) ;
#247 = DIRECTION ( 'NONE',  ( 0.000000000000000000, 1.000000000000000000, 0.000000000000000000 ) ) ;
#248 = AXIS2_PLACEMENT_3D ( 'NONE', #52, #326, #240 ) ;
#249 = ORIENTED_EDGE ( 'NONE', *, *, #392, .T. ) ;
#250 = CARTESIAN_POINT ( 'NONE',  ( 0.000000000000000000, 11.00000000000000000, 0.000000000000000000 ) ) ;
#251 = EDGE_LOOP ( 'NONE', ( #182, #396, #413, #142 ) ) ;
#252 = DIRECTION ( 'NONE',  ( 0.000000000000000000, 0.000000000000000000, 1.000000000000000000 ) ) ;
#253 = ORIENTED_EDGE ( 'NONE', *, *, #103, .F. ) ;
#254 = CARTESIAN_POINT ( 'NONE',  ( 2.449293598294706513E-15, 11.00000000000000000, 20.00000000000000000 ) ) ;
#255 = AXIS2_PLACEMENT_3D ( 'NONE', #258, #402, #24 ) ;
#256 = EDGE_CURVE ( 'NONE', #316, #416, #15, .T. ) ;
#257 = VECTOR ( 'NONE', #48, 1000.000000000000000 ) ;
#258 = CARTESIAN_POINT ( 'NONE',  ( 0.000000000000000000, -1.500000000000000000, 0.000000000000000000 ) ) ;
#259 = ADVANCED_FACE ( 'NONE', ( #425, #78 ), #216, .T. ) ;
#260 = LINE ( 'NONE', #332, #427 ) ;
#261 = PLANE ( 'NONE',  #419 ) ;
#262 = CARTESIAN_POINT ( 'NONE',  ( 0.000000000000000000, 0.000000000000000000, 0.000000000000000000 ) ) ;
#263 = AXIS2_PLACEMENT_3D ( 'NONE', #339, #119, #30 ) ;
#264 = PRODUCT_DEFINITION_FORMATION_WITH_SPECIFIED_SOURCE ( 'ANY', '', #21, .NOT_KNOWN. ) ;
#265 = DIRECTION ( 'NONE',  ( 0.000000000000000000, 0.000000000000000000, 1.000000000000000000 ) ) ;
#266 = UNCERTAINTY_MEASURE_WITH_UNIT (LENGTH_MEASURE( 1.000000000000000082E-05 ), #301, 'distance_accuracy_value', 'NONE');
#267 = DIRECTION ( 'NONE',  ( -0.000000000000000000, -1.000000000000000000, -0.000000000000000000 ) ) ;
#268 = CARTESIAN_POINT ( 'NONE',  ( 1.224646799147349707E-15, -4.000000000000000000, -9.999999999999971578 ) ) ;
#269 = EDGE_CURVE ( 'NONE', #403, #47, #143, .T. ) ;
#270 = CONICAL_SURFACE ( 'NONE', #282, 8.499999999999955591, 0.7853981633974533860 ) ;
#271 = PRODUCT_CONTEXT ( 'NONE', #408, 'mechanical' ) ;
#272 = AXIS2_PLACEMENT_3D ( 'NONE', #351, #347, #41 ) ;
#273 = DIRECTION ( 'NONE',  ( 8.659560562354979697E-17, 0.7071067811865439090, -0.7071067811865512365 ) ) ;
#274 = EDGE_LOOP ( 'NONE', ( #164, #199, #253, #126 ) ) ;
#275 = ADVANCED_FACE ( 'NONE', ( #320, #393 ), #208, .F. ) ;
#276 = DIRECTION ( 'NONE',  ( 0.000000000000000000, -1.000000000000000000, 0.000000000000000000 ) ) ;
#277 = EDGE_LOOP ( 'NONE', ( #105, #9 ) ) ;
#278 = PLANE ( 'NONE',  #67 ) ;
#279 = ORIENTED_EDGE ( 'NONE', *, *, #28, .F. ) ;
#280 = VECTOR ( 'NONE', #33, 1000.000000000000000 ) ;
#281 = DIRECTION ( 'NONE',  ( -0.000000000000000000, -1.000000000000000000, -0.000000000000000000 ) ) ;
#282 = AXIS2_PLACEMENT_3D ( 'NONE', #417, #438, #397 ) ;
#283 = ADVANCED_FACE ( 'NONE', ( #211, #46 ), #385, .T. ) ;
#284 = EDGE_LOOP ( 'NONE', ( #287, #354 ) ) ;
#285 = VERTEX_POINT ( 'NONE', #206 ) ;
#286 = CARTESIAN_POINT ( 'NONE',  ( 0.000000000000000000, -5.500000000000000000, 0.000000000000000000 ) ) ;
#287 = ORIENTED_EDGE ( 'NONE', *, *, #344, .F. ) ;
#288 =( GEOMETRIC_REPRESENTATION_CONTEXT ( 3 ) GLOBAL_UNCERTAINTY_ASSIGNED_CONTEXT ( ( #266 ) ) GLOBAL_UNIT_ASSIGNED_CONTEXT ( ( #301, #95, #330 ) ) REPRESENTATION_CONTEXT ( 'NONE', 'WORKASPACE' ) );
#289 = DIRECTION ( 'NONE',  ( 0.000000000000000000, 1.000000000000000000, 0.000000000000000000 ) ) ;
#290 =( GEOMETRIC_REPRESENTATION_CONTEXT ( 3 ) GLOBAL_UNCERTAINTY_ASSIGNED_CONTEXT ( ( #293 ) ) GLOBAL_UNIT_ASSIGNED_CONTEXT ( ( #13, #138, #141 ) ) REPRESENTATION_CONTEXT ( 'NONE', 'WORKASPACE' ) );
#291 = EDGE_LOOP ( 'NONE', ( #346, #83, #355, #361 ) ) ;
#292 = CARTESIAN_POINT ( 'NONE',  ( 0.000000000000000000, 11.00000000000000000, 0.000000000000000000 ) ) ;
#293 = UNCERTAINTY_MEASURE_WITH_UNIT (LENGTH_MEASURE( 1.000000000000000082E-05 ), #13, 'distance_accuracy_value', 'NONE');
#294 = DIRECTION ( 'NONE',  ( -0.000000000000000000, 1.000000000000000000, -0.000000000000000000 ) ) ;
#295 = CARTESIAN_POINT ( 'NONE',  ( 0.000000000000000000, 11.00000000000000000, 0.000000000000000000 ) ) ;
#296 = CIRCLE ( 'NONE', #246, 7.929999999999999716 ) ;
#297 = ADVANCED_FACE ( 'NONE', ( #324, #214 ), #278, .T. ) ;
#298 = CIRCLE ( 'NONE', #376, 22.00000000000000000 ) ;
#299 = AXIS2_PLACEMENT_3D ( 'NONE', #356, #80, #85 ) ;
#300 = CARTESIAN_POINT ( 'NONE',  ( 2.326828918379970970E-15, 0.000000000000000000, -19.00000000000000000 ) ) ;
#301 =( LENGTH_UNIT ( ) NAMED_UNIT ( * ) SI_UNIT ( .MILLI., .METRE. ) );
#302 = VERTEX_POINT ( 'NONE', #115 ) ;
#303 = ORIENTED_EDGE ( 'NONE', *, *, #103, .T. ) ;
#304 = AXIS2_PLACEMENT_3D ( 'NONE', #381, #102, #66 ) ;
#305 = CARTESIAN_POINT ( 'NONE',  ( 0.000000000000000000, 11.00000000000000000, -20.00000000000000000 ) ) ;
#306 = DIRECTION ( 'NONE',  ( 0.000000000000000000, 0.000000000000000000, 1.000000000000000000 ) ) ;
#307 = DIRECTION ( 'NONE',  ( -0.000000000000000000, -1.000000000000000000, -0.000000000000000000 ) ) ;
#308 = EDGE_CURVE ( 'NONE', #371, #144, #110, .T. ) ;
#309 = CARTESIAN_POINT ( 'NONE',  ( 0.000000000000000000, 11.00000000000000000, 0.000000000000000000 ) ) ;
#310 = EDGE_CURVE ( 'NONE', #144, #316, #353, .T. ) ;
#311 = ORIENTED_EDGE ( 'NONE', *, *, #222, .F. ) ;
#312 = AXIS2_PLACEMENT_3D ( 'NONE', #379, #37, #265 ) ;
#313 = CARTESIAN_POINT ( 'NONE',  ( 0.000000000000000000, 11.00000000000000000, 0.000000000000000000 ) ) ;
#314 = ORIENTED_EDGE ( 'NONE', *, *, #76, .F. ) ;
#315 = LINE ( 'NONE', #98, #364 ) ;
#316 = VERTEX_POINT ( 'NONE', #11 ) ;
#317 = ADVANCED_FACE ( 'NONE', ( #136 ), #270, .T. ) ;
#318 = VERTEX_POINT ( 'NONE', #300 ) ;
#319 = AXIS2_PLACEMENT_3D ( 'NONE', #149, #219, #90 ) ;
#320 = FACE_BOUND ( 'NONE', #39, .T. ) ;
#321 = AXIS2_PLACEMENT_3D ( 'NONE', #25, #220, #89 ) ;
#322 = EDGE_CURVE ( 'NONE', #207, #77, #22, .T. ) ;
#323 = ORIENTED_EDGE ( 'NONE', *, *, #256, .T. ) ;
#324 = FACE_OUTER_BOUND ( 'NONE', #74, .T. ) ;
#325 = ORIENTED_EDGE ( 'NONE', *, *, #269, .F. ) ;
#326 = DIRECTION ( 'NONE',  ( -0.000000000000000000, -1.000000000000000000, -0.000000000000000000 ) ) ;
#327 = EDGE_CURVE ( 'NONE', #2, #426, #437, .T. ) ;
#328 = ORIENTED_EDGE ( 'NONE', *, *, #79, .T. ) ;
#329 = PRODUCT_DEFINITION_SHAPE ( 'NONE', 'NONE',  #70 ) ;
#330 =( NAMED_UNIT ( * ) SI_UNIT ( $, .STERADIAN. ) SOLID_ANGLE_UNIT ( ) );
#331 = EDGE_LOOP ( 'NONE', ( #54, #386 ) ) ;
#332 = CARTESIAN_POINT ( 'NONE',  ( 2.694222958124176809E-15, -4.000000000000000000, -22.00000000000000000 ) ) ;
#333 = ADVANCED_FACE ( 'NONE', ( #184 ), #368, .T. ) ;
#334 = DIRECTION ( 'NONE',  ( 0.000000000000000000, 1.000000000000000000, 0.000000000000000000 ) ) ;
#335 = CYLINDRICAL_SURFACE ( 'NONE', #435, 7.929999999999999716 ) ;
#336 = CIRCLE ( 'NONE', #238, 7.929999999999999716 ) ;
#337 = CIRCLE ( 'NONE', #175, 22.00000000000000000 ) ;
#338 = DIRECTION ( 'NONE',  ( 0.000000000000000000, 1.000000000000000000, 0.000000000000000000 ) ) ;
#339 = CARTESIAN_POINT ( 'NONE',  ( 0.000000000000000000, 11.00000000000000000, 0.000000000000000000 ) ) ;
#340 = FACE_OUTER_BOUND ( 'NONE', #251, .T. ) ;
#341 = CIRCLE ( 'NONE', #245, 19.00000000000000000 ) ;
#342 = FILL_AREA_STYLE_COLOUR ( '', #84 ) ;
#343 = LINE ( 'NONE', #127, #228 ) ;
#344 = EDGE_CURVE ( 'NONE', #232, #403, #122, .T. ) ;
#345 = CARTESIAN_POINT ( 'NONE',  ( 0.000000000000000000, -1.500000000000000000, 0.000000000000000000 ) ) ;
#346 = ORIENTED_EDGE ( 'NONE', *, *, #344, .T. ) ;
#347 = DIRECTION ( 'NONE',  ( 0.000000000000000000, 1.000000000000000000, 0.000000000000000000 ) ) ;
#348 = EDGE_CURVE ( 'NONE', #285, #349, #363, .T. ) ;
#349 = VERTEX_POINT ( 'NONE', #57 ) ;
#350 = AXIS2_PLACEMENT_3D ( 'NONE', #19, #173, #177 ) ;
#351 = CARTESIAN_POINT ( 'NONE',  ( 0.000000000000000000, -1.500000000000000000, 0.000000000000000000 ) ) ;
#352 = ORIENTED_EDGE ( 'NONE', *, *, #322, .F. ) ;
#353 = LINE ( 'NONE', #360, #158 ) ;
#354 = ORIENTED_EDGE ( 'NONE', *, *, #59, .F. ) ;
#355 = ORIENTED_EDGE ( 'NONE', *, *, #233, .F. ) ;
#356 = CARTESIAN_POINT ( 'NONE',  ( 0.000000000000000000, -4.000000000000000000, 0.000000000000000000 ) ) ;
#357 = DIRECTION ( 'NONE',  ( 0.000000000000000000, 0.000000000000000000, 1.000000000000000000 ) ) ;
#358 = SURFACE_STYLE_FILL_AREA ( #159 ) ;
#359 = CARTESIAN_POINT ( 'NONE',  ( 0.000000000000000000, -5.500000000000000000, 8.499999999999955591 ) ) ;
#360 = CARTESIAN_POINT ( 'NONE',  ( 0.000000000000000000, 11.00000000000000000, -20.00000000000000000 ) ) ;
#361 = ORIENTED_EDGE ( 'NONE', *, *, #226, .F. ) ;
#362 = CIRCLE ( 'NONE', #32, 19.00000000000000000 ) ;
#363 = LINE ( 'NONE', #433, #8 ) ;
#364 = VECTOR ( 'NONE', #373, 1000.000000000000000 ) ;
#365 = EDGE_LOOP ( 'NONE', ( #239, #328, #217, #172 ) ) ;
#366 = EDGE_CURVE ( 'NONE', #108, #146, #154, .T. ) ;
#367 = CARTESIAN_POINT ( 'NONE',  ( 0.000000000000000000, -4.000000000000000000, 0.000000000000000000 ) ) ;
#368 = CYLINDRICAL_SURFACE ( 'NONE', #391, 22.00000000000000000 ) ;
#369 = CARTESIAN_POINT ( 'NONE',  ( 0.000000000000000000, -1.500000000000000000, 0.000000000000000000 ) ) ;
#370 = FACE_BOUND ( 'NONE', #69, .T. ) ;
#371 = VERTEX_POINT ( 'NONE', #254 ) ;
#372 = ADVANCED_BREP_SHAPE_REPRESENTATION ( 'TaperAdapt', ( #230, #55 ), #288 ) ;
#373 = DIRECTION ( 'NONE',  ( 0.000000000000000000, 1.000000000000000000, 0.000000000000000000 ) ) ;
#374 = ADVANCED_FACE ( 'NONE', ( #399, #370 ), #261, .T. ) ;
#375 = DIRECTION ( 'NONE',  ( 0.000000000000000000, 0.000000000000000000, 1.000000000000000000 ) ) ;
#376 = AXIS2_PLACEMENT_3D ( 'NONE', #295, #61, #252 ) ;
#377 = STYLED_ITEM ( 'NONE', ( #75 ), #230 ) ;
#378 = EDGE_CURVE ( 'NONE', #137, #302, #260, .T. ) ;
#379 = CARTESIAN_POINT ( 'NONE',  ( 0.000000000000000000, -4.000000000000000000, 0.000000000000000000 ) ) ;
#380 = ORIENTED_EDGE ( 'NONE', *, *, #121, .T. ) ;
#381 = CARTESIAN_POINT ( 'NONE',  ( 0.000000000000000000, -4.000000000000000000, 0.000000000000000000 ) ) ;
#382 = ORIENTED_EDGE ( 'NONE', *, *, #4, .F. ) ;
#383 = CARTESIAN_POINT ( 'NONE',  ( 0.000000000000000000, -4.000000000000000000, 0.000000000000000000 ) ) ;
#384 = ORIENTED_EDGE ( 'NONE', *, *, #327, .T. ) ;
#385 = PLANE ( 'NONE',  #350 ) ;
#386 = ORIENTED_EDGE ( 'NONE', *, *, #222, .T. ) ;
#387 = CARTESIAN_POINT ( 'NONE',  ( 9.711449117238509397E-16, -4.000000000000000000, -7.929999999999999716 ) ) ;
#388 = ORIENTED_EDGE ( 'NONE', *, *, #59, .T. ) ;
#389 = DIRECTION ( 'NONE',  ( 0.000000000000000000, 0.000000000000000000, 1.000000000000000000 ) ) ;
#390 = EDGE_LOOP ( 'NONE', ( #171, #18 ) ) ;
#391 = AXIS2_PLACEMENT_3D ( 'NONE', #367, #334, #150 ) ;
#392 = EDGE_CURVE ( 'NONE', #302, #146, #298, .T. ) ;
#393 = FACE_OUTER_BOUND ( 'NONE', #277, .T. ) ;
#394 = EDGE_LOOP ( 'NONE', ( #242, #382 ) ) ;
#395 = DIRECTION ( 'NONE',  ( 0.000000000000000000, 1.000000000000000000, 0.000000000000000000 ) ) ;
#396 = ORIENTED_EDGE ( 'NONE', *, *, #241, .T. ) ;
#397 = DIRECTION ( 'NONE',  ( 0.000000000000000000, 0.000000000000000000, 1.000000000000000000 ) ) ;
#398 = ORIENTED_EDGE ( 'NONE', *, *, #118, .F. ) ;
#399 = FACE_OUTER_BOUND ( 'NONE', #331, .T. ) ;
#400 = AXIS2_PLACEMENT_3D ( 'NONE', #345, #107, #375 ) ;
#401 = CARTESIAN_POINT ( 'NONE',  ( 2.449293598294706513E-15, 0.000000000000000000, 20.00000000000000000 ) ) ;
#402 = DIRECTION ( 'NONE',  ( -0.000000000000000000, -1.000000000000000000, -0.000000000000000000 ) ) ;
#403 = VERTEX_POINT ( 'NONE', #185 ) ;
#404 = CIRCLE ( 'NONE', #236, 20.00000000000000000 ) ;
#405 = FACE_OUTER_BOUND ( 'NONE', #291, .T. ) ;
#406 = DIRECTION ( 'NONE',  ( 0.000000000000000000, 1.000000000000000000, 0.000000000000000000 ) ) ;
#407 = EDGE_CURVE ( 'NONE', #47, #178, #101, .T. ) ;
#408 = APPLICATION_CONTEXT ( 'automotive_design' ) ;
#409 = CIRCLE ( 'NONE', #263, 20.00000000000000000 ) ;
#410 = DIRECTION ( 'NONE',  ( 0.000000000000000000, 1.000000000000000000, 0.000000000000000000 ) ) ;
#411 = PRESENTATION_LAYER_ASSIGNMENT (  '', '', ( #377 ) ) ;
#412 = DIRECTION ( 'NONE',  ( 0.000000000000000000, 1.000000000000000000, 0.000000000000000000 ) ) ;
#413 = ORIENTED_EDGE ( 'NONE', *, *, #366, .T. ) ;
#414 = DIRECTION ( 'NONE',  ( 1.000000000000000000, 0.000000000000000000, 0.000000000000000000 ) ) ;
#415 = LINE ( 'NONE', #166, #280 ) ;
#416 = VERTEX_POINT ( 'NONE', #401 ) ;
#417 = CARTESIAN_POINT ( 'NONE',  ( 0.000000000000000000, -5.500000000000000000, 0.000000000000000000 ) ) ;
#418 = EDGE_LOOP ( 'NONE', ( #325, #388, #17, #430 ) ) ;
#419 = AXIS2_PLACEMENT_3D ( 'NONE', #123, #56, #60 ) ;
#420 = DIRECTION ( 'NONE',  ( 0.000000000000000000, -0.000000000000000000, -1.000000000000000000 ) ) ;
#421 = EDGE_LOOP ( 'NONE', ( #88, #96, #133, #323 ) ) ;
#422 = CARTESIAN_POINT ( 'NONE',  ( 0.000000000000000000, -5.500000000000000000, 7.929999999999999716 ) ) ;
#423 = ADVANCED_FACE ( 'NONE', ( #223 ), #93, .F. ) ;
#424 = EDGE_LOOP ( 'NONE', ( #380, #179, #116, #140 ) ) ;
#425 = FACE_OUTER_BOUND ( 'NONE', #215, .T. ) ;
#426 = VERTEX_POINT ( 'NONE', #221 ) ;
#427 = VECTOR ( 'NONE', #120, 1000.000000000000000 ) ;
#428 = DIRECTION ( 'NONE',  ( 0.000000000000000000, -0.000000000000000000, 1.000000000000000000 ) ) ;
#429 = VECTOR ( 'NONE', #200, 1000.000000000000000 ) ;
#430 = ORIENTED_EDGE ( 'NONE', *, *, #407, .F. ) ;
#431 = ADVANCED_FACE ( 'NONE', ( #186 ), #335, .F. ) ;
#432 = DIRECTION ( 'NONE',  ( -0.000000000000000000, -1.000000000000000000, -0.000000000000000000 ) ) ;
#433 = CARTESIAN_POINT ( 'NONE',  ( 0.000000000000000000, -1.500000000000000000, 19.00000000000000000 ) ) ;
#434 = CIRCLE ( 'NONE', #319, 19.00000000000000000 ) ;
#435 = AXIS2_PLACEMENT_3D ( 'NONE', #189, #338, #153 ) ;
#436 = DIRECTION ( 'NONE',  ( 0.000000000000000000, 0.000000000000000000, -1.000000000000000000 ) ) ;
#437 = CIRCLE ( 'NONE', #82, 8.499999999999955591 ) ;
#438 = DIRECTION ( 'NONE',  ( 0.000000000000000000, 1.000000000000000000, 0.000000000000000000 ) ) ;
#439 = ORIENTED_EDGE ( 'NONE', *, *, #106, .T. ) ;
ENDSEC;
END-ISO-10303-21;
