ISO-10303-21;
HEADER;
FILE_DESCRIPTION (( 'STEP AP214' ),
    '1' );
FILE_NAME ('washer2.STEP',
    '2026-01-30T04:46:12',
    ( '' ),
    ( '' ),
    'SwSTEP 2.0',
    'SolidWorks 2025',
    '' );
FILE_SCHEMA (( 'AUTOMOTIVE_DESIGN' ));
ENDSEC;

DATA;
#1 = CARTESIAN_POINT ( 'NONE',  ( 2.265596578422603100E-16, 0.000000000000000000, -1.850000000000000089 ) ) ;
#2 = CIRCLE ( 'NONE', #126, 4.000000000000000000 ) ;
#3 = DIRECTION ( 'NONE',  ( 0.000000000000000000, 0.000000000000000000, 1.000000000000000000 ) ) ;
#4 = DIRECTION ( 'NONE',  ( 0.000000000000000000, 0.000000000000000000, 1.000000000000000000 ) ) ;
#5 = AXIS2_PLACEMENT_3D ( 'NONE', #255, #195, #193 ) ;
#6 = DIRECTION ( 'NONE',  ( 0.000000000000000000, 1.000000000000000000, 0.000000000000000000 ) ) ;
#7 = VECTOR ( 'NONE', #242, 1000.000000000000000 ) ;
#8 = CYLINDRICAL_SURFACE ( 'NONE', #89, 7.500000000000000000 ) ;
#9 = ADVANCED_FACE ( 'NONE', ( #236 ), #55, .F. ) ;
#10 = DIRECTION ( 'NONE',  ( 0.000000000000000000, 1.000000000000000000, 0.000000000000000000 ) ) ;
#11 = ORIENTED_EDGE ( 'NONE', *, *, #198, .T. ) ;
#12 = ORIENTED_EDGE ( 'NONE', *, *, #111, .T. ) ;
#13 = PRODUCT ( 'washer2', 'washer2', '', ( #202 ) ) ;
#14 = DIRECTION ( 'NONE',  ( 0.000000000000000000, 0.000000000000000000, -1.000000000000000000 ) ) ;
#15 = DIRECTION ( 'NONE',  ( 0.000000000000000000, 0.000000000000000000, 1.000000000000000000 ) ) ;
#16 = EDGE_CURVE ( 'NONE', #184, #76, #80, .T. ) ;
#17 = AXIS2_PLACEMENT_3D ( 'NONE', #235, #212, #14 ) ;
#18 = VERTEX_POINT ( 'NONE', #170 ) ;
#19 = ORIENTED_EDGE ( 'NONE', *, *, #27, .T. ) ;
#20 = CARTESIAN_POINT ( 'NONE',  ( 0.000000000000000000, 0.000000000000000000, 1.850000000000000089 ) ) ;
#21 = CLOSED_SHELL ( 'NONE', ( #9, #187, #118, #176, #221, #162, #228, #31, #248 ) ) ;
#22 = DIRECTION ( 'NONE',  ( -0.000000000000000000, -1.000000000000000000, -0.000000000000000000 ) ) ;
#23 = MECHANICAL_DESIGN_GEOMETRIC_PRESENTATION_REPRESENTATION (  '', ( #171 ), #113 ) ;
#24 =( NAMED_UNIT ( * ) PLANE_ANGLE_UNIT ( ) SI_UNIT ( $, .RADIAN. ) );
#25 = DIRECTION ( 'NONE',  ( 0.000000000000000000, 1.000000000000000000, 0.000000000000000000 ) ) ;
#26 = LINE ( 'NONE', #86, #50 ) ;
#27 = EDGE_CURVE ( 'NONE', #184, #52, #278, .T. ) ;
#28 = ORIENTED_EDGE ( 'NONE', *, *, #153, .F. ) ;
#29 = DIRECTION ( 'NONE',  ( -0.000000000000000000, 1.000000000000000000, -0.000000000000000000 ) ) ;
#30 = ORIENTED_EDGE ( 'NONE', *, *, #84, .F. ) ;
#31 = ADVANCED_FACE ( 'NONE', ( #233, #105 ), #56, .F. ) ;
#32 = AXIS2_PLACEMENT_3D ( 'NONE', #57, #232, #37 ) ;
#33 = ORIENTED_EDGE ( 'NONE', *, *, #92, .T. ) ;
#34 = EDGE_LOOP ( 'NONE', ( #268, #247, #137, #47 ) ) ;
#35 = VECTOR ( 'NONE', #58, 1000.000000000000000 ) ;
#36 = PRODUCT_DEFINITION_SHAPE ( 'NONE', 'NONE',  #145 ) ;
#37 = DIRECTION ( 'NONE',  ( 0.000000000000000000, 0.000000000000000000, 1.000000000000000000 ) ) ;
#38 = CARTESIAN_POINT ( 'NONE',  ( 2.265596578422603100E-16, -13.00000000000000533, -1.850000000000000089 ) ) ;
#39 = FACE_OUTER_BOUND ( 'NONE', #245, .T. ) ;
#40 = AXIS2_PLACEMENT_3D ( 'NONE', #147, #174, #254 ) ;
#41 = DIRECTION ( 'NONE',  ( 0.000000000000000000, 0.000000000000000000, 1.000000000000000000 ) ) ;
#42 = CARTESIAN_POINT ( 'NONE',  ( 0.000000000000000000, 2.500000000000000000, 0.000000000000000000 ) ) ;
#43 = DIRECTION ( 'NONE',  ( 0.000000000000000000, 0.000000000000000000, -1.000000000000000000 ) ) ;
#44 = EDGE_CURVE ( 'NONE', #52, #104, #131, .T. ) ;
#45 = DIRECTION ( 'NONE',  ( 0.000000000000000000, 0.000000000000000000, -1.000000000000000000 ) ) ;
#46 =( LENGTH_UNIT ( ) NAMED_UNIT ( * ) SI_UNIT ( .MILLI., .METRE. ) );
#47 = ORIENTED_EDGE ( 'NONE', *, *, #109, .F. ) ;
#48 = DIRECTION ( 'NONE',  ( 0.000000000000000000, -0.000000000000000000, 1.000000000000000000 ) ) ;
#49 = EDGE_LOOP ( 'NONE', ( #141, #28, #168, #148 ) ) ;
#50 = VECTOR ( 'NONE', #65, 1000.000000000000000 ) ;
#51 = PLANE ( 'NONE',  #99 ) ;
#52 = VERTEX_POINT ( 'NONE', #191 ) ;
#53 = DIRECTION ( 'NONE',  ( 0.000000000000000000, 0.000000000000000000, 1.000000000000000000 ) ) ;
#54 = ADVANCED_BREP_SHAPE_REPRESENTATION ( 'washer2', ( #194, #160 ), #136 ) ;
#55 = CYLINDRICAL_SURFACE ( 'NONE', #204, 1.850000000000000089 ) ;
#56 = PLANE ( 'NONE',  #186 ) ;
#57 = CARTESIAN_POINT ( 'NONE',  ( 0.000000000000000000, 5.000000000000000000, 0.000000000000000000 ) ) ;
#58 = DIRECTION ( 'NONE',  ( -0.000000000000000000, 1.000000000000000000, -0.000000000000000000 ) ) ;
#59 = AXIS2_PLACEMENT_3D ( 'NONE', #157, #219, #133 ) ;
#60 = AXIS2_PLACEMENT_3D ( 'NONE', #156, #25, #112 ) ;
#61 = ORIENTED_EDGE ( 'NONE', *, *, #125, .F. ) ;
#62 = CARTESIAN_POINT ( 'NONE',  ( 0.000000000000000000, 0.000000000000000000, 0.000000000000000000 ) ) ;
#63 = CARTESIAN_POINT ( 'NONE',  ( 0.000000000000000000, 2.500000000000000000, -4.000000000000000000 ) ) ;
#64 = EDGE_CURVE ( 'NONE', #210, #119, #85, .T. ) ;
#65 = DIRECTION ( 'NONE',  ( -0.000000000000000000, -1.000000000000000000, -0.000000000000000000 ) ) ;
#66 = CIRCLE ( 'NONE', #140, 7.500000000000000000 ) ;
#67 = FACE_OUTER_BOUND ( 'NONE', #139, .T. ) ;
#68 = SURFACE_STYLE_USAGE ( .BOTH. , #134 ) ;
#69 = PRODUCT_DEFINITION_CONTEXT ( 'detailed design', #158, 'design' ) ;
#70 = ORIENTED_EDGE ( 'NONE', *, *, #201, .F. ) ;
#71 = UNCERTAINTY_MEASURE_WITH_UNIT (LENGTH_MEASURE( 1.000000000000000082E-05 ), #209, 'distance_accuracy_value', 'NONE');
#72 = ORIENTED_EDGE ( 'NONE', *, *, #201, .T. ) ;
#73 = CARTESIAN_POINT ( 'NONE',  ( 0.000000000000000000, 5.000000000000000000, 0.000000000000000000 ) ) ;
#74 = AXIS2_PLACEMENT_3D ( 'NONE', #185, #120, #138 ) ;
#75 = APPLICATION_PROTOCOL_DEFINITION ( 'draft international standard', 'automotive_design', 1998, #158 ) ;
#76 = VERTEX_POINT ( 'NONE', #20 ) ;
#77 = DIRECTION ( 'NONE',  ( 0.000000000000000000, 1.000000000000000000, 0.000000000000000000 ) ) ;
#78 = EDGE_CURVE ( 'NONE', #76, #104, #123, .T. ) ;
#79 = ORIENTED_EDGE ( 'NONE', *, *, #92, .F. ) ;
#80 = CIRCLE ( 'NONE', #5, 1.850000000000000089 ) ;
#81 = CARTESIAN_POINT ( 'NONE',  ( 0.000000000000000000, 2.500000000000000000, 0.000000000000000000 ) ) ;
#82 = DIRECTION ( 'NONE',  ( -0.000000000000000000, 1.000000000000000000, -0.000000000000000000 ) ) ;
#83 = ORIENTED_EDGE ( 'NONE', *, *, #64, .F. ) ;
#84 = EDGE_CURVE ( 'NONE', #104, #52, #265, .T. ) ;
#85 = CIRCLE ( 'NONE', #243, 4.000000000000000000 ) ;
#86 = CARTESIAN_POINT ( 'NONE',  ( 0.000000000000000000, 2.500000000000000000, -4.000000000000000000 ) ) ;
#87 = PLANE ( 'NONE',  #60 ) ;
#88 = FACE_BOUND ( 'NONE', #183, .T. ) ;
#89 = AXIS2_PLACEMENT_3D ( 'NONE', #154, #22, #45 ) ;
#90 = CIRCLE ( 'NONE', #150, 4.000000000000000000 ) ;
#91 = SURFACE_STYLE_FILL_AREA ( #223 ) ;
#92 = EDGE_CURVE ( 'NONE', #119, #210, #2, .T. ) ;
#93 = APPLICATION_PROTOCOL_DEFINITION ( 'draft international standard', 'automotive_design', 1998, #241 ) ;
#94 = VECTOR ( 'NONE', #173, 1000.000000000000000 ) ;
#95 = ORIENTED_EDGE ( 'NONE', *, *, #129, .F. ) ;
#96 = DIRECTION ( 'NONE',  ( 0.000000000000000000, 0.000000000000000000, 1.000000000000000000 ) ) ;
#97 = ORIENTED_EDGE ( 'NONE', *, *, #44, .T. ) ;
#98 = ORIENTED_EDGE ( 'NONE', *, *, #84, .T. ) ;
#99 = AXIS2_PLACEMENT_3D ( 'NONE', #73, #10, #48 ) ;
#100 = ORIENTED_EDGE ( 'NONE', *, *, #78, .T. ) ;
#101 = CARTESIAN_POINT ( 'NONE',  ( 9.184850993605147944E-16, 2.500000000000000000, 7.500000000000000000 ) ) ;
#102 = DIRECTION ( 'NONE',  ( 0.000000000000000000, 0.000000000000000000, 1.000000000000000000 ) ) ;
#103 = CIRCLE ( 'NONE', #270, 1.850000000000000089 ) ;
#104 = VERTEX_POINT ( 'NONE', #277 ) ;
#105 = FACE_OUTER_BOUND ( 'NONE', #169, .T. ) ;
#106 = CARTESIAN_POINT ( 'NONE',  ( 0.000000000000000000, 5.000000000000000000, -7.500000000000000000 ) ) ;
#107 = PRODUCT_DEFINITION_FORMATION_WITH_SPECIFIED_SOURCE ( 'ANY', '', #13, .NOT_KNOWN. ) ;
#108 = CARTESIAN_POINT ( 'NONE',  ( 0.000000000000000000, 5.000000000000000000, -7.500000000000000000 ) ) ;
#109 = EDGE_CURVE ( 'NONE', #144, #231, #149, .T. ) ;
#110 = FACE_BOUND ( 'NONE', #116, .T. ) ;
#111 = EDGE_CURVE ( 'NONE', #143, #144, #275, .T. ) ;
#112 = DIRECTION ( 'NONE',  ( 0.000000000000000000, -0.000000000000000000, 1.000000000000000000 ) ) ;
#113 =( GEOMETRIC_REPRESENTATION_CONTEXT ( 3 ) GLOBAL_UNCERTAINTY_ASSIGNED_CONTEXT ( ( #182 ) ) GLOBAL_UNIT_ASSIGNED_CONTEXT ( ( #46, #24, #222 ) ) REPRESENTATION_CONTEXT ( 'NONE', 'WORKASPACE' ) );
#114 = DIRECTION ( 'NONE',  ( 0.000000000000000000, 0.000000000000000000, 1.000000000000000000 ) ) ;
#115 = CARTESIAN_POINT ( 'NONE',  ( 0.000000000000000000, 5.000000000000000000, 0.000000000000000000 ) ) ;
#116 = EDGE_LOOP ( 'NONE', ( #11, #213 ) ) ;
#117 = ORIENTED_EDGE ( 'NONE', *, *, #16, .F. ) ;
#118 = ADVANCED_FACE ( 'NONE', ( #39 ), #122, .T. ) ;
#119 = VERTEX_POINT ( 'NONE', #217 ) ;
#120 = DIRECTION ( 'NONE',  ( 0.000000000000000000, 1.000000000000000000, 0.000000000000000000 ) ) ;
#121 = VERTEX_POINT ( 'NONE', #101 ) ;
#122 = CYLINDRICAL_SURFACE ( 'NONE', #17, 4.000000000000000000 ) ;
#123 = LINE ( 'NONE', #218, #35 ) ;
#124 = VERTEX_POINT ( 'NONE', #257 ) ;
#125 = EDGE_CURVE ( 'NONE', #121, #231, #192, .T. ) ;
#126 = AXIS2_PLACEMENT_3D ( 'NONE', #42, #189, #15 ) ;
#127 = CARTESIAN_POINT ( 'NONE',  ( 0.000000000000000000, 2.500000000000000000, 0.000000000000000000 ) ) ;
#128 = ORIENTED_EDGE ( 'NONE', *, *, #44, .F. ) ;
#129 = EDGE_CURVE ( 'NONE', #210, #18, #26, .T. ) ;
#130 = CYLINDRICAL_SURFACE ( 'NONE', #179, 7.500000000000000000 ) ;
#131 = CIRCLE ( 'NONE', #40, 1.850000000000000089 ) ;
#132 = FILL_AREA_STYLE_COLOUR ( '', #167 ) ;
#133 = DIRECTION ( 'NONE',  ( 0.000000000000000000, 0.000000000000000000, -1.000000000000000000 ) ) ;
#134 = SURFACE_SIDE_STYLE ('',( #91 ) ) ;
#135 = DIRECTION ( 'NONE',  ( 0.000000000000000000, 0.000000000000000000, 1.000000000000000000 ) ) ;
#136 =( GEOMETRIC_REPRESENTATION_CONTEXT ( 3 ) GLOBAL_UNCERTAINTY_ASSIGNED_CONTEXT ( ( #71 ) ) GLOBAL_UNIT_ASSIGNED_CONTEXT ( ( #209, #251, #266 ) ) REPRESENTATION_CONTEXT ( 'NONE', 'WORKASPACE' ) );
#137 = ORIENTED_EDGE ( 'NONE', *, *, #125, .T. ) ;
#138 = DIRECTION ( 'NONE',  ( 0.000000000000000000, 0.000000000000000000, 1.000000000000000000 ) ) ;
#139 = EDGE_LOOP ( 'NONE', ( #267, #83, #165, #72 ) ) ;
#140 = AXIS2_PLACEMENT_3D ( 'NONE', #115, #6, #114 ) ;
#141 = ORIENTED_EDGE ( 'NONE', *, *, #172, .F. ) ;
#142 = FACE_OUTER_BOUND ( 'NONE', #196, .T. ) ;
#143 = VERTEX_POINT ( 'NONE', #264 ) ;
#144 = VERTEX_POINT ( 'NONE', #108 ) ;
#145 = PRODUCT_DEFINITION ( 'UNKNOWN', '', #107, #69 ) ;
#146 = DIRECTION ( 'NONE',  ( -0.000000000000000000, 1.000000000000000000, -0.000000000000000000 ) ) ;
#147 = CARTESIAN_POINT ( 'NONE',  ( 0.000000000000000000, 5.000000000000000000, 0.000000000000000000 ) ) ;
#148 = ORIENTED_EDGE ( 'NONE', *, *, #238, .T. ) ;
#149 = LINE ( 'NONE', #106, #94 ) ;
#150 = AXIS2_PLACEMENT_3D ( 'NONE', #62, #237, #3 ) ;
#151 = DIRECTION ( 'NONE',  ( 0.000000000000000000, -0.000000000000000000, 1.000000000000000000 ) ) ;
#152 = CARTESIAN_POINT ( 'NONE',  ( 9.184850993605147944E-16, 5.000000000000000000, 7.500000000000000000 ) ) ;
#153 = EDGE_CURVE ( 'NONE', #144, #143, #66, .T. ) ;
#154 = CARTESIAN_POINT ( 'NONE',  ( 0.000000000000000000, 5.000000000000000000, 0.000000000000000000 ) ) ;
#155 = VECTOR ( 'NONE', #82, 1000.000000000000000 ) ;
#156 = CARTESIAN_POINT ( 'NONE',  ( 0.000000000000000000, 0.000000000000000000, 0.000000000000000000 ) ) ;
#157 = CARTESIAN_POINT ( 'NONE',  ( 0.000000000000000000, 2.500000000000000000, 0.000000000000000000 ) ) ;
#158 = APPLICATION_CONTEXT ( 'automotive_design' ) ;
#159 = CYLINDRICAL_SURFACE ( 'NONE', #258, 1.850000000000000089 ) ;
#160 = AXIS2_PLACEMENT_3D ( 'NONE', #207, #53, #205 ) ;
#161 = ORIENTED_EDGE ( 'NONE', *, *, #238, .F. ) ;
#162 = ADVANCED_FACE ( 'NONE', ( #178 ), #130, .T. ) ;
#163 = CARTESIAN_POINT ( 'NONE',  ( 0.000000000000000000, 2.500000000000000000, -7.500000000000000000 ) ) ;
#164 = EDGE_LOOP ( 'NONE', ( #70, #272 ) ) ;
#165 = ORIENTED_EDGE ( 'NONE', *, *, #129, .T. ) ;
#166 = DIRECTION ( 'NONE',  ( 0.000000000000000000, 1.000000000000000000, 0.000000000000000000 ) ) ;
#167 = COLOUR_RGB ( '',0.7921568627450980005, 0.8196078431372548767, 0.9333333333333333481 ) ;
#168 = ORIENTED_EDGE ( 'NONE', *, *, #109, .T. ) ;
#169 = EDGE_LOOP ( 'NONE', ( #161, #61 ) ) ;
#170 = CARTESIAN_POINT ( 'NONE',  ( 0.000000000000000000, 0.000000000000000000, -4.000000000000000000 ) ) ;
#171 = STYLED_ITEM ( 'NONE', ( #260 ), #194 ) ;
#172 = EDGE_CURVE ( 'NONE', #143, #121, #224, .T. ) ;
#173 = DIRECTION ( 'NONE',  ( -0.000000000000000000, -1.000000000000000000, -0.000000000000000000 ) ) ;
#174 = DIRECTION ( 'NONE',  ( 0.000000000000000000, 1.000000000000000000, 0.000000000000000000 ) ) ;
#175 = CARTESIAN_POINT ( 'NONE',  ( 0.000000000000000000, 5.000000000000000000, 0.000000000000000000 ) ) ;
#176 = ADVANCED_FACE ( 'NONE', ( #67 ), #177, .T. ) ;
#177 = CYLINDRICAL_SURFACE ( 'NONE', #59, 4.000000000000000000 ) ;
#178 = FACE_OUTER_BOUND ( 'NONE', #49, .T. ) ;
#179 = AXIS2_PLACEMENT_3D ( 'NONE', #240, #262, #43 ) ;
#180 = PRODUCT_RELATED_PRODUCT_CATEGORY ( 'part', '', ( #13 ) ) ;
#181 = LINE ( 'NONE', #259, #7 ) ;
#182 = UNCERTAINTY_MEASURE_WITH_UNIT (LENGTH_MEASURE( 1.000000000000000082E-05 ), #46, 'distance_accuracy_value', 'NONE');
#183 = EDGE_LOOP ( 'NONE', ( #30, #128 ) ) ;
#184 = VERTEX_POINT ( 'NONE', #1 ) ;
#185 = CARTESIAN_POINT ( 'NONE',  ( 0.000000000000000000, 2.500000000000000000, 0.000000000000000000 ) ) ;
#186 = AXIS2_PLACEMENT_3D ( 'NONE', #127, #279, #151 ) ;
#187 = ADVANCED_FACE ( 'NONE', ( #200 ), #8, .T. ) ;
#188 = EDGE_LOOP ( 'NONE', ( #249, #12 ) ) ;
#189 = DIRECTION ( 'NONE',  ( 0.000000000000000000, 1.000000000000000000, 0.000000000000000000 ) ) ;
#190 = EDGE_CURVE ( 'NONE', #119, #124, #181, .T. ) ;
#191 = CARTESIAN_POINT ( 'NONE',  ( 2.265596578422603100E-16, 5.000000000000000000, -1.850000000000000089 ) ) ;
#192 = CIRCLE ( 'NONE', #253, 7.500000000000000000 ) ;
#193 = DIRECTION ( 'NONE',  ( 0.000000000000000000, 0.000000000000000000, 1.000000000000000000 ) ) ;
#194 = MANIFOLD_SOLID_BREP ( 'Cut-Extrude1', #21 ) ;
#195 = DIRECTION ( 'NONE',  ( 0.000000000000000000, 1.000000000000000000, 0.000000000000000000 ) ) ;
#196 = EDGE_LOOP ( 'NONE', ( #214, #208, #100, #98 ) ) ;
#197 = FACE_OUTER_BOUND ( 'NONE', #164, .T. ) ;
#198 = EDGE_CURVE ( 'NONE', #76, #184, #103, .T. ) ;
#199 = DIRECTION ( 'NONE',  ( 0.000000000000000000, 1.000000000000000000, 0.000000000000000000 ) ) ;
#200 = FACE_OUTER_BOUND ( 'NONE', #34, .T. ) ;
#201 = EDGE_CURVE ( 'NONE', #18, #124, #90, .T. ) ;
#202 = PRODUCT_CONTEXT ( 'NONE', #241, 'mechanical' ) ;
#203 = ORIENTED_EDGE ( 'NONE', *, *, #190, .T. ) ;
#204 = AXIS2_PLACEMENT_3D ( 'NONE', #252, #146, #41 ) ;
#205 = DIRECTION ( 'NONE',  ( 1.000000000000000000, 0.000000000000000000, 0.000000000000000000 ) ) ;
#206 = ORIENTED_EDGE ( 'NONE', *, *, #261, .T. ) ;
#207 = CARTESIAN_POINT ( 'NONE',  ( 0.000000000000000000, 0.000000000000000000, 0.000000000000000000 ) ) ;
#208 = ORIENTED_EDGE ( 'NONE', *, *, #198, .F. ) ;
#209 =( LENGTH_UNIT ( ) NAMED_UNIT ( * ) SI_UNIT ( .MILLI., .METRE. ) );
#210 = VERTEX_POINT ( 'NONE', #63 ) ;
#211 = ORIENTED_EDGE ( 'NONE', *, *, #64, .T. ) ;
#212 = DIRECTION ( 'NONE',  ( -0.000000000000000000, -1.000000000000000000, -0.000000000000000000 ) ) ;
#213 = ORIENTED_EDGE ( 'NONE', *, *, #16, .T. ) ;
#214 = ORIENTED_EDGE ( 'NONE', *, *, #27, .F. ) ;
#215 = PRESENTATION_LAYER_ASSIGNMENT (  '', '', ( #171 ) ) ;
#216 = CIRCLE ( 'NONE', #74, 7.500000000000000000 ) ;
#217 = CARTESIAN_POINT ( 'NONE',  ( 4.898587196589412829E-16, 2.500000000000000000, 4.000000000000000000 ) ) ;
#218 = CARTESIAN_POINT ( 'NONE',  ( 0.000000000000000000, -13.00000000000000533, 1.850000000000000089 ) ) ;
#219 = DIRECTION ( 'NONE',  ( -0.000000000000000000, -1.000000000000000000, -0.000000000000000000 ) ) ;
#220 = DIRECTION ( 'NONE',  ( 0.000000000000000000, 1.000000000000000000, 0.000000000000000000 ) ) ;
#221 = ADVANCED_FACE ( 'NONE', ( #110, #197 ), #87, .F. ) ;
#222 =( NAMED_UNIT ( * ) SI_UNIT ( $, .STERADIAN. ) SOLID_ANGLE_UNIT ( ) );
#223 = FILL_AREA_STYLE ('',( #132 ) ) ;
#224 = LINE ( 'NONE', #152, #227 ) ;
#225 = CARTESIAN_POINT ( 'NONE',  ( 0.000000000000000000, -13.00000000000000533, 0.000000000000000000 ) ) ;
#226 = EDGE_LOOP ( 'NONE', ( #211, #33 ) ) ;
#227 = VECTOR ( 'NONE', #263, 1000.000000000000000 ) ;
#228 = ADVANCED_FACE ( 'NONE', ( #88, #246 ), #51, .T. ) ;
#229 = CARTESIAN_POINT ( 'NONE',  ( 0.000000000000000000, 0.000000000000000000, 0.000000000000000000 ) ) ;
#230 = SHAPE_DEFINITION_REPRESENTATION ( #36, #54 ) ;
#231 = VERTEX_POINT ( 'NONE', #163 ) ;
#232 = DIRECTION ( 'NONE',  ( 0.000000000000000000, 1.000000000000000000, 0.000000000000000000 ) ) ;
#233 = FACE_BOUND ( 'NONE', #226, .T. ) ;
#234 = DIRECTION ( 'NONE',  ( 0.000000000000000000, 1.000000000000000000, 0.000000000000000000 ) ) ;
#235 = CARTESIAN_POINT ( 'NONE',  ( 0.000000000000000000, 2.500000000000000000, 0.000000000000000000 ) ) ;
#236 = FACE_OUTER_BOUND ( 'NONE', #273, .T. ) ;
#237 = DIRECTION ( 'NONE',  ( 0.000000000000000000, 1.000000000000000000, 0.000000000000000000 ) ) ;
#238 = EDGE_CURVE ( 'NONE', #231, #121, #216, .T. ) ;
#239 = CARTESIAN_POINT ( 'NONE',  ( 0.000000000000000000, 0.000000000000000000, 0.000000000000000000 ) ) ;
#240 = CARTESIAN_POINT ( 'NONE',  ( 0.000000000000000000, 5.000000000000000000, 0.000000000000000000 ) ) ;
#241 = APPLICATION_CONTEXT ( 'automotive_design' ) ;
#242 = DIRECTION ( 'NONE',  ( -0.000000000000000000, -1.000000000000000000, -0.000000000000000000 ) ) ;
#243 = AXIS2_PLACEMENT_3D ( 'NONE', #81, #77, #256 ) ;
#244 = AXIS2_PLACEMENT_3D ( 'NONE', #229, #166, #96 ) ;
#245 = EDGE_LOOP ( 'NONE', ( #79, #203, #206, #95 ) ) ;
#246 = FACE_OUTER_BOUND ( 'NONE', #188, .T. ) ;
#247 = ORIENTED_EDGE ( 'NONE', *, *, #172, .T. ) ;
#248 = ADVANCED_FACE ( 'NONE', ( #142 ), #159, .F. ) ;
#249 = ORIENTED_EDGE ( 'NONE', *, *, #153, .T. ) ;
#250 = AXIS2_PLACEMENT_3D ( 'NONE', #175, #234, #102 ) ;
#251 =( NAMED_UNIT ( * ) PLANE_ANGLE_UNIT ( ) SI_UNIT ( $, .RADIAN. ) );
#252 = CARTESIAN_POINT ( 'NONE',  ( 0.000000000000000000, -13.00000000000000533, 0.000000000000000000 ) ) ;
#253 = AXIS2_PLACEMENT_3D ( 'NONE', #274, #199, #135 ) ;
#254 = DIRECTION ( 'NONE',  ( 0.000000000000000000, 0.000000000000000000, 1.000000000000000000 ) ) ;
#255 = CARTESIAN_POINT ( 'NONE',  ( 0.000000000000000000, 0.000000000000000000, 0.000000000000000000 ) ) ;
#256 = DIRECTION ( 'NONE',  ( 0.000000000000000000, 0.000000000000000000, 1.000000000000000000 ) ) ;
#257 = CARTESIAN_POINT ( 'NONE',  ( 4.898587196589412829E-16, 0.000000000000000000, 4.000000000000000000 ) ) ;
#258 = AXIS2_PLACEMENT_3D ( 'NONE', #225, #29, #271 ) ;
#259 = CARTESIAN_POINT ( 'NONE',  ( 4.898587196589412829E-16, 2.500000000000000000, 4.000000000000000000 ) ) ;
#260 = PRESENTATION_STYLE_ASSIGNMENT (( #68 ) ) ;
#261 = EDGE_CURVE ( 'NONE', #124, #18, #276, .T. ) ;
#262 = DIRECTION ( 'NONE',  ( -0.000000000000000000, -1.000000000000000000, -0.000000000000000000 ) ) ;
#263 = DIRECTION ( 'NONE',  ( -0.000000000000000000, -1.000000000000000000, -0.000000000000000000 ) ) ;
#264 = CARTESIAN_POINT ( 'NONE',  ( 9.184850993605147944E-16, 5.000000000000000000, 7.500000000000000000 ) ) ;
#265 = CIRCLE ( 'NONE', #250, 1.850000000000000089 ) ;
#266 =( NAMED_UNIT ( * ) SI_UNIT ( $, .STERADIAN. ) SOLID_ANGLE_UNIT ( ) );
#267 = ORIENTED_EDGE ( 'NONE', *, *, #190, .F. ) ;
#268 = ORIENTED_EDGE ( 'NONE', *, *, #111, .F. ) ;
#269 = ORIENTED_EDGE ( 'NONE', *, *, #78, .F. ) ;
#270 = AXIS2_PLACEMENT_3D ( 'NONE', #239, #220, #4 ) ;
#271 = DIRECTION ( 'NONE',  ( 0.000000000000000000, 0.000000000000000000, 1.000000000000000000 ) ) ;
#272 = ORIENTED_EDGE ( 'NONE', *, *, #261, .F. ) ;
#273 = EDGE_LOOP ( 'NONE', ( #117, #19, #97, #269 ) ) ;
#274 = CARTESIAN_POINT ( 'NONE',  ( 0.000000000000000000, 2.500000000000000000, 0.000000000000000000 ) ) ;
#275 = CIRCLE ( 'NONE', #32, 7.500000000000000000 ) ;
#276 = CIRCLE ( 'NONE', #244, 4.000000000000000000 ) ;
#277 = CARTESIAN_POINT ( 'NONE',  ( 0.000000000000000000, 5.000000000000000000, 1.850000000000000089 ) ) ;
#278 = LINE ( 'NONE', #38, #155 ) ;
#279 = DIRECTION ( 'NONE',  ( 0.000000000000000000, 1.000000000000000000, 0.000000000000000000 ) ) ;
ENDSEC;
END-ISO-10303-21;
