ISO-10303-21;
HEADER;
FILE_DESCRIPTION (( 'STEP AP203' ),
    '1' );
FILE_NAME ('Arm3.STEP',
    '2026-06-03T04:54:44',
    ( '' ),
    ( '' ),
    'SwSTEP 2.0',
    'SolidWorks 2025',
    '' );
FILE_SCHEMA (( 'CONFIG_CONTROL_DESIGN' ));
ENDSEC;

DATA;
#1 = ORIENTED_EDGE ( 'NONE', *, *, #731, .F. ) ;
#2 = DIRECTION ( 'NONE',  ( 0.8660254037844385966, 0.000000000000000000, 0.5000000000000001110 ) ) ;
#3 = ORIENTED_EDGE ( 'NONE', *, *, #499, .F. ) ;
#4 = ADVANCED_FACE ( 'NONE', ( #359, #84 ), #1102, .F. ) ;
#5 = CARTESIAN_POINT ( 'NONE',  ( 8.734559793884226764, 3.741736696006692675, -19.09782060830281836 ) ) ;
#6 = DIRECTION ( 'NONE',  ( -0.000000000000000000, -1.000000000000000000, -0.000000000000000000 ) ) ;
#7 = CARTESIAN_POINT ( 'NONE',  ( -12.67377433955038768, 4.496471279752976891, 16.74477431215146339 ) ) ;
#8 = AXIS2_PLACEMENT_3D ( 'NONE', #1059, #155, #234 ) ;
#9 = CIRCLE ( 'NONE', #1119, 1.699999999999999734 ) ;
#10 = CARTESIAN_POINT ( 'NONE',  ( 29.42169386448279766, 6.000000000000000000, -50.95986861802170864 ) ) ;
#11 = EDGE_CURVE ( 'NONE', #159, #862, #998, .T. ) ;
#12 = CARTESIAN_POINT ( 'NONE',  ( -12.49999999999999822, 12.00000000000000000, 1.502314598737158637E-15 ) ) ;
#13 = EDGE_LOOP ( 'NONE', ( #1056, #1087, #310, #17 ) ) ;
#14 = CARTESIAN_POINT ( 'NONE',  ( -12.04666281880296630, 3.615987078543975830, 17.20188846120118598 ) ) ;
#15 = CARTESIAN_POINT ( 'NONE',  ( 7.794228634059941818, 6.000000000000000000, -19.50000000000000711 ) ) ;
#16 = DIRECTION ( 'NONE',  ( 0.7071067811865462405, 0.7071067811865489050, 0.000000000000000000 ) ) ;
#17 = ORIENTED_EDGE ( 'NONE', *, *, #110, .F. ) ;
#18 = LINE ( 'NONE', #1044, #439 ) ;
#19 = EDGE_CURVE ( 'NONE', #26, #233, #1030, .T. ) ;
#20 =( GEOMETRIC_REPRESENTATION_CONTEXT ( 3 ) GLOBAL_UNCERTAINTY_ASSIGNED_CONTEXT ( ( #470 ) ) GLOBAL_UNIT_ASSIGNED_CONTEXT ( ( #543, #550, #166 ) ) REPRESENTATION_CONTEXT ( 'NONE', 'WORKASPACE' ) );
#21 = ADVANCED_FACE ( 'NONE', ( #107 ), #755, .T. ) ;
#22 = AXIS2_PLACEMENT_3D ( 'NONE', #453, #733, #160 ) ;
#23 = CARTESIAN_POINT ( 'NONE',  ( 12.16955641012890332, 3.739220839584123990, -17.11494076825433552 ) ) ;
#24 = CARTESIAN_POINT ( 'NONE',  ( 8.750000000000001776, 6.000000000000000000, -15.15544456622768266 ) ) ;
#25 = ORIENTED_EDGE ( 'NONE', *, *, #212, .F. ) ;
#26 = VERTEX_POINT ( 'NONE', #15 ) ;
#27 = CARTESIAN_POINT ( 'NONE',  ( -11.77365090279968918, 8.604690807496877980, 17.38987978543482527 ) ) ;
#28 = EDGE_CURVE ( 'NONE', #813, #763, #939, .T. ) ;
#29 = AXIS2_PLACEMENT_3D ( 'NONE', #681, #527, #1156 ) ;
#30 = DIRECTION ( 'NONE',  ( -1.000000000000000000, 0.000000000000000000, 0.000000000000000000 ) ) ;
#31 = DIRECTION ( 'NONE',  ( 0.8660254037844387076, 0.000000000000000000, -0.4999999999999998890 ) ) ;
#32 = CARTESIAN_POINT ( 'NONE',  ( -12.74723216519380209, 7.332216082763483911, 16.68873260665803571 ) ) ;
#33 = VERTEX_POINT ( 'NONE', #292 ) ;
#34 = CARTESIAN_POINT ( 'NONE',  ( 11.63034921123825249, 3.303301280262210593, -17.48622395587347000 ) ) ;
#35 = DIRECTION ( 'NONE',  ( -1.000000000000000000, 0.000000000000000000, -0.000000000000000000 ) ) ;
#36 = EDGE_CURVE ( 'NONE', #1190, #983, #746, .T. ) ;
#37 = ORIENTED_EDGE ( 'NONE', *, *, #853, .T. ) ;
#38 = DIRECTION ( 'NONE',  ( 0.7071067811865489050, -0.7071067811865462405, 0.000000000000000000 ) ) ;
#39 = ORGANIZATION ( 'UNSPECIFIED', 'UNSPECIFIED', '' ) ;
#40 = DIRECTION ( 'NONE',  ( -0.4999999999999998890, 0.000000000000000000, -0.8660254037844387076 ) ) ;
#41 = VECTOR ( 'NONE', #287, 1000.000000000000114 ) ;
#42 = EDGE_CURVE ( 'NONE', #101, #822, #478, .T. ) ;
#43 = LINE ( 'NONE', #320, #376 ) ;
#44 = ORIENTED_EDGE ( 'NONE', *, *, #1181, .F. ) ;
#45 = DIRECTION ( 'NONE',  ( 0.7071067811865487940, -0.7071067811865462405, 1.110223024625156047E-16 ) ) ;
#46 = LINE ( 'NONE', #982, #245 ) ;
#47 = DIRECTION ( 'NONE',  ( 1.000000000000000000, -0.000000000000000000, 0.000000000000000000 ) ) ;
#48 = AXIS2_PLACEMENT_3D ( 'NONE', #253, #516, #418 ) ;
#49 = AXIS2_PLACEMENT_3D ( 'NONE', #88, #717, #446 ) ;
#50 = DIRECTION ( 'NONE',  ( -0.4999999999999999445, -0.000000000000000000, 0.8660254037844385966 ) ) ;
#51 = ORIENTED_EDGE ( 'NONE', *, *, #291, .F. ) ;
#52 = AXIS2_PLACEMENT_3D ( 'NONE', #432, #1054, #506 ) ;
#53 = DIRECTION ( 'NONE',  ( -0.000000000000000000, -1.000000000000000000, -0.000000000000000000 ) ) ;
#54 = CARTESIAN_POINT ( 'NONE',  ( 53.70000000000005969, 0.000000000000000000, -1.552577510999243927E-14 ) ) ;
#55 = DIRECTION ( 'NONE',  ( 1.201851678989727077E-16, 0.000000000000000000, 1.000000000000000000 ) ) ;
#56 = FACE_OUTER_BOUND ( 'NONE', #423, .T. ) ;
#57 = ORIENTED_EDGE ( 'NONE', *, *, #669, .T. ) ;
#58 = CARTESIAN_POINT ( 'NONE',  ( 10.22224318643354835, 6.000000000000000000, -14.30544456622766880 ) ) ;
#59 = ADVANCED_FACE ( 'NONE', ( #837, #119 ), #572, .T. ) ;
#60 = LINE ( 'NONE', #511, #1070 ) ;
#61 = CARTESIAN_POINT ( 'NONE',  ( -15.81550992617015616, 6.000000000000000000, 23.99326673973660817 ) ) ;
#62 = DIRECTION ( 'NONE',  ( -0.4999999999999997780, -0.000000000000000000, 0.8660254037844387076 ) ) ;
#63 = LOCAL_TIME ( 0, 54, 44.00000000000000000, #1006 ) ;
#64 = ORIENTED_EDGE ( 'NONE', *, *, #700, .T. ) ;
#65 = DIRECTION ( 'NONE',  ( -0.4999999999999997780, -0.000000000000000000, 0.8660254037844387076 ) ) ;
#66 = FACE_OUTER_BOUND ( 'NONE', #634, .T. ) ;
#67 = FACE_OUTER_BOUND ( 'NONE', #1168, .T. ) ;
#68 = PERSON_AND_ORGANIZATION ( #922, #39 ) ;
#69 = CIRCLE ( 'NONE', #1092, 8.000000000000000000 ) ;
#70 = ORIENTED_EDGE ( 'NONE', *, *, #189, .F. ) ;
#71 = CARTESIAN_POINT ( 'NONE',  ( 48.72943725152292416, 12.00000000000000000, 0.000000000000000000 ) ) ;
#72 = DIRECTION ( 'NONE',  ( -2.891205793294678326E-16, 0.000000000000000000, -1.000000000000000000 ) ) ;
#73 = VERTEX_POINT ( 'NONE', #1130 ) ;
#74 = EDGE_CURVE ( 'NONE', #1134, #748, #909, .T. ) ;
#75 = CARTESIAN_POINT ( 'NONE',  ( 7.794228634059949812, 5.804124504401998230, -19.50000000000000711 ) ) ;
#76 = CARTESIAN_POINT ( 'NONE',  ( 7.794228634059945371, 6.195923253703644384, -19.50000000000000355 ) ) ;
#77 = CARTESIAN_POINT ( 'NONE',  ( 0.000000000000000000, 0.000000000000000000, 0.000000000000000000 ) ) ;
#78 = ORIENTED_EDGE ( 'NONE', *, *, #894, .T. ) ;
#79 = CARTESIAN_POINT ( 'NONE',  ( 12.39574537525192888, 7.983585477953355714, -16.95183764382513658 ) ) ;
#80 = AXIS2_PLACEMENT_3D ( 'NONE', #697, #520, #884 ) ;
#81 = EDGE_LOOP ( 'NONE', ( #916, #1147, #553, #392 ) ) ;
#82 = FACE_BOUND ( 'NONE', #463, .T. ) ;
#83 = ORIENTED_EDGE ( 'NONE', *, *, #990, .F. ) ;
#84 = FACE_OUTER_BOUND ( 'NONE', #185, .T. ) ;
#85 = PERSON_AND_ORGANIZATION ( #922, #39 ) ;
#86 = CARTESIAN_POINT ( 'NONE',  ( 0.000000000000000000, 12.00000000000000000, 0.000000000000000000 ) ) ;
#87 = AXIS2_PLACEMENT_3D ( 'NONE', #692, #1053, #436 ) ;
#88 = CARTESIAN_POINT ( 'NONE',  ( 64.34314575050760254, 27.61370849898472812, -1.342263257598752811E-15 ) ) ;
#89 = ORIENTED_EDGE ( 'NONE', *, *, #1067, .T. ) ;
#90 = ORIENTED_EDGE ( 'NONE', *, *, #326, .T. ) ;
#91 = PERSON_AND_ORGANIZATION_ROLE ( 'design_supplier' ) ;
#92 = FACE_OUTER_BOUND ( 'NONE', #164, .T. ) ;
#93 = DIRECTION ( 'NONE',  ( 0.7071067811865459074, 0.7071067811865493491, 0.000000000000000000 ) ) ;
#94 = EDGE_CURVE ( 'NONE', #862, #951, #1036, .T. ) ;
#95 = PLANE ( 'NONE',  #178 ) ;
#96 = CARTESIAN_POINT ( 'NONE',  ( -8.481212095518039007, 7.981565873588735371, 19.21167166518035430 ) ) ;
#97 = AXIS2_PLACEMENT_3D ( 'NONE', #688, #783, #1153 ) ;
#98 = EDGE_CURVE ( 'NONE', #978, #341, #932, .T. ) ;
#99 = CARTESIAN_POINT ( 'NONE',  ( 10.66999043225022703, 2.999867708313123327, -18.08841128011792776 ) ) ;
#100 = CARTESIAN_POINT ( 'NONE',  ( 6.250000000000000888, 0.000000000000000000, -10.82531754730548812 ) ) ;
#101 = VERTEX_POINT ( 'NONE', #218 ) ;
#102 = EDGE_LOOP ( 'NONE', ( #666, #182, #800, #753 ) ) ;
#103 = CARTESIAN_POINT ( 'NONE',  ( -9.649488693308363452, 8.845795222583451078, 18.65262620486148748 ) ) ;
#104 = AXIS2_PLACEMENT_3D ( 'NONE', #472, #306, #298 ) ;
#105 = VECTOR ( 'NONE', #610, 1000.000000000000000 ) ;
#106 = AXIS2_PLACEMENT_3D ( 'NONE', #303, #647, #831 ) ;
#107 = FACE_OUTER_BOUND ( 'NONE', #586, .T. ) ;
#108 = ADVANCED_FACE ( 'NONE', ( #662 ), #1026, .F. ) ;
#109 = LINE ( 'NONE', #1112, #41 ) ;
#110 = EDGE_CURVE ( 'NONE', #737, #121, #213, .T. ) ;
#111 = CARTESIAN_POINT ( 'NONE',  ( -7.884199316399711499, 6.778345143811233875, 19.46383603284911601 ) ) ;
#112 = CARTESIAN_POINT ( 'NONE',  ( 0.000000000000000000, 0.000000000000000000, 0.000000000000000000 ) ) ;
#113 = LINE ( 'NONE', #304, #1003 ) ;
#114 = EDGE_CURVE ( 'NONE', #619, #514, #930, .T. ) ;
#115 = EDGE_LOOP ( 'NONE', ( #641, #133, #170, #203, #508, #954 ) ) ;
#116 = CARTESIAN_POINT ( 'NONE',  ( -7.938070265715944096, 6.967430104472140506, 19.44203513791534021 ) ) ;
#117 = AXIS2_PLACEMENT_3D ( 'NONE', #397, #644, #127 ) ;
#118 = VECTOR ( 'NONE', #747, 1000.000000000000114 ) ;
#119 = FACE_OUTER_BOUND ( 'NONE', #408, .T. ) ;
#120 = DIRECTION ( 'NONE',  ( 0.7071067811865462405, 0.7071067811865489050, 0.000000000000000000 ) ) ;
#121 = VERTEX_POINT ( 'NONE', #131 ) ;
#122 = CARTESIAN_POINT ( 'NONE',  ( -11.63034921123825605, 8.696698719737790739, 17.48622395587347000 ) ) ;
#123 = EDGE_LOOP ( 'NONE', ( #757, #820, #554, #850 ) ) ;
#124 = VECTOR ( 'NONE', #807, 1000.000000000000000 ) ;
#125 = CC_DESIGN_PERSON_AND_ORGANIZATION_ASSIGNMENT ( #628, #632, ( #158 ) ) ;
#126 = CARTESIAN_POINT ( 'NONE',  ( 12.86714821421164245, 5.028488353466835648, -16.59645205227286979 ) ) ;
#127 = DIRECTION ( 'NONE',  ( 0.7071067811865459074, 0.7071067811865493491, 0.000000000000000000 ) ) ;
#128 = ORIENTED_EDGE ( 'NONE', *, *, #343, .T. ) ;
#129 = LINE ( 'NONE', #496, #475 ) ;
#130 = ADVANCED_FACE ( 'NONE', ( #889, #236 ), #426, .T. ) ;
#131 = CARTESIAN_POINT ( 'NONE',  ( 7.722243186433552786, 6.000000000000000000, -9.975317547305479593 ) ) ;
#132 = LINE ( 'NONE', #602, #1159 ) ;
#133 = ORIENTED_EDGE ( 'NONE', *, *, #365, .T. ) ;
#134 = CARTESIAN_POINT ( 'NONE',  ( 61.51471862576141802, 24.78528137423853650, 0.000000000000000000 ) ) ;
#135 = CYLINDRICAL_SURFACE ( 'NONE', #207, 2.999999999999999556 ) ;
#136 = LOCAL_TIME ( 0, 54, 44.00000000000000000, #701 ) ;
#137 = CYLINDRICAL_SURFACE ( 'NONE', #659, 2.999999999999999556 ) ;
#138 = AXIS2_PLACEMENT_3D ( 'NONE', #435, #65, #786 ) ;
#139 = DIRECTION ( 'NONE',  ( -3.713475330837201018E-16, 0.000000000000000000, -1.000000000000000000 ) ) ;
#140 = ORIENTED_EDGE ( 'NONE', *, *, #608, .F. ) ;
#141 = DIRECTION ( 'NONE',  ( 0.7071067811865489050, -0.7071067811865462405, 0.000000000000000000 ) ) ;
#142 = DIRECTION ( 'NONE',  ( -0.000000000000000000, -1.000000000000000000, -0.000000000000000000 ) ) ;
#143 = CARTESIAN_POINT ( 'NONE',  ( -14.34326673973661137, 6.000000000000000000, 24.84326673973660959 ) ) ;
#144 = VECTOR ( 'NONE', #606, 1000.000000000000114 ) ;
#145 = DIRECTION ( 'NONE',  ( 0.7071067811865489050, -0.7071067811865462405, 0.000000000000000000 ) ) ;
#146 = ADVANCED_FACE ( 'NONE', ( #338 ), #791, .T. ) ;
#147 = ORIENTED_EDGE ( 'NONE', *, *, #879, .F. ) ;
#148 = DIRECTION ( 'NONE',  ( 0.8660254037844385966, 0.000000000000000000, 0.5000000000000001110 ) ) ;
#149 = EDGE_CURVE ( 'NONE', #1138, #314, #977, .T. ) ;
#150 = DIRECTION ( 'NONE',  ( -0.000000000000000000, -1.000000000000000000, -0.000000000000000000 ) ) ;
#151 = DIRECTION ( 'NONE',  ( -0.000000000000000000, -1.000000000000000000, -0.000000000000000000 ) ) ;
#152 = DIRECTION ( 'NONE',  ( -0.000000000000000000, -1.000000000000000000, -0.000000000000000000 ) ) ;
#153 = ORIENTED_EDGE ( 'NONE', *, *, #1037, .T. ) ;
#154 = LINE ( 'NONE', #857, #772 ) ;
#155 = DIRECTION ( 'NONE',  ( 0.7071067811865487940, -0.7071067811865462405, 0.000000000000000000 ) ) ;
#156 = DIRECTION ( 'NONE',  ( 0.7071067811865489050, -0.7071067811865462405, 0.000000000000000000 ) ) ;
#157 = APPROVAL_STATUS ( 'not_yet_approved' ) ;
#158 = PRODUCT_DEFINITION_FORMATION_WITH_SPECIFIED_SOURCE ( 'ANY', '', #787, .NOT_KNOWN. ) ;
#159 = VERTEX_POINT ( 'NONE', #498 ) ;
#160 = DIRECTION ( 'NONE',  ( 0.8660254037844387076, 0.000000000000000000, -0.4999999999999998890 ) ) ;
#161 = ADVANCED_FACE ( 'NONE', ( #1060 ), #312, .T. ) ;
#162 = FACE_OUTER_BOUND ( 'NONE', #258, .T. ) ;
#163 = CC_DESIGN_DATE_AND_TIME_ASSIGNMENT ( #721, #792, ( #691 ) ) ;
#164 = EDGE_LOOP ( 'NONE', ( #434, #925, #128, #272 ) ) ;
#165 = DIRECTION ( 'NONE',  ( 0.8660254037844385966, 0.000000000000000000, 0.5000000000000001110 ) ) ;
#166 =( NAMED_UNIT ( * ) SI_UNIT ( $, .STERADIAN. ) SOLID_ANGLE_UNIT ( ) );
#167 = AXIS2_PLACEMENT_3D ( 'NONE', #914, #918, #169 ) ;
#168 = CARTESIAN_POINT ( 'NONE',  ( 10.67065888955572461, 8.999926981770743240, -18.08799147876533553 ) ) ;
#169 = DIRECTION ( 'NONE',  ( 0.8660254037844384856, 0.000000000000000000, 0.5000000000000002220 ) ) ;
#170 = ORIENTED_EDGE ( 'NONE', *, *, #271, .F. ) ;
#171 = DATE_AND_TIME ( #726, #885 ) ;
#172 = CARTESIAN_POINT ( 'NONE',  ( 9.652686721714994533, 8.847019917178320370, -18.65097258781485223 ) ) ;
#173 = CARTESIAN_POINT ( 'NONE',  ( 0.000000000000000000, 0.000000000000000000, 0.000000000000000000 ) ) ;
#174 = VERTEX_POINT ( 'NONE', #1074 ) ;
#175 = PERSON_AND_ORGANIZATION_ROLE ( 'design_owner' ) ;
#176 = EDGE_LOOP ( 'NONE', ( #673, #1080, #153, #846 ) ) ;
#177 = CARTESIAN_POINT ( 'NONE',  ( 8.481071293197659955, 7.981606559582813176, -19.21174612211840937 ) ) ;
#178 = AXIS2_PLACEMENT_3D ( 'NONE', #24, #752, #1116 ) ;
#179 = CYLINDRICAL_SURFACE ( 'NONE', #735, 7.999999999999991118 ) ;
#180 = APPLICATION_CONTEXT ( 'configuration controlled 3d designs of mechanical parts and assemblies' ) ;
#181 = ORIENTED_EDGE ( 'NONE', *, *, #114, .T. ) ;
#182 = ORIENTED_EDGE ( 'NONE', *, *, #694, .F. ) ;
#183 = DATE_AND_TIME ( #264, #63 ) ;
#184 = DIRECTION ( 'NONE',  ( 0.000000000000000000, 1.000000000000000000, -0.000000000000000000 ) ) ;
#185 = EDGE_LOOP ( 'NONE', ( #345, #1077 ) ) ;
#186 = AXIS2_PLACEMENT_3D ( 'NONE', #693, #156, #420 ) ;
#187 = EDGE_CURVE ( 'NONE', #991, #619, #244, .T. ) ;
#188 = DIRECTION ( 'NONE',  ( 0.000000000000000000, 0.000000000000000000, -1.000000000000000000 ) ) ;
#189 = EDGE_CURVE ( 'NONE', #1195, #822, #607, .T. ) ;
#190 = ORIENTED_EDGE ( 'NONE', *, *, #1023, .T. ) ;
#191 = CARTESIAN_POINT ( 'NONE',  ( 7.884199316399698176, 5.221654856188766125, -19.46383603284911601 ) ) ;
#192 = CARTESIAN_POINT ( 'NONE',  ( 63.52997295214309048, 17.11317279836448790, 4.898587196589422689E-16 ) ) ;
#193 = DIRECTION ( 'NONE',  ( -0.5000000000000000000, 0.000000000000000000, 0.8660254037844385966 ) ) ;
#194 = EDGE_LOOP ( 'NONE', ( #1004, #969 ) ) ;
#195 = DIRECTION ( 'NONE',  ( 0.000000000000000000, 1.000000000000000000, -0.000000000000000000 ) ) ;
#196 = CARTESIAN_POINT ( 'NONE',  ( 64.34314575050764518, 10.64314575050759437, 9.797174393178821713E-16 ) ) ;
#197 = APPROVAL_PERSON_ORGANIZATION ( #275, #781, #638 ) ;
#198 = CARTESIAN_POINT ( 'NONE',  ( -8.875157129887279339, 8.384919949421213659, 19.03308249249679207 ) ) ;
#199 = EDGE_CURVE ( 'NONE', #458, #1150, #332, .T. ) ;
#200 = DIRECTION ( 'NONE',  ( 0.8660254037844380415, 0.000000000000000000, 0.5000000000000012212 ) ) ;
#201 = DIRECTION ( 'NONE',  ( 0.000000000000000000, 0.000000000000000000, -1.000000000000000000 ) ) ;
#202 = ORIENTED_EDGE ( 'NONE', *, *, #824, .T. ) ;
#203 = ORIENTED_EDGE ( 'NONE', *, *, #11, .F. ) ;
#204 = CARTESIAN_POINT ( 'NONE',  ( -7.794228634059951588, 6.000000000000000000, 19.50000000000000000 ) ) ;
#205 = VECTOR ( 'NONE', #854, 1000.000000000000000 ) ;
#206 = AXIS2_PLACEMENT_3D ( 'NONE', #965, #703, #409 ) ;
#207 = AXIS2_PLACEMENT_3D ( 'NONE', #317, #1073, #773 ) ;
#208 = CARTESIAN_POINT ( 'NONE',  ( 3.469446951953614189E-15, 12.00000000000000000, -14.43375672974064905 ) ) ;
#209 = FACE_OUTER_BOUND ( 'NONE', #176, .T. ) ;
#210 = ORIENTED_EDGE ( 'NONE', *, *, #943, .T. ) ;
#211 = CARTESIAN_POINT ( 'NONE',  ( -7.884682884967622485, 5.220057619995425391, 19.46364001992501969 ) ) ;
#212 = EDGE_CURVE ( 'NONE', #1101, #335, #1045, .T. ) ;
#213 = LINE ( 'NONE', #579, #457 ) ;
#214 = CARTESIAN_POINT ( 'NONE',  ( 0.000000000000000000, 12.00000000000000000, 0.000000000000000000 ) ) ;
#215 = ORIENTED_EDGE ( 'NONE', *, *, #672, .T. ) ;
#216 = CARTESIAN_POINT ( 'NONE',  ( -7.794228634059953364, 5.804076746296359168, 19.50000000000000355 ) ) ;
#217 = ORIENTED_EDGE ( 'NONE', *, *, #933, .F. ) ;
#218 = CARTESIAN_POINT ( 'NONE',  ( -4.777756813566459648, 6.000000000000000000, 11.67531754730549132 ) ) ;
#219 = DIRECTION ( 'NONE',  ( 0.7071067811865489050, -0.7071067811865462405, 0.000000000000000000 ) ) ;
#220 = CARTESIAN_POINT ( 'NONE',  ( -8.164277817528283521, 7.503211341447427962, 19.34830001075902572 ) ) ;
#221 = EDGE_CURVE ( 'NONE', #1173, #949, #1095, .T. ) ;
#222 = CARTESIAN_POINT ( 'NONE',  ( -6.250000000000003553, 12.00000000000000000, 10.82531754730548634 ) ) ;
#223 = DIRECTION ( 'NONE',  ( 0.7071067811865467956, 0.7071067811865484609, 0.000000000000000000 ) ) ;
#224 = ORIENTED_EDGE ( 'NONE', *, *, #611, .T. ) ;
#225 = LINE ( 'NONE', #1057, #105 ) ;
#226 = ADVANCED_FACE ( 'NONE', ( #972 ), #137, .F. ) ;
#227 = ORIENTED_EDGE ( 'NONE', *, *, #347, .T. ) ;
#228 = DIRECTION ( 'NONE',  ( -0.000000000000000000, -1.000000000000000000, -0.000000000000000000 ) ) ;
#229 = CARTESIAN_POINT ( 'NONE',  ( 29.42169386448279766, 6.000000000000000000, -50.95986861802172285 ) ) ;
#230 = DIRECTION ( 'NONE',  ( 0.8660254037844385966, 0.000000000000000000, 0.5000000000000001110 ) ) ;
#231 = ORIENTED_EDGE ( 'NONE', *, *, #499, .T. ) ;
#232 = CYLINDRICAL_SURFACE ( 'NONE', #206, 4.000000000000005329 ) ;
#233 = VERTEX_POINT ( 'NONE', #523 ) ;
#234 = DIRECTION ( 'NONE',  ( 0.7071067811865462405, 0.7071067811865489050, 0.000000000000000000 ) ) ;
#235 = VECTOR ( 'NONE', #16, 999.9999999999998863 ) ;
#236 = FACE_OUTER_BOUND ( 'NONE', #736, .T. ) ;
#237 = ADVANCED_FACE ( 'NONE', ( #67 ), #517, .F. ) ;
#238 = AXIS2_PLACEMENT_3D ( 'NONE', #214, #6, #201 ) ;
#239 = CARTESIAN_POINT ( 'NONE',  ( 32.01977007583611368, 6.000000000000000000, -49.45986861802172285 ) ) ;
#240 = ADVANCED_FACE ( 'NONE', ( #588 ), #1163, .F. ) ;
#241 = ORIENTED_EDGE ( 'NONE', *, *, #824, .F. ) ;
#242 = DIRECTION ( 'NONE',  ( 0.7071067811865489050, -0.7071067811865462405, -2.625823588203947802E-16 ) ) ;
#243 = CARTESIAN_POINT ( 'NONE',  ( 26.82361765312947810, 6.000000000000000000, -52.45986861802172285 ) ) ;
#244 = LINE ( 'NONE', #327, #1011 ) ;
#245 = VECTOR ( 'NONE', #1170, 1000.000000000000000 ) ;
#246 = CARTESIAN_POINT ( 'NONE',  ( -10.22224318643355367, 6.000000000000000000, 14.30544456622768656 ) ) ;
#247 = ORIENTED_EDGE ( 'NONE', *, *, #1124, .T. ) ;
#248 = CARTESIAN_POINT ( 'NONE',  ( 0.000000000000000000, 12.00000000000000000, 0.000000000000000000 ) ) ;
#249 = LINE ( 'NONE', #957, #357 ) ;
#250 = DIRECTION ( 'NONE',  ( -0.4999999999999999445, -0.000000000000000000, 0.8660254037844385966 ) ) ;
#251 = VERTEX_POINT ( 'NONE', #875 ) ;
#252 = DIRECTION ( 'NONE',  ( 0.000000000000000000, 1.000000000000000000, -0.000000000000000000 ) ) ;
#253 = CARTESIAN_POINT ( 'NONE',  ( -14.34326673973661315, 6.000000000000000000, 24.84326673973660959 ) ) ;
#254 = ADVANCED_FACE ( 'NONE', ( #438 ), #682, .F. ) ;
#255 = EDGE_LOOP ( 'NONE', ( #367, #852, #1034, #241, #37 ) ) ;
#256 = SHAPE_DEFINITION_REPRESENTATION ( #445, #938 ) ;
#257 = AXIS2_PLACEMENT_3D ( 'NONE', #589, #407, #328 ) ;
#258 = EDGE_LOOP ( 'NONE', ( #956, #677, #834, #476 ) ) ;
#259 = DIRECTION ( 'NONE',  ( -0.000000000000000000, -1.000000000000000000, -0.000000000000000000 ) ) ;
#260 = EDGE_CURVE ( 'NONE', #73, #428, #622, .T. ) ;
#261 = DIRECTION ( 'NONE',  ( 0.7071067811865489050, -0.7071067811865462405, -0.000000000000000000 ) ) ;
#262 = AXIS2_PLACEMENT_3D ( 'NONE', #479, #1120, #741 ) ;
#263 = EDGE_LOOP ( 'NONE', ( #447, #83, #785, #904 ) ) ;
#264 = CALENDAR_DATE ( 2026, 3, 6 ) ;
#265 = CARTESIAN_POINT ( 'NONE',  ( 8.875884504199193614, 8.385499998921265075, -19.03274047070075170 ) ) ;
#266 = AXIS2_PLACEMENT_3D ( 'NONE', #10, #385, #200 ) ;
#267 = DIRECTION ( 'NONE',  ( 0.000000000000000000, 0.000000000000000000, 1.000000000000000000 ) ) ;
#268 = ORIENTED_EDGE ( 'NONE', *, *, #1164, .T. ) ;
#269 = CARTESIAN_POINT ( 'NONE',  ( 12.86814865161900379, 6.968094958504681635, -16.59567800601539034 ) ) ;
#270 = PLANE ( 'NONE',  #585 ) ;
#271 = EDGE_CURVE ( 'NONE', #862, #352, #765, .T. ) ;
#272 = ORIENTED_EDGE ( 'NONE', *, *, #187, .T. ) ;
#273 = EDGE_CURVE ( 'NONE', #286, #514, #331, .T. ) ;
#274 = CARTESIAN_POINT ( 'NONE',  ( 7.938070265715940543, 5.032569895527855941, -19.44203513791535087 ) ) ;
#275 = PERSON_AND_ORGANIZATION ( #922, #39 ) ;
#276 = CARTESIAN_POINT ( 'NONE',  ( 12.99038105676657295, 6.000000000000000000, -16.50000000000000000 ) ) ;
#278 = B_SPLINE_CURVE_WITH_KNOTS ( 'NONE', 3,
 ( #276, #449, #1083, #633, #269, #464, #1000, #545, #79, #897, #906, #806, #354, #1103, #901, #620, #168, #533, #801, #640, #172, #461, #722, #265, #1196, #177, #629, #979, #375, #1008, #1186, #1193, #76, #716 ),
 .UNSPECIFIED., .F., .F.,
 ( 4, 2, 2, 2, 2, 2, 2, 2, 2, 2, 2, 2, 2, 2, 2, 2, 4 ),
 ( 0.000000000000000000, 0.0005869608086460193722, 0.001173921617292038744, 0.001760882425938058117, 0.002347843234584075321, 0.002934804043230092307, 0.003521764851876110162, 0.004108725660522127149, 0.004695686469168144569, 0.005282647277814161990, 0.005869608086460178543, 0.006456568895106196831, 0.007043529703752213385, 0.007630490512398230805, 0.008217451321044249093, 0.008804412129690269984, 0.009391372938336289139 ),
 .UNSPECIFIED. ) ;
#277 = VECTOR ( 'NONE', #50, 1000.000000000000114 ) ;
#279 = ORIENTED_EDGE ( 'NONE', *, *, #149, .F. ) ;
#280 = CARTESIAN_POINT ( 'NONE',  ( 66.35840007688928210, 19.94159992311069374, 0.000000000000000000 ) ) ;
#281 = EDGE_LOOP ( 'NONE', ( #556, #404 ) ) ;
#282 = ORIENTED_EDGE ( 'NONE', *, *, #597, .F. ) ;
#283 = CARTESIAN_POINT ( 'NONE',  ( 58.68629150101522640, 21.95685424949233422, 4.898587196589422689E-16 ) ) ;
#284 = VECTOR ( 'NONE', #261, 1000.000000000000000 ) ;
#285 = DIRECTION ( 'NONE',  ( 0.7071067811865467956, 0.7071067811865484609, 0.000000000000000000 ) ) ;
#286 = VERTEX_POINT ( 'NONE', #971 ) ;
#287 = DIRECTION ( 'NONE',  ( -0.8660254037844387076, 0.000000000000000000, -0.4999999999999998890 ) ) ;
#288 = VERTEX_POINT ( 'NONE', #612 ) ;
#289 = CARTESIAN_POINT ( 'NONE',  ( -11.16460289854898846, 8.904718474069714063, 17.78731307582934207 ) ) ;
#290 = EDGE_CURVE ( 'NONE', #1139, #590, #60, .T. ) ;
#291 = EDGE_CURVE ( 'NONE', #627, #33, #1079, .T. ) ;
#292 = CARTESIAN_POINT ( 'NONE',  ( 12.49999999999999645, 0.000000000000000000, 7.216878364870328078 ) ) ;
#293 = FACE_BOUND ( 'NONE', #348, .T. ) ;
#294 = ORIENTED_EDGE ( 'NONE', *, *, #778, .T. ) ;
#295 = VECTOR ( 'NONE', #868, 1000.000000000000000 ) ;
#296 = CARTESIAN_POINT ( 'NONE',  ( -8.875884504199204272, 3.614500001078734481, 19.03274047070074459 ) ) ;
#297 = CIRCLE ( 'NONE', #138, 1.699999999999999734 ) ;
#298 = DIRECTION ( 'NONE',  ( 0.8660254037844387076, 0.000000000000000000, 0.4999999999999998890 ) ) ;
#299 = CARTESIAN_POINT ( 'NONE',  ( -6.250000000000003553, 12.00000000000000000, 10.82531754730548634 ) ) ;
#300 = ORIENTED_EDGE ( 'NONE', *, *, #19, .T. ) ;
#301 = CARTESIAN_POINT ( 'NONE',  ( -12.16955641012891220, 8.260779160415873790, 17.11494076825432487 ) ) ;
#302 = CLOSED_SHELL ( 'NONE', ( #254, #237, #226, #108, #573, #440, #625, #454, #919, #617, #538, #130, #907, #819, #59, #21, #1051, #1094, #146, #565, #869, #1184, #323, #623, #745, #161, #414, #364, #858, #240, #355, #4 ) ) ;
#303 = CARTESIAN_POINT ( 'NONE',  ( 8.750000000000001776, 6.000000000000000000, -15.15544456622768266 ) ) ;
#304 = CARTESIAN_POINT ( 'NONE',  ( 6.249999999999999112, 0.000000000000000000, 10.82531754730548634 ) ) ;
#305 = CARTESIAN_POINT ( 'NONE',  ( -12.39574537525193243, 4.016414522046643398, 16.95183764382512948 ) ) ;
#306 = DIRECTION ( 'NONE',  ( -0.4999999999999998890, 0.000000000000000000, 0.8660254037844387076 ) ) ;
#307 = EDGE_CURVE ( 'NONE', #737, #1101, #339, .T. ) ;
#308 = CARTESIAN_POINT ( 'NONE',  ( -8.750000000000007105, 6.000000000000000000, 15.15544456622768621 ) ) ;
#309 = CARTESIAN_POINT ( 'NONE',  ( -12.86714821421165311, 6.971511646533156359, 16.59645205227286624 ) ) ;
#310 = ORIENTED_EDGE ( 'NONE', *, *, #558, .T. ) ;
#311 = APPROVAL_PERSON_ORGANIZATION ( #1165, #539, #999 ) ;
#312 = CYLINDRICAL_SURFACE ( 'NONE', #968, 12.00000000000000178 ) ;
#313 = DIRECTION ( 'NONE',  ( 0.8660254037844387076, 0.000000000000000000, -0.4999999999999998890 ) ) ;
#314 = VERTEX_POINT ( 'NONE', #618 ) ;
#315 = DIRECTION ( 'NONE',  ( -0.8660254037844385966, 0.000000000000000000, -0.5000000000000001110 ) ) ;
#316 = AXIS2_PLACEMENT_3D ( 'NONE', #532, #984, #165 ) ;
#317 = CARTESIAN_POINT ( 'NONE',  ( 29.42169386448279766, 6.000000000000000000, -50.95986861802172285 ) ) ;
#318 = AXIS2_PLACEMENT_3D ( 'NONE', #685, #1050, #599 ) ;
#319 = DIRECTION ( 'NONE',  ( -0.5000000000000000000, -0.000000000000000000, 0.8660254037844387076 ) ) ;
#320 = CARTESIAN_POINT ( 'NONE',  ( 6.249999999999999112, 12.00000000000000000, 10.82531754730548634 ) ) ;
#321 = EDGE_LOOP ( 'NONE', ( #64, #492 ) ) ;
#322 = FACE_OUTER_BOUND ( 'NONE', #263, .T. ) ;
#323 = ADVANCED_FACE ( 'NONE', ( #337 ), #976, .F. ) ;
#324 = EDGE_LOOP ( 'NONE', ( #770, #215, #542, #713 ) ) ;
#325 = LINE ( 'NONE', #1066, #567 ) ;
#326 = EDGE_CURVE ( 'NONE', #121, #335, #1148, .T. ) ;
#327 = CARTESIAN_POINT ( 'NONE',  ( -12.50000000000000000, 12.00000000000000000, -7.216878364870326301 ) ) ;
#328 = DIRECTION ( 'NONE',  ( 0.7071067811865460184, 0.7071067811865490160, -1.776356839400250267E-15 ) ) ;
#329 = ORIENTED_EDGE ( 'NONE', *, *, #768, .F. ) ;
#330 = FACE_OUTER_BOUND ( 'NONE', #1188, .T. ) ;
#331 = LINE ( 'NONE', #600, #1091 ) ;
#332 = LINE ( 'NONE', #867, #928 ) ;
#333 = VECTOR ( 'NONE', #931, 1000.000000000000000 ) ;
#334 = CARTESIAN_POINT ( 'NONE',  ( -8.750000000000007105, 6.000000000000000000, 15.15544456622768621 ) ) ;
#335 = VERTEX_POINT ( 'NONE', #522 ) ;
#336 = CYLINDRICAL_SURFACE ( 'NONE', #80, 11.99999999999999822 ) ;
#337 = FACE_OUTER_BOUND ( 'NONE', #815, .T. ) ;
#338 = FACE_OUTER_BOUND ( 'NONE', #705, .T. ) ;
#339 = CIRCLE ( 'NONE', #87, 1.699999999999999734 ) ;
#340 = DIRECTION ( 'NONE',  ( 1.000000000000000000, 0.000000000000000000, 0.000000000000000000 ) ) ;
#341 = VERTEX_POINT ( 'NONE', #425 ) ;
#342 = FACE_BOUND ( 'NONE', #689, .T. ) ;
#343 = EDGE_CURVE ( 'NONE', #813, #991, #325, .T. ) ;
#344 = CARTESIAN_POINT ( 'NONE',  ( 29.42169386448279766, 6.000000000000000000, -50.95986861802170864 ) ) ;
#345 = ORIENTED_EDGE ( 'NONE', *, *, #805, .T. ) ;
#346 = DIRECTION ( 'NONE',  ( 0.000000000000000000, 0.000000000000000000, 1.000000000000000000 ) ) ;
#347 = EDGE_CURVE ( 'NONE', #26, #748, #430, .T. ) ;
#348 = EDGE_LOOP ( 'NONE', ( #626, #1005 ) ) ;
#349 = LINE ( 'NONE', #708, #712 ) ;
#350 = DIRECTION ( 'NONE',  ( -0.000000000000000000, -1.000000000000000000, -0.000000000000000000 ) ) ;
#351 = AXIS2_PLACEMENT_3D ( 'NONE', #1055, #518, #230 ) ;
#352 = VERTEX_POINT ( 'NONE', #880 ) ;
#353 = CIRCLE ( 'NONE', #639, 21.00000000000000000 ) ;
#354 = CARTESIAN_POINT ( 'NONE',  ( 11.63079628138038757, 8.696351817374425863, -17.48591558842736404 ) ) ;
#355 = ADVANCED_FACE ( 'NONE', ( #162 ), #592, .F. ) ;
#356 = LINE ( 'NONE', #450, #124 ) ;
#357 = VECTOR ( 'NONE', #886, 1000.000000000000000 ) ;
#358 = ORIENTED_EDGE ( 'NONE', *, *, #879, .T. ) ;
#359 = FACE_BOUND ( 'NONE', #1063, .T. ) ;
#360 = COORDINATED_UNIVERSAL_TIME_OFFSET ( 5, 0, .BEHIND. ) ;
#361 = CIRCLE ( 'NONE', #167, 3.000000000000001332 ) ;
#362 = EDGE_LOOP ( 'NONE', ( #921, #329, #548, #388 ) ) ;
#363 = FACE_OUTER_BOUND ( 'NONE', #798, .T. ) ;
#364 = ADVANCED_FACE ( 'NONE', ( #789 ), #135, .F. ) ;
#365 = EDGE_CURVE ( 'NONE', #978, #352, #46, .T. ) ;
#366 = EDGE_CURVE ( 'NONE', #428, #951, #529, .T. ) ;
#367 = ORIENTED_EDGE ( 'NONE', *, *, #1084, .T. ) ;
#368 = CARTESIAN_POINT ( 'NONE',  ( 8.875157129887268681, 3.615080050578788118, -19.03308249249679207 ) ) ;
#369 = APPLICATION_PROTOCOL_DEFINITION ( 'international standard', 'config_control_design', 1994, #180 ) ;
#370 = EDGE_LOOP ( 'NONE', ( #147, #743, #1012, #759, #856, #1160 ) ) ;
#371 = DIRECTION ( 'NONE',  ( -0.7071067811865489050, 0.7071067811865462405, -0.000000000000000000 ) ) ;
#372 = DIRECTION ( 'NONE',  ( 0.000000000000000000, 0.000000000000000000, 1.000000000000000000 ) ) ;
#373 = ORIENTED_EDGE ( 'NONE', *, *, #36, .T. ) ;
#374 = ORIENTED_EDGE ( 'NONE', *, *, #761, .F. ) ;
#375 = CARTESIAN_POINT ( 'NONE',  ( 8.078187897726122557, 7.330081009303107464, -19.38423693635440159 ) ) ;
#376 = VECTOR ( 'NONE', #313, 1000.000000000000114 ) ;
#377 = ORIENTED_EDGE ( 'NONE', *, *, #28, .T. ) ;
#378 = CARTESIAN_POINT ( 'NONE',  ( -12.97491038504660565, 5.606387363444136795, 16.51221329733698440 ) ) ;
#379 = B_SPLINE_CURVE_WITH_KNOTS ( 'NONE', 3,
 ( #642, #1010, #378, #630, #734, #1108, #7, #836, #305, #744, #14, #934, #665, #1029, #649, #754, #671, #1035, #1133, #1122, #1040, #389, #584, #296, #829, #655, #758, #405, #1128, #661, #211, #384, #216, #204 ),
 .UNSPECIFIED., .F., .F.,
 ( 4, 2, 2, 2, 2, 2, 2, 2, 2, 2, 2, 2, 2, 2, 2, 2, 4 ),
 ( 0.000000000000000000, 0.0005869608086460180712, 0.001173921617292036142, 0.001760882425938054214, 0.002347843234584072285, 0.002934804043230090573, 0.003521764851876108427, 0.004108725660522126281, 0.004695686469168144569, 0.005282647277814162858, 0.005869608086460181146, 0.006456568895106198566, 0.007043529703752216854, 0.007630490512398235142, 0.008217451321044252563, 0.008804412129690271718, 0.009391372938336289139 ),
 .UNSPECIFIED. ) ;
#380 = ORIENTED_EDGE ( 'NONE', *, *, #945, .T. ) ;
#381 = ORIENTED_EDGE ( 'NONE', *, *, #961, .T. ) ;
#382 = LINE ( 'NONE', #1033, #843 ) ;
#383 = AXIS2_PLACEMENT_3D ( 'NONE', #173, #1183, #372 ) ;
#384 = CARTESIAN_POINT ( 'NONE',  ( -7.812668684790283535, 5.605045566997054252, 19.49265797790094723 ) ) ;
#385 = DIRECTION ( 'NONE',  ( -0.5000000000000000000, -0.000000000000000000, 0.8660254037844387076 ) ) ;
#386 = DIRECTION ( 'NONE',  ( -0.8660254037844387076, 0.000000000000000000, 0.4999999999999998890 ) ) ;
#387 = ORIENTED_EDGE ( 'NONE', *, *, #709, .T. ) ;
#388 = ORIENTED_EDGE ( 'NONE', *, *, #74, .T. ) ;
#389 = CARTESIAN_POINT ( 'NONE',  ( -9.327901645772167072, 3.303522657853801281, 18.81550930232277707 ) ) ;
#390 = CARTESIAN_POINT ( 'NONE',  ( 12.49999999999999645, 12.00000000000000000, 0.000000000000000000 ) ) ;
#391 = DIRECTION ( 'NONE',  ( 0.7071067811865489050, -0.7071067811865462405, 0.000000000000000000 ) ) ;
#392 = ORIENTED_EDGE ( 'NONE', *, *, #366, .F. ) ;
#393 = CIRCLE ( 'NONE', #1062, 1.699999999999999734 ) ;
#394 = DIRECTION ( 'NONE',  ( 0.5000000000000001110, -0.000000000000000000, -0.8660254037844385966 ) ) ;
#395 = CIRCLE ( 'NONE', #964, 4.000000000000005329 ) ;
#396 = CARTESIAN_POINT ( 'NONE',  ( 12.97491640868333107, 5.605439660399024859, -16.51220994343430704 ) ) ;
#397 = CARTESIAN_POINT ( 'NONE',  ( 61.51471862576141802, 24.78528137423853650, 0.000000000000000000 ) ) ;
#398 = CARTESIAN_POINT ( 'NONE',  ( -12.04320424392327915, 8.387137856892891818, 17.20430196410243795 ) ) ;
#399 = AXIS2_PLACEMENT_3D ( 'NONE', #774, #1152, #779 ) ;
#400 = ORIENTED_EDGE ( 'NONE', *, *, #981, .T. ) ;
#401 = EDGE_CURVE ( 'NONE', #895, #877, #249, .T. ) ;
#402 = CARTESIAN_POINT ( 'NONE',  ( 12.91325331773779261, 5.217787345173414693, -16.56047770386786055 ) ) ;
#403 = DIRECTION ( 'NONE',  ( 0.7071067811865489050, -0.7071067811865462405, 0.000000000000000000 ) ) ;
#404 = ORIENTED_EDGE ( 'NONE', *, *, #486, .F. ) ;
#405 = CARTESIAN_POINT ( 'NONE',  ( -8.165681795455284941, 4.494378271502825761, 19.34770278842688640 ) ) ;
#406 = CARTESIAN_POINT ( 'NONE',  ( 11.32586831807885197, 3.152997366144219438, -17.68495851993584012 ) ) ;
#407 = DIRECTION ( 'NONE',  ( -0.7071067811865487940, 0.7071067811865462405, -0.000000000000000000 ) ) ;
#408 = EDGE_LOOP ( 'NONE', ( #217, #1041, #210, #377 ) ) ;
#409 = DIRECTION ( 'NONE',  ( 0.7071067811865459074, 0.7071067811865493491, 0.000000000000000000 ) ) ;
#410 = AXIS2_PLACEMENT_3D ( 'NONE', #1146, #219, #223 ) ;
#411 = AXIS2_PLACEMENT_3D ( 'NONE', #967, #145, #695 ) ;
#412 = CARTESIAN_POINT ( 'NONE',  ( 2.571758278209441661E-15, 12.00000000000000000, 21.00000000000000000 ) ) ;
#413 = DIRECTION ( 'NONE',  ( -0.8660254037844385966, 0.000000000000000000, -0.5000000000000001110 ) ) ;
#414 = ADVANCED_FACE ( 'NONE', ( #66 ), #796, .F. ) ;
#415 = ORIENTED_EDGE ( 'NONE', *, *, #981, .F. ) ;
#416 = DIRECTION ( 'NONE',  ( 0.7071067811865459074, 0.7071067811865493491, 0.000000000000000000 ) ) ;
#417 = CC_DESIGN_PERSON_AND_ORGANIZATION_ASSIGNMENT ( #460, #715, ( #587 ) ) ;
#418 = DIRECTION ( 'NONE',  ( -0.8660254037844385966, 0.000000000000000000, -0.5000000000000000000 ) ) ;
#419 = VECTOR ( 'NONE', #350, 1000.000000000000000 ) ;
#420 = DIRECTION ( 'NONE',  ( 0.7071067811865467956, 0.7071067811865484609, 0.000000000000000000 ) ) ;
#421 = AXIS2_PLACEMENT_3D ( 'NONE', #112, #195, #482 ) ;
#422 = CARTESIAN_POINT ( 'NONE',  ( 11.34807621135331424, 6.000000000000000000, -13.65544456622768266 ) ) ;
#423 = EDGE_LOOP ( 'NONE', ( #400, #576, #1176, #519, #451 ) ) ;
#424 = LINE ( 'NONE', #591, #1047 ) ;
#425 = CARTESIAN_POINT ( 'NONE',  ( 0.000000000000000000, 0.000000000000000000, -21.00000000000000000 ) ) ;
#426 = PLANE ( 'NONE',  #751 ) ;
#427 = CARTESIAN_POINT ( 'NONE',  ( 0.000000000000000000, 0.000000000000000000, 0.000000000000000000 ) ) ;
#428 = VERTEX_POINT ( 'NONE', #1142 ) ;
#429 = FACE_OUTER_BOUND ( 'NONE', #81, .T. ) ;
#430 = LINE ( 'NONE', #243, #144 ) ;
#431 = CC_DESIGN_APPROVAL ( #1166, ( #587 ) ) ;
#432 = CARTESIAN_POINT ( 'NONE',  ( -14.34326673973661315, 6.000000000000000000, 24.84326673973660959 ) ) ;
#433 = DIRECTION ( 'NONE',  ( -1.000000000000000000, 0.000000000000000000, 3.713475330837201018E-16 ) ) ;
#434 = ORIENTED_EDGE ( 'NONE', *, *, #945, .F. ) ;
#435 = CARTESIAN_POINT ( 'NONE',  ( -6.250000000000005329, 6.000000000000000000, 10.82531754730549345 ) ) ;
#436 = DIRECTION ( 'NONE',  ( 0.8660254037844385966, 0.000000000000000000, 0.5000000000000001110 ) ) ;
#437 = ORIENTED_EDGE ( 'NONE', *, *, #1096, .T. ) ;
#438 = FACE_OUTER_BOUND ( 'NONE', #497, .T. ) ;
#439 = VECTOR ( 'NONE', #394, 1000.000000000000000 ) ;
#440 = ADVANCED_FACE ( 'NONE', ( #504 ), #1151, .F. ) ;
#441 = ORIENTED_EDGE ( 'NONE', *, *, #656, .F. ) ;
#442 = CALENDAR_DATE ( 2026, 3, 6 ) ;
#443 = ORIENTED_EDGE ( 'NONE', *, *, #199, .T. ) ;
#444 = DIRECTION ( 'NONE',  ( 0.000000000000000000, 0.000000000000000000, -1.000000000000000000 ) ) ;
#445 = PRODUCT_DEFINITION_SHAPE ( 'NONE', 'NONE',  #587 ) ;
#446 = DIRECTION ( 'NONE',  ( 0.7071067811865463515, 0.7071067811865486830, 0.000000000000000000 ) ) ;
#447 = ORIENTED_EDGE ( 'NONE', *, *, #401, .F. ) ;
#448 = PERSON_AND_ORGANIZATION ( #922, #39 ) ;
#449 = CARTESIAN_POINT ( 'NONE',  ( 12.99038105676657473, 6.198490695575090470, -16.50000000000000000 ) ) ;
#450 = CARTESIAN_POINT ( 'NONE',  ( -4.456170397004632741E-15, 12.00000000000000000, -11.99999999999997691 ) ) ;
#451 = ORIENTED_EDGE ( 'NONE', *, *, #271, .T. ) ;
#452 = VECTOR ( 'NONE', #371, 1000.000000000000000 ) ;
#453 = CARTESIAN_POINT ( 'NONE',  ( -6.249999999999999112, 12.00000000000000000, -10.82531754730548634 ) ) ;
#454 = ADVANCED_FACE ( 'NONE', ( #363, #82 ), #995, .T. ) ;
#455 = LINE ( 'NONE', #818, #624 ) ;
#456 = EDGE_CURVE ( 'NONE', #341, #314, #679, .T. ) ;
#457 = VECTOR ( 'NONE', #566, 1000.000000000000114 ) ;
#458 = VERTEX_POINT ( 'NONE', #1016 ) ;
#459 = CARTESIAN_POINT ( 'NONE',  ( 7.794228634059941818, 6.000000000000000000, -19.50000000000000711 ) ) ;
#460 = PERSON_AND_ORGANIZATION ( #922, #39 ) ;
#461 = CARTESIAN_POINT ( 'NONE',  ( 9.327901645772156414, 8.696477342146193834, -18.81550930232278773 ) ) ;
#462 = LINE ( 'NONE', #902, #419 ) ;
#463 = EDGE_LOOP ( 'NONE', ( #835, #140 ) ) ;
#464 = CARTESIAN_POINT ( 'NONE',  ( 12.74766905364830549, 7.331304504105569109, -16.68840051946753889 ) ) ;
#465 = EDGE_LOOP ( 'NONE', ( #1154, #300 ) ) ;
#466 = CARTESIAN_POINT ( 'NONE',  ( 64.34314575050760254, 27.61370849898473523, 0.000000000000000000 ) ) ;
#467 = PLANE ( 'NONE',  #1182 ) ;
#468 = ORIENTED_EDGE ( 'NONE', *, *, #94, .T. ) ;
#469 = CARTESIAN_POINT ( 'NONE',  ( -9.818370931625521436, 8.903624279971930733, 18.56438509930656267 ) ) ;
#470 = UNCERTAINTY_MEASURE_WITH_UNIT (LENGTH_MEASURE( 1.000000000000000082E-05 ), #543, 'distance_accuracy_value', 'NONE');
#471 = EDGE_CURVE ( 'NONE', #458, #159, #462, .T. ) ;
#472 = CARTESIAN_POINT ( 'NONE',  ( 6.250000000000000888, 12.00000000000000000, -10.82531754730548812 ) ) ;
#473 = AXIS2_PLACEMENT_3D ( 'NONE', #797, #40, #859 ) ;
#474 = CARTESIAN_POINT ( 'NONE',  ( 12.49999999999999645, 0.000000000000000000, 0.000000000000000000 ) ) ;
#475 = VECTOR ( 'NONE', #242, 1000.000000000000000 ) ;
#476 = ORIENTED_EDGE ( 'NONE', *, *, #1076, .F. ) ;
#477 = CARTESIAN_POINT ( 'NONE',  ( -12.97491640868334173, 6.394560339600975141, 16.51220994343430704 ) ) ;
#478 = CIRCLE ( 'NONE', #262, 1.699999999999999734 ) ;
#479 = CARTESIAN_POINT ( 'NONE',  ( -6.250000000000005329, 6.000000000000000000, 10.82531754730549345 ) ) ;
#480 = LINE ( 'NONE', #1126, #790 ) ;
#481 = CARTESIAN_POINT ( 'NONE',  ( -7.794228634059951588, 6.000000000000000000, 19.50000000000000000 ) ) ;
#482 = DIRECTION ( 'NONE',  ( 0.000000000000000000, 0.000000000000000000, 1.000000000000000000 ) ) ;
#483 = PLANE ( 'NONE',  #487 ) ;
#484 = VERTEX_POINT ( 'NONE', #466 ) ;
#485 = CARTESIAN_POINT ( 'NONE',  ( -10.32652509783582673, 8.999866359328631660, 18.28666721594658284 ) ) ;
#486 = EDGE_CURVE ( 'NONE', #748, #1134, #361, .T. ) ;
#487 = AXIS2_PLACEMENT_3D ( 'NONE', #12, #1038, #489 ) ;
#488 = VERTEX_POINT ( 'NONE', #908 ) ;
#489 = DIRECTION ( 'NONE',  ( -1.201851678989727077E-16, 0.000000000000000000, -1.000000000000000000 ) ) ;
#490 = ORIENTED_EDGE ( 'NONE', *, *, #894, .F. ) ;
#491 = CARTESIAN_POINT ( 'NONE',  ( -12.49553985762191921, 7.833942596368660638, 16.87820271350033252 ) ) ;
#492 = ORIENTED_EDGE ( 'NONE', *, *, #42, .T. ) ;
#493 = DIRECTION ( 'NONE',  ( 0.000000000000000000, 0.000000000000000000, 1.000000000000000000 ) ) ;
#494 = FACE_OUTER_BOUND ( 'NONE', #1099, .T. ) ;
#495 = ORIENTED_EDGE ( 'NONE', *, *, #700, .F. ) ;
#496 = CARTESIAN_POINT ( 'NONE',  ( 72.82842712474618452, 19.12842712474616746, -12.00000000000000533 ) ) ;
#497 = EDGE_LOOP ( 'NONE', ( #963, #373, #501, #282 ) ) ;
#498 = CARTESIAN_POINT ( 'NONE',  ( 17.23368793961408585, 0.000000000000000000, 12.00000000000000355 ) ) ;
#499 = EDGE_CURVE ( 'NONE', #949, #911, #546, .T. ) ;
#500 = PLANE ( 'NONE',  #411 ) ;
#501 = ORIENTED_EDGE ( 'NONE', *, *, #805, .F. ) ;
#502 = CARTESIAN_POINT ( 'NONE',  ( -12.99038105676658894, 6.198442311631746193, 16.50000000000000000 ) ) ;
#503 = CIRCLE ( 'NONE', #97, 4.000000000000010658 ) ;
#504 = FACE_OUTER_BOUND ( 'NONE', #123, .T. ) ;
#505 = VECTOR ( 'NONE', #120, 999.9999999999998863 ) ;
#506 = DIRECTION ( 'NONE',  ( -0.8660254037844385966, 0.000000000000000000, -0.5000000000000000000 ) ) ;
#507 = DIRECTION ( 'NONE',  ( 0.000000000000000000, 1.000000000000000000, -0.000000000000000000 ) ) ;
#508 = ORIENTED_EDGE ( 'NONE', *, *, #1096, .F. ) ;
#509 = CARTESIAN_POINT ( 'NONE',  ( 72.82842712474615610, 36.09898987322331720, 3.469446951953614189E-15 ) ) ;
#510 = AXIS2_PLACEMENT_3D ( 'NONE', #1068, #966, #881 ) ;
#511 = CARTESIAN_POINT ( 'NONE',  ( -1.734723475976807094E-15, 12.00000000000000000, 14.43375672974064905 ) ) ;
#512 = DIRECTION ( 'NONE',  ( -0.8660254037844385966, 0.000000000000000000, -0.5000000000000001110 ) ) ;
#513 = CARTESIAN_POINT ( 'NONE',  ( 0.000000000000000000, 12.00000000000000000, 12.00000000000000355 ) ) ;
#514 = VERTEX_POINT ( 'NONE', #1086 ) ;
#515 = CARTESIAN_POINT ( 'NONE',  ( 0.000000000000000000, 12.00000000000000000, 0.000000000000000000 ) ) ;
#516 = DIRECTION ( 'NONE',  ( 0.5000000000000001110, -0.000000000000000000, -0.8660254037844385966 ) ) ;
#517 = CYLINDRICAL_SURFACE ( 'NONE', #510, 1.699999999999999734 ) ;
#518 = DIRECTION ( 'NONE',  ( 0.5000000000000000000, -0.000000000000000000, -0.8660254037844385966 ) ) ;
#519 = ORIENTED_EDGE ( 'NONE', *, *, #94, .F. ) ;
#520 = DIRECTION ( 'NONE',  ( 0.7071067811865489050, -0.7071067811865462405, 0.000000000000000000 ) ) ;
#521 = EDGE_CURVE ( 'NONE', #949, #1173, #69, .T. ) ;
#522 = CARTESIAN_POINT ( 'NONE',  ( 4.777756813566455207, 6.000000000000000000, -11.67531754730547888 ) ) ;
#523 = CARTESIAN_POINT ( 'NONE',  ( 12.99038105676657295, 6.000000000000000000, -16.50000000000000000 ) ) ;
#524 = DATE_AND_TIME ( #816, #711 ) ;
#525 = ORIENTED_EDGE ( 'NONE', *, *, #471, .T. ) ;
#526 = CARTESIAN_POINT ( 'NONE',  ( -7.722243186433551010, 6.000000000000000000, 9.975317547305492027 ) ) ;
#527 = DIRECTION ( 'NONE',  ( 0.7071067811865489050, -0.7071067811865461294, -0.000000000000000000 ) ) ;
#528 = EDGE_CURVE ( 'NONE', #702, #887, #569, .T. ) ;
#529 = CIRCLE ( 'NONE', #8, 11.99999999999999822 ) ;
#530 = CIRCLE ( 'NONE', #1110, 4.000000000000010658 ) ;
#531 = ORIENTED_EDGE ( 'NONE', *, *, #1129, .F. ) ;
#532 = CARTESIAN_POINT ( 'NONE',  ( -8.750000000000007105, 6.000000000000000000, 15.15544456622768621 ) ) ;
#533 = CARTESIAN_POINT ( 'NONE',  ( 10.33127185582502428, 9.000072604019027978, -18.28396069548881542 ) ) ;
#534 = FACE_BOUND ( 'NONE', #370, .T. ) ;
#535 = EDGE_LOOP ( 'NONE', ( #684, #1097 ) ) ;
#536 = EDGE_CURVE ( 'NONE', #1173, #891, #455, .T. ) ;
#537 = CARTESIAN_POINT ( 'NONE',  ( -8.750000000000007105, 6.000000000000000000, 15.15544456622768621 ) ) ;
#538 = ADVANCED_FACE ( 'NONE', ( #534, #728 ), #270, .T. ) ;
#539 = APPROVAL ( #1098, 'UNSPECIFIED' ) ;
#540 = DIRECTION ( 'NONE',  ( -0.000000000000000000, -1.000000000000000000, -0.000000000000000000 ) ) ;
#541 = CIRCLE ( 'NONE', #651, 3.000000000000000444 ) ;
#542 = ORIENTED_EDGE ( 'NONE', *, *, #260, .F. ) ;
#543 =( LENGTH_UNIT ( ) NAMED_UNIT ( * ) SI_UNIT ( .MILLI., .METRE. ) );
#544 = VECTOR ( 'NONE', #148, 1000.000000000000000 ) ;
#545 = CARTESIAN_POINT ( 'NONE',  ( 12.49822733008705988, 7.829466150483958664, -16.87620622000686765 ) ) ;
#546 = LINE ( 'NONE', #1100, #284 ) ;
#547 = VECTOR ( 'NONE', #150, 1000.000000000000000 ) ;
#548 = ORIENTED_EDGE ( 'NONE', *, *, #1113, .T. ) ;
#549 = CARTESIAN_POINT ( 'NONE',  ( 7.812066070394585893, 5.609270016900032907, -19.49289962232768758 ) ) ;
#550 =( NAMED_UNIT ( * ) PLANE_ANGLE_UNIT ( ) SI_UNIT ( $, .RADIAN. ) );
#551 = DIRECTION ( 'NONE',  ( -0.4999999999999997780, -0.000000000000000000, 0.8660254037844387076 ) ) ;
#552 = DIRECTION ( 'NONE',  ( 0.000000000000000000, 1.000000000000000000, -0.000000000000000000 ) ) ;
#553 = ORIENTED_EDGE ( 'NONE', *, *, #778, .F. ) ;
#554 = ORIENTED_EDGE ( 'NONE', *, *, #1181, .T. ) ;
#555 = CARTESIAN_POINT ( 'NONE',  ( 70.00000000000000000, 16.29999999999998295, 0.000000000000000000 ) ) ;
#556 = ORIENTED_EDGE ( 'NONE', *, *, #74, .F. ) ;
#557 = DIRECTION ( 'NONE',  ( 0.7071067811865457964, 0.7071067811865492381, 0.000000000000000000 ) ) ;
#558 = EDGE_CURVE ( 'NONE', #335, #121, #1145, .T. ) ;
#559 = CARTESIAN_POINT ( 'NONE',  ( 12.49553985762190855, 4.166057403631337586, -16.87820271350033607 ) ) ;
#560 = AXIS2_PLACEMENT_3D ( 'NONE', #905, #346, #340 ) ;
#561 = CARTESIAN_POINT ( 'NONE',  ( 53.70000000000006679, 0.000000000000000000, 12.00000000000000355 ) ) ;
#562 = VECTOR ( 'NONE', #444, 1000.000000000000000 ) ;
#563 = ORIENTED_EDGE ( 'NONE', *, *, #290, .F. ) ;
#564 = CARTESIAN_POINT ( 'NONE',  ( -8.077533501419425832, 7.328490499041788730, 19.38450779310182526 ) ) ;
#565 = ADVANCED_FACE ( 'NONE', ( #1002, #802 ), #621, .F. ) ;
#566 = DIRECTION ( 'NONE',  ( -0.4999999999999999445, -0.000000000000000000, 0.8660254037844385966 ) ) ;
#567 = VECTOR ( 'NONE', #687, 1000.000000000000114 ) ;
#568 = FACE_BOUND ( 'NONE', #465, .T. ) ;
#569 = CIRCLE ( 'NONE', #49, 11.99999999999999645 ) ;
#570 = ORIENTED_EDGE ( 'NONE', *, *, #521, .F. ) ;
#571 = CARTESIAN_POINT ( 'NONE',  ( -7.794228634059951588, 6.195875495598002658, 19.50000000000000711 ) ) ;
#572 = PLANE ( 'NONE',  #104 ) ;
#573 = ADVANCED_FACE ( 'NONE', ( #646 ), #179, .F. ) ;
#574 = CARTESIAN_POINT ( 'NONE',  ( 75.65685424949236904, 21.95685424949236975, 0.000000000000000000 ) ) ;
#575 = EDGE_CURVE ( 'NONE', #732, #251, #356, .T. ) ;
#576 = ORIENTED_EDGE ( 'NONE', *, *, #260, .T. ) ;
#577 = CC_DESIGN_PERSON_AND_ORGANIZATION_ASSIGNMENT ( #68, #91, ( #158 ) ) ;
#578 = CARTESIAN_POINT ( 'NONE',  ( -12.39493160365157109, 7.984716327816258286, 16.95243260599973567 ) ) ;
#579 = CARTESIAN_POINT ( 'NONE',  ( 30.89393705091634246, 6.000000000000000000, -50.10986861802170722 ) ) ;
#580 = CARTESIAN_POINT ( 'NONE',  ( 60.70154582739692017, 14.28474567361830516, 9.797174393178821713E-16 ) ) ;
#581 = CIRCLE ( 'NONE', #410, 8.000000000000000000 ) ;
#582 = CARTESIAN_POINT ( 'NONE',  ( -8.366900490381954825, 7.830682127411455085, 19.26154515536508782 ) ) ;
#583 = LINE ( 'NONE', #239, #277 ) ;
#584 = CARTESIAN_POINT ( 'NONE',  ( -9.170073282276046456, 3.397397296944217437, 18.89275764822649251 ) ) ;
#585 = AXIS2_PLACEMENT_3D ( 'NONE', #1093, #1104, #267 ) ;
#586 = EDGE_LOOP ( 'NONE', ( #1111, #51, #654, #89 ) ) ;
#587 = PRODUCT_DEFINITION ( 'UNKNOWN', '', #158, #1109 ) ;
#588 = FACE_OUTER_BOUND ( 'NONE', #102, .T. ) ;
#589 = CARTESIAN_POINT ( 'NONE',  ( 64.34314575050760254, 27.61370849898473523, 3.469446951953614189E-15 ) ) ;
#590 = VERTEX_POINT ( 'NONE', #814 ) ;
#591 = CARTESIAN_POINT ( 'NONE',  ( 72.82842712474615610, 36.09898987322331720, 3.469446951953614189E-15 ) ) ;
#592 = CYLINDRICAL_SURFACE ( 'NONE', #48, 3.000000000000002665 ) ;
#593 = EDGE_CURVE ( 'NONE', #488, #1190, #379, .T. ) ;
#594 = APPLICATION_CONTEXT ( 'configuration controlled 3d designs of mechanical parts and assemblies' ) ;
#595 = DIRECTION ( 'NONE',  ( 0.5000000000000001110, -0.000000000000000000, -0.8660254037844384856 ) ) ;
#596 = CARTESIAN_POINT ( 'NONE',  ( -12.49999999999999822, 12.00000000000000000, 1.502314598737158637E-15 ) ) ;
#597 = EDGE_CURVE ( 'NONE', #488, #826, #18, .T. ) ;
#598 = ORIENTED_EDGE ( 'NONE', *, *, #11, .T. ) ;
#599 = DIRECTION ( 'NONE',  ( 0.7071067811865462405, 0.7071067811865489050, 0.000000000000000000 ) ) ;
#600 = CARTESIAN_POINT ( 'NONE',  ( -12.49999999999999822, 12.00000000000000000, 7.216878364870324525 ) ) ;
#601 = CARTESIAN_POINT ( 'NONE',  ( 27.94945067804924932, 6.000000000000000000, -51.80986861802171006 ) ) ;
#602 = CARTESIAN_POINT ( 'NONE',  ( 12.49999999999999645, 12.00000000000000000, -7.216878364870331630 ) ) ;
#603 = VERTEX_POINT ( 'NONE', #1118 ) ;
#604 = LINE ( 'NONE', #690, #544 ) ;
#605 = VECTOR ( 'NONE', #72, 1000.000000000000000 ) ;
#606 = DIRECTION ( 'NONE',  ( -0.4999999999999999445, -0.000000000000000000, 0.8660254037844385966 ) ) ;
#607 = LINE ( 'NONE', #61, #874 ) ;
#608 = EDGE_CURVE ( 'NONE', #1190, #488, #915, .T. ) ;
#609 = ORIENTED_EDGE ( 'NONE', *, *, #990, .T. ) ;
#610 = DIRECTION ( 'NONE',  ( 0.000000000000000000, 0.000000000000000000, -1.000000000000000000 ) ) ;
#611 = EDGE_CURVE ( 'NONE', #603, #1138, #1031, .T. ) ;
#612 = CARTESIAN_POINT ( 'NONE',  ( 12.49999999999999645, 12.00000000000000000, -7.216878364870331630 ) ) ;
#613 = DIRECTION ( 'NONE',  ( 0.5000000000000001110, 0.000000000000000000, -0.8660254037844385966 ) ) ;
#614 = MECHANICAL_CONTEXT ( 'NONE', #180, 'mechanical' ) ;
#615 = ORIENTED_EDGE ( 'NONE', *, *, #731, .T. ) ;
#616 = DIRECTION ( 'NONE',  ( 0.000000000000000000, 0.000000000000000000, 1.000000000000000000 ) ) ;
#617 = ADVANCED_FACE ( 'NONE', ( #322 ), #232, .F. ) ;
#618 = CARTESIAN_POINT ( 'NONE',  ( 2.571758278209441661E-15, 0.000000000000000000, 21.00000000000000000 ) ) ;
#619 = VERTEX_POINT ( 'NONE', #871 ) ;
#620 = CARTESIAN_POINT ( 'NONE',  ( 10.83801969130769116, 8.980841682846948615, -17.98818723592029301 ) ) ;
#621 = PLANE ( 'NONE',  #947 ) ;
#622 = CIRCLE ( 'NONE', #399, 11.99999999999999822 ) ;
#623 = ADVANCED_FACE ( 'NONE', ( #342, #764 ), #771, .T. ) ;
#624 = VECTOR ( 'NONE', #1194, 1000.000000000000000 ) ;
#625 = ADVANCED_FACE ( 'NONE', ( #330 ), #1078, .T. ) ;
#626 = ORIENTED_EDGE ( 'NONE', *, *, #307, .F. ) ;
#627 = VERTEX_POINT ( 'NONE', #950 ) ;
#628 = PERSON_AND_ORGANIZATION ( #922, #39 ) ;
#629 = CARTESIAN_POINT ( 'NONE',  ( 8.366767561736155656, 7.830325063700534827, -19.26159814090749833 ) ) ;
#630 = CARTESIAN_POINT ( 'NONE',  ( -12.91417162681082509, 5.222589489481268998, 16.55976022380808743 ) ) ;
#631 = VERTEX_POINT ( 'NONE', #975 ) ;
#632 = PERSON_AND_ORGANIZATION_ROLE ( 'creator' ) ;
#633 = CARTESIAN_POINT ( 'NONE',  ( 12.91417162681081976, 6.777410510518732778, -16.55976022380809454 ) ) ;
#634 = EDGE_LOOP ( 'NONE', ( #25, #190, #1105, #90 ) ) ;
#635 = DIRECTION ( 'NONE',  ( 0.7071067811865489050, -0.7071067811865462405, 0.000000000000000000 ) ) ;
#636 = ORIENTED_EDGE ( 'NONE', *, *, #558, .F. ) ;
#637 = CARTESIAN_POINT ( 'NONE',  ( 9.649488693308356346, 3.154204777416546701, -18.65262620486148748 ) ) ;
#638 = APPROVAL_ROLE ( '' ) ;
#639 = AXIS2_PLACEMENT_3D ( 'NONE', #727, #184, #993 ) ;
#640 = CARTESIAN_POINT ( 'NONE',  ( 9.818691042300711658, 8.903769024975943580, -18.56422326268473100 ) ) ;
#641 = ORIENTED_EDGE ( 'NONE', *, *, #98, .F. ) ;
#642 = CARTESIAN_POINT ( 'NONE',  ( -12.99038105676658361, 6.000000000000000000, 16.49999999999999289 ) ) ;
#643 = ORIENTED_EDGE ( 'NONE', *, *, #486, .T. ) ;
#644 = DIRECTION ( 'NONE',  ( 0.7071067811865487940, -0.7071067811865462405, 1.110223024625156047E-16 ) ) ;
#645 = EDGE_CURVE ( 'NONE', #627, #288, #225, .T. ) ;
#646 = FACE_OUTER_BOUND ( 'NONE', #1082, .T. ) ;
#647 = DIRECTION ( 'NONE',  ( -0.5000000000000000000, 0.000000000000000000, 0.8660254037844385966 ) ) ;
#648 = CARTESIAN_POINT ( 'NONE',  ( 72.82842712474618452, 19.12842712474617457, 12.00000000000000355 ) ) ;
#649 = CARTESIAN_POINT ( 'NONE',  ( -11.16812293577469362, 3.096265654718588056, 17.78512246106621220 ) ) ;
#650 = CARTESIAN_POINT ( 'NONE',  ( 10.83750846058659256, 3.019202808046121955, -17.98847616410494865 ) ) ;
#651 = AXIS2_PLACEMENT_3D ( 'NONE', #308, #62, #1158 ) ;
#652 = CARTESIAN_POINT ( 'NONE',  ( 18.36471862576154734, -18.36471862576147984, 0.000000000000000000 ) ) ;
#653 = CIRCLE ( 'NONE', #825, 8.000000000000000000 ) ;
#654 = ORIENTED_EDGE ( 'NONE', *, *, #645, .T. ) ;
#655 = CARTESIAN_POINT ( 'NONE',  ( -8.481071293197672389, 4.018393440417183271, 19.21174612211841293 ) ) ;
#656 = EDGE_CURVE ( 'NONE', #603, #341, #1161, .T. ) ;
#657 = CARTESIAN_POINT ( 'NONE',  ( 12.04320424392327382, 3.612862143107106405, -17.20430196410244150 ) ) ;
#658 = EDGE_CURVE ( 'NONE', #887, #73, #129, .T. ) ;
#659 = AXIS2_PLACEMENT_3D ( 'NONE', #229, #319, #1143 ) ;
#660 = LINE ( 'NONE', #299, #333 ) ;
#661 = CARTESIAN_POINT ( 'NONE',  ( -7.937852169684034287, 5.033031177322307315, 19.44212602180989080 ) ) ;
#662 = FACE_OUTER_BOUND ( 'NONE', #13, .T. ) ;
#663 = FACE_BOUND ( 'NONE', #844, .T. ) ;
#664 = EDGE_LOOP ( 'NONE', ( #1058, #1127, #415, #720, #910, #870 ) ) ;
#665 = CARTESIAN_POINT ( 'NONE',  ( -11.63079628138039645, 3.303648182625577245, 17.48591558842735694 ) ) ;
#666 = ORIENTED_EDGE ( 'NONE', *, *, #669, .F. ) ;
#667 = CARTESIAN_POINT ( 'NONE',  ( 53.70000000000006679, -1.040834085586084257E-14, 12.00000000000000355 ) ) ;
#668 = DIRECTION ( 'NONE',  ( 0.7071067811865462405, 0.7071067811865489050, 0.000000000000000000 ) ) ;
#669 = EDGE_CURVE ( 'NONE', #631, #101, #154, .T. ) ;
#670 = AXIS2_PLACEMENT_3D ( 'NONE', #513, #860, #35 ) ;
#671 = CARTESIAN_POINT ( 'NONE',  ( -10.67065888955573350, 3.000073018229258093, 18.08799147876533198 ) ) ;
#672 = EDGE_CURVE ( 'NONE', #702, #428, #424, .T. ) ;
#673 = ORIENTED_EDGE ( 'NONE', *, *, #114, .F. ) ;
#674 = CARTESIAN_POINT ( 'NONE',  ( 39.97842712474604099, 51.97842712474619020, 7.705514898356770349E-15 ) ) ;
#675 = CARTESIAN_POINT ( 'NONE',  ( -1.734723475976807094E-15, 12.00000000000000000, 14.43375672974064905 ) ) ;
#676 = AXIS2_PLACEMENT_3D ( 'NONE', #698, #873, #866 ) ;
#677 = ORIENTED_EDGE ( 'NONE', *, *, #608, .T. ) ;
#678 = DIRECTION ( 'NONE',  ( 0.000000000000000000, 0.000000000000000000, 1.000000000000000000 ) ) ;
#679 = CIRCLE ( 'NONE', #383, 21.00000000000000000 ) ;
#680 = EDGE_CURVE ( 'NONE', #730, #877, #530, .T. ) ;
#681 = CARTESIAN_POINT ( 'NONE',  ( 66.35840007688928210, 19.94159992311069374, 0.000000000000000000 ) ) ;
#682 = CYLINDRICAL_SURFACE ( 'NONE', #52, 3.000000000000002665 ) ;
#683 = CARTESIAN_POINT ( 'NONE',  ( 72.01525432638165114, 25.59845417260307698, 0.000000000000000000 ) ) ;
#684 = ORIENTED_EDGE ( 'NONE', *, *, #961, .F. ) ;
#685 = CARTESIAN_POINT ( 'NONE',  ( 66.35840007688928210, 19.94159992311069374, 0.000000000000000000 ) ) ;
#686 = ORIENTED_EDGE ( 'NONE', *, *, #98, .T. ) ;
#687 = DIRECTION ( 'NONE',  ( -0.8660254037844387076, 0.000000000000000000, 0.4999999999999998890 ) ) ;
#688 = CARTESIAN_POINT ( 'NONE',  ( 66.35840007688928210, 19.94159992311069374, 0.000000000000000000 ) ) ;
#689 = EDGE_LOOP ( 'NONE', ( #1132, #44 ) ) ;
#690 = CARTESIAN_POINT ( 'NONE',  ( -6.250000000000003553, 0.000000000000000000, 10.82531754730548634 ) ) ;
#691 = SECURITY_CLASSIFICATION ( '', '', #811 ) ;
#692 = CARTESIAN_POINT ( 'NONE',  ( 8.750000000000000000, 6.000000000000000000, -15.15544456622767377 ) ) ;
#693 = CARTESIAN_POINT ( 'NONE',  ( 66.35840007688928210, 19.94159992311069374, 0.000000000000000000 ) ) ;
#694 = EDGE_CURVE ( 'NONE', #1195, #631, #9, .T. ) ;
#695 = DIRECTION ( 'NONE',  ( 0.7071067811865462405, 0.7071067811865489050, 0.000000000000000000 ) ) ;
#696 = ORIENTED_EDGE ( 'NONE', *, *, #780, .T. ) ;
#697 = CARTESIAN_POINT ( 'NONE',  ( 64.34314575050760254, 27.61370849898473168, 3.469446951953614189E-15 ) ) ;
#698 = CARTESIAN_POINT ( 'NONE',  ( 6.250000000000001776, 6.000000000000000000, -10.82531754730548990 ) ) ;
#699 = CARTESIAN_POINT ( 'NONE',  ( -12.49999999999999822, 0.000000000000000000, 1.502314598737158637E-15 ) ) ;
#700 = EDGE_CURVE ( 'NONE', #822, #101, #297, .T. ) ;
#701 = COORDINATED_UNIVERSAL_TIME_OFFSET ( 5, 0, .BEHIND. ) ;
#702 = VERTEX_POINT ( 'NONE', #509 ) ;
#703 = DIRECTION ( 'NONE',  ( 0.7071067811865489050, -0.7071067811865462405, 0.000000000000000000 ) ) ;
#704 = DIRECTION ( 'NONE',  ( -0.5000000000000000000, -0.000000000000000000, 0.8660254037844387076 ) ) ;
#705 = EDGE_LOOP ( 'NONE', ( #490, #563, #247, #724 ) ) ;
#706 = DATE_TIME_ROLE ( 'creation_date' ) ;
#707 = EDGE_LOOP ( 'NONE', ( #441, #374, #994, #686 ) ) ;
#708 = CARTESIAN_POINT ( 'NONE',  ( 17.23368793961410006, 12.00000000000000000, -11.99999999999998401 ) ) ;
#709 = EDGE_CURVE ( 'NONE', #895, #484, #395, .T. ) ;
#710 = DIRECTION ( 'NONE',  ( 0.7071067811865489050, -0.7071067811865462405, 0.000000000000000000 ) ) ;
#711 = LOCAL_TIME ( 0, 54, 44.00000000000000000, #1089 ) ;
#712 = VECTOR ( 'NONE', #259, 1000.000000000000000 ) ;
#713 = ORIENTED_EDGE ( 'NONE', *, *, #658, .F. ) ;
#714 = CARTESIAN_POINT ( 'NONE',  ( 9.169945420738056185, 3.397448511800341464, -18.89282255850252312 ) ) ;
#715 = PERSON_AND_ORGANIZATION_ROLE ( 'creator' ) ;
#716 = CARTESIAN_POINT ( 'NONE',  ( 7.794228634059941818, 6.000000000000000000, -19.50000000000000711 ) ) ;
#717 = DIRECTION ( 'NONE',  ( -0.7071067811865487940, 0.7071067811865462405, -0.000000000000000000 ) ) ;
#718 = VECTOR ( 'NONE', #935, 999.9999999999998863 ) ;
#719 = AXIS2_PLACEMENT_3D ( 'NONE', #898, #193, #2 ) ;
#720 = ORIENTED_EDGE ( 'NONE', *, *, #365, .F. ) ;
#721 = DATE_AND_TIME ( #900, #136 ) ;
#722 = CARTESIAN_POINT ( 'NONE',  ( 9.170073282276037574, 8.602602703055781674, -18.89275764822650316 ) ) ;
#723 = CARTESIAN_POINT ( 'NONE',  ( 0.000000000000000000, 12.00000000000000000, 0.000000000000000000 ) ) ;
#724 = ORIENTED_EDGE ( 'NONE', *, *, #291, .T. ) ;
#725 = CARTESIAN_POINT ( 'NONE',  ( 8.366900490381951272, 4.169317872588540475, -19.26154515536509493 ) ) ;
#726 = CALENDAR_DATE ( 2026, 3, 6 ) ;
#727 = CARTESIAN_POINT ( 'NONE',  ( 0.000000000000000000, 12.00000000000000000, 0.000000000000000000 ) ) ;
#728 = FACE_OUTER_BOUND ( 'NONE', #1117, .T. ) ;
#729 = LOCAL_TIME ( 0, 54, 44.00000000000000000, #1075 ) ;
#730 = VERTEX_POINT ( 'NONE', #1155 ) ;
#731 = EDGE_CURVE ( 'NONE', #514, #590, #604, .T. ) ;
#732 = VERTEX_POINT ( 'NONE', #878 ) ;
#733 = DIRECTION ( 'NONE',  ( 0.4999999999999998890, -0.000000000000000000, 0.8660254037844387076 ) ) ;
#734 = CARTESIAN_POINT ( 'NONE',  ( -12.86814865161901622, 5.031905041495315700, 16.59567800601539034 ) ) ;
#735 = AXIS2_PLACEMENT_3D ( 'NONE', #280, #989, #557 ) ;
#736 = EDGE_LOOP ( 'NONE', ( #1, #1185, #358, #985 ) ) ;
#737 = VERTEX_POINT ( 'NONE', #58 ) ;
#738 = CYLINDRICAL_SURFACE ( 'NONE', #238, 21.00000000000000000 ) ;
#739 = ORIENTED_EDGE ( 'NONE', *, *, #471, .F. ) ;
#740 = CARTESIAN_POINT ( 'NONE',  ( -9.169945420738065067, 8.602551488199660312, 18.89282255850253023 ) ) ;
#741 = DIRECTION ( 'NONE',  ( 0.8660254037844385966, 0.000000000000000000, 0.5000000000000001110 ) ) ;
#742 = LINE ( 'NONE', #474, #863 ) ;
#743 = ORIENTED_EDGE ( 'NONE', *, *, #1037, .F. ) ;
#744 = CARTESIAN_POINT ( 'NONE',  ( -12.17036513313667534, 3.740078350206007762, 17.11436576203797344 ) ) ;
#745 = ADVANCED_FACE ( 'NONE', ( #429 ), #336, .T. ) ;
#746 = LINE ( 'NONE', #923, #1046 ) ;
#747 = DIRECTION ( 'NONE',  ( -0.8660254037844387076, 0.000000000000000000, -0.4999999999999998890 ) ) ;
#748 = VERTEX_POINT ( 'NONE', #794 ) ;
#749 = CARTESIAN_POINT ( 'NONE',  ( -10.66999043225023414, 9.000132291686872676, 18.08841128011792776 ) ) ;
#750 = CARTESIAN_POINT ( 'NONE',  ( 9.818370931625514331, 3.096375720028073264, -18.56438509930656267 ) ) ;
#751 = AXIS2_PLACEMENT_3D ( 'NONE', #222, #613, #782 ) ;
#752 = DIRECTION ( 'NONE',  ( -0.5000000000000001110, 0.000000000000000000, 0.8660254037844387076 ) ) ;
#753 = ORIENTED_EDGE ( 'NONE', *, *, #42, .F. ) ;
#754 = CARTESIAN_POINT ( 'NONE',  ( -10.83801969130769649, 3.019158317153056270, 17.98818723592027879 ) ) ;
#755 = PLANE ( 'NONE',  #987 ) ;
#756 = CARTESIAN_POINT ( 'NONE',  ( 64.34314575050758833, 27.61370849898472102, -11.99999999999999645 ) ) ;
#757 = ORIENTED_EDGE ( 'NONE', *, *, #709, .F. ) ;
#758 = CARTESIAN_POINT ( 'NONE',  ( -8.366767561736162762, 4.169674936299461621, 19.26159814090749123 ) ) ;
#759 = ORIENTED_EDGE ( 'NONE', *, *, #943, .F. ) ;
#760 = CARTESIAN_POINT ( 'NONE',  ( 12.67270341339567175, 4.493980309756552494, -16.74559140094901366 ) ) ;
#761 = EDGE_CURVE ( 'NONE', #732, #603, #941, .T. ) ;
#762 = CARTESIAN_POINT ( 'NONE',  ( 7.277756813566449878, 6.000000000000000000, -16.00544456622766987 ) ) ;
#763 = VERTEX_POINT ( 'NONE', #1179 ) ;
#764 = FACE_OUTER_BOUND ( 'NONE', #194, .T. ) ;
#765 = LINE ( 'NONE', #54, #605 ) ;
#766 = DIRECTION ( 'NONE',  ( -0.7071067811865460184, -0.7071067811865490160, 0.000000000000000000 ) ) ;
#767 = PLANE ( 'NONE',  #670 ) ;
#768 = EDGE_CURVE ( 'NONE', #233, #26, #278, .T. ) ;
#769 = VECTOR ( 'NONE', #55, 1000.000000000000000 ) ;
#770 = ORIENTED_EDGE ( 'NONE', *, *, #528, .F. ) ;
#771 = PLANE ( 'NONE',  #318 ) ;
#772 = VECTOR ( 'NONE', #1149, 1000.000000000000227 ) ;
#773 = DIRECTION ( 'NONE',  ( 0.8660254037844383745, 0.000000000000000000, 0.5000000000000005551 ) ) ;
#774 = CARTESIAN_POINT ( 'NONE',  ( 72.82842712474618452, 19.12842712474617457, -4.493251563443489779E-15 ) ) ;
#775 = CARTESIAN_POINT ( 'NONE',  ( 2.571758278209441661E-15, 12.00000000000000000, 21.00000000000000000 ) ) ;
#776 = ORIENTED_EDGE ( 'NONE', *, *, #694, .T. ) ;
#777 = DIRECTION ( 'NONE',  ( 0.4999999999999997780, 0.000000000000000000, -0.8660254037844387076 ) ) ;
#778 = EDGE_CURVE ( 'NONE', #951, #1020, #817, .T. ) ;
#779 = DIRECTION ( 'NONE',  ( 0.7071067811865462405, 0.7071067811865489050, 0.000000000000000000 ) ) ;
#780 = EDGE_CURVE ( 'NONE', #1138, #458, #353, .T. ) ;
#781 = APPROVAL ( #157, 'UNSPECIFIED' ) ;
#782 = DIRECTION ( 'NONE',  ( -0.8660254037844385966, 0.000000000000000000, -0.5000000000000001110 ) ) ;
#783 = DIRECTION ( 'NONE',  ( 0.7071067811865489050, -0.7071067811865462405, 0.000000000000000000 ) ) ;
#784 = MANIFOLD_SOLID_BREP ( 'Mirror1', #302 ) ;
#785 = ORIENTED_EDGE ( 'NONE', *, *, #888, .T. ) ;
#786 = DIRECTION ( 'NONE',  ( 0.8660254037844385966, 0.000000000000000000, 0.5000000000000001110 ) ) ;
#787 = PRODUCT ( 'Arm3', 'Arm3', '', ( #614 ) ) ;
#788 = AXIS2_PLACEMENT_3D ( 'NONE', #427, #507, #1137 ) ;
#789 = FACE_OUTER_BOUND ( 'NONE', #362, .T. ) ;
#790 = VECTOR ( 'NONE', #386, 1000.000000000000114 ) ;
#791 = PLANE ( 'NONE',  #473 ) ;
#792 = DATE_TIME_ROLE ( 'classification_date' ) ;
#793 = EDGE_LOOP ( 'NONE', ( #1028, #636 ) ) ;
#794 = CARTESIAN_POINT ( 'NONE',  ( 6.151923788646677771, 6.000000000000000000, -16.65544456622768621 ) ) ;
#795 = AXIS2_PLACEMENT_3D ( 'NONE', #515, #970, #1065 ) ;
#796 = CYLINDRICAL_SURFACE ( 'NONE', #848, 1.700000000000003064 ) ;
#797 = CARTESIAN_POINT ( 'NONE',  ( 6.249999999999999112, 12.00000000000000000, 10.82531754730548634 ) ) ;
#798 = EDGE_LOOP ( 'NONE', ( #279, #1039, #1141, #944 ) ) ;
#799 = DATE_AND_TIME ( #442, #729 ) ;
#800 = ORIENTED_EDGE ( 'NONE', *, *, #189, .T. ) ;
#801 = CARTESIAN_POINT ( 'NONE',  ( 10.15746060654610439, 8.980496469400076620, -18.38105201443664072 ) ) ;
#802 = FACE_BOUND ( 'NONE', #883, .T. ) ;
#803 = ORIENTED_EDGE ( 'NONE', *, *, #933, .T. ) ;
#804 = APPROVAL_STATUS ( 'not_yet_approved' ) ;
#805 = EDGE_CURVE ( 'NONE', #826, #983, #1025, .T. ) ;
#806 = CARTESIAN_POINT ( 'NONE',  ( 11.77574782938460984, 8.603325203323631598, -17.38846786695942370 ) ) ;
#807 = DIRECTION ( 'NONE',  ( 1.000000000000000000, 0.000000000000000000, -3.713475330837201018E-16 ) ) ;
#808 = CIRCLE ( 'NONE', #117, 4.000000000000005329 ) ;
#809 = AXIS2_PLACEMENT_3D ( 'NONE', #86, #812, #616 ) ;
#810 = ORIENTED_EDGE ( 'NONE', *, *, #575, .F. ) ;
#811 = SECURITY_CLASSIFICATION_LEVEL ( 'unclassified' ) ;
#812 = DIRECTION ( 'NONE',  ( 0.000000000000000000, 1.000000000000000000, -0.000000000000000000 ) ) ;
#813 = VERTEX_POINT ( 'NONE', #913 ) ;
#814 = CARTESIAN_POINT ( 'NONE',  ( -1.734723475976807094E-15, 0.000000000000000000, 14.43375672974064905 ) ) ;
#815 = EDGE_LOOP ( 'NONE', ( #3, #1009, #899, #381 ) ) ;
#816 = CALENDAR_DATE ( 2026, 3, 6 ) ;
#817 = LINE ( 'NONE', #1106, #452 ) ;
#818 = CARTESIAN_POINT ( 'NONE',  ( 72.01525432638165114, 25.59845417260308054, 0.000000000000000000 ) ) ;
#819 = ADVANCED_FACE ( 'NONE', ( #92 ), #821, .T. ) ;
#820 = ORIENTED_EDGE ( 'NONE', *, *, #401, .T. ) ;
#821 = PLANE ( 'NONE',  #22 ) ;
#822 = VERTEX_POINT ( 'NONE', #526 ) ;
#823 = CARTESIAN_POINT ( 'NONE',  ( 66.35840007688928210, 19.94159992311069374, 0.000000000000000000 ) ) ;
#824 = EDGE_CURVE ( 'NONE', #1150, #251, #892, .T. ) ;
#825 = AXIS2_PLACEMENT_3D ( 'NONE', #555, #403, #838 ) ;
#826 = VERTEX_POINT ( 'NONE', #1174 ) ;
#827 = CARTESIAN_POINT ( 'NONE',  ( 8.164277817528276415, 4.496788658552570261, -19.34830001075903283 ) ) ;
#828 = FACE_OUTER_BOUND ( 'NONE', #707, .T. ) ;
#829 = CARTESIAN_POINT ( 'NONE',  ( -8.737495540616588841, 3.738726974159139349, 19.09649001829233228 ) ) ;
#830 = AXIS2_PLACEMENT_3D ( 'NONE', #248, #252, #678 ) ;
#831 = DIRECTION ( 'NONE',  ( 0.8660254037844384856, 0.000000000000000000, 0.5000000000000002220 ) ) ;
#832 = EDGE_CURVE ( 'NONE', #732, #978, #349, .T. ) ;
#833 = FACE_OUTER_BOUND ( 'NONE', #255, .T. ) ;
#834 = ORIENTED_EDGE ( 'NONE', *, *, #597, .T. ) ;
#835 = ORIENTED_EDGE ( 'NONE', *, *, #593, .F. ) ;
#836 = CARTESIAN_POINT ( 'NONE',  ( -12.49822733008706699, 4.170533849516040448, 16.87620622000685700 ) ) ;
#837 = FACE_BOUND ( 'NONE', #793, .T. ) ;
#838 = DIRECTION ( 'NONE',  ( 0.7071067811865467956, 0.7071067811865484609, 0.000000000000000000 ) ) ;
#839 = CARTESIAN_POINT ( 'NONE',  ( -9.324887327713176077, 8.694817547099471966, 18.81700222421269331 ) ) ;
#840 = CARTESIAN_POINT ( 'NONE',  ( 10.32652509783582140, 3.000133640671369673, -18.28666721594658640 ) ) ;
#841 = CC_DESIGN_SECURITY_CLASSIFICATION ( #691, ( #158 ) ) ;
#842 = LINE ( 'NONE', #100, #118 ) ;
#843 = VECTOR ( 'NONE', #936, 1000.000000000000000 ) ;
#844 = EDGE_LOOP ( 'NONE', ( #609, #387 ) ) ;
#845 = CARTESIAN_POINT ( 'NONE',  ( -11.32586831807885730, 8.847002633855778342, 17.68495851993582590 ) ) ;
#846 = ORIENTED_EDGE ( 'NONE', *, *, #273, .T. ) ;
#847 = CARTESIAN_POINT ( 'NONE',  ( 12.39493160365156754, 4.015283672183737274, -16.95243260599974278 ) ) ;
#848 = AXIS2_PLACEMENT_3D ( 'NONE', #344, #704, #893 ) ;
#849 = LINE ( 'NONE', #1015, #235 ) ;
#850 = ORIENTED_EDGE ( 'NONE', *, *, #888, .F. ) ;
#851 = CARTESIAN_POINT ( 'NONE',  ( -7.812066070394596551, 6.390729983099964429, 19.49289962232768758 ) ) ;
#852 = ORIENTED_EDGE ( 'NONE', *, *, #528, .T. ) ;
#853 = EDGE_CURVE ( 'NONE', #1150, #1020, #986, .T. ) ;
#854 = DIRECTION ( 'NONE',  ( -0.000000000000000000, -1.000000000000000000, -0.000000000000000000 ) ) ;
#855 = CARTESIAN_POINT ( 'NONE',  ( 45.21471862576147771, 8.485281374238544672, -11.99999999999999645 ) ) ;
#856 = ORIENTED_EDGE ( 'NONE', *, *, #645, .F. ) ;
#857 = CARTESIAN_POINT ( 'NONE',  ( -12.87102355330306480, 6.000000000000000000, 25.69326673973660746 ) ) ;
#858 = ADVANCED_FACE ( 'NONE', ( #1019, #293 ), #95, .F. ) ;
#859 = DIRECTION ( 'NONE',  ( -0.8660254037844387076, 0.000000000000000000, 0.4999999999999998890 ) ) ;
#860 = DIRECTION ( 'NONE',  ( 0.000000000000000000, 0.000000000000000000, -1.000000000000000000 ) ) ;
#861 = CIRCLE ( 'NONE', #351, 1.699999999999999734 ) ;
#862 = VERTEX_POINT ( 'NONE', #561 ) ;
#863 = VECTOR ( 'NONE', #1027, 1000.000000000000000 ) ;
#864 = CARTESIAN_POINT ( 'NONE',  ( -12.99038105676658361, 6.000000000000000000, 16.49999999999999289 ) ) ;
#865 = ORIENTED_EDGE ( 'NONE', *, *, #149, .T. ) ;
#866 = DIRECTION ( 'NONE',  ( 0.8660254037844385966, 0.000000000000000000, 0.5000000000000001110 ) ) ;
#867 = CARTESIAN_POINT ( 'NONE',  ( 0.000000000000000000, 12.00000000000000000, 12.00000000000000355 ) ) ;
#868 = DIRECTION ( 'NONE',  ( 1.201851678989727077E-16, 0.000000000000000000, 1.000000000000000000 ) ) ;
#869 = ADVANCED_FACE ( 'NONE', ( #833, #663 ), #467, .F. ) ;
#870 = ORIENTED_EDGE ( 'NONE', *, *, #575, .T. ) ;
#871 = CARTESIAN_POINT ( 'NONE',  ( -12.50000000000000000, 0.000000000000000000, -7.216878364870326301 ) ) ;
#872 = AXIS2_PLACEMENT_3D ( 'NONE', #723, #540, #188 ) ;
#873 = DIRECTION ( 'NONE',  ( -0.5000000000000000000, 0.000000000000000000, 0.8660254037844385966 ) ) ;
#874 = VECTOR ( 'NONE', #595, 1000.000000000000227 ) ;
#875 = CARTESIAN_POINT ( 'NONE',  ( 48.72943725152292416, 12.00000000000000000, -11.99999999999999467 ) ) ;
#876 = LINE ( 'NONE', #855, #1024 ) ;
#877 = VERTEX_POINT ( 'NONE', #192 ) ;
#878 = CARTESIAN_POINT ( 'NONE',  ( 17.23368793961410006, 12.00000000000000000, -11.99999999999998401 ) ) ;
#879 = EDGE_CURVE ( 'NONE', #286, #1139, #660, .T. ) ;
#880 = CARTESIAN_POINT ( 'NONE',  ( 53.70000000000006679, -1.040834085586084257E-14, -11.99999999999999645 ) ) ;
#881 = DIRECTION ( 'NONE',  ( -0.8660254037844385966, 0.000000000000000000, -0.5000000000000001110 ) ) ;
#882 = CARTESIAN_POINT ( 'NONE',  ( -12.50000000000000000, 12.00000000000000000, -7.216878364870326301 ) ) ;
#883 = EDGE_LOOP ( 'NONE', ( #615, #78, #1021, #803, #380, #181 ) ) ;
#884 = DIRECTION ( 'NONE',  ( 0.7071067811865462405, 0.7071067811865489050, 0.000000000000000000 ) ) ;
#885 = LOCAL_TIME ( 0, 54, 44.00000000000000000, #360 ) ;
#886 = DIRECTION ( 'NONE',  ( 0.7071067811865489050, -0.7071067811865462405, 0.000000000000000000 ) ) ;
#887 = VERTEX_POINT ( 'NONE', #756 ) ;
#888 = EDGE_CURVE ( 'NONE', #484, #730, #382, .T. ) ;
#889 = FACE_BOUND ( 'NONE', #321, .T. ) ;
#890 = APPROVAL_ROLE ( '' ) ;
#891 = VERTEX_POINT ( 'NONE', #574 ) ;
#892 = LINE ( 'NONE', #71, #562 ) ;
#893 = DIRECTION ( 'NONE',  ( 0.8660254037844380415, 0.000000000000000000, 0.5000000000000012212 ) ) ;
#894 = EDGE_CURVE ( 'NONE', #590, #33, #113, .T. ) ;
#895 = VERTEX_POINT ( 'NONE', #283 ) ;
#896 = CARTESIAN_POINT ( 'NONE',  ( 0.000000000000000000, 0.000000000000000000, 12.00000000000000355 ) ) ;
#897 = CARTESIAN_POINT ( 'NONE',  ( 12.17036513313666646, 8.259921649793993126, -17.11436576203797699 ) ) ;
#898 = CARTESIAN_POINT ( 'NONE',  ( 6.250000000000001776, 6.000000000000000000, -10.82531754730548990 ) ) ;
#899 = ORIENTED_EDGE ( 'NONE', *, *, #536, .T. ) ;
#900 = CALENDAR_DATE ( 2026, 3, 6 ) ;
#901 = CARTESIAN_POINT ( 'NONE',  ( 11.16812293577468118, 8.903734345281412388, -17.78512246106621930 ) ) ;
#902 = CARTESIAN_POINT ( 'NONE',  ( 17.23368793961408585, 12.00000000000000000, 12.00000000000000355 ) ) ;
#903 = CIRCLE ( 'NONE', #788, 21.00000000000000000 ) ;
#904 = ORIENTED_EDGE ( 'NONE', *, *, #680, .T. ) ;
#905 = CARTESIAN_POINT ( 'NONE',  ( 0.000000000000000000, 0.000000000000000000, 0.000000000000000000 ) ) ;
#906 = CARTESIAN_POINT ( 'NONE',  ( 12.04666281880296097, 8.384012921456021061, -17.20188846120118242 ) ) ;
#907 = ADVANCED_FACE ( 'NONE', ( #209 ), #483, .T. ) ;
#908 = CARTESIAN_POINT ( 'NONE',  ( -12.99038105676658361, 6.000000000000000000, 16.49999999999999289 ) ) ;
#909 = CIRCLE ( 'NONE', #106, 3.000000000000001332 ) ;
#910 = ORIENTED_EDGE ( 'NONE', *, *, #832, .F. ) ;
#911 = VERTEX_POINT ( 'NONE', #196 ) ;
#912 = APPROVAL_DATE_TIME ( #183, #781 ) ;
#913 = CARTESIAN_POINT ( 'NONE',  ( 3.469446951953614189E-15, 12.00000000000000000, -14.43375672974064905 ) ) ;
#914 = CARTESIAN_POINT ( 'NONE',  ( 8.750000000000001776, 6.000000000000000000, -15.15544456622768266 ) ) ;
#915 = B_SPLINE_CURVE_WITH_KNOTS ( 'NONE', 3,
 ( #481, #571, #851, #111, #116, #564, #220, #582, #96, #1022, #198, #740, #839, #103, #469, #1114, #485, #749, #942, #289, #845, #122, #27, #398, #301, #578, #491, #937, #32, #309, #927, #477, #502, #864 ),
 .UNSPECIFIED., .F., .F.,
 ( 4, 2, 2, 2, 2, 2, 2, 2, 2, 2, 2, 2, 2, 2, 2, 2, 4 ),
 ( 0.009391372938336289139, 0.009978190669855042591, 0.01056500840137379604, 0.01115182613289254950, 0.01173864386441129948, 0.01232546159593005120, 0.01291227932744880291, 0.01349909705896755290, 0.01408591479048630461, 0.01467273252200505460, 0.01525955025352380458, 0.01584636798504255456, 0.01643318571656130628, 0.01702000344808005800, 0.01760682117959880277, 0.01819363891111755449, 0.01878045664263630274 ),
 .UNSPECIFIED. ) ;
#916 = ORIENTED_EDGE ( 'NONE', *, *, #672, .F. ) ;
#917 = DIRECTION ( 'NONE',  ( 0.7071067811865462405, 0.7071067811865489050, 0.000000000000000000 ) ) ;
#918 = DIRECTION ( 'NONE',  ( -0.5000000000000000000, 0.000000000000000000, 0.8660254037844385966 ) ) ;
#919 = ADVANCED_FACE ( 'NONE', ( #828, #568 ), #738, .T. ) ;
#920 = AXIS2_PLACEMENT_3D ( 'NONE', #948, #139, #433 ) ;
#921 = ORIENTED_EDGE ( 'NONE', *, *, #347, .F. ) ;
#922 = PERSON ( 'UNSPECIFIED', 'UNSPECIFIED', 'UNSPECIFIED', ('UNSPECIFIED'), ('UNSPECIFIED'), ('UNSPECIFIED') ) ;
#923 = CARTESIAN_POINT ( 'NONE',  ( -11.74519052838329713, 6.000000000000000000, 26.34326673973660959 ) ) ;
#924 = CARTESIAN_POINT ( 'NONE',  ( 45.21471862576147771, 8.485281374238544672, 12.00000000000000355 ) ) ;
#925 = ORIENTED_EDGE ( 'NONE', *, *, #28, .F. ) ;
#926 = EDGE_LOOP ( 'NONE', ( #996, #227, #643, #1049 ) ) ;
#927 = CARTESIAN_POINT ( 'NONE',  ( -12.91325331773780327, 6.782212654826582643, 16.56047770386786055 ) ) ;
#928 = VECTOR ( 'NONE', #47, 1000.000000000000000 ) ;
#929 = AXIS2_PLACEMENT_3D ( 'NONE', #1189, #710, #93 ) ;
#930 = LINE ( 'NONE', #699, #769 ) ;
#931 = DIRECTION ( 'NONE',  ( 0.8660254037844385966, 0.000000000000000000, 0.5000000000000001110 ) ) ;
#932 = CIRCLE ( 'NONE', #421, 21.00000000000000000 ) ;
#933 = EDGE_CURVE ( 'NONE', #174, #763, #842, .T. ) ;
#934 = CARTESIAN_POINT ( 'NONE',  ( -11.77574782938461340, 3.396674796676368402, 17.38846786695940949 ) ) ;
#935 = DIRECTION ( 'NONE',  ( 0.7071067811865462405, 0.7071067811865489050, 0.000000000000000000 ) ) ;
#936 = DIRECTION ( 'NONE',  ( 0.7071067811865489050, -0.7071067811865462405, 0.000000000000000000 ) ) ;
#937 = CARTESIAN_POINT ( 'NONE',  ( -12.67270341339567352, 7.506019690243442177, 16.74559140094900656 ) ) ;
#938 = ADVANCED_BREP_SHAPE_REPRESENTATION ( 'Arm3', ( #784, #560 ), #20 ) ;
#939 = LINE ( 'NONE', #208, #205 ) ;
#940 = CARTESIAN_POINT ( 'NONE',  ( 17.23368793961410006, 0.000000000000000000, -11.99999999999998401 ) ) ;
#941 = CIRCLE ( 'NONE', #809, 21.00000000000000000 ) ;
#942 = CARTESIAN_POINT ( 'NONE',  ( -10.83750846058660144, 8.980797191953881153, 17.98847616410494155 ) ) ;
#943 = EDGE_CURVE ( 'NONE', #288, #813, #109, .T. ) ;
#944 = ORIENTED_EDGE ( 'NONE', *, *, #456, .T. ) ;
#945 = EDGE_CURVE ( 'NONE', #763, #619, #480, .T. ) ;
#946 = CARTESIAN_POINT ( 'NONE',  ( 10.15588090298079216, 3.019789477366489283, -18.38191733608914902 ) ) ;
#947 = AXIS2_PLACEMENT_3D ( 'NONE', #77, #552, #1175 ) ;
#948 = CARTESIAN_POINT ( 'NONE',  ( -4.456170397004632741E-15, 12.00000000000000000, -11.99999999999997691 ) ) ;
#949 = VERTEX_POINT ( 'NONE', #580 ) ;
#950 = CARTESIAN_POINT ( 'NONE',  ( 12.49999999999999645, 12.00000000000000000, 7.216878364870328078 ) ) ;
#951 = VERTEX_POINT ( 'NONE', #648 ) ;
#952 = DIRECTION ( 'NONE',  ( 0.5000000000000001110, -0.000000000000000000, -0.8660254037844384856 ) ) ;
#953 = FACE_OUTER_BOUND ( 'NONE', #664, .T. ) ;
#954 = ORIENTED_EDGE ( 'NONE', *, *, #456, .F. ) ;
#955 = DIRECTION ( 'NONE',  ( 0.7071067811865465735, 0.7071067811865483499, 0.000000000000000000 ) ) ;
#956 = ORIENTED_EDGE ( 'NONE', *, *, #36, .F. ) ;
#957 = CARTESIAN_POINT ( 'NONE',  ( 58.68629150101522640, 21.95685424949233422, 4.898587196589422689E-16 ) ) ;
#958 = DIRECTION ( 'NONE',  ( -0.7071067811865489050, 0.7071067811865462405, 2.625823588203948295E-16 ) ) ;
#959 = EDGE_CURVE ( 'NONE', #33, #174, #742, .T. ) ;
#960 = PLANE ( 'NONE',  #920 ) ;
#961 = EDGE_CURVE ( 'NONE', #891, #911, #653, .T. ) ;
#962 = PRODUCT_RELATED_PRODUCT_CATEGORY ( 'detail', '', ( #787 ) ) ;
#963 = ORIENTED_EDGE ( 'NONE', *, *, #593, .T. ) ;
#964 = AXIS2_PLACEMENT_3D ( 'NONE', #134, #45, #416 ) ;
#965 = CARTESIAN_POINT ( 'NONE',  ( 61.51471862576141802, 24.78528137423853650, 0.000000000000000000 ) ) ;
#966 = DIRECTION ( 'NONE',  ( 0.5000000000000001110, -0.000000000000000000, -0.8660254037844384856 ) ) ;
#967 = CARTESIAN_POINT ( 'NONE',  ( 26.85000000000013287, -26.85000000000003695, 0.000000000000000000 ) ) ;
#968 = AXIS2_PLACEMENT_3D ( 'NONE', #674, #958, #766 ) ;
#969 = ORIENTED_EDGE ( 'NONE', *, *, #521, .T. ) ;
#970 = DIRECTION ( 'NONE',  ( -0.000000000000000000, -1.000000000000000000, -0.000000000000000000 ) ) ;
#971 = CARTESIAN_POINT ( 'NONE',  ( -12.49999999999999822, 12.00000000000000000, 7.216878364870324525 ) ) ;
#972 = FACE_OUTER_BOUND ( 'NONE', #926, .T. ) ;
#973 = CARTESIAN_POINT ( 'NONE',  ( 64.34314575050758833, 27.61370849898472812, 12.00000000000000355 ) ) ;
#974 = ORIENTED_EDGE ( 'NONE', *, *, #536, .F. ) ;
#975 = CARTESIAN_POINT ( 'NONE',  ( -7.277756813566462313, 6.000000000000000000, 16.00544456622768763 ) ) ;
#976 = CYLINDRICAL_SURFACE ( 'NONE', #29, 7.999999999999991118 ) ;
#977 = LINE ( 'NONE', #412, #1187 ) ;
#978 = VERTEX_POINT ( 'NONE', #940 ) ;
#979 = CARTESIAN_POINT ( 'NONE',  ( 8.165681795455277836, 7.505621728497172462, -19.34770278842689351 ) ) ;
#980 = CC_DESIGN_APPROVAL ( #539, ( #691 ) ) ;
#981 = EDGE_CURVE ( 'NONE', #352, #73, #849, .T. ) ;
#982 = CARTESIAN_POINT ( 'NONE',  ( -4.456170397004632741E-15, 0.000000000000000000, -11.99999999999997691 ) ) ;
#983 = VERTEX_POINT ( 'NONE', #1121 ) ;
#984 = DIRECTION ( 'NONE',  ( 0.5000000000000001110, 0.000000000000000000, -0.8660254037844385966 ) ) ;
#985 = ORIENTED_EDGE ( 'NONE', *, *, #290, .T. ) ;
#986 = LINE ( 'NONE', #924, #505 ) ;
#987 = AXIS2_PLACEMENT_3D ( 'NONE', #390, #30, #493 ) ;
#988 = VECTOR ( 'NONE', #53, 1000.000000000000000 ) ;
#989 = DIRECTION ( 'NONE',  ( 0.7071067811865489050, -0.7071067811865461294, -0.000000000000000000 ) ) ;
#990 = EDGE_CURVE ( 'NONE', #484, #895, #808, .T. ) ;
#991 = VERTEX_POINT ( 'NONE', #882 ) ;
#992 = PERSON_AND_ORGANIZATION_ROLE ( 'classification_officer' ) ;
#993 = DIRECTION ( 'NONE',  ( 0.000000000000000000, 0.000000000000000000, 1.000000000000000000 ) ) ;
#994 = ORIENTED_EDGE ( 'NONE', *, *, #832, .T. ) ;
#995 = CYLINDRICAL_SURFACE ( 'NONE', #872, 21.00000000000000000 ) ;
#996 = ORIENTED_EDGE ( 'NONE', *, *, #19, .F. ) ;
#997 = EDGE_CURVE ( 'NONE', #251, #887, #876, .T. ) ;
#998 = LINE ( 'NONE', #896, #1167 ) ;
#999 = APPROVAL_ROLE ( '' ) ;
#1000 = CARTESIAN_POINT ( 'NONE',  ( 12.67377433955037880, 7.503528720247022221, -16.74477431215147050 ) ) ;
#1001 = CC_DESIGN_PERSON_AND_ORGANIZATION_ASSIGNMENT ( #85, #175, ( #787 ) ) ;
#1002 = FACE_OUTER_BOUND ( 'NONE', #115, .T. ) ;
#1003 = VECTOR ( 'NONE', #31, 1000.000000000000114 ) ;
#1004 = ORIENTED_EDGE ( 'NONE', *, *, #221, .T. ) ;
#1005 = ORIENTED_EDGE ( 'NONE', *, *, #1023, .F. ) ;
#1006 = COORDINATED_UNIVERSAL_TIME_OFFSET ( 5, 0, .BEHIND. ) ;
#1007 = ORIENTED_EDGE ( 'NONE', *, *, #1129, .T. ) ;
#1008 = CARTESIAN_POINT ( 'NONE',  ( 7.937852169684028070, 6.966968822677693574, -19.44212602180988370 ) ) ;
#1009 = ORIENTED_EDGE ( 'NONE', *, *, #221, .F. ) ;
#1010 = CARTESIAN_POINT ( 'NONE',  ( -12.99038105676658361, 5.801509304424911306, 16.49999999999999645 ) ) ;
#1011 = VECTOR ( 'NONE', #1157, 1000.000000000000000 ) ;
#1012 = ORIENTED_EDGE ( 'NONE', *, *, #343, .F. ) ;
#1013 = DIRECTION ( 'NONE',  ( 1.000000000000000000, -0.000000000000000000, 0.000000000000000000 ) ) ;
#1014 = ORIENTED_EDGE ( 'NONE', *, *, #761, .T. ) ;
#1015 = CARTESIAN_POINT ( 'NONE',  ( 53.70000000000006679, -1.040834085586084257E-14, -11.99999999999999645 ) ) ;
#1016 = CARTESIAN_POINT ( 'NONE',  ( 17.23368793961408585, 12.00000000000000000, 12.00000000000000355 ) ) ;
#1017 = CC_DESIGN_DATE_AND_TIME_ASSIGNMENT ( #524, #706, ( #587 ) ) ;
#1018 = CARTESIAN_POINT ( 'NONE',  ( 11.16460289854897425, 3.095281525930285049, -17.78731307582934917 ) ) ;
#1019 = FACE_OUTER_BOUND ( 'NONE', #281, .T. ) ;
#1020 = VERTEX_POINT ( 'NONE', #973 ) ;
#1021 = ORIENTED_EDGE ( 'NONE', *, *, #959, .T. ) ;
#1022 = CARTESIAN_POINT ( 'NONE',  ( -8.734559793884232093, 8.258263303993302884, 19.09782060830282902 ) ) ;
#1023 = EDGE_CURVE ( 'NONE', #1101, #737, #861, .T. ) ;
#1024 = VECTOR ( 'NONE', #668, 999.9999999999998863 ) ;
#1025 = CIRCLE ( 'NONE', #1064, 3.000000000000000444 ) ;
#1026 = CYLINDRICAL_SURFACE ( 'NONE', #266, 1.700000000000003064 ) ;
#1027 = DIRECTION ( 'NONE',  ( 0.000000000000000000, 0.000000000000000000, -1.000000000000000000 ) ) ;
#1028 = ORIENTED_EDGE ( 'NONE', *, *, #326, .F. ) ;
#1029 = CARTESIAN_POINT ( 'NONE',  ( -11.32810864115112182, 3.153978183713942229, 17.68351268042794544 ) ) ;
#1030 = B_SPLINE_CURVE_WITH_KNOTS ( 'NONE', 3,
 ( #459, #75, #549, #191, #274, #1177, #827, #725, #1191, #5, #368, #714, #1088, #637, #750, #946, #840, #99, #650, #1018, #406, #34, #1115, #657, #23, #847, #559, #760, #1032, #126, #402, #396, #1042, #1125 ),
 .UNSPECIFIED., .F., .F.,
 ( 4, 2, 2, 2, 2, 2, 2, 2, 2, 2, 2, 2, 2, 2, 2, 2, 4 ),
 ( 0.009391372938336289139, 0.009978190669855040856, 0.01056500840137379257, 0.01115182613289254429, 0.01173864386441129601, 0.01232546159593004773, 0.01291227932744879944, 0.01349909705896755116, 0.01408591479048630114, 0.01467273252200505286, 0.01525955025352380631, 0.01584636798504255456, 0.01643318571656130975, 0.01702000344808005800, 0.01760682117959880971, 0.01819363891111756143, 0.01878045664263631315 ),
 .UNSPECIFIED. ) ;
#1031 = CIRCLE ( 'NONE', #830, 21.00000000000000000 ) ;
#1032 = CARTESIAN_POINT ( 'NONE',  ( 12.74723216519379143, 4.667783917236510760, -16.68873260665804281 ) ) ;
#1033 = CARTESIAN_POINT ( 'NONE',  ( 64.34314575050760254, 27.61370849898473523, 0.000000000000000000 ) ) ;
#1034 = ORIENTED_EDGE ( 'NONE', *, *, #997, .F. ) ;
#1035 = CARTESIAN_POINT ( 'NONE',  ( -10.33127185582503671, 2.999927395980973355, 18.28396069548880831 ) ) ;
#1036 = LINE ( 'NONE', #667, #718 ) ;
#1037 = EDGE_CURVE ( 'NONE', #991, #286, #1043, .T. ) ;
#1038 = DIRECTION ( 'NONE',  ( 1.000000000000000000, 0.000000000000000000, -1.201851678989727077E-16 ) ) ;
#1039 = ORIENTED_EDGE ( 'NONE', *, *, #611, .F. ) ;
#1040 = CARTESIAN_POINT ( 'NONE',  ( -9.652686721715005191, 3.152980082821677410, 18.65097258781485934 ) ) ;
#1041 = ORIENTED_EDGE ( 'NONE', *, *, #1067, .F. ) ;
#1042 = CARTESIAN_POINT ( 'NONE',  ( 12.99038105676657473, 5.801557688368258248, -16.50000000000000000 ) ) ;
#1043 = LINE ( 'NONE', #596, #295 ) ;
#1044 = CARTESIAN_POINT ( 'NONE',  ( -16.94134295108992916, 6.000000000000000000, 23.34326673973660604 ) ) ;
#1045 = LINE ( 'NONE', #601, #1144 ) ;
#1046 = VECTOR ( 'NONE', #1135, 1000.000000000000000 ) ;
#1047 = VECTOR ( 'NONE', #141, 1000.000000000000000 ) ;
#1048 = CARTESIAN_POINT ( 'NONE',  ( 48.72943725152292416, 12.00000000000000000, 12.00000000000000355 ) ) ;
#1049 = ORIENTED_EDGE ( 'NONE', *, *, #1113, .F. ) ;
#1050 = DIRECTION ( 'NONE',  ( 0.7071067811865489050, -0.7071067811865462405, 0.000000000000000000 ) ) ;
#1051 = ADVANCED_FACE ( 'NONE', ( #494 ), #767, .F. ) ;
#1052 = ORIENTED_EDGE ( 'NONE', *, *, #199, .F. ) ;
#1053 = DIRECTION ( 'NONE',  ( 0.5000000000000000000, -0.000000000000000000, -0.8660254037844385966 ) ) ;
#1054 = DIRECTION ( 'NONE',  ( 0.5000000000000001110, -0.000000000000000000, -0.8660254037844385966 ) ) ;
#1055 = CARTESIAN_POINT ( 'NONE',  ( 8.750000000000000000, 6.000000000000000000, -15.15544456622767377 ) ) ;
#1056 = ORIENTED_EDGE ( 'NONE', *, *, #307, .T. ) ;
#1057 = CARTESIAN_POINT ( 'NONE',  ( 12.49999999999999645, 12.00000000000000000, 0.000000000000000000 ) ) ;
#1058 = ORIENTED_EDGE ( 'NONE', *, *, #997, .T. ) ;
#1059 = CARTESIAN_POINT ( 'NONE',  ( 72.82842712474618452, 19.12842712474618168, 3.469446951953614189E-15 ) ) ;
#1060 = FACE_OUTER_BOUND ( 'NONE', #324, .T. ) ;
#1061 = FACE_BOUND ( 'NONE', #535, .T. ) ;
#1062 = AXIS2_PLACEMENT_3D ( 'NONE', #334, #1131, #413 ) ;
#1063 = EDGE_LOOP ( 'NONE', ( #776, #1007 ) ) ;
#1064 = AXIS2_PLACEMENT_3D ( 'NONE', #537, #551, #1090 ) ;
#1065 = DIRECTION ( 'NONE',  ( 0.000000000000000000, 0.000000000000000000, -1.000000000000000000 ) ) ;
#1066 = CARTESIAN_POINT ( 'NONE',  ( -6.249999999999999112, 12.00000000000000000, -10.82531754730548634 ) ) ;
#1067 = EDGE_CURVE ( 'NONE', #288, #174, #132, .T. ) ;
#1068 = CARTESIAN_POINT ( 'NONE',  ( -14.34326673973661137, 6.000000000000000000, 24.84326673973660959 ) ) ;
#1069 = CARTESIAN_POINT ( 'NONE',  ( -7.794228634059951588, 6.000000000000000000, 19.50000000000000000 ) ) ;
#1070 = VECTOR ( 'NONE', #228, 1000.000000000000000 ) ;
#1071 = ORIENTED_EDGE ( 'NONE', *, *, #780, .F. ) ;
#1072 = CARTESIAN_POINT ( 'NONE',  ( 66.35840007688928210, 19.94159992311069374, 0.000000000000000000 ) ) ;
#1073 = DIRECTION ( 'NONE',  ( -0.5000000000000000000, -0.000000000000000000, 0.8660254037844387076 ) ) ;
#1074 = CARTESIAN_POINT ( 'NONE',  ( 12.49999999999999645, 0.000000000000000000, -7.216878364870331630 ) ) ;
#1075 = COORDINATED_UNIVERSAL_TIME_OFFSET ( 5, 0, .BEHIND. ) ;
#1076 = EDGE_CURVE ( 'NONE', #983, #826, #541, .T. ) ;
#1077 = ORIENTED_EDGE ( 'NONE', *, *, #1076, .T. ) ;
#1078 = CYLINDRICAL_SURFACE ( 'NONE', #795, 21.00000000000000000 ) ;
#1079 = LINE ( 'NONE', #1162, #547 ) ;
#1080 = ORIENTED_EDGE ( 'NONE', *, *, #187, .F. ) ;
#1081 = PERSON_AND_ORGANIZATION ( #922, #39 ) ;
#1082 = EDGE_LOOP ( 'NONE', ( #570, #231, #268, #974 ) ) ;
#1083 = CARTESIAN_POINT ( 'NONE',  ( 12.97491038504659677, 6.393612636555863205, -16.51221329733698084 ) ) ;
#1084 = EDGE_CURVE ( 'NONE', #1020, #702, #1085, .T. ) ;
#1085 = CIRCLE ( 'NONE', #257, 12.00000000000000178 ) ;
#1086 = CARTESIAN_POINT ( 'NONE',  ( -12.49999999999999822, 0.000000000000000000, 7.216878364870324525 ) ) ;
#1087 = ORIENTED_EDGE ( 'NONE', *, *, #212, .T. ) ;
#1088 = CARTESIAN_POINT ( 'NONE',  ( 9.324887327713170748, 3.305182452900525369, -18.81700222421270396 ) ) ;
#1089 = COORDINATED_UNIVERSAL_TIME_OFFSET ( 5, 0, .BEHIND. ) ;
#1090 = DIRECTION ( 'NONE',  ( 0.8660254037844383745, 0.000000000000000000, 0.5000000000000003331 ) ) ;
#1091 = VECTOR ( 'NONE', #142, 1000.000000000000000 ) ;
#1092 = AXIS2_PLACEMENT_3D ( 'NONE', #823, #635, #285 ) ;
#1093 = CARTESIAN_POINT ( 'NONE',  ( 0.000000000000000000, 12.00000000000000000, 0.000000000000000000 ) ) ;
#1094 = ADVANCED_FACE ( 'NONE', ( #953 ), #960, .T. ) ;
#1095 = CIRCLE ( 'NONE', #186, 8.000000000000000000 ) ;
#1096 = EDGE_CURVE ( 'NONE', #314, #159, #903, .T. ) ;
#1097 = ORIENTED_EDGE ( 'NONE', *, *, #1164, .F. ) ;
#1098 = APPROVAL_STATUS ( 'not_yet_approved' ) ;
#1099 = EDGE_LOOP ( 'NONE', ( #468, #294, #1171, #1052, #525, #598 ) ) ;
#1100 = CARTESIAN_POINT ( 'NONE',  ( 60.70154582739692017, 14.28474567361830516, 9.797174393178821713E-16 ) ) ;
#1101 = VERTEX_POINT ( 'NONE', #762 ) ;
#1102 = PLANE ( 'NONE',  #316 ) ;
#1103 = CARTESIAN_POINT ( 'NONE',  ( 11.32810864115111471, 8.846021816286057771, -17.68351268042794189 ) ) ;
#1104 = DIRECTION ( 'NONE',  ( 0.000000000000000000, 1.000000000000000000, -0.000000000000000000 ) ) ;
#1105 = ORIENTED_EDGE ( 'NONE', *, *, #110, .T. ) ;
#1106 = CARTESIAN_POINT ( 'NONE',  ( 39.97842712474603388, 51.97842712474619020, 12.00000000000000355 ) ) ;
#1107 = CC_DESIGN_PERSON_AND_ORGANIZATION_ASSIGNMENT ( #1081, #992, ( #691 ) ) ;
#1108 = CARTESIAN_POINT ( 'NONE',  ( -12.74766905364831260, 4.668695495894432668, 16.68840051946752823 ) ) ;
#1109 = DESIGN_CONTEXT ( 'detailed design', #594, 'design' ) ;
#1110 = AXIS2_PLACEMENT_3D ( 'NONE', #1072, #38, #955 ) ;
#1111 = ORIENTED_EDGE ( 'NONE', *, *, #959, .F. ) ;
#1112 = CARTESIAN_POINT ( 'NONE',  ( 6.250000000000000888, 12.00000000000000000, -10.82531754730548812 ) ) ;
#1113 = EDGE_CURVE ( 'NONE', #233, #1134, #583, .T. ) ;
#1114 = CARTESIAN_POINT ( 'NONE',  ( -10.15588090298079393, 8.980210522633512937, 18.38191733608913836 ) ) ;
#1115 = CARTESIAN_POINT ( 'NONE',  ( 11.77365090279968030, 3.395309192503120244, -17.38987978543482882 ) ) ;
#1116 = DIRECTION ( 'NONE',  ( 0.8660254037844387076, 0.000000000000000000, 0.5000000000000001110 ) ) ;
#1117 = EDGE_LOOP ( 'NONE', ( #443, #202, #810, #1014, #224, #696 ) ) ;
#1118 = CARTESIAN_POINT ( 'NONE',  ( 0.000000000000000000, 12.00000000000000000, -21.00000000000000000 ) ) ;
#1119 = AXIS2_PLACEMENT_3D ( 'NONE', #1140, #777, #315 ) ;
#1120 = DIRECTION ( 'NONE',  ( -0.4999999999999997780, -0.000000000000000000, 0.8660254037844387076 ) ) ;
#1121 = CARTESIAN_POINT ( 'NONE',  ( -6.151923788646691094, 6.000000000000000000, 16.65544456622768266 ) ) ;
#1122 = CARTESIAN_POINT ( 'NONE',  ( -9.818691042300722316, 3.096230975024054644, 18.56422326268472744 ) ) ;
#1123 = AXIS2_PLACEMENT_3D ( 'NONE', #143, #952, #512 ) ;
#1124 = EDGE_CURVE ( 'NONE', #1139, #627, #43, .T. ) ;
#1125 = CARTESIAN_POINT ( 'NONE',  ( 12.99038105676657295, 6.000000000000000000, -16.50000000000000000 ) ) ;
#1126 = CARTESIAN_POINT ( 'NONE',  ( -6.249999999999999112, 0.000000000000000000, -10.82531754730548634 ) ) ;
#1127 = ORIENTED_EDGE ( 'NONE', *, *, #658, .T. ) ;
#1128 = CARTESIAN_POINT ( 'NONE',  ( -8.078187897726133215, 4.669918990696892536, 19.38423693635439449 ) ) ;
#1129 = EDGE_CURVE ( 'NONE', #631, #1195, #393, .T. ) ;
#1130 = CARTESIAN_POINT ( 'NONE',  ( 72.82842712474617031, 19.12842712474616746, -11.99999999999999645 ) ) ;
#1131 = DIRECTION ( 'NONE',  ( 0.4999999999999997780, 0.000000000000000000, -0.8660254037844387076 ) ) ;
#1132 = ORIENTED_EDGE ( 'NONE', *, *, #680, .F. ) ;
#1133 = CARTESIAN_POINT ( 'NONE',  ( -10.15746060654611682, 3.019503530599924712, 18.38105201443663361 ) ) ;
#1134 = VERTEX_POINT ( 'NONE', #422 ) ;
#1135 = DIRECTION ( 'NONE',  ( 0.5000000000000001110, -0.000000000000000000, -0.8660254037844385966 ) ) ;
#1136 = APPROVAL_PERSON_ORGANIZATION ( #448, #1166, #890 ) ;
#1137 = DIRECTION ( 'NONE',  ( 0.000000000000000000, 0.000000000000000000, 1.000000000000000000 ) ) ;
#1138 = VERTEX_POINT ( 'NONE', #775 ) ;
#1139 = VERTEX_POINT ( 'NONE', #675 ) ;
#1140 = CARTESIAN_POINT ( 'NONE',  ( -8.750000000000007105, 6.000000000000000000, 15.15544456622768621 ) ) ;
#1141 = ORIENTED_EDGE ( 'NONE', *, *, #656, .T. ) ;
#1142 = CARTESIAN_POINT ( 'NONE',  ( 81.31370849898473807, 27.61370849898476365, 3.469446951953614189E-15 ) ) ;
#1143 = DIRECTION ( 'NONE',  ( 0.8660254037844383745, 0.000000000000000000, 0.5000000000000005551 ) ) ;
#1144 = VECTOR ( 'NONE', #250, 1000.000000000000114 ) ;
#1145 = CIRCLE ( 'NONE', #719, 1.699999999999999734 ) ;
#1146 = CARTESIAN_POINT ( 'NONE',  ( 70.00000000000000000, 16.29999999999998295, 0.000000000000000000 ) ) ;
#1147 = ORIENTED_EDGE ( 'NONE', *, *, #1084, .F. ) ;
#1148 = CIRCLE ( 'NONE', #676, 1.699999999999999734 ) ;
#1149 = DIRECTION ( 'NONE',  ( 0.5000000000000001110, -0.000000000000000000, -0.8660254037844384856 ) ) ;
#1150 = VERTEX_POINT ( 'NONE', #1048 ) ;
#1151 = CYLINDRICAL_SURFACE ( 'NONE', #929, 4.000000000000005329 ) ;
#1152 = DIRECTION ( 'NONE',  ( 0.7071067811865487940, -0.7071067811865462405, 0.000000000000000000 ) ) ;
#1153 = DIRECTION ( 'NONE',  ( 0.7071067811865465735, 0.7071067811865483499, 0.000000000000000000 ) ) ;
#1154 = ORIENTED_EDGE ( 'NONE', *, *, #768, .T. ) ;
#1155 = CARTESIAN_POINT ( 'NONE',  ( 69.18682720163546662, 22.77002704785688891, 0.000000000000000000 ) ) ;
#1156 = DIRECTION ( 'NONE',  ( 0.7071067811865457964, 0.7071067811865492381, 0.000000000000000000 ) ) ;
#1157 = DIRECTION ( 'NONE',  ( -0.000000000000000000, -1.000000000000000000, -0.000000000000000000 ) ) ;
#1158 = DIRECTION ( 'NONE',  ( 0.8660254037844383745, 0.000000000000000000, 0.5000000000000003331 ) ) ;
#1159 = VECTOR ( 'NONE', #152, 1000.000000000000000 ) ;
#1160 = ORIENTED_EDGE ( 'NONE', *, *, #1124, .F. ) ;
#1161 = LINE ( 'NONE', #1169, #988 ) ;
#1162 = CARTESIAN_POINT ( 'NONE',  ( 12.49999999999999645, 12.00000000000000000, 7.216878364870328078 ) ) ;
#1163 = CYLINDRICAL_SURFACE ( 'NONE', #1123, 1.699999999999999734 ) ;
#1164 = EDGE_CURVE ( 'NONE', #911, #891, #581, .T. ) ;
#1165 = PERSON_AND_ORGANIZATION ( #922, #39 ) ;
#1166 = APPROVAL ( #804, 'UNSPECIFIED' ) ;
#1167 = VECTOR ( 'NONE', #1013, 1000.000000000000000 ) ;
#1168 = EDGE_LOOP ( 'NONE', ( #531, #57, #495, #70 ) ) ;
#1169 = CARTESIAN_POINT ( 'NONE',  ( 0.000000000000000000, 12.00000000000000000, -21.00000000000000000 ) ) ;
#1170 = DIRECTION ( 'NONE',  ( 1.000000000000000000, 0.000000000000000000, -3.713475330837201018E-16 ) ) ;
#1171 = ORIENTED_EDGE ( 'NONE', *, *, #853, .F. ) ;
#1172 = APPROVAL_DATE_TIME ( #799, #539 ) ;
#1173 = VERTEX_POINT ( 'NONE', #683 ) ;
#1174 = CARTESIAN_POINT ( 'NONE',  ( -11.34807621135332667, 6.000000000000000000, 13.65544456622768443 ) ) ;
#1175 = DIRECTION ( 'NONE',  ( 0.000000000000000000, 0.000000000000000000, 1.000000000000000000 ) ) ;
#1176 = ORIENTED_EDGE ( 'NONE', *, *, #366, .T. ) ;
#1177 = CARTESIAN_POINT ( 'NONE',  ( 8.077533501419416950, 4.671509500958211270, -19.38450779310182526 ) ) ;
#1178 = APPROVAL_DATE_TIME ( #171, #1166 ) ;
#1179 = CARTESIAN_POINT ( 'NONE',  ( 3.469446951953614189E-15, 0.000000000000000000, -14.43375672974064905 ) ) ;
#1180 = CC_DESIGN_APPROVAL ( #781, ( #158 ) ) ;
#1181 = EDGE_CURVE ( 'NONE', #877, #730, #503, .T. ) ;
#1182 = AXIS2_PLACEMENT_3D ( 'NONE', #652, #391, #917 ) ;
#1183 = DIRECTION ( 'NONE',  ( 0.000000000000000000, 1.000000000000000000, -0.000000000000000000 ) ) ;
#1184 = ADVANCED_FACE ( 'NONE', ( #1061, #56 ), #500, .T. ) ;
#1185 = ORIENTED_EDGE ( 'NONE', *, *, #273, .F. ) ;
#1186 = CARTESIAN_POINT ( 'NONE',  ( 7.884682884967610050, 6.779942380004573721, -19.46364001992501613 ) ) ;
#1187 = VECTOR ( 'NONE', #151, 1000.000000000000000 ) ;
#1188 = EDGE_LOOP ( 'NONE', ( #1071, #865, #437, #739 ) ) ;
#1189 = CARTESIAN_POINT ( 'NONE',  ( 61.51471862576141802, 24.78528137423853650, 0.000000000000000000 ) ) ;
#1190 = VERTEX_POINT ( 'NONE', #1069 ) ;
#1191 = CARTESIAN_POINT ( 'NONE',  ( 8.481212095518031902, 4.018434126411263740, -19.21167166518035430 ) ) ;
#1192 = APPLICATION_PROTOCOL_DEFINITION ( 'international standard', 'config_control_design', 1994, #594 ) ;
#1193 = CARTESIAN_POINT ( 'NONE',  ( 7.812668684790271101, 6.394954433002948413, -19.49265797790094723 ) ) ;
#1194 = DIRECTION ( 'NONE',  ( 0.7071067811865489050, -0.7071067811865462405, -0.000000000000000000 ) ) ;
#1195 = VERTEX_POINT ( 'NONE', #246 ) ;
#1196 = CARTESIAN_POINT ( 'NONE',  ( 8.737495540616579959, 8.261273025840857542, -19.09649001829233939 ) ) ;
ENDSEC;
END-ISO-10303-21;
