ISO-10303-21;
HEADER;
FILE_DESCRIPTION (( 'STEP AP214' ),
    '1' );
FILE_NAME ('Plate.STEP',
    '2025-12-07T22:25:55',
    ( '' ),
    ( '' ),
    'SwSTEP 2.0',
    'SolidWorks 2025',
    '' );
FILE_SCHEMA (( 'AUTOMOTIVE_DESIGN' ));
ENDSEC;

DATA;
#1 = ORIENTED_EDGE ( 'NONE', *, *, #333, .T. ) ;
#2 = ORIENTED_EDGE ( 'NONE', *, *, #947, .F. ) ;
#3 = DIRECTION ( 'NONE',  ( -0.000000000000000000, 0.000000000000000000, 1.000000000000000000 ) ) ;
#4 = DIRECTION ( 'NONE',  ( -0.4999999999999916733, 0.8660254037844434816, 0.000000000000000000 ) ) ;
#5 = ADVANCED_FACE ( 'NONE', ( #390 ), #40, .F. ) ;
#6 = ORIENTED_EDGE ( 'NONE', *, *, #270, .F. ) ;
#7 = ORIENTED_EDGE ( 'NONE', *, *, #138, .T. ) ;
#8 = CARTESIAN_POINT ( 'NONE',  ( 0.000000000000000000, 0.000000000000000000, 22.00000000000000000 ) ) ;
#9 = LINE ( 'NONE', #117, #711 ) ;
#10 = CARTESIAN_POINT ( 'NONE',  ( -48.82754963085064759, 37.42820323027576990, 9.797174393178825657E-16 ) ) ;
#11 = AXIS2_PLACEMENT_3D ( 'NONE', #8, #611, #264 ) ;
#12 = ORIENTED_EDGE ( 'NONE', *, *, #529, .F. ) ;
#13 = STYLED_ITEM ( 'NONE', ( #198 ), #540 ) ;
#14 = ORIENTED_EDGE ( 'NONE', *, *, #716, .T. ) ;
#15 = VECTOR ( 'NONE', #904, 1000.000000000000000 ) ;
#16 = DIRECTION ( 'NONE',  ( -0.5000000000000039968, -0.8660254037844363761, 0.000000000000000000 ) ) ;
#17 = DIRECTION ( 'NONE',  ( -0.000000000000000000, -1.000000000000000000, -0.000000000000000000 ) ) ;
#18 = ORIENTED_EDGE ( 'NONE', *, *, #651, .T. ) ;
#19 = CYLINDRICAL_SURFACE ( 'NONE', #865, 8.000000000000000000 ) ;
#20 = DIRECTION ( 'NONE',  ( -0.5000000000000037748, -0.8660254037844364872, 0.000000000000000000 ) ) ;
#21 = CARTESIAN_POINT ( 'NONE',  ( 77.36157892982390649, 16.00581473979459801, 22.00000000000000000 ) ) ;
#22 = EDGE_LOOP ( 'NONE', ( #670, #934, #775, #636, #1052, #47, #585, #402 ) ) ;
#23 = ORIENTED_EDGE ( 'NONE', *, *, #64, .T. ) ;
#24 = DIRECTION ( 'NONE',  ( -0.5000000000000037748, -0.8660254037844364872, 0.000000000000000000 ) ) ;
#25 = DIRECTION ( 'NONE',  ( -0.5000000000000038858, -0.8660254037844364872, 0.000000000000000000 ) ) ;
#26 = EDGE_CURVE ( 'NONE', #802, #119, #293, .T. ) ;
#27 = DIRECTION ( 'NONE',  ( 0.000000000000000000, -1.000000000000000000, 0.000000000000000000 ) ) ;
#28 = DIRECTION ( 'NONE',  ( -0.4999999999999918954, 0.8660254037844433705, 0.000000000000000000 ) ) ;
#29 = VECTOR ( 'NONE', #327, 1000.000000000000000 ) ;
#30 = VERTEX_POINT ( 'NONE', #801 ) ;
#31 = AXIS2_PLACEMENT_3D ( 'NONE', #171, #371, #437 ) ;
#32 = DIRECTION ( 'NONE',  ( 0.000000000000000000, 0.000000000000000000, -1.000000000000000000 ) ) ;
#33 = DIRECTION ( 'NONE',  ( -0.000000000000000000, -0.000000000000000000, -1.000000000000000000 ) ) ;
#34 = ADVANCED_FACE ( 'NONE', ( #451, #1039 ), #946, .F. ) ;
#35 = CARTESIAN_POINT ( 'NONE',  ( -52.82754963085064759, 30.50000000000025580, 0.000000000000000000 ) ) ;
#36 = ORIENTED_EDGE ( 'NONE', *, *, #684, .T. ) ;
#37 = DIRECTION ( 'NONE',  ( 0.000000000000000000, 0.000000000000000000, 1.000000000000000000 ) ) ;
#38 = DIRECTION ( 'NONE',  ( -0.8660254037844364872, 0.5000000000000039968, 0.000000000000000000 ) ) ;
#39 = LINE ( 'NONE', #136, #587 ) ;
#40 = CYLINDRICAL_SURFACE ( 'NONE', #914, 8.517553795201633804 ) ;
#41 = EDGE_CURVE ( 'NONE', #541, #262, #330, .T. ) ;
#42 = ORIENTED_EDGE ( 'NONE', *, *, #664, .F. ) ;
#43 = DIRECTION ( 'NONE',  ( -0.000000000000000000, -1.000000000000000000, -0.000000000000000000 ) ) ;
#44 = DIRECTION ( 'NONE',  ( 0.000000000000000000, 0.000000000000000000, -1.000000000000000000 ) ) ;
#45 = CARTESIAN_POINT ( 'NONE',  ( 0.000000000000000000, 0.000000000000000000, 22.00000000000000000 ) ) ;
#46 = DIRECTION ( 'NONE',  ( 0.8660254037844433705, 0.4999999999999920064, 0.000000000000000000 ) ) ;
#47 = ORIENTED_EDGE ( 'NONE', *, *, #254, .F. ) ;
#48 = CIRCLE ( 'NONE', #883, 11.48244620479837330 ) ;
#49 = AXIS2_PLACEMENT_3D ( 'NONE', #526, #27, #204 ) ;
#50 = FACE_OUTER_BOUND ( 'NONE', #215, .T. ) ;
#51 = AXIS2_PLACEMENT_3D ( 'NONE', #443, #1012, #690 ) ;
#52 = DIRECTION ( 'NONE',  ( -0.4999999999999918954, 0.8660254037844433705, 0.000000000000000000 ) ) ;
#53 = DIRECTION ( 'NONE',  ( -0.4999999999999919509, 0.8660254037844432595, 0.000000000000000000 ) ) ;
#54 = ORIENTED_EDGE ( 'NONE', *, *, #237, .F. ) ;
#55 = DIRECTION ( 'NONE',  ( -0.4999999999999919509, 0.8660254037844432595, 0.000000000000000000 ) ) ;
#56 = ADVANCED_FACE ( 'NONE', ( #544, #1028 ), #874, .F. ) ;
#57 = PRODUCT_CONTEXT ( 'NONE', #725, 'mechanical' ) ;
#58 = CYLINDRICAL_SURFACE ( 'NONE', #672, 11.48244620479837153 ) ;
#59 = VERTEX_POINT ( 'NONE', #464 ) ;
#60 = CARTESIAN_POINT ( 'NONE',  ( -12.40967364599096534, -21.49418526020463460, 10.00000000000000000 ) ) ;
#61 =( LENGTH_UNIT ( ) NAMED_UNIT ( * ) SI_UNIT ( .MILLI., .METRE. ) );
#62 = EDGE_CURVE ( 'NONE', #570, #712, #79, .T. ) ;
#63 = DIRECTION ( 'NONE',  ( 1.000000000000000000, 0.000000000000000000, 0.000000000000000000 ) ) ;
#64 = EDGE_CURVE ( 'NONE', #275, #1053, #367, .T. ) ;
#65 = EDGE_LOOP ( 'NONE', ( #610, #948, #951, #756 ) ) ;
#66 = VECTOR ( 'NONE', #382, 999.9999999999998863 ) ;
#67 = AXIS2_PLACEMENT_3D ( 'NONE', #873, #1051, #377 ) ;
#68 = DIRECTION ( 'NONE',  ( -0.000000000000000000, -0.000000000000000000, -1.000000000000000000 ) ) ;
#69 = CIRCLE ( 'NONE', #159, 8.000000000000000000 ) ;
#70 = ORIENTED_EDGE ( 'NONE', *, *, #511, .F. ) ;
#71 = LINE ( 'NONE', #342, #15 ) ;
#72 = EDGE_CURVE ( 'NONE', #205, #833, #963, .T. ) ;
#73 = ORIENTED_EDGE ( 'NONE', *, *, #474, .F. ) ;
#74 = FACE_OUTER_BOUND ( 'NONE', #910, .T. ) ;
#75 = CARTESIAN_POINT ( 'NONE',  ( 40.41787598486038036, 51.99418526020431131, 10.00000000000000000 ) ) ;
#76 = VERTEX_POINT ( 'NONE', #199 ) ;
#77 = ADVANCED_FACE ( 'NONE', ( #857 ), #113, .F. ) ;
#78 = LINE ( 'NONE', #635, #185 ) ;
#79 = CIRCLE ( 'NONE', #602, 11.48244620479837153 ) ;
#80 = DIRECTION ( 'NONE',  ( 0.000000000000000000, 0.000000000000000000, 1.000000000000000000 ) ) ;
#81 = CIRCLE ( 'NONE', #228, 79.00000000000000000 ) ;
#82 = ORIENTED_EDGE ( 'NONE', *, *, #765, .T. ) ;
#83 = CARTESIAN_POINT ( 'NONE',  ( 94.13565010360576935, -48.78434001496989225, 1.482446204798369305 ) ) ;
#84 = EDGE_CURVE ( 'NONE', #596, #508, #759, .T. ) ;
#85 = DIRECTION ( 'NONE',  ( -0.5000000000000037748, -0.8660254037844364872, 0.000000000000000000 ) ) ;
#86 = ORIENTED_EDGE ( 'NONE', *, *, #480, .F. ) ;
#87 = ORIENTED_EDGE ( 'NONE', *, *, #511, .T. ) ;
#88 = CARTESIAN_POINT ( 'NONE',  ( -95.72599520761525582, -46.02982479452633413, 0.000000000000000000 ) ) ;
#89 = DIRECTION ( 'NONE',  ( -0.8660254037844363761, 0.5000000000000039968, -0.000000000000000000 ) ) ;
#90 = DIRECTION ( 'NONE',  ( -0.8660254037844433705, -0.4999999999999919509, 0.000000000000000000 ) ) ;
#91 = ORIENTED_EDGE ( 'NONE', *, *, #765, .F. ) ;
#92 = ORIENTED_EDGE ( 'NONE', *, *, #493, .T. ) ;
#93 = DIRECTION ( 'NONE',  ( 0.000000000000000000, 1.000000000000000000, -0.000000000000000000 ) ) ;
#94 = DIRECTION ( 'NONE',  ( -0.000000000000000000, 1.000000000000000000, -0.000000000000000000 ) ) ;
#95 = CIRCLE ( 'NONE', #1042, 8.517553795201633804 ) ;
#96 = DIRECTION ( 'NONE',  ( -1.000000000000000000, 0.000000000000000000, 0.000000000000000000 ) ) ;
#97 = MECHANICAL_DESIGN_GEOMETRIC_PRESENTATION_REPRESENTATION (  '', ( #13 ), #383 ) ;
#98 = EDGE_LOOP ( 'NONE', ( #764, #343 ) ) ;
#99 = CIRCLE ( 'NONE', #472, 8.517553795201630251 ) ;
#100 = ORIENTED_EDGE ( 'NONE', *, *, #325, .F. ) ;
#101 = CIRCLE ( 'NONE', #245, 8.000000000000001776 ) ;
#102 = PRODUCT_DEFINITION_FORMATION_WITH_SPECIFIED_SOURCE ( 'ANY', '', #477, .NOT_KNOWN. ) ;
#103 = DIRECTION ( 'NONE',  ( -0.8660254037844364872, 0.5000000000000039968, 0.000000000000000000 ) ) ;
#104 = LINE ( 'NONE', #180, #172 ) ;
#105 = CARTESIAN_POINT ( 'NONE',  ( -16.30179349678009970, 79.00000000000000000, 1.482446204798371081 ) ) ;
#106 = VERTEX_POINT ( 'NONE', #699 ) ;
#107 = EDGE_CURVE ( 'NONE', #802, #483, #288, .T. ) ;
#108 = ORIENTED_EDGE ( 'NONE', *, *, #1056, .F. ) ;
#109 = EDGE_CURVE ( 'NONE', #952, #59, #573, .T. ) ;
#110 = DIRECTION ( 'NONE',  ( -0.4999999999999918954, 0.8660254037844433705, 0.000000000000000000 ) ) ;
#111 = CARTESIAN_POINT ( 'NONE',  ( 4.819347291981725512, -60.99999999999987210, -10.00000000000000355 ) ) ;
#112 = SURFACE_SIDE_STYLE ('',( #181 ) ) ;
#113 = CYLINDRICAL_SURFACE ( 'NONE', #155, 8.000000000000001776 ) ;
#114 = ORIENTED_EDGE ( 'NONE', *, *, #26, .T. ) ;
#115 = DIRECTION ( 'NONE',  ( -0.000000000000000000, -1.000000000000000000, -0.000000000000000000 ) ) ;
#116 = EDGE_CURVE ( 'NONE', #322, #512, #825, .T. ) ;
#117 = CARTESIAN_POINT ( 'NONE',  ( 77.36157892982389228, 16.00581473979459446, 22.00000000000000000 ) ) ;
#118 = CARTESIAN_POINT ( 'NONE',  ( -91.72599520761531267, -52.95802802480188376, 0.000000000000000000 ) ) ;
#119 = VERTEX_POINT ( 'NONE', #581 ) ;
#120 = ORIENTED_EDGE ( 'NONE', *, *, #325, .T. ) ;
#121 = VECTOR ( 'NONE', #144, 1000.000000000000000 ) ;
#122 = CIRCLE ( 'NONE', #1044, 8.000000000000001776 ) ;
#123 = DIRECTION ( 'NONE',  ( -0.8660254037844433705, -0.4999999999999920064, -0.000000000000000000 ) ) ;
#124 = CARTESIAN_POINT ( 'NONE',  ( -55.23722327684154010, 26.32632281548435316, 1.482446204798369305 ) ) ;
#125 = EDGE_CURVE ( 'NONE', #558, #960, #78, .T. ) ;
#126 = FACE_OUTER_BOUND ( 'NONE', #549, .T. ) ;
#127 = ORIENTED_EDGE ( 'NONE', *, *, #263, .T. ) ;
#128 = ORIENTED_EDGE ( 'NONE', *, *, #633, .T. ) ;
#129 = DIRECTION ( 'NONE',  ( 0.000000000000000000, 0.000000000000000000, -1.000000000000000000 ) ) ;
#130 = FACE_OUTER_BOUND ( 'NONE', #993, .T. ) ;
#131 = DIRECTION ( 'NONE',  ( -0.4999999999999918954, 0.8660254037844432595, 0.000000000000000000 ) ) ;
#132 = EDGE_CURVE ( 'NONE', #355, #76, #412, .T. ) ;
#133 = ADVANCED_FACE ( 'NONE', ( #74 ), #242, .F. ) ;
#134 = ORIENTED_EDGE ( 'NONE', *, *, #803, .T. ) ;
#135 = CARTESIAN_POINT ( 'NONE',  ( -77.36157892982370754, 16.00581473979567448, 1.482446204798369305 ) ) ;
#136 = CARTESIAN_POINT ( 'NONE',  ( 0.000000000000000000, 79.00000000000000000, -8.000000000000000000 ) ) ;
#137 = CARTESIAN_POINT ( 'NONE',  ( 52.82754963085103839, 30.49999999999950617, 10.00000000000000000 ) ) ;
#138 = EDGE_CURVE ( 'NONE', #960, #770, #406, .T. ) ;
#139 = ORIENTED_EDGE ( 'NONE', *, *, #1050, .T. ) ;
#140 = AXIS2_PLACEMENT_3D ( 'NONE', #305, #470, #131 ) ;
#141 = DIRECTION ( 'NONE',  ( -0.4999999999999920619, 0.8660254037844431485, 0.000000000000000000 ) ) ;
#142 = AXIS2_PLACEMENT_3D ( 'NONE', #286, #184, #861 ) ;
#143 =( NAMED_UNIT ( * ) SI_UNIT ( $, .STERADIAN. ) SOLID_ANGLE_UNIT ( ) );
#144 = DIRECTION ( 'NONE',  ( -0.8660254037844432595, -0.4999999999999919509, 0.000000000000000000 ) ) ;
#145 = FACE_OUTER_BOUND ( 'NONE', #22, .T. ) ;
#146 = ORIENTED_EDGE ( 'NONE', *, *, #992, .F. ) ;
#147 = CYLINDRICAL_SURFACE ( 'NONE', #411, 8.517553795201633804 ) ;
#148 = EDGE_CURVE ( 'NONE', #106, #205, #341, .T. ) ;
#149 = FACE_BOUND ( 'NONE', #253, .T. ) ;
#150 = CARTESIAN_POINT ( 'NONE',  ( 52.54223163784254780, 58.99418526020416920, 10.00000000000000000 ) ) ;
#151 = EDGE_LOOP ( 'NONE', ( #631, #311, #339, #440 ) ) ;
#152 = CARTESIAN_POINT ( 'NONE',  ( -104.1356688536059778, -31.46384276459708573, 1.482446204798369305 ) ) ;
#153 = CARTESIAN_POINT ( 'NONE',  ( 0.000000000000000000, 0.000000000000000000, 10.00000000000000000 ) ) ;
#154 = ORIENTED_EDGE ( 'NONE', *, *, #947, .T. ) ;
#155 = AXIS2_PLACEMENT_3D ( 'NONE', #444, #774, #863 ) ;
#156 = CIRCLE ( 'NONE', #604, 8.517553795201633804 ) ;
#157 = ADVANCED_FACE ( 'NONE', ( #504 ), #738, .F. ) ;
#158 = CARTESIAN_POINT ( 'NONE',  ( -52.54223163784175910, 58.99418526020494369, 22.00000000000000000 ) ) ;
#159 = AXIS2_PLACEMENT_3D ( 'NONE', #510, #841, #855 ) ;
#160 = ORIENTED_EDGE ( 'NONE', *, *, #575, .F. ) ;
#161 = DIRECTION ( 'NONE',  ( -0.5000000000000039968, -0.8660254037844363761, 0.000000000000000000 ) ) ;
#162 = FACE_BOUND ( 'NONE', #98, .T. ) ;
#163 = ORIENTED_EDGE ( 'NONE', *, *, #788, .T. ) ;
#164 = EDGE_CURVE ( 'NONE', #336, #106, #95, .T. ) ;
#165 = DIRECTION ( 'NONE',  ( 0.000000000000000000, -1.000000000000000000, 0.000000000000000000 ) ) ;
#166 = DIRECTION ( 'NONE',  ( 0.8660254037844433705, 0.4999999999999920064, 0.000000000000000000 ) ) ;
#167 = ORIENTED_EDGE ( 'NONE', *, *, #1034, .T. ) ;
#168 = ADVANCED_FACE ( 'NONE', ( #912 ), #830, .T. ) ;
#169 = DIRECTION ( 'NONE',  ( -0.000000000000000000, -1.000000000000000000, -0.000000000000000000 ) ) ;
#170 = AXIS2_PLACEMENT_3D ( 'NONE', #83, #416, #224 ) ;
#171 = CARTESIAN_POINT ( 'NONE',  ( 0.000000000000000000, 0.000000000000000000, 10.00000000000000000 ) ) ;
#172 = VECTOR ( 'NONE', #593, 1000.000000000000000 ) ;
#173 = ORIENTED_EDGE ( 'NONE', *, *, #969, .T. ) ;
#174 = ORIENTED_EDGE ( 'NONE', *, *, #109, .F. ) ;
#175 = DIRECTION ( 'NONE',  ( 0.8660254037844364872, -0.5000000000000039968, -0.000000000000000000 ) ) ;
#176 = DIRECTION ( 'NONE',  ( -0.4999999999999916733, 0.8660254037844434816, 0.000000000000000000 ) ) ;
#177 = ORIENTED_EDGE ( 'NONE', *, *, #1003, .T. ) ;
#178 = ORIENTED_EDGE ( 'NONE', *, *, #72, .F. ) ;
#179 = DIRECTION ( 'NONE',  ( 0.000000000000000000, -1.000000000000000000, 0.000000000000000000 ) ) ;
#180 = CARTESIAN_POINT ( 'NONE',  ( 52.54223163784257622, 58.99418526020419051, 22.00000000000000000 ) ) ;
#181 = SURFACE_STYLE_FILL_AREA ( #842 ) ;
#182 = ORIENTED_EDGE ( 'NONE', *, *, #138, .F. ) ;
#183 = CARTESIAN_POINT ( 'NONE',  ( -79.00000000000000000, 0.000000000000000000, 22.00000000000000000 ) ) ;
#184 = DIRECTION ( 'NONE',  ( 0.8660254037844433705, 0.4999999999999919509, -0.000000000000000000 ) ) ;
#185 = VECTOR ( 'NONE', #652, 999.9999999999998863 ) ;
#186 = ADVANCED_FACE ( 'NONE', ( #968 ), #1072, .F. ) ;
#187 = DIRECTION ( 'NONE',  ( -0.4999999999999920619, 0.8660254037844431485, 0.000000000000000000 ) ) ;
#188 = VERTEX_POINT ( 'NONE', #667 ) ;
#189 = CIRCLE ( 'NONE', #800, 11.48244620479837330 ) ;
#190 = ORIENTED_EDGE ( 'NONE', *, *, #640, .T. ) ;
#191 = DIRECTION ( 'NONE',  ( 0.000000000000000000, -1.000000000000000000, 0.000000000000000000 ) ) ;
#192 = CARTESIAN_POINT ( 'NONE',  ( 16.30179349678009970, 79.00002499999999372, 1.482446204798371081 ) ) ;
#193 =( NAMED_UNIT ( * ) PLANE_ANGLE_UNIT ( ) SI_UNIT ( $, .RADIAN. ) );
#194 = EDGE_LOOP ( 'NONE', ( #881, #146, #681, #784, #182, #870, #415, #36, #178, #923, #352, #942, #70 ) ) ;
#195 = ORIENTED_EDGE ( 'NONE', *, *, #529, .T. ) ;
#196 = CARTESIAN_POINT ( 'NONE',  ( -55.23722327684151168, 26.32632281548433895, -10.00000000000000355 ) ) ;
#197 = CARTESIAN_POINT ( 'NONE',  ( -91.72599520761531267, -52.95802802480188376, 0.000000000000000000 ) ) ;
#198 = PRESENTATION_STYLE_ASSIGNMENT (( #680 ) ) ;
#199 = CARTESIAN_POINT ( 'NONE',  ( 24.81934729198172462, -75.00000000000000000, 22.00000000000000000 ) ) ;
#200 = VERTEX_POINT ( 'NONE', #658 ) ;
#201 = EDGE_CURVE ( 'NONE', #577, #541, #735, .T. ) ;
#202 = DIRECTION ( 'NONE',  ( 0.000000000000000000, -0.000000000000000000, -1.000000000000000000 ) ) ;
#203 = SHAPE_DEFINITION_REPRESENTATION ( #811, #754 ) ;
#204 = DIRECTION ( 'NONE',  ( 0.000000000000000000, 0.000000000000000000, -1.000000000000000000 ) ) ;
#205 = VERTEX_POINT ( 'NONE', #403 ) ;
#206 = VECTOR ( 'NONE', #285, 1000.000000000000000 ) ;
#207 = ORIENTED_EDGE ( 'NONE', *, *, #961, .F. ) ;
#208 = AXIS2_PLACEMENT_3D ( 'NONE', #645, #380, #721 ) ;
#209 = CIRCLE ( 'NONE', #230, 8.000000000000001776 ) ;
#210 = DIRECTION ( 'NONE',  ( -0.000000000000000000, 1.000000000000000000, -0.000000000000000000 ) ) ;
#211 = CARTESIAN_POINT ( 'NONE',  ( 64.95190528383324136, 37.49999999999939604, 22.00000000000000000 ) ) ;
#212 = EDGE_CURVE ( 'NONE', #502, #770, #1060, .T. ) ;
#213 = DIRECTION ( 'NONE',  ( 0.000000000000000000, 0.000000000000000000, -1.000000000000000000 ) ) ;
#214 = DIRECTION ( 'NONE',  ( -0.5000000000000034417, -0.8660254037844365982, 0.000000000000000000 ) ) ;
#215 = EDGE_LOOP ( 'NONE', ( #734, #195, #1014, #619 ) ) ;
#216 = CYLINDRICAL_SURFACE ( 'NONE', #814, 11.48244620479837153 ) ;
#217 = CARTESIAN_POINT ( 'NONE',  ( -77.36157892982370754, 16.00581473979567093, 22.00000000000000000 ) ) ;
#218 = DIRECTION ( 'NONE',  ( 1.000000000000000000, 0.000000000000000000, 0.000000000000000000 ) ) ;
#219 = ORIENTED_EDGE ( 'NONE', *, *, #567, .T. ) ;
#220 = ORIENTED_EDGE ( 'NONE', *, *, #733, .F. ) ;
#221 = LINE ( 'NONE', #807, #986 ) ;
#222 = DIRECTION ( 'NONE',  ( 0.8660254037844433705, 0.4999999999999919509, -0.000000000000000000 ) ) ;
#223 = CARTESIAN_POINT ( 'NONE',  ( -12.40967364599066336, 21.49418526020480158, 10.00000000000000000 ) ) ;
#224 = DIRECTION ( 'NONE',  ( -0.5000000000000041078, -0.8660254037844363761, 0.000000000000000000 ) ) ;
#225 = ORIENTED_EDGE ( 'NONE', *, *, #1063, .T. ) ;
#226 = ADVANCED_FACE ( 'NONE', ( #888, #145 ), #1068, .T. ) ;
#227 = VECTOR ( 'NONE', #823, 999.9999999999998863 ) ;
#228 = AXIS2_PLACEMENT_3D ( 'NONE', #45, #469, #218 ) ;
#229 = FACE_OUTER_BOUND ( 'NONE', #655, .T. ) ;
#230 = AXIS2_PLACEMENT_3D ( 'NONE', #896, #166, #908 ) ;
#231 = DIRECTION ( 'NONE',  ( 1.000000000000000000, 0.000000000000000000, 0.000000000000000000 ) ) ;
#232 = CYLINDRICAL_SURFACE ( 'NONE', #1022, 8.517553795201630251 ) ;
#233 = ORIENTED_EDGE ( 'NONE', *, *, #263, .F. ) ;
#234 = CARTESIAN_POINT ( 'NONE',  ( -60.97844637924080757, 16.38223270454077607, 1.482446204798371081 ) ) ;
#235 = FACE_OUTER_BOUND ( 'NONE', #930, .T. ) ;
#236 = ORIENTED_EDGE ( 'NONE', *, *, #321, .T. ) ;
#237 = EDGE_CURVE ( 'NONE', #747, #1040, #616, .T. ) ;
#238 = CARTESIAN_POINT ( 'NONE',  ( -65.23722327684158984, 9.005814739795614088, 10.00000000000000000 ) ) ;
#239 = VERTEX_POINT ( 'NONE', #767 ) ;
#240 = AXIS2_PLACEMENT_3D ( 'NONE', #420, #175, #752 ) ;
#241 = AXIS2_PLACEMENT_3D ( 'NONE', #118, #755, #1013 ) ;
#242 = CYLINDRICAL_SURFACE ( 'NONE', #364, 8.517553795201630251 ) ;
#243 = VECTOR ( 'NONE', #17, 1000.000000000000000 ) ;
#244 = CARTESIAN_POINT ( 'NONE',  ( -52.54223163784177331, 58.99418526020493658, -10.00005499999997483 ) ) ;
#245 = AXIS2_PLACEMENT_3D ( 'NONE', #836, #1017, #20 ) ;
#246 = ORIENTED_EDGE ( 'NONE', *, *, #309, .F. ) ;
#247 = CARTESIAN_POINT ( 'NONE',  ( 94.13565010360576935, -48.78434001496989225, -10.00000000000000355 ) ) ;
#248 = DIRECTION ( 'NONE',  ( 0.000000000000000000, 0.000000000000000000, 1.000000000000000000 ) ) ;
#249 = ADVANCED_FACE ( 'NONE', ( #949 ), #19, .F. ) ;
#250 = VERTEX_POINT ( 'NONE', #535 ) ;
#251 = CARTESIAN_POINT ( 'NONE',  ( 12.40967364599066336, -21.49418526020480158, 10.00000000000000000 ) ) ;
#252 = DIRECTION ( 'NONE',  ( -0.8660254037844363761, 0.5000000000000039968, 0.000000000000000000 ) ) ;
#253 = EDGE_LOOP ( 'NONE', ( #167, #154 ) ) ;
#254 = EDGE_CURVE ( 'NONE', #239, #418, #728, .T. ) ;
#255 = ORIENTED_EDGE ( 'NONE', *, *, #1026, .T. ) ;
#256 = DIRECTION ( 'NONE',  ( 0.8660254037844432595, 0.4999999999999918954, -0.000000000000000000 ) ) ;
#257 = AXIS2_PLACEMENT_3D ( 'NONE', #1016, #191, #32 ) ;
#258 = DIRECTION ( 'NONE',  ( -0.4999999999999916733, 0.8660254037844434816, 0.000000000000000000 ) ) ;
#259 = AXIS2_PLACEMENT_3D ( 'NONE', #638, #1038, #213 ) ;
#260 = CIRCLE ( 'NONE', #413, 11.48244620479837153 ) ;
#261 = VERTEX_POINT ( 'NONE', #597 ) ;
#262 = VERTEX_POINT ( 'NONE', #291 ) ;
#263 = EDGE_CURVE ( 'NONE', #508, #596, #398, .T. ) ;
#264 = DIRECTION ( 'NONE',  ( 1.000000000000000000, 0.000000000000000000, 0.000000000000000000 ) ) ;
#265 = FACE_OUTER_BOUND ( 'NONE', #473, .T. ) ;
#266 = DIRECTION ( 'NONE',  ( -0.5000000000000039968, -0.8660254037844363761, 0.000000000000000000 ) ) ;
#267 = ORIENTED_EDGE ( 'NONE', *, *, #1056, .T. ) ;
#268 = ORIENTED_EDGE ( 'NONE', *, *, #465, .F. ) ;
#269 = CARTESIAN_POINT ( 'NONE',  ( -67.36157892982362227, 33.32632281548440289, 1.482446204798369305 ) ) ;
#270 = EDGE_CURVE ( 'NONE', #445, #336, #844, .T. ) ;
#271 = CARTESIAN_POINT ( 'NONE',  ( 104.1356501036058404, -31.46383193928115674, 1.482446204798369305 ) ) ;
#272 = DIRECTION ( 'NONE',  ( -0.4999999999999920619, 0.8660254037844431485, 0.000000000000000000 ) ) ;
#273 = VERTEX_POINT ( 'NONE', #183 ) ;
#274 = UNCERTAINTY_MEASURE_WITH_UNIT (LENGTH_MEASURE( 1.000000000000000082E-05 ), #686, 'distance_accuracy_value', 'NONE');
#275 = VERTEX_POINT ( 'NONE', #356 ) ;
#276 = CARTESIAN_POINT ( 'NONE',  ( 9.797174393178825657E-16, -61.00000000000001421, 8.000000000000000000 ) ) ;
#277 = CARTESIAN_POINT ( 'NONE',  ( -87.72599520761538372, -59.88623125507743339, 9.797174393178827630E-16 ) ) ;
#278 = AXIS2_PLACEMENT_3D ( 'NONE', #866, #103, #847 ) ;
#279 = EDGE_CURVE ( 'NONE', #508, #300, #679, .T. ) ;
#280 = CARTESIAN_POINT ( 'NONE',  ( 60.95190528383326267, 44.42820323027492435, 0.000000000000000000 ) ) ;
#281 = CIRCLE ( 'NONE', #49, 11.48244620479837153 ) ;
#282 = ORIENTED_EDGE ( 'NONE', *, *, #977, .F. ) ;
#283 = CIRCLE ( 'NONE', #887, 8.000000000000000000 ) ;
#284 = ORIENTED_EDGE ( 'NONE', *, *, #363, .T. ) ;
#285 = DIRECTION ( 'NONE',  ( 1.000000000000000000, 0.000000000000000000, 0.000000000000000000 ) ) ;
#286 = CARTESIAN_POINT ( 'NONE',  ( 65.23722327684170352, 9.005814739794711699, 1.482446204798369305 ) ) ;
#287 = CARTESIAN_POINT ( 'NONE',  ( -4.819347291981725512, 79.00000000000000000, 1.482446204798369305 ) ) ;
#288 = LINE ( 'NONE', #578, #740 ) ;
#289 = EDGE_CURVE ( 'NONE', #952, #294, #683, .T. ) ;
#290 = EDGE_LOOP ( 'NONE', ( #120, #871, #190, #82, #236, #853, #267 ) ) ;
#291 = CARTESIAN_POINT ( 'NONE',  ( 68.95190528383312767, 30.57179676972379667, 9.797174393178827630E-16 ) ) ;
#292 = CARTESIAN_POINT ( 'NONE',  ( -52.54223163784177331, 58.99418526020493658, 10.00000000000000000 ) ) ;
#293 = LINE ( 'NONE', #609, #316 ) ;
#294 = VERTEX_POINT ( 'NONE', #196 ) ;
#295 = CARTESIAN_POINT ( 'NONE',  ( 0.000000000000000000, -61.00000000000000000, 10.00000000000000000 ) ) ;
#296 = DIRECTION ( 'NONE',  ( -0.4999999999999919509, 0.8660254037844432595, 0.000000000000000000 ) ) ;
#297 = CYLINDRICAL_SURFACE ( 'NONE', #938, 11.48244620479837685 ) ;
#298 = DIRECTION ( 'NONE',  ( -0.8660254037844363761, 0.5000000000000038858, 0.000000000000000000 ) ) ;
#299 = VECTOR ( 'NONE', #161, 999.9999999999998863 ) ;
#300 = VERTEX_POINT ( 'NONE', #345 ) ;
#301 = AXIS2_PLACEMENT_3D ( 'NONE', #519, #618, #96 ) ;
#302 = CIRCLE ( 'NONE', #430, 8.517553795201630251 ) ;
#303 = DIRECTION ( 'NONE',  ( 0.000000000000000000, -0.000000000000000000, -1.000000000000000000 ) ) ;
#304 = DIRECTION ( 'NONE',  ( -0.5000000000000037748, -0.8660254037844364872, 0.000000000000000000 ) ) ;
#305 = CARTESIAN_POINT ( 'NONE',  ( 52.82754963085103839, 30.49999999999950617, -10.00000000000000000 ) ) ;
#306 = EDGE_LOOP ( 'NONE', ( #485, #615, #255, #737 ) ) ;
#307 = DIRECTION ( 'NONE',  ( -0.4999999999999919509, 0.8660254037844432595, 0.000000000000000000 ) ) ;
#308 = CARTESIAN_POINT ( 'NONE',  ( 50.41787598486022404, 34.67367718451545500, 1.482446204798369305 ) ) ;
#309 = EDGE_CURVE ( 'NONE', #59, #1053, #471, .T. ) ;
#310 = CARTESIAN_POINT ( 'NONE',  ( 0.000000000000000000, -61.00000000000000000, -10.00000000000000000 ) ) ;
#311 = ORIENTED_EDGE ( 'NONE', *, *, #919, .F. ) ;
#312 = DIRECTION ( 'NONE',  ( 0.8660254037844364872, -0.5000000000000039968, -0.000000000000000000 ) ) ;
#313 = PLANE ( 'NONE',  #559 ) ;
#314 = CARTESIAN_POINT ( 'NONE',  ( 56.80100853544331585, 51.61776729545897524, 1.482446204798371081 ) ) ;
#315 = ORIENTED_EDGE ( 'NONE', *, *, #852, .T. ) ;
#316 = VECTOR ( 'NONE', #704, 1000.000000000000000 ) ;
#317 = CIRCLE ( 'NONE', #656, 11.48244620479837330 ) ;
#318 = DIRECTION ( 'NONE',  ( 1.000000000000000000, 0.000000000000000000, 0.000000000000000000 ) ) ;
#319 = AXIS2_PLACEMENT_3D ( 'NONE', #271, #89, #357 ) ;
#320 = DIRECTION ( 'NONE',  ( -0.8660254037844364872, 0.5000000000000041078, -0.000000000000000000 ) ) ;
#321 = EDGE_CURVE ( 'NONE', #391, #76, #689, .T. ) ;
#322 = VERTEX_POINT ( 'NONE', #771 ) ;
#323 = DIRECTION ( 'NONE',  ( 0.000000000000000000, 0.000000000000000000, 1.000000000000000000 ) ) ;
#324 = ORIENTED_EDGE ( 'NONE', *, *, #1018, .T. ) ;
#325 = EDGE_CURVE ( 'NONE', #250, #747, #486, .T. ) ;
#326 = EDGE_CURVE ( 'NONE', #502, #200, #673, .T. ) ;
#327 = DIRECTION ( 'NONE',  ( -0.000000000000000000, -0.000000000000000000, 1.000000000000000000 ) ) ;
#328 = FACE_OUTER_BOUND ( 'NONE', #290, .T. ) ;
#329 = ORIENTED_EDGE ( 'NONE', *, *, #992, .T. ) ;
#330 = CIRCLE ( 'NONE', #346, 8.000000000000001776 ) ;
#331 = AXIS2_PLACEMENT_3D ( 'NONE', #1061, #320, #792 ) ;
#332 = DIRECTION ( 'NONE',  ( -0.8660254037844432595, -0.4999999999999919509, 0.000000000000000000 ) ) ;
#333 = EDGE_CURVE ( 'NONE', #379, #322, #509, .T. ) ;
#334 = AXIS2_PLACEMENT_3D ( 'NONE', #362, #762, #589 ) ;
#335 = DIRECTION ( 'NONE',  ( 0.000000000000000000, 0.000000000000000000, -1.000000000000000000 ) ) ;
#336 = VERTEX_POINT ( 'NONE', #777 ) ;
#337 = CARTESIAN_POINT ( 'NONE',  ( 77.36157892982389228, 16.00581473979458025, 1.482446204798369305 ) ) ;
#338 = CARTESIAN_POINT ( 'NONE',  ( -4.819347291981725512, -61.00000000000001421, 1.482446204798369305 ) ) ;
#339 = ORIENTED_EDGE ( 'NONE', *, *, #201, .T. ) ;
#340 = ORIENTED_EDGE ( 'NONE', *, *, #84, .F. ) ;
#341 = LINE ( 'NONE', #251, #639 ) ;
#342 = CARTESIAN_POINT ( 'NONE',  ( -79.00000000000000000, 0.000000000000000000, 22.00000000000000000 ) ) ;
#343 = ORIENTED_EDGE ( 'NONE', *, *, #969, .F. ) ;
#344 = ORIENTED_EDGE ( 'NONE', *, *, #441, .T. ) ;
#345 = CARTESIAN_POINT ( 'NONE',  ( -68.95190528383274398, 30.57179676972480209, 0.000000000000000000 ) ) ;
#346 = AXIS2_PLACEMENT_3D ( 'NONE', #626, #46, #527 ) ;
#347 = FACE_OUTER_BOUND ( 'NONE', #590, .T. ) ;
#348 = VECTOR ( 'NONE', #395, 999.9999999999998863 ) ;
#349 = CARTESIAN_POINT ( 'NONE',  ( 0.000000000000000000, -75.00000000000000000, -8.000000000000000000 ) ) ;
#350 = EDGE_LOOP ( 'NONE', ( #478, #177, #600, #678 ) ) ;
#351 = EDGE_CURVE ( 'NONE', #355, #424, #591, .T. ) ;
#352 = ORIENTED_EDGE ( 'NONE', *, *, #757, .F. ) ;
#353 = CARTESIAN_POINT ( 'NONE',  ( 0.000000000000000000, 79.00000000000000000, 0.000000000000000000 ) ) ;
#354 = DIRECTION ( 'NONE',  ( -0.8660254037844364872, 0.5000000000000041078, -0.000000000000000000 ) ) ;
#355 = VERTEX_POINT ( 'NONE', #426 ) ;
#356 = CARTESIAN_POINT ( 'NONE',  ( -44.67665288246055866, 44.61776729545974973, 1.482446204798371081 ) ) ;
#357 = DIRECTION ( 'NONE',  ( -0.5000000000000038858, -0.8660254037844364872, 0.000000000000000000 ) ) ;
#358 = DIRECTION ( 'NONE',  ( 1.000000000000000000, 0.000000000000000000, 0.000000000000000000 ) ) ;
#359 = ORIENTED_EDGE ( 'NONE', *, *, #480, .T. ) ;
#360 = EDGE_LOOP ( 'NONE', ( #12, #996, #73, #344, #580, #545 ) ) ;
#361 = CARTESIAN_POINT ( 'NONE',  ( -24.81934729198172462, -75.00000000000000000, 9.999988000000000099 ) ) ;
#362 = CARTESIAN_POINT ( 'NONE',  ( 4.819347291981725512, -74.99999999999997158, 1.482446204798369305 ) ) ;
#363 = EDGE_CURVE ( 'NONE', #970, #200, #48, .T. ) ;
#364 = AXIS2_PLACEMENT_3D ( 'NONE', #994, #169, #921 ) ;
#365 = LINE ( 'NONE', #423, #625 ) ;
#366 = COLOUR_RGB ( '',0.7921568627450980005, 0.8196078431372548767, 0.9333333333333333481 ) ;
#367 = LINE ( 'NONE', #941, #66 ) ;
#368 = AXIS2_PLACEMENT_3D ( 'NONE', #1069, #649, #995 ) ;
#369 = ORIENTED_EDGE ( 'NONE', *, *, #289, .F. ) ;
#370 = CARTESIAN_POINT ( 'NONE',  ( 87.72597645761484841, -59.88622042976128768, 0.000000000000000000 ) ) ;
#371 = DIRECTION ( 'NONE',  ( 0.000000000000000000, 0.000000000000000000, 1.000000000000000000 ) ) ;
#372 =( NAMED_UNIT ( * ) SI_UNIT ( $, .STERADIAN. ) SOLID_ANGLE_UNIT ( ) );
#373 = DIRECTION ( 'NONE',  ( -0.8660254037844364872, 0.5000000000000039968, 0.000000000000000000 ) ) ;
#374 = ORIENTED_EDGE ( 'NONE', *, *, #164, .F. ) ;
#375 = DIRECTION ( 'NONE',  ( 0.000000000000000000, 0.000000000000000000, -1.000000000000000000 ) ) ;
#376 = LINE ( 'NONE', #211, #574 ) ;
#377 = DIRECTION ( 'NONE',  ( -0.4999999999999920619, 0.8660254037844431485, 0.000000000000000000 ) ) ;
#378 = CARTESIAN_POINT ( 'NONE',  ( 79.31630281162391327, -74.45220245969042594, 1.482446204798369305 ) ) ;
#379 = VERTEX_POINT ( 'NONE', #276 ) ;
#380 = DIRECTION ( 'NONE',  ( -0.8660254037844433705, -0.4999999999999919509, 0.000000000000000000 ) ) ;
#381 = CARTESIAN_POINT ( 'NONE',  ( 89.31630281162398433, -57.13169438400169753, 1.482446204798369305 ) ) ;
#382 = DIRECTION ( 'NONE',  ( -0.8660254037844363761, 0.5000000000000039968, -0.000000000000000000 ) ) ;
#383 =( GEOMETRIC_REPRESENTATION_CONTEXT ( 3 ) GLOBAL_UNCERTAINTY_ASSIGNED_CONTEXT ( ( #274 ) ) GLOBAL_UNIT_ASSIGNED_CONTEXT ( ( #686, #193, #372 ) ) REPRESENTATION_CONTEXT ( 'NONE', 'WORKASPACE' ) );
#384 = ORIENTED_EDGE ( 'NONE', *, *, #1018, .F. ) ;
#385 = AXIS2_PLACEMENT_3D ( 'NONE', #739, #68, #832 ) ;
#386 = ADVANCED_FACE ( 'NONE', ( #939, #515 ), #436, .T. ) ;
#387 = LINE ( 'NONE', #715, #778 ) ;
#388 =( GEOMETRIC_REPRESENTATION_CONTEXT ( 3 ) GLOBAL_UNCERTAINTY_ASSIGNED_CONTEXT ( ( #695 ) ) GLOBAL_UNIT_ASSIGNED_CONTEXT ( ( #61, #717, #143 ) ) REPRESENTATION_CONTEXT ( 'NONE', 'WORKASPACE' ) );
#389 = CARTESIAN_POINT ( 'NONE',  ( 56.82754963085096023, 23.57179676972397075, 9.797174393178827630E-16 ) ) ;
#390 = FACE_OUTER_BOUND ( 'NONE', #397, .T. ) ;
#391 = VERTEX_POINT ( 'NONE', #882 ) ;
#392 = LINE ( 'NONE', #1048, #742 ) ;
#393 = LINE ( 'NONE', #223, #121 ) ;
#394 = ORIENTED_EDGE ( 'NONE', *, *, #867, .T. ) ;
#395 = DIRECTION ( 'NONE',  ( 0.8660254037844363761, -0.5000000000000039968, 0.000000000000000000 ) ) ;
#396 = EDGE_CURVE ( 'NONE', #701, #355, #796, .T. ) ;
#397 = EDGE_LOOP ( 'NONE', ( #539, #981, #1033, #268 ) ) ;
#398 = CIRCLE ( 'NONE', #278, 8.000000000000001776 ) ;
#399 = VECTOR ( 'NONE', #962, 1000.000000000000000 ) ;
#400 = CIRCLE ( 'NONE', #976, 79.00000000000000000 ) ;
#401 = CARTESIAN_POINT ( 'NONE',  ( 0.000000000000000000, 0.000000000000000000, 22.00000000000000000 ) ) ;
#402 = ORIENTED_EDGE ( 'NONE', *, *, #107, .T. ) ;
#403 = CARTESIAN_POINT ( 'NONE',  ( 65.23722327684170352, 9.005814739794711699, 10.00000000000000000 ) ) ;
#404 = FACE_OUTER_BOUND ( 'NONE', #845, .T. ) ;
#405 = ORIENTED_EDGE ( 'NONE', *, *, #270, .T. ) ;
#406 = LINE ( 'NONE', #903, #299 ) ;
#407 = CARTESIAN_POINT ( 'NONE',  ( 50.41787598486019562, 34.67367718451544079, -10.00000000000000355 ) ) ;
#408 = EDGE_LOOP ( 'NONE', ( #494, #669 ) ) ;
#409 = AXIS2_PLACEMENT_3D ( 'NONE', #894, #210, #129 ) ;
#410 = EDGE_CURVE ( 'NONE', #512, #322, #1020, .T. ) ;
#411 = AXIS2_PLACEMENT_3D ( 'NONE', #152, #1059, #141 ) ;
#412 = LINE ( 'NONE', #744, #29 ) ;
#413 = AXIS2_PLACEMENT_3D ( 'NONE', #338, #732, #335 ) ;
#414 = DIRECTION ( 'NONE',  ( 1.000000000000000000, 0.000000000000000000, -0.000000000000000000 ) ) ;
#415 = ORIENTED_EDGE ( 'NONE', *, *, #495, .F. ) ;
#416 = DIRECTION ( 'NONE',  ( -0.8660254037844363761, 0.5000000000000039968, -0.000000000000000000 ) ) ;
#417 = DIRECTION ( 'NONE',  ( -0.8660254037844363761, 0.5000000000000039968, -0.000000000000000000 ) ) ;
#418 = VERTEX_POINT ( 'NONE', #790 ) ;
#419 = ORIENTED_EDGE ( 'NONE', *, *, #895, .T. ) ;
#420 = CARTESIAN_POINT ( 'NONE',  ( -65.23722327684158984, 9.005814739795614088, 1.482446204798369305 ) ) ;
#421 = DIRECTION ( 'NONE',  ( 0.000000000000000000, 0.000000000000000000, -1.000000000000000000 ) ) ;
#422 = EDGE_CURVE ( 'NONE', #988, #483, #392, .T. ) ;
#423 = CARTESIAN_POINT ( 'NONE',  ( -64.95190528383274398, 37.50000000000030553, -10.00000000000000000 ) ) ;
#424 = VERTEX_POINT ( 'NONE', #467 ) ;
#425 = ORIENTED_EDGE ( 'NONE', *, *, #212, .F. ) ;
#426 = CARTESIAN_POINT ( 'NONE',  ( 24.81934729198172462, -74.99999999999994316, 10.00000000000000000 ) ) ;
#427 = AXIS2_PLACEMENT_3D ( 'NONE', #491, #1078, #835 ) ;
#428 = LINE ( 'NONE', #192, #243 ) ;
#429 = CIRCLE ( 'NONE', #208, 11.48244620479837153 ) ;
#430 = AXIS2_PLACEMENT_3D ( 'NONE', #517, #94, #605 ) ;
#431 = DIRECTION ( 'NONE',  ( -0.8660254037844433705, -0.4999999999999920064, -0.000000000000000000 ) ) ;
#432 = ORIENTED_EDGE ( 'NONE', *, *, #505, .T. ) ;
#433 = AXIS2_PLACEMENT_3D ( 'NONE', #308, #222, #808 ) ;
#434 = ADVANCED_FACE ( 'NONE', ( #50 ), #147, .F. ) ;
#435 = EDGE_LOOP ( 'NONE', ( #405, #86, #964, #810 ) ) ;
#436 = PLANE ( 'NONE',  #654 ) ;
#437 = DIRECTION ( 'NONE',  ( 1.000000000000000000, 0.000000000000000000, -0.000000000000000000 ) ) ;
#438 = CYLINDRICAL_SURFACE ( 'NONE', #798, 79.00000000000000000 ) ;
#439 = ORIENTED_EDGE ( 'NONE', *, *, #536, .T. ) ;
#440 = ORIENTED_EDGE ( 'NONE', *, *, #41, .T. ) ;
#441 = EDGE_CURVE ( 'NONE', #661, #787, #429, .T. ) ;
#442 = CARTESIAN_POINT ( 'NONE',  ( -24.81934729198172462, -75.00000000000000000, 22.00000000000000000 ) ) ;
#443 = CARTESIAN_POINT ( 'NONE',  ( 0.000000000000000000, 0.000000000000000000, 10.00000000000000000 ) ) ;
#444 = CARTESIAN_POINT ( 'NONE',  ( 91.72597645761487684, -52.95801719948579489, 0.000000000000000000 ) ) ;
#445 = VERTEX_POINT ( 'NONE', #979 ) ;
#446 = DIRECTION ( 'NONE',  ( -0.5000000000000039968, -0.8660254037844363761, 0.000000000000000000 ) ) ;
#447 = LINE ( 'NONE', #940, #713 ) ;
#448 = PRODUCT_RELATED_PRODUCT_CATEGORY ( 'part', '', ( #477 ) ) ;
#449 = DIRECTION ( 'NONE',  ( -0.000000000000000000, -0.000000000000000000, -1.000000000000000000 ) ) ;
#450 = CIRCLE ( 'NONE', #331, 8.000000000000001776 ) ;
#451 = FACE_BOUND ( 'NONE', #714, .T. ) ;
#452 = AXIS2_PLACEMENT_3D ( 'NONE', #496, #80, #668 ) ;
#453 = ORIENTED_EDGE ( 'NONE', *, *, #396, .F. ) ;
#454 = CIRCLE ( 'NONE', #433, 11.48244620479837153 ) ;
#455 = DIRECTION ( 'NONE',  ( -0.5000000000000039968, -0.8660254037844363761, 0.000000000000000000 ) ) ;
#456 = LINE ( 'NONE', #1037, #1076 ) ;
#457 = ADVANCED_FACE ( 'NONE', ( #229 ), #216, .T. ) ;
#458 = CARTESIAN_POINT ( 'NONE',  ( -89.31632156162450542, -57.13170520931782193, 1.482446204798369305 ) ) ;
#459 = ORIENTED_EDGE ( 'NONE', *, *, #1034, .F. ) ;
#460 = ORIENTED_EDGE ( 'NONE', *, *, #899, .T. ) ;
#461 = DIRECTION ( 'NONE',  ( 0.000000000000000000, 0.000000000000000000, -1.000000000000000000 ) ) ;
#462 = DIRECTION ( 'NONE',  ( -0.000000000000000000, -0.000000000000000000, -1.000000000000000000 ) ) ;
#463 = DIRECTION ( 'NONE',  ( -0.000000000000000000, -1.000000000000000000, -0.000000000000000000 ) ) ;
#464 = CARTESIAN_POINT ( 'NONE',  ( -62.54223163784185147, 41.67367718451620817, -10.00000000000000355 ) ) ;
#465 = EDGE_CURVE ( 'NONE', #200, #936, #99, .T. ) ;
#466 = ORIENTED_EDGE ( 'NONE', *, *, #692, .T. ) ;
#467 = CARTESIAN_POINT ( 'NONE',  ( 24.81934729198172462, -60.99999999999995737, 10.00000000000000000 ) ) ;
#468 = DIRECTION ( 'NONE',  ( -0.5000000000000039968, -0.8660254037844363761, 0.000000000000000000 ) ) ;
#469 = DIRECTION ( 'NONE',  ( 0.000000000000000000, 0.000000000000000000, 1.000000000000000000 ) ) ;
#470 = DIRECTION ( 'NONE',  ( 0.8660254037844433705, 0.4999999999999919509, -0.000000000000000000 ) ) ;
#471 = CIRCLE ( 'NONE', #671, 11.48244620479837685 ) ;
#472 = AXIS2_PLACEMENT_3D ( 'NONE', #135, #795, #965 ) ;
#473 = EDGE_LOOP ( 'NONE', ( #1019, #794, #741, #23 ) ) ;
#474 = EDGE_CURVE ( 'NONE', #661, #834, #387, .T. ) ;
#475 = LINE ( 'NONE', #878, #556 ) ;
#476 = DIRECTION ( 'NONE',  ( 1.000000000000000000, 0.000000000000000000, 0.000000000000000000 ) ) ;
#477 = PRODUCT ( 'Plate', 'Plate', '', ( #57 ) ) ;
#478 = ORIENTED_EDGE ( 'NONE', *, *, #899, .F. ) ;
#479 = DIRECTION ( 'NONE',  ( 0.8660254037844432595, 0.4999999999999918954, -0.000000000000000000 ) ) ;
#480 = EDGE_CURVE ( 'NONE', #787, #336, #221, .T. ) ;
#481 = CARTESIAN_POINT ( 'NONE',  ( -56.80100853544259110, 51.61776729545978526, 1.482446204798371081 ) ) ;
#482 = CARTESIAN_POINT ( 'NONE',  ( 0.000000000000000000, 0.000000000000000000, 10.00000000000000000 ) ) ;
#483 = VERTEX_POINT ( 'NONE', #1054 ) ;
#484 = PLANE ( 'NONE',  #488 ) ;
#485 = ORIENTED_EDGE ( 'NONE', *, *, #788, .F. ) ;
#486 = CIRCLE ( 'NONE', #11, 79.00000000000000000 ) ;
#487 = AXIS2_PLACEMENT_3D ( 'NONE', #971, #37, #318 ) ;
#488 = AXIS2_PLACEMENT_3D ( 'NONE', #401, #653, #414 ) ;
#489 = DIRECTION ( 'NONE',  ( 1.000000000000000000, 0.000000000000000000, 0.000000000000000000 ) ) ;
#490 = ORIENTED_EDGE ( 'NONE', *, *, #495, .T. ) ;
#491 = CARTESIAN_POINT ( 'NONE',  ( 0.000000000000000000, 0.000000000000000000, -10.00000000000000000 ) ) ;
#492 = DIRECTION ( 'NONE',  ( -0.5000000000000039968, -0.8660254037844363761, 0.000000000000000000 ) ) ;
#493 = EDGE_CURVE ( 'NONE', #952, #275, #317, .T. ) ;
#494 = ORIENTED_EDGE ( 'NONE', *, *, #410, .F. ) ;
#495 = EDGE_CURVE ( 'NONE', #720, #558, #1002, .T. ) ;
#496 = CARTESIAN_POINT ( 'NONE',  ( 0.000000000000000000, 0.000000000000000000, 22.00000000000000000 ) ) ;
#497 = ORIENTED_EDGE ( 'NONE', *, *, #1026, .F. ) ;
#498 = VECTOR ( 'NONE', #53, 1000.000000000000000 ) ;
#499 = EDGE_CURVE ( 'NONE', #936, #770, #560, .T. ) ;
#500 = AXIS2_PLACEMENT_3D ( 'NONE', #824, #913, #576 ) ;
#501 = CYLINDRICAL_SURFACE ( 'NONE', #1062, 8.000000000000001776 ) ;
#502 = VERTEX_POINT ( 'NONE', #234 ) ;
#503 = ORIENTED_EDGE ( 'NONE', *, *, #584, .F. ) ;
#504 = FACE_OUTER_BOUND ( 'NONE', #789, .T. ) ;
#505 = EDGE_CURVE ( 'NONE', #864, #901, #571, .T. ) ;
#506 = CARTESIAN_POINT ( 'NONE',  ( -50.41787598485974087, 34.67367718451613712, -10.00000000000000000 ) ) ;
#507 = EDGE_LOOP ( 'NONE', ( #2, #1, #523, #42 ) ) ;
#508 = VERTEX_POINT ( 'NONE', #702 ) ;
#509 = LINE ( 'NONE', #860, #514 ) ;
#510 = CARTESIAN_POINT ( 'NONE',  ( 0.000000000000000000, -61.00000000000001421, 0.000000000000000000 ) ) ;
#511 = EDGE_CURVE ( 'NONE', #901, #424, #1036, .T. ) ;
#512 = VERTEX_POINT ( 'NONE', #349 ) ;
#513 = ORIENTED_EDGE ( 'NONE', *, *, #279, .F. ) ;
#514 = VECTOR ( 'NONE', #115, 1000.000000000000000 ) ;
#515 = FACE_OUTER_BOUND ( 'NONE', #818, .T. ) ;
#516 = CIRCLE ( 'NONE', #641, 8.517553795201633804 ) ;
#517 = CARTESIAN_POINT ( 'NONE',  ( 24.81934729198172462, -60.99999999999998579, 1.482446204798369305 ) ) ;
#518 = CIRCLE ( 'NONE', #51, 79.00000000000000000 ) ;
#519 = CARTESIAN_POINT ( 'NONE',  ( 0.000000000000000000, 0.000000000000000000, 22.00000000000000000 ) ) ;
#520 = ORIENTED_EDGE ( 'NONE', *, *, #505, .F. ) ;
#521 = ADVANCED_FACE ( 'NONE', ( #782 ), #945, .T. ) ;
#522 = PRODUCT_DEFINITION_CONTEXT ( 'detailed design', #551, 'design' ) ;
#523 = ORIENTED_EDGE ( 'NONE', *, *, #116, .T. ) ;
#524 = DIRECTION ( 'NONE',  ( -0.000000000000000000, -1.000000000000000000, -0.000000000000000000 ) ) ;
#525 = CYLINDRICAL_SURFACE ( 'NONE', #627, 11.48244620479837153 ) ;
#526 = CARTESIAN_POINT ( 'NONE',  ( 4.819347291981725512, -60.99999999999998579, 1.482446204798369305 ) ) ;
#527 = DIRECTION ( 'NONE',  ( -0.4999999999999916733, 0.8660254037844434816, 0.000000000000000000 ) ) ;
#528 = ORIENTED_EDGE ( 'NONE', *, *, #164, .T. ) ;
#529 = EDGE_CURVE ( 'NONE', #642, #833, #156, .T. ) ;
#530 = CARTESIAN_POINT ( 'NONE',  ( 83.57507970922475238, -67.07578449494528172, 1.482446204798371081 ) ) ;
#531 = CARTESIAN_POINT ( 'NONE',  ( 4.819347291981725512, 79.00002499999999372, 1.482446204798369305 ) ) ;
#532 = FACE_OUTER_BOUND ( 'NONE', #889, .T. ) ;
#533 = ORIENTED_EDGE ( 'NONE', *, *, #351, .F. ) ;
#534 = ORIENTED_EDGE ( 'NONE', *, *, #780, .T. ) ;
#535 = CARTESIAN_POINT ( 'NONE',  ( 52.54223163784257622, 58.99418526020419762, 22.00000000000000000 ) ) ;
#536 = EDGE_CURVE ( 'NONE', #747, #558, #928, .T. ) ;
#537 = VECTOR ( 'NONE', #854, 999.9999999999998863 ) ;
#538 = FACE_OUTER_BOUND ( 'NONE', #435, .T. ) ;
#539 = ORIENTED_EDGE ( 'NONE', *, *, #326, .F. ) ;
#540 = MANIFOLD_SOLID_BREP ( 'Body-Move/Copy1', #935 ) ;
#541 = VERTEX_POINT ( 'NONE', #280 ) ;
#542 = CYLINDRICAL_SURFACE ( 'NONE', #920, 79.00000000000000000 ) ;
#543 = EDGE_CURVE ( 'NONE', #864, #239, #773, .T. ) ;
#544 = FACE_BOUND ( 'NONE', #906, .T. ) ;
#545 = ORIENTED_EDGE ( 'NONE', *, *, #72, .T. ) ;
#546 = CARTESIAN_POINT ( 'NONE',  ( -94.13566885360613412, -48.78435084028594559, 1.482446204798369305 ) ) ;
#547 = LINE ( 'NONE', #797, #691 ) ;
#548 = CYLINDRICAL_SURFACE ( 'NONE', #67, 8.517553795201633804 ) ;
#549 = EDGE_LOOP ( 'NONE', ( #682, #917, #520, #1077 ) ) ;
#550 = ORIENTED_EDGE ( 'NONE', *, *, #333, .F. ) ;
#551 = APPLICATION_CONTEXT ( 'automotive_design' ) ;
#552 = DIRECTION ( 'NONE',  ( 0.8660254037844432595, 0.4999999999999918954, -0.000000000000000000 ) ) ;
#553 = DIRECTION ( 'NONE',  ( -0.8660254037844432595, -0.4999999999999918954, 0.000000000000000000 ) ) ;
#554 = DIRECTION ( 'NONE',  ( 1.000000000000000000, 0.000000000000000000, 0.000000000000000000 ) ) ;
#555 = AXIS2_PLACEMENT_3D ( 'NONE', #879, #298, #783 ) ;
#556 = VECTOR ( 'NONE', #553, 1000.000000000000227 ) ;
#557 = ADVANCED_FACE ( 'NONE', ( #532 ), #608, .F. ) ;
#558 = VERTEX_POINT ( 'NONE', #292 ) ;
#559 = AXIS2_PLACEMENT_3D ( 'NONE', #1043, #708, #303 ) ;
#560 = LINE ( 'NONE', #60, #348 ) ;
#561 = APPLICATION_PROTOCOL_DEFINITION ( 'draft international standard', 'automotive_design', 1998, #551 ) ;
#562 = CARTESIAN_POINT ( 'NONE',  ( -99.87689195600523817, -38.84026072934229035, 1.482446204798371081 ) ) ;
#563 = VERTEX_POINT ( 'NONE', #21 ) ;
#564 = DIRECTION ( 'NONE',  ( 0.000000000000000000, -1.000000000000000000, 0.000000000000000000 ) ) ;
#565 = CARTESIAN_POINT ( 'NONE',  ( 0.000000000000000000, 79.00000000000000000, 0.000000000000000000 ) ) ;
#566 = ORIENTED_EDGE ( 'NONE', *, *, #733, .T. ) ;
#567 = EDGE_CURVE ( 'NONE', #712, #720, #516, .T. ) ;
#568 = CYLINDRICAL_SURFACE ( 'NONE', #385, 79.00000000000000000 ) ;
#569 = AXIS2_PLACEMENT_3D ( 'NONE', #35, #373, #694 ) ;
#570 = VERTEX_POINT ( 'NONE', #933 ) ;
#571 = CIRCLE ( 'NONE', #955, 8.517553795201630251 ) ;
#572 = AXIS2_PLACEMENT_3D ( 'NONE', #244, #252, #492 ) ;
#573 = LINE ( 'NONE', #247, #227 ) ;
#574 = VECTOR ( 'NONE', #956, 1000.000000000000114 ) ;
#575 = EDGE_CURVE ( 'NONE', #988, #1010, #281, .T. ) ;
#576 = DIRECTION ( 'NONE',  ( -0.5000000000000038858, -0.8660254037844364872, 0.000000000000000000 ) ) ;
#577 = VERTEX_POINT ( 'NONE', #837 ) ;
#578 = CARTESIAN_POINT ( 'NONE',  ( 0.000000000000000000, -75.00000000000000000, -10.00000000000000000 ) ) ;
#579 = DIRECTION ( 'NONE',  ( 1.000000000000000000, 0.000000000000000000, 0.000000000000000000 ) ) ;
#580 = ORIENTED_EDGE ( 'NONE', *, *, #997, .T. ) ;
#581 = CARTESIAN_POINT ( 'NONE',  ( -4.819347291981725512, -61.00000000000000000, -10.00000000000000000 ) ) ;
#582 = PLANE ( 'NONE',  #31 ) ;
#583 = ORIENTED_EDGE ( 'NONE', *, *, #422, .F. ) ;
#584 = EDGE_CURVE ( 'NONE', #59, #970, #365, .T. ) ;
#585 = ORIENTED_EDGE ( 'NONE', *, *, #692, .F. ) ;
#586 = VECTOR ( 'NONE', #446, 999.9999999999998863 ) ;
#587 = VECTOR ( 'NONE', #967, 1000.000000000000000 ) ;
#588 = AXIS2_PLACEMENT_3D ( 'NONE', #820, #750, #4 ) ;
#589 = DIRECTION ( 'NONE',  ( 0.000000000000000000, 0.000000000000000000, -1.000000000000000000 ) ) ;
#590 = EDGE_LOOP ( 'NONE', ( #583, #647, #915, #839 ) ) ;
#591 = LINE ( 'NONE', #840, #1073 ) ;
#592 = ADVANCED_FACE ( 'NONE', ( #850 ), #438, .T. ) ;
#593 = DIRECTION ( 'NONE',  ( -0.000000000000000000, -0.000000000000000000, -1.000000000000000000 ) ) ;
#594 = DIRECTION ( 'NONE',  ( 0.000000000000000000, 0.000000000000000000, -1.000000000000000000 ) ) ;
#595 = ORIENTED_EDGE ( 'NONE', *, *, #201, .F. ) ;
#596 = VERTEX_POINT ( 'NONE', #10 ) ;
#597 = CARTESIAN_POINT ( 'NONE',  ( 0.000000000000000000, -61.00000000000001421, -8.000000000000000000 ) ) ;
#598 = DIRECTION ( 'NONE',  ( -0.000000000000000000, -1.000000000000000000, -0.000000000000000000 ) ) ;
#599 = ADVANCED_FACE ( 'NONE', ( #676 ), #1008, .T. ) ;
#600 = ORIENTED_EDGE ( 'NONE', *, *, #326, .T. ) ;
#601 = ORIENTED_EDGE ( 'NONE', *, *, #62, .T. ) ;
#602 = AXIS2_PLACEMENT_3D ( 'NONE', #793, #719, #28 ) ;
#603 = CARTESIAN_POINT ( 'NONE',  ( -64.95190528383274398, 37.50000000000030553, 22.00000000000000000 ) ) ;
#604 = AXIS2_PLACEMENT_3D ( 'NONE', #862, #90, #187 ) ;
#605 = DIRECTION ( 'NONE',  ( 0.000000000000000000, 0.000000000000000000, -1.000000000000000000 ) ) ;
#606 = VECTOR ( 'NONE', #891, 1000.000000000000000 ) ;
#607 = ADVANCED_FACE ( 'NONE', ( #126 ), #232, .F. ) ;
#608 = CYLINDRICAL_SURFACE ( 'NONE', #241, 8.000000000000001776 ) ;
#609 = CARTESIAN_POINT ( 'NONE',  ( -4.819347291981725512, 79.00000000000000000, -10.00000000000000000 ) ) ;
#610 = ORIENTED_EDGE ( 'NONE', *, *, #867, .F. ) ;
#611 = DIRECTION ( 'NONE',  ( 0.000000000000000000, 0.000000000000000000, 1.000000000000000000 ) ) ;
#612 = CYLINDRICAL_SURFACE ( 'NONE', #319, 8.517553795201626698 ) ;
#613 = DIRECTION ( 'NONE',  ( -0.000000000000000000, -1.000000000000000000, -0.000000000000000000 ) ) ;
#614 = DIRECTION ( 'NONE',  ( -0.8660254037844363761, 0.5000000000000039968, -0.000000000000000000 ) ) ;
#615 = ORIENTED_EDGE ( 'NONE', *, *, #640, .F. ) ;
#616 = LINE ( 'NONE', #603, #586 ) ;
#617 = DIRECTION ( 'NONE',  ( -0.000000000000000000, -0.000000000000000000, 1.000000000000000000 ) ) ;
#618 = DIRECTION ( 'NONE',  ( -0.000000000000000000, -0.000000000000000000, -1.000000000000000000 ) ) ;
#619 = ORIENTED_EDGE ( 'NONE', *, *, #567, .F. ) ;
#620 = ORIENTED_EDGE ( 'NONE', *, *, #474, .T. ) ;
#621 = EDGE_CURVE ( 'NONE', #300, #188, #450, .T. ) ;
#622 = LINE ( 'NONE', #629, #743 ) ;
#623 = VECTOR ( 'NONE', #1011, 999.9999999999998863 ) ;
#624 = DIRECTION ( 'NONE',  ( 0.000000000000000000, 0.000000000000000000, -1.000000000000000000 ) ) ;
#625 = VECTOR ( 'NONE', #266, 999.9999999999998863 ) ;
#626 = CARTESIAN_POINT ( 'NONE',  ( 64.95190528383321293, 37.49999999999936762, 0.000000000000000000 ) ) ;
#627 = AXIS2_PLACEMENT_3D ( 'NONE', #531, #598, #421 ) ;
#628 = EDGE_LOOP ( 'NONE', ( #425, #677, #369, #92, #134, #7 ) ) ;
#629 = CARTESIAN_POINT ( 'NONE',  ( -24.81934729198172462, -75.00000000000000000, 9.999988000000000099 ) ) ;
#630 = CARTESIAN_POINT ( 'NONE',  ( -24.81934729198172462, 0.000000000000000000, 10.00000000000000000 ) ) ;
#631 = ORIENTED_EDGE ( 'NONE', *, *, #895, .F. ) ;
#632 = ORIENTED_EDGE ( 'NONE', *, *, #911, .T. ) ;
#633 = EDGE_CURVE ( 'NONE', #445, #661, #475, .T. ) ;
#634 = DIRECTION ( 'NONE',  ( 0.8660254037844432595, 0.4999999999999918954, -0.000000000000000000 ) ) ;
#635 = CARTESIAN_POINT ( 'NONE',  ( 12.40967364599096534, 21.49418526020463460, 10.00000000000000000 ) ) ;
#636 = ORIENTED_EDGE ( 'NONE', *, *, #321, .F. ) ;
#637 = DIRECTION ( 'NONE',  ( -0.5000000000000039968, -0.8660254037844363761, 0.000000000000000000 ) ) ;
#638 = CARTESIAN_POINT ( 'NONE',  ( -4.819347291981725512, -75.00000000000000000, 1.482446204798369305 ) ) ;
#639 = VECTOR ( 'NONE', #332, 1000.000000000000000 ) ;
#640 = EDGE_CURVE ( 'NONE', #1040, #273, #81, .T. ) ;
#641 = AXIS2_PLACEMENT_3D ( 'NONE', #1032, #431, #272 ) ;
#642 = VERTEX_POINT ( 'NONE', #646 ) ;
#643 = ADVANCED_FACE ( 'NONE', ( #980 ), #548, .F. ) ;
#644 = CIRCLE ( 'NONE', #334, 11.48244620479837153 ) ;
#645 = CARTESIAN_POINT ( 'NONE',  ( 55.23722327684185984, 26.32632281548357511, 1.482446204798369305 ) ) ;
#646 = CARTESIAN_POINT ( 'NONE',  ( 44.67665288246114130, 44.61776729545912445, 1.482446204798371081 ) ) ;
#647 = ORIENTED_EDGE ( 'NONE', *, *, #575, .T. ) ;
#648 = EDGE_CURVE ( 'NONE', #596, #188, #886, .T. ) ;
#649 = DIRECTION ( 'NONE',  ( 0.000000000000000000, 0.000000000000000000, 1.000000000000000000 ) ) ;
#650 = EDGE_LOOP ( 'NONE', ( #528, #821, #1015, #359 ) ) ;
#651 = EDGE_CURVE ( 'NONE', #119, #988, #718, .T. ) ;
#652 = DIRECTION ( 'NONE',  ( 0.8660254037844363761, -0.5000000000000039968, 0.000000000000000000 ) ) ;
#653 = DIRECTION ( 'NONE',  ( 0.000000000000000000, 0.000000000000000000, 1.000000000000000000 ) ) ;
#654 = AXIS2_PLACEMENT_3D ( 'NONE', #697, #1030, #55 ) ;
#655 = EDGE_LOOP ( 'NONE', ( #688, #929, #14, #687 ) ) ;
#656 = AXIS2_PLACEMENT_3D ( 'NONE', #785, #312, #637 ) ;
#657 = CIRCLE ( 'NONE', #142, 8.517553795201633804 ) ;
#658 = CARTESIAN_POINT ( 'NONE',  ( -73.10280203222284001, 23.38223270454081160, 1.482446204798371081 ) ) ;
#659 = CARTESIAN_POINT ( 'NONE',  ( 91.72597645761487684, -52.95801719948579489, 0.000000000000000000 ) ) ;
#660 = ADVANCED_FACE ( 'NONE', ( #538 ), #58, .T. ) ;
#661 = VERTEX_POINT ( 'NONE', #786 ) ;
#662 = DIRECTION ( 'NONE',  ( 0.8660254037844433705, 0.4999999999999920064, 0.000000000000000000 ) ) ;
#663 = CYLINDRICAL_SURFACE ( 'NONE', #816, 8.000000000000000000 ) ;
#664 = EDGE_CURVE ( 'NONE', #261, #512, #39, .T. ) ;
#665 = ORIENTED_EDGE ( 'NONE', *, *, #107, .F. ) ;
#666 = EDGE_LOOP ( 'NONE', ( #340, #1047, #173, #513 ) ) ;
#667 = CARTESIAN_POINT ( 'NONE',  ( -60.95190528383270845, 44.42820323027579121, 9.797174393178825657E-16 ) ) ;
#668 = DIRECTION ( 'NONE',  ( 1.000000000000000000, 0.000000000000000000, 0.000000000000000000 ) ) ;
#669 = ORIENTED_EDGE ( 'NONE', *, *, #116, .F. ) ;
#670 = ORIENTED_EDGE ( 'NONE', *, *, #905, .T. ) ;
#671 = AXIS2_PLACEMENT_3D ( 'NONE', #943, #1006, #24 ) ;
#672 = AXIS2_PLACEMENT_3D ( 'NONE', #458, #634, #52 ) ;
#673 = LINE ( 'NONE', #530, #623 ) ;
#674 = AXIS2_PLACEMENT_3D ( 'NONE', #197, #685, #258 ) ;
#675 = CARTESIAN_POINT ( 'NONE',  ( -16.30179349678009970, -61.00000000000001421, 1.482446204798371081 ) ) ;
#676 = FACE_OUTER_BOUND ( 'NONE', #1009, .T. ) ;
#677 = ORIENTED_EDGE ( 'NONE', *, *, #1003, .F. ) ;
#678 = ORIENTED_EDGE ( 'NONE', *, *, #363, .F. ) ;
#679 = LINE ( 'NONE', #370, #537 ) ;
#680 = SURFACE_STYLE_USAGE ( .BOTH. , #112 ) ;
#681 = ORIENTED_EDGE ( 'NONE', *, *, #724, .F. ) ;
#682 = ORIENTED_EDGE ( 'NONE', *, *, #254, .T. ) ;
#683 = LINE ( 'NONE', #931, #984 ) ;
#684 = EDGE_CURVE ( 'NONE', #720, #833, #393, .T. ) ;
#685 = DIRECTION ( 'NONE',  ( 0.8660254037844432595, 0.4999999999999918954, -0.000000000000000000 ) ) ;
#686 =( LENGTH_UNIT ( ) NAMED_UNIT ( * ) SI_UNIT ( .MILLI., .METRE. ) );
#687 = ORIENTED_EDGE ( 'NONE', *, *, #62, .F. ) ;
#688 = ORIENTED_EDGE ( 'NONE', *, *, #1050, .F. ) ;
#689 = LINE ( 'NONE', #442, #206 ) ;
#690 = DIRECTION ( 'NONE',  ( 1.000000000000000000, 0.000000000000000000, 0.000000000000000000 ) ) ;
#691 = VECTOR ( 'NONE', #966, 1000.000000000000227 ) ;
#692 = EDGE_CURVE ( 'NONE', #802, #239, #730, .T. ) ;
#693 = FILL_AREA_STYLE_COLOUR ( '', #366 ) ;
#694 = DIRECTION ( 'NONE',  ( -0.5000000000000037748, -0.8660254037844364872, 0.000000000000000000 ) ) ;
#695 = UNCERTAINTY_MEASURE_WITH_UNIT (LENGTH_MEASURE( 1.000000000000000082E-05 ), #61, 'distance_accuracy_value', 'NONE');
#696 = ORIENTED_EDGE ( 'NONE', *, *, #309, .T. ) ;
#697 = CARTESIAN_POINT ( 'NONE',  ( 77.36157892982389228, 16.00581473979459446, -10.00005499999997483 ) ) ;
#698 = DIRECTION ( 'NONE',  ( -0.000000000000000000, -0.000000000000000000, -1.000000000000000000 ) ) ;
#699 = CARTESIAN_POINT ( 'NONE',  ( 77.36157892982387807, 16.00581473979456604, 10.00000000000000000 ) ) ;
#700 = ADVANCED_FACE ( 'NONE', ( #723 ), #297, .T. ) ;
#701 = VERTEX_POINT ( 'NONE', #710 ) ;
#702 = CARTESIAN_POINT ( 'NONE',  ( -56.82754963085071154, 23.57179676972477012, 0.000000000000000000 ) ) ;
#703 = DIRECTION ( 'NONE',  ( -0.8660254037844363761, 0.5000000000000039968, -0.000000000000000000 ) ) ;
#704 = DIRECTION ( 'NONE',  ( 0.000000000000000000, 1.000000000000000000, 0.000000000000000000 ) ) ;
#705 = ORIENTED_EDGE ( 'NONE', *, *, #780, .F. ) ;
#706 = EDGE_CURVE ( 'NONE', #418, #901, #1057, .T. ) ;
#707 = VECTOR ( 'NONE', #256, 1000.000000000000227 ) ;
#708 = DIRECTION ( 'NONE',  ( 0.000000000000000000, -1.000000000000000000, 0.000000000000000000 ) ) ;
#709 = VECTOR ( 'NONE', #856, 1000.000000000000000 ) ;
#710 = CARTESIAN_POINT ( 'NONE',  ( 16.30179349678009970, -74.99999999999991473, 1.482446204798371081 ) ) ;
#711 = VECTOR ( 'NONE', #33, 1000.000000000000000 ) ;
#712 = VERTEX_POINT ( 'NONE', #314 ) ;
#713 = VECTOR ( 'NONE', #848, 999.9999999999998863 ) ;
#714 = EDGE_LOOP ( 'NONE', ( #127, #731 ) ) ;
#715 = CARTESIAN_POINT ( 'NONE',  ( 52.82754963085103839, 30.49999999999950617, -10.00000000000000000 ) ) ;
#716 = EDGE_CURVE ( 'NONE', #642, #712, #975, .T. ) ;
#717 =( NAMED_UNIT ( * ) PLANE_ANGLE_UNIT ( ) SI_UNIT ( $, .RADIAN. ) );
#718 = LINE ( 'NONE', #310, #974 ) ;
#719 = DIRECTION ( 'NONE',  ( 0.8660254037844433705, 0.4999999999999920064, 0.000000000000000000 ) ) ;
#720 = VERTEX_POINT ( 'NONE', #150 ) ;
#721 = DIRECTION ( 'NONE',  ( -0.4999999999999918954, 0.8660254037844433705, 0.000000000000000000 ) ) ;
#722 = LINE ( 'NONE', #868, #606 ) ;
#723 = FACE_OUTER_BOUND ( 'NONE', #350, .T. ) ;
#724 = EDGE_CURVE ( 'NONE', #936, #30, #828, .T. ) ;
#725 = APPLICATION_CONTEXT ( 'automotive_design' ) ;
#726 = ORIENTED_EDGE ( 'NONE', *, *, #279, .T. ) ;
#727 = CARTESIAN_POINT ( 'NONE',  ( -24.81934729198172462, -61.00000000000001421, 1.482446204798369305 ) ) ;
#728 = CIRCLE ( 'NONE', #257, 8.517553795201630251 ) ;
#729 = ADVANCED_FACE ( 'NONE', ( #404 ), #501, .F. ) ;
#730 = CIRCLE ( 'NONE', #259, 11.48244620479837153 ) ;
#731 = ORIENTED_EDGE ( 'NONE', *, *, #84, .T. ) ;
#732 = DIRECTION ( 'NONE',  ( -0.000000000000000000, 1.000000000000000000, -0.000000000000000000 ) ) ;
#733 = EDGE_CURVE ( 'NONE', #1021, #577, #902, .T. ) ;
#734 = ORIENTED_EDGE ( 'NONE', *, *, #716, .F. ) ;
#735 = LINE ( 'NONE', #88, #707 ) ;
#736 = CARTESIAN_POINT ( 'NONE',  ( 60.97844637924096389, 16.38223270453991631, 1.482446204798371081 ) ) ;
#737 = ORIENTED_EDGE ( 'NONE', *, *, #724, .T. ) ;
#738 = PLANE ( 'NONE',  #427 ) ;
#739 = CARTESIAN_POINT ( 'NONE',  ( 0.000000000000000000, 0.000000000000000000, 22.00000000000000000 ) ) ;
#740 = VECTOR ( 'NONE', #476, 1000.000000000000000 ) ;
#741 = ORIENTED_EDGE ( 'NONE', *, *, #803, .F. ) ;
#742 = VECTOR ( 'NONE', #43, 1000.000000000000000 ) ;
#743 = VECTOR ( 'NONE', #617, 1000.000000000000000 ) ;
#744 = CARTESIAN_POINT ( 'NONE',  ( 24.81934729198172462, -75.00000000000000000, 9.999988000000000099 ) ) ;
#745 = ADVANCED_FACE ( 'NONE', ( #898 ), #568, .T. ) ;
#746 = FACE_OUTER_BOUND ( 'NONE', #758, .T. ) ;
#747 = VERTEX_POINT ( 'NONE', #158 ) ;
#748 = ORIENTED_EDGE ( 'NONE', *, *, #410, .T. ) ;
#749 = CARTESIAN_POINT ( 'NONE',  ( 0.000000000000000000, 0.000000000000000000, -10.00000000000000000 ) ) ;
#750 = DIRECTION ( 'NONE',  ( 0.8660254037844433705, 0.4999999999999919509, -0.000000000000000000 ) ) ;
#751 = EDGE_LOOP ( 'NONE', ( #91, #163, #329, #225 ) ) ;
#752 = DIRECTION ( 'NONE',  ( -0.5000000000000036637, -0.8660254037844364872, 0.000000000000000000 ) ) ;
#753 = CARTESIAN_POINT ( 'NONE',  ( -67.36157892982362227, 33.32632281548439579, -10.00000000000000000 ) ) ;
#754 = ADVANCED_BREP_SHAPE_REPRESENTATION ( 'Plate', ( #540, #849 ), #388 ) ;
#755 = DIRECTION ( 'NONE',  ( 0.8660254037844432595, 0.4999999999999918954, -0.000000000000000000 ) ) ;
#756 = ORIENTED_EDGE ( 'NONE', *, *, #757, .T. ) ;
#757 = EDGE_CURVE ( 'NONE', #355, #106, #400, .T. ) ;
#758 = EDGE_LOOP ( 'NONE', ( #284, #897, #497, #54, #439, #983, #246, #893 ) ) ;
#759 = CIRCLE ( 'NONE', #569, 8.000000000000001776 ) ;
#760 = DIRECTION ( 'NONE',  ( -0.8660254037844364872, 0.5000000000000041078, -0.000000000000000000 ) ) ;
#761 = CIRCLE ( 'NONE', #500, 8.517553795201626698 ) ;
#762 = DIRECTION ( 'NONE',  ( 0.000000000000000000, -1.000000000000000000, 0.000000000000000000 ) ) ;
#763 = CARTESIAN_POINT ( 'NONE',  ( -52.54223163784174488, 58.99418526020492948, 22.00000000000000000 ) ) ;
#764 = ORIENTED_EDGE ( 'NONE', *, *, #621, .F. ) ;
#765 = EDGE_CURVE ( 'NONE', #273, #391, #918, .T. ) ;
#766 = EDGE_LOOP ( 'NONE', ( #18, #875, #665, #114 ) ) ;
#767 = CARTESIAN_POINT ( 'NONE',  ( -16.30179349678009970, -75.00000000000000000, 1.482446204798371081 ) ) ;
#768 = LINE ( 'NONE', #277, #1005 ) ;
#769 = CARTESIAN_POINT ( 'NONE',  ( 0.000000000000000000, 0.000000000000000000, 22.00000000000000000 ) ) ;
#770 = VERTEX_POINT ( 'NONE', #238 ) ;
#771 = CARTESIAN_POINT ( 'NONE',  ( 9.797174393178825657E-16, -75.00000000000000000, 8.000000000000000000 ) ) ;
#772 = CARTESIAN_POINT ( 'NONE',  ( -24.81934729198172462, -61.00000000000000711, 10.00000000000000000 ) ) ;
#773 = LINE ( 'NONE', #105, #709 ) ;
#774 = DIRECTION ( 'NONE',  ( -0.8660254037844363761, 0.5000000000000039968, -0.000000000000000000 ) ) ;
#775 = ORIENTED_EDGE ( 'NONE', *, *, #132, .T. ) ;
#776 = AXIS2_PLACEMENT_3D ( 'NONE', #361, #179, #202 ) ;
#777 = CARTESIAN_POINT ( 'NONE',  ( 73.10280203222313844, 23.38223270453977065, 1.482446204798371081 ) ) ;
#778 = VECTOR ( 'NONE', #307, 1000.000000000000000 ) ;
#779 = DIRECTION ( 'NONE',  ( 0.8660254037844432595, 0.4999999999999918954, -0.000000000000000000 ) ) ;
#780 = EDGE_CURVE ( 'NONE', #262, #541, #209, .T. ) ;
#781 = CIRCLE ( 'NONE', #452, 79.00000000000000000 ) ;
#782 = FACE_OUTER_BOUND ( 'NONE', #65, .T. ) ;
#783 = DIRECTION ( 'NONE',  ( -0.5000000000000038858, -0.8660254037844363761, 0.000000000000000000 ) ) ;
#784 = ORIENTED_EDGE ( 'NONE', *, *, #499, .T. ) ;
#785 = CARTESIAN_POINT ( 'NONE',  ( -50.41787598485973376, 34.67367718451614422, 1.482446204798369305 ) ) ;
#786 = CARTESIAN_POINT ( 'NONE',  ( 55.23722327684185984, 26.32632281548358222, -10.00000000000000000 ) ) ;
#787 = VERTEX_POINT ( 'NONE', #736 ) ;
#788 = EDGE_CURVE ( 'NONE', #273, #30, #71, .T. ) ;
#789 = EDGE_LOOP ( 'NONE', ( #620, #139, #384, #128 ) ) ;
#790 = CARTESIAN_POINT ( 'NONE',  ( -24.81934729198172462, -75.00000000000000000, 10.00000000000000000 ) ) ;
#791 = CARTESIAN_POINT ( 'NONE',  ( 0.000000000000000000, 0.000000000000000000, 0.000000000000000000 ) ) ;
#792 = DIRECTION ( 'NONE',  ( -0.5000000000000037748, -0.8660254037844364872, 0.000000000000000000 ) ) ;
#793 = CARTESIAN_POINT ( 'NONE',  ( 62.54223163784241990, 41.67367718451531999, 1.482446204798369305 ) ) ;
#794 = ORIENTED_EDGE ( 'NONE', *, *, #125, .T. ) ;
#795 = DIRECTION ( 'NONE',  ( 0.8660254037844364872, -0.5000000000000041078, 0.000000000000000000 ) ) ;
#796 = CIRCLE ( 'NONE', #409, 8.517553795201630251 ) ;
#797 = CARTESIAN_POINT ( 'NONE',  ( -94.13566885360613412, -48.78435084028594559, -10.00000000000000000 ) ) ;
#798 = AXIS2_PLACEMENT_3D ( 'NONE', #769, #449, #1027 ) ;
#799 = CARTESIAN_POINT ( 'NONE',  ( 95.72597645761490526, -46.02981396921029500, 9.797174393178825657E-16 ) ) ;
#800 = AXIS2_PLACEMENT_3D ( 'NONE', #124, #38, #468 ) ;
#801 = CARTESIAN_POINT ( 'NONE',  ( -79.00000000000000000, 0.000000000000000000, 10.00000000000000000 ) ) ;
#802 = VERTEX_POINT ( 'NONE', #813 ) ;
#803 = EDGE_CURVE ( 'NONE', #275, #960, #761, .T. ) ;
#804 = DIRECTION ( 'NONE',  ( 1.000000000000000000, 0.000000000000000000, 0.000000000000000000 ) ) ;
#805 = DIRECTION ( 'NONE',  ( -0.4999999999999920619, 0.8660254037844431485, 0.000000000000000000 ) ) ;
#806 = ORIENTED_EDGE ( 'NONE', *, *, #41, .F. ) ;
#807 = CARTESIAN_POINT ( 'NONE',  ( -83.57509845922538716, -67.07579532026147717, 1.482446204798371081 ) ) ;
#808 = DIRECTION ( 'NONE',  ( -0.4999999999999918954, 0.8660254037844433705, 0.000000000000000000 ) ) ;
#809 = DIRECTION ( 'NONE',  ( 0.000000000000000000, 0.000000000000000000, 1.000000000000000000 ) ) ;
#810 = ORIENTED_EDGE ( 'NONE', *, *, #633, .F. ) ;
#811 = PRODUCT_DEFINITION_SHAPE ( 'NONE', 'NONE',  #1065 ) ;
#812 = EDGE_CURVE ( 'NONE', #76, #563, #781, .T. ) ;
#813 = CARTESIAN_POINT ( 'NONE',  ( -4.819347291981725512, -75.00000000000000000, -10.00000000000000355 ) ) ;
#814 = AXIS2_PLACEMENT_3D ( 'NONE', #546, #479, #876 ) ;
#815 = ORIENTED_EDGE ( 'NONE', *, *, #651, .F. ) ;
#816 = AXIS2_PLACEMENT_3D ( 'NONE', #565, #1074, #982 ) ;
#817 = CARTESIAN_POINT ( 'NONE',  ( 0.000000000000000000, 0.000000000000000000, 22.00000000000000000 ) ) ;
#818 = EDGE_LOOP ( 'NONE', ( #601, #219, #826, #108, #394, #374, #6, #324 ) ) ;
#819 = ADVANCED_FACE ( 'NONE', ( #1079 ), #991, .F. ) ;
#820 = CARTESIAN_POINT ( 'NONE',  ( 52.82754963085103839, 30.49999999999951328, 0.000000000000000000 ) ) ;
#821 = ORIENTED_EDGE ( 'NONE', *, *, #148, .T. ) ;
#822 = ADVANCED_FACE ( 'NONE', ( #235 ), #663, .F. ) ;
#823 = DIRECTION ( 'NONE',  ( -0.8660254037844363761, 0.5000000000000039968, -0.000000000000000000 ) ) ;
#824 = CARTESIAN_POINT ( 'NONE',  ( -40.41787598485968402, 51.99418526020489395, 1.482446204798369305 ) ) ;
#825 = CIRCLE ( 'NONE', #972, 8.000000000000000000 ) ;
#826 = ORIENTED_EDGE ( 'NONE', *, *, #911, .F. ) ;
#827 = VECTOR ( 'NONE', #703, 999.9999999999998863 ) ;
#828 = CIRCLE ( 'NONE', #957, 79.00000000000000000 ) ;
#829 = ADVANCED_FACE ( 'NONE', ( #328 ), #484, .T. ) ;
#830 = CYLINDRICAL_SURFACE ( 'NONE', #170, 11.48244620479836975 ) ;
#831 = ADVANCED_FACE ( 'NONE', ( #162, #746 ), #985, .T. ) ;
#832 = DIRECTION ( 'NONE',  ( -1.000000000000000000, 0.000000000000000000, 0.000000000000000000 ) ) ;
#833 = VERTEX_POINT ( 'NONE', #75 ) ;
#834 = VERTEX_POINT ( 'NONE', #407 ) ;
#835 = DIRECTION ( 'NONE',  ( -0.4999999999999919509, 0.8660254037844432595, 0.000000000000000000 ) ) ;
#836 = CARTESIAN_POINT ( 'NONE',  ( -64.95190528383274398, 37.50000000000030553, 0.000000000000000000 ) ) ;
#837 = CARTESIAN_POINT ( 'NONE',  ( 48.82754963085111655, 37.42820323027505935, 0.000000000000000000 ) ) ;
#838 = EDGE_LOOP ( 'NONE', ( #696, #1058, #1035, #959 ) ) ;
#839 = ORIENTED_EDGE ( 'NONE', *, *, #905, .F. ) ;
#840 = CARTESIAN_POINT ( 'NONE',  ( 24.81934729198172462, 0.000000000000000000, 10.00000000000000000 ) ) ;
#841 = DIRECTION ( 'NONE',  ( 0.000000000000000000, -1.000000000000000000, 0.000000000000000000 ) ) ;
#842 = FILL_AREA_STYLE ('',( #693 ) ) ;
#843 = ORIENTED_EDGE ( 'NONE', *, *, #852, .F. ) ;
#844 = CIRCLE ( 'NONE', #1000, 11.48244620479837153 ) ;
#845 = EDGE_LOOP ( 'NONE', ( #1064, #233, #726, #978 ) ) ;
#846 = CIRCLE ( 'NONE', #987, 8.517553795201626698 ) ;
#847 = DIRECTION ( 'NONE',  ( -0.5000000000000037748, -0.8660254037844364872, 0.000000000000000000 ) ) ;
#848 = DIRECTION ( 'NONE',  ( -0.8660254037844363761, 0.5000000000000039968, -0.000000000000000000 ) ) ;
#849 = AXIS2_PLACEMENT_3D ( 'NONE', #791, #973, #231 ) ;
#850 = FACE_OUTER_BOUND ( 'NONE', #306, .T. ) ;
#851 = ORIENTED_EDGE ( 'NONE', *, *, #289, .T. ) ;
#852 = EDGE_CURVE ( 'NONE', #119, #864, #260, .T. ) ;
#853 = ORIENTED_EDGE ( 'NONE', *, *, #812, .T. ) ;
#854 = DIRECTION ( 'NONE',  ( -0.8660254037844363761, 0.5000000000000039968, -0.000000000000000000 ) ) ;
#855 = DIRECTION ( 'NONE',  ( 0.000000000000000000, 0.000000000000000000, -1.000000000000000000 ) ) ;
#856 = DIRECTION ( 'NONE',  ( -0.000000000000000000, -1.000000000000000000, -0.000000000000000000 ) ) ;
#857 = FACE_OUTER_BOUND ( 'NONE', #666, .T. ) ;
#858 = ORIENTED_EDGE ( 'NONE', *, *, #664, .T. ) ;
#859 = ADVANCED_FACE ( 'NONE', ( #1066 ), #582, .F. ) ;
#860 = CARTESIAN_POINT ( 'NONE',  ( 9.797174393178825657E-16, 79.00000000000000000, 8.000000000000000000 ) ) ;
#861 = DIRECTION ( 'NONE',  ( -0.4999999999999920619, 0.8660254037844431485, 0.000000000000000000 ) ) ;
#862 = CARTESIAN_POINT ( 'NONE',  ( 40.41787598486038036, 51.99418526020431131, 1.482446204798369305 ) ) ;
#863 = DIRECTION ( 'NONE',  ( -0.5000000000000037748, -0.8660254037844364872, 0.000000000000000000 ) ) ;
#864 = VERTEX_POINT ( 'NONE', #675 ) ;
#865 = AXIS2_PLACEMENT_3D ( 'NONE', #353, #524, #925 ) ;
#866 = CARTESIAN_POINT ( 'NONE',  ( -52.82754963085064759, 30.50000000000025580, 0.000000000000000000 ) ) ;
#867 = EDGE_CURVE ( 'NONE', #563, #106, #9, .T. ) ;
#868 = CARTESIAN_POINT ( 'NONE',  ( -77.36157892982366491, 16.00581473979567093, 22.00000000000000000 ) ) ;
#869 = AXIS2_PLACEMENT_3D ( 'NONE', #817, #323, #489 ) ;
#870 = ORIENTED_EDGE ( 'NONE', *, *, #125, .F. ) ;
#871 = ORIENTED_EDGE ( 'NONE', *, *, #237, .T. ) ;
#872 = FACE_OUTER_BOUND ( 'NONE', #924, .T. ) ;
#873 = CARTESIAN_POINT ( 'NONE',  ( -79.31632156162466174, -74.45221328500669244, 1.482446204798369305 ) ) ;
#874 = PLANE ( 'NONE',  #140 ) ;
#875 = ORIENTED_EDGE ( 'NONE', *, *, #422, .T. ) ;
#876 = DIRECTION ( 'NONE',  ( -0.4999999999999918954, 0.8660254037844433705, 0.000000000000000000 ) ) ;
#877 = CARTESIAN_POINT ( 'NONE',  ( 0.000000000000000000, 0.000000000000000000, 22.00000000000000000 ) ) ;
#878 = CARTESIAN_POINT ( 'NONE',  ( -89.31632156162450542, -57.13170520931782193, -10.00000000000000000 ) ) ;
#879 = CARTESIAN_POINT ( 'NONE',  ( -52.82754963085062627, 30.50000000000024869, -10.00000000000000000 ) ) ;
#880 = ADVANCED_FACE ( 'NONE', ( #265 ), #612, .F. ) ;
#881 = ORIENTED_EDGE ( 'NONE', *, *, #706, .F. ) ;
#882 = CARTESIAN_POINT ( 'NONE',  ( -24.81934729198172462, -75.00000000000000000, 22.00000000000000000 ) ) ;
#883 = AXIS2_PLACEMENT_3D ( 'NONE', #269, #760, #16 ) ;
#884 = DIRECTION ( 'NONE',  ( -1.000000000000000000, 0.000000000000000000, 0.000000000000000000 ) ) ;
#885 = VECTOR ( 'NONE', #698, 1000.000000000000000 ) ;
#886 = LINE ( 'NONE', #799, #827 ) ;
#887 = AXIS2_PLACEMENT_3D ( 'NONE', #1055, #1031, #44 ) ;
#888 = FACE_BOUND ( 'NONE', #408, .T. ) ;
#889 = EDGE_LOOP ( 'NONE', ( #220, #419, #534, #595 ) ) ;
#890 = CARTESIAN_POINT ( 'NONE',  ( 0.000000000000000000, -75.00000000000000000, 0.000000000000000000 ) ) ;
#891 = DIRECTION ( 'NONE',  ( -0.000000000000000000, -0.000000000000000000, -1.000000000000000000 ) ) ;
#892 = DIRECTION ( 'NONE',  ( 0.8660254037844432595, 0.4999999999999918954, -0.000000000000000000 ) ) ;
#893 = ORIENTED_EDGE ( 'NONE', *, *, #584, .T. ) ;
#894 = CARTESIAN_POINT ( 'NONE',  ( 24.81934729198172462, -74.99999999999997158, 1.482446204798369305 ) ) ;
#895 = EDGE_CURVE ( 'NONE', #1021, #262, #768, .T. ) ;
#896 = CARTESIAN_POINT ( 'NONE',  ( 64.95190528383321293, 37.49999999999936762, 0.000000000000000000 ) ) ;
#897 = ORIENTED_EDGE ( 'NONE', *, *, #465, .T. ) ;
#898 = FACE_OUTER_BOUND ( 'NONE', #751, .T. ) ;
#899 = EDGE_CURVE ( 'NONE', #294, #970, #447, .T. ) ;
#900 = PRESENTATION_LAYER_ASSIGNMENT (  '', '', ( #13 ) ) ;
#901 = VERTEX_POINT ( 'NONE', #772 ) ;
#902 = CIRCLE ( 'NONE', #588, 8.000000000000001776 ) ;
#903 = CARTESIAN_POINT ( 'NONE',  ( -52.82754963085062627, 30.50000000000024869, 10.00000000000000000 ) ) ;
#904 = DIRECTION ( 'NONE',  ( -0.000000000000000000, -0.000000000000000000, -1.000000000000000000 ) ) ;
#905 = EDGE_CURVE ( 'NONE', #483, #701, #644, .T. ) ;
#906 = EDGE_LOOP ( 'NONE', ( #998, #566 ) ) ;
#907 = DIRECTION ( 'NONE',  ( 0.000000000000000000, 0.000000000000000000, -1.000000000000000000 ) ) ;
#908 = DIRECTION ( 'NONE',  ( -0.4999999999999916733, 0.8660254037844434816, 0.000000000000000000 ) ) ;
#909 = ADVANCED_FACE ( 'NONE', ( #927 ), #999, .F. ) ;
#910 = EDGE_LOOP ( 'NONE', ( #282, #1070, #533, #453 ) ) ;
#911 = EDGE_CURVE ( 'NONE', #250, #720, #104, .T. ) ;
#912 = FACE_OUTER_BOUND ( 'NONE', #838, .T. ) ;
#913 = DIRECTION ( 'NONE',  ( -0.8660254037844364872, 0.5000000000000039968, 0.000000000000000000 ) ) ;
#914 = AXIS2_PLACEMENT_3D ( 'NONE', #378, #614, #214 ) ;
#915 = ORIENTED_EDGE ( 'NONE', *, *, #977, .T. ) ;
#916 = AXIS2_PLACEMENT_3D ( 'NONE', #287, #613, #594 ) ;
#917 = ORIENTED_EDGE ( 'NONE', *, *, #706, .T. ) ;
#918 = CIRCLE ( 'NONE', #869, 79.00000000000000000 ) ;
#919 = EDGE_CURVE ( 'NONE', #577, #1021, #122, .T. ) ;
#920 = AXIS2_PLACEMENT_3D ( 'NONE', #877, #462, #884 ) ;
#921 = DIRECTION ( 'NONE',  ( 0.000000000000000000, 0.000000000000000000, -1.000000000000000000 ) ) ;
#922 = DIRECTION ( 'NONE',  ( 0.8660254037844433705, 0.4999999999999919509, -0.000000000000000000 ) ) ;
#923 = ORIENTED_EDGE ( 'NONE', *, *, #148, .F. ) ;
#924 = EDGE_LOOP ( 'NONE', ( #207, #160, #815, #315, #432, #87 ) ) ;
#925 = DIRECTION ( 'NONE',  ( 0.000000000000000000, 0.000000000000000000, -1.000000000000000000 ) ) ;
#926 = ADVANCED_FACE ( 'NONE', ( #347 ), #525, .T. ) ;
#927 = FACE_OUTER_BOUND ( 'NONE', #151, .T. ) ;
#928 = LINE ( 'NONE', #763, #885 ) ;
#929 = ORIENTED_EDGE ( 'NONE', *, *, #1080, .T. ) ;
#930 = EDGE_LOOP ( 'NONE', ( #550, #459, #858, #748 ) ) ;
#931 = CARTESIAN_POINT ( 'NONE',  ( -52.82754963085062627, 30.50000000000024869, -10.00000000000000000 ) ) ;
#932 = CARTESIAN_POINT ( 'NONE',  ( -40.41787598485971245, 51.99418526020490106, 10.00000000000000000 ) ) ;
#933 = CARTESIAN_POINT ( 'NONE',  ( 62.54223163784240569, 41.67367718451531289, -10.00000000000000000 ) ) ;
#934 = ORIENTED_EDGE ( 'NONE', *, *, #396, .T. ) ;
#935 = CLOSED_SHELL ( 'NONE', ( #77, #557, #249, #745, #386, #56, #831, #34, #859, #829, #1071, #521, #226, #1041, #592, #186, #607, #599, #822, #133, #926, #819, #157, #660, #643, #909, #168, #880, #729, #5, #700, #434, #457 ) ) ;
#936 = VERTEX_POINT ( 'NONE', #1007 ) ;
#937 = AXIS2_PLACEMENT_3D ( 'NONE', #890, #954, #461 ) ;
#938 = AXIS2_PLACEMENT_3D ( 'NONE', #381, #958, #304 ) ;
#939 = FACE_BOUND ( 'NONE', #1029, .T. ) ;
#940 = CARTESIAN_POINT ( 'NONE',  ( 89.31630281162398433, -57.13169438400169753, -10.00000000000000000 ) ) ;
#941 = CARTESIAN_POINT ( 'NONE',  ( 99.87687320600500129, -38.84024990402630806, 1.482446204798371081 ) ) ;
#942 = ORIENTED_EDGE ( 'NONE', *, *, #351, .T. ) ;
#943 = CARTESIAN_POINT ( 'NONE',  ( -62.54223163784182304, 41.67367718451619396, 1.482446204798369305 ) ) ;
#944 = CARTESIAN_POINT ( 'NONE',  ( 52.82754963085103839, 30.49999999999951328, 0.000000000000000000 ) ) ;
#945 = CYLINDRICAL_SURFACE ( 'NONE', #301, 79.00000000000000000 ) ;
#946 = PLANE ( 'NONE',  #555 ) ;
#947 = EDGE_CURVE ( 'NONE', #379, #261, #69, .T. ) ;
#948 = ORIENTED_EDGE ( 'NONE', *, *, #812, .F. ) ;
#949 = FACE_OUTER_BOUND ( 'NONE', #507, .T. ) ;
#950 = APPLICATION_PROTOCOL_DEFINITION ( 'draft international standard', 'automotive_design', 1998, #725 ) ;
#951 = ORIENTED_EDGE ( 'NONE', *, *, #132, .F. ) ;
#952 = VERTEX_POINT ( 'NONE', #506 ) ;
#953 = AXIS2_PLACEMENT_3D ( 'NONE', #749, #3, #554 ) ;
#954 = DIRECTION ( 'NONE',  ( 0.000000000000000000, -1.000000000000000000, 0.000000000000000000 ) ) ;
#955 = AXIS2_PLACEMENT_3D ( 'NONE', #727, #564, #375 ) ;
#956 = DIRECTION ( 'NONE',  ( -0.4999999999999919509, 0.8660254037844432595, 0.000000000000000000 ) ) ;
#957 = AXIS2_PLACEMENT_3D ( 'NONE', #482, #809, #63 ) ;
#958 = DIRECTION ( 'NONE',  ( -0.8660254037844363761, 0.5000000000000039968, -0.000000000000000000 ) ) ;
#959 = ORIENTED_EDGE ( 'NONE', *, *, #109, .T. ) ;
#960 = VERTEX_POINT ( 'NONE', #932 ) ;
#961 = EDGE_CURVE ( 'NONE', #1010, #424, #302, .T. ) ;
#962 = DIRECTION ( 'NONE',  ( 0.000000000000000000, 1.000000000000000000, -0.000000000000000000 ) ) ;
#963 = LINE ( 'NONE', #137, #498 ) ;
#964 = ORIENTED_EDGE ( 'NONE', *, *, #441, .F. ) ;
#965 = DIRECTION ( 'NONE',  ( -0.5000000000000036637, -0.8660254037844364872, 0.000000000000000000 ) ) ;
#966 = DIRECTION ( 'NONE',  ( 0.8660254037844432595, 0.4999999999999918954, -0.000000000000000000 ) ) ;
#967 = DIRECTION ( 'NONE',  ( -0.000000000000000000, -1.000000000000000000, -0.000000000000000000 ) ) ;
#968 = FACE_OUTER_BOUND ( 'NONE', #766, .T. ) ;
#969 = EDGE_CURVE ( 'NONE', #188, #300, #101, .T. ) ;
#970 = VERTEX_POINT ( 'NONE', #753 ) ;
#971 = CARTESIAN_POINT ( 'NONE',  ( 0.000000000000000000, 0.000000000000000000, 10.00000000000000000 ) ) ;
#972 = AXIS2_PLACEMENT_3D ( 'NONE', #989, #165, #907 ) ;
#973 = DIRECTION ( 'NONE',  ( 0.000000000000000000, 0.000000000000000000, 1.000000000000000000 ) ) ;
#974 = VECTOR ( 'NONE', #804, 1000.000000000000000 ) ;
#975 = LINE ( 'NONE', #562, #1023 ) ;
#976 = AXIS2_PLACEMENT_3D ( 'NONE', #153, #248, #579 ) ;
#977 = EDGE_CURVE ( 'NONE', #1010, #701, #428, .T. ) ;
#978 = ORIENTED_EDGE ( 'NONE', *, *, #621, .T. ) ;
#979 = CARTESIAN_POINT ( 'NONE',  ( 67.36157892982406281, 33.32632281548344366, -10.00000000000000355 ) ) ;
#980 = FACE_OUTER_BOUND ( 'NONE', #650, .T. ) ;
#981 = ORIENTED_EDGE ( 'NONE', *, *, #212, .T. ) ;
#982 = DIRECTION ( 'NONE',  ( 0.000000000000000000, 0.000000000000000000, -1.000000000000000000 ) ) ;
#983 = ORIENTED_EDGE ( 'NONE', *, *, #990, .F. ) ;
#984 = VECTOR ( 'NONE', #455, 999.9999999999998863 ) ;
#985 = PLANE ( 'NONE',  #572 ) ;
#986 = VECTOR ( 'NONE', #552, 1000.000000000000227 ) ;
#987 = AXIS2_PLACEMENT_3D ( 'NONE', #1025, #354, #25 ) ;
#988 = VERTEX_POINT ( 'NONE', #111 ) ;
#989 = CARTESIAN_POINT ( 'NONE',  ( 0.000000000000000000, -75.00000000000000000, 0.000000000000000000 ) ) ;
#990 = EDGE_CURVE ( 'NONE', #1053, #558, #846, .T. ) ;
#991 = PLANE ( 'NONE',  #368 ) ;
#992 = EDGE_CURVE ( 'NONE', #30, #418, #518, .T. ) ;
#993 = EDGE_LOOP ( 'NONE', ( #1001, #100, #632, #490 ) ) ;
#994 = CARTESIAN_POINT ( 'NONE',  ( 24.81934729198172462, 79.00002499999999372, 1.482446204798369305 ) ) ;
#995 = DIRECTION ( 'NONE',  ( -0.5000000000000039968, -0.8660254037844363761, 0.000000000000000000 ) ) ;
#996 = ORIENTED_EDGE ( 'NONE', *, *, #1080, .F. ) ;
#997 = EDGE_CURVE ( 'NONE', #787, #205, #657, .T. ) ;
#998 = ORIENTED_EDGE ( 'NONE', *, *, #919, .T. ) ;
#999 = CYLINDRICAL_SURFACE ( 'NONE', #674, 8.000000000000001776 ) ;
#1000 = AXIS2_PLACEMENT_3D ( 'NONE', #1024, #123, #110 ) ;
#1001 = ORIENTED_EDGE ( 'NONE', *, *, #536, .F. ) ;
#1002 = CIRCLE ( 'NONE', #487, 79.00000000000000000 ) ;
#1003 = EDGE_CURVE ( 'NONE', #294, #502, #189, .T. ) ;
#1004 = ORIENTED_EDGE ( 'NONE', *, *, #543, .F. ) ;
#1005 = VECTOR ( 'NONE', #779, 1000.000000000000227 ) ;
#1006 = DIRECTION ( 'NONE',  ( 0.8660254037844364872, -0.5000000000000041078, 0.000000000000000000 ) ) ;
#1007 = CARTESIAN_POINT ( 'NONE',  ( -77.36157892982370754, 16.00581473979567448, 10.00000000000000000 ) ) ;
#1008 = CYLINDRICAL_SURFACE ( 'NONE', #916, 11.48244620479837153 ) ;
#1009 = EDGE_LOOP ( 'NONE', ( #466, #1004, #843, #1067 ) ) ;
#1010 = VERTEX_POINT ( 'NONE', #1049 ) ;
#1011 = DIRECTION ( 'NONE',  ( -0.8660254037844363761, 0.5000000000000039968, -0.000000000000000000 ) ) ;
#1012 = DIRECTION ( 'NONE',  ( 0.000000000000000000, 0.000000000000000000, 1.000000000000000000 ) ) ;
#1013 = DIRECTION ( 'NONE',  ( -0.4999999999999916733, 0.8660254037844434816, 0.000000000000000000 ) ) ;
#1014 = ORIENTED_EDGE ( 'NONE', *, *, #684, .F. ) ;
#1015 = ORIENTED_EDGE ( 'NONE', *, *, #997, .F. ) ;
#1016 = CARTESIAN_POINT ( 'NONE',  ( -24.81934729198172462, -75.00000000000000000, 1.482446204798369305 ) ) ;
#1017 = DIRECTION ( 'NONE',  ( -0.8660254037844364872, 0.5000000000000041078, -0.000000000000000000 ) ) ;
#1018 = EDGE_CURVE ( 'NONE', #445, #570, #456, .T. ) ;
#1019 = ORIENTED_EDGE ( 'NONE', *, *, #990, .T. ) ;
#1020 = CIRCLE ( 'NONE', #937, 8.000000000000000000 ) ;
#1021 = VERTEX_POINT ( 'NONE', #389 ) ;
#1022 = AXIS2_PLACEMENT_3D ( 'NONE', #1045, #463, #624 ) ;
#1023 = VECTOR ( 'NONE', #892, 1000.000000000000227 ) ;
#1024 = CARTESIAN_POINT ( 'NONE',  ( 67.36157892982406281, 33.32632281548344366, 1.482446204798369305 ) ) ;
#1025 = CARTESIAN_POINT ( 'NONE',  ( -52.54223163784177331, 58.99418526020493658, 1.482446204798369305 ) ) ;
#1026 = EDGE_CURVE ( 'NONE', #1040, #936, #722, .T. ) ;
#1027 = DIRECTION ( 'NONE',  ( -1.000000000000000000, 0.000000000000000000, 0.000000000000000000 ) ) ;
#1028 = FACE_OUTER_BOUND ( 'NONE', #360, .T. ) ;
#1029 = EDGE_LOOP ( 'NONE', ( #806, #705 ) ) ;
#1030 = DIRECTION ( 'NONE',  ( 0.8660254037844432595, 0.4999999999999919509, 0.000000000000000000 ) ) ;
#1031 = DIRECTION ( 'NONE',  ( 0.000000000000000000, -1.000000000000000000, 0.000000000000000000 ) ) ;
#1032 = CARTESIAN_POINT ( 'NONE',  ( 52.54223163784257622, 58.99418526020418341, 1.482446204798369305 ) ) ;
#1033 = ORIENTED_EDGE ( 'NONE', *, *, #499, .F. ) ;
#1034 = EDGE_CURVE ( 'NONE', #261, #379, #283, .T. ) ;
#1035 = ORIENTED_EDGE ( 'NONE', *, *, #493, .F. ) ;
#1036 = LINE ( 'NONE', #295, #1075 ) ;
#1037 = CARTESIAN_POINT ( 'NONE',  ( 64.95190528383324136, 37.49999999999939604, -10.00000000000000000 ) ) ;
#1038 = DIRECTION ( 'NONE',  ( -0.000000000000000000, 1.000000000000000000, -0.000000000000000000 ) ) ;
#1039 = FACE_OUTER_BOUND ( 'NONE', #628, .T. ) ;
#1040 = VERTEX_POINT ( 'NONE', #217 ) ;
#1041 = ADVANCED_FACE ( 'NONE', ( #149, #872 ), #313, .F. ) ;
#1042 = AXIS2_PLACEMENT_3D ( 'NONE', #337, #662, #805 ) ;
#1043 = CARTESIAN_POINT ( 'NONE',  ( 0.000000000000000000, -61.00000000000000000, -10.00000000000000000 ) ) ;
#1044 = AXIS2_PLACEMENT_3D ( 'NONE', #944, #922, #176 ) ;
#1045 = CARTESIAN_POINT ( 'NONE',  ( -24.81934729198172462, 79.00000000000000000, 1.482446204798369305 ) ) ;
#1046 = EDGE_LOOP ( 'NONE', ( #851, #460, #503, #174 ) ) ;
#1047 = ORIENTED_EDGE ( 'NONE', *, *, #648, .T. ) ;
#1048 = CARTESIAN_POINT ( 'NONE',  ( 4.819347291981725512, 79.00002499999999372, -10.00000000000000000 ) ) ;
#1049 = CARTESIAN_POINT ( 'NONE',  ( 16.30179349678009970, -60.99999999999992895, 1.482446204798371081 ) ) ;
#1050 = EDGE_CURVE ( 'NONE', #834, #570, #547, .T. ) ;
#1051 = DIRECTION ( 'NONE',  ( 0.8660254037844432595, 0.4999999999999918954, -0.000000000000000000 ) ) ;
#1052 = ORIENTED_EDGE ( 'NONE', *, *, #1063, .F. ) ;
#1053 = VERTEX_POINT ( 'NONE', #481 ) ;
#1054 = CARTESIAN_POINT ( 'NONE',  ( 4.819347291981725512, -74.99999999999997158, -10.00000000000000000 ) ) ;
#1055 = CARTESIAN_POINT ( 'NONE',  ( 0.000000000000000000, -61.00000000000001421, 0.000000000000000000 ) ) ;
#1056 = EDGE_CURVE ( 'NONE', #563, #250, #376, .T. ) ;
#1057 = LINE ( 'NONE', #630, #399 ) ;
#1058 = ORIENTED_EDGE ( 'NONE', *, *, #64, .F. ) ;
#1059 = DIRECTION ( 'NONE',  ( 0.8660254037844432595, 0.4999999999999918954, -0.000000000000000000 ) ) ;
#1060 = CIRCLE ( 'NONE', #240, 8.517553795201630251 ) ;
#1061 = CARTESIAN_POINT ( 'NONE',  ( -64.95190528383274398, 37.50000000000030553, 0.000000000000000000 ) ) ;
#1062 = AXIS2_PLACEMENT_3D ( 'NONE', #659, #417, #85 ) ;
#1063 = EDGE_CURVE ( 'NONE', #418, #391, #622, .T. ) ;
#1064 = ORIENTED_EDGE ( 'NONE', *, *, #648, .F. ) ;
#1065 = PRODUCT_DEFINITION ( 'UNKNOWN', '', #102, #522 ) ;
#1066 = FACE_OUTER_BOUND ( 'NONE', #194, .T. ) ;
#1067 = ORIENTED_EDGE ( 'NONE', *, *, #26, .F. ) ;
#1068 = PLANE ( 'NONE',  #776 ) ;
#1069 = CARTESIAN_POINT ( 'NONE',  ( 0.000000000000000000, 0.000000000000000000, -10.00000000000000000 ) ) ;
#1070 = ORIENTED_EDGE ( 'NONE', *, *, #961, .T. ) ;
#1071 = ADVANCED_FACE ( 'NONE', ( #130 ), #542, .T. ) ;
#1072 = PLANE ( 'NONE',  #953 ) ;
#1073 = VECTOR ( 'NONE', #93, 1000.000000000000000 ) ;
#1074 = DIRECTION ( 'NONE',  ( -0.000000000000000000, -1.000000000000000000, -0.000000000000000000 ) ) ;
#1075 = VECTOR ( 'NONE', #358, 1000.000000000000000 ) ;
#1076 = VECTOR ( 'NONE', #296, 1000.000000000000000 ) ;
#1077 = ORIENTED_EDGE ( 'NONE', *, *, #543, .T. ) ;
#1078 = DIRECTION ( 'NONE',  ( 0.000000000000000000, 0.000000000000000000, 1.000000000000000000 ) ) ;
#1079 = FACE_OUTER_BOUND ( 'NONE', #1046, .T. ) ;
#1080 = EDGE_CURVE ( 'NONE', #834, #642, #454, .T. ) ;
ENDSEC;
END-ISO-10303-21;
