ISO-10303-21;
HEADER;
FILE_DESCRIPTION (( 'STEP AP203' ),
    '1' );
FILE_NAME ('Arm1.STEP',
    '2026-06-03T18:26:14',
    ( '' ),
    ( '' ),
    'SwSTEP 2.0',
    'SolidWorks 2025',
    '' );
FILE_SCHEMA (( 'CONFIG_CONTROL_DESIGN' ));
ENDSEC;

DATA;
#1 = AXIS2_PLACEMENT_3D ( 'NONE', #969, #422, #703 ) ;
#2 = ADVANCED_FACE ( 'NONE', ( #641 ), #1132, .F. ) ;
#3 = CARTESIAN_POINT ( 'NONE',  ( 0.000000000000000000, 0.000000000000000000, 0.000000000000000000 ) ) ;
#4 = CARTESIAN_POINT ( 'NONE',  ( -19.28075975873278480, 7.331685045346063134, 28.00460606385460949 ) ) ;
#5 = VECTOR ( 'NONE', #999, 999.9999999999998863 ) ;
#6 = FACE_OUTER_BOUND ( 'NONE', #246, .T. ) ;
#7 = B_SPLINE_CURVE_WITH_KNOTS ( 'NONE', 3,
 ( #1177, #765, #27, #317, #576, #585, #476, #697, #671, #967, #385, #799, #564, #977, #1060, #115, #1084, #490, #197, #956, #99, #960, #400, #219, #983, #861, #408, #569, #4, #775, #1162, #106 ),
 .UNSPECIFIED., .F., .F.,
 ( 4, 2, 2, 2, 2, 2, 2, 2, 2, 2, 2, 2, 2, 2, 2, 4 ),
 ( 0.009383926599878059452, 0.009970285582138159464, 0.01055664456439826121, 0.01114300354665836122, 0.01172936252891846123, 0.01231572151117856298, 0.01290208049343866299, 0.01348843947569876300, 0.01407479845795886475, 0.01466115744021896476, 0.01524751642247906477, 0.01583387540473916652, 0.01642023438699926480, 0.01700659336925936654, 0.01759295235151946829, 0.01876567031603966831 ),
 .UNSPECIFIED. ) ;
#8 = AXIS2_PLACEMENT_3D ( 'NONE', #247, #468, #853 ) ;
#9 = EDGE_CURVE ( 'NONE', #499, #855, #559, .T. ) ;
#10 = CARTESIAN_POINT ( 'NONE',  ( 70.00000000000009948, 42.69999999999991758, 0.000000000000000000 ) ) ;
#11 = CARTESIAN_POINT ( 'NONE',  ( 45.00000000000000000, 0.000000000000000000, 12.00000000000000000 ) ) ;
#12 = LINE ( 'NONE', #18, #1136 ) ;
#13 = ORIENTED_EDGE ( 'NONE', *, *, #962, .T. ) ;
#14 = EDGE_CURVE ( 'NONE', #241, #691, #363, .T. ) ;
#15 = PLANE ( 'NONE',  #605 ) ;
#16 = CARTESIAN_POINT ( 'NONE',  ( 25.99999999999997513, 0.000000000000000000, -2.734212569701622310E-13 ) ) ;
#17 = VERTEX_POINT ( 'NONE', #211 ) ;
#18 = CARTESIAN_POINT ( 'NONE',  ( 37.64893520043449371, 6.000000000000000000, -59.20986861802169443 ) ) ;
#19 = VERTEX_POINT ( 'NONE', #1061 ) ;
#20 = LINE ( 'NONE', #1176, #349 ) ;
#21 = CARTESIAN_POINT ( 'NONE',  ( 14.47224318643346308, 6.000000000000000000, -21.66666049839557573 ) ) ;
#22 = DIRECTION ( 'NONE',  ( -0.7071067811865479058, 0.7071067811865472397, 0.000000000000000000 ) ) ;
#23 = CARTESIAN_POINT ( 'NONE',  ( 26.00000000000013500, 12.00000000000000000, 15.01110699893001765 ) ) ;
#24 = EDGE_LOOP ( 'NONE', ( #33, #1105 ) ) ;
#25 = FACE_OUTER_BOUND ( 'NONE', #1206, .T. ) ;
#26 = ORIENTED_EDGE ( 'NONE', *, *, #1003, .F. ) ;
#27 = CARTESIAN_POINT ( 'NONE',  ( -14.35290729520629149, 6.390458763900018546, 30.82199762956490119 ) ) ;
#28 = DIRECTION ( 'NONE',  ( 1.000000000000000000, 0.000000000000000000, -0.000000000000000000 ) ) ;
#29 = CIRCLE ( 'NONE', #71, 34.00000000000000000 ) ;
#30 = AXIS2_PLACEMENT_3D ( 'NONE', #1025, #451, #159 ) ;
#31 = MECHANICAL_CONTEXT ( 'NONE', #1040, 'mechanical' ) ;
#32 = DIRECTION ( 'NONE',  ( -0.8660254037844379305, 0.000000000000000000, 0.5000000000000011102 ) ) ;
#33 = ORIENTED_EDGE ( 'NONE', *, *, #1248, .F. ) ;
#34 = CARTESIAN_POINT ( 'NONE',  ( 18.13787072469656891, 3.303059559342527596, -28.75848962754274041 ) ) ;
#35 = ORIENTED_EDGE ( 'NONE', *, *, #427, .T. ) ;
#36 = EDGE_CURVE ( 'NONE', #499, #230, #1077, .T. ) ;
#37 = PERSON_AND_ORGANIZATION ( #67, #1182 ) ;
#38 = CARTESIAN_POINT ( 'NONE',  ( -23.22243186433520279, 6.000000000000000000, 40.22243186433553319 ) ) ;
#39 = ORIENTED_EDGE ( 'NONE', *, *, #1129, .F. ) ;
#40 = DIRECTION ( 'NONE',  ( -0.4999999999999951705, -0.000000000000000000, 0.8660254037844414832 ) ) ;
#41 = EDGE_LOOP ( 'NONE', ( #919, #888, #756, #574 ) ) ;
#42 = DIRECTION ( 'NONE',  ( 0.7071067811865473507, 0.7071067811865477948, 0.000000000000000000 ) ) ;
#43 = PERSON_AND_ORGANIZATION ( #67, #1182 ) ;
#44 = CARTESIAN_POINT ( 'NONE',  ( 15.25578643989682348, 8.261723413346977907, -30.38553405542432984 ) ) ;
#45 = CARTESIAN_POINT ( 'NONE',  ( 18.28348145673909997, 3.395092625746535919, -28.66602424222244849 ) ) ;
#46 = FACE_BOUND ( 'NONE', #1072, .T. ) ;
#47 = ORIENTED_EDGE ( 'NONE', *, *, #289, .T. ) ;
#48 = CARTESIAN_POINT ( 'NONE',  ( 75.65685424949249693, 48.35685424949230793, 0.000000000000000000 ) ) ;
#49 = AXIS2_PLACEMENT_3D ( 'NONE', #984, #709, #42 ) ;
#50 = APPROVAL_DATE_TIME ( #1189, #593 ) ;
#51 = AXIS2_PLACEMENT_3D ( 'NONE', #1168, #122, #864 ) ;
#52 = CARTESIAN_POINT ( 'NONE',  ( -12.90192378864657030, 6.000000000000000000, 28.34678751731775037 ) ) ;
#53 = CARTESIAN_POINT ( 'NONE',  ( 17.16952406206522852, 2.999845631862703588, -29.34700469364903697 ) ) ;
#54 = VECTOR ( 'NONE', #618, 1000.000000000000114 ) ;
#55 = EDGE_CURVE ( 'NONE', #990, #798, #883, .T. ) ;
#56 = EDGE_CURVE ( 'NONE', #691, #342, #166, .T. ) ;
#57 = CARTESIAN_POINT ( 'NONE',  ( 14.89261358721224049, 7.830105626946982866, -30.56504413528807618 ) ) ;
#58 = ORIENTED_EDGE ( 'NONE', *, *, #240, .T. ) ;
#59 = CARTESIAN_POINT ( 'NONE',  ( 28.02943725152286092, 0.000000000000000000, -12.00000000000000000 ) ) ;
#60 = CARTESIAN_POINT ( 'NONE',  ( -15.49999999999989519, 6.000000000000000000, 26.84678751731776103 ) ) ;
#61 = VERTEX_POINT ( 'NONE', #48 ) ;
#62 = FACE_OUTER_BOUND ( 'NONE', #780, .T. ) ;
#63 = FACE_BOUND ( 'NONE', #1161, .T. ) ;
#64 = CYLINDRICAL_SURFACE ( 'NONE', #933, 12.00000000000000178 ) ;
#65 = CARTESIAN_POINT ( 'NONE',  ( -21.75018867790164379, 6.000000000000000000, 41.07243186433552040 ) ) ;
#66 = ORIENTED_EDGE ( 'NONE', *, *, #418, .T. ) ;
#67 = PERSON ( 'UNSPECIFIED', 'UNSPECIFIED', 'UNSPECIFIED', ('UNSPECIFIED'), ('UNSPECIFIED'), ('UNSPECIFIED') ) ;
#68 = AXIS2_PLACEMENT_3D ( 'NONE', #118, #880, #865 ) ;
#69 = CARTESIAN_POINT ( 'NONE',  ( 25.99999999999981881, 12.00000000000000000, -15.01110699893056655 ) ) ;
#70 = ORIENTED_EDGE ( 'NONE', *, *, #658, .F. ) ;
#71 = AXIS2_PLACEMENT_3D ( 'NONE', #282, #1239, #1128 ) ;
#72 = CIRCLE ( 'NONE', #627, 12.00000000000000178 ) ;
#73 = CARTESIAN_POINT ( 'NONE',  ( 72.82842712474626978, 62.49898987322323762, 3.469446951953614189E-15 ) ) ;
#74 = CARTESIAN_POINT ( 'NONE',  ( 0.000000000000000000, 12.00000000000000000, 12.00000000000000355 ) ) ;
#75 = CARTESIAN_POINT ( 'NONE',  ( -19.53177043322926565, 6.000000000000000000, 27.83001875212503506 ) ) ;
#76 = DIRECTION ( 'NONE',  ( 0.7071067811865474617, 0.7071067811865476838, 0.000000000000000000 ) ) ;
#77 = ORIENTED_EDGE ( 'NONE', *, *, #427, .F. ) ;
#78 = LINE ( 'NONE', #456, #428 ) ;
#79 = CARTESIAN_POINT ( 'NONE',  ( 66.46446609406736172, 46.23553390593265533, 0.000000000000000000 ) ) ;
#80 = CARTESIAN_POINT ( 'NONE',  ( -26.00000000000002842, 12.00000000000000000, -15.01110699893020417 ) ) ;
#81 = EDGE_CURVE ( 'NONE', #1014, #314, #1208, .T. ) ;
#82 = LINE ( 'NONE', #366, #407 ) ;
#83 = EDGE_LOOP ( 'NONE', ( #713, #670 ) ) ;
#84 = CARTESIAN_POINT ( 'NONE',  ( 4.163799117101000559E-15, 12.00000000000000000, 34.00000000000000000 ) ) ;
#85 = ORIENTED_EDGE ( 'NONE', *, *, #745, .F. ) ;
#86 = AXIS2_PLACEMENT_3D ( 'NONE', #943, #292, #677 ) ;
#87 = FACE_OUTER_BOUND ( 'NONE', #685, .T. ) ;
#88 = CIRCLE ( 'NONE', #232, 34.00000000000000000 ) ;
#89 = ORIENTED_EDGE ( 'NONE', *, *, #927, .T. ) ;
#90 = LINE ( 'NONE', #657, #555 ) ;
#91 = CIRCLE ( 'NONE', #464, 4.000000000000005329 ) ;
#92 = CARTESIAN_POINT ( 'NONE',  ( -19.40551229318870696, 5.032514292697411129, 27.91830589678408714 ) ) ;
#93 = DIRECTION ( 'NONE',  ( -0.000000000000000000, -1.000000000000000000, -0.000000000000000000 ) ) ;
#94 = DIRECTION ( 'NONE',  ( -0.8660254037844414832, 0.000000000000000000, -0.4999999999999951150 ) ) ;
#95 = ORIENTED_EDGE ( 'NONE', *, *, #284, .T. ) ;
#96 = CARTESIAN_POINT ( 'NONE',  ( 19.53177043322925499, 6.000000000000000000, -27.83001875212503862 ) ) ;
#97 = DIRECTION ( 'NONE',  ( -0.7071067811865474617, -0.7071067811865476838, 0.000000000000000000 ) ) ;
#98 = DIRECTION ( 'NONE',  ( 0.8660254037844412611, 0.000000000000000000, 0.4999999999999956701 ) ) ;
#99 = CARTESIAN_POINT ( 'NONE',  ( -17.82916065483167856, 8.847341930452824244, 28.95089135808240854 ) ) ;
#100 = LINE ( 'NONE', #185, #695 ) ;
#101 = CARTESIAN_POINT ( 'NONE',  ( -26.00000000000002842, 12.00000000000000000, -15.01110699893020417 ) ) ;
#102 = LINE ( 'NONE', #227, #1080 ) ;
#103 = ORIENTED_EDGE ( 'NONE', *, *, #810, .T. ) ;
#104 = VECTOR ( 'NONE', #568, 1000.000000000000000 ) ;
#105 = CARTESIAN_POINT ( 'NONE',  ( 15.49999999999988454, 6.000000000000000000, -26.84678751731776103 ) ) ;
#106 = CARTESIAN_POINT ( 'NONE',  ( -19.53177043322926565, 6.000000000000000000, 27.83001875212503506 ) ) ;
#107 = CIRCLE ( 'NONE', #1221, 1.700000000000000844 ) ;
#108 = EDGE_CURVE ( 'NONE', #1029, #1198, #1036, .T. ) ;
#109 = DIRECTION ( 'NONE',  ( 0.8660254037844408170, 0.000000000000000000, 0.4999999999999960587 ) ) ;
#110 = APPROVAL_PERSON_ORGANIZATION ( #1106, #593, #423 ) ;
#111 = LINE ( 'NONE', #958, #863 ) ;
#112 = CARTESIAN_POINT ( 'NONE',  ( 0.000000000000000000, 12.00000000000000000, -12.00000000000000000 ) ) ;
#113 = ORIENTED_EDGE ( 'NONE', *, *, #1048, .F. ) ;
#114 = EDGE_LOOP ( 'NONE', ( #1244, #987, #928, #881 ) ) ;
#115 = CARTESIAN_POINT ( 'NONE',  ( -16.65678354872608224, 8.980262874488124325, 29.64099080890349569 ) ) ;
#116 = PLANE ( 'NONE',  #450 ) ;
#117 = ORIENTED_EDGE ( 'NONE', *, *, #335, .T. ) ;
#118 = CARTESIAN_POINT ( 'NONE',  ( 15.49999999999989342, 6.000000000000000000, -26.84678751731776103 ) ) ;
#119 = EDGE_LOOP ( 'NONE', ( #13, #139, #844, #164 ) ) ;
#120 = DIRECTION ( 'NONE',  ( 0.000000000000000000, 1.000000000000000000, -0.000000000000000000 ) ) ;
#121 = APPLICATION_PROTOCOL_DEFINITION ( 'international standard', 'config_control_design', 1994, #1040 ) ;
#122 = DIRECTION ( 'NONE',  ( 0.4999999999999949485, 0.000000000000000000, -0.8660254037844415942 ) ) ;
#123 = ORIENTED_EDGE ( 'NONE', *, *, #194, .F. ) ;
#124 = CARTESIAN_POINT ( 'NONE',  ( 18.68720167388390152, 3.738964331144012387, -28.40436112039783367 ) ) ;
#125 = VERTEX_POINT ( 'NONE', #540 ) ;
#126 = CARTESIAN_POINT ( 'NONE',  ( -25.99999999999992539, 0.000000000000000000, 15.01110699893038003 ) ) ;
#127 = VECTOR ( 'NONE', #804, 1000.000000000000000 ) ;
#128 = VECTOR ( 'NONE', #94, 1000.000000000000114 ) ;
#129 = PERSON_AND_ORGANIZATION_ROLE ( 'creator' ) ;
#130 = AXIS2_PLACEMENT_3D ( 'NONE', #461, #1149, #283 ) ;
#131 = LINE ( 'NONE', #313, #1181 ) ;
#132 = ORIENTED_EDGE ( 'NONE', *, *, #1152, .T. ) ;
#133 = LINE ( 'NONE', #357, #381 ) ;
#134 = ORIENTED_EDGE ( 'NONE', *, *, #636, .T. ) ;
#135 = EDGE_CURVE ( 'NONE', #276, #392, #1238, .T. ) ;
#136 = CARTESIAN_POINT ( 'NONE',  ( 14.33561801052261409, 6.000000000000000000, -30.83001875212501375 ) ) ;
#137 = ORIENTED_EDGE ( 'NONE', *, *, #310, .F. ) ;
#138 = CARTESIAN_POINT ( 'NONE',  ( 13.65000000000009450, -13.65000000000008917, 12.00000000000000000 ) ) ;
#139 = ORIENTED_EDGE ( 'NONE', *, *, #696, .T. ) ;
#140 = ORIENTED_EDGE ( 'NONE', *, *, #908, .T. ) ;
#141 = PRODUCT_DEFINITION ( 'UNKNOWN', '', #823, #148 ) ;
#142 = EDGE_CURVE ( 'NONE', #466, #519, #90, .T. ) ;
#143 = EDGE_CURVE ( 'NONE', #669, #612, #477, .T. ) ;
#144 = CARTESIAN_POINT ( 'NONE',  ( 26.00000000000013500, 0.000000000000000000, 15.01110699893001765 ) ) ;
#145 = CARTESIAN_POINT ( 'NONE',  ( 16.65678354872607869, 3.019737125511880116, -29.64099080890349214 ) ) ;
#146 = ORIENTED_EDGE ( 'NONE', *, *, #437, .F. ) ;
#147 = CARTESIAN_POINT ( 'NONE',  ( -13.00000000000001599, 12.00000000000000000, -22.51666049839536754 ) ) ;
#148 = DESIGN_CONTEXT ( 'detailed design', #633, 'design' ) ;
#149 = VECTOR ( 'NONE', #930, 1000.000000000000000 ) ;
#150 = AXIS2_PLACEMENT_3D ( 'NONE', #819, #619, #826 ) ;
#151 = CALENDAR_DATE ( 2026, 3, 6 ) ;
#152 = AXIS2_PLACEMENT_3D ( 'NONE', #586, #978, #1005 ) ;
#153 = CARTESIAN_POINT ( 'NONE',  ( 19.20503348886271056, 7.503064777913438732, -28.05670341523552125 ) ) ;
#154 = CARTESIAN_POINT ( 'NONE',  ( 31.81194744117373574, 12.00000000000000000, -12.00000000000000000 ) ) ;
#155 = ORIENTED_EDGE ( 'NONE', *, *, #810, .F. ) ;
#156 = ORIENTED_EDGE ( 'NONE', *, *, #1233, .F. ) ;
#157 = EDGE_CURVE ( 'NONE', #895, #640, #790, .T. ) ;
#158 = FACE_OUTER_BOUND ( 'NONE', #365, .T. ) ;
#159 = DIRECTION ( 'NONE',  ( 0.8660254037844412611, 0.000000000000000000, 0.4999999999999956701 ) ) ;
#160 = ORIENTED_EDGE ( 'NONE', *, *, #613, .F. ) ;
#161 = EDGE_CURVE ( 'NONE', #293, #640, #12, .T. ) ;
#162 = DIRECTION ( 'NONE',  ( 0.5000000000000012212, -0.000000000000000000, 0.8660254037844380415 ) ) ;
#163 = CARTESIAN_POINT ( 'NONE',  ( 12.90192378864656852, 6.000000000000000000, -28.34678751731775037 ) ) ;
#164 = ORIENTED_EDGE ( 'NONE', *, *, #554, .F. ) ;
#165 = CARTESIAN_POINT ( 'NONE',  ( -19.28120865394323502, 4.669223182021235097, 28.00429796210953270 ) ) ;
#166 = CIRCLE ( 'NONE', #1178, 34.00000000000000000 ) ;
#167 = DIRECTION ( 'NONE',  ( 0.000000000000000000, 0.000000000000000000, 1.000000000000000000 ) ) ;
#168 = CIRCLE ( 'NONE', #971, 12.00000000000000178 ) ;
#169 = DIRECTION ( 'NONE',  ( 0.000000000000000000, 1.000000000000000000, -0.000000000000000000 ) ) ;
#170 = ORIENTED_EDGE ( 'NONE', *, *, #1257, .T. ) ;
#171 = CIRCLE ( 'NONE', #837, 8.000000000000005329 ) ;
#172 = LOCAL_TIME ( 14, 26, 14.00000000000000000, #325 ) ;
#173 = CARTESIAN_POINT ( 'NONE',  ( -15.39129472117412512, 3.614287303081072267, 30.31723131149430017 ) ) ;
#174 = DIRECTION ( 'NONE',  ( 0.000000000000000000, 1.000000000000000000, -0.000000000000000000 ) ) ;
#175 = ADVANCED_FACE ( 'NONE', ( #1073 ), #989, .F. ) ;
#176 = EDGE_CURVE ( 'NONE', #1074, #1169, #398, .T. ) ;
#177 = CARTESIAN_POINT ( 'NONE',  ( 12.99999999999991473, 12.00000000000000000, -22.51666049839554873 ) ) ;
#178 = CYLINDRICAL_SURFACE ( 'NONE', #8, 1.699999999999999289 ) ;
#179 = DIRECTION ( 'NONE',  ( 0.7071067811865475727, -0.7071067811865475727, 0.000000000000000000 ) ) ;
#180 = CARTESIAN_POINT ( 'NONE',  ( -14.47224318643346841, 6.000000000000000000, 21.66666049839556862 ) ) ;
#181 = CARTESIAN_POINT ( 'NONE',  ( 66.46446609406736172, 46.23553390593265533, 0.000000000000000000 ) ) ;
#182 = ORIENTED_EDGE ( 'NONE', *, *, #240, .F. ) ;
#183 = DIRECTION ( 'NONE',  ( -0.000000000000000000, -1.000000000000000000, -0.000000000000000000 ) ) ;
#184 = CARTESIAN_POINT ( 'NONE',  ( -18.28572954434252651, 3.396526267756925677, 28.66459575718945274 ) ) ;
#185 = CARTESIAN_POINT ( 'NONE',  ( -12.99999999999985789, 0.000000000000000000, 22.51666049839545636 ) ) ;
#186 = CARTESIAN_POINT ( 'NONE',  ( 15.39033149223363317, 3.615066688188606214, -30.31772283326737494 ) ) ;
#187 = VERTEX_POINT ( 'NONE', #1065 ) ;
#188 = AXIS2_PLACEMENT_3D ( 'NONE', #38, #974, #887 ) ;
#189 = AXIS2_PLACEMENT_3D ( 'NONE', #947, #1062, #1253 ) ;
#190 = CARTESIAN_POINT ( 'NONE',  ( 28.02943725152286092, 17.69999999999982165, 12.00000000000000000 ) ) ;
#191 = FACE_BOUND ( 'NONE', #513, .T. ) ;
#192 = DIRECTION ( 'NONE',  ( -0.4999999999999951705, 0.000000000000000000, 0.8660254037844415942 ) ) ;
#193 = ADVANCED_FACE ( 'NONE', ( #25 ), #1192, .F. ) ;
#194 = EDGE_CURVE ( 'NONE', #241, #827, #481, .T. ) ;
#195 = ORIENTED_EDGE ( 'NONE', *, *, #359, .F. ) ;
#196 = ORIENTED_EDGE ( 'NONE', *, *, #902, .T. ) ;
#197 = CARTESIAN_POINT ( 'NONE',  ( -17.33787198336409929, 8.980810701358732828, 29.24782003065637426 ) ) ;
#198 = DIRECTION ( 'NONE',  ( -0.7071067811865475727, -0.7071067811865475727, 0.000000000000000000 ) ) ;
#199 = ORIENTED_EDGE ( 'NONE', *, *, #721, .T. ) ;
#200 = CARTESIAN_POINT ( 'NONE',  ( 5.164718625761525850, -5.164718625761524073, 12.00000000000000000 ) ) ;
#201 = DIRECTION ( 'NONE',  ( -0.8660254037844412611, 0.000000000000000000, -0.4999999999999956701 ) ) ;
#202 = DIRECTION ( 'NONE',  ( 0.000000000000000000, 1.000000000000000000, -0.000000000000000000 ) ) ;
#203 = CARTESIAN_POINT ( 'NONE',  ( 64.34314575050771623, 54.01370849898467696, -12.00000000000000000 ) ) ;
#204 = EDGE_LOOP ( 'NONE', ( #299, #196 ) ) ;
#205 = VERTEX_POINT ( 'NONE', #1026 ) ;
#206 = EDGE_CURVE ( 'NONE', #966, #1114, #1104, .T. ) ;
#207 = VECTOR ( 'NONE', #441, 1000.000000000000114 ) ;
#208 = DIRECTION ( 'NONE',  ( 0.8660254037844412611, 0.000000000000000000, 0.4999999999999956701 ) ) ;
#209 = CARTESIAN_POINT ( 'NONE',  ( 64.34314575050773044, 54.01370849898468407, 0.000000000000000000 ) ) ;
#210 = CIRCLE ( 'NONE', #1000, 4.000000000000005329 ) ;
#211 = CARTESIAN_POINT ( 'NONE',  ( -14.02775681356634507, 6.000000000000000000, 27.69678751731775890 ) ) ;
#212 = CYLINDRICAL_SURFACE ( 'NONE', #1246, 1.699999999999996181 ) ;
#213 = CARTESIAN_POINT ( 'NONE',  ( 60.80761184457498558, 40.57867965644027919, 9.797174393178833546E-16 ) ) ;
#214 = AXIS2_PLACEMENT_3D ( 'NONE', #758, #277, #594 ) ;
#215 = PLANE ( 'NONE',  #152 ) ;
#216 = ORIENTED_EDGE ( 'NONE', *, *, #142, .T. ) ;
#217 = DIRECTION ( 'NONE',  ( 0.8660254037844414832, 0.000000000000000000, 0.4999999999999950595 ) ) ;
#218 = ORIENTED_EDGE ( 'NONE', *, *, #14, .F. ) ;
#219 = CARTESIAN_POINT ( 'NONE',  ( -18.55785621464873714, 8.387569220836054384, 28.48916658575731020 ) ) ;
#220 = FACE_OUTER_BOUND ( 'NONE', #736, .T. ) ;
#221 = ORIENTED_EDGE ( 'NONE', *, *, #1227, .F. ) ;
#222 = CARTESIAN_POINT ( 'NONE',  ( 5.272077938642193651, 101.7710678118654357, 4.898587196589416773E-16 ) ) ;
#223 = ORIENTED_EDGE ( 'NONE', *, *, #335, .F. ) ;
#224 = DIRECTION ( 'NONE',  ( -0.8660254037844379305, 0.000000000000000000, 0.5000000000000011102 ) ) ;
#225 = CARTESIAN_POINT ( 'NONE',  ( 28.02943725152286092, 12.00000000000000000, 0.000000000000000000 ) ) ;
#226 = DATE_AND_TIME ( #704, #1058 ) ;
#227 = CARTESIAN_POINT ( 'NONE',  ( 13.00000000000016342, 12.00000000000000000, 22.51666049839527517 ) ) ;
#228 = ORIENTED_EDGE ( 'NONE', *, *, #902, .F. ) ;
#229 = DIRECTION ( 'NONE',  ( -0.8660254037844412611, 0.000000000000000000, -0.4999999999999956146 ) ) ;
#230 = VERTEX_POINT ( 'NONE', #833 ) ;
#231 = CARTESIAN_POINT ( 'NONE',  ( 45.00000000000000000, 17.69999999999982521, 12.00000000000000000 ) ) ;
#232 = AXIS2_PLACEMENT_3D ( 'NONE', #1147, #982, #1067 ) ;
#233 = CIRCLE ( 'NONE', #1099, 8.000000000000005329 ) ;
#234 = DATE_AND_TIME ( #1098, #172 ) ;
#235 = VECTOR ( 'NONE', #776, 1000.000000000000000 ) ;
#236 = ADVANCED_FACE ( 'NONE', ( #906 ), #1017, .F. ) ;
#237 = CARTESIAN_POINT ( 'NONE',  ( 18.28572954434252651, 8.603473732243074323, -28.66459575718945274 ) ) ;
#238 = VERTEX_POINT ( 'NONE', #353 ) ;
#239 = CARTESIAN_POINT ( 'NONE',  ( 16.82640247592964400, 3.000156211740922174, -29.54507439024184023 ) ) ;
#240 = EDGE_CURVE ( 'NONE', #604, #347, #1126, .T. ) ;
#241 = VERTEX_POINT ( 'NONE', #154 ) ;
#242 = CALENDAR_DATE ( 2026, 3, 6 ) ;
#243 = LINE ( 'NONE', #258, #54 ) ;
#244 = CARTESIAN_POINT ( 'NONE',  ( 16.32137305665516180, 3.096254244913771991, -29.82699374506429280 ) ) ;
#245 = DIRECTION ( 'NONE',  ( 0.7071067811865479058, -0.7071067811865472397, 0.000000000000000000 ) ) ;
#246 = EDGE_LOOP ( 'NONE', ( #879, #58, #420, #678 ) ) ;
#247 = CARTESIAN_POINT ( 'NONE',  ( -23.22243186433519568, 6.000000000000000000, 40.22243186433553319 ) ) ;
#248 = CARTESIAN_POINT ( 'NONE',  ( 32.45278277772785458, 6.000000000000000000, -62.20986861802167311 ) ) ;
#249 = CARTESIAN_POINT ( 'NONE',  ( 35.05085898908117770, 6.000000000000000000, -60.70986861802168022 ) ) ;
#250 = ADVANCED_FACE ( 'NONE', ( #260 ), #328, .T. ) ;
#251 = AXIS2_PLACEMENT_3D ( 'NONE', #288, #393, #301 ) ;
#252 = VECTOR ( 'NONE', #412, 1000.000000000000000 ) ;
#253 = CARTESIAN_POINT ( 'NONE',  ( 16.83139319870510775, 9.000070458946019869, -29.54221608951905864 ) ) ;
#254 = CARTESIAN_POINT ( 'NONE',  ( 0.000000000000000000, 12.00000000000000000, 0.000000000000000000 ) ) ;
#255 = EDGE_CURVE ( 'NONE', #378, #1193, #667, .T. ) ;
#256 = CARTESIAN_POINT ( 'NONE',  ( 28.02943725152286092, 0.000000000000000000, 12.00000000000000000 ) ) ;
#257 = ADVANCED_FACE ( 'NONE', ( #914, #46 ), #425, .T. ) ;
#258 = CARTESIAN_POINT ( 'NONE',  ( 72.12132034355975918, 51.89238815542503858, 0.000000000000000000 ) ) ;
#259 = DIRECTION ( 'NONE',  ( 0.8660254037844415942, 0.000000000000000000, 0.4999999999999950040 ) ) ;
#260 = FACE_OUTER_BOUND ( 'NONE', #1116, .T. ) ;
#261 = EDGE_LOOP ( 'NONE', ( #656, #920, #1220, #155, #137, #899 ) ) ;
#262 = ADVANCED_FACE ( 'NONE', ( #1205, #1013 ), #434, .F. ) ;
#263 = LINE ( 'NONE', #748, #503 ) ;
#264 = DIRECTION ( 'NONE',  ( 0.4999999999999951705, -0.000000000000000000, -0.8660254037844414832 ) ) ;
#265 = ORIENTED_EDGE ( 'NONE', *, *, #876, .F. ) ;
#266 = DIRECTION ( 'NONE',  ( 5.178279032766712867E-16, -0.000000000000000000, 1.000000000000000000 ) ) ;
#267 = CARTESIAN_POINT ( 'NONE',  ( -14.33561801052261586, 6.000000000000000000, 30.83001875212501375 ) ) ;
#268 = AXIS2_PLACEMENT_3D ( 'NONE', #639, #529, #918 ) ;
#269 = CARTESIAN_POINT ( 'NONE',  ( 0.000000000000000000, 0.000000000000000000, -34.00000000000000000 ) ) ;
#270 = AXIS2_PLACEMENT_3D ( 'NONE', #869, #508, #321 ) ;
#271 = EDGE_LOOP ( 'NONE', ( #494, #866, #1045, #329 ) ) ;
#272 = CARTESIAN_POINT ( 'NONE',  ( 36.52310217551472249, 6.000000000000000000, -59.85986861802170012 ) ) ;
#273 = DIRECTION ( 'NONE',  ( -0.4999999999999950595, 0.000000000000000000, 0.8660254037844414832 ) ) ;
#274 = CARTESIAN_POINT ( 'NONE',  ( 14.33561801052261409, 5.804203025836605967, -30.83001875212501020 ) ) ;
#275 = CARTESIAN_POINT ( 'NONE',  ( 0.000000000000000000, 12.00000000000000000, -30.02221399786053269 ) ) ;
#276 = VERTEX_POINT ( 'NONE', #1154 ) ;
#277 = DIRECTION ( 'NONE',  ( 0.000000000000000000, 0.000000000000000000, 1.000000000000000000 ) ) ;
#278 = CARTESIAN_POINT ( 'NONE',  ( 64.34314575050770202, 54.01370849898466275, -1.597144149444259125E-14 ) ) ;
#279 = CARTESIAN_POINT ( 'NONE',  ( 45.00000000000000000, -2.473065397383528347E-16, 12.00000000000000000 ) ) ;
#280 = DIRECTION ( 'NONE',  ( -1.000000000000000000, 0.000000000000000000, 1.051620219116009685E-14 ) ) ;
#281 = DIRECTION ( 'NONE',  ( -1.000000000000000000, 0.000000000000000000, 5.178279032766712867E-16 ) ) ;
#282 = CARTESIAN_POINT ( 'NONE',  ( 0.000000000000000000, 0.000000000000000000, 0.000000000000000000 ) ) ;
#283 = DIRECTION ( 'NONE',  ( -0.7071067811865472397, -0.7071067811865477948, 0.000000000000000000 ) ) ;
#284 = EDGE_CURVE ( 'NONE', #125, #519, #955, .T. ) ;
#285 = VECTOR ( 'NONE', #652, 1000.000000000000000 ) ;
#286 = VERTEX_POINT ( 'NONE', #788 ) ;
#287 = AXIS2_PLACEMENT_3D ( 'NONE', #829, #174, #630 ) ;
#288 = CARTESIAN_POINT ( 'NONE',  ( 0.000000000000000000, 12.00000000000000000, 0.000000000000000000 ) ) ;
#289 = EDGE_CURVE ( 'NONE', #276, #620, #821, .T. ) ;
#290 = DIRECTION ( 'NONE',  ( 0.7071067811865475727, -0.7071067811865475727, 0.000000000000000000 ) ) ;
#291 = DIRECTION ( 'NONE',  ( 0.7071067811865475727, -0.7071067811865475727, 0.000000000000000000 ) ) ;
#292 = DIRECTION ( 'NONE',  ( 0.7071067811865475727, -0.7071067811865475727, 0.000000000000000000 ) ) ;
#293 = VERTEX_POINT ( 'NONE', #96 ) ;
#294 = DIRECTION ( 'NONE',  ( -0.4999999999999951705, -8.326672684688671588E-17, 0.8660254037844413721 ) ) ;
#295 = DIRECTION ( 'NONE',  ( -0.7071067811865475727, -0.7071067811865475727, 0.000000000000000000 ) ) ;
#296 = EDGE_CURVE ( 'NONE', #907, #764, #1020, .T. ) ;
#297 = FACE_OUTER_BOUND ( 'NONE', #1088, .T. ) ;
#298 = CARTESIAN_POINT ( 'NONE',  ( 14.47510617528728183, 5.033092560129022175, -30.76486506777017382 ) ) ;
#299 = ORIENTED_EDGE ( 'NONE', *, *, #296, .T. ) ;
#300 = DIRECTION ( 'NONE',  ( 0.000000000000000000, 0.000000000000000000, 1.000000000000000000 ) ) ;
#301 = DIRECTION ( 'NONE',  ( 0.000000000000000000, 0.000000000000000000, -1.000000000000000000 ) ) ;
#302 = EDGE_CURVE ( 'NONE', #797, #979, #88, .T. ) ;
#303 = ADVANCED_FACE ( 'NONE', ( #959, #1256 ), #873, .F. ) ;
#304 = DIRECTION ( 'NONE',  ( 0.8660254037844417052, 0.000000000000000000, 0.4999999999999947264 ) ) ;
#305 = ORIENTED_EDGE ( 'NONE', *, *, #876, .T. ) ;
#306 = ORIENTED_EDGE ( 'NONE', *, *, #497, .T. ) ;
#307 = ORIENTED_EDGE ( 'NONE', *, *, #554, .T. ) ;
#308 = AXIS2_PLACEMENT_3D ( 'NONE', #590, #294, #679 ) ;
#309 = CARTESIAN_POINT ( 'NONE',  ( -20.62435565298187612, 6.000000000000000000, 41.72243186433551898 ) ) ;
#310 = EDGE_CURVE ( 'NONE', #855, #827, #20, .T. ) ;
#311 = LOCAL_TIME ( 14, 26, 14.00000000000000000, #334 ) ;
#312 = APPROVAL_STATUS ( 'not_yet_approved' ) ;
#313 = CARTESIAN_POINT ( 'NONE',  ( 33.57861580264762580, 6.000000000000000000, -61.55986861802168164 ) ) ;
#314 = VERTEX_POINT ( 'NONE', #664 ) ;
#315 = CARTESIAN_POINT ( 'NONE',  ( 69.29289321881356045, 49.06396103067885406, 0.000000000000000000 ) ) ;
#316 = ORIENTED_EDGE ( 'NONE', *, *, #56, .T. ) ;
#317 = CARTESIAN_POINT ( 'NONE',  ( -14.42275429877536119, 6.777461198644270546, 30.78937550745137841 ) ) ;
#318 = CARTESIAN_POINT ( 'NONE',  ( -13.00000000000001599, 12.00000000000000000, -22.51666049839536754 ) ) ;
#319 = CYLINDRICAL_SURFACE ( 'NONE', #1, 8.000000000000005329 ) ;
#320 = APPROVAL_ROLE ( '' ) ;
#321 = DIRECTION ( 'NONE',  ( 0.000000000000000000, 0.000000000000000000, -1.000000000000000000 ) ) ;
#322 = ORIENTED_EDGE ( 'NONE', *, *, #842, .T. ) ;
#323 = ORIENTED_EDGE ( 'NONE', *, *, #681, .F. ) ;
#324 = DIRECTION ( 'NONE',  ( 0.7071067811865473507, 0.7071067811865477948, 0.000000000000000000 ) ) ;
#325 = COORDINATED_UNIVERSAL_TIME_OFFSET ( 5, 0, .BEHIND. ) ;
#326 = DIRECTION ( 'NONE',  ( 0.7071067811865476838, -0.7071067811865474617, 0.000000000000000000 ) ) ;
#327 = VERTEX_POINT ( 'NONE', #190 ) ;
#328 = PLANE ( 'NONE',  #268 ) ;
#329 = ORIENTED_EDGE ( 'NONE', *, *, #927, .F. ) ;
#330 = LINE ( 'NONE', #717, #791 ) ;
#331 = AXIS2_PLACEMENT_3D ( 'NONE', #768, #291, #387 ) ;
#332 = AXIS2_PLACEMENT_3D ( 'NONE', #1218, #522, #351 ) ;
#333 = EDGE_CURVE ( 'NONE', #834, #907, #563, .T. ) ;
#334 = COORDINATED_UNIVERSAL_TIME_OFFSET ( 5, 0, .BEHIND. ) ;
#335 = EDGE_CURVE ( 'NONE', #1198, #230, #263, .T. ) ;
#336 = DIRECTION ( 'NONE',  ( 0.7071067811865477948, -0.7071067811865472397, 0.000000000000000000 ) ) ;
#337 = ORIENTED_EDGE ( 'NONE', *, *, #523, .T. ) ;
#338 = ORIENTED_EDGE ( 'NONE', *, *, #497, .F. ) ;
#339 = CARTESIAN_POINT ( 'NONE',  ( 31.81194744117373574, 12.00000000000000000, 12.00000000000000355 ) ) ;
#340 = CARTESIAN_POINT ( 'NONE',  ( 64.34314575050768781, 54.01370849898466275, 3.469446951953614189E-15 ) ) ;
#341 = CC_DESIGN_DATE_AND_TIME_ASSIGNMENT ( #710, #496, ( #141 ) ) ;
#342 = VERTEX_POINT ( 'NONE', #932 ) ;
#343 = ORIENTED_EDGE ( 'NONE', *, *, #771, .T. ) ;
#344 = DIRECTION ( 'NONE',  ( 0.7071067811865475727, -0.7071067811865475727, -0.000000000000000000 ) ) ;
#345 = LINE ( 'NONE', #248, #383 ) ;
#346 = ORIENTED_EDGE ( 'NONE', *, *, #1129, .T. ) ;
#347 = VERTEX_POINT ( 'NONE', #358 ) ;
#348 = EDGE_CURVE ( 'NONE', #979, #230, #29, .T. ) ;
#349 = VECTOR ( 'NONE', #281, 1000.000000000000000 ) ;
#350 = CIRCLE ( 'NONE', #1057, 12.00000000000000178 ) ;
#351 = DIRECTION ( 'NONE',  ( 0.8660254037844412611, 0.000000000000000000, 0.4999999999999956701 ) ) ;
#352 = CARTESIAN_POINT ( 'NONE',  ( 31.81194744117373574, 0.000000000000000000, -11.99999999999999822 ) ) ;
#353 = CARTESIAN_POINT ( 'NONE',  ( 64.34314575050773044, 37.04314575050753433, 9.797174393178833546E-16 ) ) ;
#354 = ORIENTED_EDGE ( 'NONE', *, *, #1190, .T. ) ;
#355 = CARTESIAN_POINT ( 'NONE',  ( -14.47487274255694167, 5.033585582119572521, 30.76497624242117013 ) ) ;
#356 = ADVANCED_FACE ( 'NONE', ( #845, #945 ), #1031, .T. ) ;
#357 = CARTESIAN_POINT ( 'NONE',  ( 12.99999999999991473, 0.000000000000000000, -22.51666049839554873 ) ) ;
#358 = CARTESIAN_POINT ( 'NONE',  ( 81.31370849898482334, 54.01370849898468407, 3.469446951953614189E-15 ) ) ;
#359 = EDGE_CURVE ( 'NONE', #691, #797, #362, .T. ) ;
#360 = DIRECTION ( 'NONE',  ( -0.000000000000000000, -1.000000000000000000, -0.000000000000000000 ) ) ;
#361 = EDGE_CURVE ( 'NONE', #953, #587, #1095, .T. ) ;
#362 = LINE ( 'NONE', #1133, #285 ) ;
#363 = CIRCLE ( 'NONE', #1078, 34.00000000000000000 ) ;
#364 = VECTOR ( 'NONE', #683, 1000.000000000000000 ) ;
#365 = EDGE_LOOP ( 'NONE', ( #182, #1173, #77, #1153 ) ) ;
#366 = CARTESIAN_POINT ( 'NONE',  ( 5.164718625761525850, -5.164718625761524073, 12.00000000000000000 ) ) ;
#367 = ORIENTED_EDGE ( 'NONE', *, *, #142, .F. ) ;
#368 = CARTESIAN_POINT ( 'NONE',  ( -19.45303314730593414, 5.223107320375755869, 27.88513881760520263 ) ) ;
#369 = CC_DESIGN_DATE_AND_TIME_ASSIGNMENT ( #234, #607, ( #560 ) ) ;
#370 = CARTESIAN_POINT ( 'NONE',  ( 25.99999999999997513, 12.00000000000000000, -2.734212569701622310E-13 ) ) ;
#371 = EDGE_CURVE ( 'NONE', #314, #502, #78, .T. ) ;
#372 = ORIENTED_EDGE ( 'NONE', *, *, #973, .F. ) ;
#373 = CARTESIAN_POINT ( 'NONE',  ( -16.15726203614909195, 3.152805716198320507, 29.91614824198680722 ) ) ;
#374 = CARTESIAN_POINT ( 'NONE',  ( 35.05085898908117770, 6.000000000000000000, -60.70986861802168733 ) ) ;
#375 = EDGE_CURVE ( 'NONE', #587, #1193, #1187, .T. ) ;
#376 = ADVANCED_FACE ( 'NONE', ( #789 ), #874, .T. ) ;
#377 = CARTESIAN_POINT ( 'NONE',  ( 14.89270623378763148, 4.169557384775520070, -30.56500250296363319 ) ) ;
#378 = VERTEX_POINT ( 'NONE', #1076 ) ;
#379 = PLANE ( 'NONE',  #331 ) ;
#380 = VECTOR ( 'NONE', #446, 1000.000000000000000 ) ;
#381 = VECTOR ( 'NONE', #458, 1000.000000000000114 ) ;
#382 = ORIENTED_EDGE ( 'NONE', *, *, #1048, .T. ) ;
#383 = VECTOR ( 'NONE', #832, 1000.000000000000000 ) ;
#384 = CC_DESIGN_APPROVAL ( #1165, ( #560 ) ) ;
#385 = CARTESIAN_POINT ( 'NONE',  ( -15.39033149223363317, 8.384933311811392898, 30.31772283326736428 ) ) ;
#386 = CARTESIAN_POINT ( 'NONE',  ( -15.49999999999989164, 6.000000000000000000, 26.84678751731776458 ) ) ;
#387 = DIRECTION ( 'NONE',  ( 0.7071067811865474617, 0.7071067811865474617, 0.000000000000000000 ) ) ;
#388 = ADVANCED_FACE ( 'NONE', ( #191, #686 ), #591, .T. ) ;
#389 = FACE_BOUND ( 'NONE', #204, .T. ) ;
#390 = ORIENTED_EDGE ( 'NONE', *, *, #674, .F. ) ;
#391 = EDGE_LOOP ( 'NONE', ( #195, #218, #891, #103 ) ) ;
#392 = VERTEX_POINT ( 'NONE', #21 ) ;
#393 = DIRECTION ( 'NONE',  ( -0.000000000000000000, -1.000000000000000000, -0.000000000000000000 ) ) ;
#394 = CYLINDRICAL_SURFACE ( 'NONE', #49, 4.000000000000003553 ) ;
#395 = DIRECTION ( 'NONE',  ( 0.7071067811865472397, 0.7071067811865477948, 0.000000000000000000 ) ) ;
#396 = ORIENTED_EDGE ( 'NONE', *, *, #674, .T. ) ;
#397 = CARTESIAN_POINT ( 'NONE',  ( 14.61064893155950273, 4.672051487579772733, -30.70072571166134168 ) ) ;
#398 = LINE ( 'NONE', #501, #127 ) ;
#399 = VERTEX_POINT ( 'NONE', #209 ) ;
#400 = CARTESIAN_POINT ( 'NONE',  ( -18.28348145673910707, 8.604907374253466301, 28.66602424222244494 ) ) ;
#401 = CARTESIAN_POINT ( 'NONE',  ( 8.100505063388386162, 104.5994949366116344, 0.000000000000000000 ) ) ;
#402 = DIRECTION ( 'NONE',  ( 0.7071067811865475727, 0.7071067811865475727, 0.000000000000000000 ) ) ;
#403 = ORIENTED_EDGE ( 'NONE', *, *, #570, .T. ) ;
#404 = CARTESIAN_POINT ( 'NONE',  ( 19.53177043322924789, 5.603450688090138243, -27.83001875212502796 ) ) ;
#405 = CARTESIAN_POINT ( 'NONE',  ( -23.22243186433520279, 6.000000000000000000, 40.22243186433553319 ) ) ;
#406 = ORIENTED_EDGE ( 'NONE', *, *, #658, .T. ) ;
#407 = VECTOR ( 'NONE', #755, 1000.000000000000000 ) ;
#408 = CARTESIAN_POINT ( 'NONE',  ( -19.02159615070241827, 7.833736856265633541, 28.18139423924746723 ) ) ;
#409 = CIRCLE ( 'NONE', #732, 12.00000000000000178 ) ;
#410 = DIRECTION ( 'NONE',  ( -0.000000000000000000, -0.000000000000000000, -1.000000000000000000 ) ) ;
#411 = COORDINATED_UNIVERSAL_TIME_OFFSET ( 5, 0, .BEHIND. ) ;
#412 = DIRECTION ( 'NONE',  ( 1.000000000000000000, 0.000000000000000000, 0.000000000000000000 ) ) ;
#413 = ORIENTED_EDGE ( 'NONE', *, *, #745, .T. ) ;
#414 = LINE ( 'NONE', #603, #5 ) ;
#415 = ORIENTED_EDGE ( 'NONE', *, *, #1166, .F. ) ;
#416 = CYLINDRICAL_SURFACE ( 'NONE', #463, 4.000000000000003553 ) ;
#417 = APPROVAL_STATUS ( 'not_yet_approved' ) ;
#418 = EDGE_CURVE ( 'NONE', #587, #953, #7, .T. ) ;
#419 = CARTESIAN_POINT ( 'NONE',  ( 15.83646478466424057, 8.696831524237428113, -30.08719703238244847 ) ) ;
#420 = ORIENTED_EDGE ( 'NONE', *, *, #1108, .F. ) ;
#421 = ADVANCED_FACE ( 'NONE', ( #867 ), #15, .T. ) ;
#422 = DIRECTION ( 'NONE',  ( 0.7071067811865475727, -0.7071067811865475727, -0.000000000000000000 ) ) ;
#423 = APPROVAL_ROLE ( '' ) ;
#424 = CARTESIAN_POINT ( 'NONE',  ( 14.69648713232894721, 7.505251400367637160, -30.65982923010851025 ) ) ;
#425 = PLANE ( 'NONE',  #150 ) ;
#426 = EDGE_LOOP ( 'NONE', ( #644, #708, #1184, #1118, #306 ) ) ;
#427 = EDGE_CURVE ( 'NONE', #966, #786, #1089, .T. ) ;
#428 = VECTOR ( 'NONE', #97, 1000.000000000000000 ) ;
#429 = DIRECTION ( 'NONE',  ( 0.8660254037844379305, 0.000000000000000000, -0.5000000000000011102 ) ) ;
#430 = CC_DESIGN_PERSON_AND_ORGANIZATION_ASSIGNMENT ( #43, #985, ( #141 ) ) ;
#431 = APPROVAL_ROLE ( '' ) ;
#432 = CARTESIAN_POINT ( 'NONE',  ( 18.56170198091097490, 8.384168043575856544, -28.48666660849898591 ) ) ;
#433 = CARTESIAN_POINT ( 'NONE',  ( 16.15378590973120154, 3.154155869206888951, -29.91802410353738040 ) ) ;
#434 = PLANE ( 'NONE',  #688 ) ;
#435 = ORIENTED_EDGE ( 'NONE', *, *, #1097, .F. ) ;
#436 = ADVANCED_FACE ( 'NONE', ( #1179 ), #416, .F. ) ;
#437 = EDGE_CURVE ( 'NONE', #612, #238, #592, .T. ) ;
#438 = CARTESIAN_POINT ( 'NONE',  ( 14.61140816220750338, 7.329841589173493155, -30.70036572465110325 ) ) ;
#439 = LINE ( 'NONE', #59, #558 ) ;
#440 = CARTESIAN_POINT ( 'NONE',  ( 15.49999999999989342, 6.000000000000000000, -26.84678751731776103 ) ) ;
#441 = DIRECTION ( 'NONE',  ( 0.7071067811865474617, -0.7071067811865474617, -0.000000000000000000 ) ) ;
#442 = DIRECTION ( 'NONE',  ( -0.000000000000000000, -1.000000000000000000, -0.000000000000000000 ) ) ;
#443 = CYLINDRICAL_SURFACE ( 'NONE', #647, 1.699999999999999289 ) ;
#444 = DIRECTION ( 'NONE',  ( -0.7071067811865474617, -0.7071067811865476838, 0.000000000000000000 ) ) ;
#445 = ORIENTED_EDGE ( 'NONE', *, *, #143, .F. ) ;
#446 = DIRECTION ( 'NONE',  ( 0.000000000000000000, 1.000000000000000000, -0.000000000000000000 ) ) ;
#447 = CARTESIAN_POINT ( 'NONE',  ( -19.02446770245457230, 4.170876231972017401, 28.17945255815111594 ) ) ;
#448 = VECTOR ( 'NONE', #495, 1000.000000000000000 ) ;
#449 = VECTOR ( 'NONE', #599, 1000.000000000000000 ) ;
#450 = AXIS2_PLACEMENT_3D ( 'NONE', #11, #491, #1159 ) ;
#451 = DIRECTION ( 'NONE',  ( 0.4999999999999951705, -0.000000000000000000, -0.8660254037844415942 ) ) ;
#452 = AXIS2_PLACEMENT_3D ( 'NONE', #968, #1156, #109 ) ;
#453 = CARTESIAN_POINT ( 'NONE',  ( -18.91915244845744937, 4.016575539322199795, 28.25039621133299761 ) ) ;
#454 = CARTESIAN_POINT ( 'NONE',  ( -12.99999999999992184, 6.000000000000000000, 22.51666049839556294 ) ) ;
#455 = ORIENTED_EDGE ( 'NONE', *, *, #1090, .T. ) ;
#456 = CARTESIAN_POINT ( 'NONE',  ( 13.65000000000009450, -13.65000000000008917, -12.00000000000000000 ) ) ;
#457 = DIRECTION ( 'NONE',  ( -0.7071067811865472397, -0.7071067811865477948, 0.000000000000000000 ) ) ;
#458 = DIRECTION ( 'NONE',  ( -0.8660254037844414832, 0.000000000000000000, -0.4999999999999951150 ) ) ;
#459 = EDGE_LOOP ( 'NONE', ( #323, #322, #663, #702 ) ) ;
#460 = CARTESIAN_POINT ( 'NONE',  ( -19.51577770642060372, 5.606692242616926336, 27.84126229216040116 ) ) ;
#461 = CARTESIAN_POINT ( 'NONE',  ( 53.17842712474615041, 65.17842712474619304, -1.019003865779049020E-14 ) ) ;
#462 = VECTOR ( 'NONE', #507, 1000.000000000000000 ) ;
#463 = AXIS2_PLACEMENT_3D ( 'NONE', #401, #1096, #324 ) ;
#464 = AXIS2_PLACEMENT_3D ( 'NONE', #778, #1167, #295 ) ;
#465 = FACE_OUTER_BOUND ( 'NONE', #706, .T. ) ;
#466 = VERTEX_POINT ( 'NONE', #1085 ) ;
#467 = CARTESIAN_POINT ( 'NONE',  ( -17.83175084837292701, 3.153783315064110138, 28.94928806841220492 ) ) ;
#468 = DIRECTION ( 'NONE',  ( 0.4999999999999951705, -0.000000000000000000, -0.8660254037844414832 ) ) ;
#469 = ADVANCED_FACE ( 'NONE', ( #577 ), #394, .F. ) ;
#470 = ORIENTED_EDGE ( 'NONE', *, *, #973, .T. ) ;
#471 = DIRECTION ( 'NONE',  ( -0.7071067811865476838, 0.7071067811865474617, 0.000000000000000000 ) ) ;
#472 = DIRECTION ( 'NONE',  ( 0.7071067811865480168, 0.7071067811865471286, 0.000000000000000000 ) ) ;
#473 = CARTESIAN_POINT ( 'NONE',  ( -19.53177043322926565, 6.000000000000000000, 27.83001875212503506 ) ) ;
#474 = ORIENTED_EDGE ( 'NONE', *, *, #514, .T. ) ;
#475 = ORIENTED_EDGE ( 'NONE', *, *, #348, .T. ) ;
#476 = CARTESIAN_POINT ( 'NONE',  ( -14.69481186571078801, 7.502291564903891263, 30.66063569470528094 ) ) ;
#477 = CIRCLE ( 'NONE', #86, 8.000000000000005329 ) ;
#478 = AXIS2_PLACEMENT_3D ( 'NONE', #177, #273, #1046 ) ;
#479 = LINE ( 'NONE', #16, #750 ) ;
#480 = AXIS2_PLACEMENT_3D ( 'NONE', #254, #1028, #922 ) ;
#481 = LINE ( 'NONE', #897, #731 ) ;
#482 = ORIENTED_EDGE ( 'NONE', *, *, #1152, .F. ) ;
#483 = ORIENTED_EDGE ( 'NONE', *, *, #1231, .T. ) ;
#484 = LOCAL_TIME ( 14, 26, 14.00000000000000000, #1091 ) ;
#485 = DIRECTION ( 'NONE',  ( 0.4999999999999951705, -0.000000000000000000, -0.8660254037844415942 ) ) ;
#486 = LINE ( 'NONE', #553, #235 ) ;
#487 = DIRECTION ( 'NONE',  ( 0.4999999999999952260, -0.000000000000000000, -0.8660254037844413721 ) ) ;
#488 = LINE ( 'NONE', #699, #526 ) ;
#489 = ORIENTED_EDGE ( 'NONE', *, *, #284, .F. ) ;
#490 = CARTESIAN_POINT ( 'NONE',  ( -17.16952406206523563, 9.000154368137296856, 29.34700469364903697 ) ) ;
#491 = DIRECTION ( 'NONE',  ( -1.000000000000000000, 0.000000000000000000, 0.000000000000000000 ) ) ;
#492 = ORIENTED_EDGE ( 'NONE', *, *, #1227, .T. ) ;
#493 = CARTESIAN_POINT ( 'NONE',  ( 19.20355665602394524, 4.493709688632725907, -28.05771753274286340 ) ) ;
#494 = ORIENTED_EDGE ( 'NONE', *, *, #361, .T. ) ;
#495 = DIRECTION ( 'NONE',  ( -1.000000000000000000, 0.000000000000000000, 0.000000000000000000 ) ) ;
#496 = DATE_TIME_ROLE ( 'creation_date' ) ;
#497 = EDGE_CURVE ( 'NONE', #1114, #502, #884, .T. ) ;
#498 = DIRECTION ( 'NONE',  ( -1.051620219116009685E-14, 0.000000000000000000, -1.000000000000000000 ) ) ;
#499 = VERTEX_POINT ( 'NONE', #800 ) ;
#500 = CARTESIAN_POINT ( 'NONE',  ( 19.02159615070241117, 4.166263143734364682, -28.18139423924747788 ) ) ;
#501 = CARTESIAN_POINT ( 'NONE',  ( 26.00000000000013500, 12.00000000000000000, 15.01110699893001765 ) ) ;
#502 = VERTEX_POINT ( 'NONE', #1188 ) ;
#503 = VECTOR ( 'NONE', #1041, 1000.000000000000000 ) ;
#504 = CIRCLE ( 'NONE', #822, 34.00000000000000000 ) ;
#505 = CC_DESIGN_SECURITY_CLASSIFICATION ( #560, ( #823 ) ) ;
#506 = ADVANCED_FACE ( 'NONE', ( #992 ), #319, .F. ) ;
#507 = DIRECTION ( 'NONE',  ( -0.000000000000000000, -0.000000000000000000, -1.000000000000000000 ) ) ;
#508 = DIRECTION ( 'NONE',  ( -0.000000000000000000, -1.000000000000000000, -0.000000000000000000 ) ) ;
#509 = ORIENTED_EDGE ( 'NONE', *, *, #520, .T. ) ;
#510 = CARTESIAN_POINT ( 'NONE',  ( 18.55785621464873003, 3.612430779163946504, -28.48916658575731375 ) ) ;
#511 = DIRECTION ( 'NONE',  ( -0.4999999999999951150, -0.000000000000000000, 0.8660254037844414832 ) ) ;
#512 = ORIENTED_EDGE ( 'NONE', *, *, #108, .F. ) ;
#513 = EDGE_LOOP ( 'NONE', ( #1255, #518 ) ) ;
#514 = EDGE_CURVE ( 'NONE', #847, #1029, #1171, .T. ) ;
#515 = SECURITY_CLASSIFICATION_LEVEL ( 'unclassified' ) ;
#516 = CARTESIAN_POINT ( 'NONE',  ( 19.51577770642060017, 6.393307757383074552, -27.84126229216040116 ) ) ;
#517 = ORIENTED_EDGE ( 'NONE', *, *, #135, .F. ) ;
#518 = ORIENTED_EDGE ( 'NONE', *, *, #1068, .F. ) ;
#519 = VERTEX_POINT ( 'NONE', #126 ) ;
#520 = EDGE_CURVE ( 'NONE', #834, #17, #929, .T. ) ;
#521 = SHAPE_DEFINITION_REPRESENTATION ( #1019, #1216 ) ;
#522 = DIRECTION ( 'NONE',  ( -0.4999999999999951150, 8.326672684688674053E-17, 0.8660254037844415942 ) ) ;
#523 = EDGE_CURVE ( 'NONE', #855, #502, #330, .T. ) ;
#524 = EDGE_LOOP ( 'NONE', ( #146, #445, #132, #396 ) ) ;
#525 = AXIS2_PLACEMENT_3D ( 'NONE', #405, #796, #229 ) ;
#526 = VECTOR ( 'NONE', #802, 1000.000000000000000 ) ;
#527 = CARTESIAN_POINT ( 'NONE',  ( 15.00440111743942673, 7.981656234289445706, -30.51045143618944167 ) ) ;
#528 = CARTESIAN_POINT ( 'NONE',  ( -16.97224318643344176, 6.000000000000000000, 25.99678751731777382 ) ) ;
#529 = DIRECTION ( 'NONE',  ( -0.5000000000000068834, 0.000000000000000000, -0.8660254037844347108 ) ) ;
#530 = VERTEX_POINT ( 'NONE', #910 ) ;
#531 = ADVANCED_FACE ( 'NONE', ( #62 ), #1110, .T. ) ;
#532 = CARTESIAN_POINT ( 'NONE',  ( 19.53177043322925499, 6.000000000000000000, -27.83001875212503862 ) ) ;
#533 = CARTESIAN_POINT ( 'NONE',  ( 45.00000000000000000, -2.473065397383528347E-16, -12.00000000000000000 ) ) ;
#534 = EDGE_LOOP ( 'NONE', ( #1127, #39, #538, #740 ) ) ;
#535 = CARTESIAN_POINT ( 'NONE',  ( -16.32169144477229494, 3.096111189395805319, 29.82682394994250075 ) ) ;
#536 = FACE_BOUND ( 'NONE', #812, .T. ) ;
#537 = PRODUCT_RELATED_PRODUCT_CATEGORY ( 'detail', '', ( #1232 ) ) ;
#538 = ORIENTED_EDGE ( 'NONE', *, *, #161, .T. ) ;
#539 = DIRECTION ( 'NONE',  ( 0.4999999999999950040, 0.000000000000000000, -0.8660254037844415942 ) ) ;
#540 = CARTESIAN_POINT ( 'NONE',  ( -26.00000000000002842, 0.000000000000000000, -15.01110699893020417 ) ) ;
#541 = AXIS2_PLACEMENT_3D ( 'NONE', #950, #1043, #98 ) ;
#542 = VECTOR ( 'NONE', #360, 1000.000000000000000 ) ;
#543 = CARTESIAN_POINT ( 'NONE',  ( 13.65000000000009450, -13.65000000000008917, 12.00000000000000000 ) ) ;
#544 = ORIENTED_EDGE ( 'NONE', *, *, #206, .F. ) ;
#545 = CARTESIAN_POINT ( 'NONE',  ( -24.69467505076874758, 6.000000000000000000, 39.37243186433553888 ) ) ;
#546 = LINE ( 'NONE', #846, #1121 ) ;
#547 = EDGE_LOOP ( 'NONE', ( #1087, #870, #662, #1186, #851, #123, #1059, #413 ) ) ;
#548 = CARTESIAN_POINT ( 'NONE',  ( 16.32169144477229850, 8.903888810604200899, -29.82682394994250075 ) ) ;
#549 = DIRECTION ( 'NONE',  ( -0.7071067811865476838, 0.7071067811865474617, 0.000000000000000000 ) ) ;
#550 = EDGE_LOOP ( 'NONE', ( #544, #35, #160, #935, #905, #117, #1235, #305 ) ) ;
#551 = CARTESIAN_POINT ( 'NONE',  ( 14.02775681356633797, 6.000000000000000000, -27.69678751731775179 ) ) ;
#552 = DIRECTION ( 'NONE',  ( 0.4999999999999951705, -0.000000000000000000, -0.8660254037844414832 ) ) ;
#553 = CARTESIAN_POINT ( 'NONE',  ( 28.02943725152286092, 17.69999999999982165, 12.00000000000000000 ) ) ;
#554 = EDGE_CURVE ( 'NONE', #399, #684, #925, .T. ) ;
#555 = VECTOR ( 'NONE', #183, 1000.000000000000000 ) ;
#556 = AXIS2_PLACEMENT_3D ( 'NONE', #1001, #511, #217 ) ;
#557 = CARTESIAN_POINT ( 'NONE',  ( 12.99999999999991473, 12.00000000000000000, -22.51666049839554873 ) ) ;
#558 = VECTOR ( 'NONE', #1214, 1000.000000000000000 ) ;
#559 = LINE ( 'NONE', #279, #462 ) ;
#560 = SECURITY_CLASSIFICATION ( '', '', #515 ) ;
#561 = PLANE ( 'NONE',  #1119 ) ;
#562 = ORIENTED_EDGE ( 'NONE', *, *, #437, .T. ) ;
#563 = LINE ( 'NONE', #545, #714 ) ;
#564 = CARTESIAN_POINT ( 'NONE',  ( -15.83334224343106733, 8.695082970149160317, 30.08883910820846097 ) ) ;
#565 = DIRECTION ( 'NONE',  ( 0.8660254037844415942, 0.000000000000000000, 0.4999999999999949485 ) ) ;
#566 = CARTESIAN_POINT ( 'NONE',  ( 15.68059504457757214, 3.397143451435975070, -30.16861879973342653 ) ) ;
#567 = EDGE_LOOP ( 'NONE', ( #85, #474, #403, #700 ) ) ;
#568 = DIRECTION ( 'NONE',  ( 3.351317181798273819E-15, 0.000000000000000000, 1.000000000000000000 ) ) ;
#569 = CARTESIAN_POINT ( 'NONE',  ( -19.20355665602394879, 7.506290311367272317, 28.05771753274284563 ) ) ;
#570 = EDGE_CURVE ( 'NONE', #1029, #327, #1217, .T. ) ;
#571 = LINE ( 'NONE', #1071, #795 ) ;
#572 = ADVANCED_FACE ( 'NONE', ( #1030, #465 ), #1051, .F. ) ;
#573 = DIRECTION ( 'NONE',  ( -0.4999999999999951150, -0.000000000000000000, 0.8660254037844414832 ) ) ;
#574 = ORIENTED_EDGE ( 'NONE', *, *, #302, .T. ) ;
#575 = CARTESIAN_POINT ( 'NONE',  ( -25.99999999999997868, 0.000000000000000000, 8.713424672675504356E-14 ) ) ;
#576 = CARTESIAN_POINT ( 'NONE',  ( -14.47510617528728183, 6.966907439870976049, 30.76486506777017382 ) ) ;
#577 = FACE_OUTER_BOUND ( 'NONE', #119, .T. ) ;
#578 = DIRECTION ( 'NONE',  ( 0.000000000000000000, 0.000000000000000000, 1.000000000000000000 ) ) ;
#579 = VECTOR ( 'NONE', #698, 1000.000000000000114 ) ;
#580 = FACE_OUTER_BOUND ( 'NONE', #271, .T. ) ;
#581 = ORIENTED_EDGE ( 'NONE', *, *, #1111, .T. ) ;
#582 = VECTOR ( 'NONE', #854, 1000.000000000000000 ) ;
#583 = EDGE_LOOP ( 'NONE', ( #70, #562, #1120, #482 ) ) ;
#584 = VECTOR ( 'NONE', #442, 1000.000000000000000 ) ;
#585 = CARTESIAN_POINT ( 'NONE',  ( -14.61064893155950806, 7.327948512420229044, 30.70072571166134878 ) ) ;
#586 = CARTESIAN_POINT ( 'NONE',  ( 28.02943725152286092, 0.000000000000000000, 12.00000000000000000 ) ) ;
#587 = VERTEX_POINT ( 'NONE', #267 ) ;
#588 = CARTESIAN_POINT ( 'NONE',  ( 17.33787198336409574, 3.019189298641269836, -29.24782003065637426 ) ) ;
#589 = ORIENTED_EDGE ( 'NONE', *, *, #55, .T. ) ;
#590 = CARTESIAN_POINT ( 'NONE',  ( -12.99999999999992184, 6.000000000000000000, 22.51666049839556294 ) ) ;
#591 = PLANE ( 'NONE',  #931 ) ;
#592 = LINE ( 'NONE', #213, #579 ) ;
#593 = APPROVAL ( #312, 'UNSPECIFIED' ) ;
#594 = DIRECTION ( 'NONE',  ( 1.000000000000000000, 0.000000000000000000, 0.000000000000000000 ) ) ;
#595 = CARTESIAN_POINT ( 'NONE',  ( 2.099015405931936584E-13, 12.00000000000000000, 30.02221399786052913 ) ) ;
#596 = ORIENTED_EDGE ( 'NONE', *, *, #636, .F. ) ;
#597 = EDGE_CURVE ( 'NONE', #1074, #286, #1237, .T. ) ;
#598 = EDGE_CURVE ( 'NONE', #684, #530, #915, .T. ) ;
#599 = DIRECTION ( 'NONE',  ( 0.000000000000000000, 0.000000000000000000, 1.000000000000000000 ) ) ;
#600 = CALENDAR_DATE ( 2026, 3, 6 ) ;
#601 = CARTESIAN_POINT ( 'NONE',  ( 28.02943725152286092, 17.69999999999982165, -12.00000000000000000 ) ) ;
#602 = VERTEX_POINT ( 'NONE', #651 ) ;
#603 = CARTESIAN_POINT ( 'NONE',  ( 13.00000000000016342, 0.000000000000000000, 22.51666049839527517 ) ) ;
#604 = VERTEX_POINT ( 'NONE', #73 ) ;
#605 = AXIS2_PLACEMENT_3D ( 'NONE', #74, #1164, #28 ) ;
#606 =( GEOMETRIC_REPRESENTATION_CONTEXT ( 3 ) GLOBAL_UNCERTAINTY_ASSIGNED_CONTEXT ( ( #824 ) ) GLOBAL_UNIT_ASSIGNED_CONTEXT ( ( #957, #868, #857 ) ) REPRESENTATION_CONTEXT ( 'NONE', 'WORKASPACE' ) );
#607 = DATE_TIME_ROLE ( 'classification_date' ) ;
#608 = CARTESIAN_POINT ( 'NONE',  ( 14.35349405589638749, 6.394765514433195186, -30.82172435383714770 ) ) ;
#609 = ORIENTED_EDGE ( 'NONE', *, *, #143, .T. ) ;
#610 = CARTESIAN_POINT ( 'NONE',  ( 17.66671650312581221, 3.095151559825112031, -29.05036849087060347 ) ) ;
#611 = DIRECTION ( 'NONE',  ( 0.8660254037844417052, 0.000000000000000000, 0.4999999999999947264 ) ) ;
#612 = VERTEX_POINT ( 'NONE', #1250 ) ;
#613 = EDGE_CURVE ( 'NONE', #327, #786, #82, .T. ) ;
#614 = EDGE_LOOP ( 'NONE', ( #489, #742, #782, #216 ) ) ;
#615 = DIRECTION ( 'NONE',  ( 0.000000000000000000, 1.000000000000000000, -0.000000000000000000 ) ) ;
#616 = PERSON_AND_ORGANIZATION ( #67, #1182 ) ;
#617 = CARTESIAN_POINT ( 'NONE',  ( 0.000000000000000000, 12.00000000000000000, 0.000000000000000000 ) ) ;
#618 = DIRECTION ( 'NONE',  ( 0.7071067811865474617, -0.7071067811865474617, -0.000000000000000000 ) ) ;
#619 = DIRECTION ( 'NONE',  ( 0.000000000000000000, 1.000000000000000000, -0.000000000000000000 ) ) ;
#620 = VERTEX_POINT ( 'NONE', #551 ) ;
#621 = CARTESIAN_POINT ( 'NONE',  ( 0.000000000000000000, 12.00000000000000000, 0.000000000000000000 ) ) ;
#622 = PERSON_AND_ORGANIZATION_ROLE ( 'classification_officer' ) ;
#623 = CARTESIAN_POINT ( 'NONE',  ( 19.45303314730593414, 6.776892679624245019, -27.88513881760520263 ) ) ;
#624 = DIRECTION ( 'NONE',  ( -0.7071067811865472397, -0.7071067811865477948, 0.000000000000000000 ) ) ;
#625 = EDGE_LOOP ( 'NONE', ( #1002, #1170, #976, #156, #1131 ) ) ;
#626 = VECTOR ( 'NONE', #1023, 999.9999999999998863 ) ;
#627 = AXIS2_PLACEMENT_3D ( 'NONE', #1042, #326, #1024 ) ;
#628 = CARTESIAN_POINT ( 'NONE',  ( 15.39129472117412512, 8.385712696918927733, -30.31723131149430372 ) ) ;
#629 = ADVANCED_FACE ( 'NONE', ( #87 ), #561, .T. ) ;
#630 = DIRECTION ( 'NONE',  ( 0.000000000000000000, 0.000000000000000000, 1.000000000000000000 ) ) ;
#631 = ORIENTED_EDGE ( 'NONE', *, *, #14, .T. ) ;
#632 = EDGE_LOOP ( 'NONE', ( #512, #1160, #455, #631, #316, #470 ) ) ;
#633 = APPLICATION_CONTEXT ( 'configuration controlled 3d designs of mechanical parts and assemblies' ) ;
#634 = CARTESIAN_POINT ( 'NONE',  ( 0.000000000000000000, 12.00000000000000000, 12.00000000000000000 ) ) ;
#635 = APPROVAL ( #417, 'UNSPECIFIED' ) ;
#636 = EDGE_CURVE ( 'NONE', #187, #392, #1200, .T. ) ;
#637 = CARTESIAN_POINT ( 'NONE',  ( 66.46446609406736172, 46.23553390593265533, 0.000000000000000000 ) ) ;
#638 = CARTESIAN_POINT ( 'NONE',  ( 28.02943725152286092, 12.00000000000000000, -12.00000000000000000 ) ) ;
#639 = CARTESIAN_POINT ( 'NONE',  ( 13.00000000000016342, 12.00000000000000000, 22.51666049839527517 ) ) ;
#640 = VERTEX_POINT ( 'NONE', #937 ) ;
#641 = FACE_OUTER_BOUND ( 'NONE', #547, .T. ) ;
#642 = DIRECTION ( 'NONE',  ( 1.051620219116009685E-14, 0.000000000000000000, 1.000000000000000000 ) ) ;
#643 = CARTESIAN_POINT ( 'NONE',  ( 45.00000000000000000, 0.000000000000000000, 12.00000000000000000 ) ) ;
#644 = ORIENTED_EDGE ( 'NONE', *, *, #371, .F. ) ;
#645 = CARTESIAN_POINT ( 'NONE',  ( -18.68817050569680305, 3.739980517954306194, 28.40372332310107950 ) ) ;
#646 = AXIS2_PLACEMENT_3D ( 'NONE', #687, #830, #814 ) ;
#647 = AXIS2_PLACEMENT_3D ( 'NONE', #1032, #1135, #739 ) ;
#648 = APPROVAL_PERSON_ORGANIZATION ( #616, #1165, #431 ) ;
#649 = LINE ( 'NONE', #643, #715 ) ;
#650 = ORIENTED_EDGE ( 'NONE', *, *, #1034, .F. ) ;
#651 = CARTESIAN_POINT ( 'NONE',  ( 0.000000000000000000, 0.000000000000000000, -30.02221399786053269 ) ) ;
#652 = DIRECTION ( 'NONE',  ( -0.000000000000000000, -1.000000000000000000, -0.000000000000000000 ) ) ;
#653 = EDGE_CURVE ( 'NONE', #604, #1014, #168, .T. ) ;
#654 = CARTESIAN_POINT ( 'NONE',  ( 14.35290729520628261, 5.609541236099978789, -30.82199762956489408 ) ) ;
#655 = FACE_OUTER_BOUND ( 'NONE', #391, .T. ) ;
#656 = ORIENTED_EDGE ( 'NONE', *, *, #36, .T. ) ;
#657 = CARTESIAN_POINT ( 'NONE',  ( -25.99999999999992539, 12.00000000000000000, 15.01110699893038003 ) ) ;
#658 = EDGE_CURVE ( 'NONE', #612, #669, #889, .T. ) ;
#659 = CARTESIAN_POINT ( 'NONE',  ( -18.56170198091097845, 3.615831956424147453, 28.48666660849898591 ) ) ;
#660 = PLANE ( 'NONE',  #189 ) ;
#661 = DIRECTION ( 'NONE',  ( 0.8660254037844412611, 0.000000000000000000, 0.4999999999999956701 ) ) ;
#662 = ORIENTED_EDGE ( 'NONE', *, *, #371, .T. ) ;
#663 = ORIENTED_EDGE ( 'NONE', *, *, #157, .T. ) ;
#664 = CARTESIAN_POINT ( 'NONE',  ( 72.82842712474628399, 45.52842712474610920, -12.00000000000000000 ) ) ;
#665 = CARTESIAN_POINT ( 'NONE',  ( -15.25578643989682881, 3.738276586653022537, 30.38553405542432273 ) ) ;
#666 = CYLINDRICAL_SURFACE ( 'NONE', #452, 2.999999999999998668 ) ;
#667 = CIRCLE ( 'NONE', #767, 2.999999999999999556 ) ;
#668 = VECTOR ( 'NONE', #988, 1000.000000000000114 ) ;
#669 = VERTEX_POINT ( 'NONE', #1158 ) ;
#670 = ORIENTED_EDGE ( 'NONE', *, *, #858, .F. ) ;
#671 = CARTESIAN_POINT ( 'NONE',  ( -15.00445837663827753, 7.981483127929581478, 30.51041455775794375 ) ) ;
#672 = FACE_OUTER_BOUND ( 'NONE', #1191, .T. ) ;
#673 = DIRECTION ( 'NONE',  ( 0.7071067811865480168, 0.7071067811865471286, 0.000000000000000000 ) ) ;
#674 = EDGE_CURVE ( 'NONE', #61, #238, #233, .T. ) ;
#675 = DIRECTION ( 'NONE',  ( 0.7071067811865475727, -0.7071067811865475727, 0.000000000000000000 ) ) ;
#676 = CARTESIAN_POINT ( 'NONE',  ( 66.46446609406736172, 46.23553390593265533, 0.000000000000000000 ) ) ;
#677 = DIRECTION ( 'NONE',  ( 0.7071067811865480168, 0.7071067811865471286, 0.000000000000000000 ) ) ;
#678 = ORIENTED_EDGE ( 'NONE', *, *, #81, .F. ) ;
#679 = DIRECTION ( 'NONE',  ( 0.8660254037844412611, 0.000000000000000000, 0.4999999999999956701 ) ) ;
#680 = DIRECTION ( 'NONE',  ( 0.4999999999999952260, -0.000000000000000000, -0.8660254037844413721 ) ) ;
#681 = EDGE_CURVE ( 'NONE', #1197, #293, #1249, .T. ) ;
#682 = CARTESIAN_POINT ( 'NONE',  ( 72.82842712474626978, 45.52842712474610209, 12.00000000000000000 ) ) ;
#683 = DIRECTION ( 'NONE',  ( 3.351317181798273819E-15, 0.000000000000000000, 1.000000000000000000 ) ) ;
#684 = VERTEX_POINT ( 'NONE', #315 ) ;
#685 = EDGE_LOOP ( 'NONE', ( #113, #1146, #965, #343 ) ) ;
#686 = FACE_OUTER_BOUND ( 'NONE', #625, .T. ) ;
#687 = CARTESIAN_POINT ( 'NONE',  ( -15.49999999999989164, 6.000000000000000000, 26.84678751731776458 ) ) ;
#688 = AXIS2_PLACEMENT_3D ( 'NONE', #440, #729, #860 ) ;
#689 = DIRECTION ( 'NONE',  ( 1.000000000000000000, 0.000000000000000000, -5.178279032766712867E-16 ) ) ;
#690 = FACE_OUTER_BOUND ( 'NONE', #567, .T. ) ;
#691 = VERTEX_POINT ( 'NONE', #1185 ) ;
#692 = AXIS2_PLACEMENT_3D ( 'NONE', #1081, #1172, #304 ) ;
#693 = ORIENTED_EDGE ( 'NONE', *, *, #135, .T. ) ;
#694 = CC_DESIGN_PERSON_AND_ORGANIZATION_ASSIGNMENT ( #37, #903, ( #823 ) ) ;
#695 = VECTOR ( 'NONE', #862, 1000.000000000000000 ) ;
#696 = EDGE_CURVE ( 'NONE', #730, #530, #1196, .T. ) ;
#697 = CARTESIAN_POINT ( 'NONE',  ( -14.89270623378762792, 7.830442615224480818, 30.56500250296363319 ) ) ;
#698 = DIRECTION ( 'NONE',  ( 0.7071067811865474617, -0.7071067811865474617, -0.000000000000000000 ) ) ;
#699 = CARTESIAN_POINT ( 'NONE',  ( 2.099015405931936584E-13, 12.00000000000000000, 30.02221399786052913 ) ) ;
#700 = ORIENTED_EDGE ( 'NONE', *, *, #1233, .T. ) ;
#701 = CARTESIAN_POINT ( 'NONE',  ( 19.46633769125990199, 5.209483019260955139, -27.87623230554016018 ) ) ;
#702 = ORIENTED_EDGE ( 'NONE', *, *, #161, .F. ) ;
#703 = DIRECTION ( 'NONE',  ( 0.7071067811865480168, 0.7071067811865471286, 0.000000000000000000 ) ) ;
#704 = CALENDAR_DATE ( 2026, 3, 6 ) ;
#705 = CARTESIAN_POINT ( 'NONE',  ( 61.51471862576153171, 51.18528137423849245, 0.000000000000000000 ) ) ;
#706 = EDGE_LOOP ( 'NONE', ( #707, #581 ) ) ;
#707 = ORIENTED_EDGE ( 'NONE', *, *, #255, .T. ) ;
#708 = ORIENTED_EDGE ( 'NONE', *, *, #1108, .T. ) ;
#709 = DIRECTION ( 'NONE',  ( 0.7071067811865475727, -0.7071067811865475727, -0.000000000000000000 ) ) ;
#710 = DATE_AND_TIME ( #600, #484 ) ;
#711 = CARTESIAN_POINT ( 'NONE',  ( 18.68817050569680305, 8.260019482045695582, -28.40372332310107950 ) ) ;
#712 = ORIENTED_EDGE ( 'NONE', *, *, #1111, .F. ) ;
#713 = ORIENTED_EDGE ( 'NONE', *, *, #289, .F. ) ;
#714 = VECTOR ( 'NONE', #552, 1000.000000000000000 ) ;
#715 = VECTOR ( 'NONE', #169, 1000.000000000000000 ) ;
#716 = CC_DESIGN_APPROVAL ( #635, ( #823 ) ) ;
#717 = CARTESIAN_POINT ( 'NONE',  ( 45.00000000000000000, 0.000000000000000000, -12.00000000000000000 ) ) ;
#718 = EDGE_CURVE ( 'NONE', #19, #1169, #414, .T. ) ;
#719 = CARTESIAN_POINT ( 'NONE',  ( 16.15726203614908130, 8.847194283801679049, -29.91614824198679656 ) ) ;
#720 = DIRECTION ( 'NONE',  ( 0.8660254037844408170, 0.000000000000000000, 0.4999999999999960587 ) ) ;
#721 = EDGE_CURVE ( 'NONE', #205, #602, #133, .T. ) ;
#722 = DATE_AND_TIME ( #151, #311 ) ;
#723 = DIRECTION ( 'NONE',  ( 0.7071067811865480168, 0.7071067811865471286, 0.000000000000000000 ) ) ;
#724 = CARTESIAN_POINT ( 'NONE',  ( 58.68629150101533298, 48.35685424949230082, 4.898587196589416773E-16 ) ) ;
#725 = CARTESIAN_POINT ( 'NONE',  ( 67.66370849898471818, 67.66370849898477502, 3.469446951953614189E-15 ) ) ;
#726 = ORIENTED_EDGE ( 'NONE', *, *, #908, .F. ) ;
#727 = CARTESIAN_POINT ( 'NONE',  ( 16.65829904509573467, 8.980537797896174013, -29.64014358068089550 ) ) ;
#728 = DIRECTION ( 'NONE',  ( -0.7071067811865476838, 0.7071067811865474617, 0.000000000000000000 ) ) ;
#729 = DIRECTION ( 'NONE',  ( -0.4999999999999951150, 0.000000000000000000, 0.8660254037844414832 ) ) ;
#730 = VERTEX_POINT ( 'NONE', #724 ) ;
#731 = VECTOR ( 'NONE', #772, 1000.000000000000000 ) ;
#732 = AXIS2_PLACEMENT_3D ( 'NONE', #340, #728, #624 ) ;
#733 = CIRCLE ( 'NONE', #332, 1.700000000000000844 ) ;
#734 = CARTESIAN_POINT ( 'NONE',  ( 14.33561801052261409, 6.000000000000000000, -30.83001875212501375 ) ) ;
#735 = LINE ( 'NONE', #1016, #769 ) ;
#736 = EDGE_LOOP ( 'NONE', ( #221, #367, #952, #1018 ) ) ;
#737 = EDGE_LOOP ( 'NONE', ( #609, #406 ) ) ;
#738 = CARTESIAN_POINT ( 'NONE',  ( -14.35349405589639282, 5.605234485566803038, 30.82172435383714415 ) ) ;
#739 = DIRECTION ( 'NONE',  ( -0.8660254037844420383, 0.000000000000000000, -0.4999999999999941158 ) ) ;
#740 = ORIENTED_EDGE ( 'NONE', *, *, #1248, .T. ) ;
#741 = CARTESIAN_POINT ( 'NONE',  ( -14.33561801052261586, 6.000000000000000000, 30.83001875212501375 ) ) ;
#742 = ORIENTED_EDGE ( 'NONE', *, *, #911, .F. ) ;
#743 = FACE_OUTER_BOUND ( 'NONE', #114, .T. ) ;
#744 = ORIENTED_EDGE ( 'NONE', *, *, #598, .F. ) ;
#745 = EDGE_CURVE ( 'NONE', #847, #1109, #439, .T. ) ;
#746 = DIRECTION ( 'NONE',  ( -1.051620219116009685E-14, 0.000000000000000000, -1.000000000000000000 ) ) ;
#747 = EDGE_CURVE ( 'NONE', #466, #1102, #546, .T. ) ;
#748 = CARTESIAN_POINT ( 'NONE',  ( 31.81194744117373574, 12.00000000000000000, 12.00000000000000355 ) ) ;
#749 = AXIS2_PLACEMENT_3D ( 'NONE', #147, #162, #429 ) ;
#750 = VECTOR ( 'NONE', #498, 1000.000000000000000 ) ;
#751 = CARTESIAN_POINT ( 'NONE',  ( 70.00000000000009948, 42.69999999999991758, 0.000000000000000000 ) ) ;
#752 = AXIS2_PLACEMENT_3D ( 'NONE', #386, #1056, #201 ) ;
#753 = DIRECTION ( 'NONE',  ( 0.000000000000000000, 1.000000000000000000, -0.000000000000000000 ) ) ;
#754 = ORIENTED_EDGE ( 'NONE', *, *, #176, .T. ) ;
#755 = DIRECTION ( 'NONE',  ( 0.7071067811865474617, 0.7071067811865476838, 0.000000000000000000 ) ) ;
#756 = ORIENTED_EDGE ( 'NONE', *, *, #359, .T. ) ;
#757 = CARTESIAN_POINT ( 'NONE',  ( -17.17048203619424740, 3.000070849676094831, 29.34642866063920152 ) ) ;
#758 = CARTESIAN_POINT ( 'NONE',  ( 0.000000000000000000, 0.000000000000000000, 0.000000000000000000 ) ) ;
#759 = EDGE_LOOP ( 'NONE', ( #1215, #1008, #898, #228 ) ) ;
#760 = CARTESIAN_POINT ( 'NONE',  ( -15.83646478466425123, 3.303168475762573220, 30.08719703238245557 ) ) ;
#761 = DIRECTION ( 'NONE',  ( -0.4999999999999951150, -0.000000000000000000, 0.8660254037844414832 ) ) ;
#762 = CARTESIAN_POINT ( 'NONE',  ( -15.49999999999989519, 6.000000000000000000, 26.84678751731776103 ) ) ;
#763 = CARTESIAN_POINT ( 'NONE',  ( 15.00445837663827753, 4.018516872070421186, -30.51041455775795441 ) ) ;
#764 = VERTEX_POINT ( 'NONE', #1234 ) ;
#765 = CARTESIAN_POINT ( 'NONE',  ( -14.33561801052261231, 6.195796974163391369, 30.83001875212500664 ) ) ;
#766 = FACE_OUTER_BOUND ( 'NONE', #534, .T. ) ;
#767 = AXIS2_PLACEMENT_3D ( 'NONE', #60, #40, #611 ) ;
#768 = CARTESIAN_POINT ( 'NONE',  ( 66.46446609406736172, 46.23553390593265533, 0.000000000000000000 ) ) ;
#769 = VECTOR ( 'NONE', #938, 1000.000000000000000 ) ;
#770 = DIRECTION ( 'NONE',  ( 0.7071067811865476838, -0.7071067811865474617, 0.000000000000000000 ) ) ;
#771 = EDGE_CURVE ( 'NONE', #286, #205, #843, .T. ) ;
#772 = DIRECTION ( 'NONE',  ( -0.000000000000000000, -1.000000000000000000, -0.000000000000000000 ) ) ;
#773 = ADVANCED_FACE ( 'NONE', ( #743 ), #443, .F. ) ;
#774 = ORIENTED_EDGE ( 'NONE', *, *, #696, .F. ) ;
#775 = CARTESIAN_POINT ( 'NONE',  ( -19.46633769125990199, 6.790516980739044861, 27.87623230554016374 ) ) ;
#776 = DIRECTION ( 'NONE',  ( -0.000000000000000000, -0.000000000000000000, -1.000000000000000000 ) ) ;
#777 = EDGE_CURVE ( 'NONE', #786, #604, #409, .T. ) ;
#778 = CARTESIAN_POINT ( 'NONE',  ( 61.51471862576153171, 51.18528137423849245, 0.000000000000000000 ) ) ;
#779 = DIRECTION ( 'NONE',  ( 0.7071067811865475727, -0.7071067811865475727, 0.000000000000000000 ) ) ;
#780 = EDGE_LOOP ( 'NONE', ( #1093, #415, #589, #981 ) ) ;
#781 = CARTESIAN_POINT ( 'NONE',  ( 14.42275429877535942, 5.222538801355726790, -30.78937550745138552 ) ) ;
#782 = ORIENTED_EDGE ( 'NONE', *, *, #1034, .T. ) ;
#783 = CC_DESIGN_PERSON_AND_ORGANIZATION_ASSIGNMENT ( #808, #622, ( #560 ) ) ;
#784 = DIRECTION ( 'NONE',  ( -0.7071067811865476838, 0.7071067811865474617, 0.000000000000000000 ) ) ;
#785 = ORIENTED_EDGE ( 'NONE', *, *, #681, .T. ) ;
#786 = VERTEX_POINT ( 'NONE', #1130 ) ;
#787 = EDGE_CURVE ( 'NONE', #1109, #1014, #735, .T. ) ;
#788 = CARTESIAN_POINT ( 'NONE',  ( 25.99999999999981881, 12.00000000000000000, -15.01110699893056655 ) ) ;
#789 = FACE_OUTER_BOUND ( 'NONE', #813, .T. ) ;
#790 = CIRCLE ( 'NONE', #68, 2.999999999999998224 ) ;
#791 = VECTOR ( 'NONE', #615, 1000.000000000000000 ) ;
#792 = CARTESIAN_POINT ( 'NONE',  ( 28.02943725152286092, 12.00000000000000000, 12.00000000000000000 ) ) ;
#793 = ORIENTED_EDGE ( 'NONE', *, *, #1100, .F. ) ;
#794 = CARTESIAN_POINT ( 'NONE',  ( 19.53177043322925499, 6.000000000000000000, -27.83001875212503862 ) ) ;
#795 = VECTOR ( 'NONE', #32, 1000.000000000000114 ) ;
#796 = DIRECTION ( 'NONE',  ( 0.4999999999999951705, -0.000000000000000000, -0.8660254037844413721 ) ) ;
#797 = VERTEX_POINT ( 'NONE', #269 ) ;
#798 = VERTEX_POINT ( 'NONE', #80 ) ;
#799 = CARTESIAN_POINT ( 'NONE',  ( -15.68059504457757569, 8.602856548564023598, 30.16861879973342297 ) ) ;
#800 = CARTESIAN_POINT ( 'NONE',  ( 45.00000000000000000, -2.473065397383528347E-16, 12.00000000000000000 ) ) ;
#801 = PERSON_AND_ORGANIZATION ( #67, #1182 ) ;
#802 = DIRECTION ( 'NONE',  ( -0.000000000000000000, -1.000000000000000000, -0.000000000000000000 ) ) ;
#803 = CARTESIAN_POINT ( 'NONE',  ( 15.83334224343106378, 3.304917029850841459, -30.08883910820846452 ) ) ;
#804 = DIRECTION ( 'NONE',  ( -0.000000000000000000, -1.000000000000000000, -0.000000000000000000 ) ) ;
#805 = EDGE_LOOP ( 'NONE', ( #199, #1066, #95, #492, #840, #382 ) ) ;
#806 = ORIENTED_EDGE ( 'NONE', *, *, #858, .T. ) ;
#807 = B_SPLINE_CURVE_WITH_KNOTS ( 'NONE', 3,
 ( #532, #1115, #516, #623, #1015, #904, #153, #809, #828, #711, #432, #237, #831, #825, #1101, #1124, #916, #253, #727, #548, #719, #419, #921, #628, #44, #527, #57, #424, #438, #1194, #1213, #608, #1209, #136 ),
 .UNSPECIFIED., .F., .F.,
 ( 4, 2, 2, 2, 2, 2, 2, 2, 2, 2, 2, 2, 2, 2, 2, 2, 4 ),
 ( 0.000000000000000000, 0.0005864954124923791494, 0.001172990824984758299, 0.001759486237477137557, 0.002345981649969516598, 0.002932477062461895639, 0.003518972474954275113, 0.004105467887446654154, 0.004691963299939033195, 0.005278458712431412236, 0.005864954124923791277, 0.006451449537416171186, 0.007037944949908545890, 0.007624440362400920594, 0.008210935774893294431, 0.008797431187385670870, 0.009383926599878045574 ),
 .UNSPECIFIED. ) ;
#808 = PERSON_AND_ORGANIZATION ( #67, #1182 ) ;
#809 = CARTESIAN_POINT ( 'NONE',  ( 19.02446770245457230, 7.829123768027981711, -28.17945255815112660 ) ) ;
#810 = EDGE_CURVE ( 'NONE', #827, #797, #1021, .T. ) ;
#811 = DIRECTION ( 'NONE',  ( -0.4999999999999951150, -0.000000000000000000, 0.8660254037844414832 ) ) ;
#812 = EDGE_LOOP ( 'NONE', ( #390, #1050 ) ) ;
#813 = EDGE_LOOP ( 'NONE', ( #372, #170, #475, #223 ) ) ;
#814 = DIRECTION ( 'NONE',  ( -0.8660254037844412611, 0.000000000000000000, -0.4999999999999956701 ) ) ;
#815 = APPROVAL_DATE_TIME ( #226, #635 ) ;
#816 = FACE_OUTER_BOUND ( 'NONE', #583, .T. ) ;
#817 = ORIENTED_EDGE ( 'NONE', *, *, #1003, .T. ) ;
#818 = CARTESIAN_POINT ( 'NONE',  ( 18.91831824380228610, 4.015433754720077353, -28.25095523844450440 ) ) ;
#819 = CARTESIAN_POINT ( 'NONE',  ( 0.000000000000000000, 12.00000000000000000, 0.000000000000000000 ) ) ;
#820 = ORIENTED_EDGE ( 'NONE', *, *, #747, .F. ) ;
#821 = CIRCLE ( 'NONE', #970, 1.700000000000000844 ) ;
#822 = AXIS2_PLACEMENT_3D ( 'NONE', #1069, #202, #578 ) ;
#823 = PRODUCT_DEFINITION_FORMATION_WITH_SPECIFIED_SOURCE ( 'ANY', '', #1232, .NOT_KNOWN. ) ;
#824 = UNCERTAINTY_MEASURE_WITH_UNIT (LENGTH_MEASURE( 1.000000000000000082E-05 ), #957, 'distance_accuracy_value', 'NONE');
#825 = CARTESIAN_POINT ( 'NONE',  ( 17.83175084837293056, 8.846216684935892971, -28.94928806841220492 ) ) ;
#826 = DIRECTION ( 'NONE',  ( 0.000000000000000000, 0.000000000000000000, 1.000000000000000000 ) ) ;
#827 = VERTEX_POINT ( 'NONE', #352 ) ;
#828 = CARTESIAN_POINT ( 'NONE',  ( 18.91915244845744226, 7.983424460677797541, -28.25039621133299761 ) ) ;
#829 = CARTESIAN_POINT ( 'NONE',  ( 0.000000000000000000, 0.000000000000000000, 0.000000000000000000 ) ) ;
#830 = DIRECTION ( 'NONE',  ( 0.4999999999999951705, 0.000000000000000000, -0.8660254037844414832 ) ) ;
#831 = CARTESIAN_POINT ( 'NONE',  ( 18.13828718947221219, 8.696599515239155309, -28.75821892639719835 ) ) ;
#832 = DIRECTION ( 'NONE',  ( -0.4999999999999951150, -0.000000000000000000, 0.8660254037844414832 ) ) ;
#833 = CARTESIAN_POINT ( 'NONE',  ( 31.81194744117373574, 0.000000000000000000, 12.00000000000000355 ) ) ;
#834 = VERTEX_POINT ( 'NONE', #528 ) ;
#835 = DIRECTION ( 'NONE',  ( 1.000000000000000000, 0.000000000000000000, 0.000000000000000000 ) ) ;
#836 = AXIS2_PLACEMENT_3D ( 'NONE', #249, #811, #720 ) ;
#837 = AXIS2_PLACEMENT_3D ( 'NONE', #10, #675, #1254 ) ;
#838 = CARTESIAN_POINT ( 'NONE',  ( -14.69648713232895432, 4.494748599632367281, 30.65982923010851025 ) ) ;
#839 = FACE_OUTER_BOUND ( 'NONE', #426, .T. ) ;
#840 = ORIENTED_EDGE ( 'NONE', *, *, #718, .T. ) ;
#841 = CARTESIAN_POINT ( 'NONE',  ( -14.33561801052261231, 5.804157469057444452, 30.83001875212501020 ) ) ;
#842 = EDGE_CURVE ( 'NONE', #1197, #895, #345, .T. ) ;
#843 = LINE ( 'NONE', #69, #542 ) ;
#844 = ORIENTED_EDGE ( 'NONE', *, *, #1007, .T. ) ;
#845 = FACE_BOUND ( 'NONE', #1006, .T. ) ;
#846 = CARTESIAN_POINT ( 'NONE',  ( -12.99999999999985789, 12.00000000000000000, 22.51666049839545636 ) ) ;
#847 = VERTEX_POINT ( 'NONE', #638 ) ;
#848 = CARTESIAN_POINT ( 'NONE',  ( -19.20503348886271056, 4.496935222086557715, 28.05670341523551770 ) ) ;
#849 = AXIS2_PLACEMENT_3D ( 'NONE', #79, #179, #472 ) ;
#850 = LOCAL_TIME ( 14, 26, 14.00000000000000000, #411 ) ;
#851 = ORIENTED_EDGE ( 'NONE', *, *, #310, .T. ) ;
#852 = CARTESIAN_POINT ( 'NONE',  ( -17.33827956440006446, 3.019120152246636657, 29.24759101592773902 ) ) ;
#853 = DIRECTION ( 'NONE',  ( -0.8660254037844420383, 0.000000000000000000, -0.4999999999999941158 ) ) ;
#854 = DIRECTION ( 'NONE',  ( -0.000000000000000000, -1.000000000000000000, -0.000000000000000000 ) ) ;
#855 = VERTEX_POINT ( 'NONE', #533 ) ;
#856 = ADVANCED_FACE ( 'NONE', ( #917, #1219 ), #1117, .T. ) ;
#857 =( NAMED_UNIT ( * ) SI_UNIT ( $, .STERADIAN. ) SOLID_ANGLE_UNIT ( ) );
#858 = EDGE_CURVE ( 'NONE', #620, #276, #1037, .T. ) ;
#859 = ORIENTED_EDGE ( 'NONE', *, *, #771, .F. ) ;
#860 = DIRECTION ( 'NONE',  ( 0.8660254037844414832, 0.000000000000000000, 0.4999999999999951150 ) ) ;
#861 = CARTESIAN_POINT ( 'NONE',  ( -18.91831824380229676, 7.984566245279919983, 28.25095523844449374 ) ) ;
#862 = DIRECTION ( 'NONE',  ( 0.8660254037844415942, 0.000000000000000000, 0.4999999999999950040 ) ) ;
#863 = VECTOR ( 'NONE', #487, 999.9999999999998863 ) ;
#864 = DIRECTION ( 'NONE',  ( -0.8660254037844415942, 0.000000000000000000, -0.4999999999999949485 ) ) ;
#865 = DIRECTION ( 'NONE',  ( 0.8660254037844415942, 0.000000000000000000, 0.4999999999999949485 ) ) ;
#866 = ORIENTED_EDGE ( 'NONE', *, *, #375, .T. ) ;
#867 = FACE_OUTER_BOUND ( 'NONE', #550, .T. ) ;
#868 =( NAMED_UNIT ( * ) PLANE_ANGLE_UNIT ( ) SI_UNIT ( $, .RADIAN. ) );
#869 = CARTESIAN_POINT ( 'NONE',  ( 0.000000000000000000, 12.00000000000000000, 0.000000000000000000 ) ) ;
#870 = ORIENTED_EDGE ( 'NONE', *, *, #81, .T. ) ;
#871 = EDGE_LOOP ( 'NONE', ( #509, #483 ) ) ;
#872 = EDGE_CURVE ( 'NONE', #17, #764, #1125, .T. ) ;
#873 = PLANE ( 'NONE',  #1035 ) ;
#874 = CYLINDRICAL_SURFACE ( 'NONE', #251, 34.00000000000000000 ) ;
#875 = CARTESIAN_POINT ( 'NONE',  ( 0.000000000000000000, 0.000000000000000000, 12.00000000000000355 ) ) ;
#876 = EDGE_CURVE ( 'NONE', #499, #1114, #649, .T. ) ;
#877 = CARTESIAN_POINT ( 'NONE',  ( 53.17842712474615752, 65.17842712474619304, 12.00000000000000355 ) ) ;
#878 = DIRECTION ( 'NONE',  ( -0.4999999999999951150, -0.000000000000000000, 0.8660254037844414832 ) ) ;
#879 = ORIENTED_EDGE ( 'NONE', *, *, #653, .F. ) ;
#880 = DIRECTION ( 'NONE',  ( -0.4999999999999951705, 0.000000000000000000, 0.8660254037844415942 ) ) ;
#881 = ORIENTED_EDGE ( 'NONE', *, *, #333, .F. ) ;
#882 = DIRECTION ( 'NONE',  ( -0.7071067811865474617, -0.7071067811865476838, 0.000000000000000000 ) ) ;
#883 = LINE ( 'NONE', #318, #1241 ) ;
#884 = LINE ( 'NONE', #231, #995 ) ;
#885 = COORDINATED_UNIVERSAL_TIME_OFFSET ( 5, 0, .BEHIND. ) ;
#886 = VECTOR ( 'NONE', #22, 999.9999999999998863 ) ;
#887 = DIRECTION ( 'NONE',  ( -0.8660254037844412611, 0.000000000000000000, -0.4999999999999956146 ) ) ;
#888 = ORIENTED_EDGE ( 'NONE', *, *, #56, .F. ) ;
#889 = CIRCLE ( 'NONE', #849, 8.000000000000005329 ) ;
#890 = ORIENTED_EDGE ( 'NONE', *, *, #418, .F. ) ;
#891 = ORIENTED_EDGE ( 'NONE', *, *, #194, .T. ) ;
#892 = CIRCLE ( 'NONE', #752, 1.700000000000000844 ) ;
#893 = APPLICATION_PROTOCOL_DEFINITION ( 'international standard', 'config_control_design', 1994, #633 ) ;
#894 = LINE ( 'NONE', #1064, #364 ) ;
#895 = VERTEX_POINT ( 'NONE', #163 ) ;
#896 = CARTESIAN_POINT ( 'NONE',  ( 19.28075975873278125, 4.668314954653934201, -28.00460606385459883 ) ) ;
#897 = CARTESIAN_POINT ( 'NONE',  ( 31.81194744117373574, 12.00000000000000000, -11.99999999999999822 ) ) ;
#898 = ORIENTED_EDGE ( 'NONE', *, *, #333, .T. ) ;
#899 = ORIENTED_EDGE ( 'NONE', *, *, #9, .F. ) ;
#900 = CC_DESIGN_PERSON_AND_ORGANIZATION_ASSIGNMENT ( #994, #129, ( #823 ) ) ;
#901 = ADVANCED_FACE ( 'NONE', ( #536, #839 ), #1228, .T. ) ;
#902 = EDGE_CURVE ( 'NONE', #764, #907, #107, .T. ) ;
#903 = PERSON_AND_ORGANIZATION_ROLE ( 'design_supplier' ) ;
#904 = CARTESIAN_POINT ( 'NONE',  ( 19.28120865394322792, 7.330776817978767568, -28.00429796210953981 ) ) ;
#905 = ORIENTED_EDGE ( 'NONE', *, *, #108, .T. ) ;
#906 = FACE_OUTER_BOUND ( 'NONE', #459, .T. ) ;
#907 = VERTEX_POINT ( 'NONE', #180 ) ;
#908 = EDGE_CURVE ( 'NONE', #286, #990, #1049, .T. ) ;
#909 = DIRECTION ( 'NONE',  ( 0.000000000000000000, 0.000000000000000000, 1.000000000000000000 ) ) ;
#910 = CARTESIAN_POINT ( 'NONE',  ( 63.63603896932117010, 43.40710678118646371, 4.898587196589416773E-16 ) ) ;
#911 = EDGE_CURVE ( 'NONE', #798, #125, #972, .T. ) ;
#912 = PERSON_AND_ORGANIZATION_ROLE ( 'design_owner' ) ;
#913 = CARTESIAN_POINT ( 'NONE',  ( 0.000000000000000000, 12.00000000000000000, -30.02221399786053269 ) ) ;
#914 = FACE_OUTER_BOUND ( 'NONE', #632, .T. ) ;
#915 = CIRCLE ( 'NONE', #1155, 4.000000000000005329 ) ;
#916 = CARTESIAN_POINT ( 'NONE',  ( 17.17048203619424740, 8.999929150323907834, -29.34642866063920152 ) ) ;
#917 = FACE_OUTER_BOUND ( 'NONE', #41, .T. ) ;
#918 = DIRECTION ( 'NONE',  ( -0.8660254037844345998, 0.000000000000000000, 0.5000000000000067724 ) ) ;
#919 = ORIENTED_EDGE ( 'NONE', *, *, #1257, .F. ) ;
#920 = ORIENTED_EDGE ( 'NONE', *, *, #348, .F. ) ;
#921 = CARTESIAN_POINT ( 'NONE',  ( 15.68071675289123235, 8.602891498393178793, -30.16855299321280270 ) ) ;
#922 = DIRECTION ( 'NONE',  ( 0.000000000000000000, 0.000000000000000000, -1.000000000000000000 ) ) ;
#923 = ORIENTED_EDGE ( 'NONE', *, *, #361, .F. ) ;
#924 = EDGE_CURVE ( 'NONE', #238, #61, #171, .T. ) ;
#925 = LINE ( 'NONE', #1010, #207 ) ;
#926 = CARTESIAN_POINT ( 'NONE',  ( -14.89261358721224049, 4.169894373053018910, 30.56504413528807262 ) ) ;
#927 = EDGE_CURVE ( 'NONE', #953, #378, #111, .T. ) ;
#928 = ORIENTED_EDGE ( 'NONE', *, *, #296, .F. ) ;
#929 = CIRCLE ( 'NONE', #646, 1.700000000000000844 ) ;
#930 = DIRECTION ( 'NONE',  ( -0.4999999999999951150, -0.000000000000000000, 0.8660254037844414832 ) ) ;
#931 = AXIS2_PLACEMENT_3D ( 'NONE', #200, #471, #882 ) ;
#932 = CARTESIAN_POINT ( 'NONE',  ( 4.163799117101000559E-15, 12.00000000000000000, 34.00000000000000000 ) ) ;
#933 = AXIS2_PLACEMENT_3D ( 'NONE', #941, #336, #1107 ) ;
#934 = DIRECTION ( 'NONE',  ( 0.7071067811865476838, -0.7071067811865474617, 0.000000000000000000 ) ) ;
#935 = ORIENTED_EDGE ( 'NONE', *, *, #570, .F. ) ;
#936 = CARTESIAN_POINT ( 'NONE',  ( -14.42329472528660794, 5.220617359926197132, 30.78912231655995768 ) ) ;
#937 = CARTESIAN_POINT ( 'NONE',  ( 18.09807621135321654, 6.000000000000000000, -25.34678751731778235 ) ) ;
#938 = DIRECTION ( 'NONE',  ( 0.7071067811865474617, 0.7071067811865476838, 0.000000000000000000 ) ) ;
#939 = ORIENTED_EDGE ( 'NONE', *, *, #597, .F. ) ;
#940 = CARTESIAN_POINT ( 'NONE',  ( -19.53177043322926920, 5.801679210774864259, 27.83001875212504217 ) ) ;
#941 = CARTESIAN_POINT ( 'NONE',  ( 59.17842712474615041, 59.17842712474620015, 3.469446951953614189E-15 ) ) ;
#942 = ORIENTED_EDGE ( 'NONE', *, *, #598, .T. ) ;
#943 = CARTESIAN_POINT ( 'NONE',  ( 66.46446609406736172, 46.23553390593265533, 0.000000000000000000 ) ) ;
#944 = VECTOR ( 'NONE', #835, 1000.000000000000000 ) ;
#945 = FACE_OUTER_BOUND ( 'NONE', #1053, .T. ) ;
#946 = AXIS2_PLACEMENT_3D ( 'NONE', #762, #539, #1044 ) ;
#947 = CARTESIAN_POINT ( 'NONE',  ( -25.99999999999997868, 12.00000000000000000, 8.713424672675504356E-14 ) ) ;
#948 = AXIS2_PLACEMENT_3D ( 'NONE', #637, #344, #723 ) ;
#949 = VECTOR ( 'NONE', #93, 1000.000000000000000 ) ;
#950 = CARTESIAN_POINT ( 'NONE',  ( 12.99999999999992006, 6.000000000000000000, -22.51666049839555939 ) ) ;
#951 = CARTESIAN_POINT ( 'NONE',  ( 14.69481186571079157, 4.497708435096111401, -30.66063569470528805 ) ) ;
#952 = ORIENTED_EDGE ( 'NONE', *, *, #747, .T. ) ;
#953 = VERTEX_POINT ( 'NONE', #473 ) ;
#954 = ADVANCED_FACE ( 'NONE', ( #1258, #963 ), #379, .T. ) ;
#955 = LINE ( 'NONE', #575, #104 ) ;
#956 = CARTESIAN_POINT ( 'NONE',  ( -17.66671650312581576, 8.904848440174884416, 29.05036849087060347 ) ) ;
#957 =( LENGTH_UNIT ( ) NAMED_UNIT ( * ) SI_UNIT ( .MILLI., .METRE. ) );
#958 = CARTESIAN_POINT ( 'NONE',  ( -25.82050807568852591, 6.000000000000000000, 38.72243186433554030 ) ) ;
#959 = FACE_OUTER_BOUND ( 'NONE', #261, .T. ) ;
#960 = CARTESIAN_POINT ( 'NONE',  ( -18.13787072469656891, 8.696940440657472848, 28.75848962754274751 ) ) ;
#961 = DIRECTION ( 'NONE',  ( 0.8660254037844414832, 0.000000000000000000, 0.4999999999999950595 ) ) ;
#962 = EDGE_CURVE ( 'NONE', #399, #730, #91, .T. ) ;
#963 = FACE_OUTER_BOUND ( 'NONE', #737, .T. ) ;
#964 = LINE ( 'NONE', #112, #252 ) ;
#965 = ORIENTED_EDGE ( 'NONE', *, *, #597, .T. ) ;
#966 = VERTEX_POINT ( 'NONE', #682 ) ;
#967 = CARTESIAN_POINT ( 'NONE',  ( -15.25243229581317372, 8.258220348596886140, 30.38720909731845410 ) ) ;
#968 = CARTESIAN_POINT ( 'NONE',  ( 35.05085898908117770, 6.000000000000000000, -60.70986861802168022 ) ) ;
#969 = CARTESIAN_POINT ( 'NONE',  ( 66.46446609406736172, 46.23553390593265533, 0.000000000000000000 ) ) ;
#970 = AXIS2_PLACEMENT_3D ( 'NONE', #105, #485, #208 ) ;
#971 = AXIS2_PLACEMENT_3D ( 'NONE', #278, #549, #457 ) ;
#972 = LINE ( 'NONE', #101, #582 ) ;
#973 = EDGE_CURVE ( 'NONE', #342, #1198, #504, .T. ) ;
#974 = DIRECTION ( 'NONE',  ( 0.4999999999999951705, -0.000000000000000000, -0.8660254037844413721 ) ) ;
#975 = ORIENTED_EDGE ( 'NONE', *, *, #1190, .F. ) ;
#976 = ORIENTED_EDGE ( 'NONE', *, *, #787, .F. ) ;
#977 = CARTESIAN_POINT ( 'NONE',  ( -16.15378590973120154, 8.845844130793109272, 29.91802410353736974 ) ) ;
#978 = DIRECTION ( 'NONE',  ( -1.000000000000000000, 0.000000000000000000, 0.000000000000000000 ) ) ;
#979 = VERTEX_POINT ( 'NONE', #1240 ) ;
#980 = CARTESIAN_POINT ( 'NONE',  ( 17.82916065483167145, 3.152658069547176645, -28.95089135808240144 ) ) ;
#981 = ORIENTED_EDGE ( 'NONE', *, *, #911, .T. ) ;
#982 = DIRECTION ( 'NONE',  ( 0.000000000000000000, 1.000000000000000000, -0.000000000000000000 ) ) ;
#983 = CARTESIAN_POINT ( 'NONE',  ( -18.68720167388390863, 8.261035668855988945, 28.40436112039783012 ) ) ;
#984 = CARTESIAN_POINT ( 'NONE',  ( 8.100505063388386162, 104.5994949366116344, 0.000000000000000000 ) ) ;
#985 = PERSON_AND_ORGANIZATION_ROLE ( 'creator' ) ;
#986 = CARTESIAN_POINT ( 'NONE',  ( 45.00000000000000000, 17.69999999999982521, 12.00000000000000000 ) ) ;
#987 = ORIENTED_EDGE ( 'NONE', *, *, #872, .T. ) ;
#988 = DIRECTION ( 'NONE',  ( 0.7071067811865474617, -0.7071067811865474617, -0.000000000000000000 ) ) ;
#989 = CYLINDRICAL_SURFACE ( 'NONE', #556, 1.699999999999996181 ) ;
#990 = VERTEX_POINT ( 'NONE', #275 ) ;
#991 = DIRECTION ( 'NONE',  ( 0.000000000000000000, 1.000000000000000000, -0.000000000000000000 ) ) ;
#992 = FACE_OUTER_BOUND ( 'NONE', #524, .T. ) ;
#993 = AXIS2_PLACEMENT_3D ( 'NONE', #1033, #266, #689 ) ;
#994 = PERSON_AND_ORGANIZATION ( #67, #1182 ) ;
#995 = VECTOR ( 'NONE', #410, 1000.000000000000000 ) ;
#996 = ADVANCED_FACE ( 'NONE', ( #655, #63 ), #1236, .T. ) ;
#997 = PLANE ( 'NONE',  #51 ) ;
#998 = ORIENTED_EDGE ( 'NONE', *, *, #721, .F. ) ;
#999 = DIRECTION ( 'NONE',  ( 0.8660254037844347108, 0.000000000000000000, -0.5000000000000068834 ) ) ;
#1000 = AXIS2_PLACEMENT_3D ( 'NONE', #705, #784, #198 ) ;
#1001 = CARTESIAN_POINT ( 'NONE',  ( 35.05085898908117770, 6.000000000000000000, -60.70986861802168733 ) ) ;
#1002 = ORIENTED_EDGE ( 'NONE', *, *, #777, .T. ) ;
#1003 = EDGE_CURVE ( 'NONE', #620, #187, #131, .T. ) ;
#1004 = APPROVAL_STATUS ( 'not_yet_approved' ) ;
#1005 = DIRECTION ( 'NONE',  ( 0.000000000000000000, 0.000000000000000000, 1.000000000000000000 ) ) ;
#1006 = EDGE_LOOP ( 'NONE', ( #975, #596 ) ) ;
#1007 = EDGE_CURVE ( 'NONE', #530, #684, #1103, .T. ) ;
#1008 = ORIENTED_EDGE ( 'NONE', *, *, #520, .F. ) ;
#1009 = ADVANCED_FACE ( 'NONE', ( #389, #220 ), #997, .T. ) ;
#1010 = CARTESIAN_POINT ( 'NONE',  ( 10.92893218813457779, 107.4279220613578332, 0.000000000000000000 ) ) ;
#1011 = APPROVAL_DATE_TIME ( #722, #1165 ) ;
#1012 = LINE ( 'NONE', #913, #584 ) ;
#1013 = FACE_BOUND ( 'NONE', #83, .T. ) ;
#1014 = VERTEX_POINT ( 'NONE', #203 ) ;
#1015 = CARTESIAN_POINT ( 'NONE',  ( 19.40551229318870341, 6.967485707302587095, -27.91830589678408714 ) ) ;
#1016 = CARTESIAN_POINT ( 'NONE',  ( 5.164718625761525850, -5.164718625761524073, -12.00000000000000000 ) ) ;
#1017 = CYLINDRICAL_SURFACE ( 'NONE', #836, 2.999999999999998668 ) ;
#1018 = ORIENTED_EDGE ( 'NONE', *, *, #1100, .T. ) ;
#1019 = PRODUCT_DEFINITION_SHAPE ( 'NONE', 'NONE',  #141 ) ;
#1020 = CIRCLE ( 'NONE', #308, 1.700000000000000844 ) ;
#1021 = CIRCLE ( 'NONE', #287, 34.00000000000000000 ) ;
#1022 = AXIS2_PLACEMENT_3D ( 'NONE', #1079, #192, #565 ) ;
#1023 = DIRECTION ( 'NONE',  ( 0.7071067811865479058, -0.7071067811865472397, -3.661596218945460868E-16 ) ) ;
#1024 = DIRECTION ( 'NONE',  ( 0.7071067811865472397, 0.7071067811865477948, 0.000000000000000000 ) ) ;
#1025 = CARTESIAN_POINT ( 'NONE',  ( 15.49999999999988454, 6.000000000000000000, -26.84678751731776103 ) ) ;
#1026 = CARTESIAN_POINT ( 'NONE',  ( 25.99999999999981881, 0.000000000000000000, -15.01110699893056655 ) ) ;
#1027 = ADVANCED_FACE ( 'NONE', ( #297 ), #116, .F. ) ;
#1028 = DIRECTION ( 'NONE',  ( -0.000000000000000000, -1.000000000000000000, -0.000000000000000000 ) ) ;
#1029 = VERTEX_POINT ( 'NONE', #792 ) ;
#1030 = FACE_BOUND ( 'NONE', #871, .T. ) ;
#1031 = PLANE ( 'NONE',  #478 ) ;
#1032 = CARTESIAN_POINT ( 'NONE',  ( -23.22243186433519568, 6.000000000000000000, 40.22243186433553319 ) ) ;
#1033 = CARTESIAN_POINT ( 'NONE',  ( -6.213934839320046368E-15, 12.00000000000000000, -11.99999999999998224 ) ) ;
#1034 = EDGE_CURVE ( 'NONE', #798, #466, #894, .T. ) ;
#1035 = AXIS2_PLACEMENT_3D ( 'NONE', #3, #120, #300 ) ;
#1036 = LINE ( 'NONE', #634, #944 ) ;
#1037 = CIRCLE ( 'NONE', #30, 1.700000000000000844 ) ;
#1038 = CARTESIAN_POINT ( 'NONE',  ( -18.13828718947221574, 3.303400484760847799, 28.75821892639719835 ) ) ;
#1039 = DIRECTION ( 'NONE',  ( -0.4999999999999951705, -8.326672684688671588E-17, 0.8660254037844413721 ) ) ;
#1040 = APPLICATION_CONTEXT ( 'configuration controlled 3d designs of mechanical parts and assemblies' ) ;
#1041 = DIRECTION ( 'NONE',  ( -0.000000000000000000, -1.000000000000000000, -0.000000000000000000 ) ) ;
#1042 = CARTESIAN_POINT ( 'NONE',  ( 72.82842712474626978, 45.52842712474610209, 3.469446951953614189E-15 ) ) ;
#1043 = DIRECTION ( 'NONE',  ( -0.4999999999999951150, 8.326672684688674053E-17, 0.8660254037844415942 ) ) ;
#1044 = DIRECTION ( 'NONE',  ( 0.8660254037844415942, 0.000000000000000000, 0.4999999999999950040 ) ) ;
#1045 = ORIENTED_EDGE ( 'NONE', *, *, #255, .F. ) ;
#1046 = DIRECTION ( 'NONE',  ( 0.8660254037844414832, 0.000000000000000000, 0.4999999999999950595 ) ) ;
#1047 = CYLINDRICAL_SURFACE ( 'NONE', #130, 12.00000000000000178 ) ;
#1048 = EDGE_CURVE ( 'NONE', #1169, #205, #479, .T. ) ;
#1049 = LINE ( 'NONE', #557, #128 ) ;
#1050 = ORIENTED_EDGE ( 'NONE', *, *, #924, .F. ) ;
#1051 = PLANE ( 'NONE',  #946 ) ;
#1052 = ORIENTED_EDGE ( 'NONE', *, *, #1097, .T. ) ;
#1053 = EDGE_LOOP ( 'NONE', ( #998, #859, #140, #1251 ) ) ;
#1054 = CARTESIAN_POINT ( 'NONE',  ( -15.00440111743942850, 4.018343765710556958, 30.51045143618943811 ) ) ;
#1055 = VECTOR ( 'NONE', #746, 1000.000000000000000 ) ;
#1056 = DIRECTION ( 'NONE',  ( 0.4999999999999951705, 0.000000000000000000, -0.8660254037844414832 ) ) ;
#1057 = AXIS2_PLACEMENT_3D ( 'NONE', #1086, #770, #395 ) ;
#1058 = LOCAL_TIME ( 14, 26, 14.00000000000000000, #885 ) ;
#1059 = ORIENTED_EDGE ( 'NONE', *, *, #1090, .F. ) ;
#1060 = CARTESIAN_POINT ( 'NONE',  ( -16.32137305665516180, 8.903745755086227121, 29.82699374506429280 ) ) ;
#1061 = CARTESIAN_POINT ( 'NONE',  ( 2.099015405931936584E-13, 0.000000000000000000, 30.02221399786052913 ) ) ;
#1062 = DIRECTION ( 'NONE',  ( 1.000000000000000000, 0.000000000000000000, -3.351317181798273424E-15 ) ) ;
#1063 = CC_DESIGN_PERSON_AND_ORGANIZATION_ASSIGNMENT ( #1201, #912, ( #1232 ) ) ;
#1064 = CARTESIAN_POINT ( 'NONE',  ( -25.99999999999997868, 12.00000000000000000, 8.713424672675504356E-14 ) ) ;
#1065 = CARTESIAN_POINT ( 'NONE',  ( 11.52775681356636817, 6.000000000000000000, -23.36666049839555370 ) ) ;
#1066 = ORIENTED_EDGE ( 'NONE', *, *, #1070, .T. ) ;
#1067 = DIRECTION ( 'NONE',  ( 0.000000000000000000, 0.000000000000000000, 1.000000000000000000 ) ) ;
#1068 = EDGE_CURVE ( 'NONE', #730, #399, #210, .T. ) ;
#1069 = CARTESIAN_POINT ( 'NONE',  ( 0.000000000000000000, 12.00000000000000000, 0.000000000000000000 ) ) ;
#1070 = EDGE_CURVE ( 'NONE', #602, #125, #571, .T. ) ;
#1071 = CARTESIAN_POINT ( 'NONE',  ( -13.00000000000001599, 0.000000000000000000, -22.51666049839536754 ) ) ;
#1072 = EDGE_LOOP ( 'NONE', ( #726, #939, #435, #820, #650, #1174 ) ) ;
#1073 = FACE_OUTER_BOUND ( 'NONE', #1175, .T. ) ;
#1074 = VERTEX_POINT ( 'NONE', #23 ) ;
#1075 = ADVANCED_FACE ( 'NONE', ( #580 ), #1092, .F. ) ;
#1076 = CARTESIAN_POINT ( 'NONE',  ( -18.09807621135322364, 6.000000000000000000, 25.34678751731777524 ) ) ;
#1077 = LINE ( 'NONE', #875, #448 ) ;
#1078 = AXIS2_PLACEMENT_3D ( 'NONE', #617, #753, #167 ) ;
#1079 = CARTESIAN_POINT ( 'NONE',  ( 15.49999999999989342, 6.000000000000000000, -26.84678751731776103 ) ) ;
#1080 = VECTOR ( 'NONE', #1183, 999.9999999999998863 ) ;
#1081 = CARTESIAN_POINT ( 'NONE',  ( -15.49999999999989519, 6.000000000000000000, 26.84678751731776103 ) ) ;
#1082 = ORIENTED_EDGE ( 'NONE', *, *, #9, .T. ) ;
#1083 = ORIENTED_EDGE ( 'NONE', *, *, #375, .F. ) ;
#1084 = CARTESIAN_POINT ( 'NONE',  ( -16.82640247592964755, 8.999843788259081379, 29.54507439024183668 ) ) ;
#1085 = CARTESIAN_POINT ( 'NONE',  ( -25.99999999999992539, 12.00000000000000000, 15.01110699893038003 ) ) ;
#1086 = CARTESIAN_POINT ( 'NONE',  ( 72.82842712474626978, 45.52842712474610209, -2.036535695717714232E-14 ) ) ;
#1087 = ORIENTED_EDGE ( 'NONE', *, *, #787, .T. ) ;
#1088 = EDGE_LOOP ( 'NONE', ( #337, #338, #265, #1082 ) ) ;
#1089 = LINE ( 'NONE', #877, #886 ) ;
#1090 = EDGE_CURVE ( 'NONE', #847, #241, #964, .T. ) ;
#1091 = COORDINATED_UNIVERSAL_TIME_OFFSET ( 5, 0, .BEHIND. ) ;
#1092 = CYLINDRICAL_SURFACE ( 'NONE', #188, 3.000000000000001332 ) ;
#1093 = ORIENTED_EDGE ( 'NONE', *, *, #1070, .F. ) ;
#1094 = ORIENTED_EDGE ( 'NONE', *, *, #718, .F. ) ;
#1095 = B_SPLINE_CURVE_WITH_KNOTS ( 'NONE', 3,
 ( #75, #940, #460, #368, #92, #165, #848, #447, #453, #645, #659, #184, #1038, #467, #1247, #852, #757, #1142, #1252, #535, #373, #760, #1148, #173, #665, #1054, #926, #838, #1225, #355, #936, #738, #841, #741 ),
 .UNSPECIFIED., .F., .F.,
 ( 4, 2, 2, 2, 2, 2, 2, 2, 2, 2, 2, 2, 2, 2, 2, 2, 4 ),
 ( 0.000000000000000000, 0.0005864954124923800168, 0.001172990824984760034, 0.001759486237477140159, 0.002345981649969520067, 0.002932477062461899976, 0.003518972474954280318, 0.004105467887446660226, 0.004691963299939040134, 0.005278458712431420043, 0.005864954124923799951, 0.006451449537416180727, 0.007037944949908556298, 0.007624440362400931870, 0.008210935774893306574, 0.008797431187385683013, 0.009383926599878059452 ),
 .UNSPECIFIED. ) ;
#1096 = DIRECTION ( 'NONE',  ( 0.7071067811865475727, -0.7071067811865475727, -0.000000000000000000 ) ) ;
#1097 = EDGE_CURVE ( 'NONE', #1102, #1074, #102, .T. ) ;
#1098 = CALENDAR_DATE ( 2026, 3, 6 ) ;
#1099 = AXIS2_PLACEMENT_3D ( 'NONE', #751, #290, #673 ) ;
#1100 = EDGE_CURVE ( 'NONE', #1102, #19, #488, .T. ) ;
#1101 = CARTESIAN_POINT ( 'NONE',  ( 17.67038849867727990, 8.903834903692610325, -29.04814776873189430 ) ) ;
#1102 = VERTEX_POINT ( 'NONE', #595 ) ;
#1103 = CIRCLE ( 'NONE', #1138, 4.000000000000005329 ) ;
#1104 = LINE ( 'NONE', #138, #1180 ) ;
#1105 = ORIENTED_EDGE ( 'NONE', *, *, #157, .F. ) ;
#1106 = PERSON_AND_ORGANIZATION ( #67, #1182 ) ;
#1107 = DIRECTION ( 'NONE',  ( 0.7071067811865472397, 0.7071067811865477948, 0.000000000000000000 ) ) ;
#1108 = EDGE_CURVE ( 'NONE', #314, #347, #350, .T. ) ;
#1109 = VERTEX_POINT ( 'NONE', #601 ) ;
#1110 = PLANE ( 'NONE',  #749 ) ;
#1111 = EDGE_CURVE ( 'NONE', #1193, #378, #1157, .T. ) ;
#1112 = FACE_OUTER_BOUND ( 'NONE', #759, .T. ) ;
#1113 = EDGE_LOOP ( 'NONE', ( #774, #1141, #307, #942 ) ) ;
#1114 = VERTEX_POINT ( 'NONE', #986 ) ;
#1115 = CARTESIAN_POINT ( 'NONE',  ( 19.53177043322926210, 6.198320789225137517, -27.83001875212504217 ) ) ;
#1116 = EDGE_LOOP ( 'NONE', ( #1094, #793, #1052, #754 ) ) ;
#1117 = CYLINDRICAL_SURFACE ( 'NONE', #480, 34.00000000000000000 ) ;
#1118 = ORIENTED_EDGE ( 'NONE', *, *, #206, .T. ) ;
#1119 = AXIS2_PLACEMENT_3D ( 'NONE', #370, #280, #642 ) ;
#1120 = ORIENTED_EDGE ( 'NONE', *, *, #924, .T. ) ;
#1121 = VECTOR ( 'NONE', #259, 1000.000000000000000 ) ;
#1122 = CIRCLE ( 'NONE', #1022, 2.999999999999998224 ) ;
#1123 = ADVANCED_FACE ( 'NONE', ( #690 ), #215, .T. ) ;
#1124 = CARTESIAN_POINT ( 'NONE',  ( 17.33827956440006091, 8.980879847753364231, -29.24759101592773902 ) ) ;
#1125 = LINE ( 'NONE', #65, #1202 ) ;
#1126 = LINE ( 'NONE', #725, #1243 ) ;
#1127 = ORIENTED_EDGE ( 'NONE', *, *, #842, .F. ) ;
#1128 = DIRECTION ( 'NONE',  ( 0.000000000000000000, 0.000000000000000000, 1.000000000000000000 ) ) ;
#1129 = EDGE_CURVE ( 'NONE', #293, #1197, #807, .T. ) ;
#1130 = CARTESIAN_POINT ( 'NONE',  ( 64.34314575050771623, 54.01370849898467696, 12.00000000000000000 ) ) ;
#1131 = ORIENTED_EDGE ( 'NONE', *, *, #613, .T. ) ;
#1132 = PLANE ( 'NONE',  #993 ) ;
#1133 = CARTESIAN_POINT ( 'NONE',  ( 0.000000000000000000, 12.00000000000000000, -34.00000000000000000 ) ) ;
#1134 = ADVANCED_FACE ( 'NONE', ( #816 ), #1203, .F. ) ;
#1135 = DIRECTION ( 'NONE',  ( 0.4999999999999951705, -0.000000000000000000, -0.8660254037844414832 ) ) ;
#1136 = VECTOR ( 'NONE', #573, 1000.000000000000000 ) ;
#1137 = VECTOR ( 'NONE', #680, 999.9999999999998863 ) ;
#1138 = AXIS2_PLACEMENT_3D ( 'NONE', #676, #779, #402 ) ;
#1139 = CARTESIAN_POINT ( 'NONE',  ( 14.33561801052261409, 6.000000000000000000, -30.83001875212501375 ) ) ;
#1140 = DIRECTION ( 'NONE',  ( 0.7071067811865475727, -0.7071067811865475727, 0.000000000000000000 ) ) ;
#1141 = ORIENTED_EDGE ( 'NONE', *, *, #1068, .T. ) ;
#1142 = CARTESIAN_POINT ( 'NONE',  ( -16.83139319870510420, 2.999929541053982351, 29.54221608951905864 ) ) ;
#1143 = FACE_OUTER_BOUND ( 'NONE', #614, .T. ) ;
#1144 = EDGE_CURVE ( 'NONE', #347, #966, #72, .T. ) ;
#1145 = CARTESIAN_POINT ( 'NONE',  ( 15.25243229581317372, 3.741779651403111195, -30.38720909731845765 ) ) ;
#1146 = ORIENTED_EDGE ( 'NONE', *, *, #176, .F. ) ;
#1147 = CARTESIAN_POINT ( 'NONE',  ( 0.000000000000000000, 0.000000000000000000, 0.000000000000000000 ) ) ;
#1148 = CARTESIAN_POINT ( 'NONE',  ( -15.68071675289123590, 3.397108501606818987, 30.16855299321279915 ) ) ;
#1149 = DIRECTION ( 'NONE',  ( -0.7071067811865477948, 0.7071067811865472397, 3.661596218945460375E-16 ) ) ;
#1150 = ADVANCED_FACE ( 'NONE', ( #158 ), #64, .T. ) ;
#1151 = DIRECTION ( 'NONE',  ( 0.7071067811865475727, 0.7071067811865475727, 0.000000000000000000 ) ) ;
#1152 = EDGE_CURVE ( 'NONE', #669, #61, #243, .T. ) ;
#1153 = ORIENTED_EDGE ( 'NONE', *, *, #1144, .F. ) ;
#1154 = CARTESIAN_POINT ( 'NONE',  ( 16.97224318643343111, 6.000000000000000000, -25.99678751731777382 ) ) ;
#1155 = AXIS2_PLACEMENT_3D ( 'NONE', #181, #1140, #1151 ) ;
#1156 = DIRECTION ( 'NONE',  ( -0.4999999999999951150, -0.000000000000000000, 0.8660254037844414832 ) ) ;
#1157 = CIRCLE ( 'NONE', #692, 2.999999999999999556 ) ;
#1158 = CARTESIAN_POINT ( 'NONE',  ( 72.12132034355975918, 51.89238815542504568, 0.000000000000000000 ) ) ;
#1159 = DIRECTION ( 'NONE',  ( 0.000000000000000000, 0.000000000000000000, 1.000000000000000000 ) ) ;
#1160 = ORIENTED_EDGE ( 'NONE', *, *, #514, .F. ) ;
#1161 = EDGE_LOOP ( 'NONE', ( #346, #785 ) ) ;
#1162 = CARTESIAN_POINT ( 'NONE',  ( -19.53177043322926565, 6.396549311909859981, 27.83001875212503506 ) ) ;
#1163 = LINE ( 'NONE', #84, #949 ) ;
#1164 = DIRECTION ( 'NONE',  ( 0.000000000000000000, -0.000000000000000000, 1.000000000000000000 ) ) ;
#1165 = APPROVAL ( #1004, 'UNSPECIFIED' ) ;
#1166 = EDGE_CURVE ( 'NONE', #990, #602, #1012, .T. ) ;
#1167 = DIRECTION ( 'NONE',  ( -0.7071067811865476838, 0.7071067811865474617, 0.000000000000000000 ) ) ;
#1168 = CARTESIAN_POINT ( 'NONE',  ( -12.99999999999985789, 12.00000000000000000, 22.51666049839545636 ) ) ;
#1169 = VERTEX_POINT ( 'NONE', #144 ) ;
#1170 = ORIENTED_EDGE ( 'NONE', *, *, #653, .T. ) ;
#1171 = LINE ( 'NONE', #225, #449 ) ;
#1172 = DIRECTION ( 'NONE',  ( -0.4999999999999951705, -0.000000000000000000, 0.8660254037844414832 ) ) ;
#1173 = ORIENTED_EDGE ( 'NONE', *, *, #777, .F. ) ;
#1174 = ORIENTED_EDGE ( 'NONE', *, *, #55, .F. ) ;
#1175 = EDGE_LOOP ( 'NONE', ( #47, #817, #134, #517 ) ) ;
#1176 = CARTESIAN_POINT ( 'NONE',  ( -6.213934839320046368E-15, 0.000000000000000000, -11.99999999999998224 ) ) ;
#1177 = CARTESIAN_POINT ( 'NONE',  ( -14.33561801052261586, 6.000000000000000000, 30.83001875212501375 ) ) ;
#1178 = AXIS2_PLACEMENT_3D ( 'NONE', #621, #991, #909 ) ;
#1179 = FACE_OUTER_BOUND ( 'NONE', #1113, .T. ) ;
#1180 = VECTOR ( 'NONE', #444, 1000.000000000000000 ) ;
#1181 = VECTOR ( 'NONE', #878, 1000.000000000000000 ) ;
#1182 = ORGANIZATION ( 'UNSPECIFIED', 'UNSPECIFIED', '' ) ;
#1183 = DIRECTION ( 'NONE',  ( 0.8660254037844347108, 0.000000000000000000, -0.5000000000000068834 ) ) ;
#1184 = ORIENTED_EDGE ( 'NONE', *, *, #1144, .T. ) ;
#1185 = CARTESIAN_POINT ( 'NONE',  ( 0.000000000000000000, 12.00000000000000000, -34.00000000000000000 ) ) ;
#1186 = ORIENTED_EDGE ( 'NONE', *, *, #523, .F. ) ;
#1187 = LINE ( 'NONE', #309, #1137 ) ;
#1188 = CARTESIAN_POINT ( 'NONE',  ( 45.00000000000000000, 17.69999999999982521, -12.00000000000000000 ) ) ;
#1189 = DATE_AND_TIME ( #242, #850 ) ;
#1190 = EDGE_CURVE ( 'NONE', #392, #187, #733, .T. ) ;
#1191 = EDGE_LOOP ( 'NONE', ( #26, #806, #693, #354 ) ) ;
#1192 = CYLINDRICAL_SURFACE ( 'NONE', #525, 3.000000000000001332 ) ;
#1193 = VERTEX_POINT ( 'NONE', #52 ) ;
#1194 = CARTESIAN_POINT ( 'NONE',  ( 14.47487274255693102, 6.966414417880430143, -30.76497624242117013 ) ) ;
#1195 = EDGE_LOOP ( 'NONE', ( #923, #890 ) ) ;
#1196 = LINE ( 'NONE', #222, #668 ) ;
#1197 = VERTEX_POINT ( 'NONE', #734 ) ;
#1198 = VERTEX_POINT ( 'NONE', #339 ) ;
#1199 = CLOSED_SHELL ( 'NONE', ( #1075, #773, #236, #175, #469, #1134, #376, #856, #996, #421, #356, #629, #250, #1009, #1212, #531, #2, #257, #303, #1027, #901, #388, #1123, #506, #954, #436, #1224, #1223, #262, #1207, #193, #572, #1150, #1229 ) ) ;
#1200 = CIRCLE ( 'NONE', #541, 1.700000000000000844 ) ;
#1201 = PERSON_AND_ORGANIZATION ( #67, #1182 ) ;
#1202 = VECTOR ( 'NONE', #264, 1000.000000000000000 ) ;
#1203 = CYLINDRICAL_SURFACE ( 'NONE', #948, 8.000000000000005329 ) ;
#1204 = CC_DESIGN_APPROVAL ( #593, ( #141 ) ) ;
#1205 = FACE_OUTER_BOUND ( 'NONE', #24, .T. ) ;
#1206 = EDGE_LOOP ( 'NONE', ( #1083, #66, #89, #712 ) ) ;
#1207 = ADVANCED_FACE ( 'NONE', ( #1112 ), #178, .F. ) ;
#1208 = LINE ( 'NONE', #1211, #626 ) ;
#1209 = CARTESIAN_POINT ( 'NONE',  ( 14.33561801052261231, 6.195842530942553772, -30.83001875212501375 ) ) ;
#1210 = EDGE_LOOP ( 'NONE', ( #744, #1230 ) ) ;
#1211 = CARTESIAN_POINT ( 'NONE',  ( 72.82842712474625557, 45.52842712474610209, -12.00000000000002132 ) ) ;
#1212 = ADVANCED_FACE ( 'NONE', ( #1143 ), #660, .T. ) ;
#1213 = CARTESIAN_POINT ( 'NONE',  ( 14.42329472528660439, 6.779382640073804644, -30.78912231655996479 ) ) ;
#1214 = DIRECTION ( 'NONE',  ( 0.000000000000000000, 1.000000000000000000, -0.000000000000000000 ) ) ;
#1215 = ORIENTED_EDGE ( 'NONE', *, *, #872, .F. ) ;
#1216 = ADVANCED_BREP_SHAPE_REPRESENTATION ( 'Arm1', ( #1226, #214 ), #606 ) ;
#1217 = LINE ( 'NONE', #256, #380 ) ;
#1218 = CARTESIAN_POINT ( 'NONE',  ( 12.99999999999992006, 6.000000000000000000, -22.51666049839555939 ) ) ;
#1219 = FACE_BOUND ( 'NONE', #1195, .T. ) ;
#1220 = ORIENTED_EDGE ( 'NONE', *, *, #302, .F. ) ;
#1221 = AXIS2_PLACEMENT_3D ( 'NONE', #454, #1039, #661 ) ;
#1222 = APPROVAL_PERSON_ORGANIZATION ( #801, #635, #320 ) ;
#1223 = ADVANCED_FACE ( 'NONE', ( #766 ), #666, .F. ) ;
#1224 = ADVANCED_FACE ( 'NONE', ( #672 ), #212, .F. ) ;
#1225 = CARTESIAN_POINT ( 'NONE',  ( -14.61140816220751226, 4.670158410826508621, 30.70036572465110325 ) ) ;
#1226 = MANIFOLD_SOLID_BREP ( 'Fillet1', #1199 ) ;
#1227 = EDGE_CURVE ( 'NONE', #519, #19, #100, .T. ) ;
#1228 = PLANE ( 'NONE',  #1245 ) ;
#1229 = ADVANCED_FACE ( 'NONE', ( #6 ), #1047, .T. ) ;
#1230 = ORIENTED_EDGE ( 'NONE', *, *, #1007, .F. ) ;
#1231 = EDGE_CURVE ( 'NONE', #17, #834, #892, .T. ) ;
#1232 = PRODUCT ( 'Arm1', 'Arm1', '', ( #31 ) ) ;
#1233 = EDGE_CURVE ( 'NONE', #327, #1109, #486, .T. ) ;
#1234 = CARTESIAN_POINT ( 'NONE',  ( -11.52775681356636994, 6.000000000000000000, 23.36666049839555370 ) ) ;
#1235 = ORIENTED_EDGE ( 'NONE', *, *, #36, .F. ) ;
#1236 = CYLINDRICAL_SURFACE ( 'NONE', #270, 34.00000000000000000 ) ;
#1237 = LINE ( 'NONE', #1242, #1055 ) ;
#1238 = LINE ( 'NONE', #272, #149 ) ;
#1239 = DIRECTION ( 'NONE',  ( 0.000000000000000000, 1.000000000000000000, -0.000000000000000000 ) ) ;
#1240 = CARTESIAN_POINT ( 'NONE',  ( 4.163799117101000559E-15, 0.000000000000000000, 34.00000000000000000 ) ) ;
#1241 = VECTOR ( 'NONE', #224, 1000.000000000000114 ) ;
#1242 = CARTESIAN_POINT ( 'NONE',  ( 25.99999999999997513, 12.00000000000000000, -2.734212569701622310E-13 ) ) ;
#1243 = VECTOR ( 'NONE', #245, 999.9999999999998863 ) ;
#1244 = ORIENTED_EDGE ( 'NONE', *, *, #1231, .F. ) ;
#1245 = AXIS2_PLACEMENT_3D ( 'NONE', #543, #934, #76 ) ;
#1246 = AXIS2_PLACEMENT_3D ( 'NONE', #374, #761, #961 ) ;
#1247 = CARTESIAN_POINT ( 'NONE',  ( -17.67038849867727990, 3.096165096307392339, 29.04814776873189430 ) ) ;
#1248 = EDGE_CURVE ( 'NONE', #640, #895, #1122, .T. ) ;
#1249 = B_SPLINE_CURVE_WITH_KNOTS ( 'NONE', 3,
 ( #1139, #274, #654, #781, #298, #397, #951, #377, #763, #1145, #186, #566, #803, #433, #244, #145, #239, #53, #588, #610, #980, #34, #45, #510, #124, #818, #500, #493, #896, #701, #404, #794 ),
 .UNSPECIFIED., .F., .F.,
 ( 4, 2, 2, 2, 2, 2, 2, 2, 2, 2, 2, 2, 2, 2, 2, 4 ),
 ( 0.009383926599878045574, 0.009970285582138145586, 0.01055664456439824733, 0.01114300354665834734, 0.01172936252891844736, 0.01231572151117854737, 0.01290208049343864738, 0.01348843947569874739, 0.01407479845795884740, 0.01466115744021894568, 0.01524751642247904569, 0.01583387540473914570, 0.01642023438699924398, 0.01700659336925934573, 0.01759295235151944400, 0.01876567031603964403 ),
 .UNSPECIFIED. ) ;
#1250 = CARTESIAN_POINT ( 'NONE',  ( 60.80761184457498558, 40.57867965644027919, 9.797174393178833546E-16 ) ) ;
#1251 = ORIENTED_EDGE ( 'NONE', *, *, #1166, .T. ) ;
#1252 = CARTESIAN_POINT ( 'NONE',  ( -16.65829904509573467, 3.019462202103824655, 29.64014358068089550 ) ) ;
#1253 = DIRECTION ( 'NONE',  ( -3.351317181798273424E-15, 0.000000000000000000, -1.000000000000000000 ) ) ;
#1254 = DIRECTION ( 'NONE',  ( 0.7071067811865480168, 0.7071067811865471286, 0.000000000000000000 ) ) ;
#1255 = ORIENTED_EDGE ( 'NONE', *, *, #962, .F. ) ;
#1256 = FACE_BOUND ( 'NONE', #805, .T. ) ;
#1257 = EDGE_CURVE ( 'NONE', #342, #979, #1163, .T. ) ;
#1258 = FACE_BOUND ( 'NONE', #1210, .T. ) ;
ENDSEC;
END-ISO-10303-21;
