ISO-10303-21;
HEADER;
FILE_DESCRIPTION (( 'STEP AP203' ),
    '1' );
FILE_NAME ('Arm2.STEP',
    '2026-06-03T04:54:29',
    ( '' ),
    ( '' ),
    'SwSTEP 2.0',
    'SolidWorks 2025',
    '' );
FILE_SCHEMA (( 'CONFIG_CONTROL_DESIGN' ));
ENDSEC;

DATA;
#1 = CIRCLE ( 'NONE', #680, 12.00000000000000178 ) ;
#2 = AXIS2_PLACEMENT_3D ( 'NONE', #1164, #978, #423 ) ;
#3 = CARTESIAN_POINT ( 'NONE',  ( 31.15374467205165132, 6.000000000000000000, -53.95986861802170864 ) ) ;
#4 = CARTESIAN_POINT ( 'NONE',  ( -11.81997176823940165, 3.096173752845517768, 22.03010047667061500 ) ) ;
#5 = ORIENTED_EDGE ( 'NONE', *, *, #764, .F. ) ;
#6 = LINE ( 'NONE', #372, #1120 ) ;
#7 = CARTESIAN_POINT ( 'NONE',  ( 72.82842712474618452, 32.32842712474620583, -7.105123095411740434E-15 ) ) ;
#8 = EDGE_CURVE ( 'NONE', #1160, #116, #98, .T. ) ;
#9 = EDGE_LOOP ( 'NONE', ( #411, #234, #719, #846 ) ) ;
#10 = CYLINDRICAL_SURFACE ( 'NONE', #428, 2.999999999999999556 ) ;
#11 = LINE ( 'NONE', #378, #425 ) ;
#12 = CARTESIAN_POINT ( 'NONE',  ( -9.900875102727820121, 5.220324232081303251, 22.95591793114681067 ) ) ;
#13 = CARTESIAN_POINT ( 'NONE',  ( 0.000000000000000000, 12.00000000000000000, -25.00000000000000000 ) ) ;
#14 = VERTEX_POINT ( 'NONE', #552 ) ;
#15 = AXIS2_PLACEMENT_3D ( 'NONE', #215, #965, #40 ) ;
#16 = DIRECTION ( 'NONE',  ( 0.8660254037844385966, 0.000000000000000000, 0.5000000000000001110 ) ) ;
#17 = CIRCLE ( 'NONE', #643, 1.699999999999999734 ) ;
#18 = DIRECTION ( 'NONE',  ( 0.7071067811865460184, 0.7071067811865490160, -1.776356839400250267E-15 ) ) ;
#19 = CARTESIAN_POINT ( 'NONE',  ( 0.000000000000000000, 0.000000000000000000, 0.000000000000000000 ) ) ;
#20 = AXIS2_PLACEMENT_3D ( 'NONE', #212, #125, #377 ) ;
#21 = VERTEX_POINT ( 'NONE', #199 ) ;
#22 = PRODUCT ( 'Arm2', 'Arm2', '', ( #1091 ) ) ;
#23 = CARTESIAN_POINT ( 'NONE',  ( 11.72499999999999609, 6.000000000000000000, -20.30829571874509654 ) ) ;
#24 = CARTESIAN_POINT ( 'NONE',  ( -11.72500000000000497, 6.000000000000000000, 20.30829571874509654 ) ) ;
#25 = CARTESIAN_POINT ( 'NONE',  ( 9.224999999999994316, 12.00000000000000000, -15.97816869982289845 ) ) ;
#26 = CARTESIAN_POINT ( 'NONE',  ( 64.34314575050761675, 40.81370849898474518, -4.256165005058134322E-15 ) ) ;
#27 = VERTEX_POINT ( 'NONE', #654 ) ;
#28 = EDGE_CURVE ( 'NONE', #923, #1013, #1128, .T. ) ;
#29 = CARTESIAN_POINT ( 'NONE',  ( 14.50646119894263464, 4.166145054438012529, -20.36110896963299055 ) ) ;
#30 = LINE ( 'NONE', #391, #42 ) ;
#31 = DIRECTION ( 'NONE',  ( 0.7071067811865490160, -0.7071067811865460184, 0.000000000000000000 ) ) ;
#32 = CARTESIAN_POINT ( 'NONE',  ( 9.900875102727811239, 6.779675767918698526, -22.95591793114681067 ) ) ;
#33 = VERTEX_POINT ( 'NONE', #827 ) ;
#34 = EDGE_CURVE ( 'NONE', #431, #14, #192, .T. ) ;
#35 = EDGE_CURVE ( 'NONE', #535, #577, #1158, .T. ) ;
#36 = FACE_OUTER_BOUND ( 'NONE', #616, .T. ) ;
#37 = ADVANCED_FACE ( 'NONE', ( #283, #1093 ), #772, .T. ) ;
#38 = DIRECTION ( 'NONE',  ( 3.257050620568364056E-16, 0.000000000000000000, 1.000000000000000000 ) ) ;
#39 = VECTOR ( 'NONE', #52, 1000.000000000000114 ) ;
#40 = DIRECTION ( 'NONE',  ( -3.257050620568364549E-16, 0.000000000000000000, -1.000000000000000000 ) ) ;
#41 = CYLINDRICAL_SURFACE ( 'NONE', #598, 1.699999999999999734 ) ;
#42 = VECTOR ( 'NONE', #493, 1000.000000000000000 ) ;
#43 = CARTESIAN_POINT ( 'NONE',  ( 9.811597434637533865, 6.000000000000000000, -22.99418526020468079 ) ) ;
#44 = ORIENTED_EDGE ( 'NONE', *, *, #376, .F. ) ;
#45 = CYLINDRICAL_SURFACE ( 'NONE', #915, 1.700000000000001288 ) ;
#46 = FACE_OUTER_BOUND ( 'NONE', #782, .T. ) ;
#47 = CARTESIAN_POINT ( 'NONE',  ( 29.68150148561810653, 6.000000000000000000, -54.80986861802171717 ) ) ;
#48 = CARTESIAN_POINT ( 'NONE',  ( -18.44999999999998863, 0.000000000000000000, 10.65211246654859956 ) ) ;
#49 = ORIENTED_EDGE ( 'NONE', *, *, #177, .T. ) ;
#50 = EDGE_CURVE ( 'NONE', #572, #166, #753, .T. ) ;
#51 = DIRECTION ( 'NONE',  ( 0.4999999999999998335, -0.000000000000000000, -0.8660254037844389297 ) ) ;
#52 = DIRECTION ( 'NONE',  ( 0.7071067811865460184, 0.7071067811865489050, 3.005447871460181802E-17 ) ) ;
#53 = CARTESIAN_POINT ( 'NONE',  ( -10.17705333181315019, 7.502780062293032515, 22.83505414780210430 ) ) ;
#54 = DIRECTION ( 'NONE',  ( 0.7071067811865490160, -0.7071067811865460184, 0.000000000000000000 ) ) ;
#55 = ORIENTED_EDGE ( 'NONE', *, *, #249, .F. ) ;
#56 = ORIENTED_EDGE ( 'NONE', *, *, #783, .T. ) ;
#57 = CARTESIAN_POINT ( 'NONE',  ( -7.752756813566456628, 6.000000000000000000, 16.82816869982290697 ) ) ;
#58 = EDGE_CURVE ( 'NONE', #899, #1056, #402, .T. ) ;
#59 = EDGE_CURVE ( 'NONE', #728, #82, #291, .T. ) ;
#60 = CARTESIAN_POINT ( 'NONE',  ( -4.029035170010613109E-15, 12.00000000000000000, -11.99999999999998224 ) ) ;
#61 = CARTESIAN_POINT ( 'NONE',  ( -11.32845546008104520, 8.694942334305418186, 22.28674784957930299 ) ) ;
#62 = VECTOR ( 'NONE', #994, 1000.000000000000000 ) ;
#63 = CARTESIAN_POINT ( 'NONE',  ( 3.061616997868383043E-15, 12.00000000000000000, 25.00000000000000000 ) ) ;
#64 = ORIENTED_EDGE ( 'NONE', *, *, #395, .F. ) ;
#65 = CIRCLE ( 'NONE', #448, 4.000000000000005329 ) ;
#66 = CIRCLE ( 'NONE', #757, 7.999999999999991118 ) ;
#67 = ORIENTED_EDGE ( 'NONE', *, *, #823, .F. ) ;
#68 = ADVANCED_FACE ( 'NONE', ( #570 ), #296, .F. ) ;
#69 = FACE_OUTER_BOUND ( 'NONE', #361, .T. ) ;
#70 = DIRECTION ( 'NONE',  ( -0.000000000000000000, -1.000000000000000000, -0.000000000000000000 ) ) ;
#71 = CARTESIAN_POINT ( 'NONE',  ( -11.65128905574679052, 8.845815166172569022, 22.11968571569683206 ) ) ;
#72 = CARTESIAN_POINT ( 'NONE',  ( -18.44999999999999574, 12.00000000000000000, -10.65211246654859956 ) ) ;
#73 = EDGE_LOOP ( 'NONE', ( #357, #1004, #105, #1037 ) ) ;
#74 = ORIENTED_EDGE ( 'NONE', *, *, #933, .F. ) ;
#75 = DATE_AND_TIME ( #457, #622 ) ;
#76 = CARTESIAN_POINT ( 'NONE',  ( 14.88383176304251343, 6.967804722621647073, -20.08674434382120566 ) ) ;
#77 = DIRECTION ( 'NONE',  ( 0.7071067811865490160, -0.7071067811865460184, 0.000000000000000000 ) ) ;
#78 = PLANE ( 'NONE',  #325 ) ;
#79 = ORIENTED_EDGE ( 'NONE', *, *, #808, .F. ) ;
#80 = FACE_OUTER_BOUND ( 'NONE', #217, .T. ) ;
#81 = ORIENTED_EDGE ( 'NONE', *, *, #713, .F. ) ;
#82 = VERTEX_POINT ( 'NONE', #392 ) ;
#83 = AXIS2_PLACEMENT_3D ( 'NONE', #948, #31, #592 ) ;
#84 = ADVANCED_FACE ( 'NONE', ( #664, #137 ), #407, .F. ) ;
#85 = ADVANCED_FACE ( 'NONE', ( #480, #850 ), #499, .F. ) ;
#86 = PERSON_AND_ORGANIZATION_ROLE ( 'design_owner' ) ;
#87 = DIRECTION ( 'NONE',  ( -2.891205793294678326E-16, 0.000000000000000000, -1.000000000000000000 ) ) ;
#88 = CARTESIAN_POINT ( 'NONE',  ( 3.469446951953614189E-15, 12.00000000000000000, 21.30422493309718490 ) ) ;
#89 = CARTESIAN_POINT ( 'NONE',  ( -10.37759244530201919, 4.169779059267541221, 22.74461451702191539 ) ) ;
#90 = ORIENTED_EDGE ( 'NONE', *, *, #367, .F. ) ;
#91 = EDGE_CURVE ( 'NONE', #562, #141, #121, .T. ) ;
#92 = CARTESIAN_POINT ( 'NONE',  ( -10.25275681356645840, 6.000000000000000000, 21.15829571874509796 ) ) ;
#93 = CARTESIAN_POINT ( 'NONE',  ( -10.74521059776341936, 3.738485226715550613, 22.57343988205970930 ) ) ;
#94 = ORIENTED_EDGE ( 'NONE', *, *, #910, .F. ) ;
#95 = CALENDAR_DATE ( 2026, 3, 6 ) ;
#96 = DIRECTION ( 'NONE',  ( -0.000000000000000000, -1.000000000000000000, -0.000000000000000000 ) ) ;
#97 = PLANE ( 'NONE',  #364 ) ;
#98 = LINE ( 'NONE', #280, #382 ) ;
#99 = ORIENTED_EDGE ( 'NONE', *, *, #585, .F. ) ;
#100 = VECTOR ( 'NONE', #986, 1000.000000000000000 ) ;
#101 = AXIS2_PLACEMENT_3D ( 'NONE', #800, #1104, #914 ) ;
#102 = PRODUCT_DEFINITION ( 'UNKNOWN', '', #485, #855 ) ;
#103 = CC_DESIGN_APPROVAL ( #223, ( #485 ) ) ;
#104 = CARTESIAN_POINT ( 'NONE',  ( 13.77774334765611286, 3.395202013746240421, -20.86145962507806217 ) ) ;
#105 = ORIENTED_EDGE ( 'NONE', *, *, #324, .F. ) ;
#106 = ORIENTED_EDGE ( 'NONE', *, *, #896, .F. ) ;
#107 = CARTESIAN_POINT ( 'NONE',  ( -9.225000000000003197, 12.00000000000000000, -15.97816869982289489 ) ) ;
#108 = DIRECTION ( 'NONE',  ( 0.7071067811865489050, -0.7071067811865460184, -4.930380657631323236E-32 ) ) ;
#109 = CARTESIAN_POINT ( 'NONE',  ( -9.811597434637540971, 5.804116260729947463, 22.99418526020467723 ) ) ;
#110 = EDGE_LOOP ( 'NONE', ( #262, #822, #746, #400, #666, #481 ) ) ;
#111 = EDGE_CURVE ( 'NONE', #923, #1017, #670, .T. ) ;
#112 = CARTESIAN_POINT ( 'NONE',  ( 11.65128905574678875, 3.154184833827435419, -22.11968571569683917 ) ) ;
#113 = CARTESIAN_POINT ( 'NONE',  ( -9.225000000000003197, 12.00000000000000000, -15.97816869982289489 ) ) ;
#114 = DIRECTION ( 'NONE',  ( -0.4999999999999997780, 0.000000000000000000, 0.8660254037844388186 ) ) ;
#115 = ADVANCED_FACE ( 'NONE', ( #46 ), #302, .T. ) ;
#116 = VERTEX_POINT ( 'NONE', #863 ) ;
#117 = ADVANCED_FACE ( 'NONE', ( #767 ), #582, .F. ) ;
#118 = VECTOR ( 'NONE', #1097, 1000.000000000000000 ) ;
#119 = FACE_OUTER_BOUND ( 'NONE', #918, .T. ) ;
#120 = DIRECTION ( 'NONE',  ( -1.000000000000000000, 0.000000000000000000, 3.257050620568364056E-16 ) ) ;
#121 = LINE ( 'NONE', #877, #466 ) ;
#122 = CARTESIAN_POINT ( 'NONE',  ( 12.67057413735195226, 8.999928018153223519, -21.55214409639742001 ) ) ;
#123 = EDGE_LOOP ( 'NONE', ( #1153, #610, #456, #344 ) ) ;
#124 = EDGE_CURVE ( 'NONE', #1056, #803, #387, .T. ) ;
#125 = DIRECTION ( 'NONE',  ( -0.5000000000000001110, 0.000000000000000000, -0.8660254037844387076 ) ) ;
#126 = EDGE_CURVE ( 'NONE', #605, #490, #1022, .T. ) ;
#127 = DIRECTION ( 'NONE',  ( 0.5000000000000001110, -0.000000000000000000, 0.8660254037844385966 ) ) ;
#128 = DIRECTION ( 'NONE',  ( 0.000000000000000000, 0.000000000000000000, 1.000000000000000000 ) ) ;
#129 = DIRECTION ( 'NONE',  ( 0.8660254037844385966, 0.000000000000000000, 0.5000000000000001110 ) ) ;
#130 = VERTEX_POINT ( 'NONE', #315 ) ;
#131 = CYLINDRICAL_SURFACE ( 'NONE', #180, 3.000000000000002665 ) ;
#132 = DIRECTION ( 'NONE',  ( 0.8660254037844385966, 0.000000000000000000, -0.5000000000000001110 ) ) ;
#133 = CARTESIAN_POINT ( 'NONE',  ( 11.72499999999999609, 6.000000000000000000, -20.30829571874509654 ) ) ;
#134 = ORIENTED_EDGE ( 'NONE', *, *, #359, .T. ) ;
#135 = CARTESIAN_POINT ( 'NONE',  ( 70.00000000000000000, 29.50000000000000000, 0.000000000000000000 ) ) ;
#136 = AXIS2_PLACEMENT_3D ( 'NONE', #133, #114, #1132 ) ;
#137 = FACE_BOUND ( 'NONE', #943, .T. ) ;
#138 = CARTESIAN_POINT ( 'NONE',  ( -9.829203137734454643, 6.390598503761272475, 22.98669756657415775 ) ) ;
#139 = AXIS2_PLACEMENT_3D ( 'NONE', #295, #668, #1034 ) ;
#140 = PLANE ( 'NONE',  #1009 ) ;
#141 = VERTEX_POINT ( 'NONE', #1050 ) ;
#142 = CARTESIAN_POINT ( 'NONE',  ( -14.88281409512189590, 6.971233612465435492, 20.08749702134661419 ) ) ;
#143 = DIRECTION ( 'NONE',  ( 0.000000000000000000, 0.000000000000000000, -1.000000000000000000 ) ) ;
#144 = ORIENTED_EDGE ( 'NONE', *, *, #1105, .F. ) ;
#145 = ADVANCED_BREP_SHAPE_REPRESENTATION ( 'Arm2', ( #985, #951 ), #796 ) ;
#146 = CYLINDRICAL_SURFACE ( 'NONE', #1085, 1.699999999999999734 ) ;
#147 = CARTESIAN_POINT ( 'NONE',  ( 72.01525432638165114, 38.79845417260310114, 0.000000000000000000 ) ) ;
#148 = FACE_OUTER_BOUND ( 'NONE', #969, .T. ) ;
#149 = DIRECTION ( 'NONE',  ( -0.000000000000000000, -1.000000000000000000, -0.000000000000000000 ) ) ;
#150 = ORIENTED_EDGE ( 'NONE', *, *, #311, .F. ) ;
#151 = ADVANCED_FACE ( 'NONE', ( #575 ), #954, .T. ) ;
#152 = ORIENTED_EDGE ( 'NONE', *, *, #633, .F. ) ;
#153 =( NAMED_UNIT ( * ) PLANE_ANGLE_UNIT ( ) SI_UNIT ( $, .RADIAN. ) );
#154 = CARTESIAN_POINT ( 'NONE',  ( -18.44999999999998863, 12.00000000000000000, 10.65211246654859956 ) ) ;
#155 = CARTESIAN_POINT ( 'NONE',  ( -14.17693911075858360, 8.260899489859138356, 20.59207776612042196 ) ) ;
#156 = VECTOR ( 'NONE', #216, 999.9999999999998863 ) ;
#157 = FACE_BOUND ( 'NONE', #1020, .T. ) ;
#158 = ORIENTED_EDGE ( 'NONE', *, *, #409, .F. ) ;
#159 = CIRCLE ( 'NONE', #739, 25.00000000000000000 ) ;
#160 = VECTOR ( 'NONE', #856, 1000.000000000000000 ) ;
#161 = ORIENTED_EDGE ( 'NONE', *, *, #179, .F. ) ;
#162 = CALENDAR_DATE ( 2026, 3, 6 ) ;
#163 = CARTESIAN_POINT ( 'NONE',  ( 15.00774985734416944, 6.198409575079301348, -19.99418526020467723 ) ) ;
#164 = DIRECTION ( 'NONE',  ( -0.8660254037844383745, 0.000000000000000000, -0.5000000000000005551 ) ) ;
#165 = DIRECTION ( 'NONE',  ( -3.357529308342181864E-16, 0.000000000000000000, -1.000000000000000000 ) ) ;
#166 = VERTEX_POINT ( 'NONE', #690 ) ;
#167 = EDGE_LOOP ( 'NONE', ( #99, #990, #266, #553 ) ) ;
#168 = SHAPE_DEFINITION_REPRESENTATION ( #935, #145 ) ;
#169 = DIRECTION ( 'NONE',  ( -0.4999999999999997224, -0.000000000000000000, 0.8660254037844388186 ) ) ;
#170 = CARTESIAN_POINT ( 'NONE',  ( 21.93171219946131956, 0.000000000000000000, -11.99999999999998934 ) ) ;
#171 = ORIENTED_EDGE ( 'NONE', *, *, #303, .F. ) ;
#172 = ORIENTED_EDGE ( 'NONE', *, *, #249, .T. ) ;
#173 = APPLICATION_PROTOCOL_DEFINITION ( 'international standard', 'config_control_design', 1994, #279 ) ;
#174 = CARTESIAN_POINT ( 'NONE',  ( 35.52943725152297105, 12.00000000000000000, 12.00000000000000355 ) ) ;
#175 = EDGE_CURVE ( 'NONE', #276, #447, #1054, .T. ) ;
#176 = CARTESIAN_POINT ( 'NONE',  ( -13.77991571388942305, 3.396603773661027059, 20.86003184013591749 ) ) ;
#177 = EDGE_CURVE ( 'NONE', #416, #33, #1060, .T. ) ;
#178 = CIRCLE ( 'NONE', #930, 7.999999999999991118 ) ;
#179 = EDGE_CURVE ( 'NONE', #116, #927, #835, .T. ) ;
#180 = AXIS2_PLACEMENT_3D ( 'NONE', #887, #1169, #1048 ) ;
#181 = DATE_AND_TIME ( #162, #528 ) ;
#182 = CARTESIAN_POINT ( 'NONE',  ( -10.69724318643354977, 6.000000000000000000, 15.12816869982290413 ) ) ;
#183 = VERTEX_POINT ( 'NONE', #339 ) ;
#184 = ORIENTED_EDGE ( 'NONE', *, *, #111, .F. ) ;
#185 = EDGE_CURVE ( 'NONE', #1017, #908, #230, .T. ) ;
#186 = EDGE_CURVE ( 'NONE', #904, #934, #512, .T. ) ;
#187 = PERSON_AND_ORGANIZATION ( #851, #365 ) ;
#188 = CARTESIAN_POINT ( 'NONE',  ( 18.44999999999998863, 0.000000000000000000, 10.65211246654859600 ) ) ;
#189 = ORIENTED_EDGE ( 'NONE', *, *, #371, .F. ) ;
#190 = EDGE_LOOP ( 'NONE', ( #773, #838, #150, #353, #793, #1083 ) ) ;
#191 = CARTESIAN_POINT ( 'NONE',  ( -17.07531754730548457, 6.000000000000000000, 29.57531754730548101 ) ) ;
#192 = LINE ( 'NONE', #840, #928 ) ;
#193 = ORIENTED_EDGE ( 'NONE', *, *, #35, .F. ) ;
#194 = AXIS2_PLACEMENT_3D ( 'NONE', #790, #1155, #805 ) ;
#195 = VECTOR ( 'NONE', #233, 1000.000000000000000 ) ;
#196 = CIRCLE ( 'NONE', #681, 3.000000000000002665 ) ;
#197 = LINE ( 'NONE', #107, #274 ) ;
#198 = CARTESIAN_POINT ( 'NONE',  ( 72.82842712474615610, 49.29898987322334136, 1.387778780781445676E-14 ) ) ;
#199 = CARTESIAN_POINT ( 'NONE',  ( 72.82842712474618452, 32.32842712474619162, 12.00000000000000355 ) ) ;
#200 = ORIENTED_EDGE ( 'NONE', *, *, #558, .T. ) ;
#201 = ADVANCED_FACE ( 'NONE', ( #607 ), #799, .T. ) ;
#202 = CARTESIAN_POINT ( 'NONE',  ( 14.17693911075857294, 3.739100510140862532, -20.59207776612042551 ) ) ;
#203 = FACE_OUTER_BOUND ( 'NONE', #438, .T. ) ;
#204 = DIRECTION ( 'NONE',  ( 1.000000000000000000, -0.000000000000000000, 0.000000000000000000 ) ) ;
#205 = CARTESIAN_POINT ( 'NONE',  ( 10.88235625423347663, 8.385602741332593979, -22.50779476578750149 ) ) ;
#206 = ORIENTED_EDGE ( 'NONE', *, *, #293, .T. ) ;
#207 = CARTESIAN_POINT ( 'NONE',  ( 64.34314575050760254, 40.81370849898474518, 12.00000000000000355 ) ) ;
#208 = CARTESIAN_POINT ( 'NONE',  ( 63.52997295214309048, 30.31317279836450851, 4.898587196589422689E-16 ) ) ;
#209 = DIRECTION ( 'NONE',  ( 0.000000000000000000, 1.000000000000000000, -0.000000000000000000 ) ) ;
#210 = ORIENTED_EDGE ( 'NONE', *, *, #833, .T. ) ;
#211 = VECTOR ( 'NONE', #360, 1000.000000000000000 ) ;
#212 = CARTESIAN_POINT ( 'NONE',  ( 9.224999999999997868, 12.00000000000000000, 15.97816869982288779 ) ) ;
#213 = B_SPLINE_CURVE_WITH_KNOTS ( 'NONE', 3,
 ( #513, #408, #138, #780, #251, #884, #53, #340, #1166, #608, #435, #419, #61, #71, #1075, #1146, #527, #1069, #244, #1055, #987, #1151, #717, #870, #155, #316, #334, #691, #500, #142, #696, #895, #226, #621 ),
 .UNSPECIFIED., .F., .F.,
 ( 4, 2, 2, 2, 2, 2, 2, 2, 2, 2, 2, 2, 2, 2, 2, 2, 4 ),
 ( 0.009387819050994301168, 0.009974417799784291924, 0.01056101654857428268, 0.01114761529736427344, 0.01173421404615426419, 0.01232081279494425669, 0.01290741154373424744, 0.01349401029252423820, 0.01408060904131422895, 0.01466720779010421971, 0.01525380653889421047, 0.01584040528768420122, 0.01642700403647419372, 0.01701360278526418274, 0.01760020153405417523, 0.01818680028284416772, 0.01877339903163415674 ),
 .UNSPECIFIED. ) ;
#214 = FACE_OUTER_BOUND ( 'NONE', #631, .T. ) ;
#215 = CARTESIAN_POINT ( 'NONE',  ( -18.44999999999999218, 12.00000000000000000, 6.009258394948629025E-15 ) ) ;
#216 = DIRECTION ( 'NONE',  ( 0.8660254037844387076, 0.000000000000000000, -0.5000000000000001110 ) ) ;
#217 = EDGE_LOOP ( 'NONE', ( #261, #655, #872, #956 ) ) ;
#218 = DIRECTION ( 'NONE',  ( 0.8660254037844397068, 0.000000000000000000, 0.4999999999999980571 ) ) ;
#219 = LINE ( 'NONE', #937, #892 ) ;
#220 = CARTESIAN_POINT ( 'NONE',  ( -19.67339375865880058, 6.000000000000000000, 28.07531754730548101 ) ) ;
#221 = CARTESIAN_POINT ( 'NONE',  ( 9.829799759254155944, 6.394866846578686648, -22.98644236401820251 ) ) ;
#222 = ORIENTED_EDGE ( 'NONE', *, *, #983, .F. ) ;
#223 = APPROVAL ( #824, 'UNSPECIFIED' ) ;
#224 = FACE_OUTER_BOUND ( 'NONE', #110, .T. ) ;
#225 = CARTESIAN_POINT ( 'NONE',  ( -11.72500000000000497, 6.000000000000000000, 20.30829571874510009 ) ) ;
#226 = CARTESIAN_POINT ( 'NONE',  ( -15.00774985734417477, 6.198362252799743288, 19.99418526020467723 ) ) ;
#227 = CARTESIAN_POINT ( 'NONE',  ( 14.68689345840858351, 7.503308110438696943, -20.23134037011497099 ) ) ;
#228 = EDGE_LOOP ( 'NONE', ( #79, #502, #1186, #348 ) ) ;
#229 = DIRECTION ( 'NONE',  ( 0.000000000000000000, 0.000000000000000000, 1.000000000000000000 ) ) ;
#230 = CIRCLE ( 'NONE', #424, 3.000000000000001332 ) ;
#231 = DIRECTION ( 'NONE',  ( 0.8660254037844385966, 0.000000000000000000, 0.5000000000000000000 ) ) ;
#232 = VECTOR ( 'NONE', #533, 1000.000000000000114 ) ;
#233 = DIRECTION ( 'NONE',  ( -0.000000000000000000, -1.000000000000000000, -0.000000000000000000 ) ) ;
#234 = ORIENTED_EDGE ( 'NONE', *, *, #676, .F. ) ;
#235 = CIRCLE ( 'NONE', #1047, 25.00000000000000000 ) ;
#236 = CARTESIAN_POINT ( 'NONE',  ( 72.82842712474615610, 49.29898987322334136, 1.387778780781445676E-14 ) ) ;
#237 = CARTESIAN_POINT ( 'NONE',  ( 32.01471862576154592, 8.485281374238551777, 12.00000000000000355 ) ) ;
#238 = DIRECTION ( 'NONE',  ( 0.000000000000000000, 1.000000000000000000, -0.000000000000000000 ) ) ;
#239 = DIRECTION ( 'NONE',  ( 0.7071067811865465735, 0.7071067811865483499, 0.000000000000000000 ) ) ;
#240 = EDGE_LOOP ( 'NONE', ( #1168, #206, #802, #832, #248 ) ) ;
#241 = EDGE_CURVE ( 'NONE', #342, #141, #620, .T. ) ;
#242 = EDGE_LOOP ( 'NONE', ( #727, #1014, #336, #1026, #977 ) ) ;
#243 = DIRECTION ( 'NONE',  ( 0.5000000000000001110, -0.000000000000000000, -0.8660254037844385966 ) ) ;
#244 = CARTESIAN_POINT ( 'NONE',  ( -12.83764840954449227, 8.980803833300795347, 21.45300927691540238 ) ) ;
#245 = CARTESIAN_POINT ( 'NONE',  ( -18.44999999999999218, 0.000000000000000000, 6.009258394948629025E-15 ) ) ;
#246 = EDGE_LOOP ( 'NONE', ( #460, #1127, #1122, #567 ) ) ;
#247 = EDGE_CURVE ( 'NONE', #860, #998, #504, .T. ) ;
#248 = ORIENTED_EDGE ( 'NONE', *, *, #186, .T. ) ;
#249 = EDGE_CURVE ( 'NONE', #939, #183, #434, .T. ) ;
#250 = DIRECTION ( 'NONE',  ( -0.000000000000000000, -1.000000000000000000, -0.000000000000000000 ) ) ;
#251 = CARTESIAN_POINT ( 'NONE',  ( -9.953597190129235273, 6.967180684045569450, 22.93319776995945958 ) ) ;
#252 = VECTOR ( 'NONE', #149, 1000.000000000000000 ) ;
#253 = LINE ( 'NONE', #436, #1196 ) ;
#254 = VERTEX_POINT ( 'NONE', #519 ) ;
#255 = EDGE_CURVE ( 'NONE', #1052, #416, #888, .T. ) ;
#256 = CC_DESIGN_APPROVAL ( #652, ( #776 ) ) ;
#257 = ORIENTED_EDGE ( 'NONE', *, *, #1117, .F. ) ;
#258 = PERSON_AND_ORGANIZATION_ROLE ( 'classification_officer' ) ;
#259 = CARTESIAN_POINT ( 'NONE',  ( 9.953597190129228167, 5.032819315954430550, -22.93319776995945958 ) ) ;
#260 = DIRECTION ( 'NONE',  ( 0.000000000000000000, 1.000000000000000000, -0.000000000000000000 ) ) ;
#261 = ORIENTED_EDGE ( 'NONE', *, *, #847, .F. ) ;
#262 = ORIENTED_EDGE ( 'NONE', *, *, #371, .T. ) ;
#263 = EDGE_CURVE ( 'NONE', #477, #276, #1074, .T. ) ;
#264 = PERSON_AND_ORGANIZATION ( #851, #365 ) ;
#265 = CARTESIAN_POINT ( 'NONE',  ( -9.126923788646690738, 6.000000000000000000, 21.80829571874509654 ) ) ;
#266 = ORIENTED_EDGE ( 'NONE', *, *, #124, .T. ) ;
#267 = ORIENTED_EDGE ( 'NONE', *, *, #729, .T. ) ;
#268 = CALENDAR_DATE ( 2026, 3, 6 ) ;
#269 = CYLINDRICAL_SURFACE ( 'NONE', #403, 2.999999999999999556 ) ;
#270 = CARTESIAN_POINT ( 'NONE',  ( -10.88235625423348374, 3.614397258667406465, 22.50779476578749083 ) ) ;
#271 = AXIS2_PLACEMENT_3D ( 'NONE', #959, #1119, #1125 ) ;
#272 = ORIENTED_EDGE ( 'NONE', *, *, #185, .F. ) ;
#273 = AXIS2_PLACEMENT_3D ( 'NONE', #113, #127, #132 ) ;
#274 = VECTOR ( 'NONE', #1129, 1000.000000000000000 ) ;
#275 = CARTESIAN_POINT ( 'NONE',  ( 3.469446951953614189E-15, 0.000000000000000000, 21.30422493309718490 ) ) ;
#276 = VERTEX_POINT ( 'NONE', #154 ) ;
#277 = ORIENTED_EDGE ( 'NONE', *, *, #944, .T. ) ;
#278 = LINE ( 'NONE', #543, #1011 ) ;
#279 = APPLICATION_CONTEXT ( 'configuration controlled 3d designs of mechanical parts and assemblies' ) ;
#280 = CARTESIAN_POINT ( 'NONE',  ( 33.75182088340496733, 6.000000000000000000, -52.45986861802170864 ) ) ;
#281 = ORIENTED_EDGE ( 'NONE', *, *, #694, .F. ) ;
#282 = CARTESIAN_POINT ( 'NONE',  ( -14.32307621135332276, 6.000000000000000000, 18.80829571874509298 ) ) ;
#283 = FACE_BOUND ( 'NONE', #1149, .T. ) ;
#284 = ORIENTED_EDGE ( 'NONE', *, *, #58, .T. ) ;
#285 = EDGE_CURVE ( 'NONE', #1160, #130, #960, .T. ) ;
#286 = AXIS2_PLACEMENT_3D ( 'NONE', #347, #260, #615 ) ;
#287 = AXIS2_PLACEMENT_3D ( 'NONE', #801, #1167, #335 ) ;
#288 = DIRECTION ( 'NONE',  ( 0.7071067811865490160, -0.7071067811865461294, -0.000000000000000000 ) ) ;
#289 = ADVANCED_FACE ( 'NONE', ( #968, #761 ), #140, .F. ) ;
#290 = DIRECTION ( 'NONE',  ( -0.7071067811865490160, 0.7071067811865460184, -8.628166150854816622E-31 ) ) ;
#291 = LINE ( 'NONE', #1043, #362 ) ;
#292 = ORIENTED_EDGE ( 'NONE', *, *, #713, .T. ) ;
#293 = EDGE_CURVE ( 'NONE', #1089, #33, #1042, .T. ) ;
#294 = CARTESIAN_POINT ( 'NONE',  ( 12.66990436729395419, 2.999856749869230121, -21.55256061173251325 ) ) ;
#295 = CARTESIAN_POINT ( 'NONE',  ( 9.224999999999997868, 6.000000000000000000, -15.97816869982290200 ) ) ;
#296 = CYLINDRICAL_SURFACE ( 'NONE', #83, 4.000000000000005329 ) ;
#297 = CARTESIAN_POINT ( 'NONE',  ( 14.76174634991901158, 7.331053378642161000, -20.17663477850653564 ) ) ;
#298 = ORIENTED_EDGE ( 'NONE', *, *, #1105, .T. ) ;
#299 = PLANE ( 'NONE',  #20 ) ;
#300 = CC_DESIGN_PERSON_AND_ORGANIZATION_ASSIGNMENT ( #900, #542, ( #485 ) ) ;
#301 = LINE ( 'NONE', #198, #1181 ) ;
#302 = PLANE ( 'NONE',  #15 ) ;
#303 = EDGE_CURVE ( 'NONE', #605, #27, #393, .T. ) ;
#304 = ORIENTED_EDGE ( 'NONE', *, *, #376, .T. ) ;
#305 = CIRCLE ( 'NONE', #1137, 25.00000000000000000 ) ;
#306 = AXIS2_PLACEMENT_3D ( 'NONE', #689, #683, #857 ) ;
#307 = DIRECTION ( 'NONE',  ( -0.8660254037844383745, 0.000000000000000000, -0.5000000000000005551 ) ) ;
#308 = CC_DESIGN_APPROVAL ( #1130, ( #102 ) ) ;
#309 = DIRECTION ( 'NONE',  ( 0.8660254037844384856, 0.000000000000000000, 0.5000000000000002220 ) ) ;
#310 = DIRECTION ( 'NONE',  ( 0.7071067811865460184, 0.7071067811865490160, 0.000000000000000000 ) ) ;
#311 = EDGE_CURVE ( 'NONE', #814, #646, #399, .T. ) ;
#312 = DIRECTION ( 'NONE',  ( -0.8660254037844385966, 0.000000000000000000, -0.5000000000000001110 ) ) ;
#313 = ORIENTED_EDGE ( 'NONE', *, *, #285, .T. ) ;
#314 = FACE_OUTER_BOUND ( 'NONE', #73, .T. ) ;
#315 = CARTESIAN_POINT ( 'NONE',  ( 9.811597434637533865, 6.000000000000000000, -22.99418526020468079 ) ) ;
#316 = CARTESIAN_POINT ( 'NONE',  ( -14.40473510873871987, 7.984651070032350084, 20.43337651302832114 ) ) ;
#317 = CARTESIAN_POINT ( 'NONE',  ( 13.16905195101844939, 8.903782514173359530, -21.25120246236675925 ) ) ;
#318 = ORIENTED_EDGE ( 'NONE', *, *, #1157, .F. ) ;
#319 = CC_DESIGN_DATE_AND_TIME_ASSIGNMENT ( #1005, #354, ( #776 ) ) ;
#320 = LINE ( 'NONE', #593, #971 ) ;
#321 = CARTESIAN_POINT ( 'NONE',  ( 46.57842712474604241, 58.57842712474624136, 1.708391338986537077E-15 ) ) ;
#322 = ORIENTED_EDGE ( 'NONE', *, *, #34, .T. ) ;
#323 = CARTESIAN_POINT ( 'NONE',  ( 21.93171219946131956, 12.00000000000000000, -11.99999999999998934 ) ) ;
#324 = EDGE_CURVE ( 'NONE', #803, #1079, #524, .T. ) ;
#325 = AXIS2_PLACEMENT_3D ( 'NONE', #697, #165, #1062 ) ;
#326 = DIRECTION ( 'NONE',  ( 0.7071067811865459074, 0.7071067811865493491, 0.000000000000000000 ) ) ;
#327 = AXIS2_PLACEMENT_3D ( 'NONE', #3, #169, #1188 ) ;
#328 = CARTESIAN_POINT ( 'NONE',  ( 66.35840007688928210, 33.14159992311071079, 0.000000000000000000 ) ) ;
#329 = ORIENTED_EDGE ( 'NONE', *, *, #503, .T. ) ;
#330 = AXIS2_PLACEMENT_3D ( 'NONE', #417, #51, #682 ) ;
#331 = EDGE_CURVE ( 'NONE', #1056, #899, #659, .T. ) ;
#332 = DIRECTION ( 'NONE',  ( 0.7071067811865457964, 0.7071067811865492381, 0.000000000000000000 ) ) ;
#333 = DIRECTION ( 'NONE',  ( -0.4999999999999998335, 0.000000000000000000, 0.8660254037844389297 ) ) ;
#334 = CARTESIAN_POINT ( 'NONE',  ( -14.50646119894264530, 7.833854945561983918, 20.36110896963297989 ) ) ;
#335 = DIRECTION ( 'NONE',  ( 0.7071067811865459074, 0.7071067811865493491, 0.000000000000000000 ) ) ;
#336 = ORIENTED_EDGE ( 'NONE', *, *, #722, .T. ) ;
#337 = EDGE_LOOP ( 'NONE', ( #443, #1109 ) ) ;
#338 = APPROVAL_ROLE ( '' ) ;
#339 = CARTESIAN_POINT ( 'NONE',  ( 75.65685424949236904, 35.15685424949238325, 0.000000000000000000 ) ) ;
#340 = CARTESIAN_POINT ( 'NONE',  ( -10.37770682606202932, 7.830569086165539261, 22.74456668050478569 ) ) ;
#341 = DIRECTION ( 'NONE',  ( 0.000000000000000000, 1.000000000000000000, -0.000000000000000000 ) ) ;
#342 = VERTEX_POINT ( 'NONE', #589 ) ;
#343 = APPLICATION_CONTEXT ( 'configuration controlled 3d designs of mechanical parts and assemblies' ) ;
#344 = ORIENTED_EDGE ( 'NONE', *, *, #1003, .F. ) ;
#345 = CARTESIAN_POINT ( 'NONE',  ( 9.811597434637533865, 6.000000000000000000, -22.99418526020468079 ) ) ;
#346 = VECTOR ( 'NONE', #488, 1000.000000000000000 ) ;
#347 = CARTESIAN_POINT ( 'NONE',  ( 0.000000000000000000, 0.000000000000000000, 0.000000000000000000 ) ) ;
#348 = ORIENTED_EDGE ( 'NONE', *, *, #470, .T. ) ;
#349 = AXIS2_PLACEMENT_3D ( 'NONE', #574, #120, #38 ) ;
#350 = VECTOR ( 'NONE', #695, 1000.000000000000114 ) ;
#351 = EDGE_LOOP ( 'NONE', ( #1046, #650, #1173, #222 ) ) ;
#352 = FACE_BOUND ( 'NONE', #1090, .T. ) ;
#353 = ORIENTED_EDGE ( 'NONE', *, *, #597, .F. ) ;
#354 = DATE_TIME_ROLE ( 'classification_date' ) ;
#355 = CYLINDRICAL_SURFACE ( 'NONE', #327, 3.000000000000002665 ) ;
#356 = CARTESIAN_POINT ( 'NONE',  ( -14.40556131750303948, 4.016489869566735926, 20.43279384386053366 ) ) ;
#357 = ORIENTED_EDGE ( 'NONE', *, *, #58, .F. ) ;
#358 = CARTESIAN_POINT ( 'NONE',  ( 0.000000000000000000, 0.000000000000000000, 0.000000000000000000 ) ) ;
#359 = EDGE_CURVE ( 'NONE', #1079, #803, #1100, .T. ) ;
#360 = DIRECTION ( 'NONE',  ( -3.257050620568364056E-16, 0.000000000000000000, -1.000000000000000000 ) ) ;
#361 = EDGE_LOOP ( 'NONE', ( #158, #467, #473, #714 ) ) ;
#362 = VECTOR ( 'NONE', #204, 1000.000000000000000 ) ;
#363 = ORIENTED_EDGE ( 'NONE', *, *, #1003, .T. ) ;
#364 = AXIS2_PLACEMENT_3D ( 'NONE', #373, #545, #463 ) ;
#365 = ORGANIZATION ( 'UNSPECIFIED', 'UNSPECIFIED', '' ) ;
#366 = CARTESIAN_POINT ( 'NONE',  ( 58.68629150101523351, 35.15685424949235482, 4.898587196589422689E-16 ) ) ;
#367 = EDGE_CURVE ( 'NONE', #422, #166, #726, .T. ) ;
#368 = DIRECTION ( 'NONE',  ( -0.000000000000000000, -1.000000000000000000, -0.000000000000000000 ) ) ;
#369 = CARTESIAN_POINT ( 'NONE',  ( -10.09211246395548933, 4.670034839172655161, 22.87258183722149241 ) ) ;
#370 = EDGE_LOOP ( 'NONE', ( #989, #459, #1094, #189, #557, #736 ) ) ;
#371 = EDGE_CURVE ( 'NONE', #381, #904, #1070, .T. ) ;
#372 = CARTESIAN_POINT ( 'NONE',  ( 21.93171219946131245, 12.00000000000000000, 12.00000000000000355 ) ) ;
#373 = CARTESIAN_POINT ( 'NONE',  ( 20.25000000000015277, -20.25000000000006750, 2.470919091761851139E-29 ) ) ;
#374 = DIRECTION ( 'NONE',  ( 0.7071067811865490160, -0.7071067811865460184, 8.628166150854816622E-31 ) ) ;
#375 = ORIENTED_EDGE ( 'NONE', *, *, #50, .F. ) ;
#376 = EDGE_CURVE ( 'NONE', #477, #762, #1152, .T. ) ;
#377 = DIRECTION ( 'NONE',  ( -0.8660254037844385966, 0.000000000000000000, 0.5000000000000000000 ) ) ;
#378 = CARTESIAN_POINT ( 'NONE',  ( 40.50000000000013500, 0.000000000000000000, 12.00000000000000355 ) ) ;
#379 = DIRECTION ( 'NONE',  ( 1.000000000000000000, 0.000000000000000000, -3.357529308342181864E-16 ) ) ;
#380 = CARTESIAN_POINT ( 'NONE',  ( 14.50923789644118678, 7.829303674214466824, -20.35912543049340684 ) ) ;
#381 = VERTEX_POINT ( 'NONE', #1081 ) ;
#382 = VECTOR ( 'NONE', #1098, 1000.000000000000000 ) ;
#383 = EDGE_CURVE ( 'NONE', #1013, #908, #253, .T. ) ;
#384 = CIRCLE ( 'NONE', #287, 4.000000000000005329 ) ;
#385 = CARTESIAN_POINT ( 'NONE',  ( 13.16545451782865683, 3.095217428635566481, -21.25341457416862312 ) ) ;
#386 = FACE_BOUND ( 'NONE', #540, .T. ) ;
#387 = LINE ( 'NONE', #1145, #346 ) ;
#388 = CARTESIAN_POINT ( 'NONE',  ( 12.15782894250803459, 8.980516093254019339, -21.84546303054466065 ) ) ;
#389 = ORIENTED_EDGE ( 'NONE', *, *, #833, .F. ) ;
#390 = CARTESIAN_POINT ( 'NONE',  ( 15.00774985734416767, 6.000000000000000888, -19.99418526020468434 ) ) ;
#391 = CARTESIAN_POINT ( 'NONE',  ( -15.60307436087193977, 6.000000000000000000, 30.42531754730548954 ) ) ;
#392 = CARTESIAN_POINT ( 'NONE',  ( 40.50000000000013500, 0.000000000000000000, 12.00000000000000355 ) ) ;
#393 = LINE ( 'NONE', #13, #873 ) ;
#394 = ORIENTED_EDGE ( 'NONE', *, *, #720, .T. ) ;
#395 = EDGE_CURVE ( 'NONE', #1052, #605, #305, .T. ) ;
#396 = CARTESIAN_POINT ( 'NONE',  ( 14.04930562038243913, 3.612646988209344823, -20.67954837581650551 ) ) ;
#397 = CARTESIAN_POINT ( 'NONE',  ( 81.31370849898473807, 40.81370849898478781, 1.387778780781445676E-14 ) ) ;
#398 = DIRECTION ( 'NONE',  ( 0.7071067811865490160, -0.7071067811865460184, 0.000000000000000000 ) ) ;
#399 = LINE ( 'NONE', #1045, #156 ) ;
#400 = ORIENTED_EDGE ( 'NONE', *, *, #395, .T. ) ;
#401 = EDGE_CURVE ( 'NONE', #27, #962, #618, .T. ) ;
#402 = CIRCLE ( 'NONE', #947, 1.699999999999999734 ) ;
#403 = AXIS2_PLACEMENT_3D ( 'NONE', #902, #921, #164 ) ;
#404 = CYLINDRICAL_SURFACE ( 'NONE', #992, 7.999999999999991118 ) ;
#405 = CIRCLE ( 'NONE', #2, 25.00000000000000000 ) ;
#406 = CARTESIAN_POINT ( 'NONE',  ( 18.44999999999998863, 12.00000000000000000, 10.65211246654859600 ) ) ;
#407 = PLANE ( 'NONE',  #136 ) ;
#408 = CARTESIAN_POINT ( 'NONE',  ( -9.811597434637540971, 6.195837019422648417, 22.99418526020468434 ) ) ;
#409 = EDGE_CURVE ( 'NONE', #130, #927, #441, .T. ) ;
#410 = DIRECTION ( 'NONE',  ( 0.7071067811865490160, -0.7071067811865461294, 8.628166150854818373E-31 ) ) ;
#411 = ORIENTED_EDGE ( 'NONE', *, *, #651, .F. ) ;
#412 = EDGE_CURVE ( 'NONE', #904, #416, #718, .T. ) ;
#413 = LINE ( 'NONE', #866, #972 ) ;
#414 = CARTESIAN_POINT ( 'NONE',  ( 0.000000000000000000, 0.000000000000000000, 0.000000000000000000 ) ) ;
#415 = FACE_OUTER_BOUND ( 'NONE', #476, .T. ) ;
#416 = VERTEX_POINT ( 'NONE', #897 ) ;
#417 = CARTESIAN_POINT ( 'NONE',  ( 11.72499999999999609, 6.000000000000000000, -20.30829571874509654 ) ) ;
#418 = CARTESIAN_POINT ( 'NONE',  ( 9.224999999999994316, 0.000000000000000000, -15.97816869982289845 ) ) ;
#419 = CARTESIAN_POINT ( 'NONE',  ( -11.17443157850630975, 8.602696401920411517, 22.36422837575526401 ) ) ;
#420 = DIRECTION ( 'NONE',  ( -1.000000000000000000, 0.000000000000000000, -0.000000000000000000 ) ) ;
#421 = ORIENTED_EDGE ( 'NONE', *, *, #1059, .F. ) ;
#422 = VERTEX_POINT ( 'NONE', #807 ) ;
#423 = DIRECTION ( 'NONE',  ( 0.000000000000000000, 0.000000000000000000, 1.000000000000000000 ) ) ;
#424 = AXIS2_PLACEMENT_3D ( 'NONE', #601, #974, #716 ) ;
#425 = VECTOR ( 'NONE', #674, 1000.000000000000114 ) ;
#426 = CARTESIAN_POINT ( 'NONE',  ( 11.72499999999999609, 6.000000000000000000, -20.30829571874509654 ) ) ;
#427 = FACE_BOUND ( 'NONE', #1063, .T. ) ;
#428 = AXIS2_PLACEMENT_3D ( 'NONE', #191, #471, #307 ) ;
#429 = ADVANCED_FACE ( 'NONE', ( #521 ), #630, .T. ) ;
#430 = CARTESIAN_POINT ( 'NONE',  ( 0.000000000000000000, 12.00000000000000000, 0.000000000000000000 ) ) ;
#431 = VERTEX_POINT ( 'NONE', #170 ) ;
#432 = ORIENTED_EDGE ( 'NONE', *, *, #1117, .T. ) ;
#433 = DIRECTION ( 'NONE',  ( 0.7071067811865490160, -0.7071067811865461294, -0.000000000000000000 ) ) ;
#434 = LINE ( 'NONE', #147, #483 ) ;
#435 = CARTESIAN_POINT ( 'NONE',  ( -10.88151696087047782, 8.384929613427122064, 22.50820340622379234 ) ) ;
#436 = CARTESIAN_POINT ( 'NONE',  ( -14.47724133595216855, 6.000000000000000000, 31.07531754730548457 ) ) ;
#437 = ORIENTED_EDGE ( 'NONE', *, *, #451, .F. ) ;
#438 = EDGE_LOOP ( 'NONE', ( #755, #743, #515, #304 ) ) ;
#439 = CALENDAR_DATE ( 2026, 3, 6 ) ;
#440 = CARTESIAN_POINT ( 'NONE',  ( 40.50000000000012790, 0.000000000000000000, -1.170938346284348260E-14 ) ) ;
#441 = LINE ( 'NONE', #885, #445 ) ;
#442 = ORIENTED_EDGE ( 'NONE', *, *, #702, .T. ) ;
#443 = ORIENTED_EDGE ( 'NONE', *, *, #933, .T. ) ;
#444 = CYLINDRICAL_SURFACE ( 'NONE', #547, 25.00000000000000000 ) ;
#445 = VECTOR ( 'NONE', #787, 1000.000000000000000 ) ;
#446 = CARTESIAN_POINT ( 'NONE',  ( 60.70154582739692017, 27.48474567361832399, 9.797174393178821713E-16 ) ) ;
#447 = VERTEX_POINT ( 'NONE', #48 ) ;
#448 = AXIS2_PLACEMENT_3D ( 'NONE', #602, #1156, #326 ) ;
#449 = ORIENTED_EDGE ( 'NONE', *, *, #503, .F. ) ;
#450 = ADVANCED_FACE ( 'NONE', ( #415 ), #78, .T. ) ;
#451 = EDGE_CURVE ( 'NONE', #1052, #431, #879, .T. ) ;
#452 = DATE_AND_TIME ( #95, #1142 ) ;
#453 = CARTESIAN_POINT ( 'NONE',  ( 9.900361814485860279, 5.222081077018019712, -22.95613938105153196 ) ) ;
#454 = LINE ( 'NONE', #826, #118 ) ;
#455 = CARTESIAN_POINT ( 'NONE',  ( -9.811597434637540971, 6.000000000000000000, 22.99418526020467723 ) ) ;
#456 = ORIENTED_EDGE ( 'NONE', *, *, #694, .T. ) ;
#457 = CALENDAR_DATE ( 2026, 3, 6 ) ;
#458 = DIRECTION ( 'NONE',  ( -0.000000000000000000, -1.000000000000000000, -0.000000000000000000 ) ) ;
#459 = ORIENTED_EDGE ( 'NONE', *, *, #1078, .T. ) ;
#460 = ORIENTED_EDGE ( 'NONE', *, *, #578, .F. ) ;
#461 = ADVANCED_FACE ( 'NONE', ( #981 ), #603, .F. ) ;
#462 = CARTESIAN_POINT ( 'NONE',  ( -9.224999999999997868, 0.000000000000000000, 15.97816869982289134 ) ) ;
#463 = DIRECTION ( 'NONE',  ( 0.7071067811865460184, 0.7071067811865489050, 0.000000000000000000 ) ) ;
#464 = CARTESIAN_POINT ( 'NONE',  ( -14.76174634991902579, 4.668946621357842552, 20.17663477850651788 ) ) ;
#465 = EDGE_CURVE ( 'NONE', #522, #939, #1162, .T. ) ;
#466 = VECTOR ( 'NONE', #675, 1000.000000000000000 ) ;
#467 = ORIENTED_EDGE ( 'NONE', *, *, #285, .F. ) ;
#468 = AXIS2_PLACEMENT_3D ( 'NONE', #1118, #290, #18 ) ;
#469 = AXIS2_PLACEMENT_3D ( 'NONE', #688, #243, #599 ) ;
#470 = EDGE_CURVE ( 'NONE', #166, #572, #661, .T. ) ;
#471 = DIRECTION ( 'NONE',  ( 0.5000000000000001110, -0.000000000000000000, -0.8660254037844385966 ) ) ;
#472 = ORIENTED_EDGE ( 'NONE', *, *, #629, .T. ) ;
#473 = ORIENTED_EDGE ( 'NONE', *, *, #8, .T. ) ;
#474 = CARTESIAN_POINT ( 'NONE',  ( 11.17443157850630442, 3.397303598079587594, -22.36422837575526756 ) ) ;
#475 = LINE ( 'NONE', #958, #1024 ) ;
#476 = EDGE_LOOP ( 'NONE', ( #49, #394, #318, #530, #437, #950 ) ) ;
#477 = VERTEX_POINT ( 'NONE', #890 ) ;
#478 = CARTESIAN_POINT ( 'NONE',  ( 9.224999999999997868, 6.000000000000000000, -15.97816869982290200 ) ) ;
#479 = FACE_BOUND ( 'NONE', #1194, .T. ) ;
#480 = FACE_OUTER_BOUND ( 'NONE', #1134, .T. ) ;
#481 = ORIENTED_EDGE ( 'NONE', *, *, #1148, .T. ) ;
#482 = CLOSED_SHELL ( 'NONE', ( #966, #1185, #815, #1150, #1178, #117, #201, #862, #763, #68, #1057, #37, #604, #1038, #686, #115, #461, #450, #644, #85, #289, #517, #1039, #626, #151, #429, #706, #1068, #84, #1191, #893, #611 ) ) ;
#483 = VECTOR ( 'NONE', #1165, 1000.000000000000114 ) ;
#484 = CIRCLE ( 'NONE', #139, 1.699999999999999734 ) ;
#485 = PRODUCT_DEFINITION_FORMATION_WITH_SPECIFIED_SOURCE ( 'ANY', '', #22, .NOT_KNOWN. ) ;
#486 = CARTESIAN_POINT ( 'NONE',  ( 14.68562466561325586, 4.493831898946555548, -20.23226638739290451 ) ) ;
#487 = CARTESIAN_POINT ( 'NONE',  ( -8.673617379884035472E-15, 12.00000000000000000, -21.30422493309719201 ) ) ;
#488 = DIRECTION ( 'NONE',  ( 0.5000000000000001110, -0.000000000000000000, -0.8660254037844385966 ) ) ;
#489 = CARTESIAN_POINT ( 'NONE',  ( 11.65463149554557987, 8.847103355863378482, -22.11792615900339243 ) ) ;
#490 = VERTEX_POINT ( 'NONE', #63 ) ;
#491 = CC_DESIGN_PERSON_AND_ORGANIZATION_ASSIGNMENT ( #617, #86, ( #22 ) ) ;
#492 = CARTESIAN_POINT ( 'NONE',  ( 66.35840007688928210, 33.14159992311071079, 0.000000000000000000 ) ) ;
#493 = DIRECTION ( 'NONE',  ( 0.5000000000000001110, -0.000000000000000000, -0.8660254037844385966 ) ) ;
#494 = CARTESIAN_POINT ( 'NONE',  ( 64.34314575050760254, 40.81370849898475228, 3.469446951953614189E-15 ) ) ;
#495 = DIRECTION ( 'NONE',  ( -0.7071067811865490160, 0.7071067811865460184, -8.628166150854816622E-31 ) ) ;
#496 = ORIENTED_EDGE ( 'NONE', *, *, #111, .T. ) ;
#497 = FACE_OUTER_BOUND ( 'NONE', #123, .T. ) ;
#498 = LINE ( 'NONE', #406, #505 ) ;
#499 = PLANE ( 'NONE',  #737 ) ;
#500 = CARTESIAN_POINT ( 'NONE',  ( -14.76130376310615766, 7.331964427269373807, 20.17695723308834133 ) ) ;
#501 = CARTESIAN_POINT ( 'NONE',  ( -9.225000000000003197, 6.000000000000000000, 15.97816869982290200 ) ) ;
#502 = ORIENTED_EDGE ( 'NONE', *, *, #729, .F. ) ;
#503 = EDGE_CURVE ( 'NONE', #1082, #422, #384, .T. ) ;
#504 = CIRCLE ( 'NONE', #194, 1.700000000000001288 ) ;
#505 = VECTOR ( 'NONE', #849, 1000.000000000000000 ) ;
#506 = CARTESIAN_POINT ( 'NONE',  ( 18.44999999999998153, 12.00000000000000000, -10.65211246654861377 ) ) ;
#507 = CARTESIAN_POINT ( 'NONE',  ( 61.51471862576141802, 37.98528137423855355, 0.000000000000000000 ) ) ;
#508 = CARTESIAN_POINT ( 'NONE',  ( 21.93171219946131245, 0.000000000000000000, 12.00000000000000355 ) ) ;
#509 = DIRECTION ( 'NONE',  ( 0.7071067811865460184, 0.7071067811865490160, 0.000000000000000000 ) ) ;
#510 = EDGE_LOOP ( 'NONE', ( #732, #432, #363, #277 ) ) ;
#511 = CARTESIAN_POINT ( 'NONE',  ( 46.57842712474603530, 58.57842712474622715, 12.00000000000000355 ) ) ;
#512 = LINE ( 'NONE', #237, #912 ) ;
#513 = CARTESIAN_POINT ( 'NONE',  ( -9.811597434637540971, 6.000000000000000000, 22.99418526020467723 ) ) ;
#514 = CARTESIAN_POINT ( 'NONE',  ( 66.35840007688928210, 33.14159992311071079, 0.000000000000000000 ) ) ;
#515 = ORIENTED_EDGE ( 'NONE', *, *, #1027, .T. ) ;
#516 = EDGE_CURVE ( 'NONE', #762, #447, #711, .T. ) ;
#517 = ADVANCED_FACE ( 'NONE', ( #157, #529 ), #97, .T. ) ;
#518 = FACE_BOUND ( 'NONE', #190, .T. ) ;
#519 = CARTESIAN_POINT ( 'NONE',  ( 7.752756813566456628, 6.000000000000000000, -16.82816869982290697 ) ) ;
#520 = CARTESIAN_POINT ( 'NONE',  ( -9.225000000000003197, 0.000000000000000000, -15.97816869982289489 ) ) ;
#521 = FACE_OUTER_BOUND ( 'NONE', #1072, .T. ) ;
#522 = VERTEX_POINT ( 'NONE', #446 ) ;
#523 = ORIENTED_EDGE ( 'NONE', *, *, #741, .T. ) ;
#524 = CIRCLE ( 'NONE', #1180, 1.699999999999999734 ) ;
#525 = AXIS2_PLACEMENT_3D ( 'NONE', #941, #759, #1124 ) ;
#526 = DIRECTION ( 'NONE',  ( 0.000000000000000000, 0.000000000000000000, -1.000000000000000000 ) ) ;
#527 = CARTESIAN_POINT ( 'NONE',  ( -12.32632224796224740, 8.999855167900566499, 21.75088792298303630 ) ) ;
#528 = LOCAL_TIME ( 0, 54, 29.00000000000000000, #993 ) ;
#529 = FACE_OUTER_BOUND ( 'NONE', #242, .T. ) ;
#530 = ORIENTED_EDGE ( 'NONE', *, *, #34, .F. ) ;
#531 = COORDINATED_UNIVERSAL_TIME_OFFSET ( 5, 0, .BEHIND. ) ;
#532 = CARTESIAN_POINT ( 'NONE',  ( 14.99206073557064656, 6.393467133459279417, -20.00598889955799820 ) ) ;
#533 = DIRECTION ( 'NONE',  ( 0.7071067811865489050, -0.7071067811865460184, 0.000000000000000000 ) ) ;
#534 = DIRECTION ( 'NONE',  ( 0.8660254037844385966, 0.000000000000000000, 0.5000000000000001110 ) ) ;
#535 = VERTEX_POINT ( 'NONE', #731 ) ;
#536 = ORIENTED_EDGE ( 'NONE', *, *, #651, .T. ) ;
#537 = APPROVAL_ROLE ( '' ) ;
#538 = CC_DESIGN_PERSON_AND_ORGANIZATION_ASSIGNMENT ( #634, #258, ( #776 ) ) ;
#539 = CARTESIAN_POINT ( 'NONE',  ( -11.72500000000000497, 6.000000000000000000, 20.30829571874509654 ) ) ;
#540 = EDGE_LOOP ( 'NONE', ( #687, #134 ) ) ;
#541 = ORIENTED_EDGE ( 'NONE', *, *, #28, .T. ) ;
#542 = PERSON_AND_ORGANIZATION_ROLE ( 'design_supplier' ) ;
#543 = CARTESIAN_POINT ( 'NONE',  ( 3.061616997868383043E-15, 12.00000000000000000, 25.00000000000000000 ) ) ;
#544 = VECTOR ( 'NONE', #70, 1000.000000000000000 ) ;
#545 = DIRECTION ( 'NONE',  ( 0.7071067811865490160, -0.7071067811865461294, 8.628166150854818373E-31 ) ) ;
#546 = CARTESIAN_POINT ( 'NONE',  ( -13.32960575778387913, 3.153885053058959720, 21.15075065829455525 ) ) ;
#547 = AXIS2_PLACEMENT_3D ( 'NONE', #1015, #458, #551 ) ;
#548 = PERSON_AND_ORGANIZATION_ROLE ( 'creator' ) ;
#549 = EDGE_CURVE ( 'NONE', #814, #816, #916, .T. ) ;
#550 = B_SPLINE_CURVE_WITH_KNOTS ( 'NONE', 3,
 ( #345, #725, #1087, #453, #259, #628, #1000, #730, #1092, #635, #1006, #474, #673, #112, #559, #770, #1040, #294, #848, #385, #861, #657, #104, #396, #202, #568, #29, #486, #1123, #952, #940, #1033, #580, #390 ),
 .UNSPECIFIED., .F., .F.,
 ( 4, 2, 2, 2, 2, 2, 2, 2, 2, 2, 2, 2, 2, 2, 2, 2, 4 ),
 ( 0.009387819050994308107, 0.009974417799784298863, 0.01056101654857428962, 0.01114761529736427864, 0.01173421404615426940, 0.01232081279494426015, 0.01290741154373424918, 0.01349401029252423993, 0.01408060904131423069, 0.01466720779010421971, 0.01525380653889421220, 0.01584040528768420122, 0.01642700403647419025, 0.01701360278526418274, 0.01760020153405417176, 0.01818680028284416772, 0.01877339903163415674 ),
 .UNSPECIFIED. ) ;
#551 = DIRECTION ( 'NONE',  ( 0.000000000000000000, 0.000000000000000000, -1.000000000000000000 ) ) ;
#552 = CARTESIAN_POINT ( 'NONE',  ( 40.50000000000014211, 6.938893903907228378E-15, -11.99999999999999822 ) ) ;
#553 = ORIENTED_EDGE ( 'NONE', *, *, #359, .F. ) ;
#554 = APPROVAL_DATE_TIME ( #924, #652 ) ;
#555 = DIRECTION ( 'NONE',  ( 0.8660254037844387076, 0.000000000000000000, 0.4999999999999999445 ) ) ;
#556 = CARTESIAN_POINT ( 'NONE',  ( -12.83811254486026066, 3.019140046689114509, 21.45274811465019482 ) ) ;
#557 = ORIENTED_EDGE ( 'NONE', *, *, #983, .T. ) ;
#558 = EDGE_CURVE ( 'NONE', #1190, #562, #454, .T. ) ;
#559 = CARTESIAN_POINT ( 'NONE',  ( 11.81965260940567397, 3.096317720457934630, -22.03026554536033288 ) ) ;
#560 = CARTESIAN_POINT ( 'NONE',  ( -12.15782894250804524, 3.019483906745982438, 21.84546303054465355 ) ) ;
#561 = AXIS2_PLACEMENT_3D ( 'NONE', #760, #209, #1138 ) ;
#562 = VERTEX_POINT ( 'NONE', #487 ) ;
#563 = AXIS2_PLACEMENT_3D ( 'NONE', #839, #758, #667 ) ;
#564 = DIRECTION ( 'NONE',  ( -0.4999999999999998890, -8.326672684688671588E-17, 0.8660254037844388186 ) ) ;
#565 = FACE_OUTER_BOUND ( 'NONE', #880, .T. ) ;
#566 = CARTESIAN_POINT ( 'NONE',  ( -11.17455705533447485, 3.397259632092577863, 22.36416279407615093 ) ) ;
#567 = ORIENTED_EDGE ( 'NONE', *, *, #633, .T. ) ;
#568 = CARTESIAN_POINT ( 'NONE',  ( 14.40473510873871099, 4.015348929967653469, -20.43337651302833535 ) ) ;
#569 = FACE_BOUND ( 'NONE', #1110, .T. ) ;
#570 = FACE_OUTER_BOUND ( 'NONE', #228, .T. ) ;
#571 = CARTESIAN_POINT ( 'NONE',  ( 10.37759244530201030, 7.830220940732463220, -22.74461451702192250 ) ) ;
#572 = VERTEX_POINT ( 'NONE', #208 ) ;
#573 = CARTESIAN_POINT ( 'NONE',  ( 3.061616997868383043E-15, 0.000000000000000000, 25.00000000000000000 ) ) ;
#574 = CARTESIAN_POINT ( 'NONE',  ( 18.44999999999998508, 12.00000000000000000, -6.009258394948625081E-15 ) ) ;
#575 = FACE_OUTER_BOUND ( 'NONE', #9, .T. ) ;
#576 = DIRECTION ( 'NONE',  ( 0.7071067811865460184, 0.7071067811865489050, 0.000000000000000000 ) ) ;
#577 = VERTEX_POINT ( 'NONE', #397 ) ;
#578 = EDGE_CURVE ( 'NONE', #816, #841, #219, .T. ) ;
#579 = VECTOR ( 'NONE', #903, 1000.000000000000114 ) ;
#580 = CARTESIAN_POINT ( 'NONE',  ( 15.00774985734417122, 5.801637747200262041, -19.99418526020469145 ) ) ;
#581 = PLANE ( 'NONE',  #306 ) ;
#582 = CYLINDRICAL_SURFACE ( 'NONE', #596, 4.000000000000005329 ) ;
#583 = CARTESIAN_POINT ( 'NONE',  ( -9.225000000000003197, 6.000000000000000000, 15.97816869982290200 ) ) ;
#584 = ORIENTED_EDGE ( 'NONE', *, *, #629, .F. ) ;
#585 = EDGE_CURVE ( 'NONE', #899, #1079, #30, .T. ) ;
#586 = CARTESIAN_POINT ( 'NONE',  ( 0.000000000000000000, 12.00000000000000000, 0.000000000000000000 ) ) ;
#587 = FACE_OUTER_BOUND ( 'NONE', #337, .T. ) ;
#588 = DIRECTION ( 'NONE',  ( -0.8660254037844385966, 0.000000000000000000, -0.5000000000000001110 ) ) ;
#589 = CARTESIAN_POINT ( 'NONE',  ( 18.44999999999998153, 0.000000000000000000, -10.65211246654861377 ) ) ;
#590 = ORIENTED_EDGE ( 'NONE', *, *, #241, .T. ) ;
#591 = CARTESIAN_POINT ( 'NONE',  ( 0.000000000000000000, 12.00000000000000000, 0.000000000000000000 ) ) ;
#592 = DIRECTION ( 'NONE',  ( 0.7071067811865459074, 0.7071067811865493491, 0.000000000000000000 ) ) ;
#593 = CARTESIAN_POINT ( 'NONE',  ( 72.82842712474619873, 32.32842712474619873, -12.00000000000000711 ) ) ;
#594 = CARTESIAN_POINT ( 'NONE',  ( 14.05295302173814065, 8.384087503495191385, -20.67707708604389438 ) ) ;
#595 = ORIENTED_EDGE ( 'NONE', *, *, #465, .F. ) ;
#596 = AXIS2_PLACEMENT_3D ( 'NONE', #507, #1035, #752 ) ;
#597 = EDGE_CURVE ( 'NONE', #276, #814, #1136, .T. ) ;
#598 = AXIS2_PLACEMENT_3D ( 'NONE', #889, #878, #786 ) ;
#599 = DIRECTION ( 'NONE',  ( -0.8660254037844389297, 0.000000000000000000, -0.4999999999999996669 ) ) ;
#600 = AXIS2_PLACEMENT_3D ( 'NONE', #591, #1067, #229 ) ;
#601 = CARTESIAN_POINT ( 'NONE',  ( -11.72500000000000497, 6.000000000000000000, 20.30829571874509654 ) ) ;
#602 = CARTESIAN_POINT ( 'NONE',  ( 61.51471862576141802, 37.98528137423855355, 0.000000000000000000 ) ) ;
#603 = PLANE ( 'NONE',  #913 ) ;
#604 = ADVANCED_FACE ( 'NONE', ( #214 ), #1144, .T. ) ;
#605 = VERTEX_POINT ( 'NONE', #1029 ) ;
#606 = DIRECTION ( 'NONE',  ( 0.7071067811865457964, 0.7071067811865492381, 0.000000000000000000 ) ) ;
#607 = FACE_OUTER_BOUND ( 'NONE', #351, .T. ) ;
#608 = CARTESIAN_POINT ( 'NONE',  ( -10.74204068104846677, 8.258238638539445731, 22.57493723946694431 ) ) ;
#609 = DIRECTION ( 'NONE',  ( -0.7071067811865460184, -0.7071067811865490160, 0.000000000000000000 ) ) ;
#610 = ORIENTED_EDGE ( 'NONE', *, *, #735, .T. ) ;
#611 = ADVANCED_FACE ( 'NONE', ( #479, #565 ), #766, .F. ) ;
#612 = ORIENTED_EDGE ( 'NONE', *, *, #808, .T. ) ;
#613 = DIRECTION ( 'NONE',  ( 0.5000000000000001110, -0.000000000000000000, -0.8660254037844385966 ) ) ;
#614 = LINE ( 'NONE', #520, #619 ) ;
#615 = DIRECTION ( 'NONE',  ( 0.000000000000000000, 0.000000000000000000, 1.000000000000000000 ) ) ;
#616 = EDGE_LOOP ( 'NONE', ( #595, #472, #1107, #55 ) ) ;
#617 = PERSON_AND_ORGANIZATION ( #851, #365 ) ;
#618 = CIRCLE ( 'NONE', #286, 25.00000000000000000 ) ;
#619 = VECTOR ( 'NONE', #975, 1000.000000000000000 ) ;
#620 = LINE ( 'NONE', #418, #62 ) ;
#621 = CARTESIAN_POINT ( 'NONE',  ( -15.00774985734417299, 6.000000000000000000, 19.99418526020467368 ) ) ;
#622 = LOCAL_TIME ( 0, 54, 29.00000000000000000, #1095 ) ;
#623 = DIRECTION ( 'NONE',  ( 1.220206958894731981E-30, 0.000000000000000000, -1.000000000000000000 ) ) ;
#624 = EDGE_LOOP ( 'NONE', ( #865, #292, #496, #1002 ) ) ;
#625 = ORIENTED_EDGE ( 'NONE', *, *, #409, .T. ) ;
#626 = ADVANCED_FACE ( 'NONE', ( #569, #587 ), #581, .T. ) ;
#627 = DATE_TIME_ROLE ( 'creation_date' ) ;
#628 = CARTESIAN_POINT ( 'NONE',  ( 10.09140553327721079, 4.671771024841767428, -22.87289206336540914 ) ) ;
#629 = EDGE_CURVE ( 'NONE', #522, #672, #475, .T. ) ;
#630 = CYLINDRICAL_SURFACE ( 'NONE', #874, 12.00000000000000178 ) ;
#631 = EDGE_LOOP ( 'NONE', ( #389, #152, #1099, #698 ) ) ;
#632 = ORIENTED_EDGE ( 'NONE', *, *, #59, .F. ) ;
#633 = EDGE_CURVE ( 'NONE', #646, #841, #498, .T. ) ;
#634 = PERSON_AND_ORGANIZATION ( #851, #365 ) ;
#635 = CARTESIAN_POINT ( 'NONE',  ( 10.74204068104846144, 3.741761361460551605, -22.57493723946695141 ) ) ;
#636 = CARTESIAN_POINT ( 'NONE',  ( -14.50923789644119921, 4.170696325785533176, 20.35912543049340329 ) ) ;
#637 = ORIENTED_EDGE ( 'NONE', *, *, #401, .F. ) ;
#638 = APPROVAL_ROLE ( '' ) ;
#639 = AXIS2_PLACEMENT_3D ( 'NONE', #25, #942, #858 ) ;
#640 = CARTESIAN_POINT ( 'NONE',  ( 70.00000000000000000, 29.50000000000000000, 0.000000000000000000 ) ) ;
#641 = AXIS2_PLACEMENT_3D ( 'NONE', #514, #54, #1159 ) ;
#642 = CARTESIAN_POINT ( 'NONE',  ( -14.17782003023913262, 3.740030844309102154, 20.59147105789663712 ) ) ;
#643 = AXIS2_PLACEMENT_3D ( 'NONE', #478, #564, #16 ) ;
#644 = ADVANCED_FACE ( 'NONE', ( #203 ), #953, .T. ) ;
#645 = APPROVAL_PERSON_ORGANIZATION ( #723, #223, #638 ) ;
#646 = VERTEX_POINT ( 'NONE', #868 ) ;
#647 = COORDINATED_UNIVERSAL_TIME_OFFSET ( 5, 0, .BEHIND. ) ;
#648 = LINE ( 'NONE', #733, #211 ) ;
#649 = ORIENTED_EDGE ( 'NONE', *, *, #905, .F. ) ;
#650 = ORIENTED_EDGE ( 'NONE', *, *, #847, .T. ) ;
#651 = EDGE_CURVE ( 'NONE', #1089, #577, #301, .T. ) ;
#652 = APPROVAL ( #1101, 'UNSPECIFIED' ) ;
#653 = DIRECTION ( 'NONE',  ( -0.000000000000000000, -1.000000000000000000, -0.000000000000000000 ) ) ;
#654 = CARTESIAN_POINT ( 'NONE',  ( 0.000000000000000000, 0.000000000000000000, -25.00000000000000000 ) ) ;
#655 = ORIENTED_EDGE ( 'NONE', *, *, #126, .F. ) ;
#656 = CC_DESIGN_DATE_AND_TIME_ASSIGNMENT ( #452, #627, ( #102 ) ) ;
#657 = CARTESIAN_POINT ( 'NONE',  ( 13.63347443215976540, 3.303184513025657409, -20.95617899705860765 ) ) ;
#658 = CARTESIAN_POINT ( 'NONE',  ( -14.68689345840859239, 4.496691889561305722, 20.23134037011497099 ) ) ;
#659 = CIRCLE ( 'NONE', #818, 1.699999999999999734 ) ;
#660 = VERTEX_POINT ( 'NONE', #843 ) ;
#661 = CIRCLE ( 'NONE', #819, 4.000000000000010658 ) ;
#662 = CARTESIAN_POINT ( 'NONE',  ( -15.00774985734417299, 6.000000000000000000, 19.99418526020467368 ) ) ;
#663 = PLANE ( 'NONE',  #525 ) ;
#664 = FACE_OUTER_BOUND ( 'NONE', #891, .T. ) ;
#665 = CARTESIAN_POINT ( 'NONE',  ( 14.17782003023912551, 8.259969155690900067, -20.59147105789664067 ) ) ;
#666 = ORIENTED_EDGE ( 'NONE', *, *, #126, .T. ) ;
#667 = DIRECTION ( 'NONE',  ( 0.7071067811865457964, 0.7071067811865492381, 0.000000000000000000 ) ) ;
#668 = DIRECTION ( 'NONE',  ( -0.4999999999999998890, -8.326672684688671588E-17, 0.8660254037844388186 ) ) ;
#669 = EDGE_CURVE ( 'NONE', #82, #21, #11, .T. ) ;
#670 = LINE ( 'NONE', #220, #991 ) ;
#671 = CARTESIAN_POINT ( 'NONE',  ( 13.32960575778386669, 8.846114946941042945, -21.15075065829456946 ) ) ;
#672 = VERTEX_POINT ( 'NONE', #751 ) ;
#673 = CARTESIAN_POINT ( 'NONE',  ( 11.32845546008103632, 3.305057665694580038, -22.28674784957929944 ) ) ;
#674 = DIRECTION ( 'NONE',  ( 0.7071067811865460184, 0.7071067811865489050, 0.000000000000000000 ) ) ;
#675 = DIRECTION ( 'NONE',  ( -0.000000000000000000, -1.000000000000000000, -0.000000000000000000 ) ) ;
#676 = EDGE_CURVE ( 'NONE', #934, #1089, #1102, .T. ) ;
#677 = CARTESIAN_POINT ( 'NONE',  ( 10.74521059776341403, 8.261514773284453383, -22.57343988205971286 ) ) ;
#678 = ORIENTED_EDGE ( 'NONE', *, *, #1021, .T. ) ;
#679 = AXIS2_PLACEMENT_3D ( 'NONE', #494, #398, #310 ) ;
#680 = AXIS2_PLACEMENT_3D ( 'NONE', #967, #995, #791 ) ;
#681 = AXIS2_PLACEMENT_3D ( 'NONE', #23, #1023, #765 ) ;
#682 = DIRECTION ( 'NONE',  ( 0.8660254037844389297, 0.000000000000000000, 0.4999999999999996669 ) ) ;
#683 = DIRECTION ( 'NONE',  ( 0.7071067811865490160, -0.7071067811865461294, 0.000000000000000000 ) ) ;
#684 = CARTESIAN_POINT ( 'NONE',  ( -18.44999999999998863, 12.00000000000000000, 10.65211246654859956 ) ) ;
#685 = CARTESIAN_POINT ( 'NONE',  ( 11.81997176823939455, 8.903826247154482232, -22.03010047667061855 ) ) ;
#686 = ADVANCED_FACE ( 'NONE', ( #386, #1041 ), #663, .T. ) ;
#687 = ORIENTED_EDGE ( 'NONE', *, *, #324, .T. ) ;
#688 = CARTESIAN_POINT ( 'NONE',  ( -17.07531754730548457, 6.000000000000000000, 29.57531754730548812 ) ) ;
#689 = CARTESIAN_POINT ( 'NONE',  ( 66.35840007688928210, 33.14159992311071079, 0.000000000000000000 ) ) ;
#690 = CARTESIAN_POINT ( 'NONE',  ( 69.18682720163546662, 35.97002704785690952, 0.000000000000000000 ) ) ;
#691 = CARTESIAN_POINT ( 'NONE',  ( -14.68562466561326119, 7.506168101053438235, 20.23226638739290451 ) ) ;
#692 = CARTESIAN_POINT ( 'NONE',  ( 10.49082313287356705, 7.981600139092832613, -22.69278230834676791 ) ) ;
#693 = ORIENTED_EDGE ( 'NONE', *, *, #1021, .F. ) ;
#694 = EDGE_CURVE ( 'NONE', #254, #660, #484, .T. ) ;
#695 = DIRECTION ( 'NONE',  ( -0.7071067811865489050, 0.7071067811865460184, -0.000000000000000000 ) ) ;
#696 = CARTESIAN_POINT ( 'NONE',  ( -14.92948979085563366, 6.782278358474882474, 20.05272699015977622 ) ) ;
#697 = CARTESIAN_POINT ( 'NONE',  ( -4.029035170010613109E-15, 12.00000000000000000, -11.99999999999998224 ) ) ;
#698 = ORIENTED_EDGE ( 'NONE', *, *, #905, .T. ) ;
#699 = VECTOR ( 'NONE', #623, 1000.000000000000000 ) ;
#700 = CIRCLE ( 'NONE', #854, 3.000000000000001332 ) ;
#701 = CARTESIAN_POINT ( 'NONE',  ( 31.15374467205165487, 6.000000000000000000, -53.95986861802171575 ) ) ;
#702 = EDGE_CURVE ( 'NONE', #141, #762, #614, .T. ) ;
#703 = LINE ( 'NONE', #47, #1139 ) ;
#704 = DIRECTION ( 'NONE',  ( 0.7071067811865490160, -0.7071067811865460184, 0.000000000000000000 ) ) ;
#705 = EDGE_LOOP ( 'NONE', ( #449, #612, #931, #90 ) ) ;
#706 = ADVANCED_FACE ( 'NONE', ( #1080 ), #41, .F. ) ;
#707 = ORIENTED_EDGE ( 'NONE', *, *, #91, .T. ) ;
#708 = DIRECTION ( 'NONE',  ( 0.000000000000000000, 1.000000000000000000, -0.000000000000000000 ) ) ;
#709 = CARTESIAN_POINT ( 'NONE',  ( -18.44999999999999218, 12.00000000000000000, 6.009258394948629025E-15 ) ) ;
#710 = CYLINDRICAL_SURFACE ( 'NONE', #101, 25.00000000000000000 ) ;
#711 = LINE ( 'NONE', #245, #795 ) ;
#712 = ORIENTED_EDGE ( 'NONE', *, *, #247, .F. ) ;
#713 = EDGE_CURVE ( 'NONE', #1013, #923, #213, .T. ) ;
#714 = ORIENTED_EDGE ( 'NONE', *, *, #179, .T. ) ;
#715 =( NAMED_UNIT ( * ) SI_UNIT ( $, .STERADIAN. ) SOLID_ANGLE_UNIT ( ) );
#716 = DIRECTION ( 'NONE',  ( 0.8660254037844384856, 0.000000000000000000, 0.5000000000000002220 ) ) ;
#717 = CARTESIAN_POINT ( 'NONE',  ( -13.77774334765612352, 8.604797986253759134, 20.86145962507805507 ) ) ;
#718 = LINE ( 'NONE', #1076, #699 ) ;
#719 = ORIENTED_EDGE ( 'NONE', *, *, #1078, .F. ) ;
#720 = EDGE_CURVE ( 'NONE', #33, #535, #320, .T. ) ;
#721 = ORIENTED_EDGE ( 'NONE', *, *, #263, .T. ) ;
#722 = EDGE_CURVE ( 'NONE', #577, #21, #1, .T. ) ;
#723 = PERSON_AND_ORGANIZATION ( #851, #365 ) ;
#724 = AXIS2_PLACEMENT_3D ( 'NONE', #883, #250, #526 ) ;
#725 = CARTESIAN_POINT ( 'NONE',  ( 9.811597434637532089, 5.804162980577351583, -22.99418526020468434 ) ) ;
#726 = LINE ( 'NONE', #1001, #579 ) ;
#727 = ORIENTED_EDGE ( 'NONE', *, *, #1157, .T. ) ;
#728 = VERTEX_POINT ( 'NONE', #508 ) ;
#729 = EDGE_CURVE ( 'NONE', #422, #1082, #65, .T. ) ;
#730 = CARTESIAN_POINT ( 'NONE',  ( 10.37770682606202399, 4.169430913834461627, -22.74456668050479635 ) ) ;
#731 = CARTESIAN_POINT ( 'NONE',  ( 72.82842712474619873, 32.32842712474619873, -11.99999999999999645 ) ) ;
#732 = ORIENTED_EDGE ( 'NONE', *, *, #735, .F. ) ;
#733 = CARTESIAN_POINT ( 'NONE',  ( 18.44999999999998508, 0.000000000000000000, -6.009258394948625081E-15 ) ) ;
#734 = CARTESIAN_POINT ( 'NONE',  ( -13.63390861448336722, 3.303529471874792289, 20.95588649900568967 ) ) ;
#735 = EDGE_CURVE ( 'NONE', #998, #254, #703, .T. ) ;
#736 = ORIENTED_EDGE ( 'NONE', *, *, #59, .T. ) ;
#737 = AXIS2_PLACEMENT_3D ( 'NONE', #19, #779, #128 ) ;
#738 = CARTESIAN_POINT ( 'NONE',  ( 18.44999999999998153, 12.00000000000000000, -10.65211246654861377 ) ) ;
#739 = AXIS2_PLACEMENT_3D ( 'NONE', #414, #238, #806 ) ;
#740 = CARTESIAN_POINT ( 'NONE',  ( -10.17858821870446739, 4.494552390626013860, 22.83436568776904352 ) ) ;
#741 = EDGE_CURVE ( 'NONE', #431, #27, #159, .T. ) ;
#742 = CIRCLE ( 'NONE', #330, 1.700000000000001288 ) ;
#743 = ORIENTED_EDGE ( 'NONE', *, *, #91, .F. ) ;
#744 = LINE ( 'NONE', #366, #232 ) ;
#745 = CARTESIAN_POINT ( 'NONE',  ( -9.953371174866099125, 5.033295937863106140, 22.93329754180294344 ) ) ;
#746 = ORIENTED_EDGE ( 'NONE', *, *, #255, .F. ) ;
#747 = LINE ( 'NONE', #1018, #160 ) ;
#748 = ORIENTED_EDGE ( 'NONE', *, *, #764, .T. ) ;
#749 = ORIENTED_EDGE ( 'NONE', *, *, #720, .F. ) ;
#750 = FACE_OUTER_BOUND ( 'NONE', #1195, .T. ) ;
#751 = CARTESIAN_POINT ( 'NONE',  ( 64.34314575050764518, 23.84314575050761320, 9.797174393178821713E-16 ) ) ;
#752 = DIRECTION ( 'NONE',  ( 0.7071067811865459074, 0.7071067811865493491, 0.000000000000000000 ) ) ;
#753 = CIRCLE ( 'NONE', #271, 4.000000000000010658 ) ;
#754 = CARTESIAN_POINT ( 'NONE',  ( 13.63390861448336011, 8.696470528125209043, -20.95588649900569678 ) ) ;
#755 = ORIENTED_EDGE ( 'NONE', *, *, #702, .F. ) ;
#756 = VECTOR ( 'NONE', #555, 999.9999999999998863 ) ;
#757 = AXIS2_PLACEMENT_3D ( 'NONE', #135, #1058, #332 ) ;
#758 = DIRECTION ( 'NONE',  ( 0.7071067811865490160, -0.7071067811865460184, 0.000000000000000000 ) ) ;
#759 = DIRECTION ( 'NONE',  ( 0.4999999999999999445, 0.000000000000000000, -0.8660254037844387076 ) ) ;
#760 = CARTESIAN_POINT ( 'NONE',  ( 0.000000000000000000, 12.00000000000000000, 0.000000000000000000 ) ) ;
#761 = FACE_BOUND ( 'NONE', #906, .T. ) ;
#762 = VERTEX_POINT ( 'NONE', #980 ) ;
#763 = ADVANCED_FACE ( 'NONE', ( #148, #427 ), #710, .T. ) ;
#764 = EDGE_CURVE ( 'NONE', #447, #816, #1012, .T. ) ;
#765 = DIRECTION ( 'NONE',  ( 0.8660254037844385966, 0.000000000000000000, 0.5000000000000000000 ) ) ;
#766 = PLANE ( 'NONE',  #949 ) ;
#767 = FACE_OUTER_BOUND ( 'NONE', #705, .T. ) ;
#768 = CARTESIAN_POINT ( 'NONE',  ( 11.17455705533446420, 8.602740367907422581, -22.36416279407615804 ) ) ;
#769 = ORIENTED_EDGE ( 'NONE', *, *, #578, .T. ) ;
#770 = CARTESIAN_POINT ( 'NONE',  ( 12.15627636999895600, 3.019765198043025567, -21.84632080287949663 ) ) ;
#771 = DIRECTION ( 'NONE',  ( 0.8660254037844387076, 0.000000000000000000, -0.5000000000000001110 ) ) ;
#772 = PLANE ( 'NONE',  #639 ) ;
#773 = ORIENTED_EDGE ( 'NONE', *, *, #558, .F. ) ;
#774 = AXIS2_PLACEMENT_3D ( 'NONE', #501, #781, #534 ) ;
#775 = VECTOR ( 'NONE', #812, 1000.000000000000000 ) ;
#776 = SECURITY_CLASSIFICATION ( '', '', #999 ) ;
#777 = LINE ( 'NONE', #511, #350 ) ;
#778 = CARTESIAN_POINT ( 'NONE',  ( -9.224999999999997868, 12.00000000000000000, 15.97816869982289134 ) ) ;
#779 = DIRECTION ( 'NONE',  ( 0.000000000000000000, 1.000000000000000000, -0.000000000000000000 ) ) ;
#780 = CARTESIAN_POINT ( 'NONE',  ( -9.900361814485869161, 6.777918922981979399, 22.95613938105152840 ) ) ;
#781 = DIRECTION ( 'NONE',  ( -0.4999999999999997780, 8.326672684688670355E-17, 0.8660254037844388186 ) ) ;
#782 = EDGE_LOOP ( 'NONE', ( #1032, #44, #721, #1177 ) ) ;
#783 = EDGE_CURVE ( 'NONE', #908, #1017, #700, .T. ) ;
#784 = CARTESIAN_POINT ( 'NONE',  ( -17.07531754730548457, 6.000000000000000000, 29.57531754730548812 ) ) ;
#785 = CARTESIAN_POINT ( 'NONE',  ( 32.01471862576155303, 8.485281374238558882, -11.99999999999999822 ) ) ;
#786 = DIRECTION ( 'NONE',  ( 0.8660254037844397068, 0.000000000000000000, 0.4999999999999980571 ) ) ;
#787 = DIRECTION ( 'NONE',  ( -0.4999999999999997224, -0.000000000000000000, 0.8660254037844388186 ) ) ;
#788 = ORIENTED_EDGE ( 'NONE', *, *, #331, .T. ) ;
#789 = DIRECTION ( 'NONE',  ( 0.000000000000000000, 0.000000000000000000, 1.000000000000000000 ) ) ;
#790 = CARTESIAN_POINT ( 'NONE',  ( 11.72499999999999609, 6.000000000000000000, -20.30829571874509654 ) ) ;
#791 = DIRECTION ( 'NONE',  ( 0.7071067811865460184, 0.7071067811865490160, 0.000000000000000000 ) ) ;
#792 = DIRECTION ( 'NONE',  ( 0.5000000000000001110, -0.000000000000000000, -0.8660254037844385966 ) ) ;
#793 = ORIENTED_EDGE ( 'NONE', *, *, #263, .F. ) ;
#794 = AXIS2_PLACEMENT_3D ( 'NONE', #7, #374, #1112 ) ;
#795 = VECTOR ( 'NONE', #988, 1000.000000000000000 ) ;
#796 =( GEOMETRIC_REPRESENTATION_CONTEXT ( 3 ) GLOBAL_UNCERTAINTY_ASSIGNED_CONTEXT ( ( #881 ) ) GLOBAL_UNIT_ASSIGNED_CONTEXT ( ( #882, #153, #715 ) ) REPRESENTATION_CONTEXT ( 'NONE', 'WORKASPACE' ) );
#797 = CARTESIAN_POINT ( 'NONE',  ( 15.00774985734416767, 6.000000000000000888, -19.99418526020468434 ) ) ;
#798 = APPROVAL_PERSON_ORGANIZATION ( #1192, #652, #537 ) ;
#799 = CYLINDRICAL_SURFACE ( 'NONE', #724, 25.00000000000000000 ) ;
#800 = CARTESIAN_POINT ( 'NONE',  ( 0.000000000000000000, 12.00000000000000000, 0.000000000000000000 ) ) ;
#801 = CARTESIAN_POINT ( 'NONE',  ( 61.51471862576141802, 37.98528137423855355, 0.000000000000000000 ) ) ;
#802 = ORIENTED_EDGE ( 'NONE', *, *, #177, .F. ) ;
#803 = VERTEX_POINT ( 'NONE', #182 ) ;
#804 = CARTESIAN_POINT ( 'NONE',  ( -13.19724318643355154, 6.000000000000000000, 19.45829571874509867 ) ) ;
#805 = DIRECTION ( 'NONE',  ( 0.8660254037844389297, 0.000000000000000000, 0.4999999999999996669 ) ) ;
#806 = DIRECTION ( 'NONE',  ( 0.000000000000000000, 0.000000000000000000, 1.000000000000000000 ) ) ;
#807 = CARTESIAN_POINT ( 'NONE',  ( 64.34314575050760254, 40.81370849898475228, 0.000000000000000000 ) ) ;
#808 = EDGE_CURVE ( 'NONE', #1082, #572, #744, .T. ) ;
#809 = ORIENTED_EDGE ( 'NONE', *, *, #597, .T. ) ;
#810 = ORIENTED_EDGE ( 'NONE', *, *, #451, .T. ) ;
#811 = APPLICATION_PROTOCOL_DEFINITION ( 'international standard', 'config_control_design', 1994, #343 ) ;
#812 = DIRECTION ( 'NONE',  ( -3.257050620568364056E-16, 0.000000000000000000, -1.000000000000000000 ) ) ;
#813 = CARTESIAN_POINT ( 'NONE',  ( 21.93171219946131956, 12.00000000000000000, -11.99999999999998934 ) ) ;
#814 = VERTEX_POINT ( 'NONE', #836 ) ;
#815 = ADVANCED_FACE ( 'NONE', ( #825 ), #355, .F. ) ;
#816 = VERTEX_POINT ( 'NONE', #275 ) ;
#817 = PERSON_AND_ORGANIZATION ( #851, #365 ) ;
#818 = AXIS2_PLACEMENT_3D ( 'NONE', #864, #1140, #312 ) ;
#819 = AXIS2_PLACEMENT_3D ( 'NONE', #328, #704, #239 ) ;
#820 = DIRECTION ( 'NONE',  ( -0.4999999999999998890, -0.000000000000000000, 0.8660254037844388186 ) ) ;
#821 = ORIENTED_EDGE ( 'NONE', *, *, #175, .F. ) ;
#822 = ORIENTED_EDGE ( 'NONE', *, *, #412, .T. ) ;
#823 = EDGE_CURVE ( 'NONE', #82, #14, #907, .T. ) ;
#824 = APPROVAL_STATUS ( 'not_yet_approved' ) ;
#825 = FACE_OUTER_BOUND ( 'NONE', #1179, .T. ) ;
#826 = CARTESIAN_POINT ( 'NONE',  ( 9.224999999999994316, 12.00000000000000000, -15.97816869982289845 ) ) ;
#827 = CARTESIAN_POINT ( 'NONE',  ( 64.34314575050761675, 40.81370849898475228, -11.99999999999999645 ) ) ;
#828 = ORIENTED_EDGE ( 'NONE', *, *, #185, .T. ) ;
#829 = COORDINATED_UNIVERSAL_TIME_OFFSET ( 5, 0, .BEHIND. ) ;
#830 = LINE ( 'NONE', #738, #1065 ) ;
#831 = CARTESIAN_POINT ( 'NONE',  ( -14.93048187665854520, 5.222836475322634620, 20.05198713043292358 ) ) ;
#832 = ORIENTED_EDGE ( 'NONE', *, *, #412, .F. ) ;
#833 = EDGE_CURVE ( 'NONE', #841, #342, #648, .T. ) ;
#834 = APPROVAL_STATUS ( 'not_yet_approved' ) ;
#835 = CIRCLE ( 'NONE', #1010, 3.000000000000002665 ) ;
#836 = CARTESIAN_POINT ( 'NONE',  ( 3.469446951953614189E-15, 12.00000000000000000, 21.30422493309718490 ) ) ;
#837 = CARTESIAN_POINT ( 'NONE',  ( -11.33152875668725557, 3.303352915332662398, 22.28518675955978523 ) ) ;
#838 = ORIENTED_EDGE ( 'NONE', *, *, #845, .F. ) ;
#839 = CARTESIAN_POINT ( 'NONE',  ( 66.35840007688928210, 33.14159992311071079, 0.000000000000000000 ) ) ;
#840 = CARTESIAN_POINT ( 'NONE',  ( -4.029035170010613109E-15, 0.000000000000000000, -11.99999999999998224 ) ) ;
#841 = VERTEX_POINT ( 'NONE', #188 ) ;
#842 = FACE_OUTER_BOUND ( 'NONE', #246, .T. ) ;
#843 = CARTESIAN_POINT ( 'NONE',  ( 10.69724318643354799, 6.000000000000000000, -15.12816869982290591 ) ) ;
#844 = CARTESIAN_POINT ( 'NONE',  ( -13.16905195101845649, 3.096217485826642690, 21.25120246236675570 ) ) ;
#845 = EDGE_CURVE ( 'NONE', #646, #1190, #1096, .T. ) ;
#846 = ORIENTED_EDGE ( 'NONE', *, *, #722, .F. ) ;
#847 = EDGE_CURVE ( 'NONE', #490, #962, #278, .T. ) ;
#848 = CARTESIAN_POINT ( 'NONE',  ( 12.83764840954448694, 3.019196166699207318, -21.45300927691540593 ) ) ;
#849 = DIRECTION ( 'NONE',  ( -0.000000000000000000, -1.000000000000000000, -0.000000000000000000 ) ) ;
#850 = FACE_BOUND ( 'NONE', #898, .T. ) ;
#851 = PERSON ( 'UNSPECIFIED', 'UNSPECIFIED', 'UNSPECIFIED', ('UNSPECIFIED'), ('UNSPECIFIED'), ('UNSPECIFIED') ) ;
#852 = CARTESIAN_POINT ( 'NONE',  ( 9.811597434637535642, 6.195883739270056978, -22.99418526020468789 ) ) ;
#853 = ORIENTED_EDGE ( 'NONE', *, *, #741, .F. ) ;
#854 = AXIS2_PLACEMENT_3D ( 'NONE', #539, #820, #1108 ) ;
#855 = DESIGN_CONTEXT ( 'detailed design', #343, 'design' ) ;
#856 = DIRECTION ( 'NONE',  ( -0.4999999999999997224, -0.000000000000000000, 0.8660254037844388186 ) ) ;
#857 = DIRECTION ( 'NONE',  ( 0.7071067811865460184, 0.7071067811865489050, 0.000000000000000000 ) ) ;
#858 = DIRECTION ( 'NONE',  ( 0.8660254037844388186, 0.000000000000000000, 0.4999999999999997224 ) ) ;
#859 = CARTESIAN_POINT ( 'NONE',  ( 10.09211246395548578, 7.329965160827345727, -22.87258183722150662 ) ) ;
#860 = VERTEX_POINT ( 'NONE', #1175 ) ;
#861 = CARTESIAN_POINT ( 'NONE',  ( 13.32720614566981965, 3.152837683042451378, -21.15227268167500796 ) ) ;
#862 = ADVANCED_FACE ( 'NONE', ( #80, #352 ), #444, .T. ) ;
#863 = CARTESIAN_POINT ( 'NONE',  ( 14.32307621135331388, 6.000000000000000000, -18.80829571874509298 ) ) ;
#864 = CARTESIAN_POINT ( 'NONE',  ( -11.72500000000000497, 6.000000000000000000, 20.30829571874510009 ) ) ;
#865 = ORIENTED_EDGE ( 'NONE', *, *, #383, .F. ) ;
#866 = CARTESIAN_POINT ( 'NONE',  ( 40.50000000000014211, 6.938893903907228378E-15, -11.99999999999999822 ) ) ;
#867 = CC_DESIGN_PERSON_AND_ORGANIZATION_ASSIGNMENT ( #817, #1182, ( #102 ) ) ;
#868 = CARTESIAN_POINT ( 'NONE',  ( 18.44999999999998863, 12.00000000000000000, 10.65211246654859600 ) ) ;
#869 = DIRECTION ( 'NONE',  ( 0.5000000000000001110, -0.000000000000000000, -0.8660254037844385966 ) ) ;
#870 = CARTESIAN_POINT ( 'NONE',  ( -14.04930562038244979, 8.387353011790652957, 20.67954837581649130 ) ) ;
#871 = CARTESIAN_POINT ( 'NONE',  ( 14.40556131750303059, 7.983510130433265850, -20.43279384386053721 ) ) ;
#872 = ORIENTED_EDGE ( 'NONE', *, *, #303, .T. ) ;
#873 = VECTOR ( 'NONE', #1133, 1000.000000000000000 ) ;
#874 = AXIS2_PLACEMENT_3D ( 'NONE', #321, #996, #609 ) ;
#875 = LOCAL_TIME ( 0, 54, 29.00000000000000000, #647 ) ;
#876 = FACE_OUTER_BOUND ( 'NONE', #167, .T. ) ;
#877 = CARTESIAN_POINT ( 'NONE',  ( -8.673617379884035472E-15, 12.00000000000000000, -21.30422493309719201 ) ) ;
#878 = DIRECTION ( 'NONE',  ( -0.4999999999999997224, -0.000000000000000000, 0.8660254037844388186 ) ) ;
#879 = LINE ( 'NONE', #813, #195 ) ;
#880 = EDGE_LOOP ( 'NONE', ( #828, #56 ) ) ;
#881 = UNCERTAINTY_MEASURE_WITH_UNIT (LENGTH_MEASURE( 1.000000000000000082E-05 ), #882, 'distance_accuracy_value', 'NONE');
#882 =( LENGTH_UNIT ( ) NAMED_UNIT ( * ) SI_UNIT ( .MILLI., .METRE. ) );
#883 = CARTESIAN_POINT ( 'NONE',  ( 0.000000000000000000, 12.00000000000000000, 0.000000000000000000 ) ) ;
#884 = CARTESIAN_POINT ( 'NONE',  ( -10.09140553327721967, 7.328228975158229908, 22.87289206336541270 ) ) ;
#885 = CARTESIAN_POINT ( 'NONE',  ( 28.55566846069833176, 6.000000000000000000, -55.45986861802171575 ) ) ;
#886 = ORIENTED_EDGE ( 'NONE', *, *, #28, .F. ) ;
#887 = CARTESIAN_POINT ( 'NONE',  ( 31.15374467205165132, 6.000000000000000000, -53.95986861802170864 ) ) ;
#888 = LINE ( 'NONE', #60, #970 ) ;
#889 = CARTESIAN_POINT ( 'NONE',  ( 31.15374467205165487, 6.000000000000000000, -53.95986861802171575 ) ) ;
#890 = CARTESIAN_POINT ( 'NONE',  ( -18.44999999999999574, 12.00000000000000000, -10.65211246654859956 ) ) ;
#891 = EDGE_LOOP ( 'NONE', ( #161, #693 ) ) ;
#892 = VECTOR ( 'NONE', #771, 999.9999999999998863 ) ;
#893 = ADVANCED_FACE ( 'NONE', ( #925 ), #269, .F. ) ;
#894 = CARTESIAN_POINT ( 'NONE',  ( 15.00774985734416767, 6.000000000000000888, -19.99418526020468434 ) ) ;
#895 = CARTESIAN_POINT ( 'NONE',  ( -14.99206672418548258, 6.394479924518712721, 20.00598561667771236 ) ) ;
#896 = EDGE_CURVE ( 'NONE', #672, #183, #178, .T. ) ;
#897 = CARTESIAN_POINT ( 'NONE',  ( 35.52943725152297105, 12.00000000000000000, -11.99999999999999467 ) ) ;
#898 = EDGE_LOOP ( 'NONE', ( #590, #442, #1077, #748, #769, #210 ) ) ;
#899 = VERTEX_POINT ( 'NONE', #92 ) ;
#900 = PERSON_AND_ORGANIZATION ( #851, #365 ) ;
#901 = CARTESIAN_POINT ( 'NONE',  ( 14.93048187665854343, 6.777163524677365380, -20.05198713043292713 ) ) ;
#902 = CARTESIAN_POINT ( 'NONE',  ( -17.07531754730548457, 6.000000000000000000, 29.57531754730548101 ) ) ;
#903 = DIRECTION ( 'NONE',  ( 0.7071067811865489050, -0.7071067811865460184, 0.000000000000000000 ) ) ;
#904 = VERTEX_POINT ( 'NONE', #174 ) ;
#905 = EDGE_CURVE ( 'NONE', #1190, #342, #830, .T. ) ;
#906 = EDGE_LOOP ( 'NONE', ( #267, #329 ) ) ;
#907 = LINE ( 'NONE', #440, #1161 ) ;
#908 = VERTEX_POINT ( 'NONE', #265 ) ;
#909 = ORIENTED_EDGE ( 'NONE', *, *, #293, .F. ) ;
#910 = EDGE_CURVE ( 'NONE', #130, #1160, #550, .T. ) ;
#911 = DIRECTION ( 'NONE',  ( 0.000000000000000000, 0.000000000000000000, 1.000000000000000000 ) ) ;
#912 = VECTOR ( 'NONE', #979, 1000.000000000000114 ) ;
#913 = AXIS2_PLACEMENT_3D ( 'NONE', #976, #143, #420 ) ;
#914 = DIRECTION ( 'NONE',  ( 0.000000000000000000, 0.000000000000000000, -1.000000000000000000 ) ) ;
#915 = AXIS2_PLACEMENT_3D ( 'NONE', #784, #613, #973 ) ;
#916 = LINE ( 'NONE', #88, #1116 ) ;
#917 = CARTESIAN_POINT ( 'NONE',  ( -10.49082313287357415, 4.018399860907168275, 22.69278230834677146 ) ) ;
#918 = EDGE_LOOP ( 'NONE', ( #541, #982, #272, #184 ) ) ;
#919 = PRODUCT_RELATED_PRODUCT_CATEGORY ( 'detail', '', ( #22 ) ) ;
#920 = DIRECTION ( 'NONE',  ( 1.000000000000000000, 0.000000000000000000, 0.000000000000000000 ) ) ;
#921 = DIRECTION ( 'NONE',  ( 0.5000000000000001110, -0.000000000000000000, -0.8660254037844385966 ) ) ;
#922 = CARTESIAN_POINT ( 'NONE',  ( -14.88383176304252409, 5.032195277378357368, 20.08674434382119856 ) ) ;
#923 = VERTEX_POINT ( 'NONE', #662 ) ;
#924 = DATE_AND_TIME ( #439, #875 ) ;
#925 = FACE_OUTER_BOUND ( 'NONE', #624, .T. ) ;
#926 = CARTESIAN_POINT ( 'NONE',  ( -12.67057413735195581, 3.000071981846778701, 21.55214409639741646 ) ) ;
#927 = VERTEX_POINT ( 'NONE', #1135 ) ;
#928 = VECTOR ( 'NONE', #379, 1000.000000000000000 ) ;
#929 = CARTESIAN_POINT ( 'NONE',  ( 72.01525432638165114, 38.79845417260310114, 0.000000000000000000 ) ) ;
#930 = AXIS2_PLACEMENT_3D ( 'NONE', #640, #77, #1183 ) ;
#931 = ORIENTED_EDGE ( 'NONE', *, *, #50, .T. ) ;
#932 = CC_DESIGN_SECURITY_CLASSIFICATION ( #776, ( #485 ) ) ;
#933 = EDGE_CURVE ( 'NONE', #939, #522, #1084, .T. ) ;
#934 = VERTEX_POINT ( 'NONE', #207 ) ;
#935 = PRODUCT_DEFINITION_SHAPE ( 'NONE', 'NONE',  #102 ) ;
#936 = DIRECTION ( 'NONE',  ( -0.000000000000000000, -1.000000000000000000, -0.000000000000000000 ) ) ;
#937 = CARTESIAN_POINT ( 'NONE',  ( 9.224999999999997868, 0.000000000000000000, 15.97816869982288779 ) ) ;
#938 = CARTESIAN_POINT ( 'NONE',  ( -12.33133009322193629, 2.999928421062805661, 21.74802662896129135 ) ) ;
#939 = VERTEX_POINT ( 'NONE', #929 ) ;
#940 = CARTESIAN_POINT ( 'NONE',  ( 14.92948979085563188, 5.217721641525113085, -20.05272699015979043 ) ) ;
#941 = CARTESIAN_POINT ( 'NONE',  ( -9.224999999999997868, 12.00000000000000000, 15.97816869982289134 ) ) ;
#942 = DIRECTION ( 'NONE',  ( -0.4999999999999997224, 0.000000000000000000, 0.8660254037844388186 ) ) ;
#943 = EDGE_LOOP ( 'NONE', ( #712, #257 ) ) ;
#944 = EDGE_CURVE ( 'NONE', #660, #254, #17, .T. ) ;
#945 = CARTESIAN_POINT ( 'NONE',  ( 10.25275681356644775, 6.000000000000000000, -21.15829571874509085 ) ) ;
#946 = DIRECTION ( 'NONE',  ( 0.8660254037844387076, 0.000000000000000000, 0.4999999999999999445 ) ) ;
#947 = AXIS2_PLACEMENT_3D ( 'NONE', #225, #1030, #588 ) ;
#948 = CARTESIAN_POINT ( 'NONE',  ( 61.51471862576141802, 37.98528137423855355, 0.000000000000000000 ) ) ;
#949 = AXIS2_PLACEMENT_3D ( 'NONE', #24, #1049, #309 ) ;
#950 = ORIENTED_EDGE ( 'NONE', *, *, #255, .T. ) ;
#951 = AXIS2_PLACEMENT_3D ( 'NONE', #358, #911, #920 ) ;
#952 = CARTESIAN_POINT ( 'NONE',  ( 14.88281409512188525, 5.028766387534562732, -20.08749702134661064 ) ) ;
#953 = PLANE ( 'NONE',  #273 ) ;
#954 = CYLINDRICAL_SURFACE ( 'NONE', #679, 12.00000000000000178 ) ;
#955 = DIRECTION ( 'NONE',  ( -0.4999999999999997780, 8.326672684688670355E-17, 0.8660254037844388186 ) ) ;
#956 = ORIENTED_EDGE ( 'NONE', *, *, #401, .T. ) ;
#957 = PLANE ( 'NONE',  #600 ) ;
#958 = CARTESIAN_POINT ( 'NONE',  ( 60.70154582739692017, 27.48474567361832399, 9.797174393178821713E-16 ) ) ;
#959 = CARTESIAN_POINT ( 'NONE',  ( 66.35840007688928210, 33.14159992311071079, 0.000000000000000000 ) ) ;
#960 = B_SPLINE_CURVE_WITH_KNOTS ( 'NONE', 3,
 ( #894, #163, #532, #901, #76, #297, #227, #380, #871, #665, #594, #1126, #754, #671, #317, #1121, #122, #1031, #388, #685, #489, #961, #768, #205, #677, #692, #571, #1051, #859, #1147, #32, #221, #852, #43 ),
 .UNSPECIFIED., .F., .F.,
 ( 4, 2, 2, 2, 2, 2, 2, 2, 2, 2, 2, 2, 2, 2, 2, 2, 4 ),
 ( 1.734723475976807094E-18, 0.0005867386906871463166, 0.001173477381374290899, 0.001760216072061435155, 0.002346954762748580062, 0.002933693453435724536, 0.003520432144122868576, 0.004107170834810013049, 0.004693909525497158390, 0.005280648216184301996, 0.005867386906871447337, 0.006454125597558591811, 0.007040864288245735417, 0.007627602978932880758, 0.008214341669620022629, 0.008801080360307165368, 0.009387819050994308107 ),
 .UNSPECIFIED. ) ;
#961 = CARTESIAN_POINT ( 'NONE',  ( 11.33152875668724668, 8.696647084667334937, -22.28518675955979944 ) ) ;
#962 = VERTEX_POINT ( 'NONE', #573 ) ;
#963 = CC_DESIGN_PERSON_AND_ORGANIZATION_ASSIGNMENT ( #264, #548, ( #485 ) ) ;
#964 = CARTESIAN_POINT ( 'NONE',  ( 58.68629150101523351, 35.15685424949235482, 4.898587196589422689E-16 ) ) ;
#965 = DIRECTION ( 'NONE',  ( 1.000000000000000000, 0.000000000000000000, -3.257050620568364549E-16 ) ) ;
#966 = ADVANCED_FACE ( 'NONE', ( #119 ), #10, .F. ) ;
#967 = CARTESIAN_POINT ( 'NONE',  ( 72.82842712474619873, 32.32842712474619162, 3.469446951953614189E-15 ) ) ;
#968 = FACE_OUTER_BOUND ( 'NONE', #240, .T. ) ;
#969 = EDGE_LOOP ( 'NONE', ( #171, #64, #810, #523 ) ) ;
#970 = VECTOR ( 'NONE', #1170, 1000.000000000000000 ) ;
#971 = VECTOR ( 'NONE', #1061, 1000.000000000000114 ) ;
#972 = VECTOR ( 'NONE', #1053, 1000.000000000000114 ) ;
#973 = DIRECTION ( 'NONE',  ( -0.8660254037844389297, 0.000000000000000000, -0.4999999999999996669 ) ) ;
#974 = DIRECTION ( 'NONE',  ( -0.4999999999999998890, -0.000000000000000000, 0.8660254037844388186 ) ) ;
#975 = DIRECTION ( 'NONE',  ( -0.8660254037844385966, 0.000000000000000000, 0.5000000000000001110 ) ) ;
#976 = CARTESIAN_POINT ( 'NONE',  ( 0.000000000000000000, 12.00000000000000000, 12.00000000000000355 ) ) ;
#977 = ORIENTED_EDGE ( 'NONE', *, *, #823, .T. ) ;
#978 = DIRECTION ( 'NONE',  ( 0.000000000000000000, 1.000000000000000000, -0.000000000000000000 ) ) ;
#979 = DIRECTION ( 'NONE',  ( 0.7071067811865460184, 0.7071067811865489050, 0.000000000000000000 ) ) ;
#980 = CARTESIAN_POINT ( 'NONE',  ( -18.44999999999999574, 0.000000000000000000, -10.65211246654859956 ) ) ;
#981 = FACE_OUTER_BOUND ( 'NONE', #370, .T. ) ;
#982 = ORIENTED_EDGE ( 'NONE', *, *, #383, .T. ) ;
#983 = EDGE_CURVE ( 'NONE', #381, #728, #6, .T. ) ;
#984 = ORIENTED_EDGE ( 'NONE', *, *, #549, .T. ) ;
#985 = MANIFOLD_SOLID_BREP ( 'Mirror1', #482 ) ;
#986 = DIRECTION ( 'NONE',  ( 3.257050620568364549E-16, 0.000000000000000000, 1.000000000000000000 ) ) ;
#987 = CARTESIAN_POINT ( 'NONE',  ( -13.32720614566983208, 8.847162316957552619, 21.15227268167501151 ) ) ;
#988 = DIRECTION ( 'NONE',  ( 3.257050620568364549E-16, 0.000000000000000000, 1.000000000000000000 ) ) ;
#989 = ORIENTED_EDGE ( 'NONE', *, *, #669, .T. ) ;
#990 = ORIENTED_EDGE ( 'NONE', *, *, #331, .F. ) ;
#991 = VECTOR ( 'NONE', #869, 1000.000000000000000 ) ;
#992 = AXIS2_PLACEMENT_3D ( 'NONE', #1143, #433, #606 ) ;
#993 = COORDINATED_UNIVERSAL_TIME_OFFSET ( 5, 0, .BEHIND. ) ;
#994 = DIRECTION ( 'NONE',  ( -0.8660254037844388186, 0.000000000000000000, -0.4999999999999996669 ) ) ;
#995 = DIRECTION ( 'NONE',  ( 0.7071067811865490160, -0.7071067811865460184, 8.628166150854816622E-31 ) ) ;
#996 = DIRECTION ( 'NONE',  ( -0.7071067811865490160, 0.7071067811865460184, 2.374131741961340399E-16 ) ) ;
#997 = ORIENTED_EDGE ( 'NONE', *, *, #8, .F. ) ;
#998 = VERTEX_POINT ( 'NONE', #945 ) ;
#999 = SECURITY_CLASSIFICATION_LEVEL ( 'unclassified' ) ;
#1000 = CARTESIAN_POINT ( 'NONE',  ( 10.17705333181314487, 4.497219937706967485, -22.83505414780210430 ) ) ;
#1001 = CARTESIAN_POINT ( 'NONE',  ( 64.34314575050760254, 40.81370849898475228, 0.000000000000000000 ) ) ;
#1002 = ORIENTED_EDGE ( 'NONE', *, *, #783, .F. ) ;
#1003 = EDGE_CURVE ( 'NONE', #860, #660, #747, .T. ) ;
#1004 = ORIENTED_EDGE ( 'NONE', *, *, #585, .T. ) ;
#1005 = DATE_AND_TIME ( #268, #1163 ) ;
#1006 = CARTESIAN_POINT ( 'NONE',  ( 10.88151696087047071, 3.615070386572876604, -22.50820340622379234 ) ) ;
#1007 = CARTESIAN_POINT ( 'NONE',  ( -15.00774985734417299, 5.801590424920698652, 19.99418526020467723 ) ) ;
#1008 = ORIENTED_EDGE ( 'NONE', *, *, #944, .F. ) ;
#1009 = AXIS2_PLACEMENT_3D ( 'NONE', #1036, #410, #576 ) ;
#1010 = AXIS2_PLACEMENT_3D ( 'NONE', #426, #333, #231 ) ;
#1011 = VECTOR ( 'NONE', #653, 1000.000000000000000 ) ;
#1012 = LINE ( 'NONE', #462, #756 ) ;
#1013 = VERTEX_POINT ( 'NONE', #1111 ) ;
#1014 = ORIENTED_EDGE ( 'NONE', *, *, #35, .T. ) ;
#1015 = CARTESIAN_POINT ( 'NONE',  ( 0.000000000000000000, 12.00000000000000000, 0.000000000000000000 ) ) ;
#1016 = CARTESIAN_POINT ( 'NONE',  ( -15.00774985734417299, 6.000000000000000000, 19.99418526020467368 ) ) ;
#1017 = VERTEX_POINT ( 'NONE', #282 ) ;
#1018 = CARTESIAN_POINT ( 'NONE',  ( 32.62598785848520322, 6.000000000000000000, -53.10986861802172143 ) ) ;
#1019 = CARTESIAN_POINT ( 'NONE',  ( -9.829799759254161273, 5.605133153421316017, 22.98644236401818475 ) ) ;
#1020 = EDGE_LOOP ( 'NONE', ( #144, #106 ) ) ;
#1021 = EDGE_CURVE ( 'NONE', #927, #116, #196, .T. ) ;
#1022 = CIRCLE ( 'NONE', #561, 25.00000000000000000 ) ;
#1023 = DIRECTION ( 'NONE',  ( -0.4999999999999998335, 0.000000000000000000, 0.8660254037844389297 ) ) ;
#1024 = VECTOR ( 'NONE', #1131, 1000.000000000000114 ) ;
#1025 = CARTESIAN_POINT ( 'NONE',  ( -11.65463149554558697, 3.152896644136626403, 22.11792615900338177 ) ) ;
#1026 = ORIENTED_EDGE ( 'NONE', *, *, #669, .F. ) ;
#1027 = EDGE_CURVE ( 'NONE', #562, #477, #197, .T. ) ;
#1028 = DIRECTION ( 'NONE',  ( 0.7071067811865457964, 0.7071067811865492381, 0.000000000000000000 ) ) ;
#1029 = CARTESIAN_POINT ( 'NONE',  ( 0.000000000000000000, 12.00000000000000000, -25.00000000000000000 ) ) ;
#1030 = DIRECTION ( 'NONE',  ( 0.4999999999999998890, 0.000000000000000000, -0.8660254037844388186 ) ) ;
#1031 = CARTESIAN_POINT ( 'NONE',  ( 12.33133009322192564, 9.000071578937195227, -21.74802662896129135 ) ) ;
#1032 = ORIENTED_EDGE ( 'NONE', *, *, #516, .F. ) ;
#1033 = CARTESIAN_POINT ( 'NONE',  ( 14.99206672418547548, 5.605520075481287279, -20.00598561667771591 ) ) ;
#1034 = DIRECTION ( 'NONE',  ( 0.8660254037844385966, 0.000000000000000000, 0.5000000000000001110 ) ) ;
#1035 = DIRECTION ( 'NONE',  ( 0.7071067811865490160, -0.7071067811865460184, 0.000000000000000000 ) ) ;
#1036 = CARTESIAN_POINT ( 'NONE',  ( 11.76471862576156369, -11.76471862576151395, 2.470919091761851139E-29 ) ) ;
#1037 = ORIENTED_EDGE ( 'NONE', *, *, #124, .F. ) ;
#1038 = ADVANCED_FACE ( 'NONE', ( #842 ), #299, .T. ) ;
#1039 = ADVANCED_FACE ( 'NONE', ( #750 ), #1115, .F. ) ;
#1040 = CARTESIAN_POINT ( 'NONE',  ( 12.32632224796223852, 3.000144832099433501, -21.75088792298303986 ) ) ;
#1041 = FACE_OUTER_BOUND ( 'NONE', #1071, .T. ) ;
#1042 = CIRCLE ( 'NONE', #1064, 12.00000000000000178 ) ;
#1043 = CARTESIAN_POINT ( 'NONE',  ( 0.000000000000000000, 0.000000000000000000, 12.00000000000000355 ) ) ;
#1044 = VECTOR ( 'NONE', #946, 999.9999999999998863 ) ;
#1045 = CARTESIAN_POINT ( 'NONE',  ( 9.224999999999997868, 12.00000000000000000, 15.97816869982288779 ) ) ;
#1046 = ORIENTED_EDGE ( 'NONE', *, *, #1148, .F. ) ;
#1047 = AXIS2_PLACEMENT_3D ( 'NONE', #586, #708, #789 ) ;
#1048 = DIRECTION ( 'NONE',  ( 0.8660254037844385966, 0.000000000000000000, 0.5000000000000000000 ) ) ;
#1049 = DIRECTION ( 'NONE',  ( 0.5000000000000003331, 0.000000000000000000, -0.8660254037844385966 ) ) ;
#1050 = CARTESIAN_POINT ( 'NONE',  ( -8.673617379884035472E-15, 0.000000000000000000, -21.30422493309719201 ) ) ;
#1051 = CARTESIAN_POINT ( 'NONE',  ( 10.17858821870446207, 7.505447609373987916, -22.83436568776904352 ) ) ;
#1052 = VERTEX_POINT ( 'NONE', #323 ) ;
#1053 = DIRECTION ( 'NONE',  ( 0.7071067811865460184, 0.7071067811865489050, 3.005447871460181802E-17 ) ) ;
#1054 = LINE ( 'NONE', #684, #544 ) ;
#1055 = CARTESIAN_POINT ( 'NONE',  ( -13.16545451782866749, 8.904782571364433963, 21.25341457416861601 ) ) ;
#1056 = VERTEX_POINT ( 'NONE', #804 ) ;
#1057 = ADVANCED_FACE ( 'NONE', ( #518, #224 ), #957, .T. ) ;
#1058 = DIRECTION ( 'NONE',  ( 0.7071067811865490160, -0.7071067811865460184, 0.000000000000000000 ) ) ;
#1059 = EDGE_CURVE ( 'NONE', #962, #728, #405, .T. ) ;
#1060 = LINE ( 'NONE', #785, #39 ) ;
#1061 = DIRECTION ( 'NONE',  ( 0.7071067811865489050, -0.7071067811865460184, -2.374131741961339906E-16 ) ) ;
#1062 = DIRECTION ( 'NONE',  ( -1.000000000000000000, 0.000000000000000000, 3.357529308342181864E-16 ) ) ;
#1063 = EDGE_LOOP ( 'NONE', ( #313, #1174 ) ) ;
#1064 = AXIS2_PLACEMENT_3D ( 'NONE', #26, #495, #509 ) ;
#1065 = VECTOR ( 'NONE', #96, 1000.000000000000000 ) ;
#1066 = APPROVAL_PERSON_ORGANIZATION ( #187, #1130, #338 ) ;
#1067 = DIRECTION ( 'NONE',  ( 0.000000000000000000, 1.000000000000000000, -0.000000000000000000 ) ) ;
#1068 = ADVANCED_FACE ( 'NONE', ( #69 ), #131, .F. ) ;
#1069 = CARTESIAN_POINT ( 'NONE',  ( -12.66990436729396663, 9.000143250130767214, 21.55256061173250615 ) ) ;
#1070 = LINE ( 'NONE', #1172, #1114 ) ;
#1071 = EDGE_LOOP ( 'NONE', ( #5, #821, #809, #984 ) ) ;
#1072 = EDGE_LOOP ( 'NONE', ( #909, #536, #193, #749 ) ) ;
#1073 = CYLINDRICAL_SURFACE ( 'NONE', #469, 1.700000000000001288 ) ;
#1074 = LINE ( 'NONE', #709, #100 ) ;
#1075 = CARTESIAN_POINT ( 'NONE',  ( -11.81965260940567752, 8.903682279542065814, 22.03026554536032577 ) ) ;
#1076 = CARTESIAN_POINT ( 'NONE',  ( 35.52943725152297105, 12.00000000000000000, 4.335326657992205398E-29 ) ) ;
#1077 = ORIENTED_EDGE ( 'NONE', *, *, #516, .T. ) ;
#1078 = EDGE_CURVE ( 'NONE', #21, #934, #777, .T. ) ;
#1079 = VERTEX_POINT ( 'NONE', #57 ) ;
#1080 = FACE_OUTER_BOUND ( 'NONE', #510, .T. ) ;
#1081 = CARTESIAN_POINT ( 'NONE',  ( 21.93171219946131245, 12.00000000000000000, 12.00000000000000355 ) ) ;
#1082 = VERTEX_POINT ( 'NONE', #964 ) ;
#1083 = ORIENTED_EDGE ( 'NONE', *, *, #1027, .F. ) ;
#1084 = CIRCLE ( 'NONE', #563, 7.999999999999991118 ) ;
#1085 = AXIS2_PLACEMENT_3D ( 'NONE', #701, #1154, #218 ) ;
#1086 = APPROVAL_DATE_TIME ( #181, #1130 ) ;
#1087 = CARTESIAN_POINT ( 'NONE',  ( 9.829203137734445761, 5.609401496238728413, -22.98669756657416485 ) ) ;
#1088 = DIRECTION ( 'NONE',  ( 1.000000000000000000, -0.000000000000000000, 0.000000000000000000 ) ) ;
#1089 = VERTEX_POINT ( 'NONE', #236 ) ;
#1090 = EDGE_LOOP ( 'NONE', ( #886, #81 ) ) ;
#1091 = MECHANICAL_CONTEXT ( 'NONE', #279, 'mechanical' ) ;
#1092 = CARTESIAN_POINT ( 'NONE',  ( 10.49095014574746543, 4.018474560390265182, -22.69271236319301366 ) ) ;
#1093 = FACE_OUTER_BOUND ( 'NONE', #1184, .T. ) ;
#1094 = ORIENTED_EDGE ( 'NONE', *, *, #186, .F. ) ;
#1095 = COORDINATED_UNIVERSAL_TIME_OFFSET ( 5, 0, .BEHIND. ) ;
#1096 = LINE ( 'NONE', #1193, #775 ) ;
#1097 = DIRECTION ( 'NONE',  ( -0.8660254037844388186, 0.000000000000000000, -0.4999999999999996669 ) ) ;
#1098 = DIRECTION ( 'NONE',  ( -0.4999999999999997224, -0.000000000000000000, 0.8660254037844388186 ) ) ;
#1099 = ORIENTED_EDGE ( 'NONE', *, *, #845, .T. ) ;
#1100 = CIRCLE ( 'NONE', #774, 1.699999999999999734 ) ;
#1101 = APPROVAL_STATUS ( 'not_yet_approved' ) ;
#1102 = CIRCLE ( 'NONE', #468, 12.00000000000000178 ) ;
#1103 = AXIS2_PLACEMENT_3D ( 'NONE', #492, #288, #1028 ) ;
#1104 = DIRECTION ( 'NONE',  ( -0.000000000000000000, -1.000000000000000000, -0.000000000000000000 ) ) ;
#1105 = EDGE_CURVE ( 'NONE', #183, #672, #66, .T. ) ;
#1106 = CARTESIAN_POINT ( 'NONE',  ( -14.05295302173815308, 3.615912496504809504, 20.67707708604389083 ) ) ;
#1107 = ORIENTED_EDGE ( 'NONE', *, *, #896, .T. ) ;
#1108 = DIRECTION ( 'NONE',  ( 0.8660254037844384856, 0.000000000000000000, 0.5000000000000002220 ) ) ;
#1109 = ORIENTED_EDGE ( 'NONE', *, *, #465, .T. ) ;
#1110 = EDGE_LOOP ( 'NONE', ( #1113, #375 ) ) ;
#1111 = CARTESIAN_POINT ( 'NONE',  ( -9.811597434637540971, 6.000000000000000000, 22.99418526020467723 ) ) ;
#1112 = DIRECTION ( 'NONE',  ( 0.7071067811865460184, 0.7071067811865490160, 0.000000000000000000 ) ) ;
#1113 = ORIENTED_EDGE ( 'NONE', *, *, #470, .F. ) ;
#1114 = VECTOR ( 'NONE', #1088, 1000.000000000000000 ) ;
#1115 = CYLINDRICAL_SURFACE ( 'NONE', #1103, 7.999999999999991118 ) ;
#1116 = VECTOR ( 'NONE', #368, 1000.000000000000000 ) ;
#1117 = EDGE_CURVE ( 'NONE', #998, #860, #742, .T. ) ;
#1118 = CARTESIAN_POINT ( 'NONE',  ( 64.34314575050760254, 40.81370849898475228, 3.469446951953614189E-15 ) ) ;
#1119 = DIRECTION ( 'NONE',  ( 0.7071067811865490160, -0.7071067811865460184, 0.000000000000000000 ) ) ;
#1120 = VECTOR ( 'NONE', #936, 1000.000000000000000 ) ;
#1121 = CARTESIAN_POINT ( 'NONE',  ( 12.83811254486025355, 8.980859953310888599, -21.45274811465020193 ) ) ;
#1122 = ORIENTED_EDGE ( 'NONE', *, *, #311, .T. ) ;
#1123 = CARTESIAN_POINT ( 'NONE',  ( 14.76130376310614523, 4.668035572730624416, -20.17695723308835198 ) ) ;
#1124 = DIRECTION ( 'NONE',  ( -0.8660254037844385966, 0.000000000000000000, -0.4999999999999998890 ) ) ;
#1125 = DIRECTION ( 'NONE',  ( 0.7071067811865465735, 0.7071067811865483499, 0.000000000000000000 ) ) ;
#1126 = CARTESIAN_POINT ( 'NONE',  ( 13.77991571388941416, 8.603396226338976049, -20.86003184013592460 ) ) ;
#1127 = ORIENTED_EDGE ( 'NONE', *, *, #549, .F. ) ;
#1128 = B_SPLINE_CURVE_WITH_KNOTS ( 'NONE', 3,
 ( #1016, #1007, #1189, #831, #922, #464, #658, #636, #356, #642, #1106, #176, #734, #546, #844, #556, #926, #938, #560, #4, #1025, #837, #566, #270, #93, #917, #89, #740, #369, #745, #12, #1019, #109, #455 ),
 .UNSPECIFIED., .F., .F.,
 ( 4, 2, 2, 2, 2, 2, 2, 2, 2, 2, 2, 2, 2, 2, 2, 2, 4 ),
 ( 0.000000000000000000, 0.0005867386906871438230, 0.001173477381374287646, 0.001760216072061431469, 0.002346954762748575292, 0.002933693453435718898, 0.003520432144122862938, 0.004107170834810006978, 0.004693909525497150584, 0.005280648216184294190, 0.005867386906871437796, 0.006454125597558582270, 0.007040864288245725876, 0.007627602978932869482, 0.008214341669620013955, 0.008801080360307156694, 0.009387819050994301168 ),
 .UNSPECIFIED. ) ;
#1129 = DIRECTION ( 'NONE',  ( -0.8660254037844385966, 0.000000000000000000, 0.5000000000000001110 ) ) ;
#1130 = APPROVAL ( #834, 'UNSPECIFIED' ) ;
#1131 = DIRECTION ( 'NONE',  ( 0.7071067811865489050, -0.7071067811865461294, -0.000000000000000000 ) ) ;
#1132 = DIRECTION ( 'NONE',  ( 0.8660254037844388186, 0.000000000000000000, 0.4999999999999997780 ) ) ;
#1133 = DIRECTION ( 'NONE',  ( -0.000000000000000000, -1.000000000000000000, -0.000000000000000000 ) ) ;
#1134 = EDGE_LOOP ( 'NONE', ( #853, #322, #67, #632, #421, #637 ) ) ;
#1135 = CARTESIAN_POINT ( 'NONE',  ( 9.126923788646678304, 6.000000000000000000, -21.80829571874509654 ) ) ;
#1136 = LINE ( 'NONE', #778, #1044 ) ;
#1137 = AXIS2_PLACEMENT_3D ( 'NONE', #430, #341, #1176 ) ;
#1138 = DIRECTION ( 'NONE',  ( 0.000000000000000000, 0.000000000000000000, 1.000000000000000000 ) ) ;
#1139 = VECTOR ( 'NONE', #1171, 1000.000000000000000 ) ;
#1140 = DIRECTION ( 'NONE',  ( 0.4999999999999998890, 0.000000000000000000, -0.8660254037844388186 ) ) ;
#1141 = ORIENTED_EDGE ( 'NONE', *, *, #241, .F. ) ;
#1142 = LOCAL_TIME ( 0, 54, 29.00000000000000000, #531 ) ;
#1143 = CARTESIAN_POINT ( 'NONE',  ( 66.35840007688928210, 33.14159992311071079, 0.000000000000000000 ) ) ;
#1144 = PLANE ( 'NONE',  #349 ) ;
#1145 = CARTESIAN_POINT ( 'NONE',  ( -18.54756073373903291, 6.000000000000000000, 28.72531754730549025 ) ) ;
#1146 = CARTESIAN_POINT ( 'NONE',  ( -12.15627636999896310, 8.980234801956973101, 21.84632080287949663 ) ) ;
#1147 = CARTESIAN_POINT ( 'NONE',  ( 9.953371174866092019, 6.966704062136894748, -22.93329754180295410 ) ) ;
#1148 = EDGE_CURVE ( 'NONE', #490, #381, #235, .T. ) ;
#1149 = EDGE_LOOP ( 'NONE', ( #1008, #281 ) ) ;
#1150 = ADVANCED_FACE ( 'NONE', ( #497 ), #146, .F. ) ;
#1151 = CARTESIAN_POINT ( 'NONE',  ( -13.63347443215977428, 8.696815486974344367, 20.95617899705860410 ) ) ;
#1152 = LINE ( 'NONE', #72, #252 ) ;
#1153 = ORIENTED_EDGE ( 'NONE', *, *, #247, .T. ) ;
#1154 = DIRECTION ( 'NONE',  ( -0.4999999999999997224, -0.000000000000000000, 0.8660254037844388186 ) ) ;
#1155 = DIRECTION ( 'NONE',  ( 0.4999999999999998335, -0.000000000000000000, -0.8660254037844389297 ) ) ;
#1156 = DIRECTION ( 'NONE',  ( 0.7071067811865490160, -0.7071067811865461294, -2.775557561562890735E-17 ) ) ;
#1157 = EDGE_CURVE ( 'NONE', #14, #535, #413, .T. ) ;
#1158 = CIRCLE ( 'NONE', #794, 12.00000000000000178 ) ;
#1159 = DIRECTION ( 'NONE',  ( 0.7071067811865457964, 0.7071067811865492381, 0.000000000000000000 ) ) ;
#1160 = VERTEX_POINT ( 'NONE', #797 ) ;
#1161 = VECTOR ( 'NONE', #87, 1000.000000000000000 ) ;
#1162 = CIRCLE ( 'NONE', #641, 7.999999999999991118 ) ;
#1163 = LOCAL_TIME ( 0, 54, 29.00000000000000000, #829 ) ;
#1164 = CARTESIAN_POINT ( 'NONE',  ( 0.000000000000000000, 0.000000000000000000, 0.000000000000000000 ) ) ;
#1165 = DIRECTION ( 'NONE',  ( 0.7071067811865489050, -0.7071067811865461294, -0.000000000000000000 ) ) ;
#1166 = CARTESIAN_POINT ( 'NONE',  ( -10.49095014574747076, 7.981525439609733930, 22.69271236319301011 ) ) ;
#1167 = DIRECTION ( 'NONE',  ( 0.7071067811865490160, -0.7071067811865461294, -2.775557561562890735E-17 ) ) ;
#1168 = ORIENTED_EDGE ( 'NONE', *, *, #676, .T. ) ;
#1169 = DIRECTION ( 'NONE',  ( -0.4999999999999997224, -0.000000000000000000, 0.8660254037844388186 ) ) ;
#1170 = DIRECTION ( 'NONE',  ( 1.000000000000000000, 0.000000000000000000, -3.357529308342181864E-16 ) ) ;
#1171 = DIRECTION ( 'NONE',  ( -0.4999999999999997224, -0.000000000000000000, 0.8660254037844388186 ) ) ;
#1172 = CARTESIAN_POINT ( 'NONE',  ( 0.000000000000000000, 12.00000000000000000, 12.00000000000000355 ) ) ;
#1173 = ORIENTED_EDGE ( 'NONE', *, *, #1059, .T. ) ;
#1174 = ORIENTED_EDGE ( 'NONE', *, *, #910, .T. ) ;
#1175 = CARTESIAN_POINT ( 'NONE',  ( 13.19724318643353911, 6.000000000000000000, -19.45829571874509156 ) ) ;
#1176 = DIRECTION ( 'NONE',  ( 0.000000000000000000, 0.000000000000000000, 1.000000000000000000 ) ) ;
#1177 = ORIENTED_EDGE ( 'NONE', *, *, #175, .T. ) ;
#1178 = ADVANCED_FACE ( 'NONE', ( #36 ), #404, .F. ) ;
#1179 = EDGE_LOOP ( 'NONE', ( #94, #625, #678, #997 ) ) ;
#1180 = AXIS2_PLACEMENT_3D ( 'NONE', #583, #955, #129 ) ;
#1181 = VECTOR ( 'NONE', #108, 1000.000000000000114 ) ;
#1182 = PERSON_AND_ORGANIZATION_ROLE ( 'creator' ) ;
#1183 = DIRECTION ( 'NONE',  ( 0.7071067811865457964, 0.7071067811865492381, 0.000000000000000000 ) ) ;
#1184 = EDGE_LOOP ( 'NONE', ( #1141, #649, #200, #707 ) ) ;
#1185 = ADVANCED_FACE ( 'NONE', ( #314 ), #1073, .F. ) ;
#1186 = ORIENTED_EDGE ( 'NONE', *, *, #367, .T. ) ;
#1187 = APPROVAL_DATE_TIME ( #75, #223 ) ;
#1188 = DIRECTION ( 'NONE',  ( 0.8660254037844385966, 0.000000000000000000, 0.5000000000000000000 ) ) ;
#1189 = CARTESIAN_POINT ( 'NONE',  ( -14.99206073557065544, 5.606532866540722360, 20.00598889955800175 ) ) ;
#1190 = VERTEX_POINT ( 'NONE', #506 ) ;
#1191 = ADVANCED_FACE ( 'NONE', ( #876 ), #45, .F. ) ;
#1192 = PERSON_AND_ORGANIZATION ( #851, #365 ) ;
#1193 = CARTESIAN_POINT ( 'NONE',  ( 18.44999999999998508, 12.00000000000000000, -6.009258394948625081E-15 ) ) ;
#1194 = EDGE_LOOP ( 'NONE', ( #788, #284 ) ) ;
#1195 = EDGE_LOOP ( 'NONE', ( #584, #74, #172, #298 ) ) ;
#1196 = VECTOR ( 'NONE', #792, 1000.000000000000000 ) ;
ENDSEC;
END-ISO-10303-21;
