ISO-10303-21;
HEADER;
FILE_DESCRIPTION (( 'STEP AP203' ),
    '1' );
FILE_NAME ('Link_90deg.STEP',
    '2026-06-03T14:11:28',
    ( '' ),
    ( '' ),
    'SwSTEP 2.0',
    'SolidWorks 2025',
    '' );
FILE_SCHEMA (( 'CONFIG_CONTROL_DESIGN' ));
ENDSEC;

DATA;
#1 = DESIGN_CONTEXT ( 'detailed design', #587, 'design' ) ;
#2 = EDGE_CURVE ( 'NONE', #781, #1001, #514, .T. ) ;
#3 = DIRECTION ( 'NONE',  ( -0.000000000000000000, -0.000000000000000000, -1.000000000000000000 ) ) ;
#4 = DIRECTION ( 'NONE',  ( -1.314184451497581013E-16, 1.000000000000000000, 0.000000000000000000 ) ) ;
#5 = FACE_OUTER_BOUND ( 'NONE', #936, .T. ) ;
#6 = VERTEX_POINT ( 'NONE', #520 ) ;
#7 = AXIS2_PLACEMENT_3D ( 'NONE', #90, #1066, #975 ) ;
#8 = AXIS2_PLACEMENT_3D ( 'NONE', #625, #302, #978 ) ;
#9 = EDGE_CURVE ( 'NONE', #1103, #899, #152, .T. ) ;
#10 = LINE ( 'NONE', #355, #788 ) ;
#11 = FACE_BOUND ( 'NONE', #887, .T. ) ;
#12 = ORIENTED_EDGE ( 'NONE', *, *, #377, .T. ) ;
#13 = DIRECTION ( 'NONE',  ( -0.000000000000000000, -0.000000000000000000, -1.000000000000000000 ) ) ;
#14 = VERTEX_POINT ( 'NONE', #791 ) ;
#15 = CARTESIAN_POINT ( 'NONE',  ( -50.20000000000000284, -10.00000000000000888, 12.00000000000000000 ) ) ;
#16 = AXIS2_PLACEMENT_3D ( 'NONE', #245, #323, #598 ) ;
#17 = FACE_BOUND ( 'NONE', #47, .T. ) ;
#18 = ORIENTED_EDGE ( 'NONE', *, *, #614, .T. ) ;
#19 = EDGE_CURVE ( 'NONE', #923, #597, #127, .T. ) ;
#20 = CARTESIAN_POINT ( 'NONE',  ( -0.08822805999999651372, -6.999999999999998224, 0.000000000000000000 ) ) ;
#21 = VERTEX_POINT ( 'NONE', #272 ) ;
#22 = DIRECTION ( 'NONE',  ( -1.000000000000000000, -1.314184451497581013E-16, 0.000000000000000000 ) ) ;
#23 = ORIENTED_EDGE ( 'NONE', *, *, #904, .T. ) ;
#24 = LOCAL_TIME ( 10, 11, 28.00000000000000000, #588 ) ;
#25 = DIRECTION ( 'NONE',  ( 0.000000000000000000, 1.000000000000000000, 0.000000000000000000 ) ) ;
#26 = VERTEX_POINT ( 'NONE', #856 ) ;
#27 = EDGE_CURVE ( 'NONE', #990, #384, #176, .T. ) ;
#28 = CIRCLE ( 'NONE', #663, 4.000000000000000888 ) ;
#29 = LINE ( 'NONE', #114, #818 ) ;
#30 = ORIENTED_EDGE ( 'NONE', *, *, #578, .F. ) ;
#31 = PLANE ( 'NONE',  #150 ) ;
#32 = ORIENTED_EDGE ( 'NONE', *, *, #632, .T. ) ;
#33 = AXIS2_PLACEMENT_3D ( 'NONE', #89, #172, #517 ) ;
#34 = LINE ( 'NONE', #838, #617 ) ;
#35 = AXIS2_PLACEMENT_3D ( 'NONE', #286, #633, #362 ) ;
#36 = ADVANCED_FACE ( 'NONE', ( #250, #257 ), #607, .T. ) ;
#37 = CARTESIAN_POINT ( 'NONE',  ( -82.40000000000000568, 98.99999999999997158, 0.000000000000000000 ) ) ;
#38 = ORIENTED_EDGE ( 'NONE', *, *, #1072, .F. ) ;
#39 = CARTESIAN_POINT ( 'NONE',  ( -75.40000000000001990, 112.9999999999999858, 2.000000000000000000 ) ) ;
#40 = EDGE_CURVE ( 'NONE', #748, #195, #1134, .T. ) ;
#41 = DIRECTION ( 'NONE',  ( 1.000000000000000000, 1.580613645536955821E-16, -0.000000000000000000 ) ) ;
#42 = VECTOR ( 'NONE', #528, 1000.000000000000000 ) ;
#43 = ORIENTED_EDGE ( 'NONE', *, *, #385, .F. ) ;
#44 = AXIS2_PLACEMENT_3D ( 'NONE', #234, #739, #571 ) ;
#45 = CARTESIAN_POINT ( 'NONE',  ( -0.08822805999999651372, -10.00000000000000178, 0.000000000000000000 ) ) ;
#46 = DIRECTION ( 'NONE',  ( 0.000000000000000000, 0.000000000000000000, -1.000000000000000000 ) ) ;
#47 = EDGE_LOOP ( 'NONE', ( #1090, #1013 ) ) ;
#48 = CARTESIAN_POINT ( 'NONE',  ( -0.08822805999999651372, -7.000000000000007994, 0.000000000000000000 ) ) ;
#49 = EDGE_CURVE ( 'NONE', #712, #305, #882, .T. ) ;
#50 = CIRCLE ( 'NONE', #125, 4.099999999999999645 ) ;
#51 = DIRECTION ( 'NONE',  ( 0.000000000000000000, 0.000000000000000000, 1.000000000000000000 ) ) ;
#52 = ORIENTED_EDGE ( 'NONE', *, *, #336, .F. ) ;
#53 = DIRECTION ( 'NONE',  ( 0.000000000000000000, 0.000000000000000000, 1.000000000000000000 ) ) ;
#54 = EDGE_CURVE ( 'NONE', #1057, #931, #280, .T. ) ;
#55 = PERSON_AND_ORGANIZATION ( #653, #1053 ) ;
#56 = EDGE_LOOP ( 'NONE', ( #906, #373, #330, #252, #582 ) ) ;
#57 = CARTESIAN_POINT ( 'NONE',  ( -60.09994856424412291, 35.25528762357158996, 2.500000000000000000 ) ) ;
#58 = CARTESIAN_POINT ( 'NONE',  ( -85.40000000000001990, 112.9999999999999858, 2.000000000000000000 ) ) ;
#59 = AXIS2_PLACEMENT_3D ( 'NONE', #1091, #225, #494 ) ;
#60 = APPROVAL_DATE_TIME ( #951, #249 ) ;
#61 = VERTEX_POINT ( 'NONE', #714 ) ;
#62 = DIRECTION ( 'NONE',  ( -0.000000000000000000, 0.000000000000000000, 1.000000000000000000 ) ) ;
#63 = CARTESIAN_POINT ( 'NONE',  ( -65.40000000000001990, 98.99999999999997158, 0.000000000000000000 ) ) ;
#64 = ORIENTED_EDGE ( 'NONE', *, *, #377, .F. ) ;
#65 = CARTESIAN_POINT ( 'NONE',  ( -82.40000000000000568, 98.99999999999997158, 0.000000000000000000 ) ) ;
#66 = CARTESIAN_POINT ( 'NONE',  ( -0.08822805999999601412, 10.00000000000000000, 4.099999999999999645 ) ) ;
#67 = VECTOR ( 'NONE', #3, 1000.000000000000000 ) ;
#68 = VECTOR ( 'NONE', #869, 1000.000000000000000 ) ;
#69 = ADVANCED_FACE ( 'NONE', ( #438 ), #198, .F. ) ;
#70 = VERTEX_POINT ( 'NONE', #988 ) ;
#71 = DIRECTION ( 'NONE',  ( 0.7071067811865465735, -0.7071067811865484609, 0.000000000000000000 ) ) ;
#72 = DIRECTION ( 'NONE',  ( -0.000000000000000000, -1.000000000000000000, -0.000000000000000000 ) ) ;
#73 = DIRECTION ( 'NONE',  ( 0.000000000000000000, 0.000000000000000000, -1.000000000000000000 ) ) ;
#74 = ORIENTED_EDGE ( 'NONE', *, *, #401, .T. ) ;
#75 = PERSON_AND_ORGANIZATION ( #653, #1053 ) ;
#76 = EDGE_CURVE ( 'NONE', #269, #748, #713, .T. ) ;
#77 = CARTESIAN_POINT ( 'NONE',  ( -65.40000000000001990, 98.99999999999997158, 0.000000000000000000 ) ) ;
#78 = DIRECTION ( 'NONE',  ( -1.000000000000000000, -1.425043548098738260E-16, 0.000000000000000000 ) ) ;
#79 = CARTESIAN_POINT ( 'NONE',  ( 5.800000000000001599, -1.024250050195969141E-16, -2.000000000000000000 ) ) ;
#80 = DIRECTION ( 'NONE',  ( 1.000000000000000000, 1.580613645536955821E-16, -0.000000000000000000 ) ) ;
#81 = VECTOR ( 'NONE', #104, 1000.000000000000000 ) ;
#82 = PERSON_AND_ORGANIZATION_ROLE ( 'classification_officer' ) ;
#83 = CARTESIAN_POINT ( 'NONE',  ( -23.02893218813457921, -23.02893218813451526, 12.00000000000000000 ) ) ;
#84 = CARTESIAN_POINT ( 'NONE',  ( 15.80000000000000071, -10.00000000000000000, 2.000000000000000000 ) ) ;
#85 = DIRECTION ( 'NONE',  ( 0.000000000000000000, 1.000000000000000000, 0.000000000000000000 ) ) ;
#86 = CARTESIAN_POINT ( 'NONE',  ( -23.02893218813457921, -23.02893218813451526, 2.500000000000000000 ) ) ;
#87 = EDGE_CURVE ( 'NONE', #645, #224, #10, .T. ) ;
#88 = AXIS2_PLACEMENT_3D ( 'NONE', #65, #1133, #241 ) ;
#89 = CARTESIAN_POINT ( 'NONE',  ( -82.40000000000000568, 98.99999999999997158, 0.000000000000000000 ) ) ;
#90 = CARTESIAN_POINT ( 'NONE',  ( -40.06549201738005195, -15.74036759444158839, 2.500000000000000000 ) ) ;
#91 = PRODUCT_DEFINITION_SHAPE ( 'NONE', 'NONE',  #455 ) ;
#92 = ORIENTED_EDGE ( 'NONE', *, *, #1113, .F. ) ;
#93 = CARTESIAN_POINT ( 'NONE',  ( 15.80000000000000071, -10.00000000000000000, -2.000000000000000000 ) ) ;
#94 = VERTEX_POINT ( 'NONE', #1073 ) ;
#95 = EDGE_CURVE ( 'NONE', #193, #1001, #541, .T. ) ;
#96 = CARTESIAN_POINT ( 'NONE',  ( -85.40000000000001990, 98.99999999999997158, 0.000000000000000000 ) ) ;
#97 = CARTESIAN_POINT ( 'NONE',  ( -0.08822805999999601412, 10.00000000000000000, 4.099999999999999645 ) ) ;
#98 = EDGE_LOOP ( 'NONE', ( #262, #719, #804, #1039 ) ) ;
#99 = CARTESIAN_POINT ( 'NONE',  ( -85.40000000000000568, 25.20000000000009877, -12.00000000000000000 ) ) ;
#100 = ORIENTED_EDGE ( 'NONE', *, *, #407, .F. ) ;
#101 = CIRCLE ( 'NONE', #135, 4.000000000000000888 ) ;
#102 = AXIS2_PLACEMENT_3D ( 'NONE', #641, #900, #809 ) ;
#103 = CYLINDRICAL_SURFACE ( 'NONE', #185, 1.599999999999997646 ) ;
#104 = DIRECTION ( 'NONE',  ( -0.000000000000000000, -0.000000000000000000, -1.000000000000000000 ) ) ;
#105 = EDGE_LOOP ( 'NONE', ( #424, #832 ) ) ;
#106 = FACE_OUTER_BOUND ( 'NONE', #757, .T. ) ;
#107 = ORIENTED_EDGE ( 'NONE', *, *, #857, .F. ) ;
#108 = EDGE_CURVE ( 'NONE', #1086, #14, #443, .T. ) ;
#109 = VECTOR ( 'NONE', #506, 1000.000000000000000 ) ;
#110 = DIRECTION ( 'NONE',  ( -1.000000000000000000, -1.425043548098738260E-16, 0.000000000000000000 ) ) ;
#111 = ORIENTED_EDGE ( 'NONE', *, *, #2, .F. ) ;
#112 = DIRECTION ( 'NONE',  ( 0.000000000000000000, 1.000000000000000000, 0.000000000000000000 ) ) ;
#113 = ORIENTED_EDGE ( 'NONE', *, *, #813, .T. ) ;
#114 = CARTESIAN_POINT ( 'NONE',  ( -0.08822805999999651372, 10.00000000000000000, -4.099999999999999645 ) ) ;
#115 = ORIENTED_EDGE ( 'NONE', *, *, #745, .F. ) ;
#116 = PLANE ( 'NONE',  #8 ) ;
#117 = AXIS2_PLACEMENT_3D ( 'NONE', #779, #697, #673 ) ;
#118 = AXIS2_PLACEMENT_3D ( 'NONE', #276, #1070, #379 ) ;
#119 =( NAMED_UNIT ( * ) PLANE_ANGLE_UNIT ( ) SI_UNIT ( $, .RADIAN. ) );
#120 = ORIENTED_EDGE ( 'NONE', *, *, #9, .T. ) ;
#121 = DIRECTION ( 'NONE',  ( -0.000000000000000000, 0.000000000000000000, 1.000000000000000000 ) ) ;
#122 = ADVANCED_FACE ( 'NONE', ( #627, #703 ), #191, .T. ) ;
#123 = DIRECTION ( 'NONE',  ( 0.000000000000000000, 0.000000000000000000, 1.000000000000000000 ) ) ;
#124 = ORIENTED_EDGE ( 'NONE', *, *, #652, .T. ) ;
#125 = AXIS2_PLACEMENT_3D ( 'NONE', #772, #334, #852 ) ;
#126 = CARTESIAN_POINT ( 'NONE',  ( -85.40000000000000568, 98.99999999999997158, -4.000000000000000888 ) ) ;
#127 = CIRCLE ( 'NONE', #1069, 4.000000000000000888 ) ;
#128 = EDGE_CURVE ( 'NONE', #899, #781, #299, .T. ) ;
#129 = ADVANCED_FACE ( 'NONE', ( #186 ), #103, .F. ) ;
#130 = CARTESIAN_POINT ( 'NONE',  ( -82.40000000000000568, 98.99999999999997158, -1.599999999999997646 ) ) ;
#131 = ORIENTED_EDGE ( 'NONE', *, *, #857, .T. ) ;
#132 = CARTESIAN_POINT ( 'NONE',  ( -46.05786437626903052, -3.469446951953614189E-15, -2.500000000000000000 ) ) ;
#133 = DIRECTION ( 'NONE',  ( 0.000000000000000000, 1.000000000000000000, -0.000000000000000000 ) ) ;
#134 = EDGE_CURVE ( 'NONE', #70, #953, #670, .T. ) ;
#135 = AXIS2_PLACEMENT_3D ( 'NONE', #356, #1132, #938 ) ;
#136 = ORIENTED_EDGE ( 'NONE', *, *, #315, .T. ) ;
#137 = DIRECTION ( 'NONE',  ( 0.000000000000000000, -1.000000000000000000, 0.000000000000000000 ) ) ;
#138 = ORIENTED_EDGE ( 'NONE', *, *, #9, .F. ) ;
#139 = CC_DESIGN_PERSON_AND_ORGANIZATION_ASSIGNMENT ( #55, #82, ( #960 ) ) ;
#140 = PLANE ( 'NONE',  #454 ) ;
#141 = ORIENTED_EDGE ( 'NONE', *, *, #134, .F. ) ;
#142 = DIRECTION ( 'NONE',  ( -0.000000000000000000, 0.000000000000000000, 1.000000000000000000 ) ) ;
#143 = CARTESIAN_POINT ( 'NONE',  ( -60.09994856424412291, 35.25528762357158996, -2.500000000000000000 ) ) ;
#144 = COORDINATED_UNIVERSAL_TIME_OFFSET ( 5, 0, .BEHIND. ) ;
#145 = ORIENTED_EDGE ( 'NONE', *, *, #434, .T. ) ;
#146 = LINE ( 'NONE', #590, #374 ) ;
#147 = CARTESIAN_POINT ( 'NONE',  ( -82.40000000000000568, 98.99999999999997158, -4.000000000000000888 ) ) ;
#148 = VECTOR ( 'NONE', #254, 1000.000000000000000 ) ;
#149 = VERTEX_POINT ( 'NONE', #968 ) ;
#150 = AXIS2_PLACEMENT_3D ( 'NONE', #825, #1062, #888 ) ;
#151 = LINE ( 'NONE', #592, #1065 ) ;
#152 = LINE ( 'NONE', #776, #477 ) ;
#153 = EDGE_CURVE ( 'NONE', #209, #61, #527, .T. ) ;
#154 = SHAPE_DEFINITION_REPRESENTATION ( #91, #508 ) ;
#155 = ORIENTED_EDGE ( 'NONE', *, *, #578, .T. ) ;
#156 = DIRECTION ( 'NONE',  ( -0.7071067811865465735, 0.7071067811865484609, 0.000000000000000000 ) ) ;
#157 = CARTESIAN_POINT ( 'NONE',  ( -0.08822805999999651372, -6.999999999999998224, -4.000000000000000000 ) ) ;
#158 = DIRECTION ( 'NONE',  ( 0.000000000000000000, 0.000000000000000000, -1.000000000000000000 ) ) ;
#159 = EDGE_LOOP ( 'NONE', ( #30, #43, #787, #138 ) ) ;
#160 = VECTOR ( 'NONE', #674, 1000.000000000000000 ) ;
#161 = EDGE_CURVE ( 'NONE', #1142, #209, #1117, .T. ) ;
#162 = DATE_TIME_ROLE ( 'creation_date' ) ;
#163 = ORIENTED_EDGE ( 'NONE', *, *, #181, .F. ) ;
#164 = DIRECTION ( 'NONE',  ( -1.425043548098738260E-16, 1.000000000000000000, 0.000000000000000000 ) ) ;
#165 = LINE ( 'NONE', #616, #891 ) ;
#166 = VERTEX_POINT ( 'NONE', #1036 ) ;
#167 = DIRECTION ( 'NONE',  ( -0.000000000000000000, 0.000000000000000000, 1.000000000000000000 ) ) ;
#168 = ORIENTED_EDGE ( 'NONE', *, *, #548, .T. ) ;
#169 = APPROVAL_PERSON_ORGANIZATION ( #676, #701, #595 ) ;
#170 = DATE_AND_TIME ( #872, #210 ) ;
#171 = ADVANCED_FACE ( 'NONE', ( #1023, #341 ), #522, .T. ) ;
#172 = DIRECTION ( 'NONE',  ( 1.000000000000000000, -0.000000000000000000, -0.000000000000000000 ) ) ;
#173 = DIRECTION ( 'NONE',  ( 1.000000000000000000, -0.000000000000000000, -0.000000000000000000 ) ) ;
#174 = VECTOR ( 'NONE', #72, 1000.000000000000000 ) ;
#175 = CARTESIAN_POINT ( 'NONE',  ( 5.800000000000001599, -1.024250050195969141E-16, 2.000000000000000000 ) ) ;
#176 = LINE ( 'NONE', #66, #279 ) ;
#177 = VECTOR ( 'NONE', #1037, 1000.000000000000000 ) ;
#178 = MANIFOLD_SOLID_BREP ( 'Boss-Extrude8', #827 ) ;
#179 = DIRECTION ( 'NONE',  ( 0.000000000000000000, 1.000000000000000000, 0.000000000000000000 ) ) ;
#180 = FACE_OUTER_BOUND ( 'NONE', #159, .T. ) ;
#181 = EDGE_CURVE ( 'NONE', #206, #953, #233, .T. ) ;
#182 = ORIENTED_EDGE ( 'NONE', *, *, #87, .F. ) ;
#183 = CARTESIAN_POINT ( 'NONE',  ( -75.40000000000000568, 98.99999999999997158, 0.000000000000000000 ) ) ;
#184 = VERTEX_POINT ( 'NONE', #954 ) ;
#185 = AXIS2_PLACEMENT_3D ( 'NONE', #96, #1054, #615 ) ;
#186 = FACE_OUTER_BOUND ( 'NONE', #647, .T. ) ;
#187 = CYLINDRICAL_SURFACE ( 'NONE', #683, 4.000000000000000000 ) ;
#188 = EDGE_LOOP ( 'NONE', ( #332, #613, #446, #531 ) ) ;
#189 = LINE ( 'NONE', #469, #1089 ) ;
#190 = ORIENTED_EDGE ( 'NONE', *, *, #1084, .T. ) ;
#191 = PLANE ( 'NONE',  #643 ) ;
#192 = DIRECTION ( 'NONE',  ( -1.000000000000000000, 0.000000000000000000, 0.000000000000000000 ) ) ;
#193 = VERTEX_POINT ( 'NONE', #421 ) ;
#194 = DIRECTION ( 'NONE',  ( 1.000000000000000000, -0.000000000000000000, 0.000000000000000000 ) ) ;
#195 = VERTEX_POINT ( 'NONE', #1030 ) ;
#196 = CIRCLE ( 'NONE', #386, 4.000000000000000000 ) ;
#197 = EDGE_CURVE ( 'NONE', #202, #669, #584, .T. ) ;
#198 = CYLINDRICAL_SURFACE ( 'NONE', #35, 1.600000000000000533 ) ;
#199 = CARTESIAN_POINT ( 'NONE',  ( -0.08822805999999651372, -6.999999999999998224, 0.000000000000000000 ) ) ;
#200 = EDGE_LOOP ( 'NONE', ( #232, #396 ) ) ;
#201 = DIRECTION ( 'NONE',  ( 0.000000000000000000, 0.000000000000000000, -1.000000000000000000 ) ) ;
#202 = VERTEX_POINT ( 'NONE', #873 ) ;
#203 = AXIS2_PLACEMENT_3D ( 'NONE', #427, #142, #497 ) ;
#204 = VECTOR ( 'NONE', #956, 1000.000000000000000 ) ;
#205 = DIRECTION ( 'NONE',  ( 0.000000000000000000, 0.000000000000000000, -1.000000000000000000 ) ) ;
#206 = VERTEX_POINT ( 'NONE', #604 ) ;
#207 = CARTESIAN_POINT ( 'NONE',  ( -0.08822805999999651372, -6.999999999999998224, 0.000000000000000000 ) ) ;
#208 = ORIENTED_EDGE ( 'NONE', *, *, #481, .T. ) ;
#209 = VERTEX_POINT ( 'NONE', #946 ) ;
#210 = LOCAL_TIME ( 10, 11, 28.00000000000000000, #414 ) ;
#211 = ADVANCED_FACE ( 'NONE', ( #417 ), #753, .T. ) ;
#212 = DIRECTION ( 'NONE',  ( 1.580613645536956068E-16, -1.000000000000000000, 0.000000000000000000 ) ) ;
#213 = AXIS2_PLACEMENT_3D ( 'NONE', #20, #984, #201 ) ;
#214 = AXIS2_PLACEMENT_3D ( 'NONE', #281, #880, #898 ) ;
#215 = AXIS2_PLACEMENT_3D ( 'NONE', #365, #1082, #283 ) ;
#216 = EDGE_LOOP ( 'NONE', ( #1075, #255, #728, #631, #409, #120, #145, #277 ) ) ;
#217 = DIRECTION ( 'NONE',  ( -1.000000000000000000, 0.000000000000000000, 0.000000000000000000 ) ) ;
#218 = EDGE_CURVE ( 'NONE', #923, #301, #146, .T. ) ;
#219 = DIRECTION ( 'NONE',  ( 0.000000000000000000, 1.000000000000000000, 0.000000000000000000 ) ) ;
#220 = ORIENTED_EDGE ( 'NONE', *, *, #407, .T. ) ;
#221 = DIRECTION ( 'NONE',  ( 0.3656594738826723923, -0.9307487035499147909, 0.000000000000000000 ) ) ;
#222 = EDGE_CURVE ( 'NONE', #843, #458, #1125, .T. ) ;
#223 = CYLINDRICAL_SURFACE ( 'NONE', #1130, 4.000000000000000888 ) ;
#224 = VERTEX_POINT ( 'NONE', #431 ) ;
#225 = DIRECTION ( 'NONE',  ( -1.000000000000000000, -1.580613645536955821E-16, 0.000000000000000000 ) ) ;
#226 = CC_DESIGN_APPROVAL ( #771, ( #721 ) ) ;
#227 = ADVANCED_FACE ( 'NONE', ( #778 ), #961, .T. ) ;
#228 = CARTESIAN_POINT ( 'NONE',  ( -0.08822805999999651372, -6.999999999999998224, 0.000000000000000000 ) ) ;
#229 = AXIS2_PLACEMENT_3D ( 'NONE', #63, #335, #679 ) ;
#230 = EDGE_LOOP ( 'NONE', ( #979, #284, #12, #1124 ) ) ;
#231 = FACE_OUTER_BOUND ( 'NONE', #297, .T. ) ;
#232 = ORIENTED_EDGE ( 'NONE', *, *, #680, .T. ) ;
#233 = LINE ( 'NONE', #348, #785 ) ;
#234 = CARTESIAN_POINT ( 'NONE',  ( -0.08822805999999651372, -7.000000000000007994, 0.000000000000000000 ) ) ;
#235 = AXIS2_PLACEMENT_3D ( 'NONE', #883, #619, #73 ) ;
#236 = APPROVAL_STATUS ( 'not_yet_approved' ) ;
#237 = EDGE_LOOP ( 'NONE', ( #945, #575, #707, #829 ) ) ;
#238 = DIRECTION ( 'NONE',  ( -0.000000000000000000, -0.000000000000000000, -1.000000000000000000 ) ) ;
#239 = DIRECTION ( 'NONE',  ( -0.000000000000000000, -0.000000000000000000, -1.000000000000000000 ) ) ;
#240 = ADVANCED_FACE ( 'NONE', ( #1044 ), #510, .T. ) ;
#241 = DIRECTION ( 'NONE',  ( 0.000000000000000000, 0.000000000000000000, 1.000000000000000000 ) ) ;
#242 = EDGE_LOOP ( 'NONE', ( #992, #479, #111, #640 ) ) ;
#243 = PERSON_AND_ORGANIZATION_ROLE ( 'creator' ) ;
#244 = ORIENTED_EDGE ( 'NONE', *, *, #1093, .T. ) ;
#245 = CARTESIAN_POINT ( 'NONE',  ( -65.40000000000001990, 98.99999999999997158, 0.000000000000000000 ) ) ;
#246 = LINE ( 'NONE', #1126, #177 ) ;
#247 = VECTOR ( 'NONE', #657, 1000.000000000000000 ) ;
#248 = CARTESIAN_POINT ( 'NONE',  ( -85.40000000000000568, 98.99999999999997158, 4.000000000000000888 ) ) ;
#249 = APPROVAL ( #608, 'UNSPECIFIED' ) ;
#250 = FACE_OUTER_BOUND ( 'NONE', #426, .T. ) ;
#251 = PERSON_AND_ORGANIZATION ( #653, #1053 ) ;
#252 = ORIENTED_EDGE ( 'NONE', *, *, #266, .T. ) ;
#253 = DIRECTION ( 'NONE',  ( -0.000000000000000000, -1.000000000000000000, -0.000000000000000000 ) ) ;
#254 = DIRECTION ( 'NONE',  ( -0.000000000000000000, -0.000000000000000000, -1.000000000000000000 ) ) ;
#255 = ORIENTED_EDGE ( 'NONE', *, *, #999, .T. ) ;
#256 = DIRECTION ( 'NONE',  ( -1.425043548098738260E-16, 1.000000000000000000, 0.000000000000000000 ) ) ;
#257 = FACE_BOUND ( 'NONE', #915, .T. ) ;
#258 = EDGE_CURVE ( 'NONE', #61, #378, #668, .T. ) ;
#259 = PERSON_AND_ORGANIZATION_ROLE ( 'design_owner' ) ;
#260 = FACE_OUTER_BOUND ( 'NONE', #216, .T. ) ;
#261 = CARTESIAN_POINT ( 'NONE',  ( -0.08822805999999651372, -7.000000000000007994, 1.600000000000000533 ) ) ;
#262 = ORIENTED_EDGE ( 'NONE', *, *, #447, .F. ) ;
#263 = CARTESIAN_POINT ( 'NONE',  ( -0.08822805999999651372, 10.00000000000000000, -4.099999999999999645 ) ) ;
#264 = EDGE_LOOP ( 'NONE', ( #824, #483, #1108, #113 ) ) ;
#265 = LOCAL_TIME ( 10, 11, 28.00000000000000000, #1027 ) ;
#266 = EDGE_CURVE ( 'NONE', #675, #603, #666, .T. ) ;
#267 = DIRECTION ( 'NONE',  ( -0.000000000000000000, -1.000000000000000000, -0.000000000000000000 ) ) ;
#268 = LINE ( 'NONE', #845, #398 ) ;
#269 = VERTEX_POINT ( 'NONE', #859 ) ;
#270 = CIRCLE ( 'NONE', #909, 9.999999999999994671 ) ;
#271 = DIRECTION ( 'NONE',  ( 0.000000000000000000, 1.000000000000000000, 0.000000000000000000 ) ) ;
#272 = CARTESIAN_POINT ( 'NONE',  ( -46.05786437626903052, -3.469446951953614189E-15, -12.00000000000000000 ) ) ;
#273 = VECTOR ( 'NONE', #194, 1000.000000000000000 ) ;
#274 = CARTESIAN_POINT ( 'NONE',  ( -85.40000000000001990, 103.0000000000000000, 2.000000000000000000 ) ) ;
#275 = LINE ( 'NONE', #727, #1079 ) ;
#276 = CARTESIAN_POINT ( 'NONE',  ( 5.800000000000001599, -10.00000000000000178, 2.000000000000000000 ) ) ;
#277 = ORIENTED_EDGE ( 'NONE', *, *, #614, .F. ) ;
#278 = CIRCLE ( 'NONE', #581, 4.099999999999999645 ) ;
#279 = VECTOR ( 'NONE', #1047, 1000.000000000000000 ) ;
#280 = LINE ( 'NONE', #15, #67 ) ;
#281 = CARTESIAN_POINT ( 'NONE',  ( -65.40000000000001990, 98.99999999999997158, 0.000000000000000000 ) ) ;
#282 = ORIENTED_EDGE ( 'NONE', *, *, #161, .T. ) ;
#283 = DIRECTION ( 'NONE',  ( 0.000000000000000000, 0.000000000000000000, -1.000000000000000000 ) ) ;
#284 = ORIENTED_EDGE ( 'NONE', *, *, #161, .F. ) ;
#285 = ADVANCED_FACE ( 'NONE', ( #260 ), #1120, .T. ) ;
#286 = CARTESIAN_POINT ( 'NONE',  ( -0.08822805999999651372, -7.000000000000007994, 0.000000000000000000 ) ) ;
#287 = FACE_OUTER_BOUND ( 'NONE', #1035, .T. ) ;
#288 = ORIENTED_EDGE ( 'NONE', *, *, #1101, .T. ) ;
#289 = CARTESIAN_POINT ( 'NONE',  ( -75.40000000000001990, 74.19999999999997442, 2.500000000000000000 ) ) ;
#290 = ORIENTED_EDGE ( 'NONE', *, *, #134, .T. ) ;
#291 = EDGE_CURVE ( 'NONE', #309, #990, #50, .T. ) ;
#292 = AXIS2_PLACEMENT_3D ( 'NONE', #37, #1102, #926 ) ;
#293 = ADVANCED_FACE ( 'NONE', ( #765 ), #1115, .F. ) ;
#294 = DIRECTION ( 'NONE',  ( 0.000000000000000000, -1.000000000000000000, 0.000000000000000000 ) ) ;
#295 = ORIENTED_EDGE ( 'NONE', *, *, #197, .F. ) ;
#296 = LINE ( 'NONE', #1088, #789 ) ;
#297 = EDGE_LOOP ( 'NONE', ( #38, #345, #371, #450 ) ) ;
#298 = EDGE_CURVE ( 'NONE', #14, #1114, #678, .T. ) ;
#299 = CIRCLE ( 'NONE', #929, 9.999999999999994671 ) ;
#300 = DIRECTION ( 'NONE',  ( 0.000000000000000000, 0.000000000000000000, 1.000000000000000000 ) ) ;
#301 = VERTEX_POINT ( 'NONE', #248 ) ;
#302 = DIRECTION ( 'NONE',  ( 1.000000000000000000, 1.580613645536955821E-16, -0.000000000000000000 ) ) ;
#303 = CC_DESIGN_PERSON_AND_ORGANIZATION_ASSIGNMENT ( #251, #259, ( #847 ) ) ;
#304 = PLANE ( 'NONE',  #834 ) ;
#305 = VERTEX_POINT ( 'NONE', #93 ) ;
#306 = CARTESIAN_POINT ( 'NONE',  ( 15.80000000000000071, -10.00000000000000000, -12.00000000000000000 ) ) ;
#307 = VECTOR ( 'NONE', #239, 1000.000000000000000 ) ;
#308 = VECTOR ( 'NONE', #916, 1000.000000000000000 ) ;
#309 = VERTEX_POINT ( 'NONE', #263 ) ;
#310 = CARTESIAN_POINT ( 'NONE',  ( -40.06549201738005195, -15.74036759444158839, -2.500000000000000000 ) ) ;
#311 = DIRECTION ( 'NONE',  ( 1.000000000000000000, 0.000000000000000000, 0.000000000000000000 ) ) ;
#312 = ORIENTED_EDGE ( 'NONE', *, *, #720, .T. ) ;
#313 = AXIS2_PLACEMENT_3D ( 'NONE', #775, #693, #971 ) ;
#314 = CARTESIAN_POINT ( 'NONE',  ( -82.40000000000000568, 98.99999999999997158, -4.000000000000000888 ) ) ;
#315 = EDGE_CURVE ( 'NONE', #931, #552, #530, .T. ) ;
#316 = LINE ( 'NONE', #478, #987 ) ;
#317 = ORIENTED_EDGE ( 'NONE', *, *, #993, .F. ) ;
#318 = DIRECTION ( 'NONE',  ( 0.000000000000000000, -1.000000000000000000, 0.000000000000000000 ) ) ;
#319 = APPROVAL_PERSON_ORGANIZATION ( #354, #771, #425 ) ;
#320 = DIRECTION ( 'NONE',  ( -0.7071067811865486830, -0.7071067811865464625, 0.000000000000000000 ) ) ;
#321 = CIRCLE ( 'NONE', #967, 4.000000000000000000 ) ;
#322 = ORIENTED_EDGE ( 'NONE', *, *, #671, .T. ) ;
#323 = DIRECTION ( 'NONE',  ( 1.000000000000000000, 0.000000000000000000, 0.000000000000000000 ) ) ;
#324 = CARTESIAN_POINT ( 'NONE',  ( -65.40000000000001990, 98.99999999999997158, 0.000000000000000000 ) ) ;
#325 = CALENDAR_DATE ( 2026, 3, 6 ) ;
#326 = VERTEX_POINT ( 'NONE', #513 ) ;
#327 = CARTESIAN_POINT ( 'NONE',  ( 0.000000000000000000, 0.000000000000000000, -2.500000000000000000 ) ) ;
#328 = DIRECTION ( 'NONE',  ( -1.000000000000000000, 0.000000000000000000, 0.000000000000000000 ) ) ;
#329 = VECTOR ( 'NONE', #71, 1000.000000000000000 ) ;
#330 = ORIENTED_EDGE ( 'NONE', *, *, #1011, .T. ) ;
#331 = DATE_TIME_ROLE ( 'classification_date' ) ;
#332 = ORIENTED_EDGE ( 'NONE', *, *, #412, .F. ) ;
#333 = ADVANCED_FACE ( 'NONE', ( #5 ), #964, .T. ) ;
#334 = DIRECTION ( 'NONE',  ( 0.000000000000000000, 1.000000000000000000, 0.000000000000000000 ) ) ;
#335 = DIRECTION ( 'NONE',  ( 1.000000000000000000, 0.000000000000000000, 0.000000000000000000 ) ) ;
#336 = EDGE_CURVE ( 'NONE', #1028, #537, #746, .T. ) ;
#337 = DIRECTION ( 'NONE',  ( -1.425043548098738260E-16, 1.000000000000000000, 0.000000000000000000 ) ) ;
#338 = DIRECTION ( 'NONE',  ( -1.000000000000000000, 0.000000000000000000, 0.000000000000000000 ) ) ;
#339 = APPROVAL_DATE_TIME ( #170, #771 ) ;
#340 = ORIENTED_EDGE ( 'NONE', *, *, #573, .T. ) ;
#341 = FACE_BOUND ( 'NONE', #858, .T. ) ;
#342 = CARTESIAN_POINT ( 'NONE',  ( -85.40000000000001990, 98.99999999999997158, 0.000000000000000000 ) ) ;
#343 = AXIS2_PLACEMENT_3D ( 'NONE', #449, #192, #300 ) ;
#344 = CARTESIAN_POINT ( 'NONE',  ( -65.40000000000001990, 98.99999999999997158, -1.599999999999997646 ) ) ;
#345 = ORIENTED_EDGE ( 'NONE', *, *, #266, .F. ) ;
#346 = EDGE_CURVE ( 'NONE', #149, #384, #278, .T. ) ;
#347 = DATE_AND_TIME ( #958, #24 ) ;
#348 = CARTESIAN_POINT ( 'NONE',  ( -65.40000000000001990, 98.99999999999997158, -4.100000000000001421 ) ) ;
#349 = LINE ( 'NONE', #591, #524 ) ;
#350 = FACE_OUTER_BOUND ( 'NONE', #556, .T. ) ;
#351 = CARTESIAN_POINT ( 'NONE',  ( -0.08822805999999651372, -7.000000000000007994, 1.600000000000000533 ) ) ;
#352 = EDGE_CURVE ( 'NONE', #1140, #1057, #445, .T. ) ;
#353 = VECTOR ( 'NONE', #593, 1000.000000000000000 ) ;
#354 = PERSON_AND_ORGANIZATION ( #653, #1053 ) ;
#355 = CARTESIAN_POINT ( 'NONE',  ( -0.08822805999999602800, -6.999999999999998224, 4.000000000000000000 ) ) ;
#356 = CARTESIAN_POINT ( 'NONE',  ( -85.40000000000000568, 98.99999999999997158, 0.000000000000000000 ) ) ;
#357 = ORIENTED_EDGE ( 'NONE', *, *, #689, .F. ) ;
#358 = DIRECTION ( 'NONE',  ( 0.000000000000000000, -1.000000000000000000, 0.000000000000000000 ) ) ;
#359 = CARTESIAN_POINT ( 'NONE',  ( -82.40000000000000568, 98.99999999999997158, 0.000000000000000000 ) ) ;
#360 = CC_DESIGN_SECURITY_CLASSIFICATION ( #960, ( #721 ) ) ;
#361 = ADVANCED_FACE ( 'NONE', ( #525 ), #862, .F. ) ;
#362 = DIRECTION ( 'NONE',  ( 0.000000000000000000, 0.000000000000000000, 1.000000000000000000 ) ) ;
#363 = LINE ( 'NONE', #467, #500 ) ;
#364 = AXIS2_PLACEMENT_3D ( 'NONE', #580, #928, #53 ) ;
#365 = CARTESIAN_POINT ( 'NONE',  ( 5.800000000000001599, 0.000000000000000000, -2.000000000000000000 ) ) ;
#366 = ORIENTED_EDGE ( 'NONE', *, *, #368, .F. ) ;
#367 = AXIS2_PLACEMENT_3D ( 'NONE', #551, #112, #465 ) ;
#368 = EDGE_CURVE ( 'NONE', #995, #206, #917, .T. ) ;
#369 = CARTESIAN_POINT ( 'NONE',  ( 5.800000000000001599, -10.00000000000000178, -2.000000000000000000 ) ) ;
#370 = FACE_OUTER_BOUND ( 'NONE', #1005, .T. ) ;
#371 = ORIENTED_EDGE ( 'NONE', *, *, #470, .T. ) ;
#372 = CARTESIAN_POINT ( 'NONE',  ( -75.40000000000000568, -1.191782688734864915E-14, -12.00000000000000000 ) ) ;
#373 = ORIENTED_EDGE ( 'NONE', *, *, #890, .T. ) ;
#374 = VECTOR ( 'NONE', #1109, 1000.000000000000000 ) ;
#375 = DIRECTION ( 'NONE',  ( -0.000000000000000000, 1.000000000000000000, -0.000000000000000000 ) ) ;
#376 = CARTESIAN_POINT ( 'NONE',  ( -50.20000000000000284, -10.00000000000000888, -12.00000000000000000 ) ) ;
#377 = EDGE_CURVE ( 'NONE', #1142, #378, #151, .T. ) ;
#378 = VERTEX_POINT ( 'NONE', #344 ) ;
#379 = DIRECTION ( 'NONE',  ( -1.000000000000000000, -1.734723475976807094E-16, 0.000000000000000000 ) ) ;
#380 = EDGE_LOOP ( 'NONE', ( #1063, #684, #854, #463 ) ) ;
#381 = DIRECTION ( 'NONE',  ( -1.000000000000000000, -0.000000000000000000, -0.000000000000000000 ) ) ;
#382 = ORIENTED_EDGE ( 'NONE', *, *, #486, .T. ) ;
#383 = FACE_OUTER_BOUND ( 'NONE', #400, .T. ) ;
#384 = VERTEX_POINT ( 'NONE', #1122 ) ;
#385 = EDGE_CURVE ( 'NONE', #781, #650, #687, .T. ) ;
#386 = AXIS2_PLACEMENT_3D ( 'NONE', #228, #1003, #46 ) ;
#387 = FACE_OUTER_BOUND ( 'NONE', #453, .T. ) ;
#388 = ORIENTED_EDGE ( 'NONE', *, *, #1072, .T. ) ;
#389 = DIRECTION ( 'NONE',  ( 1.580613645536956068E-16, -1.000000000000000000, 0.000000000000000000 ) ) ;
#390 = ADVANCED_FACE ( 'NONE', ( #350 ), #1038, .F. ) ;
#391 = AXIS2_PLACEMENT_3D ( 'NONE', #1131, #503, #690 ) ;
#392 = VECTOR ( 'NONE', #375, 1000.000000000000000 ) ;
#393 = CARTESIAN_POINT ( 'NONE',  ( -75.40000000000000568, 29.34213562373104978, 12.00000000000000000 ) ) ;
#394 = ORIENTED_EDGE ( 'NONE', *, *, #108, .T. ) ;
#395 = DIRECTION ( 'NONE',  ( 0.000000000000000000, 0.000000000000000000, 1.000000000000000000 ) ) ;
#396 = ORIENTED_EDGE ( 'NONE', *, *, #76, .T. ) ;
#397 = CYLINDRICAL_SURFACE ( 'NONE', #44, 1.600000000000000533 ) ;
#398 = VECTOR ( 'NONE', #759, 1000.000000000000000 ) ;
#399 = CIRCLE ( 'NONE', #59, 9.999999999999994671 ) ;
#400 = EDGE_LOOP ( 'NONE', ( #92, #976, #957, #836 ) ) ;
#401 = EDGE_CURVE ( 'NONE', #384, #149, #568, .T. ) ;
#402 = DIRECTION ( 'NONE',  ( 0.000000000000000000, 1.000000000000000000, 0.000000000000000000 ) ) ;
#403 = CARTESIAN_POINT ( 'NONE',  ( -75.40000000000001990, 103.0000000000000000, 12.00000000000000000 ) ) ;
#404 = EDGE_LOOP ( 'NONE', ( #626, #611, #220, #589 ) ) ;
#405 = VECTOR ( 'NONE', #156, 1000.000000000000000 ) ;
#406 = CARTESIAN_POINT ( 'NONE',  ( -30.10000000000007958, -30.09999999999998721, 12.00000000000000000 ) ) ;
#407 = EDGE_CURVE ( 'NONE', #953, #70, #811, .T. ) ;
#408 = DIRECTION ( 'NONE',  ( -1.000000000000000000, -1.314184451497581013E-16, 0.000000000000000000 ) ) ;
#409 = ORIENTED_EDGE ( 'NONE', *, *, #774, .F. ) ;
#410 = DIRECTION ( 'NONE',  ( 0.000000000000000000, 0.000000000000000000, -1.000000000000000000 ) ) ;
#411 = CC_DESIGN_APPROVAL ( #249, ( #455 ) ) ;
#412 = EDGE_CURVE ( 'NONE', #269, #6, #429, .T. ) ;
#413 = CIRCLE ( 'NONE', #229, 1.599999999999997646 ) ;
#414 = COORDINATED_UNIVERSAL_TIME_OFFSET ( 5, 0, .BEHIND. ) ;
#415 = CIRCLE ( 'NONE', #102, 4.000000000000000888 ) ;
#416 = ORIENTED_EDGE ( 'NONE', *, *, #632, .F. ) ;
#417 = FACE_OUTER_BOUND ( 'NONE', #404, .T. ) ;
#418 = CARTESIAN_POINT ( 'NONE',  ( 0.000000000000000000, 103.0000000000000000, 2.000000000000000000 ) ) ;
#419 = PERSON_AND_ORGANIZATION ( #653, #1053 ) ;
#420 = EDGE_LOOP ( 'NONE', ( #1097, #1083 ) ) ;
#421 = CARTESIAN_POINT ( 'NONE',  ( -75.40000000000001990, 112.9999999999999858, -2.000000000000000000 ) ) ;
#422 = CARTESIAN_POINT ( 'NONE',  ( 15.80000000000000071, -10.00000000000000000, 2.000000000000000000 ) ) ;
#423 = DIRECTION ( 'NONE',  ( 1.000000000000000000, 0.000000000000000000, 0.000000000000000000 ) ) ;
#424 = ORIENTED_EDGE ( 'NONE', *, *, #813, .F. ) ;
#425 = APPROVAL_ROLE ( '' ) ;
#426 = EDGE_LOOP ( 'NONE', ( #897, #710, #496, #388, #579, #288, #502, #155, #1123, #322 ) ) ;
#427 = CARTESIAN_POINT ( 'NONE',  ( 0.000000000000000000, 0.000000000000000000, 12.00000000000000000 ) ) ;
#428 = CARTESIAN_POINT ( 'NONE',  ( 15.80000000000000071, 1.322618543079141296E-15, -12.00000000000000000 ) ) ;
#429 = LINE ( 'NONE', #876, #109 ) ;
#430 = CARTESIAN_POINT ( 'NONE',  ( -85.40000000000001990, 112.9999999999999858, 12.00000000000000000 ) ) ;
#431 = CARTESIAN_POINT ( 'NONE',  ( -0.08822805999999602800, -10.00000000000000178, 4.000000000000000000 ) ) ;
#432 = DIRECTION ( 'NONE',  ( 0.7071067811865465735, -0.7071067811865484609, 0.000000000000000000 ) ) ;
#433 = VECTOR ( 'NONE', #487, 1000.000000000000000 ) ;
#434 = EDGE_CURVE ( 'NONE', #899, #184, #519, .T. ) ;
#435 = CARTESIAN_POINT ( 'NONE',  ( -46.05786437626903052, -3.469446951953614189E-15, 12.00000000000000000 ) ) ;
#436 = DIRECTION ( 'NONE',  ( -1.580613645536955821E-16, 1.000000000000000000, 0.000000000000000000 ) ) ;
#437 = DATE_AND_TIME ( #325, #907 ) ;
#438 = FACE_OUTER_BOUND ( 'NONE', #949, .T. ) ;
#439 = LINE ( 'NONE', #428, #702 ) ;
#440 = FACE_BOUND ( 'NONE', #200, .T. ) ;
#441 = ORIENTED_EDGE ( 'NONE', *, *, #567, .F. ) ;
#442 = VECTOR ( 'NONE', #767, 1000.000000000000000 ) ;
#443 = LINE ( 'NONE', #1064, #977 ) ;
#444 = CARTESIAN_POINT ( 'NONE',  ( 15.80000000000000071, -10.00000000000000000, -12.00000000000000000 ) ) ;
#445 = LINE ( 'NONE', #1056, #160 ) ;
#446 = ORIENTED_EDGE ( 'NONE', *, *, #40, .T. ) ;
#447 = EDGE_CURVE ( 'NONE', #698, #26, #998, .T. ) ;
#448 = DIRECTION ( 'NONE',  ( 1.000000000000000000, -0.000000000000000000, -0.000000000000000000 ) ) ;
#449 = CARTESIAN_POINT ( 'NONE',  ( 15.80000000000000071, 1.322618543079141296E-15, -12.00000000000000000 ) ) ;
#450 = ORIENTED_EDGE ( 'NONE', *, *, #782, .F. ) ;
#451 = VECTOR ( 'NONE', #133, 1000.000000000000000 ) ;
#452 = FACE_OUTER_BOUND ( 'NONE', #98, .T. ) ;
#453 = EDGE_LOOP ( 'NONE', ( #357, #752, #1009, #965 ) ) ;
#454 = AXIS2_PLACEMENT_3D ( 'NONE', #1010, #217, #490 ) ;
#455 = PRODUCT_DEFINITION ( 'UNKNOWN', '', #721, #1 ) ;
#456 = DIRECTION ( 'NONE',  ( 1.000000000000000000, 0.000000000000000000, 0.000000000000000000 ) ) ;
#457 = PLANE ( 'NONE',  #755 ) ;
#458 = VERTEX_POINT ( 'NONE', #435 ) ;
#459 = CARTESIAN_POINT ( 'NONE',  ( 15.80000000000000071, 1.322618543079141296E-15, -2.000000000000000000 ) ) ;
#460 = ORIENTED_EDGE ( 'NONE', *, *, #336, .T. ) ;
#461 = AXIS2_PLACEMENT_3D ( 'NONE', #175, #256, #606 ) ;
#462 = CYLINDRICAL_SURFACE ( 'NONE', #871, 4.100000000000001421 ) ;
#463 = ORIENTED_EDGE ( 'NONE', *, *, #95, .F. ) ;
#464 = ADVANCED_FACE ( 'NONE', ( #780, #440 ), #790, .T. ) ;
#465 = DIRECTION ( 'NONE',  ( 0.000000000000000000, 0.000000000000000000, 1.000000000000000000 ) ) ;
#466 = ORIENTED_EDGE ( 'NONE', *, *, #258, .T. ) ;
#467 = CARTESIAN_POINT ( 'NONE',  ( 5.800000000000001599, 1.322618543079141296E-15, 12.00000000000000000 ) ) ;
#468 = ORIENTED_EDGE ( 'NONE', *, *, #999, .F. ) ;
#469 = CARTESIAN_POINT ( 'NONE',  ( -65.40000000000001990, 98.99999999999997158, 4.100000000000001421 ) ) ;
#470 = EDGE_CURVE ( 'NONE', #675, #21, #296, .T. ) ;
#471 = AXIS2_PLACEMENT_3D ( 'NONE', #922, #219, #51 ) ;
#472 = VECTOR ( 'NONE', #137, 1000.000000000000000 ) ;
#473 = EDGE_LOOP ( 'NONE', ( #737, #997 ) ) ;
#474 = CYLINDRICAL_SURFACE ( 'NONE', #215, 10.00000000000000000 ) ;
#475 = EDGE_CURVE ( 'NONE', #995, #70, #189, .T. ) ;
#476 = AXIS2_PLACEMENT_3D ( 'NONE', #535, #456, #885 ) ;
#477 = VECTOR ( 'NONE', #338, 1000.000000000000000 ) ;
#478 = CARTESIAN_POINT ( 'NONE',  ( 15.80000000000000071, -10.00000000000000000, -12.00000000000000000 ) ) ;
#479 = ORIENTED_EDGE ( 'NONE', *, *, #95, .T. ) ;
#480 = CARTESIAN_POINT ( 'NONE',  ( -0.08822805999999602800, -6.999999999999998224, 4.000000000000000000 ) ) ;
#481 = EDGE_CURVE ( 'NONE', #166, #488, #905, .T. ) ;
#482 = DIRECTION ( 'NONE',  ( 0.000000000000000000, 0.000000000000000000, 1.000000000000000000 ) ) ;
#483 = ORIENTED_EDGE ( 'NONE', *, *, #19, .F. ) ;
#484 = CARTESIAN_POINT ( 'NONE',  ( -40.06549201738005195, -15.74036759444158839, 2.500000000000000000 ) ) ;
#485 = VECTOR ( 'NONE', #722, 1000.000000000000000 ) ;
#486 = EDGE_CURVE ( 'NONE', #326, #645, #717, .T. ) ;
#487 = DIRECTION ( 'NONE',  ( -0.000000000000000000, -0.000000000000000000, -1.000000000000000000 ) ) ;
#488 = VERTEX_POINT ( 'NONE', #706 ) ;
#489 = EDGE_CURVE ( 'NONE', #305, #698, #557, .T. ) ;
#490 = DIRECTION ( 'NONE',  ( 0.000000000000000000, 0.000000000000000000, 1.000000000000000000 ) ) ;
#491 = DIRECTION ( 'NONE',  ( 0.000000000000000000, 1.000000000000000000, 0.000000000000000000 ) ) ;
#492 = ORIENTED_EDGE ( 'NONE', *, *, #554, .T. ) ;
#493 = AXIS2_PLACEMENT_3D ( 'NONE', #1060, #696, #621 ) ;
#494 = DIRECTION ( 'NONE',  ( 0.000000000000000000, 1.000000000000000000, 0.000000000000000000 ) ) ;
#495 = EDGE_CURVE ( 'NONE', #797, #1140, #756, .T. ) ;
#496 = ORIENTED_EDGE ( 'NONE', *, *, #735, .F. ) ;
#497 = DIRECTION ( 'NONE',  ( 1.000000000000000000, 0.000000000000000000, 0.000000000000000000 ) ) ;
#498 = LINE ( 'NONE', #484, #308 ) ;
#499 = ADVANCED_FACE ( 'NONE', ( #1002, #718 ), #116, .F. ) ;
#500 = VECTOR ( 'NONE', #704, 1000.000000000000000 ) ;
#501 = CALENDAR_DATE ( 2026, 3, 6 ) ;
#502 = ORIENTED_EDGE ( 'NONE', *, *, #792, .F. ) ;
#503 = DIRECTION ( 'NONE',  ( 0.7071067811865485719, 0.7071067811865465735, -0.000000000000000000 ) ) ;
#504 = DIRECTION ( 'NONE',  ( 0.000000000000000000, 0.000000000000000000, -1.000000000000000000 ) ) ;
#505 = ORIENTED_EDGE ( 'NONE', *, *, #1011, .F. ) ;
#506 = DIRECTION ( 'NONE',  ( -0.000000000000000000, 1.000000000000000000, -0.000000000000000000 ) ) ;
#507 = DIRECTION ( 'NONE',  ( 0.000000000000000000, 0.000000000000000000, 1.000000000000000000 ) ) ;
#508 = ADVANCED_BREP_SHAPE_REPRESENTATION ( 'Link_90deg', ( #178, #842 ), #943 ) ;
#509 = ORIENTED_EDGE ( 'NONE', *, *, #865, .T. ) ;
#510 = CYLINDRICAL_SURFACE ( 'NONE', #1087, 4.099999999999999645 ) ;
#511 = CARTESIAN_POINT ( 'NONE',  ( -23.02893218813457921, -23.02893218813451526, -12.00000000000000000 ) ) ;
#512 = ORIENTED_EDGE ( 'NONE', *, *, #941, .T. ) ;
#513 = CARTESIAN_POINT ( 'NONE',  ( -0.08822805999999651372, -6.999999999999998224, -4.000000000000000000 ) ) ;
#514 = LINE ( 'NONE', #430, #353 ) ;
#515 = PERSON_AND_ORGANIZATION_ROLE ( 'creator' ) ;
#516 = ADVANCED_FACE ( 'NONE', ( #711 ), #1076, .T. ) ;
#517 = DIRECTION ( 'NONE',  ( 0.000000000000000000, 0.000000000000000000, 1.000000000000000000 ) ) ;
#518 = LINE ( 'NONE', #84, #1040 ) ;
#519 = LINE ( 'NONE', #1128, #68 ) ;
#520 = CARTESIAN_POINT ( 'NONE',  ( -0.08822805999999633331, 10.00000000000000000, -1.600000000000000533 ) ) ;
#521 = PERSON_AND_ORGANIZATION ( #653, #1053 ) ;
#522 = PLANE ( 'NONE',  #952 ) ;
#523 = DIRECTION ( 'NONE',  ( 0.000000000000000000, 0.000000000000000000, -1.000000000000000000 ) ) ;
#524 = VECTOR ( 'NONE', #969, 1000.000000000000000 ) ;
#525 = FACE_OUTER_BOUND ( 'NONE', #264, .T. ) ;
#526 = ORIENTED_EDGE ( 'NONE', *, *, #1113, .T. ) ;
#527 = LINE ( 'NONE', #878, #762 ) ;
#528 = DIRECTION ( 'NONE',  ( -0.000000000000000000, -0.000000000000000000, -1.000000000000000000 ) ) ;
#529 = APPLICATION_CONTEXT ( 'configuration controlled 3d designs of mechanical parts and assemblies' ) ;
#530 = LINE ( 'NONE', #1046, #654 ) ;
#531 = ORIENTED_EDGE ( 'NONE', *, *, #583, .T. ) ;
#532 = ADVANCED_FACE ( 'NONE', ( #452 ), #474, .T. ) ;
#533 = UNCERTAINTY_MEASURE_WITH_UNIT (LENGTH_MEASURE( 1.000000000000000082E-05 ), #569, 'distance_accuracy_value', 'NONE');
#534 = AXIS2_PLACEMENT_3D ( 'NONE', #1141, #358, #912 ) ;
#535 = CARTESIAN_POINT ( 'NONE',  ( -75.40000000000000568, 98.99999999999997158, 0.000000000000000000 ) ) ;
#536 = CARTESIAN_POINT ( 'NONE',  ( -85.40000000000001990, 112.9999999999999858, -2.000000000000000000 ) ) ;
#537 = VERTEX_POINT ( 'NONE', #896 ) ;
#538 = DIRECTION ( 'NONE',  ( -1.000000000000000000, -0.000000000000000000, -0.000000000000000000 ) ) ;
#539 = ORIENTED_EDGE ( 'NONE', *, *, #401, .F. ) ;
#540 = ADVANCED_FACE ( 'NONE', ( #106 ), #31, .T. ) ;
#541 = LINE ( 'NONE', #708, #1137 ) ;
#542 = LINE ( 'NONE', #639, #925 ) ;
#543 = ORIENTED_EDGE ( 'NONE', *, *, #648, .T. ) ;
#544 = CIRCLE ( 'NONE', #662, 4.000000000000000000 ) ;
#545 = DIRECTION ( 'NONE',  ( -0.000000000000000000, -0.000000000000000000, -1.000000000000000000 ) ) ;
#546 = ORIENTED_EDGE ( 'NONE', *, *, #1135, .T. ) ;
#547 = AXIS2_PLACEMENT_3D ( 'NONE', #562, #121, #821 ) ;
#548 = EDGE_CURVE ( 'NONE', #682, #301, #415, .T. ) ;
#549 = CARTESIAN_POINT ( 'NONE',  ( -82.40000000000000568, 98.99999999999997158, 4.000000000000000888 ) ) ;
#550 = ORIENTED_EDGE ( 'NONE', *, *, #108, .F. ) ;
#551 = CARTESIAN_POINT ( 'NONE',  ( -0.08822805999999651372, 10.00000000000000000, 0.000000000000000000 ) ) ;
#552 = VERTEX_POINT ( 'NONE', #99 ) ;
#553 = AXIS2_PLACEMENT_3D ( 'NONE', #77, #844, #685 ) ;
#554 = EDGE_CURVE ( 'NONE', #1071, #552, #630, .T. ) ;
#555 = CARTESIAN_POINT ( 'NONE',  ( -0.08822805999999651372, -10.00000000000000178, 0.000000000000000000 ) ) ;
#556 = EDGE_LOOP ( 'NONE', ( #763, #340, #208, #819, #1077, #312, #190, #136 ) ) ;
#557 = LINE ( 'NONE', #459, #911 ) ;
#558 = ORIENTED_EDGE ( 'NONE', *, *, #346, .F. ) ;
#559 = LOCAL_TIME ( 10, 11, 28.00000000000000000, #144 ) ;
#560 = FACE_OUTER_BOUND ( 'NONE', #242, .T. ) ;
#561 = ORIENTED_EDGE ( 'NONE', *, *, #27, .T. ) ;
#562 = CARTESIAN_POINT ( 'NONE',  ( 0.000000000000000000, 0.000000000000000000, 2.500000000000000000 ) ) ;
#563 = AXIS2_PLACEMENT_3D ( 'NONE', #207, #586, #410 ) ;
#564 = APPLICATION_PROTOCOL_DEFINITION ( 'international standard', 'config_control_design', 1994, #529 ) ;
#565 = ORIENTED_EDGE ( 'NONE', *, *, #470, .F. ) ;
#566 = FACE_OUTER_BOUND ( 'NONE', #188, .T. ) ;
#567 = EDGE_CURVE ( 'NONE', #770, #94, #729, .T. ) ;
#568 = CIRCLE ( 'NONE', #313, 4.099999999999999645 ) ;
#569 =( LENGTH_UNIT ( ) NAMED_UNIT ( * ) SI_UNIT ( .MILLI., .METRE. ) );
#570 = ORIENTED_EDGE ( 'NONE', *, *, #1078, .F. ) ;
#571 = DIRECTION ( 'NONE',  ( 0.000000000000000000, 0.000000000000000000, 1.000000000000000000 ) ) ;
#572 = CC_DESIGN_PERSON_AND_ORGANIZATION_ASSIGNMENT ( #75, #760, ( #721 ) ) ;
#573 = EDGE_CURVE ( 'NONE', #1071, #166, #636, .T. ) ;
#574 = CARTESIAN_POINT ( 'NONE',  ( -75.40000000000001990, 103.0000000000000000, -2.000000000000000000 ) ) ;
#575 = ORIENTED_EDGE ( 'NONE', *, *, #291, .F. ) ;
#576 = CARTESIAN_POINT ( 'NONE',  ( -23.02893218813457921, -23.02893218813451526, 12.00000000000000000 ) ) ;
#577 = CARTESIAN_POINT ( 'NONE',  ( 5.800000000000001599, -10.00000000000000178, 12.00000000000000000 ) ) ;
#578 = EDGE_CURVE ( 'NONE', #650, #1103, #1006, .T. ) ;
#579 = ORIENTED_EDGE ( 'NONE', *, *, #481, .F. ) ;
#580 = CARTESIAN_POINT ( 'NONE',  ( 0.000000000000000000, 103.0000000000000000, -2.000000000000000000 ) ) ;
#581 = AXIS2_PLACEMENT_3D ( 'NONE', #855, #85, #796 ) ;
#582 = ORIENTED_EDGE ( 'NONE', *, *, #735, .T. ) ;
#583 = EDGE_CURVE ( 'NONE', #195, #6, #1058, .T. ) ;
#584 = LINE ( 'NONE', #57, #879 ) ;
#585 = VECTOR ( 'NONE', #212, 1000.000000000000000 ) ;
#586 = DIRECTION ( 'NONE',  ( -0.000000000000000000, -1.000000000000000000, -0.000000000000000000 ) ) ;
#587 = APPLICATION_CONTEXT ( 'configuration controlled 3d designs of mechanical parts and assemblies' ) ;
#588 = COORDINATED_UNIVERSAL_TIME_OFFSET ( 5, 0, .BEHIND. ) ;
#589 = ORIENTED_EDGE ( 'NONE', *, *, #475, .F. ) ;
#590 = CARTESIAN_POINT ( 'NONE',  ( -82.40000000000000568, 98.99999999999997158, 4.000000000000000888 ) ) ;
#591 = CARTESIAN_POINT ( 'NONE',  ( -12.42233047033634818, -12.42233047033631443, 2.500000000000000000 ) ) ;
#592 = CARTESIAN_POINT ( 'NONE',  ( -85.40000000000001990, 98.99999999999997158, -1.599999999999997646 ) ) ;
#593 = DIRECTION ( 'NONE',  ( -0.000000000000000000, -0.000000000000000000, -1.000000000000000000 ) ) ;
#594 = ADVANCED_FACE ( 'NONE', ( #383 ), #996, .F. ) ;
#595 = APPROVAL_ROLE ( '' ) ;
#596 = AXIS2_PLACEMENT_3D ( 'NONE', #324, #667, #830 ) ;
#597 = VERTEX_POINT ( 'NONE', #314 ) ;
#598 = DIRECTION ( 'NONE',  ( 0.000000000000000000, 0.000000000000000000, -1.000000000000000000 ) ) ;
#599 = LINE ( 'NONE', #147, #846 ) ;
#600 = CARTESIAN_POINT ( 'NONE',  ( 0.000000000000000000, 0.000000000000000000, -12.00000000000000000 ) ) ;
#601 = ORIENTED_EDGE ( 'NONE', *, *, #1106, .F. ) ;
#602 = ADVANCED_FACE ( 'NONE', ( #749, #833 ), #140, .T. ) ;
#603 = VERTEX_POINT ( 'NONE', #920 ) ;
#604 = CARTESIAN_POINT ( 'NONE',  ( -65.40000000000001990, 98.99999999999997158, -4.100000000000001421 ) ) ;
#605 = FACE_OUTER_BOUND ( 'NONE', #927, .T. ) ;
#606 = DIRECTION ( 'NONE',  ( -1.000000000000000000, -1.425043548098738260E-16, 0.000000000000000000 ) ) ;
#607 = PLANE ( 'NONE',  #764 ) ;
#608 = APPROVAL_STATUS ( 'not_yet_approved' ) ;
#609 = CARTESIAN_POINT ( 'NONE',  ( -23.02893218813457921, -23.02893218813451526, -2.500000000000000000 ) ) ;
#610 = CARTESIAN_POINT ( 'NONE',  ( -82.40000000000000568, 98.99999999999997158, 0.000000000000000000 ) ) ;
#611 = ORIENTED_EDGE ( 'NONE', *, *, #181, .T. ) ;
#612 = DIRECTION ( 'NONE',  ( -0.7071067811865464625, 0.7071067811865486830, 0.000000000000000000 ) ) ;
#613 = ORIENTED_EDGE ( 'NONE', *, *, #680, .F. ) ;
#614 = EDGE_CURVE ( 'NONE', #1057, #184, #1104, .T. ) ;
#615 = DIRECTION ( 'NONE',  ( 0.000000000000000000, 0.000000000000000000, -1.000000000000000000 ) ) ;
#616 = CARTESIAN_POINT ( 'NONE',  ( -75.40000000000001990, 0.000000000000000000, -2.500000000000000000 ) ) ;
#617 = VECTOR ( 'NONE', #1095, 1000.000000000000000 ) ;
#618 = ORIENTED_EDGE ( 'NONE', *, *, #638, .F. ) ;
#619 = DIRECTION ( 'NONE',  ( 1.000000000000000000, 0.000000000000000000, 0.000000000000000000 ) ) ;
#620 = ORIENTED_EDGE ( 'NONE', *, *, #495, .T. ) ;
#621 = DIRECTION ( 'NONE',  ( 0.000000000000000000, 0.000000000000000000, 1.000000000000000000 ) ) ;
#622 = PLANE ( 'NONE',  #343 ) ;
#623 = PRODUCT_RELATED_PRODUCT_CATEGORY ( 'detail', '', ( #847 ) ) ;
#624 = ORIENTED_EDGE ( 'NONE', *, *, #434, .F. ) ;
#625 = CARTESIAN_POINT ( 'NONE',  ( -85.40000000000000568, -1.349844053288560507E-14, 12.00000000000000000 ) ) ;
#626 = ORIENTED_EDGE ( 'NONE', *, *, #652, .F. ) ;
#627 = FACE_BOUND ( 'NONE', #473, .T. ) ;
#628 = CARTESIAN_POINT ( 'NONE',  ( -65.40000000000001990, 98.99999999999997158, 0.000000000000000000 ) ) ;
#629 = ORIENTED_EDGE ( 'NONE', *, *, #54, .F. ) ;
#630 = LINE ( 'NONE', #803, #801 ) ;
#631 = ORIENTED_EDGE ( 'NONE', *, *, #222, .F. ) ;
#632 = EDGE_CURVE ( 'NONE', #770, #202, #498, .T. ) ;
#633 = DIRECTION ( 'NONE',  ( -0.000000000000000000, 1.000000000000000000, -0.000000000000000000 ) ) ;
#634 = CARTESIAN_POINT ( 'NONE',  ( 5.800000000000001599, -1.024250050195969141E-16, 12.00000000000000000 ) ) ;
#635 = ORIENTED_EDGE ( 'NONE', *, *, #890, .F. ) ;
#636 = LINE ( 'NONE', #646, #273 ) ;
#637 = ORIENTED_EDGE ( 'NONE', *, *, #921, .F. ) ;
#638 = EDGE_CURVE ( 'NONE', #94, #669, #924, .T. ) ;
#639 = CARTESIAN_POINT ( 'NONE',  ( 15.80000000000000071, 1.322618543079141296E-15, 12.00000000000000000 ) ) ;
#640 = ORIENTED_EDGE ( 'NONE', *, *, #385, .T. ) ;
#641 = CARTESIAN_POINT ( 'NONE',  ( -85.40000000000000568, 98.99999999999997158, 0.000000000000000000 ) ) ;
#642 = VERTEX_POINT ( 'NONE', #1110 ) ;
#643 = AXIS2_PLACEMENT_3D ( 'NONE', #806, #179, #793 ) ;
#644 = FACE_OUTER_BOUND ( 'NONE', #868, .T. ) ;
#645 = VERTEX_POINT ( 'NONE', #480 ) ;
#646 = CARTESIAN_POINT ( 'NONE',  ( 0.000000000000000000, 103.0000000000000000, -12.00000000000000000 ) ) ;
#647 = EDGE_LOOP ( 'NONE', ( #808, #983, #466, #64 ) ) ;
#648 = EDGE_CURVE ( 'NONE', #1001, #1071, #399, .T. ) ;
#649 = DIRECTION ( 'NONE',  ( 0.000000000000000000, 0.000000000000000000, -1.000000000000000000 ) ) ;
#650 = VERTEX_POINT ( 'NONE', #39 ) ;
#651 = CARTESIAN_POINT ( 'NONE',  ( 5.800000000000001599, -10.00000000000000178, -12.00000000000000000 ) ) ;
#652 = EDGE_CURVE ( 'NONE', #206, #995, #1094, .T. ) ;
#653 = PERSON ( 'UNSPECIFIED', 'UNSPECIFIED', 'UNSPECIFIED', ('UNSPECIFIED'), ('UNSPECIFIED'), ('UNSPECIFIED') ) ;
#654 = VECTOR ( 'NONE', #612, 999.9999999999998863 ) ;
#655 = CARTESIAN_POINT ( 'NONE',  ( -0.08822805999999651372, 10.00000000000000000, 0.000000000000000000 ) ) ;
#656 = ORIENTED_EDGE ( 'NONE', *, *, #761, .T. ) ;
#657 = DIRECTION ( 'NONE',  ( 0.000000000000000000, 0.000000000000000000, 1.000000000000000000 ) ) ;
#658 = ADVANCED_FACE ( 'NONE', ( #231 ), #933, .T. ) ;
#659 = CARTESIAN_POINT ( 'NONE',  ( 0.000000000000000000, 112.9999999999999858, 12.00000000000000000 ) ) ;
#660 = EDGE_LOOP ( 'NONE', ( #416, #570, #1018, #550, #677 ) ) ;
#661 = FACE_OUTER_BOUND ( 'NONE', #380, .T. ) ;
#662 = AXIS2_PLACEMENT_3D ( 'NONE', #555, #294, #994 ) ;
#663 = AXIS2_PLACEMENT_3D ( 'NONE', #610, #328, #1139 ) ;
#664 = ADVANCED_FACE ( 'NONE', ( #566 ), #397, .F. ) ;
#665 = ORIENTED_EDGE ( 'NONE', *, *, #315, .F. ) ;
#666 = LINE ( 'NONE', #609, #405 ) ;
#667 = DIRECTION ( 'NONE',  ( 1.000000000000000000, 0.000000000000000000, 0.000000000000000000 ) ) ;
#668 = CIRCLE ( 'NONE', #16, 1.599999999999997646 ) ;
#669 = VERTEX_POINT ( 'NONE', #143 ) ;
#670 = CIRCLE ( 'NONE', #476, 4.100000000000001421 ) ;
#671 = EDGE_CURVE ( 'NONE', #843, #1114, #34, .T. ) ;
#672 = DIRECTION ( 'NONE',  ( 1.000000000000000000, 0.000000000000000000, 0.000000000000000000 ) ) ;
#673 = DIRECTION ( 'NONE',  ( 0.000000000000000000, 0.000000000000000000, -1.000000000000000000 ) ) ;
#674 = DIRECTION ( 'NONE',  ( -1.000000000000000000, -1.314184451497581013E-16, 0.000000000000000000 ) ) ;
#675 = VERTEX_POINT ( 'NONE', #132 ) ;
#676 = PERSON_AND_ORGANIZATION ( #653, #1053 ) ;
#677 = ORIENTED_EDGE ( 'NONE', *, *, #738, .F. ) ;
#678 = LINE ( 'NONE', #86, #442 ) ;
#679 = DIRECTION ( 'NONE',  ( 0.000000000000000000, 0.000000000000000000, -1.000000000000000000 ) ) ;
#680 = EDGE_CURVE ( 'NONE', #748, #269, #820, .T. ) ;
#681 = DIRECTION ( 'NONE',  ( -1.000000000000000000, -1.425043548098738260E-16, 0.000000000000000000 ) ) ;
#682 = VERTEX_POINT ( 'NONE', #126 ) ;
#683 = AXIS2_PLACEMENT_3D ( 'NONE', #199, #807, #205 ) ;
#684 = ORIENTED_EDGE ( 'NONE', *, *, #573, .F. ) ;
#685 = DIRECTION ( 'NONE',  ( 0.000000000000000000, 0.000000000000000000, 1.000000000000000000 ) ) ;
#686 = LINE ( 'NONE', #800, #42 ) ;
#687 = LINE ( 'NONE', #948, #204 ) ;
#688 = ORIENTED_EDGE ( 'NONE', *, *, #1106, .T. ) ;
#689 = EDGE_CURVE ( 'NONE', #305, #797, #734, .T. ) ;
#690 = DIRECTION ( 'NONE',  ( -0.7071067811865465735, 0.7071067811865485719, 0.000000000000000000 ) ) ;
#691 = CARTESIAN_POINT ( 'NONE',  ( -75.40000000000001990, 112.9999999999999858, 12.00000000000000000 ) ) ;
#692 = VERTEX_POINT ( 'NONE', #1014 ) ;
#693 = DIRECTION ( 'NONE',  ( 0.000000000000000000, 1.000000000000000000, 0.000000000000000000 ) ) ;
#694 = ORIENTED_EDGE ( 'NONE', *, *, #447, .T. ) ;
#695 = EDGE_CURVE ( 'NONE', #224, #642, #321, .T. ) ;
#696 = DIRECTION ( 'NONE',  ( 0.000000000000000000, 1.000000000000000000, 0.000000000000000000 ) ) ;
#697 = DIRECTION ( 'NONE',  ( -0.000000000000000000, -1.000000000000000000, -0.000000000000000000 ) ) ;
#698 = VERTEX_POINT ( 'NONE', #841 ) ;
#699 = CARTESIAN_POINT ( 'NONE',  ( 5.800000000000001599, 1.322618543079141296E-15, 2.000000000000000000 ) ) ;
#700 = EDGE_LOOP ( 'NONE', ( #810, #688 ) ) ;
#701 = APPROVAL ( #236, 'UNSPECIFIED' ) ;
#702 = VECTOR ( 'NONE', #78, 1000.000000000000000 ) ;
#703 = FACE_OUTER_BOUND ( 'NONE', #700, .T. ) ;
#704 = DIRECTION ( 'NONE',  ( -0.000000000000000000, 1.000000000000000000, -0.000000000000000000 ) ) ;
#705 = AXIS2_PLACEMENT_3D ( 'NONE', #725, #991, #25 ) ;
#706 = CARTESIAN_POINT ( 'NONE',  ( -75.40000000000000568, 29.34213562373104978, -12.00000000000000000 ) ) ;
#707 = ORIENTED_EDGE ( 'NONE', *, *, #993, .T. ) ;
#708 = CARTESIAN_POINT ( 'NONE',  ( 0.000000000000000000, 112.9999999999999858, -2.000000000000000000 ) ) ;
#709 = PLANE ( 'NONE',  #214 ) ;
#710 = ORIENTED_EDGE ( 'NONE', *, *, #567, .T. ) ;
#711 = FACE_OUTER_BOUND ( 'NONE', #660, .T. ) ;
#712 = VERTEX_POINT ( 'NONE', #651 ) ;
#713 = CIRCLE ( 'NONE', #493, 1.600000000000000533 ) ;
#714 = CARTESIAN_POINT ( 'NONE',  ( -65.40000000000001990, 98.99999999999997158, 1.599999999999997646 ) ) ;
#715 = LINE ( 'NONE', #1085, #81 ) ;
#716 = ORIENTED_EDGE ( 'NONE', *, *, #486, .F. ) ;
#717 = CIRCLE ( 'NONE', #213, 4.000000000000000000 ) ;
#718 = FACE_OUTER_BOUND ( 'NONE', #802, .T. ) ;
#719 = ORIENTED_EDGE ( 'NONE', *, *, #489, .F. ) ;
#720 = EDGE_CURVE ( 'NONE', #26, #712, #744, .T. ) ;
#721 = PRODUCT_DEFINITION_FORMATION_WITH_SPECIFIED_SOURCE ( 'ANY', '', #847, .NOT_KNOWN. ) ;
#722 = DIRECTION ( 'NONE',  ( 0.000000000000000000, 0.000000000000000000, 1.000000000000000000 ) ) ;
#723 = ORIENTED_EDGE ( 'NONE', *, *, #298, .T. ) ;
#724 = AXIS2_PLACEMENT_3D ( 'NONE', #659, #1008, #736 ) ;
#725 = CARTESIAN_POINT ( 'NONE',  ( -75.40000000000001990, 103.0000000000000000, 2.000000000000000000 ) ) ;
#726 = EDGE_LOOP ( 'NONE', ( #635, #295, #1052, #743 ) ) ;
#727 = CARTESIAN_POINT ( 'NONE',  ( -6.096536162200356395E-31, 3.840992541762029357E-15, -2.500000000000000000 ) ) ;
#728 = ORIENTED_EDGE ( 'NONE', *, *, #980, .T. ) ;
#729 = LINE ( 'NONE', #289, #894 ) ;
#730 = AXIS2_PLACEMENT_3D ( 'NONE', #699, #271, #1032 ) ;
#731 = ADVANCED_FACE ( 'NONE', ( #661 ), #1019, .T. ) ;
#732 = PLANE ( 'NONE',  #724 ) ;
#733 = EDGE_LOOP ( 'NONE', ( #382, #526 ) ) ;
#734 = LINE ( 'NONE', #306, #247 ) ;
#735 = EDGE_CURVE ( 'NONE', #603, #94, #165, .T. ) ;
#736 = DIRECTION ( 'NONE',  ( 0.000000000000000000, -0.000000000000000000, -1.000000000000000000 ) ) ;
#737 = ORIENTED_EDGE ( 'NONE', *, *, #583, .F. ) ;
#738 = EDGE_CURVE ( 'NONE', #202, #1086, #349, .T. ) ;
#739 = DIRECTION ( 'NONE',  ( -0.000000000000000000, 1.000000000000000000, -0.000000000000000000 ) ) ;
#740 = CIRCLE ( 'NONE', #292, 1.599999999999997646 ) ;
#741 = AXIS2_PLACEMENT_3D ( 'NONE', #48, #402, #395 ) ;
#742 = LINE ( 'NONE', #1012, #451 ) ;
#743 = ORIENTED_EDGE ( 'NONE', *, *, #950, .T. ) ;
#744 = LINE ( 'NONE', #1098, #472 ) ;
#745 = EDGE_CURVE ( 'NONE', #537, #797, #518, .T. ) ;
#746 = CIRCLE ( 'NONE', #461, 10.00000000000000000 ) ;
#747 = FACE_OUTER_BOUND ( 'NONE', #1033, .T. ) ;
#748 = VERTEX_POINT ( 'NONE', #261 ) ;
#749 = FACE_OUTER_BOUND ( 'NONE', #420, .T. ) ;
#750 = ADVANCED_FACE ( 'NONE', ( #180 ), #1055, .T. ) ;
#751 = CARTESIAN_POINT ( 'NONE',  ( -75.40000000000000568, 29.34213562373104978, 2.500000000000000000 ) ) ;
#752 = ORIENTED_EDGE ( 'NONE', *, *, #489, .T. ) ;
#753 = CYLINDRICAL_SURFACE ( 'NONE', #553, 4.100000000000001421 ) ;
#754 = DIRECTION ( 'NONE',  ( -0.7071067811865464625, 0.7071067811865486830, 0.000000000000000000 ) ) ;
#755 = AXIS2_PLACEMENT_3D ( 'NONE', #444, #4, #22 ) ;
#756 = CIRCLE ( 'NONE', #118, 10.00000000000000000 ) ;
#757 = EDGE_LOOP ( 'NONE', ( #723, #814, #970, #1022 ) ) ;
#758 = CARTESIAN_POINT ( 'NONE',  ( -0.08822805999999651372, 10.00000000000000000, 0.000000000000000000 ) ) ;
#759 = DIRECTION ( 'NONE',  ( 1.580613645536956068E-16, -1.000000000000000000, 0.000000000000000000 ) ) ;
#760 = PERSON_AND_ORGANIZATION_ROLE ( 'design_supplier' ) ;
#761 = EDGE_CURVE ( 'NONE', #26, #21, #439, .T. ) ;
#762 = VECTOR ( 'NONE', #448, 1000.000000000000000 ) ;
#763 = ORIENTED_EDGE ( 'NONE', *, *, #554, .F. ) ;
#764 = AXIS2_PLACEMENT_3D ( 'NONE', #863, #80, #436 ) ;
#765 = FACE_OUTER_BOUND ( 'NONE', #56, .T. ) ;
#766 = DIRECTION ( 'NONE',  ( 0.000000000000000000, 1.000000000000000000, -0.000000000000000000 ) ) ;
#767 = DIRECTION ( 'NONE',  ( -0.7071067811865465735, 0.7071067811865484609, 0.000000000000000000 ) ) ;
#768 = EDGE_LOOP ( 'NONE', ( #910, #124 ) ) ;
#769 = CALENDAR_DATE ( 2026, 3, 6 ) ;
#770 = VERTEX_POINT ( 'NONE', #773 ) ;
#771 = APPROVAL ( #783, 'UNSPECIFIED' ) ;
#772 = CARTESIAN_POINT ( 'NONE',  ( -0.08822805999999651372, 10.00000000000000000, 0.000000000000000000 ) ) ;
#773 = CARTESIAN_POINT ( 'NONE',  ( -75.40000000000001990, 74.19999999999997442, 2.500000000000000000 ) ) ;
#774 = EDGE_CURVE ( 'NONE', #1103, #843, #268, .T. ) ;
#775 = CARTESIAN_POINT ( 'NONE',  ( -0.08822805999999651372, 0.000000000000000000, 0.000000000000000000 ) ) ;
#776 = CARTESIAN_POINT ( 'NONE',  ( -85.40000000000001990, 103.0000000000000000, 12.00000000000000000 ) ) ;
#777 = CIRCLE ( 'NONE', #798, 1.600000000000000533 ) ;
#778 = FACE_OUTER_BOUND ( 'NONE', #726, .T. ) ;
#779 = CARTESIAN_POINT ( 'NONE',  ( -0.08822805999999651372, 10.00000000000000000, 0.000000000000000000 ) ) ;
#780 = FACE_OUTER_BOUND ( 'NONE', #733, .T. ) ;
#781 = VERTEX_POINT ( 'NONE', #58 ) ;
#782 = EDGE_CURVE ( 'NONE', #488, #21, #786, .T. ) ;
#783 = APPROVAL_STATUS ( 'not_yet_approved' ) ;
#784 = DIRECTION ( 'NONE',  ( -1.000000000000000000, -1.580613645536955821E-16, 0.000000000000000000 ) ) ;
#785 = VECTOR ( 'NONE', #932, 1000.000000000000000 ) ;
#786 = LINE ( 'NONE', #511, #1020 ) ;
#787 = ORIENTED_EDGE ( 'NONE', *, *, #128, .F. ) ;
#788 = VECTOR ( 'NONE', #267, 1000.000000000000000 ) ;
#789 = VECTOR ( 'NONE', #545, 1000.000000000000000 ) ;
#790 = PLANE ( 'NONE',  #534 ) ;
#791 = CARTESIAN_POINT ( 'NONE',  ( -46.05786437626903052, -3.469446951953614189E-15, 2.500000000000000000 ) ) ;
#792 = EDGE_CURVE ( 'NONE', #650, #193, #1116, .T. ) ;
#793 = DIRECTION ( 'NONE',  ( 0.000000000000000000, -0.000000000000000000, 1.000000000000000000 ) ) ;
#794 = CARTESIAN_POINT ( 'NONE',  ( 15.80000000000000071, 1.322618543079141296E-15, -12.00000000000000000 ) ) ;
#795 = ORIENTED_EDGE ( 'NONE', *, *, #197, .T. ) ;
#796 = DIRECTION ( 'NONE',  ( 0.000000000000000000, 0.000000000000000000, 1.000000000000000000 ) ) ;
#797 = VERTEX_POINT ( 'NONE', #422 ) ;
#798 = AXIS2_PLACEMENT_3D ( 'NONE', #655, #831, #123 ) ;
#799 = DIRECTION ( 'NONE',  ( -1.000000000000000000, -1.587229367387319033E-16, 0.000000000000000000 ) ) ;
#800 = CARTESIAN_POINT ( 'NONE',  ( -46.05786437626903052, -3.469446951953614189E-15, 12.00000000000000000 ) ) ;
#801 = VECTOR ( 'NONE', #389, 1000.000000000000000 ) ;
#802 = EDGE_LOOP ( 'NONE', ( #816, #543, #492, #107, #624, #840 ) ) ;
#803 = CARTESIAN_POINT ( 'NONE',  ( -85.40000000000000568, -1.349844053288560507E-14, -12.00000000000000000 ) ) ;
#804 = ORIENTED_EDGE ( 'NONE', *, *, #49, .F. ) ;
#805 = EDGE_CURVE ( 'NONE', #597, #923, #28, .T. ) ;
#806 = CARTESIAN_POINT ( 'NONE',  ( -0.08822805999999651372, 10.00000000000000000, 0.000000000000000000 ) ) ;
#807 = DIRECTION ( 'NONE',  ( -0.000000000000000000, -1.000000000000000000, -0.000000000000000000 ) ) ;
#808 = ORIENTED_EDGE ( 'NONE', *, *, #1135, .F. ) ;
#809 = DIRECTION ( 'NONE',  ( 0.000000000000000000, 0.000000000000000000, 1.000000000000000000 ) ) ;
#810 = ORIENTED_EDGE ( 'NONE', *, *, #291, .T. ) ;
#811 = CIRCLE ( 'NONE', #1100, 4.100000000000001421 ) ;
#812 = FACE_OUTER_BOUND ( 'NONE', #972, .T. ) ;
#813 = EDGE_CURVE ( 'NONE', #301, #682, #101, .T. ) ;
#814 = ORIENTED_EDGE ( 'NONE', *, *, #671, .F. ) ;
#815 = DIRECTION ( 'NONE',  ( -0.000000000000000000, 1.000000000000000000, -0.000000000000000000 ) ) ;
#816 = ORIENTED_EDGE ( 'NONE', *, *, #2, .T. ) ;
#817 = DIRECTION ( 'NONE',  ( -1.000000000000000000, -1.587229367387319033E-16, 0.000000000000000000 ) ) ;
#818 = VECTOR ( 'NONE', #1061, 1000.000000000000000 ) ;
#819 = ORIENTED_EDGE ( 'NONE', *, *, #782, .T. ) ;
#820 = CIRCLE ( 'NONE', #741, 1.600000000000000533 ) ;
#821 = DIRECTION ( 'NONE',  ( 1.000000000000000000, 0.000000000000000000, 0.000000000000000000 ) ) ;
#822 = ADVANCED_FACE ( 'NONE', ( #605 ), #1121, .T. ) ;
#823 =( NAMED_UNIT ( * ) SI_UNIT ( $, .STERADIAN. ) SOLID_ANGLE_UNIT ( ) );
#824 = ORIENTED_EDGE ( 'NONE', *, *, #865, .F. ) ;
#825 = CARTESIAN_POINT ( 'NONE',  ( -23.02893218813457921, -23.02893218813451526, 12.00000000000000000 ) ) ;
#826 = CC_DESIGN_DATE_AND_TIME_ASSIGNMENT ( #437, #331, ( #960 ) ) ;
#827 = CLOSED_SHELL ( 'NONE', ( #594, #69, #822, #1067, #211, #129, #658, #848, #390, #171, #1015, #934, #1127, #540, #36, #1099, #499, #285, #731, #532, #333, #750, #1059, #1021, #602, #361, #240, #122, #664, #464, #959, #1048, #227, #516, #293 ) ) ;
#828 = CARTESIAN_POINT ( 'NONE',  ( -30.10000000000007958, -30.09999999999998721, 12.00000000000000000 ) ) ;
#829 = ORIENTED_EDGE ( 'NONE', *, *, #346, .T. ) ;
#830 = DIRECTION ( 'NONE',  ( 0.000000000000000000, 0.000000000000000000, -1.000000000000000000 ) ) ;
#831 = DIRECTION ( 'NONE',  ( 0.000000000000000000, 1.000000000000000000, 0.000000000000000000 ) ) ;
#832 = ORIENTED_EDGE ( 'NONE', *, *, #548, .F. ) ;
#833 = FACE_BOUND ( 'NONE', #895, .T. ) ;
#834 = AXIS2_PLACEMENT_3D ( 'NONE', #828, #320, #908 ) ;
#835 = CARTESIAN_POINT ( 'NONE',  ( -82.40000000000000568, 98.99999999999997158, 0.000000000000000000 ) ) ;
#836 = ORIENTED_EDGE ( 'NONE', *, *, #904, .F. ) ;
#837 = CC_DESIGN_PERSON_AND_ORGANIZATION_ASSIGNMENT ( #850, #243, ( #455 ) ) ;
#838 = CARTESIAN_POINT ( 'NONE',  ( -75.40000000000000568, 29.34213562373104978, 12.00000000000000000 ) ) ;
#839 = CARTESIAN_POINT ( 'NONE',  ( -24.84466094067262887, 0.000000000000000000, 2.500000000000000000 ) ) ;
#840 = ORIENTED_EDGE ( 'NONE', *, *, #128, .T. ) ;
#841 = CARTESIAN_POINT ( 'NONE',  ( 15.80000000000000071, 1.322618543079141296E-15, -2.000000000000000000 ) ) ;
#842 = AXIS2_PLACEMENT_3D ( 'NONE', #918, #482, #311 ) ;
#843 = VERTEX_POINT ( 'NONE', #1050 ) ;
#844 = DIRECTION ( 'NONE',  ( -1.000000000000000000, -0.000000000000000000, -0.000000000000000000 ) ) ;
#845 = CARTESIAN_POINT ( 'NONE',  ( -75.40000000000000568, -1.191782688734864915E-14, 12.00000000000000000 ) ) ;
#846 = VECTOR ( 'NONE', #853, 1000.000000000000000 ) ;
#847 = PRODUCT ( 'Link_90deg', 'Link_90deg', '', ( #1042 ) ) ;
#848 = ADVANCED_FACE ( 'NONE', ( #962 ), #955, .F. ) ;
#849 = AXIS2_PLACEMENT_3D ( 'NONE', #576, #1007, #1024 ) ;
#850 = PERSON_AND_ORGANIZATION ( #653, #1053 ) ;
#851 = ORIENTED_EDGE ( 'NONE', *, *, #805, .F. ) ;
#852 = DIRECTION ( 'NONE',  ( 0.000000000000000000, 0.000000000000000000, 1.000000000000000000 ) ) ;
#853 = DIRECTION ( 'NONE',  ( -1.000000000000000000, -0.000000000000000000, -0.000000000000000000 ) ) ;
#854 = ORIENTED_EDGE ( 'NONE', *, *, #648, .F. ) ;
#855 = CARTESIAN_POINT ( 'NONE',  ( -0.08822805999999651372, 0.000000000000000000, 0.000000000000000000 ) ) ;
#856 = CARTESIAN_POINT ( 'NONE',  ( 5.800000000000001599, -1.024250050195969141E-16, -12.00000000000000000 ) ) ;
#857 = EDGE_CURVE ( 'NONE', #184, #552, #874, .T. ) ;
#858 = EDGE_LOOP ( 'NONE', ( #558, #539 ) ) ;
#859 = CARTESIAN_POINT ( 'NONE',  ( -0.08822805999999633331, -7.000000000000007994, -1.600000000000000533 ) ) ;
#860 = LINE ( 'NONE', #157, #174 ) ;
#861 = EDGE_LOOP ( 'NONE', ( #881, #1081, #884, #620, #1129, #963 ) ) ;
#862 = CYLINDRICAL_SURFACE ( 'NONE', #88, 4.000000000000000888 ) ;
#863 = CARTESIAN_POINT ( 'NONE',  ( -75.40000000000000568, -1.191782688734864915E-14, 12.00000000000000000 ) ) ;
#864 = SECURITY_CLASSIFICATION_LEVEL ( 'unclassified' ) ;
#865 = EDGE_CURVE ( 'NONE', #597, #682, #599, .T. ) ;
#866 = CARTESIAN_POINT ( 'NONE',  ( 15.80000000000000071, 1.322618543079141296E-15, -12.00000000000000000 ) ) ;
#867 = DIRECTION ( 'NONE',  ( 0.000000000000000000, -1.000000000000000000, 0.000000000000000000 ) ) ;
#868 = EDGE_LOOP ( 'NONE', ( #618, #441, #32, #795 ) ) ;
#869 = DIRECTION ( 'NONE',  ( 1.580613645536956068E-16, -1.000000000000000000, 0.000000000000000000 ) ) ;
#870 = DIRECTION ( 'NONE',  ( -1.000000000000000000, 0.000000000000000000, 0.000000000000000000 ) ) ;
#871 = AXIS2_PLACEMENT_3D ( 'NONE', #628, #381, #982 ) ;
#872 = CALENDAR_DATE ( 2026, 3, 6 ) ;
#873 = CARTESIAN_POINT ( 'NONE',  ( -60.09994856424412291, 35.25528762357158996, 2.500000000000000000 ) ) ;
#874 = LINE ( 'NONE', #1031, #307 ) ;
#875 = EDGE_CURVE ( 'NONE', #378, #61, #413, .T. ) ;
#876 = CARTESIAN_POINT ( 'NONE',  ( -0.08822805999999633331, -7.000000000000007994, -1.600000000000000533 ) ) ;
#877 = ORIENTED_EDGE ( 'NONE', *, *, #941, .F. ) ;
#878 = CARTESIAN_POINT ( 'NONE',  ( -85.40000000000001990, 98.99999999999997158, 1.599999999999997646 ) ) ;
#879 = VECTOR ( 'NONE', #238, 1000.000000000000000 ) ;
#880 = DIRECTION ( 'NONE',  ( 1.000000000000000000, 0.000000000000000000, 0.000000000000000000 ) ) ;
#881 = ORIENTED_EDGE ( 'NONE', *, *, #1084, .F. ) ;
#882 = CIRCLE ( 'NONE', #1026, 10.00000000000000000 ) ;
#883 = CARTESIAN_POINT ( 'NONE',  ( -65.40000000000001990, 98.99999999999997158, 0.000000000000000000 ) ) ;
#884 = ORIENTED_EDGE ( 'NONE', *, *, #689, .T. ) ;
#885 = DIRECTION ( 'NONE',  ( 0.000000000000000000, 0.000000000000000000, -1.000000000000000000 ) ) ;
#886 = CARTESIAN_POINT ( 'NONE',  ( -50.20000000000000284, -10.00000000000000888, 12.00000000000000000 ) ) ;
#887 = EDGE_LOOP ( 'NONE', ( #877, #939 ) ) ;
#888 = DIRECTION ( 'NONE',  ( -0.7071067811865465735, 0.7071067811865484609, 0.000000000000000000 ) ) ;
#889 = ORIENTED_EDGE ( 'NONE', *, *, #495, .F. ) ;
#890 = EDGE_CURVE ( 'NONE', #669, #692, #246, .T. ) ;
#891 = VECTOR ( 'NONE', #766, 1000.000000000000000 ) ;
#892 = DIRECTION ( 'NONE',  ( 0.000000000000000000, 1.000000000000000000, 0.000000000000000000 ) ) ;
#893 = CARTESIAN_POINT ( 'NONE',  ( -75.40000000000000568, 98.99999999999997158, -4.100000000000001421 ) ) ;
#894 = VECTOR ( 'NONE', #13, 1000.000000000000000 ) ;
#895 = EDGE_LOOP ( 'NONE', ( #282, #546 ) ) ;
#896 = CARTESIAN_POINT ( 'NONE',  ( 15.80000000000000071, 1.322618543079141296E-15, 2.000000000000000000 ) ) ;
#897 = ORIENTED_EDGE ( 'NONE', *, *, #1078, .T. ) ;
#898 = DIRECTION ( 'NONE',  ( 0.000000000000000000, 0.000000000000000000, -1.000000000000000000 ) ) ;
#899 = VERTEX_POINT ( 'NONE', #947 ) ;
#900 = DIRECTION ( 'NONE',  ( -1.000000000000000000, 0.000000000000000000, 0.000000000000000000 ) ) ;
#901 = ORIENTED_EDGE ( 'NONE', *, *, #950, .F. ) ;
#902 = CARTESIAN_POINT ( 'NONE',  ( -65.40000000000001990, 98.99999999999997158, 4.100000000000001421 ) ) ;
#903 = ORIENTED_EDGE ( 'NONE', *, *, #913, .F. ) ;
#904 = EDGE_CURVE ( 'NONE', #326, #642, #860, .T. ) ;
#905 = LINE ( 'NONE', #372, #585 ) ;
#906 = ORIENTED_EDGE ( 'NONE', *, *, #638, .T. ) ;
#907 = LOCAL_TIME ( 10, 11, 28.00000000000000000, #1118 ) ;
#908 = DIRECTION ( 'NONE',  ( 0.7071067811865464625, -0.7071067811865486830, 0.000000000000000000 ) ) ;
#909 = AXIS2_PLACEMENT_3D ( 'NONE', #574, #41, #491 ) ;
#910 = ORIENTED_EDGE ( 'NONE', *, *, #368, .T. ) ;
#911 = VECTOR ( 'NONE', #815, 1000.000000000000000 ) ;
#912 = DIRECTION ( 'NONE',  ( 0.000000000000000000, -0.000000000000000000, -1.000000000000000000 ) ) ;
#913 = EDGE_CURVE ( 'NONE', #458, #14, #686, .T. ) ;
#914 = LINE ( 'NONE', #393, #433 ) ;
#915 = EDGE_LOOP ( 'NONE', ( #141, #100 ) ) ;
#916 = DIRECTION ( 'NONE',  ( 0.3656594738826723923, -0.9307487035499147909, 0.000000000000000000 ) ) ;
#917 = CIRCLE ( 'NONE', #235, 4.100000000000001421 ) ;
#918 = CARTESIAN_POINT ( 'NONE',  ( 0.000000000000000000, 0.000000000000000000, 0.000000000000000000 ) ) ;
#919 = ORIENTED_EDGE ( 'NONE', *, *, #218, .F. ) ;
#920 = CARTESIAN_POINT ( 'NONE',  ( -75.40000000000000568, 29.34213562373104978, -2.500000000000000444 ) ) ;
#921 = EDGE_CURVE ( 'NONE', #698, #537, #1074, .T. ) ;
#922 = CARTESIAN_POINT ( 'NONE',  ( -0.08822805999999651372, 10.00000000000000000, 0.000000000000000000 ) ) ;
#923 = VERTEX_POINT ( 'NONE', #549 ) ;
#924 = LINE ( 'NONE', #310, #1041 ) ;
#925 = VECTOR ( 'NONE', #110, 1000.000000000000000 ) ;
#926 = DIRECTION ( 'NONE',  ( 0.000000000000000000, 0.000000000000000000, 1.000000000000000000 ) ) ;
#927 = EDGE_LOOP ( 'NONE', ( #601, #561, #74, #317 ) ) ;
#928 = DIRECTION ( 'NONE',  ( -1.000000000000000000, 0.000000000000000000, 0.000000000000000000 ) ) ;
#929 = AXIS2_PLACEMENT_3D ( 'NONE', #274, #784, #892 ) ;
#930 = AXIS2_PLACEMENT_3D ( 'NONE', #79, #337, #681 ) ;
#931 = VERTEX_POINT ( 'NONE', #376 ) ;
#932 = DIRECTION ( 'NONE',  ( -1.000000000000000000, -0.000000000000000000, -0.000000000000000000 ) ) ;
#933 = PLANE ( 'NONE',  #849 ) ;
#934 = ADVANCED_FACE ( 'NONE', ( #11, #1080 ), #457, .F. ) ;
#935 = APPLICATION_PROTOCOL_DEFINITION ( 'international standard', 'config_control_design', 1994, #587 ) ;
#936 = EDGE_LOOP ( 'NONE', ( #52, #468, #889, #115 ) ) ;
#937 = DIRECTION ( 'NONE',  ( -1.000000000000000000, -1.425043548098738260E-16, 0.000000000000000000 ) ) ;
#938 = DIRECTION ( 'NONE',  ( 0.000000000000000000, 0.000000000000000000, 1.000000000000000000 ) ) ;
#939 = ORIENTED_EDGE ( 'NONE', *, *, #695, .F. ) ;
#940 = DIRECTION ( 'NONE',  ( 1.000000000000000000, -0.000000000000000000, -0.000000000000000000 ) ) ;
#941 = EDGE_CURVE ( 'NONE', #642, #224, #544, .T. ) ;
#942 = ORIENTED_EDGE ( 'NONE', *, *, #475, .T. ) ;
#943 =( GEOMETRIC_REPRESENTATION_CONTEXT ( 3 ) GLOBAL_UNCERTAINTY_ASSIGNED_CONTEXT ( ( #533 ) ) GLOBAL_UNIT_ASSIGNED_CONTEXT ( ( #569, #119, #823 ) ) REPRESENTATION_CONTEXT ( 'NONE', 'WORKASPACE' ) );
#944 = APPROVAL_DATE_TIME ( #1034, #701 ) ;
#945 = ORIENTED_EDGE ( 'NONE', *, *, #27, .F. ) ;
#946 = CARTESIAN_POINT ( 'NONE',  ( -82.40000000000000568, 98.99999999999997158, 1.599999999999997646 ) ) ;
#947 = CARTESIAN_POINT ( 'NONE',  ( -85.40000000000001990, 103.0000000000000000, 12.00000000000000000 ) ) ;
#948 = CARTESIAN_POINT ( 'NONE',  ( -75.40000000000001990, 112.9999999999999858, 2.000000000000000000 ) ) ;
#949 = EDGE_LOOP ( 'NONE', ( #1092, #1068, #244, #1043 ) ) ;
#950 = EDGE_CURVE ( 'NONE', #1086, #692, #715, .T. ) ;
#951 = DATE_AND_TIME ( #501, #559 ) ;
#952 = AXIS2_PLACEMENT_3D ( 'NONE', #866, #164, #937 ) ;
#953 = VERTEX_POINT ( 'NONE', #893 ) ;
#954 = CARTESIAN_POINT ( 'NONE',  ( -85.40000000000000568, 25.20000000000009877, 12.00000000000000000 ) ) ;
#955 = CYLINDRICAL_SURFACE ( 'NONE', #966, 1.599999999999997646 ) ;
#956 = DIRECTION ( 'NONE',  ( 1.000000000000000000, -0.000000000000000000, -0.000000000000000000 ) ) ;
#957 = ORIENTED_EDGE ( 'NONE', *, *, #695, .T. ) ;
#958 = CALENDAR_DATE ( 2026, 3, 6 ) ;
#959 = ADVANCED_FACE ( 'NONE', ( #287 ), #187, .F. ) ;
#960 = SECURITY_CLASSIFICATION ( '', '', #864 ) ;
#961 = PLANE ( 'NONE',  #391 ) ;
#962 = FACE_OUTER_BOUND ( 'NONE', #230, .T. ) ;
#963 = ORIENTED_EDGE ( 'NONE', *, *, #54, .T. ) ;
#964 = CYLINDRICAL_SURFACE ( 'NONE', #730, 10.00000000000000000 ) ;
#965 = ORIENTED_EDGE ( 'NONE', *, *, #745, .T. ) ;
#966 = AXIS2_PLACEMENT_3D ( 'NONE', #342, #173, #523 ) ;
#967 = AXIS2_PLACEMENT_3D ( 'NONE', #45, #318, #649 ) ;
#968 = CARTESIAN_POINT ( 'NONE',  ( -0.08822805999999651372, 0.000000000000000000, -4.099999999999999645 ) ) ;
#969 = DIRECTION ( 'NONE',  ( 0.7071067811865465735, -0.7071067811865485719, 0.000000000000000000 ) ) ;
#970 = ORIENTED_EDGE ( 'NONE', *, *, #222, .T. ) ;
#971 = DIRECTION ( 'NONE',  ( 0.000000000000000000, 0.000000000000000000, 1.000000000000000000 ) ) ;
#972 = EDGE_LOOP ( 'NONE', ( #851, #509, #168, #919 ) ) ;
#973 = DIRECTION ( 'NONE',  ( -1.000000000000000000, 0.000000000000000000, 0.000000000000000000 ) ) ;
#974 = AXIS2_PLACEMENT_3D ( 'NONE', #327, #62, #672 ) ;
#975 = DIRECTION ( 'NONE',  ( -0.3656594738826723368, 0.9307487035499147909, 0.000000000000000000 ) ) ;
#976 = ORIENTED_EDGE ( 'NONE', *, *, #87, .T. ) ;
#977 = VECTOR ( 'NONE', #799, 1000.000000000000000 ) ;
#978 = DIRECTION ( 'NONE',  ( -1.580613645536955821E-16, 1.000000000000000000, 0.000000000000000000 ) ) ;
#979 = ORIENTED_EDGE ( 'NONE', *, *, #153, .F. ) ;
#980 = EDGE_CURVE ( 'NONE', #1028, #458, #542, .T. ) ;
#981 = DIRECTION ( 'NONE',  ( -1.000000000000000000, -1.734723475976807094E-16, 0.000000000000000000 ) ) ;
#982 = DIRECTION ( 'NONE',  ( 0.000000000000000000, 0.000000000000000000, 1.000000000000000000 ) ) ;
#983 = ORIENTED_EDGE ( 'NONE', *, *, #153, .T. ) ;
#984 = DIRECTION ( 'NONE',  ( 0.000000000000000000, -1.000000000000000000, 0.000000000000000000 ) ) ;
#985 = ORIENTED_EDGE ( 'NONE', *, *, #980, .F. ) ;
#986 = CC_DESIGN_DATE_AND_TIME_ASSIGNMENT ( #347, #162, ( #455 ) ) ;
#987 = VECTOR ( 'NONE', #408, 1000.000000000000000 ) ;
#988 = CARTESIAN_POINT ( 'NONE',  ( -75.40000000000000568, 98.99999999999997158, 4.100000000000001421 ) ) ;
#989 = FACE_OUTER_BOUND ( 'NONE', #768, .T. ) ;
#990 = VERTEX_POINT ( 'NONE', #97 ) ;
#991 = DIRECTION ( 'NONE',  ( 1.000000000000000000, 1.580613645536955821E-16, -0.000000000000000000 ) ) ;
#992 = ORIENTED_EDGE ( 'NONE', *, *, #792, .T. ) ;
#993 = EDGE_CURVE ( 'NONE', #309, #149, #29, .T. ) ;
#994 = DIRECTION ( 'NONE',  ( 0.000000000000000000, 0.000000000000000000, -1.000000000000000000 ) ) ;
#995 = VERTEX_POINT ( 'NONE', #902 ) ;
#996 = CYLINDRICAL_SURFACE ( 'NONE', #563, 4.000000000000000000 ) ;
#997 = ORIENTED_EDGE ( 'NONE', *, *, #1093, .F. ) ;
#998 = CIRCLE ( 'NONE', #930, 10.00000000000000000 ) ;
#999 = EDGE_CURVE ( 'NONE', #1140, #1028, #363, .T. ) ;
#1000 = PLANE ( 'NONE',  #7 ) ;
#1001 = VERTEX_POINT ( 'NONE', #536 ) ;
#1002 = FACE_BOUND ( 'NONE', #105, .T. ) ;
#1003 = DIRECTION ( 'NONE',  ( 0.000000000000000000, -1.000000000000000000, 0.000000000000000000 ) ) ;
#1004 = AXIS2_PLACEMENT_3D ( 'NONE', #418, #1045, #504 ) ;
#1005 = EDGE_LOOP ( 'NONE', ( #163, #366, #942, #290 ) ) ;
#1006 = CIRCLE ( 'NONE', #705, 9.999999999999994671 ) ;
#1007 = DIRECTION ( 'NONE',  ( 0.7071067811865484609, 0.7071067811865465735, -0.000000000000000000 ) ) ;
#1008 = DIRECTION ( 'NONE',  ( 0.000000000000000000, -1.000000000000000000, 0.000000000000000000 ) ) ;
#1009 = ORIENTED_EDGE ( 'NONE', *, *, #921, .T. ) ;
#1010 = CARTESIAN_POINT ( 'NONE',  ( -82.40000000000000568, 98.99999999999997158, 0.000000000000000000 ) ) ;
#1011 = EDGE_CURVE ( 'NONE', #692, #675, #275, .T. ) ;
#1012 = CARTESIAN_POINT ( 'NONE',  ( -75.40000000000001990, 0.000000000000000000, 2.500000000000000000 ) ) ;
#1013 = ORIENTED_EDGE ( 'NONE', *, *, #258, .F. ) ;
#1014 = CARTESIAN_POINT ( 'NONE',  ( -24.84466094067262887, 0.000000000000000000, -2.500000000000000000 ) ) ;
#1015 = ADVANCED_FACE ( 'NONE', ( #387 ), #622, .F. ) ;
#1016 = APPROVAL_PERSON_ORGANIZATION ( #521, #249, #1136 ) ;
#1017 = CARTESIAN_POINT ( 'NONE',  ( -85.40000000000001990, 103.0000000000000000, -12.00000000000000000 ) ) ;
#1018 = ORIENTED_EDGE ( 'NONE', *, *, #298, .F. ) ;
#1019 = CYLINDRICAL_SURFACE ( 'NONE', #364, 10.00000000000000000 ) ;
#1020 = VECTOR ( 'NONE', #432, 1000.000000000000000 ) ;
#1021 = ADVANCED_FACE ( 'NONE', ( #17, #989 ), #709, .T. ) ;
#1022 = ORIENTED_EDGE ( 'NONE', *, *, #913, .T. ) ;
#1023 = FACE_OUTER_BOUND ( 'NONE', #1119, .T. ) ;
#1024 = DIRECTION ( 'NONE',  ( -0.7071067811865465735, 0.7071067811865484609, 0.000000000000000000 ) ) ;
#1025 = AXIS2_PLACEMENT_3D ( 'NONE', #600, #167, #423 ) ;
#1026 = AXIS2_PLACEMENT_3D ( 'NONE', #369, #1138, #981 ) ;
#1027 = COORDINATED_UNIVERSAL_TIME_OFFSET ( 5, 0, .BEHIND. ) ;
#1028 = VERTEX_POINT ( 'NONE', #634 ) ;
#1029 = CC_DESIGN_PERSON_AND_ORGANIZATION_ASSIGNMENT ( #419, #515, ( #721 ) ) ;
#1030 = CARTESIAN_POINT ( 'NONE',  ( -0.08822805999999651372, 10.00000000000000000, 1.600000000000000533 ) ) ;
#1031 = CARTESIAN_POINT ( 'NONE',  ( -85.40000000000000568, 25.20000000000009877, 12.00000000000000000 ) ) ;
#1032 = DIRECTION ( 'NONE',  ( 0.000000000000000000, 0.000000000000000000, 1.000000000000000000 ) ) ;
#1033 = EDGE_LOOP ( 'NONE', ( #131, #665, #629, #18 ) ) ;
#1034 = DATE_AND_TIME ( #769, #265 ) ;
#1035 = EDGE_LOOP ( 'NONE', ( #182, #716, #23, #512 ) ) ;
#1036 = CARTESIAN_POINT ( 'NONE',  ( -75.40000000000001990, 103.0000000000000000, -12.00000000000000000 ) ) ;
#1037 = DIRECTION ( 'NONE',  ( 0.7071067811865465735, -0.7071067811865485719, 0.000000000000000000 ) ) ;
#1038 = PLANE ( 'NONE',  #1025 ) ;
#1039 = ORIENTED_EDGE ( 'NONE', *, *, #720, .F. ) ;
#1040 = VECTOR ( 'NONE', #867, 1000.000000000000000 ) ;
#1041 = VECTOR ( 'NONE', #221, 1000.000000000000000 ) ;
#1042 = MECHANICAL_CONTEXT ( 'NONE', #529, 'mechanical' ) ;
#1043 = ORIENTED_EDGE ( 'NONE', *, *, #40, .F. ) ;
#1044 = FACE_OUTER_BOUND ( 'NONE', #237, .T. ) ;
#1045 = DIRECTION ( 'NONE',  ( 1.000000000000000000, 0.000000000000000000, 0.000000000000000000 ) ) ;
#1046 = CARTESIAN_POINT ( 'NONE',  ( -30.10000000000007958, -30.09999999999998721, -12.00000000000000000 ) ) ;
#1047 = DIRECTION ( 'NONE',  ( -0.000000000000000000, -1.000000000000000000, -0.000000000000000000 ) ) ;
#1048 = ADVANCED_FACE ( 'NONE', ( #644 ), #1000, .T. ) ;
#1049 = DIRECTION ( 'NONE',  ( 0.000000000000000000, 0.000000000000000000, -1.000000000000000000 ) ) ;
#1050 = CARTESIAN_POINT ( 'NONE',  ( -75.40000000000000568, 29.34213562373104978, 12.00000000000000000 ) ) ;
#1051 = DIRECTION ( 'NONE',  ( 1.000000000000000000, 0.000000000000000000, 0.000000000000000000 ) ) ;
#1052 = ORIENTED_EDGE ( 'NONE', *, *, #738, .T. ) ;
#1053 = ORGANIZATION ( 'UNSPECIFIED', 'UNSPECIFIED', '' ) ;
#1054 = DIRECTION ( 'NONE',  ( 1.000000000000000000, -0.000000000000000000, -0.000000000000000000 ) ) ;
#1055 = CYLINDRICAL_SURFACE ( 'NONE', #1004, 10.00000000000000000 ) ;
#1056 = CARTESIAN_POINT ( 'NONE',  ( 15.80000000000000071, -10.00000000000000000, 12.00000000000000000 ) ) ;
#1057 = VERTEX_POINT ( 'NONE', #886 ) ;
#1058 = CIRCLE ( 'NONE', #367, 1.600000000000000533 ) ;
#1059 = ADVANCED_FACE ( 'NONE', ( #370 ), #462, .T. ) ;
#1060 = CARTESIAN_POINT ( 'NONE',  ( -0.08822805999999651372, -7.000000000000007994, 0.000000000000000000 ) ) ;
#1061 = DIRECTION ( 'NONE',  ( -0.000000000000000000, -1.000000000000000000, -0.000000000000000000 ) ) ;
#1062 = DIRECTION ( 'NONE',  ( 0.7071067811865484609, 0.7071067811865465735, -0.000000000000000000 ) ) ;
#1063 = ORIENTED_EDGE ( 'NONE', *, *, #1101, .F. ) ;
#1064 = CARTESIAN_POINT ( 'NONE',  ( -6.096536162200356395E-31, 3.840992541762029357E-15, 2.500000000000000000 ) ) ;
#1065 = VECTOR ( 'NONE', #940, 1000.000000000000000 ) ;
#1066 = DIRECTION ( 'NONE',  ( 0.9307487035499149020, 0.3656594738826723923, -0.000000000000000000 ) ) ;
#1067 = ADVANCED_FACE ( 'NONE', ( #812 ), #223, .F. ) ;
#1068 = ORIENTED_EDGE ( 'NONE', *, *, #412, .T. ) ;
#1069 = AXIS2_PLACEMENT_3D ( 'NONE', #359, #870, #507 ) ;
#1070 = DIRECTION ( 'NONE',  ( 1.314184451497581013E-16, -1.000000000000000000, -0.000000000000000000 ) ) ;
#1071 = VERTEX_POINT ( 'NONE', #1017 ) ;
#1072 = EDGE_CURVE ( 'NONE', #603, #488, #914, .T. ) ;
#1073 = CARTESIAN_POINT ( 'NONE',  ( -75.40000000000001990, 74.19999999999997442, -2.500000000000000000 ) ) ;
#1074 = LINE ( 'NONE', #794, #485 ) ;
#1075 = ORIENTED_EDGE ( 'NONE', *, *, #352, .F. ) ;
#1076 = PLANE ( 'NONE',  #547 ) ;
#1077 = ORIENTED_EDGE ( 'NONE', *, *, #761, .F. ) ;
#1078 = EDGE_CURVE ( 'NONE', #1114, #770, #742, .T. ) ;
#1079 = VECTOR ( 'NONE', #817, 1000.000000000000000 ) ;
#1080 = FACE_OUTER_BOUND ( 'NONE', #861, .T. ) ;
#1081 = ORIENTED_EDGE ( 'NONE', *, *, #49, .T. ) ;
#1082 = DIRECTION ( 'NONE',  ( 0.000000000000000000, -1.000000000000000000, 0.000000000000000000 ) ) ;
#1083 = ORIENTED_EDGE ( 'NONE', *, *, #805, .T. ) ;
#1084 = EDGE_CURVE ( 'NONE', #712, #931, #316, .T. ) ;
#1085 = CARTESIAN_POINT ( 'NONE',  ( -24.84466094067262887, 0.000000000000000000, 2.500000000000000000 ) ) ;
#1086 = VERTEX_POINT ( 'NONE', #839 ) ;
#1087 = AXIS2_PLACEMENT_3D ( 'NONE', #758, #253, #1049 ) ;
#1088 = CARTESIAN_POINT ( 'NONE',  ( -46.05786437626903052, -3.469446951953614189E-15, 12.00000000000000000 ) ) ;
#1089 = VECTOR ( 'NONE', #538, 1000.000000000000000 ) ;
#1090 = ORIENTED_EDGE ( 'NONE', *, *, #875, .F. ) ;
#1091 = CARTESIAN_POINT ( 'NONE',  ( -85.40000000000001990, 103.0000000000000000, -2.000000000000000000 ) ) ;
#1092 = ORIENTED_EDGE ( 'NONE', *, *, #76, .F. ) ;
#1093 = EDGE_CURVE ( 'NONE', #6, #195, #777, .T. ) ;
#1094 = CIRCLE ( 'NONE', #596, 4.100000000000001421 ) ;
#1095 = DIRECTION ( 'NONE',  ( -0.000000000000000000, -0.000000000000000000, -1.000000000000000000 ) ) ;
#1096 = DIRECTION ( 'NONE',  ( -1.000000000000000000, -0.000000000000000000, -0.000000000000000000 ) ) ;
#1097 = ORIENTED_EDGE ( 'NONE', *, *, #19, .T. ) ;
#1098 = CARTESIAN_POINT ( 'NONE',  ( 5.800000000000001599, 0.000000000000000000, -12.00000000000000000 ) ) ;
#1099 = ADVANCED_FACE ( 'NONE', ( #560 ), #732, .F. ) ;
#1100 = AXIS2_PLACEMENT_3D ( 'NONE', #183, #1051, #158 ) ;
#1101 = EDGE_CURVE ( 'NONE', #166, #193, #270, .T. ) ;
#1102 = DIRECTION ( 'NONE',  ( 1.000000000000000000, -0.000000000000000000, -0.000000000000000000 ) ) ;
#1103 = VERTEX_POINT ( 'NONE', #403 ) ;
#1104 = LINE ( 'NONE', #406, #1112 ) ;
#1105 = CC_DESIGN_APPROVAL ( #701, ( #960 ) ) ;
#1106 = EDGE_CURVE ( 'NONE', #990, #309, #1111, .T. ) ;
#1107 = DIRECTION ( 'NONE',  ( 0.000000000000000000, 0.000000000000000000, 1.000000000000000000 ) ) ;
#1108 = ORIENTED_EDGE ( 'NONE', *, *, #218, .T. ) ;
#1109 = DIRECTION ( 'NONE',  ( -1.000000000000000000, -0.000000000000000000, -0.000000000000000000 ) ) ;
#1110 = CARTESIAN_POINT ( 'NONE',  ( -0.08822805999999651372, -10.00000000000000178, -4.000000000000000000 ) ) ;
#1111 = CIRCLE ( 'NONE', #471, 4.099999999999999645 ) ;
#1112 = VECTOR ( 'NONE', #754, 999.9999999999998863 ) ;
#1113 = EDGE_CURVE ( 'NONE', #645, #326, #196, .T. ) ;
#1114 = VERTEX_POINT ( 'NONE', #751 ) ;
#1115 = PLANE ( 'NONE',  #974 ) ;
#1116 = LINE ( 'NONE', #691, #148 ) ;
#1117 = CIRCLE ( 'NONE', #33, 1.599999999999997646 ) ;
#1118 = COORDINATED_UNIVERSAL_TIME_OFFSET ( 5, 0, .BEHIND. ) ;
#1119 = EDGE_LOOP ( 'NONE', ( #394, #903, #985, #460, #637, #694, #656, #565, #505, #901 ) ) ;
#1120 = PLANE ( 'NONE',  #203 ) ;
#1121 = CYLINDRICAL_SURFACE ( 'NONE', #117, 4.099999999999999645 ) ;
#1122 = CARTESIAN_POINT ( 'NONE',  ( -0.08822805999999601412, 0.000000000000000000, 4.099999999999999645 ) ) ;
#1123 = ORIENTED_EDGE ( 'NONE', *, *, #774, .T. ) ;
#1124 = ORIENTED_EDGE ( 'NONE', *, *, #875, .T. ) ;
#1125 = LINE ( 'NONE', #83, #329 ) ;
#1126 = CARTESIAN_POINT ( 'NONE',  ( -12.42233047033634818, -12.42233047033631443, -2.500000000000000000 ) ) ;
#1127 = ADVANCED_FACE ( 'NONE', ( #747 ), #304, .T. ) ;
#1128 = CARTESIAN_POINT ( 'NONE',  ( -85.40000000000000568, -1.349844053288560507E-14, 12.00000000000000000 ) ) ;
#1129 = ORIENTED_EDGE ( 'NONE', *, *, #352, .T. ) ;
#1130 = AXIS2_PLACEMENT_3D ( 'NONE', #835, #1096, #1107 ) ;
#1131 = CARTESIAN_POINT ( 'NONE',  ( -12.42233047033634818, -12.42233047033631443, 2.500000000000000000 ) ) ;
#1132 = DIRECTION ( 'NONE',  ( -1.000000000000000000, 0.000000000000000000, 0.000000000000000000 ) ) ;
#1133 = DIRECTION ( 'NONE',  ( -1.000000000000000000, -0.000000000000000000, -0.000000000000000000 ) ) ;
#1134 = LINE ( 'NONE', #351, #392 ) ;
#1135 = EDGE_CURVE ( 'NONE', #209, #1142, #740, .T. ) ;
#1136 = APPROVAL_ROLE ( '' ) ;
#1137 = VECTOR ( 'NONE', #973, 1000.000000000000000 ) ;
#1138 = DIRECTION ( 'NONE',  ( 1.314184451497581013E-16, -1.000000000000000000, -0.000000000000000000 ) ) ;
#1139 = DIRECTION ( 'NONE',  ( 0.000000000000000000, 0.000000000000000000, 1.000000000000000000 ) ) ;
#1140 = VERTEX_POINT ( 'NONE', #577 ) ;
#1141 = CARTESIAN_POINT ( 'NONE',  ( -0.08822805999999651372, -6.999999999999998224, 0.000000000000000000 ) ) ;
#1142 = VERTEX_POINT ( 'NONE', #130 ) ;
ENDSEC;
END-ISO-10303-21;
